<svg xmlns="http://www.w3.org/2000/svg" width="320" height="40"><g fill="#424345" fill-rule="nonzero"><path d="M9.944 30.84h1.96c-.056-.616-.084-1.232-.14-1.82 3.164-.252 6.02-1.624 6.02-4.676 0-2.464-1.54-3.696-3.388-4.424-.98-.364-2.016-.616-3.024-.868.028-2.212.14-4.452.28-6.664 1.932.224 3.976 1.008 5.488 2.212v-2.436c-1.68-.896-3.584-1.568-5.376-1.68.056-.588.084-1.176.14-1.764h-1.96c.056.616.112 1.232.14 1.848-2.856.308-5.376 1.764-5.376 4.648 0 2.324 1.596 3.556 3.5 4.144.728.252 1.512.504 2.324.728 0 2.38-.14 4.788-.308 7.196-1.904-.196-3.892-.756-5.46-2.044v2.436c1.288.784 3.304 1.288 5.32 1.372a38.585 38.585 0 0 1-.14 1.792ZM5.576 15.216c.308-1.848 2.324-2.8 4.648-2.884.168 2.184.28 4.34.308 6.496a23.592 23.592 0 0 1-2.128-.588c-1.624-.56-2.828-1.456-2.828-3.024Zm5.796 5.124c.98.28 1.932.56 2.828.868 1.624.616 2.744 1.68 2.744 3.108-.364 1.932-2.66 3.024-5.264 3.024h-.028c-.14-2.324-.252-4.676-.28-7ZM32.4 30h12.768v-2.772c-3.668.952-6.58 1.372-11.34 1.372 1.26-1.708 1.988-3.5 1.988-4.9 0-1.568-.476-2.576-1.036-3.612 1.232.056 2.436.28 3.668.56v-1.96c-1.4.28-2.716.504-4.116.532-.56-1.12-1.092-2.464-1.092-4.62.168-2.24 2.016-3.556 4.424-3.556 2.324 0 5.096 1.316 7.532 3.668V11.94c-2.072-1.736-4.48-2.632-6.804-2.632-3.248 0-5.992 1.932-5.992 5.852 0 1.344.42 2.688.868 4.032-1.26-.056-2.52-.252-3.752-.504v1.96c1.344-.308 2.688-.532 4.032-.588.448 1.344.84 2.716.84 4.172 0 1.624-.728 3.276-1.988 5.768ZM57.404 21.068v1.96c1.736-.364 2.352-.448 2.716-.476 1.064 4.816 4.928 7.756 9.744 7.756 2.828 0 5.516-.644 7.896-2.1v-2.772c-2.184 2.156-6.16 2.968-8.792 2.968-3.808 0-6.888-1.988-7.728-5.852 3.64.028 7.896.168 9.52.476v-1.96c-1.652.28-6.02.42-9.688.448a16.545 16.545 0 0 1-.056-1.204c0-.42.028-.812.084-1.204 3.64.028 8.008.196 9.66.504v-1.96c-1.624.28-5.852.42-9.464.448 1.036-4.116 4.872-7 9.016-7 2.436 0 5.012.924 7.448 3.024v-2.772a14.123 14.123 0 0 0-7.364-2.072c-5.04 0-9.744 2.688-10.472 8.792-.392-.028-1.064-.14-2.52-.42v1.96c1.344-.28 2.016-.42 2.408-.476v.644c0 .588.028 1.176.112 1.708-.392-.028-1.064-.112-2.52-.42Z"/></g></svg>