<svg xmlns="http://www.w3.org/2000/svg" width="320" height="40"><g fill="#424345" fill-rule="nonzero"><path d="M11.512 30.308c3.892 0 7.364-3.808 7.364-10.528 0-6.72-3.472-10.528-7.364-10.528-3.92 0-7.392 3.808-7.392 10.528 0 6.72 3.472 10.528 7.392 10.528ZM5.044 20.116c0-5.376 3.836-8.848 7.308-8.848 2.94 0 5.544 2.464 5.544 8.204 0 3.948-3.024 8.932-7.252 8.932-3.528 0-5.6-3.92-5.6-8.288ZM25.232 30h2.772c-.14-3.612-.224-6.916-.224-10.248 0-3.304.084-6.58.224-10.192h-.98c-1.988 2.436-3.304 2.828-6.384 2.968V15.3c2.184 0 5.012-1.736 6.328-3.78.056 1.848.084 3.22.084 4.844 0 3.948-1.4 9.912-1.82 13.636ZM31.056 28.628V30h13.636v-2.912c-3.444.672-7.168 1.12-11.788 1.148 1.764-3.108 11.872-8.12 11.872-13.664 0-3.444-3.108-5.32-6.552-5.32-2.212 0-4.424.812-7.168 2.492v2.772c2.128-1.96 4.816-3.024 7.672-3.024 2.688 0 4.928 1.036 5.096 3.192-.28 4.312-12.768 12.152-12.768 13.944ZM52.868 30.308c4.928 0 7.476-3.108 7.476-6.524 0-3.024-2.128-5.992-7.476-6.412l7.336-6.832v-.98H47.492v2.912c3.976-.7 7.168-1.092 10.668-1.148l-7.168 6.832v.728c6.328 0 8.4 2.772 8.4 5.628-.308 2.128-2.1 4.032-5.656 4.032-2.632 0-5.348-1.092-7.028-2.66v2.772c1.82 1.176 3.976 1.652 6.16 1.652ZM61.8 23.504v.98c2.408-.112 5.04-.14 7.476-.14 1.204 0 2.576 0 3.948.028-.364 2.492-.812 4.508-1.26 5.544V30h2.772v-5.6l2.52.084v-1.96c-.476.112-1.372.196-2.52.308v-9.744h-.728c0 3.304-.224 6.832-.588 9.856-3.696.28-8.68.504-10.024.504v-.084c4.088-2.548 8.26-8.568 8.26-13.804h-2.772c0 7.588-3.416 11.564-7.084 13.944ZM85.544 30.308c4.172 0 7.868-2.52 7.868-7.308 0-4.564-3.64-7.14-7.308-7.14-2.1 0-4.172.924-5.656 2.716v-7.588c4.228.084 8.064.616 12.124 1.4V9.56H79.58c.112 3.836.14 7.644.14 11.48l.924.168c1.624-2.968 3.416-4.06 5.292-4.06 3.388 0 6.384 3.444 6.384 6.552-.28 3.36-2.856 4.816-5.712 4.816-2.632 0-5.348-1.092-7.028-2.66v2.772c1.82 1.204 3.976 1.68 5.964 1.68ZM103.016 30.308c3.64 0 7-2.548 7-7.28 0-4.312-3.164-7.224-6.692-7.224-2.968 0-5.236 2.24-6.104 3.5-.14.196-.364.476-.504.476s-.224-.14-.224-.448c0-2.66 2.772-7.616 9.94-7.616.672 0 1.428.084 2.24.308V9.252c-9.24 0-13.048 6.3-13.048 12.208 0 4.704 1.932 8.848 7.392 8.848Zm-6.272-7.084c.308-3.668 3.668-5.936 7.056-5.936 2.744 0 5.152 1.596 5.152 5.46-.42 1.372-1.624 5.852-6.944 5.852-2.856 0-5.264-1.568-5.264-5.376ZM116.316 29.916V30h2.772c0-9.772 2.772-14.588 6.272-19.46v-.98h-13.888v2.912c4.648-.7 8.512-1.148 12.544-1.176-3.976 6.16-7.7 12.544-7.7 18.62ZM134.264 30.308c4.032 0 7.644-2.464 7.644-6.692 0-3.164-2.24-5.18-4.984-5.964 1.82-.672 3.136-2.044 3.136-3.976 0-2.8-2.716-4.424-5.796-4.424s-5.768 1.624-5.768 4.424c0 1.932 1.288 3.304 3.108 3.976-2.744.784-4.956 2.8-4.956 5.964 0 4.228 3.584 6.692 7.616 6.692Zm-6.664-6.496c0-2.912 4.508-5.264 7.812-5.264 2.912 0 5.46 1.4 5.46 4.9 0 2.968-4.284 5.236-7.616 5.236-2.968 0-5.656-1.428-5.656-4.872Zm1.82-9.66c0-1.624 2.24-3.528 5.712-3.528 2.604 0 3.948 1.316 3.948 2.912 0 1.596-2.044 3.388-5.488 3.388-2.8 0-4.172-1.232-4.172-2.772ZM145.044 27.536v2.772c9.24 0 13.048-6.3 13.048-12.208 0-4.704-1.932-8.848-7.392-8.848-3.64 0-7 2.548-7 7.28 0 4.312 3.164 7.224 6.692 7.224 2.968 0 5.236-2.24 6.104-3.5.14-.196.364-.476.504-.476s.224.14.224.42c0 2.604-3.192 7.784-9.324 7.784-.868 0-1.848-.14-2.856-.448Zm-.28-10.724c.28-1.344 1.624-5.88 6.944-5.88 2.856 0 5.264 1.596 5.264 5.404-.364 3.668-3.668 5.936-7.056 5.936-2.744 0-5.152-1.596-5.152-5.46Z"/></g></svg>