<svg xmlns="http://www.w3.org/2000/svg" width="320" height="40"><g fill="#000" fill-rule="nonzero"><path d="M8.936 30.308c2.828 0 5.292-1.904 7-5.908h.056c-.14 1.876-.672 3.724-1.064 5.6h1.96c.084-2.072.084-4.648.084-6.944 0-4.396-.644-7.364-5.208-7.364-2.016 0-5.04.56-7.7 1.484v2.576c2.94-1.484 5.908-2.688 8.4-2.688 1.904 0 3.22.756 3.444 2.66-9.744 3.416-11.844 4.508-11.844 5.264 0 3.472 2.128 5.32 4.872 5.32ZM5.66 25.212c0-.504 1.568-1.596 10.248-4.564-.56 5.572-3.108 7.784-6.608 7.784-1.708 0-3.64-1.4-3.64-3.22Zm.672-11.928c2.576-.084 5.88-.672 7.812-1.568 0-.7-.14-1.176-.392-1.876-1.764 1.232-5.236 2.38-7.42 2.772v.672ZM20.164 30h1.792c-.336-1.26-.644-2.716-.644-4.088.084-4.256 1.82-7.868 4.956-7.868 1.232 0 2.604.588 4.032 1.708v-2.576c-1.12-.952-2.268-1.456-3.36-1.456-2.016 0-3.892 1.596-5.628 4.704h-.084c.196-1.484.476-2.94.896-4.424h-1.96c.168 2.324.224 4.648.224 7 0 2.352-.056 4.648-.224 7ZM36.404 30.308h.14c4.34-.98 7.756-8.26 7.756-14.308h-1.792c.028.504.056.98.056 1.456-.056 5.264-2.1 9.8-6.244 10.836-1.12-4.116-1.708-8.204-2.632-12.292h-2.772l5.488 14.308ZM46.652 30h2.296c-.84-2.408-1.372-4.76-1.372-6.664 0-3.08 1.26-5.096 1.68-7.336h-2.604c.14 2.324.14 4.648.14 7 0 2.352 0 4.648-.14 7Zm-1.288-16.94.112.644c1.82-.392 3.976-1.372 5.292-2.408a9.3 9.3 0 0 0-.56-1.848c-1.036 1.26-3.36 2.912-4.844 3.612ZM50.908 28.852V30H63.76v-2.492c-5.88 1.064-7.672 1.148-8.988 1.148-1.008 0-1.176-.252-1.176-.504 0-.952 7.896-8.68 10.36-11.004V16H51.692v2.604c2.296-.7 5.684-1.232 8.064-1.232.896 0 1.456.14 1.456.476 0 .868-6.552 7.476-10.304 11.004ZM71.208 30.308c1.092 0 2.772-.7 3.92-1.54v-2.576c-1.624 1.54-3.472 2.352-4.704 2.352-2.296 0-3.36-2.296-3.36-10.08 0-1.26.952-1.652 2.212-1.652 1.624 0 3.92.7 5.852 1.764V16h-7.952c.224-1.064.476-2.044.784-2.912H66c.028 1.568.028 3.08.028 4.648 0 8.708.756 12.572 5.18 12.572ZM83.192 30.308c2.1 0 4.172-1.596 6.048-5.908h.084c-.14 1.876-.504 3.724-.896 5.6h1.96c-.168-2.324-.224-4.648-.224-7 0-2.352.056-4.648.224-7h-.98c0 8.624-2.94 12.544-6.048 12.544-2.548 0-4.872-2.604-4.872-7.364 0-1.764.308-3.584.756-5.18h-1.54c-.42 1.652-.616 3.192-.616 4.592 0 5.992 2.744 9.716 6.104 9.716Zm-1.316-16.212.616.252c.98-1.876 1.512-3.696 2.016-5.376a6.13 6.13 0 0 0-1.988-.616c0 3.416-.056 3.948-.644 5.74Zm3.864 0 .616.252c.98-1.876 1.596-3.696 2.072-5.376-.588-.308-1.176-.504-1.96-.616 0 3.416-.084 3.948-.728 5.74ZM93.748 30h1.792c-.336-1.26-.644-2.716-.644-4.088.084-4.256 1.82-7.868 4.956-7.868 1.232 0 2.604.588 4.032 1.708v-2.576c-1.12-.952-2.268-1.456-3.36-1.456-2.016 0-3.892 1.596-5.628 4.704h-.084c.196-1.484.476-2.94.896-4.424h-1.96c.168 2.324.224 4.648.224 7 0 2.352-.056 4.648-.224 7ZM112.284 30.308c3.836 0 7.196-2.66 7.196-7.336 0-4.648-3.36-7.28-7.196-7.28s-7.196 2.632-7.196 7.28c0 4.676 3.36 7.336 7.196 7.336Zm-6.02-6.776c0-2.912 2.688-6.216 7-6.216 3.304 0 4.984 2.352 4.984 5.124 0 2.912-2.604 6.16-6.888 6.16-3.388 0-5.096-2.324-5.096-5.068Zm3.976-9.436.616.252c.98-1.876 1.512-3.696 2.016-5.376a6.13 6.13 0 0 0-1.988-.616c0 3.416-.056 3.948-.644 5.74Zm3.864 0 .616.252c.98-1.876 1.596-3.696 2.072-5.376-.588-.308-1.176-.504-1.96-.616 0 3.416-.084 3.948-.728 5.74ZM135.524 30.308c1.092 0 2.772-.7 3.92-1.54v-2.576c-1.624 1.54-3.472 2.352-4.704 2.352-2.296 0-3.36-2.296-3.36-10.08 0-1.26.952-1.652 2.212-1.652 1.624 0 3.92.7 5.852 1.764V16h-7.952c.224-1.064.476-2.044.784-2.912h-1.96c.028 1.568.028 3.08.028 4.648 0 8.708.756 12.572 5.18 12.572ZM147.508 30.308c2.1 0 4.172-1.596 6.048-5.908h.084c-.14 1.876-.504 3.724-.896 5.6h1.96c-.168-2.324-.224-4.648-.224-7 0-2.352.056-4.648.224-7h-.98c0 8.624-2.94 12.544-6.048 12.544-2.548 0-4.872-2.604-4.872-7.364 0-1.764.308-3.584.756-5.18h-1.54c-.42 1.652-.616 3.192-.616 4.592 0 5.992 2.744 9.716 6.104 9.716ZM144.26 11.8c0 .896.588 1.344 1.26 1.344.84 0 1.596-.616 1.596-1.54 0-.896-.56-1.4-1.288-1.4a1.59 1.59 0 0 0-1.568 1.596Zm5.124-.028c0 .924.56 1.372 1.26 1.372.812 0 1.568-.616 1.568-1.54 0-.896-.56-1.4-1.26-1.4-.812 0-1.568.672-1.568 1.568ZM158.064 30h2.296c-.756-1.988-1.148-4.116-1.316-5.964.644-.532 1.288-.98 1.876-1.4 2.576 3.976 5.936 7.672 9.856 7.672v-2.576c-4.032-.336-6.188-2.016-9.268-5.488 2.884-1.904 5.32-2.8 8.428-3.752v-2.576c-3.696 1.316-6.132 2.716-10.864 7.084h-.084c0-4.144.308-9.632 1.036-14h-1.96c.14 3.5.14 7 .14 10.5s-.028 7.028-.14 10.5ZM179.428 30.308c3.836 0 7.196-2.66 7.196-7.336 0-4.648-3.36-7.28-7.196-7.28s-7.196 2.632-7.196 7.28c0 4.676 3.36 7.336 7.196 7.336Zm-6.02-6.776c0-2.912 2.688-6.216 7-6.216 3.304 0 4.984 2.352 4.984 5.124 0 2.912-2.604 6.16-6.888 6.16-3.388 0-5.096-2.324-5.096-5.068Zm2.044-11.732c0 .896.588 1.344 1.26 1.344.84 0 1.596-.616 1.596-1.54 0-.896-.56-1.4-1.288-1.4a1.59 1.59 0 0 0-1.568 1.596Zm5.124-.028c0 .924.56 1.372 1.26 1.372.812 0 1.568-.616 1.568-1.54 0-.896-.56-1.4-1.26-1.4-.812 0-1.568.672-1.568 1.568ZM189.144 30h1.792c-.336-1.26-.644-2.716-.644-4.088.084-4.256 1.82-7.868 4.956-7.868 1.232 0 2.604.588 4.032 1.708v-2.576c-1.12-.952-2.268-1.456-3.36-1.456-2.016 0-3.892 1.596-5.628 4.704h-.084c.196-1.484.476-2.94.896-4.424h-1.96c.168 2.324.224 4.648.224 7 0 2.352-.056 4.648-.224 7ZM201.744 30h2.296c-.812-2.744-1.288-8.512-1.288-11.9 0-.924.7-1.148 1.68-1.148 1.008 0 2.604.308 5.236 1.764v-2.548h-6.86c.42-3.164 1.792-5.124 3.5-5.124 1.008 0 2.156.448 3.36 1.764v-2.576c-.84-.728-1.932-1.54-3.192-1.54-3.052 0-4.116 2.716-4.424 7.448h-1.96v1.988c.616-.28 1.316-.56 1.904-.784-.028.756-.028 1.568-.028 2.436 0 2.828-.056 5.628-.224 10.22ZM217.228 30.308c2.1 0 4.172-1.596 6.048-5.908h.084c-.14 1.876-.504 3.724-.896 5.6h1.96c-.168-2.324-.224-4.648-.224-7 0-2.352.056-4.648.224-7h-.98c0 8.624-2.94 12.544-6.048 12.544-2.548 0-4.872-2.604-4.872-7.364 0-1.764.308-3.584.756-5.18h-1.54c-.42 1.652-.616 3.192-.616 4.592 0 5.992 2.744 9.716 6.104 9.716Zm-3.164-17.024c2.576-.084 5.88-.672 7.812-1.568 0-.7-.14-1.176-.392-1.876-1.764 1.232-5.236 2.38-7.42 2.772v.672ZM227.784 30h1.792c-.336-1.26-.644-2.716-.644-4.088.084-4.256 1.82-7.868 4.956-7.868 1.232 0 2.604.588 4.032 1.708v-2.576c-1.12-.952-2.268-1.456-3.36-1.456-2.016 0-3.892 1.596-5.628 4.704h-.084c.196-1.484.476-2.94.896-4.424h-1.96c.168 2.324.224 4.648.224 7 0 2.352-.056 4.648-.224 7ZM246.32 30.308c3.836 0 7.196-2.66 7.196-7.336 0-4.648-3.36-7.28-7.196-7.28s-7.196 2.632-7.196 7.28c0 4.676 3.36 7.336 7.196 7.336Zm-6.02-6.776c0-2.912 2.688-6.216 7-6.216 3.304 0 4.984 2.352 4.984 5.124 0 2.912-2.604 6.16-6.888 6.16-3.388 0-5.096-2.324-5.096-5.068Zm2.128-10.248c2.576-.084 5.88-.672 7.812-1.568 0-.7-.14-1.176-.392-1.876-1.764 1.232-5.236 2.38-7.42 2.772v.672ZM261.244 29.44c4.088 0 6.608-2.856 7-6.16.252-1.288.392-2.828.392-4.284 0-1.82-.112-3.78-.308-5.908h-1.96c.7 1.764 1.456 4.396 1.54 6.832-.84-2.408-2.996-4.228-6.328-4.228-3.668 0-6.384 3.024-6.384 7.14 0 2.212.896 4.368 2.66 5.6-1.736 1.344-2.268 2.772-2.268 3.976 0 2.352 2.212 3.5 5.152 3.5 2.212 0 4.62-.532 6.804-1.512V31.82c-2.044 1.148-5.348 2.296-7.756 2.296-1.876 0-2.968-.7-3.052-1.764.084-.952.896-2.1 2.548-3.22a6.123 6.123 0 0 0 1.96.308Zm-4.984-6.3c0-3.472 3.36-5.88 6.356-5.88 2.352 0 4.508 1.54 4.508 5.404 0 2.492-2.912 5.208-5.992 5.208-3.808 0-4.872-2.016-4.872-4.732ZM277.54 30.308c2.072 0 3.948-.476 5.768-1.484v-2.52c-2.296 1.4-4.34 2.296-6.412 2.296-2.8 0-4.928-1.708-5.096-4.984l11.676-1.092c-.084-2.604-1.456-6.832-5.628-6.832-3.892 0-7.224 2.996-7.224 7.308 0 5.012 3.892 7.308 6.916 7.308Zm-5.712-7.7c.336-2.856 2.912-5.432 5.936-5.432 3.052 0 4.032 2.744 4.088 4.62-3.36.364-6.832.616-10.024.812Zm1.316-9.324c2.576-.084 5.88-.672 7.812-1.568 0-.7-.14-1.176-.392-1.876-1.764 1.232-5.236 2.38-7.42 2.772v.672ZM286.08 35.6h1.96c-.672-3.332-1.008-6.384-1.008-9.744h.056c1.232 3.304 3.64 4.424 5.768 4.424 3.528 0 7.252-2.968 7.252-7.308 0-4.396-3.388-7.308-6.86-7.308-2.324 0-4.704 1.344-6.076 4.452h-.028A36.06 36.06 0 0 1 288.04 16h-1.96c.168 3.248.224 6.524.224 9.8 0 3.276-.056 6.524-.224 9.8Zm.98-12.712c1.848-3.864 4.424-5.488 7.028-5.488 3.248 0 4.816 2.352 4.816 5.124-.336 2.968-3.248 6.16-6.608 6.16-2.212 0-4.788-1.624-5.236-5.796Z"/></g></svg>