<svg xmlns="http://www.w3.org/2000/svg" width="320" height="40"><g fill="#424345" fill-rule="nonzero"><path d="M6.1 25.324h1.148c-.112-1.68-.14-4.956-.14-6.608 0-3.304.84-6.272.952-9.156H5.288c0 3.22 1.064 5.768 1.064 9.52 0 1.344-.028 4.508-.252 6.244Zm-.84 3.668c0 .756.532 1.316 1.232 1.316 1.064 0 1.624-.728 1.624-1.428 0-.616-.532-1.372-1.456-1.372-.868 0-1.4.7-1.4 1.484ZM22.508 30h2.324c-.252-2.324-.504-4.648-.644-6.944a22.94 22.94 0 0 1 3.948 0c-.168 2.296-.42 4.62-.7 6.944h2.296c-.224-2.296-.476-4.592-.616-6.86 1.484.14 2.94.392 4.424.644V21.46c-1.484.224-2.996.476-4.48.616-.028-.896-.056-1.764-.056-2.632 0-.812.028-1.568.056-2.324 1.484.168 2.996.42 4.48.644v-2.296c-1.484.224-2.94.448-4.424.588.112-2.128.364-4.172.616-6.496h-2.296c.308 2.352.56 4.424.7 6.58-.644.028-1.316.056-1.988.056-.644 0-1.316-.028-1.96-.056.112-2.156.364-4.228.644-6.58h-2.324c.308 2.324.56 4.368.7 6.496-1.456-.14-2.94-.364-4.424-.588v2.296a82.141 82.141 0 0 1 4.48-.644c.028.756.056 1.512.056 2.324 0 .868-.028 1.736-.056 2.632-1.484-.14-2.996-.392-4.48-.616v2.324c1.484-.252 2.94-.504 4.396-.644-.14 2.268-.392 4.564-.672 6.86Zm1.568-10.556a66 66 0 0 1 .056-2.408 24.266 24.266 0 0 1 4.06 0 66 66 0 0 1 .056 2.408c0 .896-.028 1.792-.084 2.688a24.266 24.266 0 0 1-4.032 0 86.077 86.077 0 0 1-.056-2.688ZM51.488 17.68l1.932-1.428c-1.12-1.428-2.744-2.128-4.088-2.128-.224 0-.392 0-.588.028.56-.7 1.316-1.12 2.156-1.4a5.516 5.516 0 0 1 1.82-.308l-.756-2.268c-1.96.728-3.164 2.352-3.416 3.78-.476-.756-.672-1.596-.672-2.464 0-.588.084-1.232.28-1.848h-2.408c.112 2.128 1.316 3.78 2.576 4.48a5.87 5.87 0 0 1-1.036.112c-1.12 0-2.408-.476-3.22-1.092l-.756 2.296c.56.168 1.092.224 1.624.224 1.428 0 2.632-.56 3.416-1.288a4.355 4.355 0 0 1-.924 2.408A7.145 7.145 0 0 1 46.14 18.1l1.932 1.428c.7-1.036 1.008-2.156 1.008-3.192 0-.7-.168-1.372-.448-1.904.84.308 1.484.868 2.016 1.596.308.476.644 1.064.84 1.652ZM64.144 31.4v2.016c2.072 0 3.08-1.988 3.08-3.668 0-1.316-.616-2.268-1.568-2.268-1.064 0-1.624.812-1.624 1.54 0 .672.42 1.288 1.288 1.288.392 0 .756-.14 1.008-.308-.364.952-1.148 1.344-2.184 1.4ZM79.796 30.308c1.064 0 1.624-.728 1.624-1.428 0-.616-.532-1.372-1.456-1.372-.868 0-1.4.7-1.4 1.484 0 .756.532 1.316 1.232 1.316ZM91.528 30.28l2.212.728c.868-3.92 1.792-7.672 3.08-11.536 1.288-3.836 2.828-7.392 4.452-11.088l-2.212-.756c-.868 3.92-1.792 7.728-3.052 11.564-1.232 3.864-2.8 7.392-4.48 11.088ZM110.456 30.308c1.064 0 1.624-.728 1.624-1.428 0-.616-.532-1.372-1.456-1.372-.868 0-1.4.7-1.4 1.484 0 .756.532 1.316 1.232 1.316Zm-1.232-13.132c0 .756.532 1.316 1.232 1.316 1.064 0 1.624-.728 1.624-1.428 0-.616-.532-1.372-1.456-1.372-.868 0-1.4.7-1.4 1.484ZM122.468 31.4v2.016c2.072 0 3.08-1.988 3.08-3.668 0-1.316-.616-2.268-1.568-2.268-1.064 0-1.624.812-1.624 1.54 0 .672.42 1.288 1.288 1.288.392 0 .756-.14 1.008-.308-.364.952-1.148 1.344-2.184 1.4Zm.252-14.252c0 .756.532 1.316 1.232 1.316 1.064 0 1.624-.728 1.624-1.428 0-.616-.532-1.372-1.456-1.372-.868 0-1.4.7-1.4 1.484ZM140.612 25.324h1.708c-.28-1.26-.504-2.548-.504-3.836 0-3.64 5.264-5.208 5.264-8.54 0-2.38-2.212-3.92-4.732-3.92-2.324 0-4.956.812-6.888 2.212v2.772c2.016-1.68 4.956-3.472 7.532-3.472 1.988 0 3.052 1.176 3.052 2.296 0 3.472-5.236 4.704-5.32 8.456-.028 1.008-.084 2.492-.112 4.032Zm-.532 3.668c0 .756.532 1.316 1.232 1.316 1.064 0 1.624-.728 1.624-1.428 0-.616-.532-1.372-1.456-1.372-.868 0-1.4.7-1.4 1.484ZM162.424 31.008l2.212-.728c-1.68-3.696-3.248-7.224-4.48-11.088-1.26-3.836-2.184-7.644-3.052-11.564l-2.212.756c1.624 3.696 3.164 7.252 4.452 11.088 1.288 3.864 2.212 7.616 3.08 11.536ZM176.732 19.836h-1.148c.112 1.68.14 4.956.14 6.608 0 3.304-.84 6.272-.952 9.156h2.772c0-3.22-1.064-5.768-1.064-9.52 0-1.344.028-4.508.252-6.244Zm-2.016-3.556c0 .616.532 1.372 1.456 1.372.868 0 1.4-.7 1.4-1.484 0-.756-.532-1.316-1.232-1.316-1.064 0-1.624.728-1.624 1.428ZM190.06 24.4c1.064 0 1.624-.728 1.624-1.428 0-.616-.532-1.372-1.456-1.372-.868 0-1.4.7-1.4 1.484 0 .756.532 1.316 1.232 1.316ZM208.708 19.724H207c.28 1.26.504 2.548.504 3.836 0 3.64-5.264 5.208-5.264 8.54 0 2.38 2.212 3.92 4.732 3.92 2.324 0 4.956-.812 6.888-2.212v-2.772c-2.016 1.68-4.956 3.472-7.532 3.472-1.988 0-3.052-1.176-3.052-2.296 0-3.472 5.236-4.704 5.32-8.456.028-1.008.084-2.492.112-4.032Zm-2.324-3.556c0 .616.532 1.372 1.456 1.372.868 0 1.4-.7 1.4-1.484 0-.756-.532-1.316-1.232-1.316-1.064 0-1.624.728-1.624 1.428ZM226.04 24.82c1.596 0 2.436-1.092 2.436-2.128 0-.924-.812-2.072-2.184-2.072-1.316 0-2.1 1.064-2.1 2.24 0 1.12.784 1.96 1.848 1.96ZM243.432 25.7h1.148c.14-1.008.476-2.492.728-3.5 1.008-3.528 7.532-3.528 7.532-7.644 0-4.06-5.572-4.928-8.82-4.928v2.1c.728-.168 1.68-.308 2.576-.308 1.96 0 5.32.98 5.32 3.36 0 2.94-6.104 3.276-7.14 6.524l-.672 2.296c-.364-1.008-.672-1.932-.812-2.828-.84-3.696-1.288-6.356-1.288-9.856 0-.42 0-.84-.028-1.288l-2.716.532c1.764 9.52 3.192 9.268 4.06 14.42.028.336.084.728.112 1.12Zm-.868 3.668c0 .756.532 1.316 1.232 1.316 1.064 0 1.624-.728 1.624-1.428 0-.616-.532-1.372-1.456-1.372-.868 0-1.4.7-1.4 1.484ZM263.26 29.9l1.876 1.344c1.96-3.416 4.76-7.812 7-11.032 2.1-2.968 4.732-6.636 7.056-9.436l-1.596-1.148c-1.176 1.204-2.604 1.792-4.116 1.792-1.036 0-2.1-.252-3.192-.784-.644-.476-1.428-.7-2.268-.7-2.016 0-3.78 1.372-3.78 3.836 0 2.408 1.764 3.836 3.78 3.836s3.78-1.428 3.78-3.836c0-.532-.084-1.008-.224-1.428.364.056.756.084 1.176.084 1.008 0 2.324-.224 3.696-.868-1.624 2.716-3.472 5.656-5.152 8.064-2.268 3.248-5.516 7.308-8.036 10.276Zm1.876-16.016c.196-1.736 1.792-2.8 3.388-2.8 1.232 0 2.296.756 2.296 2.52-.168 1.764-1.68 2.772-3.22 2.772-1.288 0-2.464-.756-2.464-2.492Zm5.88 13.188c0 2.436 1.736 3.864 3.78 3.864 2.016 0 3.752-1.428 3.752-3.864s-1.736-3.808-3.752-3.808c-2.044 0-3.78 1.372-3.78 3.808Zm.896.14c.196-1.708 1.792-2.8 3.388-2.8 1.232 0 2.296.756 2.296 2.52-.14 1.736-1.68 2.772-3.248 2.772-1.26 0-2.436-.784-2.436-2.492Z"/></g></svg>