<svg xmlns="http://www.w3.org/2000/svg" width="320" height="40"><g fill="#424345" fill-rule="nonzero"><path d="M8.62 12.556V10.54c-2.072 0-3.08 1.988-3.08 3.668 0 1.316.616 2.268 1.568 2.268 1.064 0 1.624-.812 1.624-1.54 0-.672-.42-1.288-1.288-1.288-.392 0-.756.14-1.008.308.364-.952 1.148-1.344 2.184-1.4Zm.896 1.652c0 1.316.616 2.268 1.568 2.268 1.064 0 1.624-.812 1.624-1.54 0-.672-.42-1.288-1.288-1.288-.392 0-.756.14-1.008.308.364-.952 1.148-1.344 2.184-1.4V10.54c-2.072 0-3.08 1.988-3.08 3.668ZM27.688 12.556V10.54c-2.072 0-3.08 1.988-3.08 3.668 0 1.316.616 2.268 1.568 2.268 1.064 0 1.624-.812 1.624-1.54 0-.672-.42-1.288-1.288-1.288-.392 0-.756.14-1.008.308.364-.952 1.148-1.344 2.184-1.4ZM43.62 22.636v.728c2.156 1.596 2.772 2.408 3.976 4.844h2.772c-1.372-2.24-3.304-3.724-6.048-5.208 2.744-1.484 4.676-2.968 6.048-5.208h-2.772c-1.204 2.408-1.82 3.248-3.976 4.844Zm-4.704.728c2.156 1.596 2.772 2.408 3.976 4.844h2.772c-1.372-2.24-3.304-3.724-6.048-5.208 2.744-1.484 4.676-2.968 6.048-5.208h-2.772c-1.204 2.408-1.82 3.248-3.976 4.844v.728ZM67.476 23.364v-.728C65.32 21.04 64.704 20.2 63.5 17.792h-2.772c1.372 2.24 3.304 3.724 6.048 5.208-2.744 1.484-4.676 2.968-6.048 5.208H63.5c1.204-2.436 1.82-3.248 3.976-4.844Zm-2.044 4.844h2.772c1.204-2.436 1.82-3.248 3.976-4.844v-.728c-2.156-1.596-2.772-2.436-3.976-4.844h-2.772c1.372 2.24 3.304 3.724 6.048 5.208-2.744 1.484-4.676 2.968-6.048 5.208ZM86.18 12.556V10.54c-2.072 0-3.08 1.988-3.08 3.668 0 1.316.616 2.268 1.568 2.268 1.064 0 1.624-.812 1.624-1.54 0-.672-.42-1.288-1.288-1.288-.392 0-.756.14-1.008.308.364-.952 1.148-1.344 2.184-1.4ZM98.64 13.872v2.016c2.072 0 3.08-1.988 3.08-3.668 0-1.316-.616-2.268-1.568-2.268-1.064 0-1.624.812-1.624 1.54 0 .672.42 1.288 1.288 1.288.392 0 .756-.14 1.008-.308-.364.952-1.148 1.344-2.184 1.4ZM113.732 31.4v2.016c2.072 0 3.08-1.988 3.08-3.668 0-1.316-.616-2.268-1.568-2.268-1.064 0-1.624.812-1.624 1.54 0 .672.42 1.288 1.288 1.288.392 0 .756-.14 1.008-.308-.364.952-1.148 1.344-2.184 1.4ZM131.456 12.556V10.54c-2.072 0-3.08 1.988-3.08 3.668 0 1.316.616 2.268 1.568 2.268 1.064 0 1.624-.812 1.624-1.54 0-.672-.42-1.288-1.288-1.288-.392 0-.756.14-1.008.308.364-.952 1.148-1.344 2.184-1.4Zm.896 1.652c0 1.316.616 2.268 1.568 2.268 1.064 0 1.624-.812 1.624-1.54 0-.672-.42-1.288-1.288-1.288-.392 0-.756.14-1.008.308.364-.952 1.148-1.344 2.184-1.4V10.54c-2.072 0-3.08 1.988-3.08 3.668ZM151.84 13.872v2.016c2.072 0 3.08-1.988 3.08-3.668 0-1.316-.616-2.268-1.568-2.268-1.064 0-1.624.812-1.624 1.54 0 .672.42 1.288 1.288 1.288.392 0 .756-.14 1.008-.308-.364.952-1.148 1.344-2.184 1.4Zm-4.06-2.38c0 .672.42 1.288 1.288 1.288.392 0 .756-.14 1.008-.308-.364.952-1.148 1.344-2.184 1.4v2.016c2.072 0 3.08-1.988 3.08-3.668 0-1.316-.616-2.268-1.568-2.268-1.064 0-1.624.812-1.624 1.54ZM171.02 31.4v2.016c2.072 0 3.08-1.988 3.08-3.668 0-1.316-.616-2.268-1.568-2.268-1.064 0-1.624.812-1.624 1.54 0 .672.42 1.288 1.288 1.288.392 0 .756-.14 1.008-.308-.364.952-1.148 1.344-2.184 1.4Zm-4.172-2.38c0 .672.42 1.288 1.288 1.288.392 0 .756-.14 1.008-.308-.364.952-1.148 1.344-2.184 1.4v2.016c2.072 0 3.08-1.988 3.08-3.668 0-1.316-.616-2.268-1.568-2.268-1.064 0-1.624.812-1.624 1.54ZM184.768 22.636v.728c2.156 1.596 2.772 2.408 3.976 4.844h2.772c-1.372-2.24-3.304-3.724-6.048-5.208 2.744-1.484 4.676-2.968 6.048-5.208h-2.772c-1.204 2.408-1.82 3.248-3.976 4.844ZM208.624 23.364v-.728c-2.156-1.596-2.772-2.436-3.976-4.844h-2.772c1.372 2.24 3.304 3.724 6.048 5.208-2.744 1.484-4.676 2.968-6.048 5.208h2.772c1.204-2.436 1.82-3.248 3.976-4.844ZM219.6 21.852v2.296c2.128-.308 4.256-.56 6.384-.56s4.256.252 6.384.56v-2.296c-2.128.28-4.256.504-6.384.504s-4.256-.224-6.384-.504ZM244.408 30.308v2.296c2.128-.308 4.256-.56 6.384-.56s4.256.252 6.384.56v-2.296c-2.128.28-4.256.504-6.384.504s-4.256-.224-6.384-.504ZM269.216 21.852v2.296c2.436-.336 4.872-.56 7.336-.56 2.436 0 4.872.224 7.308.56v-2.296c-2.436.28-4.872.504-7.308.504-2.464 0-4.9-.224-7.336-.504ZM295.9 21.852v2.296c3.416-.336 6.804-.56 10.22-.56 3.416 0 6.804.224 10.22.56v-2.296c-3.416.28-6.804.504-10.22.504-3.416 0-6.804-.224-10.22-.504Z"/></g></svg>