<svg xmlns="http://www.w3.org/2000/svg" width="320" height="40"><g fill="#424345" fill-rule="nonzero"><path d="M11.14 30h1.96c-.196-2.044-.644-7.756-.644-12.208v-3.08c1.4 2.94 4.564 3.976 6.664 3.976v-2.772c-4.648 0-6.384-.784-6.608-3.808-.028-.224-.028-.476-.028-.728h-.728c0 .252 0 .504-.028.728v.056c-.224 2.968-1.96 3.752-6.608 3.752v2.772c2.072 0 5.18-1.008 6.608-3.836-.028 5.04-.112 10.108-.588 15.148ZM30.04 20.2v1.96c2.044-.196 7.756-.644 12.208-.644h3.08c-2.94 1.4-3.976 4.564-3.976 6.664h2.772c0-4.648.784-6.384 3.808-6.608.224-.028.476-.028.728-.028v-.728c-.252 0-.504 0-.728-.028h-.056c-2.968-.224-3.752-1.96-3.752-6.608h-2.772c0 2.072 1.008 5.18 3.836 6.608-5.04-.028-10.108-.112-15.148-.588ZM67.504 11.38h-1.96c.476 5.04.56 10.108.588 15.148-1.428-2.828-4.536-3.836-6.608-3.836v2.772c4.648 0 6.384.784 6.608 3.752v.056c.028.224.028.476.028.728h.728c0-.252 0-.504.028-.728.224-3.024 1.96-3.808 6.608-3.808v-2.772c-2.1 0-5.264 1.036-6.664 3.976v-3.08c0-4.452.448-10.164.644-12.208ZM103.064 22.16V20.2c-5.04.476-10.108.56-15.148.588 2.828-1.428 3.836-4.536 3.836-6.608H88.98c0 4.648-.784 6.384-3.752 6.608h-.056c-.224.028-.476.028-.728.028v.728c.252 0 .504 0 .728.028 3.024.224 3.808 1.96 3.808 6.608h2.772c0-2.1-1.036-5.264-3.976-6.664h3.08c4.452 0 10.164.448 12.208.644Z"/></g></svg>