<svg xmlns="http://www.w3.org/2000/svg" width="320" height="40"><g fill="#424345" fill-rule="nonzero"><path d="M7.508 30.98h.756c-1.54-3.892-2.212-8.54-2.212-11.62s.672-7.812 2.212-11.704h-.756C5.66 11.24 4.092 15.3 4.092 19.36c0 4.06 1.54 8.036 3.416 11.62ZM10.868 30h2.296c-.84-2.408-1.372-4.76-1.372-6.664 0-3.08 1.26-5.096 1.68-7.336h-2.604c.14 2.324.14 4.648.14 7 0 2.352 0 4.648-.14 7Zm-.224-18.228c0 1.036.672 1.568 1.456 1.568.952 0 1.82-.728 1.82-1.764s-.644-1.596-1.456-1.596c-.952 0-1.82.728-1.82 1.792ZM16.272 30h.98c0-8.624 2.94-12.544 6.048-12.544 2.52 0 4.844 2.604 4.844 7.336 0 1.764-.28 3.612-.756 5.208h1.568c.42-1.652.616-3.192.616-4.592 0-5.992-2.744-9.716-6.104-9.716-2.1 0-4.06 1.596-5.936 5.908h-.056a47.99 47.99 0 0 1 .756-5.6h-1.96c.168 2.324.224 4.648.224 7 0 2.352-.056 4.648-.224 7ZM40.996 35.6h1.96c-.672-3.332-1.008-6.384-1.008-9.744h.056c1.232 3.304 3.64 4.424 5.768 4.424 3.528 0 7.252-2.968 7.252-7.308 0-4.396-3.388-7.308-6.86-7.308-2.324 0-4.704 1.344-6.076 4.452h-.028A36.06 36.06 0 0 1 42.956 16h-1.96c.168 3.248.224 6.524.224 9.8 0 3.276-.056 6.524-.224 9.8Zm.98-12.712c1.848-3.864 4.424-5.488 7.028-5.488 3.248 0 4.816 2.352 4.816 5.124-.336 2.968-3.248 6.16-6.608 6.16-2.212 0-4.788-1.624-5.236-5.796ZM57.544 30h1.792c-.336-1.26-.644-2.716-.644-4.088.084-4.256 1.82-7.868 4.956-7.868 1.232 0 2.604.588 4.032 1.708v-2.576c-1.12-.952-2.268-1.456-3.36-1.456-2.016 0-3.892 1.596-5.628 4.704h-.084c.196-1.484.476-2.94.896-4.424h-1.96c.168 2.324.224 4.648.224 7 0 2.352-.056 4.648-.224 7ZM76.08 30.308c3.836 0 7.196-2.66 7.196-7.336 0-4.648-3.36-7.28-7.196-7.28s-7.196 2.632-7.196 7.28c0 4.676 3.36 7.336 7.196 7.336Zm-6.02-6.776c0-2.912 2.688-6.216 7-6.216 3.304 0 4.984 2.352 4.984 5.124 0 2.912-2.604 6.16-6.888 6.16-3.388 0-5.096-2.324-5.096-5.068ZM91.004 29.44c4.088 0 6.608-2.856 7-6.16.252-1.288.392-2.828.392-4.284 0-1.82-.112-3.78-.308-5.908h-1.96c.7 1.764 1.456 4.396 1.54 6.832-.84-2.408-2.996-4.228-6.328-4.228-3.668 0-6.384 3.024-6.384 7.14 0 2.212.896 4.368 2.66 5.6-1.736 1.344-2.268 2.772-2.268 3.976 0 2.352 2.212 3.5 5.152 3.5 2.212 0 4.62-.532 6.804-1.512V31.82c-2.044 1.148-5.348 2.296-7.756 2.296-1.876 0-2.968-.7-3.052-1.764.084-.952.896-2.1 2.548-3.22a6.123 6.123 0 0 0 1.96.308Zm-4.984-6.3c0-3.472 3.36-5.88 6.356-5.88 2.352 0 4.508 1.54 4.508 5.404 0 2.492-2.912 5.208-5.992 5.208-3.808 0-4.872-2.016-4.872-4.732ZM101.224 30h1.792c-.336-1.26-.644-2.716-.644-4.088.084-4.256 1.82-7.868 4.956-7.868 1.232 0 2.604.588 4.032 1.708v-2.576c-1.12-.952-2.268-1.456-3.36-1.456-2.016 0-3.892 1.596-5.628 4.704h-.084c.196-1.484.476-2.94.896-4.424h-1.96c.168 2.324.224 4.648.224 7 0 2.352-.056 4.648-.224 7ZM119.48 30.308c2.072 0 3.948-.476 5.768-1.484v-2.52c-2.296 1.4-4.34 2.296-6.412 2.296-2.8 0-4.928-1.708-5.096-4.984l11.676-1.092c-.084-2.604-1.456-6.832-5.628-6.832-3.892 0-7.224 2.996-7.224 7.308 0 5.012 3.892 7.308 6.916 7.308Zm-5.712-7.7c.336-2.856 2.912-5.432 5.936-5.432 3.052 0 4.032 2.744 4.088 4.62-3.36.364-6.832.616-10.024.812ZM133.536 30.308c2.912 0 5.572-1.12 5.572-3.808 0-2.24-1.736-3.052-5.712-4.172-2.912-.672-5.264-1.428-5.264-3.164.252-1.176 1.54-1.96 3.444-1.96 1.988 0 4.06.98 6.86 2.548v-2.576c-2.352-.952-4.06-1.484-5.992-1.484-2.688 0-5.068 1.176-5.068 3.5 0 2.184 1.568 3.248 3.808 3.724 1.26.336 2.324.756 3.64 1.176 1.876.504 3.416 1.26 3.416 2.548-.14 1.204-2.016 2.044-3.78 2.044-2.072 0-4.312-.98-7.056-2.492v2.576c2.352.98 4.144 1.54 6.132 1.54ZM147.032 30.308c2.912 0 5.572-1.12 5.572-3.808 0-2.24-1.736-3.052-5.712-4.172-2.912-.672-5.264-1.428-5.264-3.164.252-1.176 1.54-1.96 3.444-1.96 1.988 0 4.06.98 6.86 2.548v-2.576c-2.352-.952-4.06-1.484-5.992-1.484-2.688 0-5.068 1.176-5.068 3.5 0 2.184 1.568 3.248 3.808 3.724 1.26.336 2.324.756 3.64 1.176 1.876.504 3.416 1.26 3.416 2.548-.14 1.204-2.016 2.044-3.78 2.044-2.072 0-4.312-.98-7.056-2.492v2.576c2.352.98 4.144 1.54 6.132 1.54ZM154.256 30.98h.756c1.876-3.584 3.416-7.56 3.416-11.62s-1.568-8.12-3.416-11.704h-.756c1.54 3.892 2.212 8.624 2.212 11.704s-.672 7.728-2.212 11.62Z"/></g></svg>