<svg xmlns="http://www.w3.org/2000/svg" width="320" height="40"><g fill="#424345" fill-rule="nonzero"><path d="M30.968 35.44c1.76 0 3.424-.128 4.896-.32l3.68-2.816-.704-.736c-2.688 1.984-5.344 2.464-8.48 2.464-4.512 0-8.8-1.792-11.2-4.544 4-1.728 6.816-5.888 6.816-10.784 0-6.4-4.896-11.584-10.912-11.584-6.048 0-10.944 5.184-10.944 11.584 0 6.432 4.896 11.616 10.944 11.616l.608-.032C19 33.968 25.4 35.44 30.968 35.44ZM16.28 27.952c-6.304 0-9.536-5.696-9.536-10.816 0-4.064 2.208-7.68 7.072-7.68 6.304 0 9.536 5.696 9.536 10.816 0 4.064-2.208 7.68-7.072 7.68Z"/><path d="M33.688 30.32c2.24 0 4.256-1.984 5.6-3.776-.032 1.568-.064 2.88-.128 3.456l.704.32c.704-1.088 2.592-2.464 3.744-3.04v-1.152l-1.728.864c-.096-.896-.16-3.392-.16-5.824 0-2.08.064-4.16.224-5.248l-1.312-.32c-.672 1.056-1.824 2.144-2.976 2.72v1.152l1.632-1.024c.064.704.064 1.984.064 3.488l-.032 2.496c-1.376 1.728-3.168 3.52-4.544 3.52-1.92 0-2.368-3.264-2.368-6.4 0-2.72.256-4.864.384-5.632l-1.312-.32c-.672 1.056-1.824 2.144-2.976 2.72v1.152l1.632-1.024a28.43 28.43 0 0 0-.192 3.36c0 3.712.704 8.512 3.744 8.512ZM54.232 30l.704.32c.704-1.088 2.592-2.464 3.744-3.04v-1.152l-2.112 1.184v-4.8c0-4.704-1.888-6.912-5.248-6.912-1.504 0-3.168.768-4.672 2.368l.416.96c1.184-.704 2.144-1.024 2.976-1.024 2.08 0 3.2 1.12 3.776 3.104l-8.064 3.456c-.16.704-.224 1.504-.224 2.08 0 1.888 1.024 3.776 3.552 3.776 1.376 0 3.776-1.952 5.216-3.424L54.232 30Zm-6.048-3.936c0-.352.064-.672.224-1.024l5.696-2.496c.128.896.192 1.952.192 3.072-1.408 1.248-3.136 2.016-4.416 2.016-.992 0-1.696-.48-1.696-1.568ZM60.28 30h6.336v-1.152c-1.408 0-1.888-.32-1.984-1.472l-.032-3.424v-2.336c1.152-2.08 2.784-3.712 3.808-3.712 1.088 0 2.016.768 3.072 1.76.96-.416 1.6-1.024 1.92-1.92-1.44-1.6-2.528-2.144-4.544-2.144-1.952.672-3.392 2.56-4.256 4.096.032-1.728.064-3.136.128-3.776l-.672-.32c-.704 1.088-2.624 2.464-3.776 3.04v1.152l1.76-.864c.192.416.224 3.424.224 6.272v2.272c-.096 1.056-.896 1.376-1.984 1.376V30ZM75 30h6.336v-1.152c-1.408 0-1.888-.32-1.984-1.472l-.032-3.424v-2.336c1.152-2.08 2.784-3.712 3.808-3.712 1.088 0 2.016.768 3.072 1.76.96-.416 1.6-1.024 1.92-1.92-1.44-1.6-2.528-2.144-4.544-2.144-1.952.672-3.392 2.56-4.256 4.096.032-1.728.064-3.136.128-3.776l-.672-.32c-.704 1.088-2.624 2.464-3.776 3.04v1.152l1.76-.864c.192.416.224 3.424.224 6.272v2.272c-.096 1.056-.896 1.376-1.984 1.376V30ZM96.472 30.32c1.184 0 2.176-.416 3.776-1.312l2.4-3.296-.608-.384c-2.08 2.816-4.16 3.008-4.8 3.008-2.464 0-4.704-2.272-5.344-5.12h11.584v-1.44h-.512c-.704-2.976-2.944-6.176-6.496-6.176-4.032 0-6.752 3.36-6.752 7.424 0 4.288 2.848 7.296 6.752 7.296Zm-4.736-8.544v-.16c0-2.112 1.088-3.904 3.648-3.904 2.048 0 4.32 1.92 5.12 4.064h-8.768ZM105.528 30h6.336v-1.152c-1.408 0-1.952-.32-2.048-1.472l-.032-2.112c0-5.568 0-14.112.48-17.184l-.672-.32c-.704 1.088-3.04 2.528-4.192 3.104v1.152l1.888-.672c.128 3.04.192 7.264.192 11.04l-.064 4.992c0 1.152-.768 1.472-1.888 1.472V30ZM118.648 30.32c2.72 0 4.992-1.44 4.992-4.16 0-2.016-1.76-2.816-3.52-3.616-1.76-.8-3.552-1.632-3.552-3.744 0-1.12 1.024-1.76 2.176-1.76.992 0 2.08.448 2.816 1.376v1.28h1.152V17.2c-1.536-.96-2.912-1.6-4.448-1.6-2.304 0-4.224 1.312-4.224 3.936 0 2.88 2.24 3.936 4.224 4.832 1.504.672 2.848 1.312 2.848 2.624s-1.056 1.856-2.4 1.856c-1.28 0-2.784-.512-3.776-1.344v-1.28h-1.152v2.4c1.312 1.088 3.136 1.696 4.864 1.696ZM132.632 30.32c4.192 0 6.752-3.392 6.752-7.264 0-3.872-2.528-7.456-6.752-7.456-4.192 0-6.752 3.552-6.752 7.456 0 3.936 2.56 7.264 6.752 7.264Zm1.216-1.824c-3.648 0-5.92-3.872-5.92-7.04 0-2.208 1.12-4.096 3.648-4.096 3.744 0 5.856 3.904 5.856 6.976 0 2.24-1.12 4.16-3.584 4.16ZM141.944 30h6.336v-1.152c-1.408 0-1.888-.32-1.984-1.472l-.032-3.424V20.24c1.248-1.12 2.688-1.888 3.904-1.888 2.304 0 3.264 2.336 3.264 8.736v.352c0 1.088-.416 1.408-1.984 1.408V30h6.304v-1.152c-1.44 0-1.888-.32-1.888-1.44 0-2.88-.16-5.12-.448-6.88 1.312-1.28 2.88-2.176 4.224-2.176 2.304 0 3.264 2.336 3.264 8.736v.352c0 1.088-.416 1.408-1.984 1.408V30h6.304v-1.152c-1.44 0-1.888-.32-1.888-1.44-.032-8.896-1.312-11.808-4.384-11.808-2.336 0-4.448 1.824-5.824 3.552-.672-2.56-1.856-3.552-3.648-3.552-2.016 0-3.84 1.344-5.184 2.816 0-1.12.032-2.016.096-2.496l-.672-.32c-.704 1.088-2.624 2.464-3.776 3.04v1.152l1.76-.864c.192.384.256 3.68.256 6.592v1.856c-.096 1.152-.896 1.472-2.016 1.472V30ZM175.736 30.32c1.184 0 2.176-.416 3.776-1.312l2.4-3.296-.608-.384c-2.08 2.816-4.16 3.008-4.8 3.008-2.464 0-4.704-2.272-5.344-5.12h11.584v-1.44h-.512c-.704-2.976-2.944-6.176-6.496-6.176-4.032 0-6.752 3.36-6.752 7.424 0 4.288 2.848 7.296 6.752 7.296ZM171 21.776v-.16c0-2.112 1.088-3.904 3.648-3.904 2.048 0 4.32 1.92 5.12 4.064H171ZM195.064 30h6.304v-1.152c-1.44 0-1.888-.32-1.888-1.44-.032-8.896-1.312-11.808-4.384-11.808-2.144 0-4.096 1.536-5.44 3.136 0-1.28.032-2.304.096-2.816l-.672-.32c-.704 1.088-2.624 2.464-3.776 3.04v1.152l1.76-.864c.192.384.256 3.68.256 6.592v1.888c-.096 1.12-.896 1.44-2.016 1.44V30h6.336v-1.152c-1.408 0-1.888-.32-1.984-1.472l-.032-3.424v-3.456c1.312-1.28 2.848-2.144 4.16-2.144 2.304 0 3.264 2.336 3.264 8.736v.352c0 1.088-.416 1.408-1.984 1.408V30ZM209.88 30.32c1.184 0 2.176-.416 3.776-1.312l2.4-3.296-.608-.384c-2.08 2.816-4.16 3.008-4.8 3.008-2.464 0-4.704-2.272-5.344-5.12h11.584v-1.44h-.512c-.704-2.976-2.944-6.176-6.496-6.176-4.032 0-6.752 3.36-6.752 7.424 0 4.288 2.848 7.296 6.752 7.296Zm-4.736-8.544v-.16c0-2.112 1.088-3.904 3.648-3.904 2.048 0 4.32 1.92 5.12 4.064h-8.768ZM224.312 30.32c2.72 0 4.992-1.44 4.992-4.16 0-2.016-1.76-2.816-3.52-3.616-1.76-.8-3.552-1.632-3.552-3.744 0-1.12 1.024-1.76 2.176-1.76.992 0 2.08.448 2.816 1.376v1.28h1.152V17.2c-1.536-.96-2.912-1.6-4.448-1.6-2.304 0-4.224 1.312-4.224 3.936 0 2.88 2.24 3.936 4.224 4.832 1.504.672 2.848 1.312 2.848 2.624s-1.056 1.856-2.4 1.856c-1.28 0-2.784-.512-3.776-1.344v-1.28h-1.152v2.4c1.312 1.088 3.136 1.696 4.864 1.696ZM236.408 30.32c2.72 0 4.992-1.44 4.992-4.16 0-2.016-1.76-2.816-3.52-3.616-1.76-.8-3.552-1.632-3.552-3.744 0-1.12 1.024-1.76 2.176-1.76.992 0 2.08.448 2.816 1.376v1.28h1.152V17.2c-1.536-.96-2.912-1.6-4.448-1.6-2.304 0-4.224 1.312-4.224 3.936 0 2.88 2.24 3.936 4.224 4.832 1.504.672 2.848 1.312 2.848 2.624s-1.056 1.856-2.4 1.856c-1.28 0-2.784-.512-3.776-1.344v-1.28h-1.152v2.4c1.312 1.088 3.136 1.696 4.864 1.696Z"/></g></svg>