<?xml version="1.0" encoding="UTF-8"?>
<svg width="320px" height="40px" viewBox="0 0 320 40" version="1.1" xmlns="http://www.w3.org/2000/svg" xmlns:xlink="http://www.w3.org/1999/xlink">
    <title>gautina-regular</title>
    <g id="_exports" stroke="none" stroke-width="1" fill="none" fill-rule="evenodd">
        <g id="gautina-regular">
            <rect id="Rectangle" fill="#F7DF88" opacity="0" x="0" y="0" width="320" height="40"></rect>
            <g id="apium-latin-light" transform="translate(4.12, 7.12)" fill="#424345" fill-rule="nonzero">
                <path d="M26.848,28.32 C28.608,28.32 30.272,28.192 31.744,28 L35.424,25.184 L34.72,24.448 C32.032,26.432 29.376,26.912 26.24,26.912 C21.728,26.912 17.44,25.12 15.04,22.368 C19.04,20.64 21.856,16.48 21.856,11.584 C21.856,5.184 16.96,0 10.944,0 C4.896,0 0,5.184 0,11.584 C0,18.016 4.896,23.2 10.944,23.2 L11.552,23.168 C14.88,26.848 21.28,28.32 26.848,28.32 Z M12.16,20.832 C5.856,20.832 2.624,15.136 2.624,10.016 C2.624,5.952 4.832,2.336 9.696,2.336 C16,2.336 19.232,8.032 19.232,13.152 C19.232,17.216 17.024,20.832 12.16,20.832 Z" id="Shape"></path>
                <path d="M29.568,23.2 C31.808,23.2 33.824,21.216 35.168,19.424 C35.136,20.992 35.104,22.304 35.04,22.88 L35.744,23.2 C36.448,22.112 38.336,20.736 39.488,20.16 L39.488,19.008 L37.76,19.872 C37.664,18.976 37.6,16.48 37.6,14.048 C37.6,11.968 37.664,9.888 37.824,8.8 L36.512,8.48 C35.84,9.536 34.688,10.624 33.536,11.2 L33.536,12.352 L35.168,11.328 C35.232,12.032 35.232,13.312 35.232,14.816 L35.2,17.312 C33.824,19.04 32.032,20.832 30.656,20.832 C28.736,20.832 28.288,17.568 28.288,14.432 C28.288,11.712 28.544,9.568 28.672,8.8 L27.36,8.48 C26.688,9.536 25.536,10.624 24.384,11.2 L24.384,12.352 L26.016,11.328 C25.92,12.096 25.824,13.312 25.824,14.688 C25.824,18.4 26.528,23.2 29.568,23.2 Z" id="Path"></path>
                <path d="M50.112,22.88 L50.816,23.2 C51.52,22.112 53.408,20.736 54.56,20.16 L54.56,19.008 L52.448,20.192 L52.448,15.392 C52.448,10.688 50.56,8.48 47.2,8.48 C45.696,8.48 44.032,9.248 42.528,10.848 L42.944,11.808 C44.128,11.104 45.088,10.784 45.92,10.784 C48,10.784 49.12,11.904 49.696,13.888 L41.632,17.344 C41.472,18.048 41.408,18.848 41.408,19.424 C41.408,21.312 42.432,23.2 44.96,23.2 C46.336,23.2 48.736,21.248 50.176,19.776 L50.112,22.88 Z M44.064,18.944 C44.064,18.592 44.128,18.272 44.288,17.92 L49.984,15.424 C50.112,16.32 50.176,17.376 50.176,18.496 C48.768,19.744 47.04,20.512 45.76,20.512 C44.768,20.512 44.064,20.032 44.064,18.944 Z" id="Shape"></path>
                <path d="M56.16,22.88 L62.496,22.88 L62.496,21.728 C61.088,21.728 60.608,21.408 60.512,20.256 L60.48,16.832 L60.48,14.496 C61.632,12.416 63.264,10.784 64.288,10.784 C65.376,10.784 66.304,11.552 67.36,12.544 C68.32,12.128 68.96,11.52 69.28,10.624 C67.84,9.024 66.752,8.48 64.736,8.48 C62.784,9.152 61.344,11.04 60.48,12.576 C60.512,10.848 60.544,9.44 60.608,8.8 L59.936,8.48 C59.232,9.568 57.312,10.944 56.16,11.52 L56.16,12.672 L57.92,11.808 C58.112,12.224 58.144,15.232 58.144,18.08 L58.144,20.352 C58.048,21.408 57.248,21.728 56.16,21.728 L56.16,22.88 Z" id="Path"></path>
                <path d="M70.88,22.88 L77.216,22.88 L77.216,21.728 C75.808,21.728 75.328,21.408 75.232,20.256 L75.2,16.832 L75.2,14.496 C76.352,12.416 77.984,10.784 79.008,10.784 C80.096,10.784 81.024,11.552 82.08,12.544 C83.04,12.128 83.68,11.52 84,10.624 C82.56,9.024 81.472,8.48 79.456,8.48 C77.504,9.152 76.064,11.04 75.2,12.576 C75.232,10.848 75.264,9.44 75.328,8.8 L74.656,8.48 C73.952,9.568 72.032,10.944 70.88,11.52 L70.88,12.672 L72.64,11.808 C72.832,12.224 72.864,15.232 72.864,18.08 L72.864,20.352 C72.768,21.408 71.968,21.728 70.88,21.728 L70.88,22.88 Z" id="Path"></path>
                <path d="M92.352,23.2 C93.536,23.2 94.528,22.784 96.128,21.888 L98.528,18.592 L97.92,18.208 C95.84,21.024 93.76,21.216 93.12,21.216 C90.656,21.216 88.416,18.944 87.776,16.096 L99.36,16.096 L99.36,14.656 L98.848,14.656 C98.144,11.68 95.904,8.48 92.352,8.48 C88.32,8.48 85.6,11.84 85.6,15.904 C85.6,20.192 88.448,23.2 92.352,23.2 Z M87.616,14.656 L87.616,14.496 C87.616,12.384 88.704,10.592 91.264,10.592 C93.312,10.592 95.584,12.512 96.384,14.656 L87.616,14.656 Z" id="Shape"></path>
                <path d="M101.408,22.88 L107.744,22.88 L107.744,21.728 C106.336,21.728 105.792,21.408 105.696,20.256 L105.664,18.144 C105.664,12.576 105.664,4.032 106.144,0.96 L105.472,0.64 C104.768,1.728 102.432,3.168 101.28,3.744 L101.28,4.896 L103.168,4.224 C103.296,7.264 103.36,11.488 103.36,15.264 L103.296,20.256 C103.296,21.408 102.528,21.728 101.408,21.728 L101.408,22.88 Z" id="Path"></path>
                <path d="M114.528,23.2 C117.248,23.2 119.52,21.76 119.52,19.04 C119.52,17.024 117.76,16.224 116,15.424 C114.24,14.624 112.448,13.792 112.448,11.68 C112.448,10.56 113.472,9.92 114.624,9.92 C115.616,9.92 116.704,10.368 117.44,11.296 L117.44,12.576 L118.592,12.576 L118.592,10.08 C117.056,9.12 115.68,8.48 114.144,8.48 C111.84,8.48 109.92,9.792 109.92,12.416 C109.92,15.296 112.16,16.352 114.144,17.248 C115.648,17.92 116.992,18.56 116.992,19.872 C116.992,21.184 115.936,21.728 114.592,21.728 C113.312,21.728 111.808,21.216 110.816,20.384 L110.816,19.104 L109.664,19.104 L109.664,21.504 C110.976,22.592 112.8,23.2 114.528,23.2 Z" id="Path"></path>
                <path d="M128.512,23.2 C132.704,23.2 135.264,19.808 135.264,15.936 C135.264,12.064 132.736,8.48 128.512,8.48 C124.32,8.48 121.76,12.032 121.76,15.936 C121.76,19.872 124.32,23.2 128.512,23.2 Z M129.728,21.376 C126.08,21.376 123.808,17.504 123.808,14.336 C123.808,12.128 124.928,10.24 127.456,10.24 C131.2,10.24 133.312,14.144 133.312,17.216 C133.312,19.456 132.192,21.376 129.728,21.376 Z" id="Shape"></path>
                <path d="M137.824,22.88 L144.16,22.88 L144.16,21.728 C142.752,21.728 142.272,21.408 142.176,20.256 L142.144,16.832 L142.144,13.12 C143.392,12 144.832,11.232 146.048,11.232 C148.352,11.232 149.312,13.568 149.312,19.968 L149.312,20.32 C149.312,21.408 148.896,21.728 147.328,21.728 L147.328,22.88 L153.632,22.88 L153.632,21.728 C152.192,21.728 151.744,21.408 151.744,20.288 C151.744,17.408 151.584,15.168 151.296,13.408 C152.608,12.128 154.176,11.232 155.52,11.232 C157.824,11.232 158.784,13.568 158.784,19.968 L158.784,20.32 C158.784,21.408 158.368,21.728 156.8,21.728 L156.8,22.88 L163.104,22.88 L163.104,21.728 C161.664,21.728 161.216,21.408 161.216,20.288 C161.184,11.392 159.904,8.48 156.832,8.48 C154.496,8.48 152.384,10.304 151.008,12.032 C150.336,9.472 149.152,8.48 147.36,8.48 C145.344,8.48 143.52,9.824 142.176,11.296 C142.176,10.176 142.208,9.28 142.272,8.8 L141.6,8.48 C140.896,9.568 138.976,10.944 137.824,11.52 L137.824,12.672 L139.584,11.808 C139.776,12.192 139.84,15.488 139.84,18.4 L139.84,20.256 C139.744,21.408 138.944,21.728 137.824,21.728 L137.824,22.88 Z" id="Path"></path>
                <path d="M171.616,23.2 C172.8,23.2 173.792,22.784 175.392,21.888 L177.792,18.592 L177.184,18.208 C175.104,21.024 173.024,21.216 172.384,21.216 C169.92,21.216 167.68,18.944 167.04,16.096 L178.624,16.096 L178.624,14.656 L178.112,14.656 C177.408,11.68 175.168,8.48 171.616,8.48 C167.584,8.48 164.864,11.84 164.864,15.904 C164.864,20.192 167.712,23.2 171.616,23.2 Z M166.88,14.656 L166.88,14.496 C166.88,12.384 167.968,10.592 170.528,10.592 C172.576,10.592 174.848,12.512 175.648,14.656 L166.88,14.656 Z" id="Shape"></path>
                <path d="M190.944,22.88 L197.248,22.88 L197.248,21.728 C195.808,21.728 195.36,21.408 195.36,20.288 C195.328,11.392 194.048,8.48 190.976,8.48 C188.832,8.48 186.88,10.016 185.536,11.616 C185.536,10.336 185.568,9.312 185.632,8.8 L184.96,8.48 C184.256,9.568 182.336,10.944 181.184,11.52 L181.184,12.672 L182.944,11.808 C183.136,12.192 183.2,15.488 183.2,18.4 L183.2,20.288 C183.104,21.408 182.304,21.728 181.184,21.728 L181.184,22.88 L187.52,22.88 L187.52,21.728 C186.112,21.728 185.632,21.408 185.536,20.256 L185.504,16.832 L185.504,13.376 C186.816,12.096 188.352,11.232 189.664,11.232 C191.968,11.232 192.928,13.568 192.928,19.968 L192.928,20.32 C192.928,21.408 192.512,21.728 190.944,21.728 L190.944,22.88 Z" id="Path"></path>
                <path d="M205.76,23.2 C206.944,23.2 207.936,22.784 209.536,21.888 L211.936,18.592 L211.328,18.208 C209.248,21.024 207.168,21.216 206.528,21.216 C204.064,21.216 201.824,18.944 201.184,16.096 L212.768,16.096 L212.768,14.656 L212.256,14.656 C211.552,11.68 209.312,8.48 205.76,8.48 C201.728,8.48 199.008,11.84 199.008,15.904 C199.008,20.192 201.856,23.2 205.76,23.2 Z M201.024,14.656 L201.024,14.496 C201.024,12.384 202.112,10.592 204.672,10.592 C206.72,10.592 208.992,12.512 209.792,14.656 L201.024,14.656 Z" id="Shape"></path>
                <path d="M220.192,23.2 C222.912,23.2 225.184,21.76 225.184,19.04 C225.184,17.024 223.424,16.224 221.664,15.424 C219.904,14.624 218.112,13.792 218.112,11.68 C218.112,10.56 219.136,9.92 220.288,9.92 C221.28,9.92 222.368,10.368 223.104,11.296 L223.104,12.576 L224.256,12.576 L224.256,10.08 C222.72,9.12 221.344,8.48 219.808,8.48 C217.504,8.48 215.584,9.792 215.584,12.416 C215.584,15.296 217.824,16.352 219.808,17.248 C221.312,17.92 222.656,18.56 222.656,19.872 C222.656,21.184 221.6,21.728 220.256,21.728 C218.976,21.728 217.472,21.216 216.48,20.384 L216.48,19.104 L215.328,19.104 L215.328,21.504 C216.64,22.592 218.464,23.2 220.192,23.2 Z" id="Path"></path>
                <path d="M232.288,23.2 C235.008,23.2 237.28,21.76 237.28,19.04 C237.28,17.024 235.52,16.224 233.76,15.424 C232,14.624 230.208,13.792 230.208,11.68 C230.208,10.56 231.232,9.92 232.384,9.92 C233.376,9.92 234.464,10.368 235.2,11.296 L235.2,12.576 L236.352,12.576 L236.352,10.08 C234.816,9.12 233.44,8.48 231.904,8.48 C229.6,8.48 227.68,9.792 227.68,12.416 C227.68,15.296 229.92,16.352 231.904,17.248 C233.408,17.92 234.752,18.56 234.752,19.872 C234.752,21.184 233.696,21.728 232.352,21.728 C231.072,21.728 229.568,21.216 228.576,20.384 L228.576,19.104 L227.424,19.104 L227.424,21.504 C228.736,22.592 230.56,23.2 232.288,23.2 Z" id="Path"></path>
            </g>
        </g>
    </g>
</svg>