<?xml version="1.0" encoding="UTF-8"?>
<svg width="320px" height="40px" viewBox="0 0 320 40" version="1.1" xmlns="http://www.w3.org/2000/svg" xmlns:xlink="http://www.w3.org/1999/xlink">
    <title>gautina-italic</title>
    <g id="_exports" stroke="none" stroke-width="1" fill="none" fill-rule="evenodd">
        <g id="gautina-styles" transform="translate(-701, 0)">
            <g id="gautina-italic" transform="translate(701, 0)">
                <rect id="Rectangle-Copy-2" fill="#F7DF88" opacity="0" x="0" y="0" width="320" height="40"></rect>
                <g id="apium-latin-medium" transform="translate(3.16, 7.44)" fill="#424345" fill-rule="nonzero">
                    <path d="M0.192,21.536 L5.68434189e-14,22.56 L10.976,22.56 L14.592,18.336 L13.984,17.792 C12.96,18.976 12.16,19.84 10.496,20.512 L4.736,20.512 C5.152,17.888 5.664,15.008 6.24,12.096 L10.24,12.096 C11.136,12.096 11.424,12.512 11.424,13.152 C11.424,13.472 11.36,13.824 11.264,14.24 L12.128,14.24 L13.344,8.064 L12.448,8.064 C12.256,9.056 11.68,10.4 10.56,10.4 L6.592,10.4 C7.2,7.392 7.84,4.384 8.544,1.696 L14.56,1.696 C14.944,2.432 15.168,3.296 15.168,4.352 C15.168,4.672 15.168,4.992 15.104,5.344 L15.968,5.344 L16.64,0 L4.384,0 L4.192,1.024 C4.992,1.024 5.6,1.312 5.6,2.24 C5.6,3.04 3.04,16.224 2.112,20.064 C1.824,21.216 0.96,21.536 0.192,21.536 Z" id="Path"></path>
                    <path d="M15.104,21.408 L14.88,22.56 L19.744,22.56 L19.968,21.408 C19.328,21.408 19.104,21.248 19.104,21.024 C19.104,20.832 19.296,20.608 19.552,20.384 L22.912,17.088 L24.448,19.936 C24.576,20.16 24.704,20.416 24.704,20.672 C24.704,21.088 24.416,21.408 23.584,21.408 L23.36,22.56 L29.632,22.56 L29.856,21.408 C28.736,21.408 28.064,20.928 27.68,20.192 L24.96,15.104 L29.408,10.752 C30.208,9.984 30.976,9.632 32.16,9.632 L32.384,8.48 L27.552,8.48 L27.328,9.632 C27.936,9.632 28.224,9.76 28.224,9.984 C28.224,10.208 27.744,10.656 27.264,11.104 L24.352,13.952 L22.976,11.392 C22.816,11.104 22.592,10.688 22.592,10.368 C22.592,9.952 22.88,9.632 23.712,9.632 L23.936,8.48 L17.632,8.48 L17.408,9.632 C18.496,9.632 19.168,10.048 19.552,10.784 L22.336,15.968 L17.984,20.224 C17.12,21.056 16.352,21.408 15.104,21.408 Z" id="Path"></path>
                    <path d="M37.248,22.88 C38.432,22.88 39.36,22.624 41.024,21.568 L44.064,18.272 L43.52,17.888 C40.896,20.704 39.04,20.896 38.112,20.896 C36.064,20.896 35.008,18.432 35.008,15.584 C35.008,12.448 35.84,10.304 38.528,10.304 C39.84,10.304 41.152,11.168 42.272,12.704 C43.328,12.416 44.16,11.904 44.768,11.072 C43.744,9.472 42.08,8.16 40.224,8.16 C36.384,8.16 32.736,12.256 32.736,17.216 C32.736,20.64 34.336,22.88 37.248,22.88 Z" id="Path"></path>
                    <path d="M49.728,22.88 C53.92,22.88 57.088,18.368 57.088,13.92 C57.088,10.752 55.552,8.16 52.576,8.16 C48.416,8.16 45.216,12.896 45.216,17.28 C45.216,20.448 46.784,22.88 49.728,22.88 Z M51.168,20.896 C49.504,20.896 47.488,18.976 47.488,15.712 C47.488,13.536 48.576,10.208 51.136,10.208 C53.088,10.208 54.816,12.096 54.816,15.328 C54.816,17.632 53.92,20.896 51.168,20.896 Z" id="Shape"></path>
                    <path d="M76.128,22.88 C77.184,22.88 78.592,22.176 79.84,21.056 L79.072,20.384 C78.368,21.12 77.856,21.408 77.536,21.408 C77.248,21.408 77.12,21.152 77.12,20.704 C77.12,20.288 78.496,12.768 78.496,10.912 C78.496,9.12 77.824,8.16 76.512,8.16 C74.496,8.16 72.48,10.656 70.816,14.144 C71.008,12.864 71.136,11.776 71.136,10.944 C71.136,8.928 70.496,8.16 69.12,8.16 C66.912,8.16 64.608,11.584 62.848,15.968 C63.456,12.736 64.16,9.376 64.448,8.48 L63.808,8.16 C62.912,9.248 60.736,10.624 59.456,11.2 L59.232,12.352 L61.152,11.488 C61.152,13.472 59.392,21.92 59.168,22.56 L61.664,22.56 C63.072,17.408 65.728,10.816 67.296,10.848 C67.776,10.88 68.384,11.488 68.384,12.736 C68.384,14.4 67.808,17.344 66.752,22.56 L69.216,22.56 L69.696,20.192 L69.92,19.04 C71.36,14.816 73.312,10.816 74.848,10.816 C75.648,10.816 75.84,11.872 75.84,12.736 C75.84,14.368 74.592,19.936 74.592,21.088 C74.592,22.304 75.232,22.88 76.128,22.88 Z" id="Path"></path>
                    <path d="M99.072,22.88 C100.128,22.88 101.536,22.176 102.784,21.056 L102.016,20.384 C101.312,21.12 100.8,21.408 100.48,21.408 C100.192,21.408 100.064,21.152 100.064,20.704 C100.064,20.288 101.44,12.768 101.44,10.912 C101.44,9.12 100.768,8.16 99.456,8.16 C97.44,8.16 95.424,10.656 93.76,14.144 C93.952,12.864 94.08,11.776 94.08,10.944 C94.08,8.928 93.44,8.16 92.064,8.16 C89.856,8.16 87.552,11.584 85.792,15.968 C86.4,12.736 87.104,9.376 87.392,8.48 L86.752,8.16 C85.856,9.248 83.68,10.624 82.4,11.2 L82.176,12.352 L84.096,11.488 C84.096,13.472 82.336,21.92 82.112,22.56 L84.608,22.56 C86.016,17.408 88.672,10.816 90.24,10.848 C90.72,10.88 91.328,11.488 91.328,12.736 C91.328,14.4 90.752,17.344 89.696,22.56 L92.16,22.56 L92.64,20.192 L92.864,19.04 C94.304,14.816 96.256,10.816 97.792,10.816 C98.592,10.816 98.784,11.872 98.784,12.736 C98.784,14.368 97.536,19.936 97.536,21.088 C97.536,22.304 98.176,22.88 99.072,22.88 Z" id="Path"></path>
                    <path d="M108.384,22.88 C109.92,22.88 111.808,20.096 113.408,16.288 C112.928,18.592 112.512,20.576 112.512,21.088 C112.512,22.304 113.152,22.88 114.048,22.88 C115.104,22.88 116.512,22.176 117.76,21.056 L116.992,20.384 C116.288,21.12 115.776,21.408 115.456,21.408 C115.168,21.408 115.04,21.152 115.04,20.704 C115.04,19.2 116.928,10.72 117.696,8.48 L115.072,8.48 C113.664,13.632 111.04,20.512 109.408,20.512 C108.768,20.512 108.384,19.328 108.384,17.728 C108.384,15.104 109.536,10.592 110.272,8.48 L109.024,8.16 C108.16,9.216 106.784,10.304 105.536,10.88 L105.312,12.032 L107.136,11.008 C106.464,13.12 105.824,16.288 105.824,18.56 C105.824,20.928 106.464,22.88 108.384,22.88 Z" id="Path"></path>
                    <path d="M129.824,22.88 C130.88,22.88 132.288,22.176 133.536,21.056 L132.768,20.384 C132.064,21.12 131.552,21.408 131.232,21.408 C130.944,21.408 130.816,21.152 130.816,20.704 C130.816,20.288 132.192,12.768 132.192,10.912 C132.192,9.12 131.52,8.16 130.208,8.16 C127.968,8.16 125.76,11.2 124,15.264 C124.672,12.256 125.376,9.312 125.632,8.48 L124.992,8.16 C124.096,9.248 121.92,10.624 120.64,11.2 L120.416,12.352 L122.336,11.488 C121.952,15.552 121.632,17.408 120.352,22.56 L122.528,22.56 C123.936,17.408 126.592,10.816 128.544,10.816 C129.344,10.816 129.536,11.872 129.536,12.736 C129.536,14.368 128.288,19.936 128.288,21.088 C128.288,22.304 128.928,22.88 129.824,22.88 Z" id="Path"></path>
                    <path d="M136.704,21.088 C136.704,22.304 137.344,22.88 138.24,22.88 C139.296,22.88 140.704,22.176 141.952,21.056 L141.184,20.384 C140.48,21.12 139.968,21.408 139.648,21.408 C139.36,21.408 139.232,21.152 139.232,20.704 C139.232,17.824 140.896,11.232 141.824,8.48 L141.184,8.16 C140.352,9.248 137.44,10.688 136.128,11.008 L135.904,12.16 L138.368,11.36 C138.144,12.192 136.704,17.92 136.704,21.088 Z M141.92,4.8 C142.88,4.8 143.872,3.968 143.872,2.912 C143.872,2.176 143.296,1.6 142.528,1.6 C141.504,1.6 140.608,2.528 140.608,3.552 C140.608,4.256 141.152,4.8 141.92,4.8 Z" id="Shape"></path>
                    <path d="M149.44,22.88 C150.624,22.88 151.552,22.624 153.216,21.568 L156.256,18.272 L155.712,17.888 C153.088,20.704 151.232,20.896 150.304,20.896 C148.256,20.896 147.2,18.432 147.2,15.584 C147.2,12.448 148.032,10.304 150.72,10.304 C152.032,10.304 153.344,11.168 154.464,12.704 C155.52,12.416 156.352,11.904 156.96,11.072 C155.936,9.472 154.272,8.16 152.416,8.16 C148.576,8.16 144.928,12.256 144.928,17.216 C144.928,20.64 146.528,22.88 149.44,22.88 Z" id="Path"></path>
                    <path d="M160.8,22.912 C162.112,22.912 163.648,22.144 165.248,20.448 L165.216,21.088 C165.216,22.304 165.856,22.88 166.752,22.88 C167.808,22.88 169.216,22.176 170.464,21.056 L169.696,20.384 C168.992,21.12 168.48,21.408 168.16,21.408 C167.872,21.408 167.744,21.152 167.744,20.704 C167.744,19.072 169.888,9.888 170.688,8.48 L170.272,8.16 L170.24,8.16 C163.264,8.16 157.312,11.712 157.312,17.76 C157.312,20.96 158.752,22.912 160.8,22.912 Z M159.168,16.672 C159.168,13.856 162.08,10.336 167.648,9.92 C167.136,12.512 165.92,16.256 165.408,19.104 C164.64,19.84 163.968,20.064 162.592,20.064 C160.384,20.064 159.168,18.528 159.168,16.672 Z" id="Shape"></path>
                    <path d="M176.8,22.88 C178.784,22.88 180.96,21.088 181.792,20.224 L181.248,19.424 C179.968,20.384 178.88,20.8 178.048,20.8 C176.8,20.8 175.968,19.904 175.968,18.688 C175.968,17.44 177.152,12.064 177.664,9.92 L181.92,9.92 L182.208,8.48 L177.984,8.48 C178.272,7.072 178.56,5.824 178.944,4.928 L178.208,4.672 C177.184,6.272 175.904,8.16 173.952,8.48 L173.664,9.92 L175.36,9.92 C174.816,12.224 173.44,18.528 173.44,20.032 C173.44,21.92 174.368,22.88 176.8,22.88 Z" id="Path"></path>
                    <path d="M188.64,22.88 C192.832,22.88 196,18.368 196,13.92 C196,10.752 194.464,8.16 191.488,8.16 C187.328,8.16 184.128,12.896 184.128,17.28 C184.128,20.448 185.696,22.88 188.64,22.88 Z M190.08,20.896 C188.416,20.896 186.4,18.976 186.4,15.712 C186.4,13.536 187.488,10.208 190.048,10.208 C192,10.208 193.728,12.096 193.728,15.328 C193.728,17.632 192.832,20.896 190.08,20.896 Z" id="Shape"></path>
                    <path d="M198.08,22.56 L200.576,22.56 L200.608,22.336 C201.984,17.248 203.328,11.424 205.472,10.4 C206.176,10.4 207.136,11.232 208,12.224 C209.056,11.808 209.824,11.2 210.304,10.304 C209.184,8.704 208.192,8.16 206.176,8.16 C204.384,8.8 203.136,11.2 202.016,14.56 C202.56,11.84 203.072,9.28 203.328,8.48 L202.72,8.16 C201.792,9.248 199.616,10.624 198.368,11.2 L198.144,12.352 L200.064,11.488 C200.064,12.672 198.272,21.984 198.08,22.56 Z" id="Path"></path>
                </g>
            </g>
        </g>
    </g>
</svg>