<svg xmlns="http://www.w3.org/2000/svg" width="320" height="40"><g fill="#424345" fill-rule="nonzero"><path d="M3.352 28.976 3.16 30h10.976l3.616-4.224-.608-.544c-1.024 1.184-1.824 2.048-3.488 2.72h-5.76A227.89 227.89 0 0 1 9.4 19.536h4c.896 0 1.184.416 1.184 1.056 0 .32-.064.672-.16 1.088h.864l1.216-6.176h-.896c-.192.992-.768 2.336-1.888 2.336H9.752c.608-3.008 1.248-6.016 1.952-8.704h6.016c.384.736.608 1.6.608 2.656 0 .32 0 .64-.064.992h.864L19.8 7.44H7.544l-.192 1.024c.8 0 1.408.288 1.408 1.216 0 .8-2.56 13.984-3.488 17.824-.288 1.152-1.152 1.472-1.92 1.472ZM18.264 28.848 18.04 30h4.864l.224-1.152c-.64 0-.864-.16-.864-.384 0-.192.192-.416.448-.64l3.36-3.296 1.536 2.848c.128.224.256.48.256.736 0 .416-.288.736-1.12.736L26.52 30h6.272l.224-1.152c-1.12 0-1.792-.48-2.176-1.216l-2.72-5.088 4.448-4.352c.8-.768 1.568-1.12 2.752-1.12l.224-1.152h-4.832l-.224 1.152c.608 0 .896.128.896.352 0 .224-.48.672-.96 1.12l-2.912 2.848-1.376-2.56c-.16-.288-.384-.704-.384-1.024 0-.416.288-.736 1.12-.736l.224-1.152h-6.304l-.224 1.152c1.088 0 1.76.416 2.144 1.152l2.784 5.184-4.352 4.256c-.864.832-1.632 1.184-2.88 1.184ZM40.408 30.32c1.184 0 2.112-.256 3.776-1.312l3.04-3.296-.544-.384c-2.624 2.816-4.48 3.008-5.408 3.008-2.048 0-3.104-2.464-3.104-5.312 0-3.136.832-5.28 3.52-5.28 1.312 0 2.624.864 3.744 2.4 1.056-.288 1.888-.8 2.496-1.632-1.024-1.6-2.688-2.912-4.544-2.912-3.84 0-7.488 4.096-7.488 9.056 0 3.424 1.6 5.664 4.512 5.664ZM52.888 30.32c4.192 0 7.36-4.512 7.36-8.96 0-3.168-1.536-5.76-4.512-5.76-4.16 0-7.36 4.736-7.36 9.12 0 3.168 1.568 5.6 4.512 5.6Zm1.44-1.984c-1.664 0-3.68-1.92-3.68-5.184 0-2.176 1.088-5.504 3.648-5.504 1.952 0 3.68 1.888 3.68 5.12 0 2.304-.896 5.568-3.648 5.568ZM79.288 30.32c1.056 0 2.464-.704 3.712-1.824l-.768-.672c-.704.736-1.216 1.024-1.536 1.024-.288 0-.416-.256-.416-.704 0-.416 1.376-7.936 1.376-9.792 0-1.792-.672-2.752-1.984-2.752-2.016 0-4.032 2.496-5.696 5.984.192-1.28.32-2.368.32-3.2 0-2.016-.64-2.784-2.016-2.784-2.208 0-4.512 3.424-6.272 7.808.608-3.232 1.312-6.592 1.6-7.488l-.64-.32c-.896 1.088-3.072 2.464-4.352 3.04l-.224 1.152 1.92-.864c0 1.984-1.76 10.432-1.984 11.072h2.496c1.408-5.152 4.064-11.744 5.632-11.712.48.032 1.088.64 1.088 1.888 0 1.664-.576 4.608-1.632 9.824h2.464l.48-2.368.224-1.152c1.44-4.224 3.392-8.224 4.928-8.224.8 0 .992 1.056.992 1.92 0 1.632-1.248 7.2-1.248 8.352 0 1.216.64 1.792 1.536 1.792ZM102.232 30.32c1.056 0 2.464-.704 3.712-1.824l-.768-.672c-.704.736-1.216 1.024-1.536 1.024-.288 0-.416-.256-.416-.704 0-.416 1.376-7.936 1.376-9.792 0-1.792-.672-2.752-1.984-2.752-2.016 0-4.032 2.496-5.696 5.984.192-1.28.32-2.368.32-3.2 0-2.016-.64-2.784-2.016-2.784-2.208 0-4.512 3.424-6.272 7.808.608-3.232 1.312-6.592 1.6-7.488l-.64-.32c-.896 1.088-3.072 2.464-4.352 3.04l-.224 1.152 1.92-.864c0 1.984-1.76 10.432-1.984 11.072h2.496c1.408-5.152 4.064-11.744 5.632-11.712.48.032 1.088.64 1.088 1.888 0 1.664-.576 4.608-1.632 9.824h2.464l.48-2.368.224-1.152c1.44-4.224 3.392-8.224 4.928-8.224.8 0 .992 1.056.992 1.92 0 1.632-1.248 7.2-1.248 8.352 0 1.216.64 1.792 1.536 1.792ZM111.544 30.32c1.536 0 3.424-2.784 5.024-6.592-.48 2.304-.896 4.288-.896 4.8 0 1.216.64 1.792 1.536 1.792 1.056 0 2.464-.704 3.712-1.824l-.768-.672c-.704.736-1.216 1.024-1.536 1.024-.288 0-.416-.256-.416-.704 0-1.504 1.888-9.984 2.656-12.224h-2.624c-1.408 5.152-4.032 12.032-5.664 12.032-.64 0-1.024-1.184-1.024-2.784 0-2.624 1.152-7.136 1.888-9.248l-1.248-.32c-.864 1.056-2.24 2.144-3.488 2.72l-.224 1.152 1.824-1.024c-.672 2.112-1.312 5.28-1.312 7.552 0 2.368.64 4.32 2.56 4.32ZM132.984 30.32c1.056 0 2.464-.704 3.712-1.824l-.768-.672c-.704.736-1.216 1.024-1.536 1.024-.288 0-.416-.256-.416-.704 0-.416 1.376-7.936 1.376-9.792 0-1.792-.672-2.752-1.984-2.752-2.24 0-4.448 3.04-6.208 7.104.672-3.008 1.376-5.952 1.632-6.784l-.64-.32c-.896 1.088-3.072 2.464-4.352 3.04l-.224 1.152 1.92-.864c-.384 4.064-.704 5.92-1.984 11.072h2.176c1.408-5.152 4.064-11.744 6.016-11.744.8 0 .992 1.056.992 1.92 0 1.632-1.248 7.2-1.248 8.352 0 1.216.64 1.792 1.536 1.792ZM139.864 28.528c0 1.216.64 1.792 1.536 1.792 1.056 0 2.464-.704 3.712-1.824l-.768-.672c-.704.736-1.216 1.024-1.536 1.024-.288 0-.416-.256-.416-.704 0-2.88 1.664-9.472 2.592-12.224l-.64-.32c-.832 1.088-3.744 2.528-5.056 2.848l-.224 1.152 2.464-.8c-.224.832-1.664 6.56-1.664 9.728Zm5.216-16.288c.96 0 1.952-.832 1.952-1.888 0-.736-.576-1.312-1.344-1.312-1.024 0-1.92.928-1.92 1.952 0 .704.544 1.248 1.312 1.248ZM152.6 30.32c1.184 0 2.112-.256 3.776-1.312l3.04-3.296-.544-.384c-2.624 2.816-4.48 3.008-5.408 3.008-2.048 0-3.104-2.464-3.104-5.312 0-3.136.832-5.28 3.52-5.28 1.312 0 2.624.864 3.744 2.4 1.056-.288 1.888-.8 2.496-1.632-1.024-1.6-2.688-2.912-4.544-2.912-3.84 0-7.488 4.096-7.488 9.056 0 3.424 1.6 5.664 4.512 5.664ZM163.96 30.352c1.312 0 2.848-.768 4.448-2.464l-.032.64c0 1.216.64 1.792 1.536 1.792 1.056 0 2.464-.704 3.712-1.824l-.768-.672c-.704.736-1.216 1.024-1.536 1.024-.288 0-.416-.256-.416-.704 0-1.632 2.144-10.816 2.944-12.224l-.416-.32h-.032c-6.976 0-12.928 3.552-12.928 9.6 0 3.2 1.44 5.152 3.488 5.152Zm-1.632-6.24c0-2.816 2.912-6.336 8.48-6.752-.512 2.592-1.728 6.336-2.24 9.184-.768.736-1.44.96-2.816.96-2.208 0-3.424-1.536-3.424-3.392ZM179.96 30.32c1.984 0 4.16-1.792 4.992-2.656l-.544-.8c-1.28.96-2.368 1.376-3.2 1.376-1.248 0-2.08-.896-2.08-2.112 0-1.248 1.184-6.624 1.696-8.768h4.256l.288-1.44h-4.224c.288-1.408.576-2.656.96-3.552l-.736-.256c-1.024 1.6-2.304 3.488-4.256 3.808l-.288 1.44h1.696c-.544 2.304-1.92 8.608-1.92 10.112 0 1.888.928 2.848 3.36 2.848ZM191.8 30.32c4.192 0 7.36-4.512 7.36-8.96 0-3.168-1.536-5.76-4.512-5.76-4.16 0-7.36 4.736-7.36 9.12 0 3.168 1.568 5.6 4.512 5.6Zm1.44-1.984c-1.664 0-3.68-1.92-3.68-5.184 0-2.176 1.088-5.504 3.648-5.504 1.952 0 3.68 1.888 3.68 5.12 0 2.304-.896 5.568-3.648 5.568ZM201.24 30h2.496l.032-.224c1.376-5.088 2.72-10.912 4.864-11.936.704 0 1.664.832 2.528 1.824 1.056-.416 1.824-1.024 2.304-1.92-1.12-1.6-2.112-2.144-4.128-2.144-1.792.64-3.04 3.04-4.16 6.4.544-2.72 1.056-5.28 1.312-6.08l-.608-.32c-.928 1.088-3.104 2.464-4.352 3.04l-.224 1.152 1.92-.864c0 1.184-1.792 10.496-1.984 11.072Z"/></g></svg>