<?xml version="1.0" encoding="UTF-8"?>
<svg width="320px" height="40px" viewBox="0 0 320 40" version="1.1" xmlns="http://www.w3.org/2000/svg" xmlns:xlink="http://www.w3.org/1999/xlink">
    <title>gautina-bold</title>
    <g id="_exports" stroke="none" stroke-width="1" fill="none" fill-rule="evenodd">
        <g id="gautina-styles" transform="translate(-351, 0)">
            <g id="gautina-bold" transform="translate(351, 0)">
                <rect id="Rectangle-Copy" fill="#F7DF88" opacity="0" x="0" y="0" width="320" height="40"></rect>
                <g id="apium-latin-regular" transform="translate(1.928, 7.024)" fill="#424345" fill-rule="nonzero">
                    <path d="M11.456,23.392 C14.464,23.392 16.128,22.72 18.4,21.44 L21.472,16.576 L20.256,15.968 C17.6,19.072 15.072,19.968 12.864,19.968 C7.52,19.968 4.416,14.368 4.416,9.664 C4.416,5.76 6.784,3.04 10.848,3.04 C13.952,3.04 18.08,4.672 19.232,8.64 L20.672,8.64 L20.672,3.456 C17.92,1.408 14.784,0 11.392,0 C5.056,0 0,4.672 0,11.68 C0,18.112 4.8,23.392 11.456,23.392 Z" id="Path"></path>
                    <path d="M31.104,23.392 C35.232,23.392 38.24,20.032 38.24,15.968 C38.24,11.936 35.232,8.288 31.104,8.288 C26.976,8.288 23.968,11.936 23.968,15.968 C23.968,20.032 26.976,23.392 31.104,23.392 Z M33.056,21.152 C30.016,21.152 27.2,16.384 27.2,13.344 C27.2,11.808 27.936,10.592 29.6,10.592 C32.608,10.592 35.424,15.424 35.424,18.4 C35.424,19.968 34.72,21.152 33.056,21.152 Z" id="Shape"></path>
                    <path d="M40.032,22.976 L47.648,22.976 L47.648,21.472 C46.432,21.472 46.144,21.152 46.048,20 L45.984,15.552 L45.984,12.992 C46.688,12.32 47.424,11.872 48.192,11.872 C50.304,11.872 50.88,14.368 50.88,18.368 L50.88,20.352 C50.816,21.216 50.528,21.472 49.28,21.472 L49.28,22.976 L56.352,22.976 L56.352,21.472 C55.36,21.472 54.88,21.216 54.816,20.288 L54.848,19.104 C54.848,16.64 54.72,14.56 54.4,12.928 C55.168,12.256 56,11.872 56.896,11.872 C59.008,11.872 59.616,14.368 59.616,18.368 L59.616,20.032 C59.584,21.152 59.424,21.472 58.016,21.472 L58.016,22.976 L65.088,22.976 L65.088,21.472 C64.096,21.472 63.648,21.216 63.552,20.32 L63.584,19.104 C63.584,11.712 62.432,8.288 59.36,8.288 C57.536,8.288 55.424,9.856 53.952,11.232 C53.312,9.28 52.224,8.288 50.624,8.288 C49.12,8.288 47.424,9.376 46.048,10.528 C46.08,9.696 46.144,9.056 46.208,8.704 L45.248,8.288 C44.064,9.376 41.408,10.88 40.032,11.296 L40.032,13.088 L41.888,12.128 C42.048,12.704 42.08,15.136 42.08,17.312 L42.08,20 C41.984,21.152 41.152,21.472 40.032,21.472 L40.032,22.976 Z" id="Path"></path>
                    <path d="M66.272,22.976 L73.888,22.976 L73.888,21.472 C72.672,21.472 72.384,21.152 72.288,20 L72.224,15.552 L72.224,12.992 C72.928,12.32 73.664,11.872 74.432,11.872 C76.544,11.872 77.12,14.368 77.12,18.368 L77.12,20.352 C77.056,21.216 76.768,21.472 75.52,21.472 L75.52,22.976 L82.592,22.976 L82.592,21.472 C81.6,21.472 81.12,21.216 81.056,20.288 L81.088,19.104 C81.088,16.64 80.96,14.56 80.64,12.928 C81.408,12.256 82.24,11.872 83.136,11.872 C85.248,11.872 85.856,14.368 85.856,18.368 L85.856,20.032 C85.824,21.152 85.664,21.472 84.256,21.472 L84.256,22.976 L91.328,22.976 L91.328,21.472 C90.336,21.472 89.888,21.216 89.792,20.32 L89.824,19.104 C89.824,11.712 88.672,8.288 85.6,8.288 C83.776,8.288 81.664,9.856 80.192,11.232 C79.552,9.28 78.464,8.288 76.864,8.288 C75.36,8.288 73.664,9.376 72.288,10.528 C72.32,9.696 72.384,9.056 72.448,8.704 L71.488,8.288 C70.304,9.376 67.648,10.88 66.272,11.296 L66.272,13.088 L68.128,12.128 C68.288,12.704 68.32,15.136 68.32,17.312 L68.32,20 C68.224,21.152 67.392,21.472 66.272,21.472 L66.272,22.976 Z" id="Path"></path>
                    <path d="M97.696,23.392 C99.552,23.392 101.44,21.984 102.816,20.608 C102.784,21.568 102.72,22.4 102.624,22.976 L103.648,23.392 C104.64,22.304 107.776,20.832 109.088,20.384 L109.088,18.784 L107.232,19.552 C107.104,18.56 107.072,16.832 107.072,15.232 C107.072,13.248 107.296,9.472 107.424,8.704 L106.144,8.288 C105.184,9.376 102.496,10.72 101.216,11.168 L101.216,12.768 L102.848,11.936 C102.912,13.024 102.912,14.752 102.912,16.512 L102.912,17.792 C102.048,18.976 101.056,19.968 100.064,19.968 C98.144,19.968 97.984,15.456 97.984,12.256 C97.984,10.624 98.08,9.312 98.176,8.704 L96.928,8.288 C95.936,9.376 93.312,10.72 92.032,11.168 L92.032,12.768 L93.824,11.936 L93.76,14.528 C93.76,20.224 95.104,23.392 97.696,23.392 Z" id="Path"></path>
                    <path d="M120.224,22.976 L127.68,22.976 L127.68,21.472 C126.368,21.472 125.888,21.216 125.792,20.32 L125.824,19.104 C125.824,11.712 124.672,8.288 121.568,8.288 C120.032,8.288 118.272,9.44 116.896,10.624 C116.928,9.728 116.992,9.056 117.056,8.704 L116.096,8.288 C114.912,9.376 112.256,10.88 110.88,11.296 L110.88,12.896 L112.736,12.128 C112.896,12.704 112.928,14.944 112.928,17.312 L112.896,20.192 C112.768,21.184 111.936,21.472 110.88,21.472 L110.88,22.976 L118.496,22.976 L118.496,21.472 C117.28,21.472 116.992,21.152 116.896,20 L116.832,15.552 L116.832,13.088 C117.568,12.352 118.336,11.872 119.136,11.872 C121.248,11.872 121.824,14.176 121.824,18.368 L121.824,20.352 C121.76,21.216 121.472,21.472 120.224,21.472 L120.224,22.976 Z" id="Path"></path>
                    <path d="M128.992,22.976 L137.056,22.976 L137.056,21.472 C135.904,21.472 135.488,21.152 135.392,20.064 C135.36,18.272 135.328,16.128 135.328,14.176 C135.328,11.712 135.456,9.376 135.616,8.704 L134.656,8.288 C133.504,9.376 130.272,10.88 128.864,11.2 L128.864,12.832 L130.944,12.096 C131.072,12.832 131.136,15.744 131.136,18.016 L131.104,20 C131.072,21.152 130.112,21.472 128.992,21.472 L128.992,22.976 Z M133.056,5.856 C134.304,5.856 135.392,4.864 135.392,3.552 C135.392,2.304 134.304,1.216 133.056,1.216 C131.744,1.216 130.752,2.304 130.752,3.552 C130.752,4.864 131.744,5.856 133.056,5.856 Z" id="Shape"></path>
                    <path d="M145.568,23.392 C146.912,23.392 148.128,22.912 149.792,21.952 L152.032,18.4 L151.168,17.952 C149.344,19.84 147.584,20.32 146.432,20.32 C144.256,20.32 142.432,18.08 142.432,14.912 C142.432,13.088 143.712,11.136 145.632,11.136 C147.072,11.136 148.224,11.808 149.472,12.96 C150.432,12.544 151.424,11.36 151.744,10.464 C150.272,8.96 148.352,8.288 146.432,8.288 C142.592,8.288 138.784,11.328 138.784,16.032 C138.784,20.16 141.792,23.392 145.568,23.392 Z" id="Path"></path>
                    <path d="M161.536,22.976 L162.56,23.392 C163.552,22.304 166.144,20.832 167.424,20.384 L167.424,18.784 L165.44,19.68 L165.44,16.704 C165.44,10.496 163.328,8.288 160.224,8.288 C158.304,8.288 155.808,9.344 153.824,11.072 L154.848,13.088 C155.872,12.416 157.312,11.776 158.368,11.776 C159.616,11.776 160.576,12.448 161.152,13.888 L153.152,16.96 C152.96,17.728 152.832,18.592 152.832,19.36 C152.832,21.408 153.728,23.392 156.128,23.392 C157.888,23.392 160.224,21.728 161.728,20.416 C161.696,21.376 161.632,22.24 161.536,22.976 Z M156.96,18.784 C156.96,18.528 157.024,18.24 157.184,17.952 L161.664,16.096 C161.728,16.672 161.76,17.344 161.76,18.08 L161.76,18.4 C160.512,19.2 159.104,19.712 158.144,19.712 C157.44,19.712 156.96,19.424 156.96,18.784 Z" id="Shape"></path>
                    <path d="M175.008,23.36 C176.896,23.36 178.816,22.208 180.128,20.64 L179.456,19.84 C178.336,20.8 177.344,21.216 176.512,21.216 C175.072,21.216 173.952,20 173.952,18.496 L173.952,14.88 L173.984,11.2 L180.288,11.2 L180.288,8.704 L174.048,8.704 C174.048,7.296 174.144,6.048 174.336,5.152 L172.672,4.896 C171.968,6.496 170.048,8.384 168.16,8.704 L168.16,11.2 L169.824,11.2 C169.76,13.504 169.728,16.704 169.728,18.496 C169.728,21.216 171.744,23.36 175.008,23.36 Z" id="Path"></path>
                    <path d="M181.76,22.976 L189.824,22.976 L189.824,21.472 C188.672,21.472 188.256,21.152 188.16,20.064 C188.128,18.272 188.096,16.128 188.096,14.176 C188.096,11.712 188.224,9.376 188.384,8.704 L187.424,8.288 C186.272,9.376 183.04,10.88 181.632,11.2 L181.632,12.832 L183.712,12.096 C183.84,12.832 183.904,15.744 183.904,18.016 L183.872,20 C183.84,21.152 182.88,21.472 181.76,21.472 L181.76,22.976 Z M185.824,5.856 C187.072,5.856 188.16,4.864 188.16,3.552 C188.16,2.304 187.072,1.216 185.824,1.216 C184.512,1.216 183.52,2.304 183.52,3.552 C183.52,4.864 184.512,5.856 185.824,5.856 Z" id="Shape"></path>
                    <path d="M197.92,22.976 L199.584,22.976 C205.376,20.544 207.424,16.672 207.424,13.536 C207.424,10.72 205.696,8.288 203.616,8.288 C202.176,8.288 200.8,9.152 199.264,11.168 L199.936,12.48 C200.736,12 201.44,11.808 202.048,11.808 C203.616,11.808 204.672,13.248 204.672,14.784 C204.672,16.352 203.744,18.304 200.64,19.648 C198.496,15.744 197.28,13.088 197.28,10.752 C197.28,10.016 197.408,9.376 197.728,8.704 L196.704,8.288 C195.616,9.6 192.896,11.392 191.2,12.32 L191.2,13.92 L193.344,12.704 L197.92,22.976 Z" id="Path"></path>
                    <path d="M216.672,23.392 C218.048,23.392 219.264,22.912 220.928,21.952 L223.168,18.4 L222.272,17.952 C220.576,19.776 218.784,20.16 217.664,20.16 C215.424,20.16 213.472,18.816 212.928,16.544 L224.256,16.544 L224.256,14.624 L223.584,14.624 C222.624,10.816 220.032,8.288 216.8,8.288 C212,8.288 209.216,12.192 209.216,16.16 C209.216,20.064 211.872,23.392 216.672,23.392 Z M212.832,14.624 C213.088,12.864 214.304,11.52 216,11.52 C217.472,11.52 218.976,12.832 219.616,14.624 L212.832,14.624 Z" id="Shape"></path>
                    <path d="M225.568,22.976 L233.824,22.976 L233.824,21.472 C232.64,21.472 231.936,21.152 231.84,20 C231.776,18.24 231.744,15.936 231.744,13.664 C231.744,8.96 231.808,3.232 232.128,1.056 L231.168,0.64 C229.984,1.728 226.88,3.232 225.504,3.68 L225.504,5.28 L227.424,4.576 C227.552,6.24 227.584,8.832 227.584,11.36 L227.52,20 C227.456,21.152 226.688,21.472 225.568,21.472 L225.568,22.976 Z" id="Path"></path>
                    <path d="M236.48,30.816 L239.872,30.816 C241.824,26.848 244.672,20.704 248.672,11.584 C249.248,10.24 249.792,10.208 251.072,10.208 L251.072,8.704 L244.768,8.704 L244.768,10.208 C245.632,10.208 246.048,10.624 246.048,11.168 C246.048,11.328 246.016,11.52 245.952,11.68 L243.552,17.28 L241.44,12.096 C241.344,11.84 241.28,11.584 241.28,11.36 C241.28,10.72 241.728,10.208 242.464,10.208 L242.464,8.704 L234.336,8.704 L234.336,10.208 C235.776,10.208 236.128,10.336 236.928,12.096 L241.344,22.144 L236.48,30.816 Z" id="Path"></path>
                </g>
            </g>
        </g>
    </g>
</svg>