<svg xmlns="http://www.w3.org/2000/svg" width="320" height="40"><g fill="#424345" fill-rule="nonzero"><path d="M10.972 30.28c1.372 0 2.8-.56 4.06-1.736V30h2.1V16.7h-2.1v1.932c-1.372-1.54-2.884-2.212-4.284-2.212-2.884 0-5.348 2.688-5.348 7 0 4.2 2.604 6.86 5.572 6.86Zm-3.276-7.028c0-2.576 1.176-4.844 3.052-4.844 1.512 0 2.688.84 4.284 3.08v4.704c-1.428 1.4-2.856 2.1-4.088 2.1-1.904 0-3.248-1.652-3.248-5.04ZM32.952 30.28c2.744 0 4.928-1.372 6.608-3.192A7.515 7.515 0 0 1 41.212 30h2.352c-.42-1.876-1.428-3.332-2.716-4.536 1.316-1.848 2.212-3.892 2.716-5.348h-2.352c-.588 1.596-1.26 2.94-1.988 4.032a46.579 46.579 0 0 0-2.632-1.708 34.967 34.967 0 0 1-2.492-1.652c1.82-1.512 3.444-3.248 3.444-5.516 0-1.932-1.428-4.452-4.452-4.452-3.052 0-4.452 2.52-4.452 4.452 0 2.324 1.008 4.06 2.492 5.516-2.016 1.288-3.78 2.688-3.78 5.04 0 1.932 1.792 4.452 5.6 4.452Zm-3.304-4.76c0-1.204 1.316-2.296 2.912-3.528a26.075 26.075 0 0 0 2.492 1.708c1.036.644 2.044 1.288 2.968 1.988-1.708 1.848-3.5 2.604-4.928 2.604-1.876 0-3.444-1.12-3.444-2.772Zm1.288-9.94c0-1.652 1.036-2.772 2.156-2.772 1.092 0 2.156 1.12 2.156 2.772 0 1.764-1.092 3.024-2.464 4.06-1.12-1.12-1.848-2.436-1.848-4.06ZM59.944 30.28c2.94 0 5.572-2.52 5.572-6.944 0-3.528-2.324-6.916-5.852-6.916-1.148 0-2.436.336-3.78 1.204V10.4h-2.1V30h2.1v-1.372c1.288 1.12 2.688 1.652 4.06 1.652Zm-4.06-3.976V19.78c1.12-.952 2.296-1.4 3.36-1.4 2.212 0 3.976 1.82 3.976 4.956 0 3.192-1.316 4.956-3.276 4.956-1.176 0-2.576-.644-4.06-1.988ZM85.256 28.908l5.18-6.272-5.152-6.216h-2.548l4.396 5.264H75.316v1.988h11.732l-4.312 5.236zM103.656 30.28c1.428 0 2.968-.644 4.396-2.212V30h2.1v-7.504c0-4.368-2.044-6.076-4.788-6.076-2.016 0-4.368.924-6.244 2.408l1.288 1.512c1.372-1.176 3.024-1.96 4.508-1.96 1.316 0 2.38.616 2.856 2.184-6.636.952-8.792 3.248-8.792 5.348 0 2.268 2.128 4.368 4.676 4.368Zm-2.38-4.424c0-1.344 1.596-2.8 6.776-3.22v2.716c-1.288 2.184-2.8 2.968-4.06 2.968-1.54 0-2.716-1.204-2.716-2.464ZM128.548 30.28c3.36 0 6.972-1.848 8.82-6.188h3.864v-1.988h-3.22c.364-1.372.56-2.94.56-4.732h-1.988c0 1.848-.196 3.416-.56 4.732h-3.304c-.532-3.892-3.36-5.684-5.852-5.684-3.724 0-5.936 3.388-5.936 6.804 0 3.5 2.324 7.056 7.616 7.056Zm-5.516-6.188h12.264c-1.596 3.36-4.48 4.396-7.056 4.396-3.164 0-4.844-2.128-5.208-4.396Zm0-1.988c.364-1.988 1.708-3.696 3.948-3.696 1.932 0 3.304 1.428 3.724 3.696h-7.672ZM157.192 30.28c2.94 0 5.572-2.52 5.572-6.944 0-3.528-2.324-6.916-5.852-6.916-1.148 0-2.436.336-3.78 1.204V10.4h-2.1V30h2.1v-1.372c1.288 1.12 2.688 1.652 4.06 1.652Zm-4.06-3.976V19.78c1.12-.952 2.296-1.4 3.36-1.4 2.212 0 3.976 1.82 3.976 4.956 0 3.192-1.316 4.956-3.276 4.956-1.176 0-2.576-.644-4.06-1.988Z"/></g></svg>