<svg xmlns="http://www.w3.org/2000/svg" width="320" height="40"><g fill="#424345" fill-rule="nonzero"><path d="M10.532 30.28c3.92 0 6.188-3.164 6.188-7.616 0-4.396-2.268-7.644-6.188-7.644S4.4 18.268 4.4 22.664c0 4.452 2.212 7.616 6.132 7.616Zm-3.836-7.616c0-3.388 1.484-5.628 3.864-5.628 2.408 0 3.864 2.24 3.864 5.628 0 3.444-1.456 5.628-3.864 5.628-2.38 0-3.864-2.184-3.864-5.628ZM24.532 30h2.24V15.3h-2.24l-5.992 5.628 1.512 1.68 4.48-4.2zM31.532 28.488V30h12.18v-2.1h-9.66c.392-1.876 1.82-2.436 4.536-3.136 2.548-.672 5.18-1.624 5.18-5.264 0-2.828-1.988-4.48-5.32-4.48-2.212 0-4.704.924-6.916 2.52l.952 2.016c1.904-1.372 4.34-2.436 6.16-2.436 1.624 0 2.828 1.12 2.828 2.436 0 1.148-.924 2.436-3.332 3.248-4.704 1.568-6.608 2.94-6.608 5.684ZM53.54 30.28c3.024 0 6.076-1.148 6.076-4.312 0-2.128-1.372-3.024-3.052-3.528 1.316-.756 2.38-1.932 2.38-3.22 0-2.408-2.072-4.172-5.74-4.172-2.212 0-4.704.7-6.916 1.96l.952 1.904c1.764-1.008 4.424-1.876 6.468-1.876 1.624 0 2.856.56 2.856 2.128 0 1.512-1.54 2.38-4.396 2.38v1.988c3.612 0 5.096 1.092 5.096 2.464 0 1.624-1.456 2.24-3.332 2.24-2.156 0-4.872-.784-6.692-1.82l-.952 1.96c2.324 1.288 4.956 1.904 7.252 1.904ZM70.928 30h2.24v-3.5h1.96v-1.96h-1.96V15.3h-2.24l-8.792 9.24v1.96h8.792V30Zm-5.936-5.46 5.936-6.272v6.272h-5.936ZM84.032 30.28c4.088 0 6.104-2.716 6.104-5.404 0-2.632-1.932-5.208-5.712-5.208-1.68 0-3.136.364-4.564 1.288v-3.668h9.296V15.3H77.648v7.532l1.54 1.204c1.596-1.652 3.472-2.38 5.068-2.38 2.016 0 3.584 1.4 3.584 3.276 0 1.68-1.288 3.36-3.92 3.36-1.764 0-3.892-.644-5.88-1.848l-.952 1.904c2.268 1.288 4.76 1.932 6.944 1.932ZM99.068 30.28c3.444 0 5.404-2.436 5.404-5.012 0-3.248-2.576-4.984-5.32-4.984-1.456 0-2.744.532-3.836 1.456.924-3.64 3.836-4.592 6.16-5.068l-.672-1.624c-5.04 1.288-7.868 3.92-7.868 8.988 0 3.22 1.54 6.244 6.132 6.244Zm-3.892-4.984c0-1.736 1.372-3.332 3.584-3.332 2.324 0 3.556 1.596 3.556 3.332 0 1.736-1.232 3.332-3.556 3.332-2.212 0-3.584-1.596-3.584-3.332ZM110.94 30h2.52l6.692-14.7h-12.74v2.1h9.352zM129.588 30.28c3.024 0 6.076-1.26 6.076-3.696 0-1.82-1.68-2.94-3.892-4.088 1.82-1.26 2.828-2.184 2.828-3.724 0-1.96-1.848-3.724-5.012-3.724-3.136 0-4.928 1.764-4.928 3.724 0 1.512.924 2.464 2.716 3.696-2.352 1.176-3.864 2.268-3.864 4.116 0 2.436 3.052 3.696 6.076 3.696Zm-3.948-3.696c0-1.232 1.344-2.352 3.948-3.36 2.604 1.008 3.948 2.128 3.948 3.36 0 1.372-1.932 2.044-3.836 2.044-1.988 0-4.06-.7-4.06-2.044Zm1.092-7.812c0-.98 1.148-2.1 2.856-2.1s2.912 1.12 2.912 2.1c0 1.68-1.204 2.268-2.912 3.052-1.708-.784-2.856-1.372-2.856-3.052ZM139.864 28.656l.672 1.624c6.468-1.288 8.68-3.92 8.68-8.988 0-3.22-1.484-6.244-6.048-6.244-3.444 0-5.432 2.436-5.432 4.984 0 3.276 2.576 5.012 5.32 5.012 1.568 0 2.968-.616 4.088-1.652-.42 3.416-3.92 4.732-7.28 5.264Zm.028-8.652c0-1.708 1.232-3.332 3.556-3.332 2.24 0 3.612 1.624 3.612 3.332 0 1.736-1.372 3.332-3.612 3.332-2.324 0-3.556-1.596-3.556-3.332Z"/></g></svg>