<svg xmlns="http://www.w3.org/2000/svg" width="320" height="40"><g fill="#424345" fill-rule="nonzero"><path d="M10.972 30.28c1.372 0 2.8-.56 4.06-1.736V30h2.1V16.7h-2.1v1.932c-1.372-1.54-2.884-2.212-4.284-2.212-2.884 0-5.348 2.688-5.348 7 0 4.2 2.604 6.86 5.572 6.86Zm-3.276-7.028c0-2.576 1.176-4.844 3.052-4.844 1.512 0 2.688.84 4.284 3.08v4.704c-1.428 1.4-2.856 2.1-4.088 2.1-1.904 0-3.248-1.652-3.248-5.04ZM35.052 30.28c2.94 0 5.572-2.52 5.572-6.944 0-3.528-2.324-6.916-5.852-6.916-1.148 0-2.436.336-3.78 1.204V10.4h-2.1V30h2.1v-1.372c1.288 1.12 2.688 1.652 4.06 1.652Zm-4.06-3.976V19.78c1.12-.952 2.296-1.4 3.36-1.4 2.212 0 3.976 1.82 3.976 4.956 0 3.192-1.316 4.956-3.276 4.956-1.176 0-2.576-.644-4.06-1.988ZM55.996 30.28c1.372 0 2.772-.532 4.06-1.652V30h2.1V10.4h-2.1v7.224c-1.344-.868-2.632-1.204-3.78-1.204-3.528 0-5.852 3.388-5.852 6.916 0 4.424 2.632 6.944 5.572 6.944Zm-3.276-6.944c0-3.136 1.764-4.956 3.976-4.956 1.064 0 2.24.448 3.36 1.4v6.524c-1.484 1.344-2.884 1.988-4.06 1.988-1.96 0-3.276-1.764-3.276-4.956ZM73.916 36.16h2.1v-7.084c1.344.868 2.632 1.204 3.78 1.204 3.528 0 5.852-3.108 5.852-6.748 0-4.424-2.464-7.112-5.348-7.112-1.4 0-2.912.672-4.284 2.212V16.7h-2.1v19.46Zm2.1-9.24v-5.432c1.596-2.24 2.772-3.08 4.284-3.08 1.876 0 3.052 2.268 3.052 4.76 0 3.612-1.764 5.152-3.976 5.152-1.064 0-2.24-.448-3.36-1.4ZM105.08 36.16h2.1V16.7h-2.1v1.932c-1.372-1.54-2.884-2.212-4.284-2.212-2.884 0-5.348 2.688-5.348 7.112 0 3.64 2.324 6.748 5.852 6.748 1.148 0 2.436-.336 3.78-1.204v7.084Zm-7.336-12.992c0-2.492 1.176-4.76 3.052-4.76 1.512 0 2.688.84 4.284 3.08v5.432c-1.12.952-2.296 1.4-3.36 1.4-2.212 0-3.976-1.54-3.976-5.152ZM127.9 28.908l5.18-6.272-5.152-6.216h-2.548l4.396 5.264H117.96v1.988h11.732l-4.312 5.236zM149 30.28c1.372 0 2.8-.56 4.06-1.736V30h2.1V17.82c-1.904-.98-3.612-1.4-5.068-1.4-4.9 0-6.692 3.64-6.692 6.916 0 4.284 2.632 6.944 5.6 6.944Zm-3.304-6.944c0-2.604 1.064-4.928 4.396-4.928.896 0 1.904.196 2.968.812v6.972c-1.428 1.4-2.856 2.1-4.088 2.1-1.904 0-3.276-1.652-3.276-4.956ZM172.016 30.28c4.452 0 6.636-3.808 6.636-7.504 0-3.528-1.988-6.776-5.908-6.776-1.12 0-2.38.364-3.724 1.232V10.4h-2.1v18.48c1.904.98 3.64 1.4 5.096 1.4Zm-2.996-2.8v-7.952c1.456-1.008 2.772-1.54 3.892-1.54 2.072 0 3.444 1.568 3.444 5.04 0 4.256-2.184 5.236-4.788 5.236-.924 0-1.68-.252-2.548-.784ZM195.088 30.28c1.456 0 3.192-.42 5.096-1.4V10.4h-2.1v6.832C196.74 16.364 195.48 16 194.36 16c-3.92 0-5.908 3.248-5.908 6.776 0 3.696 2.184 7.504 6.636 7.504Zm-4.34-7.252c0-3.472 1.372-5.04 3.444-5.04 1.12 0 2.436.532 3.892 1.54v7.952c-.868.532-1.624.784-2.548.784-2.604 0-4.788-.98-4.788-5.236ZM211.944 17.82v18.34h2.1v-7.112c1.344.868 2.604 1.232 3.724 1.232 3.92 0 5.908-2.968 5.908-6.496 0-3.696-2.184-7.364-6.636-7.364-1.456 0-3.192.42-5.096 1.4Zm2.1 8.932V19.22a5.902 5.902 0 0 1 2.996-.812c2.688 0 4.368 2.744 4.368 5.488 0 3.108-1.484 4.424-3.276 4.424-1.12 0-2.604-.532-4.088-1.568ZM243.108 36.16h2.1V17.82c-1.904-.98-3.64-1.4-5.096-1.4-4.452 0-6.636 3.668-6.636 7.364 0 3.528 1.988 6.496 5.908 6.496 1.12 0 2.38-.364 3.724-1.232v7.112Zm-7.364-12.264c0-2.744 1.68-5.488 4.368-5.488.896 0 1.932.196 2.996.812v7.532c-1.484 1.036-2.968 1.568-4.088 1.568-1.792 0-3.276-1.316-3.276-4.424Z"/></g></svg>