<svg xmlns="http://www.w3.org/2000/svg" width="320" height="40"><g fill="#424345" fill-rule="nonzero"><path d="M6.1 25.072h2.1L8.9 11.1H5.4l.7 13.972Zm-.504 3.668c0 .868.672 1.54 1.568 1.54.84 0 1.512-.672 1.512-1.54s-.672-1.54-1.512-1.54c-.896 0-1.568.672-1.568 1.54ZM27.044 30h2.24l.896-5.012h4.256V23h-3.892l.812-4.592h3.08V16.42H31.72l1.008-5.6h-2.24l-1.008 5.6h-4.452l1.008-5.6h-2.24l-1.008 5.6H18.7v1.988h3.724L21.612 23H18.7v1.988h2.548L20.352 30h2.24l.896-5.012h4.452L27.044 30Zm-3.192-7 .812-4.592h4.452L28.304 23h-4.452ZM51.236 20.312l1.82-1.316-2.688-2.828 3.668-.7-.7-2.128-3.584 1.736.504-3.976h-2.24l.532 3.948-3.612-1.708-.7 2.128 3.724.672-2.716 2.856 1.82 1.316 2.1-3.808zM64.536 33.388h1.54c.952-1.736 1.288-3.052 1.288-4.032 0-1.512-.84-2.156-1.68-2.156-.896 0-1.568.672-1.568 1.54s.672 1.54 1.568 1.54h.056c-.168.84-.532 1.876-1.204 3.108ZM78.732 30.28c.84 0 1.512-.672 1.512-1.54s-.672-1.54-1.512-1.54c-.896 0-1.568.672-1.568 1.54s.672 1.54 1.568 1.54ZM90.184 32.52h2.24l7.028-23.884h-2.24zM112.36 19.5c.84 0 1.512-.672 1.512-1.54s-.672-1.54-1.512-1.54c-.896 0-1.568.672-1.568 1.54s.672 1.54 1.568 1.54Zm-1.568 9.24c0 .868.672 1.54 1.568 1.54.84 0 1.512-.672 1.512-1.54s-.672-1.54-1.512-1.54c-.896 0-1.568.672-1.568 1.54ZM125.716 19.5c.84 0 1.512-.672 1.512-1.54s-.672-1.54-1.512-1.54c-.896 0-1.568.672-1.568 1.54s.672 1.54 1.568 1.54Zm-1.624 9.24c0 .868.672 1.54 1.568 1.54h.056c-.168.84-.532 1.876-1.204 3.108h1.54c.952-1.736 1.288-3.052 1.288-4.032 0-1.512-.84-2.156-1.68-2.156-.896 0-1.568.672-1.568 1.54ZM140.948 25.072h2.1c0-4.172 0-4.452 1.456-5.068 2.632-1.12 3.808-2.996 3.808-4.76 0-2.324-1.988-4.424-5.432-4.424-2.436 0-4.116 1.12-5.88 2.52l1.428 1.792c1.428-1.456 3.22-2.128 4.704-2.128 1.596 0 2.856.812 2.856 2.352 0 .868-.448 2.128-1.736 2.66-1.736.728-3.304 1.428-3.304 3.304v3.752Zm-.56 3.668c0 .868.672 1.54 1.568 1.54.84 0 1.512-.672 1.512-1.54s-.672-1.54-1.512-1.54c-.896 0-1.568.672-1.568 1.54ZM168.78 32.52l-7.028-23.884h-2.24l7.028 23.884zM179.28 21.628l-.7 13.972h3.5l-.7-13.972h-2.1Zm-.504-3.668c0 .868.672 1.54 1.568 1.54.84 0 1.512-.672 1.512-1.54s-.672-1.54-1.512-1.54c-.896 0-1.568.672-1.568 1.54ZM193.448 24.568c.84 0 1.512-.672 1.512-1.54s-.672-1.54-1.512-1.54c-.896 0-1.568.672-1.568 1.54s.672 1.54 1.568 1.54ZM212.236 21.628h-2.1c0 4.172 0 4.452-1.456 5.068-2.632 1.12-3.808 2.996-3.808 4.76 0 2.324 1.988 4.424 5.432 4.424 2.436 0 4.116-1.12 5.88-2.52l-1.428-1.792c-1.428 1.456-3.22 2.128-4.704 2.128-1.596 0-2.856-.812-2.856-2.352 0-.868.448-2.128 1.736-2.66 1.736-.728 3.304-1.428 3.304-3.304v-3.752Zm-2.52-3.668c0 .868.672 1.54 1.512 1.54.896 0 1.568-.672 1.568-1.54s-.672-1.54-1.568-1.54c-.84 0-1.512.672-1.512 1.54ZM231.08 25.94c1.68 0 3.024-1.344 3.024-3.08s-1.344-3.08-3.024-3.08c-1.792 0-3.136 1.344-3.136 3.08s1.344 3.08 3.136 3.08ZM259.892 30.28c.84 0 1.512-.672 1.512-1.54s-.672-1.54-1.512-1.54c-.896 0-1.568.672-1.568 1.54s.672 1.54 1.568 1.54Zm-13.888-1.54c0 .868.672 1.54 1.568 1.54.84 0 1.512-.672 1.512-1.54s-.672-1.54-1.512-1.54c-.896 0-1.568.672-1.568 1.54Zm6.16 0c0 .868.672 1.54 1.568 1.54.84 0 1.512-.672 1.512-1.54s-.672-1.54-1.512-1.54c-.896 0-1.568.672-1.568 1.54Z"/></g></svg>