<svg xmlns="http://www.w3.org/2000/svg" width="320" height="40"><g fill="#424345" fill-rule="nonzero"><path d="M9.86 32.8h2.24v-2.912c3.808-.14 6.216-2.016 6.216-4.564 0-3.752-3.22-4.844-6.216-5.796v-5.992c1.54.392 3.248 1.176 4.676 2.072l1.372-1.82c-1.82-1.232-4.004-2.072-6.048-2.38V8.3H9.86v2.94c-2.968.112-5.292 1.484-5.292 4.396 0 3.444 2.576 4.592 5.292 5.432v6.384c-1.456-.42-3.024-1.12-4.088-1.988L4.26 27.032c1.54 1.288 3.584 2.296 5.6 2.688v3.08ZM6.948 15.496c0-1.568 1.12-2.184 2.912-2.24v5.488c-1.68-.672-2.912-1.568-2.912-3.248Zm5.152 12.32V21.74c2.1.644 3.836 1.456 3.836 3.5 0 1.54-1.568 2.576-3.752 2.576H12.1ZM33.156 32.8h2.24v-2.576a6.69 6.69 0 0 0 3.444-1.428l-1.26-1.54c-.7.476-1.456.784-2.184.924v-9.716c.812.14 1.652.476 2.492 1.092l1.148-1.512c-1.064-.868-2.324-1.456-3.64-1.596v-2.576h-2.24v2.66c-3.444.7-5.18 3.752-5.18 6.776 0 3.052 1.736 6.104 5.18 6.804V32.8Zm-2.884-9.464c0-2.016.952-4.06 2.884-4.732v9.464c-1.932-.672-2.884-2.688-2.884-4.732ZM48.556 27.9V30h12.18v-2.1h-9.352c1.26-1.764 1.932-3.332 1.932-5.096v-.448h4.872v-1.988h-5.292c-.7-1.876-1.96-3.08-1.96-4.564 0-2.1 1.148-2.884 2.744-2.884 1.82 0 4.256 1.064 6.16 2.436l.952-2.016c-2.212-1.596-4.704-2.52-6.916-2.52-3.332 0-5.32 2.464-5.32 4.872 0 2.1 1.12 3.164 1.82 4.676h-1.82v1.988h2.352c.028.14.028.308.028.476 0 1.848-1.064 3.472-2.38 5.068ZM78.096 30h2.24v-2.408h3.304v-1.988h-3.304V23.56h3.304v-1.988h-2.576L87.728 11.1h-2.66l-5.852 9.352-5.852-9.352h-2.632l6.636 10.472h-2.576v1.988h3.304v2.044h-3.304v1.988h3.304zM108.504 30.28c2.688 0 5.18-1.036 7-2.688l-1.4-1.792c-1.624 1.568-3.808 2.38-5.796 2.38-3.304 0-5.74-1.652-6.692-4.62h8.652v-1.988h-9.044c-.028-.336-.056-.672-.056-1.036 0-.336.028-.672.056-1.008h9.044V17.54h-8.68c.952-2.996 3.388-4.62 6.692-4.62 1.988 0 4.2.84 5.824 2.38l1.4-1.764a10.343 10.343 0 0 0-7-2.716c-5.096 0-8.288 2.8-9.324 6.72h-2.912v1.988h2.576c-.028.336-.056.672-.056 1.036 0 .336 0 .672.028 1.008h-2.548v1.988h2.884c1.036 3.948 4.228 6.72 9.352 6.72ZM126.34 27.76l2.324-2.324c.924.588 2.016.868 3.108.868 1.12 0 2.268-.308 3.22-.924l2.296 2.268 1.456-1.484-2.268-2.24c.532-.84.868-1.876.868-3.136 0-1.288-.336-2.352-.896-3.192l2.296-2.296-1.484-1.456-2.296 2.296a6.106 6.106 0 0 0-3.192-.896c-1.092 0-2.184.28-3.108.868l-2.296-2.324-1.484 1.456 2.296 2.324c-.56.84-.896 1.904-.896 3.22 0 1.288.336 2.324.868 3.164l-2.268 2.324 1.456 1.484Zm2.296-6.972c0-1.96 1.204-3.5 3.192-3.5 2.016 0 3.164 1.54 3.164 3.5 0 2.128-1.148 3.472-3.164 3.472-2.044 0-3.192-1.344-3.192-3.472Z"/></g></svg>