<svg xmlns="http://www.w3.org/2000/svg" width="320" height="40"><g fill="#424345" fill-rule="nonzero"><path d="M12.54 30.28c2.94 0 5.572-2.52 5.572-6.944 0-3.528-2.324-6.916-5.852-6.916-1.148 0-2.436.336-3.78 1.204V10.4h-2.1V30h2.1v-1.372c1.288 1.12 2.688 1.652 4.06 1.652Zm-4.06-3.976V19.78c1.12-.952 2.296-1.4 3.36-1.4 2.212 0 3.976 1.82 3.976 4.956 0 3.192-1.316 4.956-3.276 4.956-1.176 0-2.576-.644-4.06-1.988ZM21.892 30h2.1v-7.7c1.176-2.044 2.52-3.892 5.208-3.892.14 0 .28 0 .448.028v-1.904a2.707 2.707 0 0 0-.812-.112c-2.492 0-3.864 1.372-4.844 2.968V16.7h-2.1V30ZM37.04 30.28c1.372 0 2.8-.56 4.06-1.736V30h2.1V16.7h-2.1v1.932c-1.372-1.54-2.884-2.212-4.284-2.212-2.884 0-5.348 2.688-5.348 7 0 4.2 2.604 6.86 5.572 6.86Zm-3.276-7.028c0-2.576 1.176-4.844 3.052-4.844 1.512 0 2.688.84 4.284 3.08v4.704c-1.428 1.4-2.856 2.1-4.088 2.1-1.904 0-3.248-1.652-3.248-5.04ZM51.796 30h1.96l5.796-13.3h-2.436l-4.34 10.612-4.34-10.612H46zM66.944 30.28c1.372 0 2.8-.56 4.06-1.736V30h2.1V16.7h-2.1v1.932c-1.372-1.54-2.884-2.212-4.284-2.212-2.884 0-5.348 2.688-5.348 7 0 4.2 2.604 6.86 5.572 6.86Zm-3.276-7.028c0-2.576 1.176-4.844 3.052-4.844 1.512 0 2.688.84 4.284 3.08v4.704c-1.428 1.4-2.856 2.1-4.088 2.1-1.904 0-3.248-1.652-3.248-5.04ZM82.456 30.28c1.372 0 2.772-.532 4.06-1.652V30h2.1V10.4h-2.1v7.224c-1.344-.868-2.632-1.204-3.78-1.204-3.528 0-5.852 3.388-5.852 6.916 0 4.424 2.632 6.944 5.572 6.944Zm-3.276-6.944c0-3.136 1.764-4.956 3.976-4.956 1.064 0 2.24.448 3.36 1.4v6.524c-1.484 1.344-2.884 1.988-4.06 1.988-1.96 0-3.276-1.764-3.276-4.956ZM98.864 30.28c4.312 0 6.44-3.472 6.44-6.944 0-3.444-2.128-6.916-6.44-6.916s-6.468 3.472-6.468 6.916c0 3.472 2.156 6.944 6.468 6.944Zm-4.172-6.944c0-2.464 1.4-4.928 4.172-4.928s4.144 2.464 4.144 4.928c0 2.492-1.372 4.956-4.144 4.956-2.772 0-4.172-2.464-4.172-4.956ZM125.044 28.908l5.18-6.272-5.152-6.216h-2.548l4.396 5.264h-11.816v1.988h11.732l-4.312 5.236zM147.54 30.28c2.94 0 5.572-2.52 5.572-6.944 0-3.528-2.324-6.916-5.852-6.916-1.148 0-2.436.336-3.78 1.204V10.4h-2.1V30h2.1v-1.372c1.288 1.12 2.688 1.652 4.06 1.652Zm-4.06-3.976V19.78c1.12-.952 2.296-1.4 3.36-1.4 2.212 0 3.976 1.82 3.976 4.956 0 3.192-1.316 4.956-3.276 4.956-1.176 0-2.576-.644-4.06-1.988ZM156.892 30h2.1v-7.7c1.176-2.044 2.52-3.892 5.208-3.892.14 0 .28 0 .448.028v-1.904a2.707 2.707 0 0 0-.812-.112c-2.492 0-3.864 1.372-4.844 2.968V16.7h-2.1V30ZM170.724 30.28c1.428 0 2.968-.644 4.396-2.212V30h2.1v-7.504c0-4.368-2.044-6.076-4.788-6.076-2.016 0-4.368.924-6.244 2.408l1.288 1.512c1.372-1.176 3.024-1.96 4.508-1.96 1.316 0 2.38.616 2.856 2.184-6.636.952-8.792 3.248-8.792 5.348 0 2.268 2.128 4.368 4.676 4.368Zm-2.38-4.424c0-1.344 1.596-2.8 6.776-3.22v2.716c-1.288 2.184-2.8 2.968-4.06 2.968-1.54 0-2.716-1.204-2.716-2.464ZM185.816 30h1.96l5.796-13.3h-2.436l-4.34 10.612-4.34-10.612h-2.436zM199.648 30.28c1.428 0 2.968-.644 4.396-2.212V30h2.1v-7.504c0-4.368-2.044-6.076-4.788-6.076-2.016 0-4.368.924-6.244 2.408l1.288 1.512c1.372-1.176 3.024-1.96 4.508-1.96 1.316 0 2.38.616 2.856 2.184-6.636.952-8.792 3.248-8.792 5.348 0 2.268 2.128 4.368 4.676 4.368Zm-2.38-4.424c0-1.344 1.596-2.8 6.776-3.22v2.716c-1.288 2.184-2.8 2.968-4.06 2.968-1.54 0-2.716-1.204-2.716-2.464ZM215.496 30.28c1.372 0 2.772-.532 4.06-1.652V30h2.1V10.4h-2.1v7.224c-1.344-.868-2.632-1.204-3.78-1.204-3.528 0-5.852 3.388-5.852 6.916 0 4.424 2.632 6.944 5.572 6.944Zm-3.276-6.944c0-3.136 1.764-4.956 3.976-4.956 1.064 0 2.24.448 3.36 1.4v6.524c-1.484 1.344-2.884 1.988-4.06 1.988-1.96 0-3.276-1.764-3.276-4.956ZM231.904 30.28c4.312 0 6.44-3.472 6.44-6.944 0-3.444-2.128-6.916-6.44-6.916s-6.468 3.472-6.468 6.916c0 3.472 2.156 6.944 6.468 6.944Zm-4.172-6.944c0-2.464 1.4-4.928 4.172-4.928s4.144 2.464 4.144 4.928c0 2.492-1.372 4.956-4.144 4.956-2.772 0-4.172-2.464-4.172-4.956Z"/></g></svg>