<svg xmlns="http://www.w3.org/2000/svg" width="320" height="40"><g fill="#424345" fill-rule="nonzero"><path d="M10.916 29.3h2.1v-6.02h5.964v-1.988h-5.964V15.3h-2.1v5.992H4.98v1.988h5.936zM20.94 23.28h14v-1.988h-14zM39.644 27.956 43.9 23.7l4.256 4.256 1.4-1.428-4.228-4.256 4.228-4.228-1.428-1.4-4.228 4.228-4.228-4.228-1.428 1.4 4.228 4.256-4.228 4.228zM52.86 23.28h14v-1.988h-14v1.988Zm5.18-6.44c0 .868.672 1.54 1.568 1.54.84 0 1.512-.672 1.512-1.54s-.672-1.54-1.512-1.54c-.896 0-1.568.672-1.568 1.54Zm.28 10.892c0 .868.672 1.54 1.568 1.54.84 0 1.512-.672 1.512-1.54s-.672-1.54-1.512-1.54c-.896 0-1.568.672-1.568 1.54ZM68.82 20.284h14v-1.988h-14v1.988Zm0 5.992h14v-1.988h-14v1.988ZM84.78 20.312h6.776l-2.072 4.004H84.78v1.988h3.668L86.88 29.3h2.52l1.568-2.996h7.812v-1.988h-6.776l2.072-4.004h4.704v-1.988h-3.668L96.68 15.3h-2.52l-1.568 3.024H84.78zM113.284 30l-8.036-7.056L113.284 16h-2.996l-8.092 6.972 8.12 7.028zM118.156 30h2.968l8.12-7.028L121.152 16h-2.996l8.036 6.944zM132.66 29.552h14v-1.988h-14v1.988Zm0-8.988h5.992v5.04h1.988v-5.04h6.02v-1.988h-6.02v-5.012h-1.988v5.012h-5.992v1.988ZM161.164 27.564l-8.036-7.056 8.036-6.944h-2.996l-8.092 6.972 8.12 7.028h2.968Zm-11.088 3.976h11.088v-1.988h-11.088v1.988ZM166.036 27.564h2.968l8.12-7.028-8.092-6.972h-2.996l8.036 6.944-8.036 7.056Zm0 3.976h11.088v-1.988h-11.088v1.988ZM183.088 30h2.408l12.852-18.9h-2.408L183.088 30Zm-2.128-14.924c0 2.828 1.96 4.228 3.92 4.228s3.92-1.4 3.92-4.228c0-2.856-1.96-4.256-3.92-4.256s-3.92 1.4-3.92 4.256Zm2.1 0c0-1.344.7-2.38 1.82-2.38 1.148 0 1.82 1.036 1.82 2.38 0 1.428-.672 2.352-1.82 2.352-1.148 0-1.82-.924-1.82-2.352Zm9.548 10.976c0 2.828 1.96 4.228 3.92 4.228s3.92-1.4 3.92-4.228c0-2.856-1.96-4.256-3.92-4.256s-3.92 1.4-3.92 4.256Zm2.1 0c0-1.344.7-2.38 1.82-2.38 1.148 0 1.82 1.036 1.82 2.38 0 1.428-.672 2.352-1.82 2.352-1.148 0-1.82-.924-1.82-2.352ZM205.376 30h2.408l12.852-18.9h-2.408L205.376 30Zm-2.128-14.924c0 2.828 1.96 4.228 3.92 4.228s3.92-1.4 3.92-4.228c0-2.856-1.96-4.256-3.92-4.256s-3.92 1.4-3.92 4.256Zm2.1 0c0-1.344.7-2.38 1.82-2.38 1.148 0 1.82 1.036 1.82 2.38 0 1.428-.672 2.352-1.82 2.352-1.148 0-1.82-.924-1.82-2.352Zm9.548 10.976c0 2.828 1.96 4.228 3.92 4.228s3.92-1.4 3.92-4.228c0-2.856-1.96-4.256-3.92-4.256s-3.92 1.4-3.92 4.256Zm2.1 0c0-1.344.7-2.38 1.82-2.38 1.148 0 1.82 1.036 1.82 2.38 0 1.428-.672 2.352-1.82 2.352-1.148 0-1.82-.924-1.82-2.352Zm7.14 0c0 2.828 1.96 4.228 3.92 4.228s3.92-1.4 3.92-4.228c0-2.856-1.96-4.256-3.92-4.256s-3.92 1.4-3.92 4.256Zm2.1 0c0-1.344.7-2.38 1.82-2.38 1.148 0 1.82 1.036 1.82 2.38 0 1.428-.672 2.352-1.82 2.352-1.148 0-1.82-.924-1.82-2.352Z"/></g></svg>