<svg xmlns="http://www.w3.org/2000/svg" width="320" height="40"><g fill="#424345" fill-rule="nonzero"><path d="M9.972 30.28c1.372 0 2.772-.532 4.06-1.652V30h2.1V10.4h-2.1v7.224c-1.344-.868-2.632-1.204-3.78-1.204-3.528 0-5.852 3.388-5.852 6.916 0 4.424 2.632 6.944 5.572 6.944Zm-3.276-6.944c0-3.136 1.764-4.956 3.976-4.956 1.064 0 2.24.448 3.36 1.4v6.524c-1.484 1.344-2.884 1.988-4.06 1.988-1.96 0-3.276-1.764-3.276-4.956ZM25.82 30.28c1.764 0 3.5-.616 5.376-1.624l-1.008-1.708c-1.512.84-2.94 1.344-4.172 1.344-1.988 0-3.444-1.288-3.752-3.78h9.52v-.868c0-4.844-2.968-7.224-5.936-7.224s-5.936 2.212-5.936 7.056c0 4.648 2.604 6.804 5.908 6.804Zm-3.556-7.756c.308-2.8 1.988-4.116 3.696-4.116 1.68 0 3.36 1.372 3.78 4.116h-7.476ZM35.144 30h2.1V10.4h-2.1zM46.932 30.28c1.764 0 3.5-.616 5.376-1.624L51.3 26.948c-1.512.84-2.94 1.344-4.172 1.344-1.988 0-3.444-1.288-3.752-3.78h9.52v-.868c0-4.844-2.968-7.224-5.936-7.224s-5.936 2.212-5.936 7.056c0 4.648 2.604 6.804 5.908 6.804Zm-3.556-7.756c.308-2.8 1.988-4.116 3.696-4.116 1.68 0 3.36 1.372 3.78 4.116h-7.476ZM62.136 36.44c2.744 0 4.872-1.708 4.872-6.076V16.7h-2.1v1.932c-1.372-1.54-2.884-2.212-4.284-2.212-2.884 0-5.348 2.66-5.348 7.28 0 4.984 2.8 6.58 5.544 6.58 1.484 0 2.8-.98 4.088-2.548V30c0 3.248-1.232 4.396-3.08 4.396-1.484 0-3.22-.812-4.592-1.988l-1.288 1.624c1.876 1.484 4.172 2.408 6.188 2.408Zm-4.564-13.076c0-2.716 1.176-4.956 3.052-4.956 1.512 0 2.688.84 4.284 3.08v3.752c-1.596 2.24-2.744 3.052-4.06 3.052-1.792 0-3.276-1.596-3.276-4.928ZM75.94 30.28c1.372 0 2.8-.56 4.06-1.736V30h2.1V16.7H80v1.932c-1.372-1.54-2.884-2.212-4.284-2.212-2.884 0-5.348 2.688-5.348 7 0 4.2 2.604 6.86 5.572 6.86Zm-3.276-7.028c0-2.576 1.176-4.844 3.052-4.844 1.512 0 2.688.84 4.284 3.08v4.704c-1.428 1.4-2.856 2.1-4.088 2.1-1.904 0-3.248-1.652-3.248-5.04ZM91.004 30.28c1.316 0 2.744-.84 4.032-2.408l-1.288-1.512c-1.092 1.26-2.128 1.932-2.94 1.932-.952 0-1.428-.924-1.428-2.912v-6.692h4.368V16.7H89.38v-2.8h-2.1v2.8h-1.96v1.988h1.96v7.42c0 2.912 1.68 4.172 3.724 4.172ZM97.836 30h2.1V16.7h-2.1V30Zm-.476-17.64c0 .98.756 1.484 1.54 1.484.756 0 1.54-.504 1.54-1.484s-.784-1.484-1.54-1.484c-.784 0-1.54.504-1.54 1.484ZM110.184 30.28c4.312 0 6.44-3.472 6.44-6.944 0-3.444-2.128-6.916-6.44-6.916s-6.468 3.472-6.468 6.916c0 3.472 2.156 6.944 6.468 6.944Zm-4.172-6.944c0-2.464 1.4-4.928 4.172-4.928s4.144 2.464 4.144 4.928c0 2.492-1.372 4.956-4.144 4.956-2.772 0-4.172-2.464-4.172-4.956ZM120.404 30h2.1v-9.548c1.932-1.288 3.696-2.044 4.956-2.044 1.372 0 2.184.924 2.184 3.164V30h2.1v-8.82c0-3.416-1.876-4.76-4.256-4.76-1.568 0-3.388.84-4.984 1.848V16.7h-2.1V30ZM151.904 28.908l5.18-6.272-5.152-6.216h-2.548l4.396 5.264h-11.816v1.988h11.732l-4.312 5.236zM172.972 30.28c1.372 0 2.772-.532 4.06-1.652V30h2.1V10.4h-2.1v7.224c-1.344-.868-2.632-1.204-3.78-1.204-3.528 0-5.852 3.388-5.852 6.916 0 4.424 2.632 6.944 5.572 6.944Zm-3.276-6.944c0-3.136 1.764-4.956 3.976-4.956 1.064 0 2.24.448 3.36 1.4v6.524c-1.484 1.344-2.884 1.988-4.06 1.988-1.96 0-3.276-1.764-3.276-4.956ZM188.82 30.28c1.764 0 3.5-.616 5.376-1.624l-1.008-1.708c-1.512.84-2.94 1.344-4.172 1.344-1.988 0-3.444-1.288-3.752-3.78h9.52v-.868c0-4.844-2.968-7.224-5.936-7.224s-5.936 2.212-5.936 7.056c0 4.648 2.604 6.804 5.908 6.804Zm-3.556-7.756c.308-2.8 1.988-4.116 3.696-4.116 1.68 0 3.36 1.372 3.78 4.116h-7.476ZM198.144 30h2.1V10.4h-2.1zM209.932 30.28c1.764 0 3.5-.616 5.376-1.624l-1.008-1.708c-1.512.84-2.94 1.344-4.172 1.344-1.988 0-3.444-1.288-3.752-3.78h9.52v-.868c0-4.844-2.968-7.224-5.936-7.224s-5.936 2.212-5.936 7.056c0 4.648 2.604 6.804 5.908 6.804Zm-3.556-7.756c.308-2.8 1.988-4.116 3.696-4.116 1.68 0 3.36 1.372 3.78 4.116h-7.476ZM224.716 27.62c4.424 0 6.244-2.8 6.244-5.6 0-1.288-.392-2.604-1.26-3.612h3.276V16.42h-8.26c-4.424 0-6.216 2.8-6.216 5.6 0 1.512.532 3.024 1.68 4.088-.7.504-1.68 1.82-1.68 2.716 0 2.24 1.988 3.192 5.992 3.192 2.8 0 4.172.14 4.172 1.232 0 .896-1.54 1.232-3.276 1.232-1.68 0-3.528-.308-4.396-.644l-.868 1.904c1.092.392 2.968.7 4.844.7 3.5 0 5.992-.952 5.992-3.22 0-2.24-2.492-3.192-5.992-3.192-2.8 0-4.172-.14-4.172-1.232 0-.476.42-1.12 1.148-1.624.756.28 1.68.448 2.772.448Zm-3.92-5.628c0-2.408 1.96-3.584 3.948-3.584 1.96 0 3.92 1.176 3.92 3.584 0 1.82-1.288 3.64-3.92 3.64-2.632 0-3.948-1.82-3.948-3.64ZM239.528 30.28c1.372 0 2.8-.56 4.06-1.736V30h2.1V16.7h-2.1v1.932c-1.372-1.54-2.884-2.212-4.284-2.212-2.884 0-5.348 2.688-5.348 7 0 4.2 2.604 6.86 5.572 6.86Zm-3.276-7.028c0-2.576 1.176-4.844 3.052-4.844 1.512 0 2.688.84 4.284 3.08v4.704c-1.428 1.4-2.856 2.1-4.088 2.1-1.904 0-3.248-1.652-3.248-5.04ZM254.592 30.28c1.316 0 2.744-.84 4.032-2.408l-1.288-1.512c-1.092 1.26-2.128 1.932-2.94 1.932-.952 0-1.428-.924-1.428-2.912v-6.692h4.368V16.7h-4.368v-2.8h-2.1v2.8h-1.96v1.988h1.96v7.42c0 2.912 1.68 4.172 3.724 4.172ZM261.424 30h2.1V16.7h-2.1V30Zm-.476-17.64c0 .98.756 1.484 1.54 1.484.756 0 1.54-.504 1.54-1.484s-.784-1.484-1.54-1.484c-.784 0-1.54.504-1.54 1.484ZM273.772 30.28c4.312 0 6.44-3.472 6.44-6.944 0-3.444-2.128-6.916-6.44-6.916s-6.468 3.472-6.468 6.916c0 3.472 2.156 6.944 6.468 6.944Zm-4.172-6.944c0-2.464 1.4-4.928 4.172-4.928s4.144 2.464 4.144 4.928c0 2.492-1.372 4.956-4.144 4.956-2.772 0-4.172-2.464-4.172-4.956ZM283.992 30h2.1v-9.548c1.932-1.288 3.696-2.044 4.956-2.044 1.372 0 2.184.924 2.184 3.164V30h2.1v-8.82c0-3.416-1.876-4.76-4.256-4.76-1.568 0-3.388.84-4.984 1.848V16.7h-2.1V30Z"/></g></svg>