<svg xmlns="http://www.w3.org/2000/svg" width="320" height="40"><g fill="#424345" fill-rule="nonzero"><path d="M12.54 30.28c3.584 0 7.14-2.324 7.14-6.944 0-3.444-2.38-6.916-7.14-6.916S5.4 19.892 5.4 23.336c0 4.62 3.584 6.944 7.14 6.944Zm-4.844-6.944c0-2.464 1.624-4.928 4.844-4.928 3.248 0 4.844 2.464 4.844 4.928 0 2.492-1.596 4.956-4.844 4.956-3.22 0-4.844-2.464-4.844-4.956ZM27.492 30h2.24V16.42h-2.24L21.5 22.048l1.512 1.68 4.48-4.2zM34.492 28.488V30h12.18v-2.1h-9.716c.224-1.372 1.12-1.932 4.592-3.136 2.548-.896 5.18-1.848 5.18-4.2 0-2.828-1.988-4.144-5.32-4.144-2.212 0-4.704.924-6.916 2.52l.952 2.016c1.904-1.372 4.34-2.436 6.16-2.436 1.624 0 2.828.588 2.828 1.904 0 .868-.924 1.54-3.332 2.38-5.376 1.876-6.608 3.472-6.608 5.684ZM55.24 35.88c4.088 0 6.356-2.548 6.356-5.18 0-1.792-1.092-3.668-3.444-4.76 1.82-1.092 2.716-2.8 2.716-4.508 0-3.444-2.576-5.012-5.712-5.012-1.96 0-4.088.588-5.964 1.736l.98 2.044c1.68-.98 3.612-1.68 5.208-1.68 1.96 0 3.108 1.456 3.108 2.968 0 1.68-1.372 3.444-4.536 3.444v2.1c3.612 0 5.236 1.848 5.236 3.612 0 1.596-1.344 3.136-3.836 3.136-1.568 0-3.388-.728-5.012-1.596l-.98 2.072c1.82 1.036 3.92 1.624 5.88 1.624ZM72.236 36.16h2.24V30h1.96v-2.1h-1.96V16.7h-2.24l-8.12 11.2V30h8.12v6.16Zm-5.488-8.26 5.488-7.504V27.9h-5.488ZM84.78 35.852c4.088 0 6.132-3.248 6.132-6.468 0-3.248-2.044-6.468-5.908-6.468-1.344 0-2.52.504-3.724 1.4v-5.544h8.624v-2.1H79.068v9.632l2.212.868c1.372-1.428 2.324-2.128 3.64-2.128 2.296 0 3.612 2.212 3.612 4.396 0 2.156-1.288 4.312-3.864 4.312-1.512 0-3.22-.98-5.208-2.38l-1.064 2.044c2.268 1.624 4.2 2.436 6.384 2.436ZM100.488 30.28c3.808 0 5.992-3.108 5.992-6.384 0-4.172-2.856-6.384-5.88-6.384-1.596 0-3.052.672-4.228 1.82 1.008-4.592 4.228-5.824 6.776-6.44l-.728-2.072c-5.6 1.652-8.708 5.012-8.708 11.48 0 4.116 1.708 7.98 6.776 7.98Zm-4.312-6.356c0-2.212 1.512-4.256 3.976-4.256 2.576 0 3.948 2.044 3.948 4.256s-1.372 4.256-3.948 4.256c-2.464 0-3.976-2.044-3.976-4.256ZM111.548 36.16h2.296l7.28-19.46H109.42v2.1h8.596zM131.204 30.28c3.36 0 6.72-1.596 6.72-4.732 0-2.324-1.876-3.724-4.284-5.208 2.016-1.624 3.108-2.8 3.108-4.732 0-2.52-2.044-4.788-5.544-4.788-3.5 0-5.46 2.268-5.46 4.788 0 1.904 1.008 3.108 2.996 4.704-2.576 1.484-4.256 2.912-4.256 5.236 0 3.136 3.36 4.732 6.72 4.732Zm-4.368-4.732c0-1.54 1.484-2.996 4.368-4.256 2.884 1.26 4.368 2.716 4.368 4.256 0 1.764-2.128 2.632-4.256 2.632-2.212 0-4.48-.924-4.48-2.632Zm1.204-9.94c0-1.26 1.26-2.688 3.164-2.688 1.904 0 3.248 1.428 3.248 2.688 0 2.1-1.344 2.856-3.248 3.892-1.904-1.036-3.164-1.792-3.164-3.892ZM142.516 33.808l.728 2.072c7.168-1.652 9.632-5.012 9.632-11.48 0-4.116-1.652-7.98-6.72-7.98-3.808 0-5.992 3.108-5.992 6.384 0 4.172 2.856 6.384 5.88 6.384 1.736 0 3.276-.784 4.508-2.1-.448 4.368-4.312 6.048-8.036 6.72Zm.028-11.032c0-2.212 1.372-4.256 3.948-4.256 2.464 0 3.976 2.044 3.976 4.256s-1.512 4.256-3.976 4.256c-2.576 0-3.948-2.044-3.948-4.256Z"/></g></svg>