<svg xmlns="http://www.w3.org/2000/svg" width="320" height="40"><g fill="#424345" fill-rule="nonzero"><path d="M11.064 30.28c4.088 0 6.132-3.248 6.132-6.468 0-3.248-2.044-6.468-6.104-6.468-1.4 0-2.884.448-4.2 1.4V13.2h9.296v-2.1H4.68v9.632l2.212.868c1.372-1.512 2.744-2.128 3.948-2.128 2.66 0 3.976 2.212 3.976 4.396 0 2.156-1.288 4.312-3.864 4.312-1.764 0-3.892-1.12-5.88-2.38l-.952 2.016c2.268 1.624 4.76 2.464 6.944 2.464ZM20.808 27.9V30h12.18v-2.1h-9.744c.28-3.052 2.688-4.564 5.04-6.02 2.408-1.484 4.76-3.136 4.76-6.188 0-2.408-1.988-4.872-5.32-4.872-2.212 0-4.704.924-6.916 2.52l.952 2.016c1.904-1.372 4.34-2.436 6.16-2.436 1.596 0 2.744.784 2.744 2.884 0 2.044-1.932 3.444-4.116 4.844-2.716 1.736-5.74 3.724-5.74 7.252ZM39.764 19.304c1.96 0 3.92-1.4 3.92-4.228 0-2.856-1.96-4.256-3.92-4.256s-3.92 1.4-3.92 4.256c0 2.828 1.96 4.228 3.92 4.228Zm-1.82-4.228c0-1.344.7-2.38 1.82-2.38 1.148 0 1.82 1.036 1.82 2.38 0 1.428-.672 2.352-1.82 2.352-1.148 0-1.82-.924-1.82-2.352ZM54.996 30h2.24v-4.48h1.96v-2.1h-1.96V11.1h-2.24l-8.792 12.32v2.1h8.792V30Zm-6.16-6.58 6.16-8.596v8.596h-6.16ZM68.324 30.28c4.088 0 6.356-2.548 6.356-5.18 0-1.792-1.092-3.668-3.444-4.76 1.82-1.092 2.716-2.8 2.716-4.508 0-3.444-2.576-5.012-5.712-5.012-2.352 0-4.984.868-7.084 2.492l.952 2.016c1.876-1.344 4.396-2.408 6.356-2.408s3.108 1.456 3.108 2.968c0 1.68-1.372 3.444-4.536 3.444v2.1c3.612 0 5.236 1.848 5.236 3.612 0 1.596-1.344 3.136-3.836 3.136-2.016 0-4.452-1.204-6.328-2.38l-.952 2.016c2.044 1.568 4.732 2.464 7.168 2.464ZM77.984 16.308h1.54c.952-1.736 1.288-3.052 1.288-4.032 0-1.512-.84-2.156-1.68-2.156-.896 0-1.568.672-1.568 1.54s.672 1.54 1.568 1.54h.056c-.168.84-.532 1.876-1.204 3.108ZM84.732 27.9V30h12.18v-2.1h-9.744c.28-3.052 2.688-4.564 5.04-6.02 2.408-1.484 4.76-3.136 4.76-6.188 0-2.408-1.988-4.872-5.32-4.872-2.212 0-4.704.924-6.916 2.52l.952 2.016c1.904-1.372 4.34-2.436 6.16-2.436 1.596 0 2.744.784 2.744 2.884 0 2.044-1.932 3.444-4.116 4.844-2.716 1.736-5.74 3.724-5.74 7.252ZM102.12 28.208l.728 2.072c7.168-1.652 9.632-5.012 9.632-11.48 0-4.116-1.652-7.98-6.72-7.98-3.808 0-5.992 3.108-5.992 6.384 0 4.172 2.856 6.384 5.88 6.384 1.736 0 3.276-.784 4.508-2.1-.448 4.368-4.312 6.048-8.036 6.72Zm.028-11.032c0-2.212 1.372-4.256 3.948-4.256 2.464 0 3.976 2.044 3.976 4.256s-1.512 4.256-3.976 4.256c-2.576 0-3.948-2.044-3.948-4.256ZM116.988 30.28c.84 0 1.512-.672 1.512-1.54s-.672-1.54-1.512-1.54c-.896 0-1.568.672-1.568 1.54s.672 1.54 1.568 1.54ZM128.552 30.28c4.536 0 7.168-4.06 7.168-9.716 0-5.628-2.632-9.744-7.168-9.744s-7.112 4.116-7.112 9.744c0 5.656 2.576 9.716 7.112 9.716Zm-4.816-9.716c0-4.62 1.848-7.644 4.844-7.644 2.996 0 4.844 3.024 4.844 7.644 0 4.648-1.848 7.616-4.844 7.616-2.996 0-4.844-2.968-4.844-7.616ZM139.36 27.9V30h12.18v-2.1h-9.744c.28-3.052 2.688-4.564 5.04-6.02 2.408-1.484 4.76-3.136 4.76-6.188 0-2.408-1.988-4.872-5.32-4.872-2.212 0-4.704.924-6.916 2.52l.952 2.016c1.904-1.372 4.34-2.436 6.16-2.436 1.596 0 2.744.784 2.744 2.884 0 2.044-1.932 3.444-4.116 4.844-2.716 1.736-5.74 3.724-5.74 7.252ZM160.556 30.28c3.36 0 6.72-1.596 6.72-4.732 0-2.324-1.876-3.724-4.284-5.208 2.016-1.624 3.108-2.8 3.108-4.732 0-2.52-2.044-4.788-5.544-4.788-3.5 0-5.46 2.268-5.46 4.788 0 1.904 1.008 3.108 2.996 4.704-2.576 1.484-4.256 2.912-4.256 5.236 0 3.136 3.36 4.732 6.72 4.732Zm-4.368-4.732c0-1.54 1.484-2.996 4.368-4.256 2.884 1.26 4.368 2.716 4.368 4.256 0 1.764-2.128 2.632-4.256 2.632-2.212 0-4.48-.924-4.48-2.632Zm1.204-9.94c0-1.26 1.26-2.688 3.164-2.688 1.904 0 3.248 1.428 3.248 2.688 0 2.1-1.344 2.856-3.248 3.892-1.904-1.036-3.164-1.792-3.164-3.892ZM170.216 16.308h1.54c.952-1.736 1.288-3.052 1.288-4.032 0-1.512-.84-2.156-1.68-2.156-.896 0-1.568.672-1.568 1.54s.672 1.54 1.568 1.54h.056c-.168.84-.532 1.876-1.204 3.108Zm4.2-4.648c0 .868.672 1.54 1.568 1.54h.056c-.168.84-.532 1.876-1.204 3.108h1.54c.952-1.736 1.288-3.052 1.288-4.032 0-1.512-.84-2.156-1.68-2.156-.896 0-1.568.672-1.568 1.54ZM181.864 30h2.24V14.964L195.108 30h2.212V11.1h-2.24v15.036L184.104 11.1h-2.24z"/></g></svg>