<svg xmlns="http://www.w3.org/2000/svg" width="320" height="40"><g fill="#424345" fill-rule="nonzero"><path d="M12.092 30.28c1.484 0 2.968-.476 4.172-1.456l-1.26-1.54c-1.008.672-2.072 1.008-3.08 1.008-2.828 0-4.228-2.464-4.228-4.928s1.428-4.956 4.312-4.956c1.036 0 2.184.364 3.304 1.176l1.148-1.512c-1.26-1.036-2.8-1.652-4.368-1.652-4.452 0-6.692 3.472-6.692 6.916 0 3.472 2.24 6.944 6.692 6.944ZM25.028 30.28c4.312 0 6.44-3.472 6.44-6.944 0-3.444-2.128-6.916-6.44-6.916s-6.468 3.472-6.468 6.916c0 3.472 2.156 6.944 6.468 6.944Zm-4.172-6.944c0-2.464 1.4-4.928 4.172-4.928s4.144 2.464 4.144 4.928c0 2.492-1.372 4.956-4.144 4.956-2.772 0-4.172-2.464-4.172-4.956ZM35.248 30h2.1v-9.548c1.932-1.288 3.696-2.044 4.956-2.044 1.372 0 2.184.924 2.184 3.164V30h2.1v-8.82c0-3.416-1.876-4.76-4.256-4.76-1.568 0-3.388.84-4.984 1.848V16.7h-2.1V30ZM54.932 30.28c1.316 0 2.744-.84 4.032-2.408l-1.288-1.512c-1.092 1.26-2.128 1.932-2.94 1.932-.952 0-1.428-.924-1.428-2.912v-6.692h4.368V16.7h-4.368v-2.8h-2.1v2.8h-1.96v1.988h1.96v7.42c0 2.912 1.68 4.172 3.724 4.172ZM61.764 30h2.1v-7.7c1.176-2.044 2.52-3.892 5.208-3.892.14 0 .28 0 .448.028v-1.904a2.707 2.707 0 0 0-.812-.112c-2.492 0-3.864 1.372-4.844 2.968V16.7h-2.1V30ZM76.912 30.28c1.372 0 2.8-.56 4.06-1.736V30h2.1V16.7h-2.1v1.932c-1.372-1.54-2.884-2.212-4.284-2.212-2.884 0-5.348 2.688-5.348 7 0 4.2 2.604 6.86 5.572 6.86Zm-3.276-7.028c0-2.576 1.176-4.844 3.052-4.844 1.512 0 2.688.84 4.284 3.08v4.704c-1.428 1.4-2.856 2.1-4.088 2.1-1.904 0-3.248-1.652-3.248-5.04ZM92.424 30.28c2.688 0 4.088-1.988 4.088-3.752 0-2.884-2.66-3.92-4.788-4.732-1.456-.56-2.66-1.036-2.66-1.932 0-.84.644-1.484 1.82-1.484 1.288 0 2.996.7 4.396 2.016l1.288-1.54c-1.792-1.512-3.668-2.408-5.628-2.408-1.848 0-4.116 1.092-4.116 3.612 0 1.932 1.372 2.884 4.312 3.92 2.352.84 3.136 1.792 3.136 2.604 0 1.204-.728 1.708-1.736 1.708-1.4 0-3.332-.896-4.816-2.016l-1.288 1.568c1.988 1.68 4.172 2.436 5.992 2.436ZM104.072 30.28c1.316 0 2.744-.84 4.032-2.408l-1.288-1.512c-1.092 1.26-2.128 1.932-2.94 1.932-.952 0-1.428-.924-1.428-2.912v-6.692h4.368V16.7h-4.368v-2.8h-2.1v2.8h-1.96v1.988h1.96v7.42c0 2.912 1.68 4.172 3.724 4.172ZM126.864 28.908l5.18-6.272-5.152-6.216h-2.548l4.396 5.264h-11.816v1.988h11.732l-4.312 5.236zM151.136 30.28c2.436 0 4.676-.812 6.3-2.1l-1.26-1.848c-1.456 1.232-3.416 1.848-5.208 1.848-4.144 0-6.188-2.8-6.188-5.544 0-2.744 2.044-5.516 6.16-5.516 1.792 0 3.78.672 5.236 1.848l1.26-1.848c-1.624-1.288-3.864-2.1-6.3-2.1-5.684 0-8.736 3.388-8.736 7.616 0 4.256 3.052 7.644 8.736 7.644ZM167.908 30.28c5.6 0 8.372-3.864 8.372-7.672 0-3.78-2.772-7.588-8.372-7.588-5.544 0-8.316 3.808-8.316 7.588 0 3.808 2.772 7.672 8.316 7.672Zm-5.936-7.644c0-2.772 1.988-5.544 5.964-5.544 3.976 0 5.964 2.772 5.964 5.544s-1.988 5.544-5.964 5.544c-3.976 0-5.964-2.772-5.964-5.544ZM180.06 30h2.24V18.8l9.52 11.2h2.156V15.3h-2.24v11.172L182.272 15.3h-2.212zM202.432 30h2.38V17.4h5.18v-2.1h-12.74v2.1h5.18zM222.34 30h2.688l-3.864-5.656c2.744-.392 4.116-2.436 4.116-4.508 0-2.268-1.68-4.536-5.04-4.536h-6.972V30h2.24v-5.6h2.968l3.864 5.6Zm-6.832-7.7v-4.9h4.648c1.82 0 2.744 1.232 2.744 2.436 0 1.232-.924 2.464-2.744 2.464h-4.648ZM226.932 30h2.604l1.652-3.052h7.616L240.456 30h2.604l-7.868-14.7h-.364L226.932 30Zm5.376-5.124 2.688-5.012 2.688 5.012h-5.376ZM252.3 30.28c2.884 0 5.292-1.148 5.292-3.78 0-2.828-2.94-3.892-5.628-4.816-2.24-.756-4.34-1.54-4.34-3.248 0-.952.868-1.344 2.128-1.344 1.988 0 4.872.924 6.468 1.96l1.232-1.932c-2.156-1.344-4.872-2.1-7.168-2.1-2.8 0-5.068 1.12-5.068 3.612 0 3.024 3.248 4.116 6.048 5.04 2.128.7 3.976 1.344 3.976 2.632 0 1.344-1.344 1.904-3.024 1.904-2.016 0-4.564-.784-5.908-1.932l-1.344 1.624c1.932 1.484 4.816 2.38 7.336 2.38ZM264.676 30h2.38V17.4h5.18v-2.1h-12.74v2.1h5.18z"/></g></svg>