<svg xmlns="http://www.w3.org/2000/svg" width="320" height="40"><g fill="#424345" fill-rule="nonzero"><path d="M7.76 32.996H10c-2.24-4.144-3.36-8.288-3.36-12.432S7.76 12.276 10 8.132H7.76C5.52 12.276 4.4 16.42 4.4 20.564s1.12 8.288 3.36 12.432ZM13.64 30h2.856l5.936-7.616L28.34 30h2.856l-7.336-9.464 7.336-9.436H28.34l-5.908 7.588-5.88-7.588h-2.856l7.308 9.436zM34.836 32.996h2.24c2.24-4.144 3.36-8.288 3.36-12.432s-1.12-8.288-3.36-12.432h-2.24c2.24 4.144 3.36 8.288 3.36 12.432s-1.12 8.288-3.36 12.432ZM50.236 32.996h7.14v-2.1h-4.9V10.232h4.9v-2.1h-7.14zM67.148 30.28c1.372 0 2.8-.56 4.06-1.736V30h2.1V16.7h-2.1v1.932c-1.372-1.54-2.884-2.212-4.284-2.212-2.884 0-5.348 2.688-5.348 7 0 4.2 2.604 6.86 5.572 6.86Zm-3.276-7.028c0-2.576 1.176-4.844 3.052-4.844 1.512 0 2.688.84 4.284 3.08v4.704c-1.428 1.4-2.856 2.1-4.088 2.1-1.904 0-3.248-1.652-3.248-5.04ZM82.604 29.3h2.1v-6.02h5.964v-1.988h-5.964V15.3h-2.1v5.992h-5.936v1.988h5.936zM100.188 30.28c2.94 0 5.572-2.52 5.572-6.944 0-3.528-2.324-6.916-5.852-6.916-1.148 0-2.436.336-3.78 1.204V10.4h-2.1V30h2.1v-1.372c1.288 1.12 2.688 1.652 4.06 1.652Zm-4.06-3.976V19.78c1.12-.952 2.296-1.4 3.36-1.4 2.212 0 3.976 1.82 3.976 4.956 0 3.192-1.316 4.956-3.276 4.956-1.176 0-2.576-.644-4.06-1.988ZM117.1 32.996V8.132h-7.14v2.1h4.9v20.664h-4.9v2.1zM132.248 32.996h1.96v-2.1h-.896c-1.064 0-1.512-.392-1.512-2.38 0-.448.028-1.064.028-1.764 0-2.184-.28-5.18-2.044-6.188 1.764-1.008 2.044-4.004 2.044-6.188 0-.7-.028-1.316-.028-1.764 0-1.988.448-2.38 1.512-2.38h.896v-2.1h-1.96c-1.484 0-2.716.532-2.716 2.912 0 .532.028 1.26.028 2.1 0 2.632-.28 6.244-2.66 7.42 2.38 1.176 2.66 4.788 2.66 7.42 0 .84-.028 1.568-.028 2.1 0 2.38 1.232 2.912 2.716 2.912ZM145.072 30.28c4.088 0 6.132-3.248 6.132-6.468 0-3.248-2.044-6.468-6.104-6.468-1.4 0-2.884.448-4.2 1.4V13.2h9.296v-2.1h-11.508v9.632l2.212.868c1.372-1.512 2.744-2.128 3.948-2.128 2.66 0 3.976 2.212 3.976 4.396 0 2.156-1.288 4.312-3.864 4.312-1.764 0-3.892-1.12-5.88-2.38l-.952 2.016c2.268 1.624 4.76 2.464 6.944 2.464ZM154.676 33.388h1.54c.952-1.736 1.288-3.052 1.288-4.032 0-1.512-.84-2.156-1.68-2.156-.896 0-1.568.672-1.568 1.54s.672 1.54 1.568 1.54h.056c-.168.84-.532 1.876-1.204 3.108ZM173.94 30.28c3.808 0 5.992-3.108 5.992-6.384 0-4.172-2.856-6.384-5.88-6.384-1.596 0-3.052.672-4.228 1.82 1.008-4.592 4.228-5.824 6.776-6.44l-.728-2.072c-5.6 1.652-8.708 5.012-8.708 11.48 0 4.116 1.708 7.98 6.776 7.98Zm-4.312-6.356c0-2.212 1.512-4.256 3.976-4.256 2.576 0 3.948 2.044 3.948 4.256s-1.372 4.256-3.948 4.256c-2.464 0-3.976-2.044-3.976-4.256ZM183.432 33.388h1.54c.952-1.736 1.288-3.052 1.288-4.032 0-1.512-.84-2.156-1.68-2.156-.896 0-1.568.672-1.568 1.54s.672 1.54 1.568 1.54h.056c-.168.84-.532 1.876-1.204 3.108ZM199.224 30h2.296l7.28-18.9h-12.74v2.1h9.632zM216.08 32.996c1.484 0 2.716-.532 2.716-2.912 0-.532-.028-1.26-.028-2.1 0-2.632.28-6.244 2.66-7.42-2.38-1.176-2.66-4.788-2.66-7.42 0-.84.028-1.568.028-2.1 0-2.38-1.232-2.912-2.716-2.912h-1.96v2.1h.896c1.064 0 1.512.392 1.512 2.38 0 .448-.028 1.064-.028 1.764 0 2.184.28 5.18 2.044 6.188-1.764 1.008-2.044 4.004-2.044 6.188 0 .7.028 1.316.028 1.764 0 1.988-.448 2.38-1.512 2.38h-.896v2.1h1.96Z"/></g></svg>