<svg xmlns="http://www.w3.org/2000/svg" width="320" height="40"><g fill="#424345" fill-rule="nonzero"><path d="M5.176 20.06v2.52l5.236-4.312V30H12.4V18.184l5.264 4.396v-2.548l-6.216-5.152zM39.364 16.756h-9.716v1.96h6.412l-8.372 8.344 1.428 1.4 8.26-8.26v6.468h1.988zM59.104 28.908l5.18-6.272-5.152-6.216h-2.548l4.396 5.264H49.164v1.988h11.732l-4.312 5.236zM85.76 28.124v-9.912h-1.988v6.468l-8.26-8.26-1.428 1.4 8.372 8.344h-6.412v1.96zM95.336 24.82l6.272 5.18 6.216-5.152V22.3l-5.264 4.396V14.88h-1.988v11.732L95.336 22.3zM117.848 28.292h9.716v-1.96h-6.412l8.372-8.344-1.428-1.4-8.26 8.26V18.38h-1.988zM144.504 28.684h2.52l-4.312-5.236h11.732V21.46h-11.816l4.396-5.264h-2.548l-5.152 6.216zM164.244 16.588V26.5h1.988v-6.468l8.26 8.26 1.428-1.4-8.372-8.344h6.412v-1.96zM190.9 28.46h2.52l-4.312-5.236h11.76l-4.312 5.236h2.52l5.18-6.272-5.152-6.216h-2.548l4.396 5.264h-11.928l4.396-5.264h-2.548l-5.152 6.216zM226.544 27.228v-2.52l-5.236 4.312V17.26l5.236 4.312v-2.52l-6.272-5.18-6.216 5.152v2.548l5.264-4.396v11.928l-5.264-4.396v2.548l6.216 5.152z"/></g></svg>