<svg xmlns="http://www.w3.org/2000/svg" width="320" height="40"><g fill="#424345" fill-rule="nonzero"><path d="M10.972 30.28c1.372 0 2.8-.56 4.06-1.736V30h2.1V16.7h-2.1v1.932c-1.372-1.54-2.884-2.212-4.284-2.212-2.884 0-5.348 2.688-5.348 7 0 4.2 2.604 6.86 5.572 6.86Zm-3.276-7.028c0-2.576 1.176-4.844 3.052-4.844 1.512 0 2.688.84 4.284 3.08v4.704c-1.428 1.4-2.856 2.1-4.088 2.1-1.904 0-3.248-1.652-3.248-5.04ZM22.312 14.46v2.24h-1.96v1.988h1.96V30h2.1V18.688h4.368V16.7h-4.368v-1.904c0-1.932.756-2.688 1.932-2.688.84 0 1.932.392 3.08 1.008l1.008-1.596c-1.26-.924-2.716-1.4-4.032-1.4-2.24 0-4.088 1.372-4.088 4.34ZM31.972 14.46v2.24h-1.96v1.988h1.96V30h2.1V18.688h4.368V16.7h-4.368v-1.904c0-1.932.756-2.688 1.932-2.688.84 0 1.932.392 3.08 1.008l1.008-1.596c-1.26-.924-2.716-1.4-4.032-1.4-2.24 0-4.088 1.372-4.088 4.34ZM41.212 30h2.1V10.4h-2.1zM51.768 30.28c1.568 0 3.388-.84 4.984-1.848V30h2.1V16.7h-2.1v9.548c-1.932 1.288-3.696 2.044-4.956 2.044-1.372 0-2.184-.924-2.184-3.164V16.7h-2.1v8.82c0 3.416 1.876 4.76 4.256 4.76ZM68.54 30.28c1.764 0 3.5-.616 5.376-1.624l-1.008-1.708c-1.512.84-2.94 1.344-4.172 1.344-1.988 0-3.444-1.288-3.752-3.78h9.52v-.868c0-4.844-2.968-7.224-5.936-7.224s-5.936 2.212-5.936 7.056c0 4.648 2.604 6.804 5.908 6.804Zm-3.556-7.756c.308-2.8 1.988-4.116 3.696-4.116 1.68 0 3.36 1.372 3.78 4.116h-7.476ZM77.864 30h2.1v-9.548c1.932-1.288 3.696-2.044 4.956-2.044 1.372 0 2.184.924 2.184 3.164V30h2.1v-8.82c0-3.416-1.876-4.76-4.256-4.76-1.568 0-3.388.84-4.984 1.848V16.7h-2.1V30ZM97.548 30.28c1.316 0 2.744-.84 4.032-2.408l-1.288-1.512c-1.092 1.26-2.128 1.932-2.94 1.932-.952 0-1.428-.924-1.428-2.912v-6.692h4.368V16.7h-4.368v-2.8h-2.1v2.8h-1.96v1.988h1.96v7.42c0 2.912 1.68 4.172 3.724 4.172ZM120.34 28.908l5.18-6.272-5.152-6.216h-2.548l4.396 5.264H110.4v1.988h11.732l-4.312 5.236zM140.972 30.28c1.372 0 2.8-.56 4.06-1.736V30h2.1V16.7h-2.1v1.932c-1.372-1.54-2.884-2.212-4.284-2.212-2.884 0-5.348 2.688-5.348 7 0 4.2 2.604 6.86 5.572 6.86Zm-3.276-7.028c0-2.576 1.176-4.844 3.052-4.844 1.512 0 2.688.84 4.284 3.08v4.704c-1.428 1.4-2.856 2.1-4.088 2.1-1.904 0-3.248-1.652-3.248-5.04ZM152.312 14.46v2.24h-1.96v1.988h1.96V36.16h2.1V18.688h4.368V16.7h-4.368v-1.904c0-1.932.756-2.688 1.932-2.688.84 0 1.932.392 3.08 1.008l1.008-1.596c-1.26-.924-2.716-1.4-4.032-1.4-2.24 0-4.088 1.372-4.088 4.34ZM162.056 14.46v2.24h-1.96v1.988h1.96V36.16h2.1V18.688h4.368V16.7h-4.368v-1.904c0-1.932.756-2.688 1.932-2.688.84 0 1.932.392 3.08 1.008l1.008-1.596c-1.26-.924-2.716-1.4-4.032-1.4-2.24 0-4.088 1.372-4.088 4.34ZM171.38 30h2.1V10.4h-2.1zM181.936 30.28c1.568 0 3.388-.84 4.984-1.848V30h2.1V16.7h-2.1v9.548c-1.932 1.288-3.696 2.044-4.956 2.044-1.372 0-2.184-.924-2.184-3.164V16.7h-2.1v8.82c0 3.416 1.876 4.76 4.256 4.76ZM198.708 30.28c1.764 0 3.5-.616 5.376-1.624l-1.008-1.708c-1.512.84-2.94 1.344-4.172 1.344-1.988 0-3.444-1.288-3.752-3.78h9.52v-.868c0-4.844-2.968-7.224-5.936-7.224s-5.936 2.212-5.936 7.056c0 4.648 2.604 6.804 5.908 6.804Zm-3.556-7.756c.308-2.8 1.988-4.116 3.696-4.116 1.68 0 3.36 1.372 3.78 4.116h-7.476ZM208.032 30h2.1v-9.548c1.932-1.288 3.696-2.044 4.956-2.044 1.372 0 2.184.924 2.184 3.164V30h2.1v-8.82c0-3.416-1.876-4.76-4.256-4.76-1.568 0-3.388.84-4.984 1.848V16.7h-2.1V30ZM227.716 30.28c1.316 0 2.744-.84 4.032-2.408l-1.288-1.512c-1.092 1.26-2.128 1.932-2.94 1.932-.952 0-1.428-.924-1.428-2.912v-6.692h4.368V16.7h-4.368v-2.8h-2.1v2.8h-1.96v1.988h1.96v7.42c0 2.912 1.68 4.172 3.724 4.172Z"/></g></svg>