<svg xmlns="http://www.w3.org/2000/svg" width="320" height="40"><g fill="#424345" fill-rule="nonzero"><path d="M10.44 30.28c2.744 0 4.928-1.372 6.608-3.192A7.515 7.515 0 0 1 18.7 30h2.352c-.42-1.876-1.428-3.332-2.716-4.536 1.316-1.848 2.212-3.892 2.716-5.348H18.7c-.588 1.596-1.26 2.94-1.988 4.032a46.579 46.579 0 0 0-2.632-1.708 34.967 34.967 0 0 1-2.492-1.652c1.82-1.512 3.444-3.248 3.444-5.516 0-1.932-1.428-4.452-4.452-4.452-3.052 0-4.452 2.52-4.452 4.452 0 2.324 1.008 4.06 2.492 5.516-2.016 1.288-3.78 2.688-3.78 5.04 0 1.932 1.792 4.452 5.6 4.452Zm-3.304-4.76c0-1.204 1.316-2.296 2.912-3.528A26.075 26.075 0 0 0 12.54 23.7c1.036.644 2.044 1.288 2.968 1.988-1.708 1.848-3.5 2.604-4.928 2.604-1.876 0-3.444-1.12-3.444-2.772Zm1.288-9.94c0-1.652 1.036-2.772 2.156-2.772 1.092 0 2.156 1.12 2.156 2.772 0 1.764-1.092 3.024-2.464 4.06-1.12-1.12-1.848-2.436-1.848-4.06ZM41.408 33.024c.784 0 1.54-.084 2.296-.224l.308-2.1a9.756 9.756 0 0 1-2.604.336c-5.208 0-8.876-3.64-8.876-9.016 0-5.18 3.78-9.212 8.876-9.212 5.264 0 8.848 4.032 8.848 9.212 0 4.34-3.276 6.132-4.872 6.132-.532 0-.896-.196-.896-1.764 0-2.52.616-6.496 1.148-9.212-1.204-.756-2.632-1.12-3.64-1.12-3.388 0-5.432 3.696-5.432 7.196 0 3.052 1.512 4.564 2.996 4.564 1.204 0 2.268-.84 3.136-1.932v1.568c0 1.512.924 2.212 2.408 2.212 2.94 0 7.392-2.912 7.392-8.344 0-5.376-4.648-10.5-11.088-10.5-5.572 0-11.116 3.836-11.116 11.172s5.544 11.032 11.116 11.032Zm-2.744-9.912c0-2.38 1.288-5.208 3.668-5.208.448 0 .812.084 1.204.28l-.588 4.956c-.868 1.484-1.736 2.632-2.548 2.632-1.064 0-1.736-.924-1.736-2.66ZM63.136 32.996h2.24V8.132h-2.24zM87.132 33.024c5.544 0 11.088-3.696 11.088-11.032S92.676 10.82 87.132 10.82c-5.572 0-11.116 3.836-11.116 11.172s5.544 11.032 11.116 11.032ZM78.256 22.02c0-5.18 3.78-9.212 8.876-9.212 5.264 0 8.848 4.032 8.848 9.212 0 5.376-3.584 9.016-8.848 9.016-5.208 0-8.876-3.64-8.876-9.016Zm3.556-.112c0 3.864 2.688 5.88 5.432 5.88 1.512 0 3.024-.616 4.088-1.876l-.924-1.428c-1.064 1.008-2.212 1.484-3.248 1.484-1.792 0-3.248-1.456-3.248-4.06 0-2.576 1.484-4.032 3.304-4.032 1.008 0 2.156.448 3.192 1.428l.924-1.428c-1.092-1.148-2.576-1.848-4.088-1.848-2.744 0-5.432 1.932-5.432 5.88ZM113.62 22.02c2.8 0 5.6-1.876 5.6-5.572s-2.8-5.628-5.6-5.628-5.6 1.932-5.6 5.628 2.8 5.572 5.6 5.572Zm-4.172-5.544c0-2.492 1.736-4.396 4.172-4.396 2.52 0 4.172 1.904 4.172 4.396 0 2.604-1.652 4.312-4.172 4.312-2.492 0-4.172-1.708-4.172-4.312Zm2.268 2.548h1.148V17.26h.98l.924 1.764H116l-1.008-1.96c.756-.336 1.092-.98 1.092-1.708 0-1.008-.672-1.932-2.212-1.932h-2.156v5.6Zm1.148-2.828v-1.708h1.036c.56 0 .98.364.98.868s-.42.84-.98.84h-1.036ZM132.94 19.304c1.96 0 3.92-1.4 3.92-4.228 0-2.856-1.96-4.256-3.92-4.256s-3.92 1.4-3.92 4.256c0 2.828 1.96 4.228 3.92 4.228Zm-1.82-4.228c0-1.344.7-2.38 1.82-2.38 1.148 0 1.82 1.036 1.82 2.38 0 1.428-.672 2.352-1.82 2.352-1.148 0-1.82-.924-1.82-2.352ZM147.528 16.42h1.148v-4.256h1.428V11.1H146.1v1.064h1.428v4.256Zm3.5 0h1.148v-3.444l1.176 1.876h.504l1.148-1.82v3.388h1.148V11.1h-1.148l-1.4 2.268-1.428-2.268h-1.148v5.32ZM175.388 33.444h2.1V13.088h2.1V25.52h2.24V13.088h1.96V11.1h-9.436c-4.452 0-7.56 1.988-7.56 5.936s2.688 5.936 5.46 5.936c.98 0 2.044-.252 3.136-.868v11.34ZM198.684 32.072c2.66 0 4.76-1.596 4.76-3.836 0-1.428-.756-2.324-2.128-3.108 1.484-.616 2.464-1.848 2.464-3.388 0-2.352-2.128-3.248-4.256-4.116-2.044-.84-4.032-1.68-4.032-2.996 0-1.092.812-1.54 2.296-1.54 1.484 0 3.332.7 4.732 1.988l1.288-1.54c-1.96-1.652-4.172-2.436-6.104-2.436-2.52 0-4.508 1.484-4.508 3.668 0 1.512.812 2.52 1.988 3.248-1.4.588-2.324 1.764-2.324 3.248 0 2.772 2.604 3.724 4.9 4.536 2.324.812 3.276 1.932 3.276 2.716 0 1.176-.812 1.596-1.932 1.596-1.68 0-4.032-.952-5.208-1.988l-1.288 1.512c1.96 1.652 4.172 2.436 6.076 2.436Zm-3.528-10.948c0-1.092.812-1.54 2.296-1.54 1.596 0 3.92.952 3.92 2.436 0 1.176-.812 1.596-1.932 1.596-1.512 0-4.284-.84-4.284-2.492ZM214.028 32.996h2.24V8.132h-2.24zM227.748 18.408h2.24V8.132h-2.24v10.276Zm0 14.588h2.24V22.888h-2.24v10.108ZM244.24 23.084h2.1v-8.008h3.612v-1.792h-3.612V10.4h-2.1v2.884h-3.612v1.792h3.612zM263.364 23.084h2.1v-4.536h3.612v-1.792h-3.612v-2.1h3.612v-1.792h-3.612V10.4h-2.1v2.464h-3.612v1.792h3.612v2.1h-3.612v1.792h3.612z"/></g></svg>