<svg xmlns="http://www.w3.org/2000/svg" width="320" height="40"><g fill="#000" fill-rule="nonzero"><path d="M9.972 30.28c1.372 0 2.8-.56 4.06-1.736V30h2.1V16.7h-2.1v1.932c-1.372-1.54-2.884-2.212-4.284-2.212-2.884 0-5.348 2.688-5.348 7 0 4.2 2.604 6.86 5.572 6.86ZM6.416 13.732l.504 1.344 8.176-3.08-.868-2.352-7.812 4.088Zm.28 9.52c0-2.576 1.176-4.844 3.052-4.844 1.512 0 2.688.84 4.284 3.08v4.704c-1.428 1.4-2.856 2.1-4.088 2.1-1.904 0-3.248-1.652-3.248-5.04ZM20.892 30h2.1v-7.7c1.176-2.044 2.52-3.892 5.208-3.892.14 0 .28 0 .448.028v-1.904a2.707 2.707 0 0 0-.812-.112c-2.492 0-3.864 1.372-4.844 2.968V16.7h-2.1V30ZM35.284 30h1.96l5.796-13.3h-2.436l-4.34 10.612-4.34-10.612h-2.436zM45.84 30h2.1V16.7h-2.1V30Zm-1.82-16.688.84.924 4.228-3.164L47.38 9.7l-3.36 3.612ZM51.58 30h9.408v-1.988h-6.776l6.776-9.324V16.7H51.58v1.988h7l-7 9.324zM68.772 30.28c1.316 0 2.744-.84 4.032-2.408l-1.288-1.512c-1.092 1.26-2.128 1.932-2.94 1.932-.952 0-1.428-.924-1.428-2.912v-6.692h4.368V16.7h-4.368v-2.8h-2.1v2.8h-1.96v1.988h1.96v7.42c0 2.912 1.68 4.172 3.724 4.172ZM79.3 30.28c1.568 0 3.388-.84 4.984-1.848V30h2.1V16.7h-2.1v9.548c-1.932 1.288-3.696 2.044-4.956 2.044-1.372 0-2.184-.924-2.184-3.164V16.7h-2.1v8.82c0 3.416 1.876 4.76 4.256 4.76Zm-1.568-15.512 1.148.28 1.792-5.88-2.1-.196-.84 5.796Zm3.444.028 1.148.28 1.792-5.88-2.1-.168-.84 5.768ZM91.144 30h2.1v-7.7c1.176-2.044 2.52-3.892 5.208-3.892.14 0 .28 0 .448.028v-1.904a2.707 2.707 0 0 0-.812-.112c-2.492 0-3.864 1.372-4.844 2.968V16.7h-2.1V30ZM107.188 30.28c4.312 0 6.44-3.472 6.44-6.944 0-3.444-2.128-6.916-6.44-6.916s-6.468 3.472-6.468 6.916c0 3.472 2.156 6.944 6.468 6.944Zm-4.172-6.944c0-2.464 1.4-4.928 4.172-4.928s4.144 2.464 4.144 4.928c0 2.492-1.372 4.956-4.144 4.956-2.772 0-4.172-2.464-4.172-4.956Zm.98-8.568 1.148.28 1.792-5.88-2.1-.196-.84 5.796Zm3.444.028 1.148.28 1.792-5.88-2.1-.168-.84 5.768ZM128.552 30.28c1.316 0 2.744-.84 4.032-2.408l-1.288-1.512c-1.092 1.26-2.128 1.932-2.94 1.932-.952 0-1.428-.924-1.428-2.912v-6.692h4.368V16.7h-4.368v-2.8h-2.1v2.8h-1.96v1.988h1.96v7.42c0 2.912 1.68 4.172 3.724 4.172ZM139.08 30.28c1.568 0 3.388-.84 4.984-1.848V30h2.1V16.7h-2.1v9.548c-1.932 1.288-3.696 2.044-4.956 2.044-1.372 0-2.184-.924-2.184-3.164V16.7h-2.1v8.82c0 3.416 1.876 4.76 4.256 4.76Zm-2.66-17.92c0 .98.756 1.484 1.54 1.484.756 0 1.54-.504 1.54-1.484s-.784-1.484-1.54-1.484c-.784 0-1.54.504-1.54 1.484Zm5.46 0c0 .98.756 1.484 1.54 1.484.756 0 1.54-.504 1.54-1.484s-.784-1.484-1.54-1.484c-.784 0-1.54.504-1.54 1.484ZM150.924 30h2.1v-4.396l2.156-2.212L159.464 30h2.464l-5.32-8.064 5.068-5.236h-2.772l-5.88 6.076V10.4h-2.1zM170.356 30.28c4.312 0 6.44-3.472 6.44-6.944 0-3.444-2.128-6.916-6.44-6.916s-6.468 3.472-6.468 6.916c0 3.472 2.156 6.944 6.468 6.944Zm-4.284-17.92c0 .98.756 1.484 1.54 1.484.756 0 1.54-.504 1.54-1.484s-.784-1.484-1.54-1.484c-.784 0-1.54.504-1.54 1.484Zm.112 10.976c0-2.464 1.4-4.928 4.172-4.928s4.144 2.464 4.144 4.928c0 2.492-1.372 4.956-4.144 4.956-2.772 0-4.172-2.464-4.172-4.956Zm5.348-10.976c0 .98.756 1.484 1.54 1.484.756 0 1.54-.504 1.54-1.484s-.784-1.484-1.54-1.484c-.784 0-1.54.504-1.54 1.484ZM180.576 30h2.1v-7.7c1.176-2.044 2.52-3.892 5.208-3.892.14 0 .28 0 .448.028v-1.904a2.707 2.707 0 0 0-.812-.112c-2.492 0-3.864 1.372-4.844 2.968V16.7h-2.1V30ZM191.552 14.46v2.24h-1.96v1.988h1.96V30h2.1V18.688h4.368V16.7h-4.368v-1.904c0-1.932.756-2.688 1.932-2.688.84 0 1.932.392 3.08 1.008l1.008-1.596c-1.26-.924-2.716-1.4-4.032-1.4-2.24 0-4.088 1.372-4.088 4.34ZM204.488 30.28c1.568 0 3.388-.84 4.984-1.848V30h2.1V16.7h-2.1v9.548c-1.932 1.288-3.696 2.044-4.956 2.044-1.372 0-2.184-.924-2.184-3.164V16.7h-2.1v8.82c0 3.416 1.876 4.76 4.256 4.76Zm-2.716-16.548.504 1.344 8.176-3.08-.868-2.352-7.812 4.088ZM216.332 30h2.1v-7.7c1.176-2.044 2.52-3.892 5.208-3.892.14 0 .28 0 .448.028v-1.904a2.707 2.707 0 0 0-.812-.112c-2.492 0-3.864 1.372-4.844 2.968V16.7h-2.1V30ZM232.376 30.28c4.312 0 6.44-3.472 6.44-6.944 0-3.444-2.128-6.916-6.44-6.916s-6.468 3.472-6.468 6.916c0 3.472 2.156 6.944 6.468 6.944Zm-4.34-16.548.504 1.344 8.176-3.08-.868-2.352-7.812 4.088Zm.168 9.604c0-2.464 1.4-4.928 4.172-4.928s4.144 2.464 4.144 4.928c0 2.492-1.372 4.956-4.144 4.956-2.772 0-4.172-2.464-4.172-4.956ZM248.476 36.44c2.744 0 4.872-1.708 4.872-6.076V16.7h-2.1v1.932c-1.372-1.54-2.884-2.212-4.284-2.212-2.884 0-5.348 2.66-5.348 7.28 0 4.984 2.8 6.58 5.544 6.58 1.484 0 2.8-.98 4.088-2.548V30c0 3.248-1.232 4.396-3.08 4.396-1.484 0-3.22-.812-4.592-1.988l-1.288 1.624c1.876 1.484 4.172 2.408 6.188 2.408Zm-4.564-13.076c0-2.716 1.176-4.956 3.052-4.956 1.512 0 2.688.84 4.284 3.08v3.752c-1.596 2.24-2.744 3.052-4.06 3.052-1.792 0-3.276-1.596-3.276-4.928ZM262.616 30.28c1.764 0 3.5-.616 5.376-1.624l-1.008-1.708c-1.512.84-2.94 1.344-4.172 1.344-1.988 0-3.444-1.288-3.752-3.78h9.52v-.868c0-4.844-2.968-7.224-5.936-7.224s-5.936 2.212-5.936 7.056c0 4.648 2.604 6.804 5.908 6.804Zm-4.312-16.548.504 1.344 8.176-3.08-.868-2.352-7.812 4.088Zm.756 8.792c.308-2.8 1.988-4.116 3.696-4.116 1.68 0 3.36 1.372 3.78 4.116h-7.476ZM271.94 36.16h2.1v-7.084c1.344.868 2.632 1.204 3.78 1.204 3.528 0 5.852-3.108 5.852-6.748 0-4.424-2.464-7.112-5.348-7.112-1.4 0-2.912.672-4.284 2.212V16.7h-2.1v19.46Zm2.1-9.24v-5.432c1.596-2.24 2.772-3.08 4.284-3.08 1.876 0 3.052 2.268 3.052 4.76 0 3.612-1.764 5.152-3.976 5.152-1.064 0-2.24-.448-3.36-1.4Z"/></g></svg>