<svg xmlns="http://www.w3.org/2000/svg" width="320" height="40"><g fill="#424345" fill-rule="nonzero"><path d="M12.54 30.28c2.94 0 5.572-2.52 5.572-6.944 0-3.528-2.324-6.916-5.852-6.916-1.148 0-2.436.336-3.78 1.204V10.4h-2.1V30h2.1v-1.372c1.288 1.12 2.688 1.652 4.06 1.652Zm-4.06-3.976V19.78c1.12-.952 2.296-1.4 3.36-1.4 2.212 0 3.976 1.82 3.976 4.956 0 3.192-1.316 4.956-3.276 4.956-1.176 0-2.576-.644-4.06-1.988ZM27.38 30.28c4.312 0 6.44-3.472 6.44-6.944 0-3.444-2.128-6.916-6.44-6.916s-6.468 3.472-6.468 6.916c0 3.472 2.156 6.944 6.468 6.944Zm-4.172-6.944c0-2.464 1.4-4.928 4.172-4.928s4.144 2.464 4.144 4.928c0 2.492-1.372 4.956-4.144 4.956-2.772 0-4.172-2.464-4.172-4.956ZM37.6 30h2.1V10.4h-2.1zM44.46 30h2.1V10.4h-2.1zM56.248 30.28c1.764 0 3.5-.616 5.376-1.624l-1.008-1.708c-1.512.84-2.94 1.344-4.172 1.344-1.988 0-3.444-1.288-3.752-3.78h9.52v-.868c0-4.844-2.968-7.224-5.936-7.224s-5.936 2.212-5.936 7.056c0 4.648 2.604 6.804 5.908 6.804Zm-3.556-7.756c.308-2.8 1.988-4.116 3.696-4.116 1.68 0 3.36 1.372 3.78 4.116h-7.476ZM65.572 30h2.1v-9.548c1.932-1.288 3.696-2.044 4.956-2.044 1.372 0 2.184.924 2.184 3.164V30h2.1v-8.82c0-3.416-1.876-4.76-4.256-4.76-1.568 0-3.388.84-4.984 1.848V16.7h-2.1V30ZM97.072 28.908l5.18-6.272L97.1 16.42h-2.548l4.396 5.264H87.132v1.988h11.732l-4.312 5.236zM119.54 30.28c2.94 0 5.572-2.52 5.572-6.944 0-3.528-2.324-6.916-5.852-6.916-1.148 0-2.436.336-3.78 1.204V10.4h-2.1V30h2.1v-1.372c1.288 1.12 2.688 1.652 4.06 1.652Zm-4.06-3.976V19.78c1.12-.952 2.296-1.4 3.36-1.4 2.212 0 3.976 1.82 3.976 4.956 0 3.192-1.316 4.956-3.276 4.956-1.176 0-2.576-.644-4.06-1.988ZM134.38 30.28c4.312 0 6.44-3.472 6.44-6.944 0-3.444-2.128-6.916-6.44-6.916s-6.468 3.472-6.468 6.916c0 3.472 2.156 6.944 6.468 6.944Zm-4.172-6.944c0-2.464 1.4-4.928 4.172-4.928s4.144 2.464 4.144 4.928c0 2.492-1.372 4.956-4.144 4.956-2.772 0-4.172-2.464-4.172-4.956ZM147.232 30.28c.756 0 1.596-.224 2.324-.7l-.868-1.736c-.7.308-1.204.448-1.568.448-.672 0-.84-.532-.84-1.624V10.4h-2.1v16.548c0 2.268 1.428 3.332 3.052 3.332ZM155.128 30.28c.756 0 1.596-.224 2.324-.7l-.868-1.736c-.7.308-1.204.448-1.568.448-.672 0-.84-.532-.84-1.624V10.4h-2.1v16.548c0 2.268 1.428 3.332 3.052 3.332ZM165.32 30.28c1.764 0 3.5-.616 5.376-1.624l-1.008-1.708c-1.512.84-2.94 1.344-4.172 1.344-1.988 0-3.444-1.288-3.752-3.78h9.52v-.868c0-4.844-2.968-7.224-5.936-7.224s-5.936 2.212-5.936 7.056c0 4.648 2.604 6.804 5.908 6.804Zm-3.556-7.756c.308-2.8 1.988-4.116 3.696-4.116 1.68 0 3.36 1.372 3.78 4.116h-7.476ZM174.644 30h2.1v-9.548c1.932-1.288 3.696-2.044 4.956-2.044 1.372 0 2.184.924 2.184 3.164V30h2.1v-8.82c0-3.416-1.876-4.76-4.256-4.76-1.568 0-3.388.84-4.984 1.848V16.7h-2.1V30Z"/></g></svg>