<svg xmlns="http://www.w3.org/2000/svg" width="1280" height="180"><g fill="#424345" fill-rule="nonzero"><path d="M349.35 147.75h.75c55.2-23.7 61.65-64.5 61.65-111.75h-5.25c-.15 1.2-.15 2.55-.3 3.75-3.9 30.3-25.05 61.65-68.55 62.85.3-22.2 2.85-44.4 7.95-66.6H309l40.35 111.75ZM464.1 147.75c12.3 0 22.8-1.35 34.05-7.35v-27.75c-14.1 4.5-28.35 7.05-43.8 7.05-6 0-11.25-1.2-15.45-3l59.25-15.3c-3.3-23.55-18-33.15-33.75-33.15-20.25 0-42.15 16.35-42.15 39.75 0 25.95 19.65 39.75 41.85 39.75Zm-36-43.35c0-8.25 12.3-12.6 24.15-12.6 10.05 0 19.8 3 21.75 9.6-11.4 4.05-24 6.75-43.2 9.6-1.8-2.1-2.7-4.35-2.7-6.6ZM513.9 145.5h5.25c0-1.5 0-2.85.15-4.2 3-27 17.85-39.45 33.6-39.45 6.3 0 13.2 1.2 18.6 3.75v-30c-2.7-3.45-9-7.35-14.85-7.35-12.75 0-26.55 9.9-36.3 32.25h-.45c0-10.05 1.8-19.95 4.5-30h-10.5c.45 12.6.75 25.05.75 37.5s-.3 25.05-.75 37.5ZM585 145.5h5.25c0-1.5 0-2.85.15-4.2 3-27 17.85-39.45 33.6-39.45 6.3 0 13.2 1.2 18.6 3.75v-30c-2.7-3.45-9-7.35-14.85-7.35-12.75 0-26.55 9.9-36.3 32.25H591c0-10.05 1.8-19.95 4.5-30H585c.45 12.6.75 25.05.75 37.5s-.3 25.05-.75 37.5ZM687.3 147.75c12.75 0 26.55-9.9 36.3-32.25h.45c0 10.05-1.8 19.95-4.5 30h10.5c-.45-12.6-.75-25.05-.75-37.5s.3-25.05.75-37.5h-5.25c0 30-17.25 43.65-33.75 43.65-15.45 0-30.15-11.7-30.15-32.7 0-3.45.3-7.2 1.05-10.95h-5.25c-2.55 8.85-3.6 17.1-3.6 24.9 0 32.7 16.05 52.35 34.2 52.35Zm-22.65-100.8c0 6.3 4.35 10.95 10.65 10.95 8.4 0 13.2-5.7 13.2-11.85 0-5.25-4.2-11.4-12.3-11.4-7.2 0-11.55 5.85-11.55 12.3Zm31.65-.15c0 6.45 4.35 11.1 10.65 11.1 8.55 0 13.2-5.7 13.2-12 0-4.95-4.35-11.25-12.3-11.25-7.2 0-11.55 5.85-11.55 12.15ZM783.15 147.75c10.65 0 22.35-1.2 34.05-7.35v-27.75c-12.9 4.2-28.35 7.05-41.55 7.05-17.7 0-26.7-4.2-26.7-15.3 8.25-4.65 17.25-8.1 35.55-8.1 9.3 0 22.95 2.4 32.7 7.05V75.6c-11.7-6.15-22.05-7.35-32.7-7.35-24.45 0-40.95 15.15-40.95 39.75 0 25.95 17.4 39.75 39.6 39.75ZM835.2 145.5h21.6c-9.45-15.45-14.55-24.75-15.15-36.6 2.1-1.2 4.2-2.4 6.3-3.3 8.7 19.05 23.4 42.15 58.2 42.15v-30c-22.5 0-41.1-4.5-52.2-14.85 17.7-7.2 35.1-8.1 52.2-8.4V68.25c-24.45 2.25-46.05 14.4-64.5 32.25h-.45c0-22.5 1.5-45 4.5-67.5h-10.5c.75 18.75.75 37.5.75 56.25s0 37.5-.75 56.25ZM948.15 147.75c6.45 0 16.8-5.25 22.35-9v-30c-5.85 4.8-14.7 8.7-22.8 8.7-10.95 0-20.55-6.9-20.55-37.95 0-2.85.75-3.75 3.15-3.75 2.7 0 13.2 2.85 40.2 24.75v-30h-42.45c.6-5.7 1.65-11.85 3.6-18.75h-10.5c.6 13.35.75 23.25.75 36 0 37.95 4.8 60 26.25 60Z"/></g></svg>