<svg xmlns="http://www.w3.org/2000/svg" width="387" height="115"><g fill="#E7E6DF" fill-rule="nonzero"><path d="M1.47 16h5.88c4.83 0 7.119-3.864 7.119-7.686 0-3.843-2.289-7.686-7.119-7.686H1.47V16Zm1.428-1.323V1.951h4.746c2.436 0 5.292 1.785 5.292 6.384 0 4.389-2.856 6.342-5.292 6.342H2.898ZM21.525 16.231c1.323 0 2.856-.399 4.137-1.176v-1.302c-1.071.84-2.583 1.344-4.011 1.344-2.121 0-4.263-1.554-4.326-4.242h8.967c0-3.969-2.751-5.628-4.998-5.628-2.604 0-5.397 2.184-5.397 5.502 0 3.402 2.772 5.502 5.628 5.502ZM17.388 9.91c.378-2.205 2.205-3.57 3.906-3.57 1.596 0 3.549 1.197 3.549 3.57h-7.455ZM36.834 16.231c.861 0 1.911-.441 2.919-1.407v-1.449c-.882 1.029-1.89 1.596-2.709 1.596-.987 0-1.722-.756-1.722-2.184V6.592h4.431V5.458h-4.431V2.833h-1.344v2.625h-1.47v1.134h1.47v6.426c0 1.827 1.197 3.213 2.856 3.213ZM46.368 16.231c3.192 0 5.397-2.562 5.397-5.523s-2.205-5.481-5.397-5.481-5.397 2.541-5.397 5.502 2.205 5.502 5.397 5.502Zm-3.927-5.502c0-2.709 1.617-4.368 3.927-4.368s3.927 1.638 3.927 4.347c0 2.73-1.617 4.389-3.927 4.389s-3.927-1.659-3.927-4.368ZM56.994 16.231c1.428 0 3.213-1.008 5.082-3.024h.042V16h1.365V5.458h-1.365v6.258c-1.617 2.016-3.339 3.213-4.662 3.213-1.575 0-2.583-1.659-2.583-5.355 0-1.365.063-2.73.168-4.116h-1.344a71.953 71.953 0 0 0-.21 5.208c0 3.318 1.302 5.565 3.507 5.565ZM69.468 16.231c.861 0 1.911-.441 2.919-1.407v-1.449c-.882 1.029-1.89 1.596-2.709 1.596-.987 0-1.722-.756-1.722-2.184V6.592h4.431V5.458h-4.431V2.833h-1.344v2.625h-1.47v1.134h1.47v6.426c0 1.827 1.197 3.213 2.856 3.213ZM79.233 16.231c1.323 0 2.856-.399 4.137-1.176v-1.302c-1.071.84-2.583 1.344-4.011 1.344-2.121 0-4.263-1.554-4.326-4.242H84c0-3.969-2.751-5.628-4.998-5.628-2.604 0-5.397 2.184-5.397 5.502 0 3.402 2.772 5.502 5.628 5.502ZM75.096 9.91c.378-2.205 2.205-3.57 3.906-3.57 1.596 0 3.549 1.197 3.549 3.57h-7.455ZM89.376 16.231c2.289 0 4.452-.819 4.452-2.688 0-1.68-2.121-2.583-4.074-3.297-1.659-.609-3.234-1.365-3.234-2.541 0-.903.882-1.344 2.1-1.344 1.596 0 3.717.84 4.788 1.575V6.634c-1.071-.777-3.045-1.407-4.767-1.407-1.848 0-3.444.714-3.444 2.499 0 1.932 2.121 2.877 4.242 3.633 1.638.588 3.108 1.197 3.108 2.268 0 .945-1.407 1.47-3.003 1.47-1.617 0-3.402-.567-4.368-1.134v1.302c1.071.609 2.646.966 4.2.966ZM104.265 16.231c2.289 0 4.452-.819 4.452-2.688 0-1.68-2.121-2.583-4.074-3.297-1.659-.609-3.234-1.365-3.234-2.541 0-.903.882-1.344 2.1-1.344 1.596 0 3.717.84 4.788 1.575V6.634c-1.071-.777-3.045-1.407-4.767-1.407-1.848 0-3.444.714-3.444 2.499 0 1.932 2.121 2.877 4.242 3.633 1.638.588 3.108 1.197 3.108 2.268 0 .945-1.407 1.47-3.003 1.47-1.617 0-3.402-.567-4.368-1.134v1.302c1.071.609 2.646.966 4.2.966ZM115.479 16.231c1.323 0 2.856-.399 4.137-1.176v-1.302c-1.071.84-2.583 1.344-4.011 1.344-2.121 0-4.263-1.554-4.326-4.242h8.967c0-3.969-2.751-5.628-4.998-5.628-2.604 0-5.397 2.184-5.397 5.502 0 3.402 2.772 5.502 5.628 5.502Zm-4.137-6.321c.378-2.205 2.205-3.57 3.906-3.57 1.596 0 3.549 1.197 3.549 3.57h-7.455ZM125.622 16.231c2.289 0 4.452-.819 4.452-2.688 0-1.68-2.121-2.583-4.074-3.297-1.659-.609-3.234-1.365-3.234-2.541 0-.903.882-1.344 2.1-1.344 1.596 0 3.717.84 4.788 1.575V6.634c-1.071-.777-3.045-1.407-4.767-1.407-1.848 0-3.444.714-3.444 2.499 0 1.932 2.121 2.877 4.242 3.633 1.638.588 3.108 1.197 3.108 2.268 0 .945-1.407 1.47-3.003 1.47-1.617 0-3.402-.567-4.368-1.134v1.302c1.071.609 2.646.966 4.2.966ZM141.855 16.231c2.121 0 3.801-1.134 4.704-2.751 1.008 1.743 2.94 2.751 4.914 2.751 1.323 0 2.856-.399 4.137-1.176v-1.302c-1.071.84-2.583 1.344-4.011 1.344-2.121 0-4.263-1.554-4.326-4.242h8.337c0-3.969-2.121-5.628-4.368-5.628-1.785 0-3.675 1.029-4.662 2.751-.903-1.617-2.583-2.751-4.725-2.751-3.192 0-5.397 2.541-5.397 5.502s2.205 5.502 5.397 5.502Zm-3.927-5.502c0-2.709 1.617-4.368 3.927-4.368s3.927 1.638 3.927 4.347c0 2.73-1.617 4.389-3.927 4.389s-3.927-1.659-3.927-4.368Zm9.408-.819c.378-2.205 2.205-3.57 3.906-3.57 1.596 0 3.003 1.197 3.003 3.57h-6.909ZM160.797 16.231c1.428 0 3.213-1.008 5.082-3.024h.042V16h1.365V5.458h-1.365v6.258c-1.617 2.016-3.339 3.213-4.662 3.213-1.575 0-2.583-1.659-2.583-5.355 0-1.365.063-2.73.168-4.116H157.5a71.953 71.953 0 0 0-.21 5.208c0 3.318 1.302 5.565 3.507 5.565ZM173.859 16.231h.084c3.822-1.743 5.754-6.174 5.754-10.773h-1.386c0 2.646-.798 6.867-3.864 8.967l-3.969-8.967h-1.575l4.956 10.773ZM181.524 16h1.365v-5.544c.735-2.415 1.722-4.011 3.087-4.011.672 0 1.449.399 2.331 1.281V6.424c-.882-.798-1.659-1.197-2.394-1.197-1.134 0-2.121.966-2.982 2.835h-.042V5.458h-1.365V16ZM194.964 16.231c1.323 0 2.856-.399 4.137-1.176v-1.302c-1.071.84-2.583 1.344-4.011 1.344-2.121 0-4.263-1.554-4.326-4.242h8.967c0-3.969-2.751-5.628-4.998-5.628-2.604 0-5.397 2.184-5.397 5.502 0 3.402 2.772 5.502 5.628 5.502Zm-4.137-6.321c.378-2.205 2.205-3.57 3.906-3.57 1.596 0 3.549 1.197 3.549 3.57h-7.455ZM205.107 16.231c2.289 0 4.452-.819 4.452-2.688 0-1.68-2.121-2.583-4.074-3.297-1.659-.609-3.234-1.365-3.234-2.541 0-.903.882-1.344 2.1-1.344 1.596 0 3.717.84 4.788 1.575V6.634c-1.071-.777-3.045-1.407-4.767-1.407-1.848 0-3.444.714-3.444 2.499 0 1.932 2.121 2.877 4.242 3.633 1.638.588 3.108 1.197 3.108 2.268 0 .945-1.407 1.47-3.003 1.47-1.617 0-3.402-.567-4.368-1.134v1.302c1.071.609 2.646.966 4.2.966ZM210.798 18.562h1.029c1.134-1.05 1.659-2.163 1.659-3.066 0-.798-.399-1.365-1.05-1.365-.567 0-1.05.462-1.05 1.05 0 .903.987 1.008.987 1.344 0 .483-.672 1.26-1.575 2.037ZM221.004 16h1.428V8.608h8.925V16h1.428V.628h-1.428v6.657h-8.925V.628h-1.428zM237.573 16.231c1.869 0 4.116-1.197 5.229-3.003h.042V16h1.344v-4.725c0-4.62-1.68-6.048-4.179-6.048-1.554 0-3.339.462-5.166 1.134v1.218c1.365-.588 3.381-1.218 4.977-1.218 1.407 0 2.562.483 2.814 1.806-5.313 1.05-7.812 3.108-7.812 5.334 0 1.827 1.176 2.73 2.751 2.73Zm-1.365-2.835c0-1.722 1.596-3.234 6.51-4.284.126.735.168 1.449.168 2.184-.42 2.163-3.066 3.864-4.914 3.864-1.008 0-1.764-.546-1.764-1.764ZM250.362 16.21c1.554 0 3.402-.882 4.494-2.814h.042V16h1.26V.208h-1.26v7.833h-.042c-1.134-1.932-2.94-2.793-4.452-2.793-2.562 0-4.62 2.289-4.62 5.481 0 3.255 2.058 5.481 4.578 5.481Zm-3.15-5.481c0-2.793 1.659-4.368 3.486-4.368 1.596 0 4.074 1.575 4.074 4.368s-2.478 4.368-4.074 4.368c-1.827 0-3.486-1.575-3.486-4.368ZM258.825 16h1.365V5.458h-1.365V16Zm-.462-13.272c0 .609.525 1.134 1.134 1.134.693 0 1.134-.525 1.134-1.134 0-.588-.441-1.134-1.134-1.134-.609 0-1.134.546-1.134 1.134ZM266.784 16.21c1.554 0 3.402-.882 4.494-2.814h.042V16h1.26V.208h-1.26v7.833h-.042c-1.134-1.932-2.94-2.793-4.452-2.793-2.562 0-4.62 2.289-4.62 5.481 0 3.255 2.058 5.481 4.578 5.481Zm-3.15-5.481c0-2.793 1.659-4.368 3.486-4.368 1.596 0 4.074 1.575 4.074 4.368s-2.478 4.368-4.074 4.368c-1.827 0-3.486-1.575-3.486-4.368ZM280.497 16h1.365V9.742c1.617-2.016 3.339-3.192 4.683-3.192 1.554 0 2.604 1.638 2.604 5.334V16h1.344v-4.032c0-6.174-2.205-6.741-3.507-6.741-1.428 0-3.213 1.008-5.082 3.024h-.042V5.458h-1.365V16ZM291.921 4.24h.777l1.197-4.074h-1.743zM297.213 16.231c1.869 0 4.116-1.197 5.229-3.003h.042V16h1.344v-4.725c0-4.62-1.68-6.048-4.179-6.048-1.554 0-3.339.462-5.166 1.134v1.218c1.365-.588 3.381-1.218 4.977-1.218 1.407 0 2.562.483 2.814 1.806-5.313 1.05-7.812 3.108-7.812 5.334 0 1.827 1.176 2.73 2.751 2.73Zm-1.365-2.835c0-1.722 1.596-3.234 6.51-4.284.126.735.168 1.449.168 2.184-.42 2.163-3.066 3.864-4.914 3.864-1.008 0-1.764-.546-1.764-1.764ZM315.819 16.231c1.134 0 2.394-.357 3.759-1.176v-1.26c-1.281.882-2.478 1.26-3.486 1.26-2.478 0-3.948-2.163-3.948-4.326 0-2.184 1.386-4.326 3.885-4.326 1.008 0 2.205.378 3.549 1.26v-1.26c-1.344-.819-2.604-1.176-3.738-1.176-3.066 0-5.166 2.709-5.166 5.502 0 2.772 2.016 5.502 5.145 5.502ZM326.235 16.231c3.192 0 5.397-2.562 5.397-5.523s-2.205-5.481-5.397-5.481-5.397 2.541-5.397 5.502 2.205 5.502 5.397 5.502Zm-3.927-5.502c0-2.709 1.617-4.368 3.927-4.368s3.927 1.638 3.927 4.347c0 2.73-1.617 4.389-3.927 4.389s-3.927-1.659-3.927-4.368ZM333.648 16h1.365V9.742c1.617-2.016 3.339-3.192 4.683-3.192 1.554 0 2.604 1.638 2.604 5.334V16h1.344v-4.032c0-6.174-2.205-6.741-3.507-6.741-1.428 0-3.213 1.008-5.082 3.024h-.042V5.458h-1.365V16ZM351.078 20.431c1.113 0 1.911-.693 1.911-1.806 0-1.029-.756-1.722-1.869-1.722-.189 0-.378.021-.567.084l.252-.756c1.071-.063 2.226-.42 3.465-1.176v-1.26c-1.281.882-2.478 1.26-3.486 1.26-2.478 0-3.948-2.163-3.948-4.326 0-2.184 1.386-4.326 3.885-4.326 1.008 0 2.205.378 3.549 1.26v-1.26c-1.344-.819-2.604-1.176-3.738-1.176-3.066 0-5.166 2.709-5.166 5.502 0 2.583 1.743 5.103 4.494 5.46l-.651 1.89.546.525c.378-.693.903-.945 1.344-.945.546 0 .945.462.945.966 0 .672-.378.924-.945.924-.525 0-1.281-.189-1.89-.441v.882a4.417 4.417 0 0 0 1.869.441ZM359.373 16.231c1.428 0 3.213-1.008 5.082-3.024h.042V16h1.365V5.458h-1.365v6.258c-1.617 2.016-3.339 3.213-4.662 3.213-1.575 0-2.583-1.659-2.583-5.355 0-1.365.063-2.73.168-4.116h-1.344a71.953 71.953 0 0 0-.21 5.208c0 3.318 1.302 5.565 3.507 5.565ZM9.807 51.7h1.26V36.958h-1.26v2.604h-.042c-1.113-1.932-2.898-2.814-4.452-2.814-2.52 0-4.62 2.247-4.62 5.481 0 3.108 1.932 5.481 4.578 5.481 1.512 0 3.381-.84 4.494-2.814h.042V51.7Zm-7.686-9.471c0-2.793 1.68-4.368 3.486-4.368 1.596 0 4.074 1.575 4.074 4.368 0 2.772-2.478 4.368-4.074 4.368-1.806 0-3.486-1.596-3.486-4.368ZM16.947 47.731c1.428 0 3.213-1.008 5.082-3.024h.042V47.5h1.365V36.958h-1.365v6.258c-1.617 2.016-3.339 3.213-4.662 3.213-1.575 0-2.583-1.659-2.583-5.355 0-1.365.063-2.73.168-4.116H13.65a71.953 71.953 0 0 0-.21 5.208c0 3.318 1.302 5.565 3.507 5.565ZM25.158 35.74h.777l1.197-4.074h-1.743zM31.668 47.731c1.428 0 3.213-1.008 5.082-3.024h.042V47.5h1.365V36.958h-1.365v6.258c-1.617 2.016-3.339 3.213-4.662 3.213-1.575 0-2.583-1.659-2.583-5.355 0-1.365.063-2.73.168-4.116h-1.344a71.953 71.953 0 0 0-.21 5.208c0 3.318 1.302 5.565 3.507 5.565ZM40.803 47.5h1.365v-6.258c1.617-2.016 3.339-3.192 4.683-3.192 1.554 0 2.604 1.638 2.604 5.334V47.5h1.344v-4.032c0-6.174-2.205-6.741-3.507-6.741-1.428 0-3.213 1.008-5.082 3.024h-.042v-2.793h-1.365V47.5ZM61.824 47.731c2.289 0 4.452-.819 4.452-2.688 0-1.68-2.121-2.583-4.074-3.297-1.659-.609-3.234-1.365-3.234-2.541 0-.903.882-1.344 2.1-1.344 1.596 0 3.717.84 4.788 1.575v-1.302c-1.071-.777-3.045-1.407-4.767-1.407-1.848 0-3.444.714-3.444 2.499 0 1.932 2.121 2.877 4.242 3.633 1.638.588 3.108 1.197 3.108 2.268 0 .945-1.407 1.47-3.003 1.47-1.617 0-3.402-.567-4.368-1.134v1.302c1.071.609 2.646.966 4.2.966ZM73.038 47.731c1.323 0 2.856-.399 4.137-1.176v-1.302c-1.071.84-2.583 1.344-4.011 1.344-2.121 0-4.263-1.554-4.326-4.242h8.967c0-3.969-2.751-5.628-4.998-5.628-2.604 0-5.397 2.184-5.397 5.502 0 3.402 2.772 5.502 5.628 5.502Zm-4.137-6.321c.378-2.205 2.205-3.57 3.906-3.57 1.596 0 3.549 1.197 3.549 3.57h-7.455ZM82.971 47.731c1.428 0 3.213-1.008 5.082-3.024h.042V47.5h1.365V36.958h-1.365v6.258c-1.617 2.016-3.339 3.213-4.662 3.213-1.575 0-2.583-1.659-2.583-5.355 0-1.365.063-2.73.168-4.116h-1.344a71.953 71.953 0 0 0-.21 5.208c0 3.318 1.302 5.565 3.507 5.565ZM94.878 47.731c.882 0 1.869-.441 2.835-1.407v-1.428c-.882 1.029-1.869 1.575-2.646 1.575-.945 0-1.638-.756-1.638-2.163v-12.6h-1.344v12.747c0 1.911 1.218 3.276 2.793 3.276ZM110.418 47.71c2.541 0 4.578-2.226 4.578-5.481 0-3.192-2.037-5.481-4.599-5.481-1.512 0-3.318.861-4.452 2.793h-.042v-7.833h-1.281V47.5h1.281v-2.604h.042c1.092 1.932 2.94 2.814 4.473 2.814Zm-4.389-5.481c0-2.793 2.478-4.368 4.074-4.368 1.806 0 3.486 1.575 3.486 4.368s-1.68 4.368-3.486 4.368c-1.596 0-4.074-1.575-4.074-4.368ZM119.028 47.731c1.869 0 4.116-1.197 5.229-3.003h.042V47.5h1.344v-4.725c0-4.62-1.68-6.048-4.179-6.048-1.554 0-3.339.462-5.166 1.134v1.218c1.365-.588 3.381-1.218 4.977-1.218 1.407 0 2.562.483 2.814 1.806-5.313 1.05-7.812 3.108-7.812 5.334 0 1.827 1.176 2.73 2.751 2.73Zm-1.68-13.041.189.903c1.029-.777 2.184-1.596 3.276-2.079 1.092.483 2.247 1.302 3.276 2.079l.168-.903c-1.197-.924-2.142-1.659-3.444-2.373-1.344.756-2.268 1.449-3.465 2.373Zm.315 10.206c0-1.722 1.596-3.234 6.51-4.284.126.735.168 1.449.168 2.184-.42 2.163-3.066 3.864-4.914 3.864-1.008 0-1.764-.546-1.764-1.764ZM131.208 47.731c.861 0 1.911-.441 2.919-1.407v-1.449c-.882 1.029-1.89 1.596-2.709 1.596-.987 0-1.722-.756-1.722-2.184v-6.195h4.431v-1.134h-4.431v-2.625h-1.344v2.625h-1.47v1.134h1.47v6.426c0 1.827 1.197 3.213 2.856 3.213ZM135.975 47.5h1.365V36.958h-1.365V47.5Zm-.462-13.272c0 .609.525 1.134 1.134 1.134.693 0 1.134-.525 1.134-1.134 0-.588-.441-1.134-1.134-1.134-.609 0-1.134.546-1.134 1.134ZM139.986 47.5h1.365v-6.153c1.491-2.121 3.024-3.297 4.095-3.297 1.449 0 2.436 1.701 2.436 4.998V47.5h1.344v-6.552c2.016-2.268 3.192-2.898 4.263-2.898 1.596 0 2.31 2.247 2.31 4.998V47.5h1.344v-5.208c0-3.633-1.365-5.565-3.297-5.565-1.47 0-3.129 1.05-4.893 3.045-.567-2.121-1.722-3.045-3.087-3.045-1.365 0-3.087 1.323-4.473 3.024h-.042v-2.793h-1.365V47.5ZM164.493 47.731c1.323 0 2.856-.399 4.137-1.176v-1.302c-1.071.84-2.583 1.344-4.011 1.344-2.121 0-4.263-1.554-4.326-4.242h8.967c0-3.969-2.751-5.628-4.998-5.628-2.604 0-5.397 2.184-5.397 5.502 0 3.402 2.772 5.502 5.628 5.502Zm-4.137-6.321c.378-2.205 2.205-3.57 3.906-3.57 1.596 0 3.549 1.197 3.549 3.57h-7.455ZM171.213 47.5h1.365v-6.258c1.617-2.016 3.339-3.192 4.683-3.192 1.554 0 2.604 1.638 2.604 5.334V47.5h1.344v-4.032c0-6.174-2.205-6.741-3.507-6.741-1.428 0-3.213 1.008-5.082 3.024h-.042v-2.793h-1.365V47.5ZM186.9 47.731c.861 0 1.911-.441 2.919-1.407v-1.449c-.882 1.029-1.89 1.596-2.709 1.596-.987 0-1.722-.756-1.722-2.184v-6.195h4.431v-1.134h-4.431v-2.625h-1.344v2.625h-1.47v1.134h1.47v6.426c0 1.827 1.197 3.213 2.856 3.213ZM200.865 44.644c2.73 0 4.641-1.722 4.641-3.927 0-1.113-.504-2.121-1.344-2.835l2.877.105v-1.029l-5.649-.189c-.168-.021-.357-.021-.525-.021-2.73 0-4.662 1.764-4.662 3.948 0 1.155.525 2.163 1.386 2.877-.903.609-1.302 1.134-1.302 1.785 0 .735.399 1.239 1.092 1.575-.777.672-1.197 1.428-1.197 2.142 0 1.512 1.827 2.856 5.019 2.856 3.423 0 4.977-1.428 4.977-2.751 0-1.26-1.281-2.604-3.843-2.604-3.696 0-4.977-.567-4.977-1.302 0-.504.483-.903 1.008-1.197a5.547 5.547 0 0 0 2.499.567Zm-3.276-3.927c0-1.911 1.512-2.94 3.276-2.94 1.743 0 3.255 1.029 3.255 2.94 0 1.89-1.512 2.898-3.255 2.898-1.764 0-3.276-1.008-3.276-2.898Zm.063 8.337c0-.63.399-1.281 1.029-1.701.861.168 1.911.231 3.066.231 1.869 0 2.982.777 2.982 1.68 0 .861-1.071 1.722-3.528 1.722-2.604 0-3.549-.945-3.549-1.932ZM213.234 47.731c3.192 0 5.397-2.562 5.397-5.523s-2.205-5.481-5.397-5.481-5.397 2.541-5.397 5.502 2.205 5.502 5.397 5.502Zm-3.927-5.502c0-2.709 1.617-4.368 3.927-4.368s3.927 1.638 3.927 4.347c0 2.73-1.617 4.389-3.927 4.389s-3.927-1.659-3.927-4.368ZM223.86 47.731c1.428 0 3.213-1.008 5.082-3.024h.042V47.5h1.365V36.958h-1.365v6.258c-1.617 2.016-3.339 3.213-4.662 3.213-1.575 0-2.583-1.659-2.583-5.355 0-1.365.063-2.73.168-4.116h-1.344a71.953 71.953 0 0 0-.21 5.208c0 3.318 1.302 5.565 3.507 5.565ZM236.922 47.731h.084c3.822-1.743 5.754-6.174 5.754-10.773h-1.386c0 2.646-.798 6.867-3.864 8.967l-3.969-8.967h-1.575l4.956 10.773ZM249.585 47.731c1.323 0 2.856-.399 4.137-1.176v-1.302c-1.071.84-2.583 1.344-4.011 1.344-2.121 0-4.263-1.554-4.326-4.242h8.967c0-3.969-2.751-5.628-4.998-5.628-2.604 0-5.397 2.184-5.397 5.502 0 3.402 2.772 5.502 5.628 5.502Zm-4.137-6.321c.378-2.205 2.205-3.57 3.906-3.57 1.596 0 3.549 1.197 3.549 3.57h-7.455ZM256.305 47.5h1.365v-5.544c.735-2.415 1.722-4.011 3.087-4.011.672 0 1.449.399 2.331 1.281v-1.302c-.882-.798-1.659-1.197-2.394-1.197-1.134 0-2.121.966-2.982 2.835h-.042v-2.604h-1.365V47.5ZM264.747 47.5h1.365v-6.258c1.617-2.016 3.339-3.192 4.683-3.192 1.554 0 2.604 1.638 2.604 5.334V47.5h1.344v-4.032c0-6.174-2.205-6.741-3.507-6.741-1.428 0-3.213 1.008-5.082 3.024h-.042v-2.793h-1.365V47.5ZM282.093 47.731c1.323 0 2.856-.399 4.137-1.176v-1.302c-1.071.84-2.583 1.344-4.011 1.344-2.121 0-4.263-1.554-4.326-4.242h8.967c0-3.969-2.751-5.628-4.998-5.628-2.604 0-5.397 2.184-5.397 5.502 0 3.402 2.772 5.502 5.628 5.502Zm-4.137-6.321c.378-2.205 2.205-3.57 3.906-3.57 1.596 0 3.549 1.197 3.549 3.57h-7.455ZM288.813 47.5h1.365v-6.153c1.491-2.121 3.024-3.297 4.095-3.297 1.449 0 2.436 1.701 2.436 4.998V47.5h1.344v-6.552c2.016-2.268 3.192-2.898 4.263-2.898 1.596 0 2.31 2.247 2.31 4.998V47.5h1.344v-5.208c0-3.633-1.365-5.565-3.297-5.565-1.47 0-3.129 1.05-4.893 3.045-.567-2.121-1.722-3.045-3.087-3.045-1.365 0-3.087 1.323-4.473 3.024h-.042v-2.793h-1.365V47.5ZM313.32 47.731c1.323 0 2.856-.399 4.137-1.176v-1.302c-1.071.84-2.583 1.344-4.011 1.344-2.121 0-4.263-1.554-4.326-4.242h8.967c0-3.969-2.751-5.628-4.998-5.628-2.604 0-5.397 2.184-5.397 5.502 0 3.402 2.772 5.502 5.628 5.502Zm-4.137-6.321c.378-2.205 2.205-3.57 3.906-3.57 1.596 0 3.549 1.197 3.549 3.57h-7.455ZM320.04 47.5h1.365v-6.258c1.617-2.016 3.339-3.192 4.683-3.192 1.554 0 2.604 1.638 2.604 5.334V47.5h1.344v-4.032c0-6.174-2.205-6.741-3.507-6.741-1.428 0-3.213 1.008-5.082 3.024h-.042v-2.793h-1.365V47.5ZM335.727 47.731c.861 0 1.911-.441 2.919-1.407v-1.449c-.882 1.029-1.89 1.596-2.709 1.596-.987 0-1.722-.756-1.722-2.184v-6.195h4.431v-1.134h-4.431v-2.625h-1.344v2.625h-1.47v1.134h1.47v6.426c0 1.827 1.197 3.213 2.856 3.213ZM342.489 47.731c1.869 0 4.116-1.197 5.229-3.003h.042V47.5h1.344v-4.725c0-4.62-1.68-6.048-4.179-6.048-1.554 0-3.339.462-5.166 1.134v1.218c1.365-.588 3.381-1.218 4.977-1.218 1.407 0 2.562.483 2.814 1.806-5.313 1.05-7.812 3.108-7.812 5.334 0 1.827 1.176 2.73 2.751 2.73Zm-1.365-2.835c0-1.722 1.596-3.234 6.51-4.284.126.735.168 1.449.168 2.184-.42 2.163-3.066 3.864-4.914 3.864-1.008 0-1.764-.546-1.764-1.764ZM354.102 47.731c.882 0 1.869-.441 2.835-1.407v-1.428c-.882 1.029-1.869 1.575-2.646 1.575-.945 0-1.638-.756-1.638-2.163v-12.6h-1.344v12.747c0 1.911 1.218 3.276 2.793 3.276ZM358.071 50.062h1.029c1.134-1.05 1.659-2.163 1.659-3.066 0-.798-.399-1.365-1.05-1.365-.567 0-1.05.462-1.05 1.05 0 .903.987 1.008.987 1.344 0 .483-.672 1.26-1.575 2.037ZM4.095 79.231c.882 0 1.869-.441 2.835-1.407v-1.428c-.882 1.029-1.869 1.575-2.646 1.575-.945 0-1.638-.756-1.638-2.163v-12.6H1.302v12.747c0 1.911 1.218 3.276 2.793 3.276ZM13.587 79.231c1.323 0 2.856-.399 4.137-1.176v-1.302c-1.071.84-2.583 1.344-4.011 1.344-2.121 0-4.263-1.554-4.326-4.242h8.967c0-3.969-2.751-5.628-4.998-5.628-2.604 0-5.397 2.184-5.397 5.502 0 3.402 2.772 5.502 5.628 5.502ZM9.45 72.91c.378-2.205 2.205-3.57 3.906-3.57 1.596 0 3.549 1.197 3.549 3.57H9.45ZM25.704 79h1.428v-5.397h3.99c3.549 0 5.313-2.457 5.313-4.998 0-2.562-1.743-4.977-4.956-4.977h-5.775V79Zm1.428-6.531v-7.518h4.305c2.31 0 3.507 1.785 3.507 3.738 0 1.827-1.113 3.78-4.032 3.78h-3.78ZM43.239 79.231c3.192 0 5.397-2.562 5.397-5.523s-2.205-5.481-5.397-5.481-5.397 2.541-5.397 5.502 2.205 5.502 5.397 5.502Zm-3.927-5.502c0-2.709 1.617-4.368 3.927-4.368s3.927 1.638 3.927 4.347c0 2.73-1.617 4.389-3.927 4.389s-3.927-1.659-3.927-4.368ZM50.652 79h1.365v-5.544c.735-2.415 1.722-4.011 3.087-4.011.672 0 1.449.399 2.331 1.281v-1.302c-.882-.798-1.659-1.197-2.394-1.197-1.134 0-2.121.966-2.982 2.835h-.042v-2.604h-1.365V79ZM62.433 79.231c.861 0 1.911-.441 2.919-1.407v-1.449c-.882 1.029-1.89 1.596-2.709 1.596-.987 0-1.722-.756-1.722-2.184v-6.195h4.431v-1.134h-4.431v-2.625h-1.344v2.625h-1.47v1.134h1.47v6.426c0 1.827 1.197 3.213 2.856 3.213ZM71.736 79h1.575l.966-4.158h8.253c.399 1.449.609 2.877.609 4.158h1.512c0-6.615-5.628-15.603-8.925-15.603h-.042L71.736 79Zm2.814-5.355 1.953-8.442c2.352 1.407 4.494 4.872 5.67 8.442H74.55ZM89.901 79.231c1.428 0 3.213-1.008 5.082-3.024h.042V79h1.365V68.458h-1.365v6.258c-1.617 2.016-3.339 3.213-4.662 3.213-1.575 0-2.583-1.659-2.583-5.355 0-1.365.063-2.73.168-4.116h-1.344a71.953 71.953 0 0 0-.21 5.208c0 3.318 1.302 5.565 3.507 5.565ZM102.375 79.231c.861 0 1.911-.441 2.919-1.407v-1.449c-.882 1.029-1.89 1.596-2.709 1.596-.987 0-1.722-.756-1.722-2.184v-6.195h4.431v-1.134h-4.431v-2.625h-1.344v2.625h-1.47v1.134h1.47v6.426c0 1.827 1.197 3.213 2.856 3.213ZM107.142 79h1.365v-6.258c1.554-1.974 3.297-3.192 4.683-3.192 1.512 0 2.604 1.47 2.604 4.998V79h1.344v-5.208c0-3.318-1.302-5.565-3.507-5.565-1.428 0-3.213 1.008-5.082 3.024h-.042v-8.043h-1.365V79ZM124.257 79.231c3.192 0 5.397-2.562 5.397-5.523s-2.205-5.481-5.397-5.481-5.397 2.541-5.397 5.502 2.205 5.502 5.397 5.502Zm-3.927-5.502c0-2.709 1.617-4.368 3.927-4.368s3.927 1.638 3.927 4.347c0 2.73-1.617 4.389-3.927 4.389s-3.927-1.659-3.927-4.368ZM131.67 79h1.365v-5.544c.735-2.415 1.722-4.011 3.087-4.011.672 0 1.449.399 2.331 1.281v-1.302c-.882-.798-1.659-1.197-2.394-1.197-1.134 0-2.121.966-2.982 2.835h-.042v-2.604h-1.365V79ZM140.112 79h1.365V68.458h-1.365V79Zm-.462-13.272c0 .609.525 1.134 1.134 1.134.693 0 1.134-.525 1.134-1.134 0-.588-.441-1.134-1.134-1.134-.609 0-1.134.546-1.134 1.134ZM147.462 79.231c.861 0 1.911-.441 2.919-1.407v-1.449c-.882 1.029-1.89 1.596-2.709 1.596-.987 0-1.722-.756-1.722-2.184v-6.195h4.431v-1.134h-4.431v-2.625h-1.344v2.625h-1.47v1.134h1.47v6.426c0 1.827 1.197 3.213 2.856 3.213ZM156.114 83.431c3.318 0 5.166-1.323 5.166-7.203v-7.77h-1.344v5.754c-1.05 2.226-2.541 3.633-4.242 3.633-1.554 0-2.583-1.638-2.583-5.334 0-1.302.084-2.667.189-4.053h-1.344c-.126 1.743-.21 3.276-.21 5.019 0 3.318 1.281 5.565 3.612 5.565 1.617 0 3.297-1.071 4.536-2.814h.042c0 5.019-1.071 5.964-4.032 5.964-1.134 0-2.499-.462-3.99-1.302v1.302c1.596.84 3.003 1.239 4.2 1.239ZM169.155 79h5.04c3.864 0 5.628-2.289 5.628-4.557 0-1.827-1.176-3.633-3.423-4.053 1.386-.546 2.079-1.785 2.079-3.066 0-2.205-1.554-3.696-4.914-3.696h-4.41V79Zm1.428-1.176v-6.615h4.62c1.911 0 3.108 1.365 3.108 2.982 0 2.226-1.764 3.633-4.137 3.633h-3.591Zm0-7.812v-5.187h3.276c2.163 0 3.36.924 3.36 2.562 0 1.659-1.239 2.625-4.368 2.625h-2.268ZM184.989 79.231c1.428 0 3.213-1.008 5.082-3.024h.042V79h1.365V68.458h-1.365v6.258c-1.617 2.016-3.339 3.213-4.662 3.213-1.575 0-2.583-1.659-2.583-5.355 0-1.365.063-2.73.168-4.116h-1.344a71.953 71.953 0 0 0-.21 5.208c0 3.318 1.302 5.565 3.507 5.565ZM194.124 79h1.365V68.458h-1.365V79Zm-.462-13.272c0 .609.525 1.134 1.134 1.134.693 0 1.134-.525 1.134-1.134 0-.588-.441-1.134-1.134-1.134-.609 0-1.134.546-1.134 1.134ZM200.907 79.231c.882 0 1.869-.441 2.835-1.407v-1.428c-.882 1.029-1.869 1.575-2.646 1.575-.945 0-1.638-.756-1.638-2.163v-12.6h-1.344v12.747c0 1.911 1.218 3.276 2.793 3.276ZM209.349 79.21c1.554 0 3.402-.882 4.494-2.814h.042V79h1.26V63.208h-1.26v7.833h-.042c-1.134-1.932-2.94-2.793-4.452-2.793-2.562 0-4.62 2.289-4.62 5.481 0 3.255 2.058 5.481 4.578 5.481Zm-3.15-5.481c0-2.793 1.659-4.368 3.486-4.368 1.596 0 4.074 1.575 4.074 4.368s-2.478 4.368-4.074 4.368c-1.827 0-3.486-1.575-3.486-4.368ZM217.812 79h1.365V68.458h-1.365V79Zm-.462-13.272c0 .609.525 1.134 1.134 1.134.693 0 1.134-.525 1.134-1.134 0-.588-.441-1.134-1.134-1.134-.609 0-1.134.546-1.134 1.134ZM221.823 79h1.365v-6.258c1.617-2.016 3.339-3.192 4.683-3.192 1.554 0 2.604 1.638 2.604 5.334V79h1.344v-4.032c0-6.174-2.205-6.741-3.507-6.741-1.428 0-3.213 1.008-5.082 3.024h-.042v-2.793h-1.365V79ZM238.119 76.144c2.73 0 4.641-1.722 4.641-3.927 0-1.113-.504-2.121-1.344-2.835l2.877.105v-1.029l-5.649-.189c-.168-.021-.357-.021-.525-.021-2.73 0-4.662 1.764-4.662 3.948 0 1.155.525 2.163 1.386 2.877-.903.609-1.302 1.134-1.302 1.785 0 .735.399 1.239 1.092 1.575-.777.672-1.197 1.428-1.197 2.142 0 1.512 1.827 2.856 5.019 2.856 3.423 0 4.977-1.428 4.977-2.751 0-1.26-1.281-2.604-3.843-2.604-3.696 0-4.977-.567-4.977-1.302 0-.504.483-.903 1.008-1.197a5.547 5.547 0 0 0 2.499.567Zm-3.276-3.927c0-1.911 1.512-2.94 3.276-2.94 1.743 0 3.255 1.029 3.255 2.94 0 1.89-1.512 2.898-3.255 2.898-1.764 0-3.276-1.008-3.276-2.898Zm.063 8.337c0-.63.399-1.281 1.029-1.701.861.168 1.911.231 3.066.231 1.869 0 2.982.777 2.982 1.68 0 .861-1.071 1.722-3.528 1.722-2.604 0-3.549-.945-3.549-1.932ZM245.196 81.562h1.029c1.134-1.05 1.659-2.163 1.659-3.066 0-.798-.399-1.365-1.05-1.365-.567 0-1.05.462-1.05 1.05 0 .903.987 1.008.987 1.344 0 .483-.672 1.26-1.575 2.037ZM260.022 79.231c3.192 0 5.397-2.562 5.397-5.523s-2.205-5.481-5.397-5.481-5.397 2.541-5.397 5.502 2.205 5.502 5.397 5.502Zm-3.927-5.502c0-2.709 1.617-4.368 3.927-4.368s3.927 1.638 3.927 4.347c0 2.73-1.617 4.389-3.927 4.389s-3.927-1.659-3.927-4.368ZM270.648 79.231c1.428 0 3.213-1.008 5.082-3.024h.042V79h1.365V68.458h-1.365v6.258c-1.617 2.016-3.339 3.213-4.662 3.213-1.575 0-2.583-1.659-2.583-5.355 0-1.365.063-2.73.168-4.116h-1.344a71.953 71.953 0 0 0-.21 5.208c0 3.318 1.302 5.565 3.507 5.565ZM285.18 79h1.428v-7.392h8.925V79h1.428V63.628h-1.428v6.657h-8.925v-6.657h-1.428zM301.749 79.231c1.869 0 4.116-1.197 5.229-3.003h.042V79h1.344v-4.725c0-4.62-1.68-6.048-4.179-6.048-1.554 0-3.339.462-5.166 1.134v1.218c1.365-.588 3.381-1.218 4.977-1.218 1.407 0 2.562.483 2.814 1.806-5.313 1.05-7.812 3.108-7.812 5.334 0 1.827 1.176 2.73 2.751 2.73Zm-1.365-2.835c0-1.722 1.596-3.234 6.51-4.284.126.735.168 1.449.168 2.184-.42 2.163-3.066 3.864-4.914 3.864-1.008 0-1.764-.546-1.764-1.764ZM314.517 79.231h.084c3.822-1.743 5.754-6.174 5.754-10.773h-1.386c0 2.646-.798 6.867-3.864 8.967l-3.969-8.967h-1.575l4.956 10.773ZM327.18 79.231c1.323 0 2.856-.399 4.137-1.176v-1.302c-1.071.84-2.583 1.344-4.011 1.344-2.121 0-4.263-1.554-4.326-4.242h8.967c0-3.969-2.751-5.628-4.998-5.628-2.604 0-5.397 2.184-5.397 5.502 0 3.402 2.772 5.502 5.628 5.502Zm-4.137-6.321c.378-2.205 2.205-3.57 3.906-3.57 1.596 0 3.549 1.197 3.549 3.57h-7.455ZM333.9 79h1.365v-6.258c1.617-2.016 3.339-3.192 4.683-3.192 1.554 0 2.604 1.638 2.604 5.334V79h1.344v-4.032c0-6.174-2.205-6.741-3.507-6.741-1.428 0-3.213 1.008-5.082 3.024h-.042v-2.793H333.9V79ZM346.248 79h1.365v-6.258c1.554-1.974 3.297-3.192 4.683-3.192 1.512 0 2.604 1.47 2.604 4.998V79h1.344v-5.208c0-3.318-1.302-5.565-3.507-5.565-1.428 0-3.213 1.008-5.082 3.024h-.042v-8.043h-1.365V79ZM361.809 79.231c1.428 0 3.213-1.008 5.082-3.024h.042V79h1.365V68.458h-1.365v6.258c-1.617 2.016-3.339 3.213-4.662 3.213-1.575 0-2.583-1.659-2.583-5.355 0-1.365.063-2.73.168-4.116h-1.344a71.953 71.953 0 0 0-.21 5.208c0 3.318 1.302 5.565 3.507 5.565ZM370.944 79h1.365V68.458h-1.365V79Zm-.462-13.272c0 .609.525 1.134 1.134 1.134.693 0 1.134-.525 1.134-1.134 0-.588-.441-1.134-1.134-1.134-.609 0-1.134.546-1.134 1.134ZM378.378 79.231c2.289 0 4.452-.819 4.452-2.688 0-1.68-2.121-2.583-4.074-3.297-1.659-.609-3.234-1.365-3.234-2.541 0-.903.882-1.344 2.1-1.344 1.596 0 3.717.84 4.788 1.575v-1.302c-1.071-.777-3.045-1.407-4.767-1.407-1.848 0-3.444.714-3.444 2.499 0 1.932 2.121 2.877 4.242 3.633 1.638.588 3.108 1.197 3.108 2.268 0 .945-1.407 1.47-3.003 1.47-1.617 0-3.402-.567-4.368-1.134v1.302c1.071.609 2.646.966 4.2.966ZM384.069 81.562h1.029c1.134-1.05 1.659-2.163 1.659-3.066 0-.798-.399-1.365-1.05-1.365-.567 0-1.05.462-1.05 1.05 0 .903.987 1.008.987 1.344 0 .483-.672 1.26-1.575 2.037ZM3.318 110.731c1.869 0 4.116-1.197 5.229-3.003h.042v2.772h1.344v-4.725c0-4.62-1.68-6.048-4.179-6.048-1.554 0-3.339.462-5.166 1.134v1.218c1.365-.588 3.381-1.218 4.977-1.218 1.407 0 2.562.483 2.814 1.806-5.313 1.05-7.812 3.108-7.812 5.334 0 1.827 1.176 2.73 2.751 2.73Zm-1.365-2.835c0-1.722 1.596-3.234 6.51-4.284.126.735.168 1.449.168 2.184-.42 2.163-3.066 3.864-4.914 3.864-1.008 0-1.764-.546-1.764-1.764Zm.798-11.046c1.68.882 3.36 1.638 5.271 2.394l.126-.777a65.767 65.767 0 0 1-5.208-2.751l-.189 1.134ZM16.695 110.5h1.575l.966-4.158h8.253c.399 1.449.609 2.877.609 4.158h1.512c0-6.615-5.628-15.603-8.925-15.603h-.042L16.695 110.5Zm2.814-5.355 1.953-8.442c2.352 1.407 4.494 4.872 5.67 8.442h-7.623ZM31.647 110.5h1.365v-6.258c1.617-2.016 3.339-3.192 4.683-3.192 1.554 0 2.604 1.638 2.604 5.334v4.116h1.344v-4.032c0-6.174-2.205-6.741-3.507-6.741-1.428 0-3.213 1.008-5.082 3.024h-.042v-2.793h-1.365V110.5ZM47.922 110.731h.084c3.822-1.743 5.754-6.174 5.754-10.773h-1.386c0 2.646-.798 6.867-3.864 8.967l-3.969-8.967h-1.575l4.956 10.773ZM60.585 110.731c1.323 0 2.856-.399 4.137-1.176v-1.302c-1.071.84-2.583 1.344-4.011 1.344-2.121 0-4.263-1.554-4.326-4.242h8.967c0-3.969-2.751-5.628-4.998-5.628-2.604 0-5.397 2.184-5.397 5.502 0 3.402 2.772 5.502 5.628 5.502Zm-4.137-6.321c.378-2.205 2.205-3.57 3.906-3.57 1.596 0 3.549 1.197 3.549 3.57h-7.455ZM67.305 110.5h1.365v-5.544c.735-2.415 1.722-4.011 3.087-4.011.672 0 1.449.399 2.331 1.281v-1.302c-.882-.798-1.659-1.197-2.394-1.197-1.134 0-2.121.966-2.982 2.835h-.042v-2.604h-1.365V110.5ZM79.17 110.731c2.289 0 4.452-.819 4.452-2.688 0-1.68-2.121-2.583-4.074-3.297-1.659-.609-3.234-1.365-3.234-2.541 0-.903.882-1.344 2.1-1.344 1.596 0 3.717.84 4.788 1.575v-1.302c-1.071-.777-3.045-1.407-4.767-1.407-1.848 0-3.444.714-3.444 2.499 0 1.932 2.121 2.877 4.242 3.633 1.638.588 3.108 1.197 3.108 2.268 0 .945-1.407 1.47-3.003 1.47-1.617 0-3.402-.567-4.368-1.134v1.302c1.071.609 2.646.966 4.2.966ZM84.861 113.062h1.029c1.134-1.05 1.659-2.163 1.659-3.066 0-.798-.399-1.365-1.05-1.365-.567 0-1.05.462-1.05 1.05 0 .903.987 1.008.987 1.344 0 .483-.672 1.26-1.575 2.037ZM99.918 110.731c1.323 0 2.856-.399 4.137-1.176v-1.302c-1.071.84-2.583 1.344-4.011 1.344-2.121 0-4.263-1.554-4.326-4.242h8.967c0-3.969-2.751-5.628-4.998-5.628-2.604 0-5.397 2.184-5.397 5.502 0 3.402 2.772 5.502 5.628 5.502Zm-4.137-6.321c.378-2.205 2.205-3.57 3.906-3.57 1.596 0 3.549 1.197 3.549 3.57h-7.455ZM106.638 110.5h1.365v-6.258c1.617-2.016 3.339-3.192 4.683-3.192 1.554 0 2.604 1.638 2.604 5.334v4.116h1.344v-4.032c0-6.174-2.205-6.741-3.507-6.741-1.428 0-3.213 1.008-5.082 3.024h-.042v-2.793h-1.365V110.5ZM124.383 110.5h5.04c3.864 0 5.628-2.289 5.628-4.557 0-1.827-1.176-3.633-3.423-4.053 1.386-.546 2.079-1.785 2.079-3.066 0-2.205-1.554-3.696-4.914-3.696h-4.41V110.5Zm1.428-1.176v-6.615h4.62c1.911 0 3.108 1.365 3.108 2.982 0 2.226-1.764 3.633-4.137 3.633h-3.591Zm0-7.812v-5.187h3.276c2.163 0 3.36.924 3.36 2.562 0 1.659-1.239 2.625-4.368 2.625h-2.268ZM142.002 110.731c1.323 0 2.856-.399 4.137-1.176v-1.302c-1.071.84-2.583 1.344-4.011 1.344-2.121 0-4.263-1.554-4.326-4.242h8.967c0-3.969-2.751-5.628-4.998-5.628-2.604 0-5.397 2.184-5.397 5.502 0 3.402 2.772 5.502 5.628 5.502Zm-4.137-6.321c.378-2.205 2.205-3.57 3.906-3.57 1.596 0 3.549 1.197 3.549 3.57h-7.455ZM151.494 110.731c.882 0 1.869-.441 2.835-1.407v-1.428c-.882 1.029-1.869 1.575-2.646 1.575-.945 0-1.638-.756-1.638-2.163v-12.6h-1.344v12.747c0 1.911 1.218 3.276 2.793 3.276ZM159.936 107.644c2.73 0 4.641-1.722 4.641-3.927 0-1.113-.504-2.121-1.344-2.835l2.877.105v-1.029l-5.649-.189c-.168-.021-.357-.021-.525-.021-2.73 0-4.662 1.764-4.662 3.948 0 1.155.525 2.163 1.386 2.877-.903.609-1.302 1.134-1.302 1.785 0 .735.399 1.239 1.092 1.575-.777.672-1.197 1.428-1.197 2.142 0 1.512 1.827 2.856 5.019 2.856 3.423 0 4.977-1.428 4.977-2.751 0-1.26-1.281-2.604-3.843-2.604-3.696 0-4.977-.567-4.977-1.302 0-.504.483-.903 1.008-1.197a5.547 5.547 0 0 0 2.499.567Zm-3.276-3.927c0-1.911 1.512-2.94 3.276-2.94 1.743 0 3.255 1.029 3.255 2.94 0 1.89-1.512 2.898-3.255 2.898-1.764 0-3.276-1.008-3.276-2.898Zm.063 8.337c0-.63.399-1.281 1.029-1.701.861.168 1.911.231 3.066.231 1.869 0 2.982.777 2.982 1.68 0 .861-1.071 1.722-3.528 1.722-2.604 0-3.549-.945-3.549-1.932ZM167.538 110.5h1.365V99.958h-1.365V110.5Zm-.462-13.272c0 .609.525 1.134 1.134 1.134.693 0 1.134-.525 1.134-1.134 0-.588-.441-1.134-1.134-1.134-.609 0-1.134.546-1.134 1.134ZM180.033 114.7h1.26V99.958h-1.26v2.604h-.042c-1.113-1.932-2.898-2.814-4.452-2.814-2.52 0-4.62 2.247-4.62 5.481 0 3.108 1.932 5.481 4.578 5.481 1.512 0 3.381-.84 4.494-2.814h.042v6.804Zm-7.686-9.471c0-2.793 1.68-4.368 3.486-4.368 1.596 0 4.074 1.575 4.074 4.368 0 2.772-2.478 4.368-4.074 4.368-1.806 0-3.486-1.596-3.486-4.368ZM187.173 110.731c1.428 0 3.213-1.008 5.082-3.024h.042v2.793h1.365V99.958h-1.365v6.258c-1.617 2.016-3.339 3.213-4.662 3.213-1.575 0-2.583-1.659-2.583-5.355 0-1.365.063-2.73.168-4.116h-1.344a71.953 71.953 0 0 0-.21 5.208c0 3.318 1.302 5.565 3.507 5.565ZM201.306 110.731c1.323 0 2.856-.399 4.137-1.176v-1.302c-1.071.84-2.583 1.344-4.011 1.344-2.121 0-4.263-1.554-4.326-4.242h8.967c0-3.969-2.751-5.628-4.998-5.628-2.604 0-5.397 2.184-5.397 5.502 0 3.402 2.772 5.502 5.628 5.502Zm-4.137-6.321c.378-2.205 2.205-3.57 3.906-3.57 1.596 0 3.549 1.197 3.549 3.57h-7.455ZM207.501 113.062h1.029c1.134-1.05 1.659-2.163 1.659-3.066 0-.798-.399-1.365-1.05-1.365-.567 0-1.05.462-1.05 1.05 0 .903.987 1.008.987 1.344 0 .483-.672 1.26-1.575 2.037ZM219.555 110.731c1.869 0 4.116-1.197 5.229-3.003h.042v2.772h1.344v-4.725c0-4.62-1.68-6.048-4.179-6.048-1.554 0-3.339.462-5.166 1.134v1.218c1.365-.588 3.381-1.218 4.977-1.218 1.407 0 2.562.483 2.814 1.806-5.313 1.05-7.812 3.108-7.812 5.334 0 1.827 1.176 2.73 2.751 2.73Zm-1.365-2.835c0-1.722 1.596-3.234 6.51-4.284.126.735.168 1.449.168 2.184-.42 2.163-3.066 3.864-4.914 3.864-1.008 0-1.764-.546-1.764-1.764ZM232.911 110.731c1.134 0 2.394-.357 3.759-1.176v-1.26c-1.281.882-2.478 1.26-3.486 1.26-2.478 0-3.948-2.163-3.948-4.326 0-2.184 1.386-4.326 3.885-4.326 1.008 0 2.205.378 3.549 1.26v-1.26c-1.344-.819-2.604-1.176-3.738-1.176-3.066 0-5.166 2.709-5.166 5.502 0 2.772 2.016 5.502 5.145 5.502ZM238.56 110.5h1.365v-6.258c1.554-1.974 3.297-3.192 4.683-3.192 1.512 0 2.604 1.47 2.604 4.998v4.452h1.344v-5.208c0-3.318-1.302-5.565-3.507-5.565-1.428 0-3.213 1.008-5.082 3.024h-.042v-8.043h-1.365V110.5ZM255.906 110.731c1.323 0 2.856-.399 4.137-1.176v-1.302c-1.071.84-2.583 1.344-4.011 1.344-2.121 0-4.263-1.554-4.326-4.242h8.967c0-3.969-2.751-5.628-4.998-5.628-2.604 0-5.397 2.184-5.397 5.502 0 3.402 2.772 5.502 5.628 5.502Zm-4.137-6.321c.378-2.205 2.205-3.57 3.906-3.57 1.596 0 3.549 1.197 3.549 3.57h-7.455ZM266.553 110.731h.084c3.822-1.743 5.754-6.174 5.754-10.773h-1.386c0 2.646-.798 6.867-3.864 8.967l-3.969-8.967h-1.575l4.956 10.773ZM279.216 110.731c1.323 0 2.856-.399 4.137-1.176v-1.302c-1.071.84-2.583 1.344-4.011 1.344-2.121 0-4.263-1.554-4.326-4.242h8.967c0-3.969-2.751-5.628-4.998-5.628-2.604 0-5.397 2.184-5.397 5.502 0 3.402 2.772 5.502 5.628 5.502Zm-4.137-6.321c.378-2.205 2.205-3.57 3.906-3.57 1.596 0 3.549 1.197 3.549 3.57h-7.455Zm.672-5.964.126.777a53.102 53.102 0 0 0 5.271-2.352l-.168-1.155c-1.827 1.05-3.423 1.911-5.229 2.73ZM296.184 110.731c1.323 0 2.856-.399 4.137-1.176v-1.302c-1.071.84-2.583 1.344-4.011 1.344-2.121 0-4.263-1.554-4.326-4.242h8.967c0-3.969-2.751-5.628-4.998-5.628-2.604 0-5.397 2.184-5.397 5.502 0 3.402 2.772 5.502 5.628 5.502Zm-4.137-6.321c.378-2.205 2.205-3.57 3.906-3.57 1.596 0 3.549 1.197 3.549 3.57h-7.455ZM302.904 110.5h1.365v-6.258c1.617-2.016 3.339-3.192 4.683-3.192 1.554 0 2.604 1.638 2.604 5.334v4.116h1.344v-4.032c0-6.174-2.205-6.741-3.507-6.741-1.428 0-3.213 1.008-5.082 3.024h-.042v-2.793h-1.365V110.5ZM319.956 109.807v.693h10.164v-1.323h-8.463v-.084c.168-4.242 8.442-6.279 8.442-10.458 0-2.52-2.037-3.738-4.515-3.738-1.869 0-3.969.735-5.628 2.016v1.407c1.512-1.26 3.717-2.121 5.523-2.121 1.743 0 3.129.798 3.129 2.436 0 4.032-8.652 5.481-8.652 11.172ZM337.134 110.731c3.612 0 5.46-3.969 5.46-7.896 0-3.948-1.848-7.896-5.46-7.896-3.591 0-5.439 3.948-5.439 7.896 0 3.927 1.848 7.896 5.439 7.896Zm-3.843-7.896c0-4.473 1.701-6.573 3.843-6.573 2.163 0 3.864 2.1 3.864 6.573 0 4.494-1.701 6.573-3.864 6.573-2.142 0-3.843-2.079-3.843-6.573ZM348.642 110.5h1.449V95.128h-1.449l-4.683 1.848v1.302l4.578-1.785h.105zM357.798 110.731c3.234 0 5.481-2.541 5.481-5.481 0-3.045-2.331-5.397-5.313-5.397-1.932 0-3.57 1.155-4.452 2.667.882-3.801 2.52-6.3 7.812-6.3v-1.323c-6.762 0-9.051 4.263-9.051 9.135 0 4.011 2.289 6.699 5.523 6.699Zm-3.843-5.481c0-2.541 1.512-4.368 3.843-4.368s3.99 1.722 3.99 4.347c0 2.625-1.659 4.389-3.99 4.389-2.331 0-3.843-1.785-3.843-4.368ZM365.757 110.731c.609 0 1.05-.504 1.05-1.029 0-.546-.441-1.05-1.05-1.05a1.04 1.04 0 1 0 0 2.079Z"/></g></svg>