<svg xmlns="http://www.w3.org/2000/svg" width="575" height="312"><g fill="#424345" fill-rule="nonzero"><path d="M1.44 56h17.568c-.936-4.176-1.728-8.424-2.304-12.6h15.12c11.088 0 12.888 1.08 12.888 4.176 0 2.808-.648 5.112-1.944 8.424h5.04c0-22.68-3.096-42.264-29.592-53.64h-.36L1.44 56Zm13.752-31.968c14.328.432 23.04 7.632 28.44 16.848H16.344c-.72-5.616-1.08-11.232-1.152-16.848ZM95.976 52.976c7.92 0 16.272-5.04 17.784-14.04.936-4.104 1.584-9.936 1.584-13.824 0-4.248-.36-8.928-.936-14.112h-5.04c2.592 5.688 3.6 12.096 3.6 17.712v1.08c-2.592-7.128-9.72-10.872-17.352-10.872-8.712 0-17.568 5.976-17.568 17.064 0 5.688 2.736 11.016 7.632 14.184-4.824 2.592-7.056 6.192-7.056 9.72 0 5.976 6.408 11.592 17.424 11.592 5.76 0 10.224-.36 19.296-3.528v-14.4c-4.752 2.304-12.96 4.32-20.304 4.32-5.112 0-9.288-.936-10.44-3.456.864-1.008 2.376-1.944 4.464-2.592a21.075 21.075 0 0 0 6.912 1.152Zm-15.552-18.36c0-.648 10.224-3.6 19.368-3.6 6.48 0 11.808 1.44 11.808 6.336 0 .648-10.944 3.6-20.016 3.6-6.48 0-11.16-1.44-11.16-6.336ZM122.904 56h2.52c0-.72 0-1.368.072-2.016 1.44-12.96 8.568-18.936 16.128-18.936 3.024 0 6.336.576 8.928 1.8v-14.4c-1.296-1.656-4.32-3.528-7.128-3.528-6.12 0-12.744 4.752-17.424 15.48h-.216c0-4.824.864-9.576 2.16-14.4h-5.04c.216 6.048.36 12.024.36 18 0 5.976-.144 12.024-.36 18ZM174.96 57.08c13.464 0 20.16-9.648 20.16-19.08 0-9.504-6.696-19.08-20.16-19.08S154.872 28.496 154.872 38c0 9.432 6.624 19.08 20.088 19.08Zm-17.496-20.664c0-.72 11.736-4.032 22.176-4.032 7.56 0 12.816 1.656 12.816 7.2 0 .72-11.736 4.032-22.176 4.032-7.56 0-12.816-1.656-12.816-7.2ZM216.576 57.08c6.12 0 12.744-4.752 17.424-15.48h.216c0 4.824-.864 9.576-2.16 14.4h5.04c-.216-6.048-.36-12.024-.36-18 0-5.976.144-12.024.36-18h-2.52c0 14.4-8.28 20.952-16.2 20.952-7.416 0-14.472-5.616-14.472-15.696 0-1.656.144-3.456.504-5.256h-2.52c-1.224 4.248-1.728 8.208-1.728 11.952 0 15.696 7.704 25.128 16.416 25.128ZM245.736 70.4h5.04c-1.584-9.432-2.088-14.688-2.088-24.12h.216c4.896 10.224 13.104 10.8 17.28 10.8 10.296 0 20.16-7.056 20.16-19.08 0-11.952-9.864-19.08-19.872-19.08-6.912 0-13.896 3.384-17.784 10.8h-.216c.36-3.24 1.08-6.48 2.304-9.72h-5.04a735.378 735.378 0 0 1 0 50.4Zm3.024-33.984c6.408-2.376 12.24-4.032 22.68-4.032 7.56 0 12.816 1.656 12.816 7.2-5.256 2.376-12.24 4.032-22.68 4.032-7.56 0-12.816-1.656-12.816-7.2ZM335.952 57.08c13.464 0 20.16-9.648 20.16-19.08 0-9.504-6.696-19.08-20.16-19.08S315.864 28.496 315.864 38c0 9.432 6.624 19.08 20.088 19.08Zm-17.496-20.664c0-.72 11.736-4.032 22.176-4.032 7.56 0 12.816 1.656 12.816 7.2 0 .72-11.736 4.032-22.176 4.032-7.56 0-12.816-1.656-12.816-7.2ZM364.032 56H374.4c-4.824-7.848-7.272-22.248-7.272-29.232 0-1.368.36-1.8 1.512-1.8 1.296 0 6.336 1.368 19.296 11.88v-14.4h-20.664c.864-3.888 4.968-6.984 9.72-6.984 3.888 0 8.136 1.872 10.944 4.176V5.24c-2.664-1.8-7.632-4.32-10.728-4.32-8.856 0-11.808 7.776-12.456 21.528h-5.04v5.112a71.83 71.83 0 0 1 4.968-2.016c-.072 1.296-.072 2.736-.072 4.176 0 7.272-.144 14.472-.576 26.28ZM5.76 136h10.368c-4.824-7.848-7.272-22.248-7.272-29.232 0-1.368.36-1.8 1.512-1.8 1.296 0 6.336 1.368 19.296 11.88v-14.4H9c.864-3.888 4.968-6.984 9.72-6.984 3.888 0 8.136 1.872 10.944 4.176v-14.4c-2.664-1.8-7.632-4.32-10.728-4.32-8.856 0-11.808 7.776-12.456 21.528H1.44v5.112a71.83 71.83 0 0 1 4.968-2.016c-.072 1.296-.072 2.736-.072 4.176 0 7.272-.144 14.472-.576 26.28ZM47.664 137.08c3.096 0 8.064-2.52 10.728-4.32v-14.4c-2.016 1.368-6.048 2.808-10.008 2.808-5.472 0-10.8-2.736-10.8-12.024 0-10.8.72-16.344 2.16-27.144h-5.04c.36 9 .36 17.28.36 26.28 0 18.216 2.304 28.8 12.6 28.8ZM78.84 137.08c9.072 0 13.176-4.32 19.44-15.48h.216c0 4.824-.792 9.576-2.52 14.4h5.04v-19.656c0-12.096-5.328-17.424-17.352-17.424-5.76 0-10.44.72-19.512 3.528v14.4c8.856-5.472 19.296-8.496 26.28-8.496 4.248 0 6.624 1.296 7.416 3.168-20.52 3.744-33.696 8.28-33.696 9.648 0 9.72 4.824 15.912 14.688 15.912Zm-3.168-17.496c0-.648 8.496-3.456 22.32-5.256-.792 4.536-5.616 10.008-15.624 10.008-3.816 0-6.696-1.368-6.696-4.752ZM108.936 136h2.52c0-13.896 7.848-20.808 15.12-20.808 6.336 0 12.168 5.184 12.168 15.552 0 1.656-.144 3.456-.504 5.256h2.448c0-13.896 7.848-20.808 15.12-20.808 6.336 0 12.168 5.184 12.168 15.552 0 1.656-.144 3.456-.504 5.256h2.52c1.224-4.248 1.728-8.208 1.728-11.952 0-14.688-6.336-25.056-14.184-25.056-4.536 0-11.16 4.752-16.2 14.616-2.232-8.928-7.2-14.616-13.032-14.616-5.184 0-11.088 4.536-16.272 15.408h-.216c0-4.824.864-9.576 2.16-14.4h-5.04c.216 6.048.36 12.024.36 18 0 5.976-.144 12.024-.36 18ZM178.92 136h10.368c-3.24-3.384-7.488-10.728-7.488-15.264 0-8.568 12.096-10.44 12.096-20.736H178.92c.36 5.976.36 11.952.36 18s0 11.952-.36 18Zm.288-47.664c0 3.816 2.592 6.624 6.408 6.624 5.112 0 7.992-3.456 7.992-7.2 0-3.096-2.592-6.84-7.416-6.84-4.392 0-6.984 3.528-6.984 7.416ZM199.296 136h2.52c0-14.4 8.28-20.952 16.2-20.952 7.416 0 14.472 5.616 14.472 15.696 0 1.656-.144 3.456-.504 5.256h2.52c1.224-4.248 1.728-8.208 1.728-11.952 0-15.696-7.704-25.128-16.416-25.128-6.12 0-12.744 4.752-17.424 15.48h-.216c0-4.824.864-9.576 2.16-14.4h-5.04c.216 6.048.36 12.024.36 18 0 5.976-.144 12.024-.36 18ZM259.2 132.976c7.92 0 16.272-5.04 17.784-14.04.936-4.104 1.584-9.936 1.584-13.824 0-4.248-.36-8.928-.936-14.112h-5.04c2.592 5.688 3.6 12.096 3.6 17.712v1.08c-2.592-7.128-9.72-10.872-17.352-10.872-8.712 0-17.568 5.976-17.568 17.064 0 5.688 2.736 11.016 7.632 14.184-4.824 2.592-7.056 6.192-7.056 9.72 0 5.976 6.408 11.592 17.424 11.592 5.76 0 10.224-.36 19.296-3.528v-14.4c-4.752 2.304-12.96 4.32-20.304 4.32-5.112 0-9.288-.936-10.44-3.456.864-1.008 2.376-1.944 4.464-2.592a21.075 21.075 0 0 0 6.912 1.152Zm-15.552-18.36c0-.648 10.224-3.6 19.368-3.6 6.48 0 11.808 1.44 11.808 6.336 0 .648-10.944 3.6-20.016 3.6-6.48 0-11.16-1.44-11.16-6.336ZM304.056 137.08c13.464 0 20.16-9.648 20.16-19.08 0-9.504-6.696-19.08-20.16-19.08s-20.088 9.576-20.088 19.08c0 9.432 6.624 19.08 20.088 19.08Zm-17.496-20.664c0-.72 11.736-4.032 22.176-4.032 7.56 0 12.816 1.656 12.816 7.2 0 .72-11.736 4.032-22.176 4.032-7.56 0-12.816-1.656-12.816-7.2ZM348.624 137.08c5.904 0 10.944-.648 16.344-3.528v-13.32c-6.768 2.16-13.608 3.384-21.024 3.384-2.88 0-5.4-.576-7.416-1.44l28.44-7.344c-1.584-11.304-8.64-15.912-16.2-15.912-9.72 0-20.232 7.848-20.232 19.08 0 12.456 9.432 19.08 20.088 19.08Zm-17.28-20.808c0-3.96 5.904-6.048 11.592-6.048 4.824 0 9.504 1.44 10.44 4.608-5.472 1.944-11.52 3.24-20.736 4.608-.864-1.008-1.296-2.088-1.296-3.168ZM389.736 137.08c7.128 0 16.2-1.512 16.2-10.872 0-6.696-5.184-9.72-14.4-9.72-13.608 0-17.208-.72-17.208-4.608 3.744-.864 7.272-1.368 10.584-1.368 6.696 0 12.744 1.944 18.864 6.336v-14.4c-5.544-2.304-9.72-3.528-15.408-3.528-10.8 0-16.92 5.976-16.92 11.52 0 5.472 3.6 8.496 11.952 8.496h4.896c6.696 0 13.536.36 13.536 4.032-2.16.504-4.896.792-7.92.792-7.488 0-16.632-1.728-21.888-5.544v14.472c5.76 2.736 11.088 4.392 17.712 4.392ZM4.32 216h10.368c-3.24-3.384-7.488-10.728-7.488-15.264 0-8.568 12.096-10.44 12.096-20.736H4.32c.36 5.976.36 11.952.36 18s0 11.952-.36 18Zm.288-47.664c0 3.816 2.592 6.624 6.408 6.624 5.112 0 7.992-3.456 7.992-7.2 0-3.096-2.592-6.84-7.416-6.84-4.392 0-6.984 3.528-6.984 7.416ZM41.904 217.08c7.128 0 16.2-1.512 16.2-10.872 0-6.696-5.184-9.72-14.4-9.72-13.608 0-17.208-.72-17.208-4.608 3.744-.864 7.272-1.368 10.584-1.368 6.696 0 12.744 1.944 18.864 6.336v-14.4c-5.544-2.304-9.72-3.528-15.408-3.528-10.8 0-16.92 5.976-16.92 11.52 0 5.472 3.6 8.496 11.952 8.496h4.896c6.696 0 13.536.36 13.536 4.032-2.16.504-4.896.792-7.92.792-7.488 0-16.632-1.728-21.888-5.544v14.472c5.76 2.736 11.088 4.392 17.712 4.392ZM106.992 217.08c5.112 0 10.728-.576 16.344-3.528v-13.32c-6.192 2.016-13.608 3.384-19.944 3.384-8.496 0-12.816-2.016-12.816-7.344 3.96-2.232 8.28-3.888 17.064-3.888 4.464 0 11.016 1.152 15.696 3.384v-13.32c-5.616-2.952-10.584-3.528-15.696-3.528-11.736 0-19.656 7.272-19.656 19.08 0 12.456 8.352 19.08 19.008 19.08ZM145.944 217.08c9.072 0 13.176-4.32 19.44-15.48h.216c0 4.824-.792 9.576-2.52 14.4h5.04v-19.656c0-12.096-5.328-17.424-17.352-17.424-5.76 0-10.44.72-19.512 3.528v14.4c8.856-5.472 19.296-8.496 26.28-8.496 4.248 0 6.624 1.296 7.416 3.168-20.52 3.744-33.696 8.28-33.696 9.648 0 9.72 4.824 15.912 14.688 15.912Zm-3.168-17.496c0-.648 8.496-3.456 22.32-5.256-.792 4.536-5.616 10.008-15.624 10.008-3.816 0-6.696-1.368-6.696-4.752ZM187.92 217.08c3.096 0 8.064-2.52 10.728-4.32v-14.4c-2.016 1.368-6.048 2.808-10.008 2.808-5.472 0-10.8-2.736-10.8-12.024 0-10.8.72-16.344 2.16-27.144h-5.04c.36 9 .36 17.28.36 26.28 0 18.216 2.304 28.8 12.6 28.8ZM217.008 217.08c3.096 0 8.064-2.52 10.728-4.32v-14.4c-2.016 1.368-6.048 2.808-10.008 2.808-5.472 0-10.8-2.736-10.8-12.024 0-10.8.72-16.344 2.16-27.144h-5.04c.36 9 .36 17.28.36 26.28 0 18.216 2.304 28.8 12.6 28.8ZM252.144 217.08c5.904 0 10.944-.648 16.344-3.528v-13.32c-6.768 2.16-13.608 3.384-21.024 3.384-2.88 0-5.4-.576-7.416-1.44l28.44-7.344c-1.584-11.304-8.64-15.912-16.2-15.912-9.72 0-20.232 7.848-20.232 19.08 0 12.456 9.432 19.08 20.088 19.08Zm-17.28-20.808c0-3.96 5.904-6.048 11.592-6.048 4.824 0 9.504 1.44 10.44 4.608-5.472 1.944-11.52 3.24-20.736 4.608-.864-1.008-1.296-2.088-1.296-3.168ZM293.76 217.08c6.912 0 13.896-3.312 17.784-10.8h.216c-.36 3.24-1.08 6.48-2.304 9.72h5.04c-.36-9-.36-18-.36-27s0-18 .36-27h-5.04c1.44 10.8 2.16 16.92 2.16 27.72h-.216c-4.896-10.224-13.176-10.8-17.352-10.8-10.296 0-20.16 7.056-20.16 19.08 0 11.952 9.864 19.08 19.872 19.08Zm-17.784-20.664c0-.72 12.24-4.032 22.68-4.032 7.56 0 12.816 1.656 12.816 7.2 0 .72-12.24 4.032-22.68 4.032-7.56 0-12.816-1.656-12.816-7.2ZM362.304 217.08c9.072 0 13.176-4.32 19.44-15.48h.216c0 4.824-.792 9.576-2.52 14.4h5.04v-19.656c0-12.096-5.328-17.424-17.352-17.424-5.76 0-10.44.72-19.512 3.528v14.4c8.856-5.472 19.296-8.496 26.28-8.496 4.248 0 6.624 1.296 7.416 3.168-20.52 3.744-33.696 8.28-33.696 9.648 0 9.72 4.824 15.912 14.688 15.912Zm-3.168-17.496c0-.648 8.496-3.456 22.32-5.256-.792 4.536-5.616 10.008-15.624 10.008-3.816 0-6.696-1.368-6.696-4.752ZM14.112 248.12v-7.2C4.824 240.92.36 249.776.36 257.192c0 6.912 3.528 9.792 7.056 9.792 4.248 0 6.696-3.672 6.696-7.056 0-2.952-1.8-5.688-5.976-5.688-1.872 0-3.6.504-4.608 1.08 2.016-4.392 4.824-6.336 10.584-7.2Zm4.32 9.072c0 6.912 3.528 9.792 7.056 9.792 4.248 0 6.696-3.672 6.696-7.056 0-2.952-1.8-5.688-5.976-5.688-1.872 0-3.6.504-4.608 1.08 2.016-4.392 4.824-6.336 10.584-7.2v-7.2c-9.288 0-13.752 8.856-13.752 16.272ZM45.144 296h10.368c-4.824-7.848-7.272-22.248-7.272-29.232 0-1.368.36-1.8 1.512-1.8 1.296 0 6.336 1.368 19.296 11.88v-14.4H48.384c.864-3.888 4.968-6.984 9.72-6.984 3.888 0 8.136 1.872 10.944 4.176v-14.4c-2.664-1.8-7.632-4.32-10.728-4.32-8.856 0-11.808 7.776-12.456 21.528h-5.04v5.112a71.83 71.83 0 0 1 4.968-2.016c-.072 1.296-.072 2.736-.072 4.176 0 7.272-.144 14.472-.576 26.28ZM87.048 297.08c3.096 0 8.064-2.52 10.728-4.32v-14.4c-2.016 1.368-6.048 2.808-10.008 2.808-5.472 0-10.8-2.736-10.8-12.024 0-10.8.72-16.344 2.16-27.144h-5.04c.36 9 .36 17.28.36 26.28 0 18.216 2.304 28.8 12.6 28.8ZM118.224 297.08c9.072 0 13.176-4.32 19.44-15.48h.216c0 4.824-.792 9.576-2.52 14.4h5.04v-19.656c0-12.096-5.328-17.424-17.352-17.424-5.76 0-10.44.72-19.512 3.528v14.4c8.856-5.472 19.296-8.496 26.28-8.496 4.248 0 6.624 1.296 7.416 3.168-20.52 3.744-33.696 8.28-33.696 9.648 0 9.72 4.824 15.912 14.688 15.912Zm-3.168-17.496c0-.648 8.496-3.456 22.32-5.256-.792 4.536-5.616 10.008-15.624 10.008-3.816 0-6.696-1.368-6.696-4.752ZM148.32 296h2.52c0-13.896 7.848-20.808 15.12-20.808 6.336 0 12.168 5.184 12.168 15.552 0 1.656-.144 3.456-.504 5.256h2.448c0-13.896 7.848-20.808 15.12-20.808 6.336 0 12.168 5.184 12.168 15.552 0 1.656-.144 3.456-.504 5.256h2.52c1.224-4.248 1.728-8.208 1.728-11.952 0-14.688-6.336-25.056-14.184-25.056-4.536 0-11.16 4.752-16.2 14.616-2.232-8.928-7.2-14.616-13.032-14.616-5.184 0-11.088 4.536-16.272 15.408h-.216c0-4.824.864-9.576 2.16-14.4h-5.04c.216 6.048.36 12.024.36 18 0 5.976-.144 12.024-.36 18ZM239.04 297.08c10.008 0 19.872-7.128 19.872-19.08 0-12.024-9.864-19.08-20.16-19.08-4.176 0-12.456.576-17.352 10.8h-.216c0-10.8.72-16.92 2.16-27.72h-5.04c.36 9 .36 18 .36 27s0 18-.36 27h5.04c-1.224-3.24-1.944-6.48-2.304-9.72h.216c3.888 7.488 10.872 10.8 17.784 10.8Zm-17.712-20.664c0-.72 12.24-4.032 22.68-4.032 7.56 0 12.816 1.656 12.816 7.2 0 .72-12.24 4.032-22.68 4.032-7.56 0-12.816-1.656-12.816-7.2ZM283.32 297.08c13.464 0 20.16-9.648 20.16-19.08 0-9.504-6.696-19.08-20.16-19.08s-20.088 9.576-20.088 19.08c0 9.432 6.624 19.08 20.088 19.08Zm-17.496-20.664c0-.72 11.736-4.032 22.176-4.032 7.56 0 12.816 1.656 12.816 7.2 0 .72-11.736 4.032-22.176 4.032-7.56 0-12.816-1.656-12.816-7.2ZM326.376 311.48c12.456 0 16.344-12.312 16.344-27.36 0-5.616 0-18.576.288-24.12h-2.592c-1.872 14.04-9.288 18.648-15.624 18.648-6.624 0-12.96-4.968-12.96-13.968 0-1.44.144-3.096.504-4.68h-2.304c-1.08 3.816-1.512 7.344-1.512 10.656 0 15.624 7.92 22.536 15.984 22.536 6.048 0 12.6-3.96 15.696-11.088v2.016c0 9.864-6.408 13.824-14.976 13.824-4.68 0-10.08-1.8-14.184-4.392v14.4c6.192 2.376 9.504 3.528 15.336 3.528ZM365.616 297.08c9.072 0 13.176-4.32 19.44-15.48h.216c0 4.824-.792 9.576-2.52 14.4h5.04v-19.656c0-12.096-5.328-17.424-17.352-17.424-5.76 0-10.44.72-19.512 3.528v14.4c8.856-5.472 19.296-8.496 26.28-8.496 4.248 0 6.624 1.296 7.416 3.168-20.52 3.744-33.696 8.28-33.696 9.648 0 9.72 4.824 15.912 14.688 15.912Zm-3.168-17.496c0-.648 8.496-3.456 22.32-5.256-.792 4.536-5.616 10.008-15.624 10.008-3.816 0-6.696-1.368-6.696-4.752ZM395.712 296h2.52c0-14.4 8.28-20.952 16.2-20.952 7.416 0 14.472 5.616 14.472 15.696 0 1.656-.144 3.456-.504 5.256h2.52c1.224-4.248 1.728-8.208 1.728-11.952 0-15.696-7.704-25.128-16.416-25.128-6.12 0-12.744 4.752-17.424 15.48h-.216c0-4.824.864-9.576 2.16-14.4h-5.04c.216 6.048.36 12.024.36 18 0 5.976-.144 12.024-.36 18ZM456.696 297.08c5.112 0 10.728-.576 16.344-3.528v-13.32c-6.192 2.016-13.608 3.384-19.944 3.384-8.496 0-12.816-2.016-12.816-7.344 3.96-2.232 8.28-3.888 17.064-3.888 4.464 0 11.016 1.152 15.696 3.384v-13.32c-5.616-2.952-10.584-3.528-15.696-3.528-11.736 0-19.656 7.272-19.656 19.08 0 12.456 8.352 19.08 19.008 19.08ZM499.608 297.08c5.904 0 10.944-.648 16.344-3.528v-13.32c-6.768 2.16-13.608 3.384-21.024 3.384-2.88 0-5.4-.576-7.416-1.44l28.44-7.344c-1.584-11.304-8.64-15.912-16.2-15.912-9.72 0-20.232 7.848-20.232 19.08 0 12.456 9.432 19.08 20.088 19.08Zm-17.28-20.808c0-3.96 5.904-6.048 11.592-6.048 4.824 0 9.504 1.44 10.44 4.608-5.472 1.944-11.52 3.24-20.736 4.608-.864-1.008-1.296-2.088-1.296-3.168ZM544.464 259.568v7.2c9.288 0 13.752-8.856 13.752-16.272 0-6.912-3.528-9.792-7.056-9.792-4.248 0-6.696 3.672-6.696 7.056 0 2.952 1.8 5.688 5.976 5.688 1.872 0 3.6-.504 4.608-1.08-2.016 4.392-4.824 6.336-10.584 7.2Zm-18.072 7.2c9.288 0 13.752-8.856 13.752-16.272 0-6.912-3.528-9.792-7.056-9.792-4.248 0-6.696 3.672-6.696 7.056 0 2.952 1.8 5.688 5.976 5.688 1.872 0 3.6-.504 4.608-1.08-2.016 4.392-4.824 6.336-10.584 7.2v7.2ZM567.576 297.08c4.608 0 7.128-3.096 7.128-6.48 0-2.736-2.304-6.12-6.624-6.12-3.888 0-6.264 3.168-6.264 6.624 0 3.456 2.376 5.976 5.76 5.976Z"/></g></svg>