<svg xmlns="http://www.w3.org/2000/svg" width="388" height="630"><path fill="#E7E6DF" fill-rule="nonzero" d="M186.51 437.25c82.393 0 169.282-52.5 185.011-146.25C381.26 248.25 388 187.5 388 147c0-44.25-3.745-93-9.737-147H325.83c26.965 59.25 37.452 126 37.452 184.5v11.25C336.317 121.5 262.162 82.5 182.764 82.5 92.131 82.5 0 144.75 0 260.25 0 319.5 28.463 375 79.398 408 29.212 435 5.992 472.5 5.992 509.25 5.992 571.5 72.656 630 187.26 630c59.922 0 106.363-3.75 200.741-36.75v-150c-49.436 24-134.826 45-211.228 45-53.181 0-96.625-9.75-108.61-36 8.989-10.5 24.718-20.25 46.44-27 21.722 7.5 45.691 12 71.908 12ZM20.973 248.043c0-6.847 106.609-38.043 201.956-38.043 67.568 0 123.125 15.217 123.125 66.957 0 6.847-114.116 38.043-208.713 38.043-67.568 0-116.368-15.217-116.368-66.957Z" opacity=".501" style="mix-blend-mode:multiply"/></svg>