<?xml version="1.0" encoding="UTF-8"?>
<svg width="379px" height="140px" viewBox="0 0 379 140" version="1.1" xmlns="http://www.w3.org/2000/svg" xmlns:xlink="http://www.w3.org/1999/xlink">
    <title>AbstractShapes</title>
    <g id="v3" stroke="none" stroke-width="1" fill="none" fill-rule="evenodd">
        <g id="Home" transform="translate(-941.000000, -3163.000000)">
            <g id="free-fonts" transform="translate(120.000000, 2700.000000)">
                <g id="AbstractShapes" transform="translate(821.000000, 463.000000)">
                    <rect id="container" x="0" y="0" width="379" height="140"></rect>
                    <g id="letters" transform="translate(1.040000, 18.820000)" fill="#323254" fill-rule="nonzero">
                        <path d="M27.56,37.18 L14.456,0.78 L17.056,0.78 L30.16,37.18 L27.56,37.18 Z M1.42108547e-14,27.82 C1.42108547e-14,20.124 7.384,9.464 13.416,0.78 C15.132,5.096 19.448,17.056 19.448,23.14 C19.448,28.964 17.94,37.96 9.36,37.96 C3.484,37.96 1.42108547e-14,33.228 1.42108547e-14,27.82 Z" id="Shape"></path>
                        <path d="M46.54,9.88 C46.54,6.292 43.628,3.38 40.04,3.38 L33.02,3.38 L33.02,0.78 L49.192,0.78 L49.192,37.18 L54.652,37.18 C59.696,37.18 63.752,33.124 63.752,28.08 C63.752,23.036 59.696,18.98 54.652,18.98 L33.02,18.98 L33.02,16.38 L40.04,16.38 C43.628,16.38 46.54,13.468 46.54,9.88 Z" id="Path"></path>
                        <path d="M75.14,37.96 C80.964,37.96 82.108,29.952 82.108,18.98 C82.108,9.516 82.16,2.6 86.476,2.6 C90.792,2.6 90.844,9.516 90.844,18.98 L93.444,18.98 C93.444,8.008 92.3,0 86.476,0 C80.652,0 79.508,8.008 79.508,18.98 C79.508,28.444 79.456,35.36 75.14,35.36 C70.824,35.36 70.772,28.444 70.772,18.98 L68.172,18.98 C68.172,29.952 69.316,37.96 75.14,37.96 Z" id="Path"></path>
                        <path d="M109.304,37.18 L109.304,3.38 L97.084,3.38 L97.084,0.78 L111.904,0.78 L111.904,37.18 L109.304,37.18 Z M113.464,37.18 L113.464,0.78 L128.284,0.78 L128.284,3.38 L116.064,3.38 L116.064,37.18 L113.464,37.18 Z" id="Shape"></path>
                        <path d="M131.924,37.18 L131.924,0.78 L141.492,0.78 C142.48,0.78 143.468,0.884 144.352,1.144 C145.964,1.612 147.368,2.392 148.512,3.484 C147.992,3.432 147.472,3.38 146.952,3.38 L144.352,3.38 L144.352,0.78 L146.952,0.78 C154.804,0.78 159.952,6.812 159.952,14.3 C159.952,19.708 155.688,24.388 152.1,25.74 L159.172,37.18 L156.572,37.18 L148.772,24.596 L149.344,24.492 C153.66,23.608 157.352,18.512 157.352,14.3 C157.352,11.076 156.156,8.112 154.024,6.084 C152.568,4.732 150.696,3.796 148.512,3.484 C149.136,4.056 149.656,4.732 150.072,5.46 C148.616,4.16 146.64,3.38 144.352,3.38 L141.492,3.38 L141.492,0.78 L144.352,0.78 C148.72,0.78 152.1,2.912 154.024,6.084 C155.168,8.008 155.792,10.296 155.792,12.74 C155.792,18.096 151.268,22.516 146.484,23.452 L155.012,37.18 L152.412,37.18 L143,21.996 L143.52,21.996 C148.98,21.788 153.192,18.408 153.192,12.74 C153.192,9.828 152.048,7.176 150.072,5.46 C151.06,7.072 151.632,9.048 151.632,11.18 C151.632,16.276 147.316,21.06 140.816,21.06 L150.852,37.18 L148.252,37.18 L137.124,18.98 L140.192,18.98 C145.808,18.98 149.032,15.704 149.032,11.18 C149.032,6.812 146.016,3.38 141.492,3.38 L134.524,3.38 L134.524,37.18 L131.924,37.18 Z" id="Path"></path>
                        <path d="M191.152,37.18 L178.048,0.78 L180.648,0.78 L193.752,37.18 L191.152,37.18 Z M163.592,27.82 C163.592,20.124 170.976,9.464 177.008,0.78 C178.724,5.096 183.04,17.056 183.04,23.14 C183.04,28.964 181.532,37.96 172.952,37.96 C167.076,37.96 163.592,33.228 163.592,27.82 Z" id="Shape"></path>
                        <path d="M214.968,37.96 C225.888,37.96 232.44,29.016 232.44,20.228 L229.84,20.228 C229.84,27.508 224.38,35.36 214.968,35.36 C205.504,35.36 199.992,27.56 199.992,18.928 C199.992,10.296 205.556,2.6 214.968,2.6 C224.38,2.6 229.84,10.348 229.84,17.628 L232.44,17.628 C232.44,8.84 225.888,0 214.968,0 C204.048,0 197.392,8.788 197.392,18.928 C197.392,29.068 203.996,37.96 214.968,37.96 Z M201.292,18.928 C201.292,26.832 206.232,34.06 214.968,34.06 C223.652,34.06 228.54,26.78 228.54,20.228 L225.94,20.228 C225.94,25.272 222.144,31.46 214.968,31.46 C207.74,31.46 203.892,25.324 203.892,18.928 C203.892,12.532 207.792,6.5 214.968,6.5 C222.144,6.5 225.94,12.584 225.94,17.628 L228.54,17.628 C228.54,11.076 223.652,3.9 214.968,3.9 C206.284,3.9 201.292,11.024 201.292,18.928 Z M205.192,18.928 C205.192,24.596 208.468,30.16 214.968,30.16 C221.364,30.16 224.64,24.492 224.64,20.228 L222.04,20.228 C222.04,23.036 219.908,27.56 214.968,27.56 C209.976,27.56 207.792,23.088 207.792,18.928 C207.792,14.768 210.028,10.4 214.968,10.4 C219.908,10.4 222.04,14.82 222.04,17.628 L224.64,17.628 C224.64,13.364 221.364,7.8 214.968,7.8 C208.572,7.8 205.192,13.26 205.192,18.928 Z M209.092,18.928 C209.092,22.308 210.756,26.26 214.968,26.26 C219.128,26.26 220.74,22.256 220.74,20.228 L218.14,20.228 C218.14,20.748 217.62,23.66 214.968,23.66 C212.264,23.66 211.692,20.8 211.692,18.928 C211.692,17.056 212.316,14.3 214.968,14.3 C217.62,14.3 218.14,17.108 218.14,17.628 L220.74,17.628 C220.74,15.6 219.128,11.7 214.968,11.7 C210.808,11.7 209.092,15.548 209.092,18.928 Z" id="Shape"></path>
                        <path d="M249.08,37.18 L249.08,3.38 L236.86,3.38 L236.86,0.78 L251.68,0.78 L251.68,37.18 L249.08,37.18 Z M253.24,37.18 L253.24,0.78 L268.06,0.78 L268.06,3.38 L255.84,3.38 L255.84,37.18 L253.24,37.18 Z" id="Shape"></path>
                        <path d="M7.748,97.96 C13.572,97.96 14.716,89.952 14.716,78.98 C14.716,69.516 14.768,62.6 19.084,62.6 C23.4,62.6 23.452,69.516 23.452,78.98 L26.052,78.98 C26.052,68.008 24.908,60 19.084,60 C13.26,60 12.116,68.008 12.116,78.98 C12.116,88.444 12.064,95.36 7.748,95.36 C3.432,95.36 3.38,88.444 3.38,78.98 L0.78,78.98 C0.78,89.952 1.924,97.96 7.748,97.96 Z" id="Path"></path>
                        <path d="M32.292,97.18 L32.292,81.84 L58.292,81.84 L58.292,97.18 L55.692,97.18 L55.692,84.44 L34.892,84.44 L34.892,97.18 L32.292,97.18 Z M29.692,80.28 L29.692,77.68 L60.892,77.68 L60.892,80.28 L29.692,80.28 Z M32.292,76.12 L32.292,60.78 L34.892,60.78 L34.892,73.52 L55.692,73.52 L55.692,60.78 L58.292,60.78 L58.292,76.12 L32.292,76.12 Z" id="Shape"></path>
                        <path d="M91.312,97.18 L78.208,60.78 L80.808,60.78 L93.912,97.18 L91.312,97.18 Z M63.752,87.82 C63.752,80.124 71.136,69.464 77.168,60.78 C78.884,65.096 83.2,77.056 83.2,83.14 C83.2,88.964 81.692,97.96 73.112,97.96 C67.236,97.96 63.752,93.228 63.752,87.82 Z" id="Shape"></path>
                        <path d="M96.772,97.18 L96.772,81.58 L115.804,81.58 C120.848,81.58 124.852,77.42 124.852,72.428 C124.852,67.384 120.848,63.38 115.804,63.38 L96.772,63.38 L96.772,60.78 L127.452,60.78 L127.452,97.18 L96.772,97.18 Z" id="Path"></path>
                        <path d="M149.448,60 C138.528,60 131.872,68.892 131.872,78.928 C131.872,89.068 138.476,97.96 149.448,97.96 C155.064,97.96 159.588,95.568 162.552,92.032 L160.68,90.16 C158.184,93.228 154.336,95.36 149.448,95.36 C139.984,95.36 134.472,87.56 134.472,78.928 L135.772,78.928 C135.772,86.832 140.712,94.06 149.448,94.06 C153.972,94.06 157.456,92.084 159.796,89.276 L157.924,87.404 C156.052,89.744 153.244,91.46 149.448,91.46 C142.22,91.46 138.372,85.324 138.372,78.928 L139.672,78.928 C139.672,84.596 142.948,90.16 149.448,90.16 C152.828,90.16 155.324,88.548 156.936,86.416 L155.116,84.596 C153.972,86.26 152.1,87.56 149.448,87.56 C144.456,87.56 142.272,83.088 142.272,78.928 L143.572,78.928 C143.572,82.308 145.236,86.26 149.448,86.26 C151.736,86.26 153.244,85.064 154.128,83.608 L152.256,81.736 C151.84,82.672 151.008,83.66 149.448,83.66 C146.744,83.66 146.172,80.8 146.172,78.928 L166.92,78.928 C166.92,68.892 160.368,60 149.448,60 Z" id="Path"></path>
                        <path d="M178.308,97.96 C184.132,97.96 185.276,89.952 185.276,78.98 C185.276,69.516 185.328,62.6 189.644,62.6 C193.96,62.6 194.012,69.516 194.012,78.98 L196.612,78.98 C196.612,68.008 195.468,60 189.644,60 C183.82,60 182.676,68.008 182.676,78.98 C182.676,88.444 182.624,95.36 178.308,95.36 C173.992,95.36 173.94,88.444 173.94,78.98 L171.34,78.98 C171.34,89.952 172.484,97.96 178.308,97.96 Z" id="Path"></path>
                    </g>
                </g>
            </g>
        </g>
    </g>
</svg>