<?xml version="1.0" encoding="UTF-8"?>
<svg width="379px" height="140px" viewBox="0 0 379 140" version="1.1" xmlns="http://www.w3.org/2000/svg" xmlns:xlink="http://www.w3.org/1999/xlink">
    <title>Blokken</title>
    <g id="v3" stroke="none" stroke-width="1" fill="none" fill-rule="evenodd">
        <g id="Home" transform="translate(-530.000000, -3163.000000)">
            <g id="free-fonts" transform="translate(120.000000, 2700.000000)">
                <g id="Blokken" transform="translate(410.000000, 463.000000)">
                    <rect id="container" x="0" y="0" width="379" height="140"></rect>
                    <g id="letters" transform="translate(4.500000, 31.600000)" fill="#323254" fill-rule="nonzero">
                        <path d="M9.63,0 C10.89,0 12.135,0.375 13.365,1.125 C14.595,1.875 15.585,2.865 16.335,4.095 C17.085,5.325 17.46,6.57 17.46,7.83 L17.46,29.88 L9.63,29.88 L9.63,0 Z M13.5,68.4 C12.54,68.4 11.655,67.98 10.845,67.14 C10.035,66.3 9.63,65.4 9.63,64.44 C9.63,63.48 10.035,62.595 10.845,61.785 C11.655,60.975 12.54,60.57 13.5,60.57 L13.59,60.57 C14.61,60.57 15.51,60.96 16.29,61.74 C17.07,62.52 17.46,63.42 17.46,64.44 C17.46,65.46 17.055,66.375 16.245,67.185 C15.435,67.995 14.55,68.4 13.59,68.4 L13.5,68.4 Z M7.83,0 L7.83,68.4 L0,68.4 L0,7.83 C0,6.57 0.375,5.325 1.125,4.095 C1.875,2.865 2.865,1.875 4.095,1.125 C5.325,0.375 6.57,0 7.83,0 Z M19.26,17.46 C20.52,17.46 21.765,17.76 22.995,18.36 C24.225,18.96 25.215,19.725 25.965,20.655 C26.715,21.585 27.09,22.56 27.09,23.58 L27.09,60.57 C27.09,61.83 26.715,63.075 25.965,64.305 C25.215,65.535 24.225,66.525 22.995,67.275 C21.765,68.025 20.52,68.4 19.26,68.4 L19.26,17.46 Z" id="Shape"></path>
                        <path d="M55.35,60.57 C56.61,60.57 57.855,60.945 59.085,61.695 C60.315,62.445 61.305,63.435 62.055,64.665 C62.805,65.895 63.18,67.14 63.18,68.4 L45.72,68.4 L45.72,60.57 L55.35,60.57 Z M36.09,0 C37.35,0 38.595,0.375 39.825,1.125 C41.055,1.875 42.045,2.865 42.795,4.095 C43.545,5.325 43.92,6.57 43.92,7.83 L43.92,68.4 L36.09,68.4 L36.09,0 Z M49.59,58.77 C48.63,58.77 47.745,58.35 46.935,57.51 C46.125,56.67 45.72,55.77 45.72,54.81 C45.72,53.85 46.125,52.965 46.935,52.155 C47.745,51.345 48.63,50.94 49.59,50.94 L49.68,50.94 C50.7,50.94 51.6,51.33 52.38,52.11 C53.16,52.89 53.55,53.79 53.55,54.81 C53.55,55.83 53.145,56.745 52.335,57.555 C51.525,58.365 50.64,58.77 49.68,58.77 L49.59,58.77 Z" id="Shape"></path>
                        <path d="M81.81,68.4 L81.81,60.57 L99.27,60.57 C99.27,61.83 98.895,63.075 98.145,64.305 C97.395,65.535 96.405,66.525 95.175,67.275 C93.945,68.025 92.7,68.4 91.44,68.4 L81.81,68.4 Z M80.01,68.4 C78.75,68.4 77.505,68.025 76.275,67.275 C75.045,66.525 74.055,65.535 73.305,64.305 C72.555,63.075 72.18,61.83 72.18,60.57 L72.18,7.83 C72.18,6.57 72.555,5.325 73.305,4.095 C74.055,2.865 75.045,1.875 76.275,1.125 C77.505,0.375 78.75,0 80.01,0 L80.01,68.4 Z M91.44,0 C92.7,0 93.945,0.435 95.175,1.305 C96.405,2.175 97.395,3.315 98.145,4.725 C98.895,6.135 99.27,7.59 99.27,9.09 L99.27,58.77 L91.44,58.77 L91.44,0 Z M85.59,7.83 C84.63,7.83 83.745,7.41 82.935,6.57 C82.125,5.73 81.72,4.83 81.72,3.87 C81.72,2.91 82.125,2.025 82.935,1.215 C83.745,0.405 84.63,0 85.59,0 L85.68,0 C86.7,0 87.6,0.39 88.38,1.17 C89.16,1.95 89.55,2.85 89.55,3.87 C89.55,4.89 89.145,5.805 88.335,6.615 C87.525,7.425 86.64,7.83 85.68,7.83 L85.59,7.83 Z" id="Shape"></path>
                        <path d="M127.53,41.31 C128.79,41.31 130.035,41.685 131.265,42.435 C132.495,43.185 133.485,44.175 134.235,45.405 C134.985,46.635 135.36,47.88 135.36,49.14 L135.36,68.4 L127.53,68.4 L127.53,41.31 Z M121.77,49.14 C120.81,49.14 119.925,48.72 119.115,47.88 C118.305,47.04 117.9,46.14 117.9,45.18 C117.9,44.22 118.305,43.335 119.115,42.525 C119.925,41.715 120.81,41.31 121.77,41.31 L121.86,41.31 C122.88,41.31 123.78,41.7 124.56,42.48 C125.34,43.26 125.73,44.16 125.73,45.18 C125.73,46.2 125.325,47.115 124.515,47.925 C123.705,48.735 122.82,49.14 121.86,49.14 L121.77,49.14 Z M108.27,68.4 L108.27,0 L116.1,0 L116.1,60.57 C116.1,61.83 115.725,63.075 114.975,64.305 C114.225,65.535 113.235,66.525 112.005,67.275 C110.775,68.025 109.53,68.4 108.27,68.4 Z M117.9,37.71 L129.6,24.75 L135.45,29.97 L128.97,37.17 C128.13,38.13 127.02,38.805 125.64,39.195 C124.26,39.585 122.865,39.645 121.455,39.375 C120.045,39.105 118.86,38.55 117.9,37.71 Z" id="Shape"></path>
                        <path d="M163.71,41.31 C164.97,41.31 166.215,41.685 167.445,42.435 C168.675,43.185 169.665,44.175 170.415,45.405 C171.165,46.635 171.54,47.88 171.54,49.14 L171.54,68.4 L163.71,68.4 L163.71,41.31 Z M157.95,49.14 C156.99,49.14 156.105,48.72 155.295,47.88 C154.485,47.04 154.08,46.14 154.08,45.18 C154.08,44.22 154.485,43.335 155.295,42.525 C156.105,41.715 156.99,41.31 157.95,41.31 L158.04,41.31 C159.06,41.31 159.96,41.7 160.74,42.48 C161.52,43.26 161.91,44.16 161.91,45.18 C161.91,46.2 161.505,47.115 160.695,47.925 C159.885,48.735 159,49.14 158.04,49.14 L157.95,49.14 Z M144.45,68.4 L144.45,0 L152.28,0 L152.28,60.57 C152.28,61.83 151.905,63.075 151.155,64.305 C150.405,65.535 149.415,66.525 148.185,67.275 C146.955,68.025 145.71,68.4 144.45,68.4 Z M154.08,37.71 L165.78,24.75 L171.63,29.97 L165.15,37.17 C164.31,38.13 163.2,38.805 161.82,39.195 C160.44,39.585 159.045,39.645 157.635,39.375 C156.225,39.105 155.04,38.55 154.08,37.71 Z" id="Shape"></path>
                        <path d="M199.89,0 C201.15,0 202.395,0.375 203.625,1.125 C204.855,1.875 205.845,2.865 206.595,4.095 C207.345,5.325 207.72,6.57 207.72,7.83 L190.26,7.83 L190.26,0 L199.89,0 Z M188.46,68.4 C187.2,68.4 185.955,68.025 184.725,67.275 C183.495,66.525 182.505,65.535 181.755,64.305 C181.005,63.075 180.63,61.83 180.63,60.57 L207.72,60.57 C207.72,61.83 207.345,63.075 206.595,64.305 C205.845,65.535 204.855,66.525 203.625,67.275 C202.395,68.025 201.15,68.4 199.89,68.4 L188.46,68.4 Z M188.46,0 L188.46,58.77 L180.63,58.77 L180.63,9.09 C180.63,7.59 181.005,6.135 181.755,4.725 C182.505,3.315 183.495,2.175 184.725,1.305 C185.955,0.435 187.2,0 188.46,0 Z M194.04,49.05 C193.08,49.05 192.195,48.63 191.385,47.79 C190.575,46.95 190.17,46.05 190.17,45.09 C190.17,44.13 190.575,43.245 191.385,42.435 C192.195,41.625 193.08,41.22 194.04,41.22 L194.13,41.22 C195.15,41.22 196.05,41.61 196.83,42.39 C197.61,43.17 198,44.07 198,45.09 C198,46.11 197.595,47.025 196.785,47.835 C195.975,48.645 195.09,49.05 194.13,49.05 L194.04,49.05 Z" id="Shape"></path>
                        <path d="M235.98,0 C237.24,0 238.485,0.375 239.715,1.125 C240.945,1.875 241.935,2.865 242.685,4.095 C243.435,5.325 243.81,6.57 243.81,7.83 L243.81,49.14 L235.98,49.14 L235.98,0 Z M224.55,68.4 C223.29,68.4 222.045,68.025 220.815,67.275 C219.585,66.525 218.595,65.535 217.845,64.305 C217.095,63.075 216.72,61.83 216.72,60.57 L216.72,0 L224.55,0 L224.55,68.4 Z M226.35,41.31 C227.61,41.31 228.84,41.685 230.04,42.435 C231.24,43.185 232.23,44.16 233.01,45.36 C233.79,46.56 234.18,47.79 234.18,49.05 L234.18,49.14 L226.35,49.14 L226.35,41.31 Z M239.85,68.4 C238.89,68.4 238.005,67.98 237.195,67.14 C236.385,66.3 235.98,65.4 235.98,64.44 C235.98,63.48 236.385,62.595 237.195,61.785 C238.005,60.975 238.89,60.57 239.85,60.57 L239.94,60.57 C240.96,60.57 241.86,60.96 242.64,61.74 C243.42,62.52 243.81,63.42 243.81,64.44 C243.81,65.46 243.405,66.375 242.595,67.185 C241.785,67.995 240.9,68.4 239.94,68.4 L239.85,68.4 Z M234.18,58.77 C232.92,58.77 231.675,58.395 230.445,57.645 C229.215,56.895 228.225,55.905 227.475,54.675 C226.725,53.445 226.35,52.2 226.35,50.94 L243.81,50.94 L243.81,58.77 L234.18,58.77 Z" id="Shape"></path>
                    </g>
                </g>
            </g>
        </g>
    </g>
</svg>