<?xml version="1.0" encoding="UTF-8"?>
<svg width="379px" height="140px" viewBox="0 0 379 140" version="1.1" xmlns="http://www.w3.org/2000/svg" xmlns:xlink="http://www.w3.org/1999/xlink">
    <title>Lokke</title>
    <g id="v3" stroke="none" stroke-width="1" fill="none" fill-rule="evenodd">
        <g id="Home" transform="translate(-530.000000, -2782.000000)">
            <g id="free-fonts" transform="translate(120.000000, 2700.000000)">
                <g id="Lokke" transform="translate(410.000000, 82.000000)">
                    <rect id="container" x="0" y="0" width="379" height="140"></rect>
                    <g id="letters" transform="translate(8.200000, 11.000000)" fill="#323254" fill-rule="nonzero">
                        <path d="M35.1,76.5 C32.04,76.5 29.16,75.6 26.82,74.25 C30.06,71.28 31.95,67.86 31.95,64.89 C31.95,58.68 28.17,55.71 24.21,55.71 C20.16,55.71 15.93,58.77 15.93,64.8 C15.93,67.59 17.28,71.01 19.8,73.98 C16.83,75.51 13.23,76.5 9.09,76.5 L4.5,76.5 L4.5,18 L0,18 L0,81 L9.09,81 C14.31,81 19.17,79.38 23.04,77.04 C26.19,79.38 30.24,81 35.1,81 L35.1,76.5 Z M20.43,65.07 C20.43,61.83 22.14,60.21 23.94,60.21 C25.65,60.21 27.45,61.74 27.45,64.89 C27.45,66.87 26.01,69.39 23.49,71.55 C21.6,69.57 20.43,67.23 20.43,65.07 Z" id="Shape"></path>
                        <path d="M85.05,45.27 C84.51,45.81 82.89,47.34 80.64,49.14 C78.39,40.14 72.18,32.85 61.65,32.85 C51.21,32.85 44.55,41.49 44.55,49.59 C44.55,52.92 45.63,56.16 47.88,58.77 C45.18,59.85 42.93,60.57 41.85,60.57 L41.85,65.07 C43.11,65.07 45.18,64.53 47.52,63.72 L47.52,64.62 C47.52,73.8 51.66,82.35 62.01,82.35 C74.7,82.35 81.63,69.57 81.63,57.06 C81.63,55.98 81.54,54.9 81.45,53.91 C83.25,52.38 84.51,51.12 85.05,50.58 L85.05,45.27 Z M61.65,37.35 C70.83,37.35 75.6,44.19 76.86,52.11 C71.91,55.8 65.79,59.49 61.29,59.49 C59.58,59.49 58.14,59.31 56.88,58.95 C62.19,55.53 66.87,50.94 66.87,46.44 C66.87,43.65 64.71,41.4 62.01,41.4 C56.7,41.4 52.2,46.44 49.68,53.01 C49.23,51.84 49.05,50.49 49.05,49.23 C49.05,43.47 53.28,37.35 61.65,37.35 Z M52.74,56.43 C54.09,50.58 56.79,45.9 60.12,45.9 C60.93,45.9 62.37,46.44 62.37,48.51 C62.37,50.67 57.69,53.82 52.74,56.43 Z M62.01,77.85 C54.45,77.85 51.93,71.28 51.93,63.99 C51.93,63.27 51.93,62.64 52.02,61.92 C54.45,63.27 57.51,63.99 61.29,63.99 C66.6,63.99 72.54,60.66 77.13,57.33 C76.77,67.59 71.46,77.85 62.01,77.85 Z" id="Shape"></path>
                        <path d="M112.68,52.02 C120.24,47.07 128.34,40.59 130.95,38.43 L127.8,34.2 C123.66,37.98 116.64,44.37 110.34,48.87 L110.34,0 L105.84,0 L105.84,46.44 C103.95,45.54 101.88,45 99.54,45 C96.3,45 92.25,47.79 92.25,51.84 C92.25,56.25 96.12,58.5 99.54,58.5 C100.98,58.5 103.23,57.6 105.84,56.25 L105.84,81 L110.34,81 L110.34,56.25 C117.81,65.52 123.21,81 128.61,81 L130.86,76.5 C124.83,76.5 120.6,61.38 112.68,52.02 Z M99.9,54 C98.55,54 96.75,53.28 96.75,51.84 C96.75,50.76 97.65,49.5 99.54,49.5 C101.79,49.5 103.86,50.4 105.84,51.84 C103.5,53.19 101.43,54 99.9,54 Z" id="Shape"></path>
                        <path d="M159.48,52.02 C167.04,47.07 175.14,40.59 177.75,38.43 L174.6,34.2 C170.46,37.98 163.44,44.37 157.14,48.87 L157.14,0 L152.64,0 L152.64,46.44 C150.75,45.54 148.68,45 146.34,45 C143.1,45 139.05,47.79 139.05,51.84 C139.05,56.25 142.92,58.5 146.34,58.5 C147.78,58.5 150.03,57.6 152.64,56.25 L152.64,81 L157.14,81 L157.14,56.25 C164.61,65.52 170.01,81 175.41,81 L177.66,76.5 C171.63,76.5 167.4,61.38 159.48,52.02 Z M146.7,54 C145.35,54 143.55,53.28 143.55,51.84 C143.55,50.76 144.45,49.5 146.34,49.5 C148.59,49.5 150.66,50.4 152.64,51.84 C150.3,53.19 148.23,54 146.7,54 Z" id="Shape"></path>
                        <path d="M206.73,77.85 C200.79,77.85 197.19,72.09 195.84,64.98 L195.93,64.98 C199.17,64.98 202.05,64.26 204.57,63.09 C206.28,64.26 208.26,64.98 210.69,64.98 C219.24,64.98 223.65,58.23 223.65,50.94 C223.65,42.3 217.44,32.85 207.9,32.85 C197.55,32.85 190.89,46.35 190.8,59.13 C188.28,57.6 187.65,55.17 187.65,54.72 L183.15,55.8 C183.15,58.05 185.76,62.46 191.07,64.26 C192.33,74.07 197.28,82.35 206.73,82.35 C219.42,82.35 222.39,73.98 222.39,70.65 L217.89,70.65 C217.89,73.98 213.75,77.85 206.73,77.85 Z M195.3,58.41 C195.3,48.06 199.44,37.35 208.17,37.35 C214.83,37.35 219.15,44.91 219.15,51.39 C219.15,56.25 216.9,60.48 210.69,60.48 C210.15,60.48 209.61,60.39 209.07,60.3 C212.58,57.42 214.65,53.55 214.65,50.49 C214.65,47.43 212.13,45 207.72,45 C202.41,45 199.71,49.05 199.71,53.46 C199.71,55.62 200.34,57.87 201.51,59.76 C199.89,60.21 198,60.48 195.93,60.48 L195.39,60.48 C195.3,59.76 195.3,59.13 195.3,58.41 Z M204.21,54 C204.21,51.66 205.38,49.5 207.72,49.5 C209.61,49.5 210.15,50.49 210.15,51.84 C210.15,53.73 208.62,56.25 205.47,58.14 C204.57,56.97 204.21,55.44 204.21,54 Z" id="Shape"></path>
                    </g>
                </g>
            </g>
        </g>
    </g>
</svg>