<?xml version="1.0" encoding="UTF-8"?>
<svg width="379px" height="140px" viewBox="0 0 379 140" version="1.1" xmlns="http://www.w3.org/2000/svg" xmlns:xlink="http://www.w3.org/1999/xlink">
    <title>TwoShapes</title>
    <g id="v3" stroke="none" stroke-width="1" fill="none" fill-rule="evenodd">
        <g id="Home" transform="translate(-941.000000, -2782.000000)">
            <g id="free-fonts" transform="translate(120.000000, 2700.000000)">
                <g id="TwoShapes" transform="translate(821.000000, 82.000000)">
                    <rect id="Rectangle" x="0" y="0" width="379" height="140"></rect>
                    <g id="stripes" transform="translate(1.750000, 11.560000)" fill="#434A5A" fill-rule="nonzero">
                        <path d="M15.61,10.22 L23.38,10.22 L23.38,9.1 L15.61,9.1 L15.61,10.22 Z M15.61,48.44 L50.61,48.44 L50.61,47.32 L15.61,47.32 L15.61,48.44 Z M15.61,46.62 L49.35,46.62 L49.35,45.5 L15.61,45.5 L15.61,46.62 Z M15.61,44.8 L48.02,44.8 L48.02,43.68 L15.61,43.68 L15.61,44.8 Z M15.61,42.98 L46.76,42.98 L46.76,41.86 L15.61,41.86 L15.61,42.98 Z M15.61,41.16 L45.43,41.16 L45.43,40.04 L15.61,40.04 L15.61,41.16 Z M15.61,39.34 L44.17,39.34 L44.17,38.22 L15.61,38.22 L15.61,39.34 Z M15.61,37.52 L42.84,37.52 L42.84,36.4 L15.61,36.4 L15.61,37.52 Z M15.61,35.7 L41.51,35.7 L41.51,34.58 L15.61,34.58 L15.61,35.7 Z M15.61,33.88 L40.25,33.88 L40.25,32.76 L15.61,32.76 L15.61,33.88 Z M15.61,32.06 L38.99,32.06 L38.99,30.94 L15.61,30.94 L15.61,32.06 Z M15.61,30.24 L37.59,30.24 L37.59,29.12 L15.61,29.12 L15.61,30.24 Z M15.61,28.42 L36.33,28.42 L36.33,27.3 L15.61,27.3 L15.61,28.42 Z M15.61,26.6 L35.07,26.6 L35.07,25.48 L15.61,25.48 L15.61,26.6 Z M15.61,24.78 L33.81,24.78 L33.81,23.73 L15.61,23.73 L15.61,24.78 Z M15.61,22.96 L32.41,22.96 L32.41,21.84 L15.61,21.84 L15.61,22.96 Z M15.61,21.14 L31.15,21.14 L31.15,20.02 L15.61,20.02 L15.61,21.14 Z M15.61,19.32 L29.82,19.32 L29.82,18.2 L15.61,18.2 L15.61,19.32 Z M15.61,17.43 L28.56,17.43 L28.56,16.38 L15.61,16.38 L15.61,17.43 Z M15.61,15.61 L27.23,15.61 L27.23,14.56 L15.61,14.56 L15.61,15.61 Z M15.61,13.86 L25.97,13.86 L25.97,12.74 L15.61,12.74 L15.61,13.86 Z M15.61,12.04 L24.64,12.04 L24.64,10.92 L15.61,10.92 L15.61,12.04 Z M15.61,8.4 L22.05,8.4 L22.05,7.28 L15.61,7.28 L15.61,8.4 Z M15.61,6.58 L20.72,6.58 L20.72,5.46 L15.61,5.46 L15.61,6.58 Z M15.61,4.76 L19.46,4.76 L19.46,3.64 L15.61,3.64 L15.61,4.76 Z M15.61,2.94 L18.2,2.94 L18.2,1.82 L15.61,1.82 L15.61,2.94 Z M15.61,1.12 L16.8,1.12 L16.8,0 L15.61,0 L15.61,1.12 Z" id="Shape"></path>
                        <path d="M82.04,38.22 L72.31,38.22 L72.31,39.34 L82.04,39.34 L82.04,38.22 Z M52.5,0 L53.06,1.12 L101.43,1.12 L101.43,0 L52.5,0 Z M53.41,1.82 L53.97,2.94 L100.52,2.94 L100.52,1.82 L53.41,1.82 Z M54.32,3.64 L54.88,4.76 L99.61,4.76 L99.61,3.64 L54.32,3.64 Z M55.23,5.46 L55.79,6.58 L98.63,6.58 L98.63,5.46 L55.23,5.46 Z M56.14,7.28 L56.7,8.4 L97.72,8.4 L97.72,7.28 L56.14,7.28 Z M57.05,9.1 L57.61,10.22 L96.81,10.22 L96.81,9.1 L57.05,9.1 Z M57.96,10.92 L58.52,12.04 L95.9,12.04 L95.9,10.92 L57.96,10.92 Z M58.94,12.74 L59.5,13.86 L95.06,13.86 L95.06,12.74 L58.94,12.74 Z M59.85,14.56 L60.41,15.68 L94.15,15.68 L94.15,14.56 L59.85,14.56 Z M60.83,16.38 L61.32,17.5 L93.24,17.5 L93.24,16.38 L60.83,16.38 Z M61.74,18.2 L62.3,19.32 L92.33,19.32 L92.33,18.2 L61.74,18.2 Z M62.65,20.02 L63.21,21.14 L91.49,21.14 L91.49,20.02 L62.65,20.02 Z M63.56,21.84 L64.12,22.96 L90.58,22.96 L90.58,21.84 L63.56,21.84 Z M64.54,23.66 L65.1,24.71 L89.74,24.71 L89.74,23.66 L64.54,23.66 Z M65.45,25.48 L66.01,26.6 L88.83,26.6 L88.83,25.48 L65.45,25.48 Z M66.36,27.3 L66.92,28.42 L87.85,28.42 L87.85,27.3 L66.36,27.3 Z M67.27,29.12 L67.83,30.24 L86.94,30.24 L86.94,29.12 L67.27,29.12 Z M68.25,31.01 L68.74,32.06 L86.03,32.06 L86.03,31.01 L68.25,31.01 Z M69.16,32.83 L69.65,33.88 L85.12,33.88 L85.12,32.83 L69.16,32.83 Z M70,34.58 L70.56,35.7 L84.21,35.7 L84.21,34.58 L70,34.58 Z M70.91,36.4 L71.47,37.52 L83.3,37.52 L83.3,36.4 L70.91,36.4 Z M73.22,41.16 L81.13,41.16 L81.13,40.04 L73.22,40.04 L73.22,41.16 Z M74.13,42.98 L80.22,42.98 L80.22,41.86 L74.13,41.86 L74.13,42.98 Z M75.04,44.8 L79.31,44.8 L79.31,43.68 L75.04,43.68 L75.04,44.8 Z M76.02,46.62 L78.4,46.62 L78.4,45.5 L76.02,45.5 L76.02,46.62 Z M76.93,48.44 L77.49,48.44 L77.49,47.32 L76.93,47.32 L76.93,48.44 Z" id="Shape"></path>
                        <path d="M118.86,10.22 L158.34,10.22 L158.34,9.1 L118.86,9.1 L118.86,10.22 Z M114.38,24.78 L162.82,24.78 L162.82,23.73 L114.38,23.73 L114.38,24.78 Z M114.45,26.6 L162.75,26.6 L162.75,25.48 L114.45,25.48 L114.45,26.6 Z M114.45,22.96 L162.75,22.96 L162.75,21.84 L114.45,21.84 L114.45,22.96 Z M114.59,28.42 L162.61,28.42 L162.61,27.3 L114.59,27.3 L114.59,28.42 Z M114.59,21.14 L162.61,21.14 L162.61,20.02 L114.59,20.02 L114.59,21.14 Z M114.87,30.24 L162.33,30.24 L162.33,29.12 L114.87,29.12 L114.87,30.24 Z M114.87,19.32 L162.33,19.32 L162.33,18.2 L114.87,18.2 L114.87,19.32 Z M115.36,32.06 L161.84,32.06 L161.84,30.94 L115.36,30.94 L115.36,32.06 Z M115.36,17.43 L161.84,17.43 L161.84,16.38 L115.36,16.38 L115.36,17.43 Z M115.92,33.88 L161.28,33.88 L161.28,32.76 L115.92,32.76 L115.92,33.88 Z M115.99,15.61 L161.21,15.61 L161.21,14.56 L115.99,14.56 L115.99,15.61 Z M116.69,35.7 L160.44,35.7 L160.44,34.58 L116.69,34.58 L116.69,35.7 Z M116.69,13.86 L160.51,13.86 L160.51,12.74 L116.69,12.74 L116.69,13.86 Z M117.67,37.52 L159.53,37.52 L159.53,36.4 L117.67,36.4 L117.67,37.52 Z M117.67,12.04 L159.53,12.04 L159.53,10.92 L117.67,10.92 L117.67,12.04 Z M118.86,39.34 L158.34,39.34 L158.34,38.22 L118.86,38.22 L118.86,39.34 Z M120.26,41.16 L156.94,41.16 L156.94,40.04 L120.26,40.04 L120.26,41.16 Z M120.26,8.4 L156.94,8.4 L156.94,7.28 L120.26,7.28 L120.26,8.4 Z M122.01,42.98 L155.19,42.98 L155.19,41.86 L122.01,41.86 L122.01,42.98 Z M122.01,6.58 L155.19,6.58 L155.19,5.46 L122.01,5.46 L122.01,6.58 Z M124.18,44.8 L153.02,44.8 L153.02,43.68 L124.18,43.68 L124.18,44.8 Z M124.18,4.76 L153.02,4.76 L153.02,3.64 L124.18,3.64 L124.18,4.76 Z M127.05,46.62 L150.15,46.62 L150.15,45.5 L127.05,45.5 L127.05,46.62 Z M127.05,2.94 L150.15,2.94 L150.15,1.82 L127.05,1.82 L127.05,2.94 Z M131.25,1.12 L145.88,1.12 L145.88,0 L131.25,0 L131.25,1.12 Z M131.32,48.44 L145.88,48.44 L145.88,47.32 L131.32,47.32 L131.32,48.44 Z" id="Shape"></path>
                        <path d="M0.35,89.12 L0.14,90.24 L31.92,90.24 L31.71,89.12 L0.35,89.12 Z M0,92.76 L0.07,93.88 L31.99,93.88 L32.06,92.76 L0,92.76 Z M0,92.06 L32.06,92.06 L31.99,90.94 L0.07,90.94 L0,92.06 Z M0.14,94.58 L0.35,95.7 L31.71,95.7 L31.92,94.58 L0.14,94.58 Z M0.49,96.4 L0.84,97.52 L31.22,97.52 L31.57,96.4 L0.49,96.4 Z M0.49,88.42 L31.57,88.42 L31.22,87.3 L0.84,87.3 L0.49,88.42 Z M1.12,98.22 L1.61,99.34 L30.52,99.34 L31.01,98.22 L1.12,98.22 Z M1.12,86.6 L30.94,86.6 L30.52,85.48 L1.61,85.48 L1.12,86.6 Z M1.96,100.04 L2.59,101.16 L29.47,101.16 L30.1,100.04 L1.96,100.04 Z M1.96,84.78 L30.1,84.78 L29.54,83.73 L2.59,83.73 L1.96,84.78 Z M3.08,101.86 L3.99,102.98 L28.07,102.98 L28.98,101.86 L3.08,101.86 Z M3.08,82.96 L28.98,82.96 L28.07,81.84 L3.99,81.84 L3.08,82.96 Z M4.62,103.68 L5.88,104.8 L26.18,104.8 L27.44,103.68 L4.62,103.68 Z M4.62,81.14 L27.44,81.14 L26.18,80.02 L5.88,80.02 L4.62,81.14 Z M6.79,105.5 L8.61,106.62 L23.45,106.62 L25.27,105.5 L6.79,105.5 Z M6.79,79.32 L25.27,79.32 L23.45,78.2 L8.61,78.2 L6.79,79.32 Z M10.15,107.32 C11.97,108.02 13.86,108.44 15.68,108.44 L16.31,108.44 C18.2,108.44 20.02,108.02 21.91,107.32 L10.15,107.32 Z M10.29,77.43 L21.77,77.43 C20.02,76.8 18.27,76.38 16.38,76.38 L15.61,76.38 C13.86,76.38 12.04,76.8 10.29,77.43 Z" id="Shape"></path>
                        <path d="M44.66,70.22 L53.13,70.22 L53.13,69.1 L44.66,69.1 L44.66,70.22 Z M44.66,108.44 L82.95,108.44 L82.95,107.32 L44.66,107.32 L44.66,108.44 Z M44.66,106.62 L81.55,106.62 L81.55,105.5 L44.66,105.5 L44.66,106.62 Z M44.66,104.8 L80.15,104.8 L80.15,103.68 L44.66,103.68 L44.66,104.8 Z M44.66,102.98 L78.75,102.98 L78.75,101.86 L44.66,101.86 L44.66,102.98 Z M44.66,101.16 L77.28,101.16 L77.28,100.04 L44.66,100.04 L44.66,101.16 Z M44.66,99.34 L75.88,99.34 L75.88,98.22 L44.66,98.22 L44.66,99.34 Z M44.66,97.52 L74.48,97.52 L74.48,96.4 L44.66,96.4 L44.66,97.52 Z M44.66,95.7 L73.01,95.7 L73.01,94.58 L44.66,94.58 L44.66,95.7 Z M44.66,93.88 L71.61,93.88 L71.61,92.76 L44.66,92.76 L44.66,93.88 Z M44.66,92.06 L70.21,92.06 L70.21,90.94 L44.66,90.94 L44.66,92.06 Z M44.66,90.24 L68.74,90.24 L68.74,89.12 L44.66,89.12 L44.66,90.24 Z M44.66,88.42 L67.34,88.42 L67.34,87.3 L44.66,87.3 L44.66,88.42 Z M44.66,86.6 L65.94,86.6 L65.94,85.48 L44.66,85.48 L44.66,86.6 Z M44.66,84.78 L64.54,84.78 L64.54,83.73 L44.66,83.73 L44.66,84.78 Z M44.66,82.96 L63.07,82.96 L63.07,81.84 L44.66,81.84 L44.66,82.96 Z M44.66,81.14 L61.67,81.14 L61.67,80.02 L44.66,80.02 L44.66,81.14 Z M44.66,79.32 L60.2,79.32 L60.2,78.2 L44.66,78.2 L44.66,79.32 Z M44.66,77.43 L58.8,77.43 L58.8,76.38 L44.66,76.38 L44.66,77.43 Z M44.66,75.61 L57.4,75.61 L57.4,74.56 L44.66,74.56 L44.66,75.61 Z M44.66,73.86 L56,73.86 L56,72.74 L44.66,72.74 L44.66,73.86 Z M44.66,72.04 L54.53,72.04 L54.53,70.92 L44.66,70.92 L44.66,72.04 Z M44.66,68.4 L51.73,68.4 L51.73,67.28 L44.66,67.28 L44.66,68.4 Z M44.66,66.58 L50.26,66.58 L50.26,65.46 L44.66,65.46 L44.66,66.58 Z M44.66,64.76 L48.86,64.76 L48.86,63.64 L44.66,63.64 L44.66,64.76 Z M44.66,62.94 L47.46,62.94 L47.46,61.82 L44.66,61.82 L44.66,62.94 Z M44.66,61.12 L45.99,61.12 L45.99,60 L44.66,60 L44.66,61.12 Z M55.16,61.12 L93.45,61.12 L93.45,60 L55.16,60 L55.16,61.12 Z M56.56,62.94 L93.45,62.94 L93.45,61.82 L56.56,61.82 L56.56,62.94 Z M57.96,64.76 L93.45,64.76 L93.45,63.64 L57.96,63.64 L57.96,64.76 Z M59.36,66.58 L93.45,66.58 L93.45,65.46 L59.36,65.46 L59.36,66.58 Z M60.83,68.4 L93.45,68.4 L93.45,67.28 L60.83,67.28 L60.83,68.4 Z M62.23,70.22 L93.45,70.22 L93.45,69.1 L62.23,69.1 L62.23,70.22 Z M63.63,72.04 L93.45,72.04 L93.45,70.92 L63.63,70.92 L63.63,72.04 Z M65.1,73.86 L93.45,73.86 L93.45,72.74 L65.1,72.74 L65.1,73.86 Z M66.5,75.68 L93.45,75.68 L93.45,74.56 L66.5,74.56 L66.5,75.68 Z M67.9,77.5 L93.45,77.5 L93.45,76.38 L67.9,76.38 L67.9,77.5 Z M69.37,79.32 L93.45,79.32 L93.45,78.2 L69.37,78.2 L69.37,79.32 Z M70.77,81.14 L93.45,81.14 L93.45,80.02 L70.77,80.02 L70.77,81.14 Z M72.17,82.96 L93.45,82.96 L93.45,81.84 L72.17,81.84 L72.17,82.96 Z M73.57,84.71 L93.45,84.71 L93.45,83.66 L73.57,83.66 L73.57,84.71 Z M75.04,86.6 L93.45,86.6 L93.45,85.48 L75.04,85.48 L75.04,86.6 Z M76.44,88.42 L93.45,88.42 L93.45,87.3 L76.44,87.3 L76.44,88.42 Z M77.91,90.24 L93.45,90.24 L93.45,89.12 L77.91,89.12 L77.91,90.24 Z M79.31,92.06 L93.45,92.06 L93.45,91.01 L79.31,91.01 L79.31,92.06 Z M80.71,93.88 L93.45,93.88 L93.45,92.83 L80.71,92.83 L80.71,93.88 Z M82.11,95.7 L93.45,95.7 L93.45,94.58 L82.11,94.58 L82.11,95.7 Z M83.58,97.52 L93.45,97.52 L93.45,96.4 L83.58,96.4 L83.58,97.52 Z M84.98,99.34 L93.45,99.34 L93.45,98.22 L84.98,98.22 L84.98,99.34 Z M86.38,101.16 L93.45,101.16 L93.45,100.04 L86.38,100.04 L86.38,101.16 Z M87.85,102.98 L93.45,102.98 L93.45,101.86 L87.85,101.86 L87.85,102.98 Z M89.25,104.8 L93.45,104.8 L93.45,103.68 L89.25,103.68 L89.25,104.8 Z M90.65,106.62 L93.45,106.62 L93.45,105.5 L90.65,105.5 L90.65,106.62 Z M92.12,108.44 L93.45,108.44 L93.45,107.32 L92.12,107.32 L92.12,108.44 Z" id="Shape"></path>
                        <path d="M116.34,70.22 L126.07,70.22 L126.07,69.1 L116.34,69.1 L116.34,70.22 Z M96.95,108.44 L145.88,108.44 L145.32,107.32 L96.95,107.32 L96.95,108.44 Z M97.86,106.62 L144.97,106.62 L144.41,105.5 L97.86,105.5 L97.86,106.62 Z M98.77,104.8 L144.06,104.8 L143.5,103.68 L98.77,103.68 L98.77,104.8 Z M99.75,102.98 L143.15,102.98 L142.59,101.86 L99.75,101.86 L99.75,102.98 Z M100.66,101.16 L142.24,101.16 L141.68,100.04 L100.66,100.04 L100.66,101.16 Z M101.57,99.34 L141.33,99.34 L140.77,98.22 L101.57,98.22 L101.57,99.34 Z M102.48,97.52 L140.42,97.52 L139.86,96.4 L102.48,96.4 L102.48,97.52 Z M103.39,95.7 L139.51,95.7 L138.95,94.58 L103.39,94.58 L103.39,95.7 Z M104.3,93.88 L138.6,93.88 L138.04,92.76 L104.3,92.76 L104.3,93.88 Z M105.28,92.06 L137.69,92.06 L137.2,90.94 L105.28,90.94 L105.28,92.06 Z M106.19,90.24 L136.78,90.24 L136.22,89.12 L106.19,89.12 L106.19,90.24 Z M107.1,88.42 L135.94,88.42 L135.38,87.3 L107.1,87.3 L107.1,88.42 Z M108.01,86.6 L135.03,86.6 L134.47,85.48 L108.01,85.48 L108.01,86.6 Z M108.92,84.78 L134.12,84.78 L133.56,83.73 L108.92,83.73 L108.92,84.78 Z M109.83,82.96 L133.21,82.96 L132.65,81.84 L109.83,81.84 L109.83,82.96 Z M110.81,81.14 L132.3,81.14 L131.74,80.02 L110.81,80.02 L110.81,81.14 Z M111.72,79.32 L131.39,79.32 L130.83,78.2 L111.72,78.2 L111.72,79.32 Z M112.63,77.43 L130.41,77.43 L129.92,76.38 L112.63,76.38 L112.63,77.43 Z M113.54,75.61 L129.5,75.61 L129.01,74.56 L113.54,74.56 L113.54,75.61 Z M114.45,73.86 L128.66,73.86 L128.1,72.74 L114.45,72.74 L114.45,73.86 Z M115.36,72.04 L127.75,72.04 L127.19,70.92 L115.36,70.92 L115.36,72.04 Z M117.25,68.4 L125.16,68.4 L125.16,67.28 L117.25,67.28 L117.25,68.4 Z M118.16,66.58 L124.25,66.58 L124.25,65.46 L118.16,65.46 L118.16,66.58 Z M119.07,64.76 L123.34,64.76 L123.34,63.64 L119.07,63.64 L119.07,64.76 Z M119.98,62.94 L122.36,62.94 L122.36,61.82 L119.98,61.82 L119.98,62.94 Z M120.89,61.12 L121.45,61.12 L121.45,60 L120.89,60 L120.89,61.12 Z" id="Shape"></path>
                        <path d="M149.38,98.22 L149.38,99.34 L156.66,99.34 L156.66,98.22 L149.38,98.22 Z M149.38,108.44 L150.08,108.44 L150.08,107.32 L149.38,107.32 L149.38,108.44 Z M149.38,106.62 L151.48,106.62 L151.48,105.5 L149.38,105.5 L149.38,106.62 Z M149.38,104.8 L152.74,104.8 L152.74,103.68 L149.38,103.68 L149.38,104.8 Z M149.38,102.98 L154,102.98 L154,101.86 L149.38,101.86 L149.38,102.98 Z M149.38,101.16 L155.33,101.16 L155.33,100.04 L149.38,100.04 L149.38,101.16 Z M149.38,97.52 L157.92,97.52 L157.92,96.4 L149.38,96.4 L149.38,97.52 Z M149.38,95.7 L159.25,95.7 L159.25,94.58 L149.38,94.58 L149.38,95.7 Z M149.38,93.88 L160.51,93.88 L160.51,92.83 L149.38,92.83 L149.38,93.88 Z M149.38,92.06 L161.84,92.06 L161.84,91.01 L149.38,91.01 L149.38,92.06 Z M149.38,90.24 L163.1,90.24 L163.1,89.12 L149.38,89.12 L149.38,90.24 Z M149.38,88.42 L164.43,88.42 L164.43,87.3 L149.38,87.3 L149.38,88.42 Z M149.38,86.6 L165.69,86.6 L165.69,85.48 L149.38,85.48 L149.38,86.6 Z M149.38,84.71 L167.09,84.71 L167.09,83.66 L149.38,83.66 L149.38,84.71 Z M149.38,82.96 L168.35,82.96 L168.35,81.84 L149.38,81.84 L149.38,82.96 Z M149.38,81.14 L169.61,81.14 L169.61,80.02 L149.38,80.02 L149.38,81.14 Z M149.38,79.32 L170.87,79.32 L170.87,78.2 L149.38,78.2 L149.38,79.32 Z M149.38,77.5 L172.27,77.5 L172.27,76.38 L149.38,76.38 L149.38,77.5 Z M149.38,75.68 L173.53,75.68 L173.53,74.56 L149.38,74.56 L149.38,75.68 Z M149.38,73.86 L174.79,73.86 L174.79,72.74 L149.38,72.74 L149.38,73.86 Z M149.38,72.04 L176.12,72.04 L176.12,70.92 L149.38,70.92 L149.38,72.04 Z M149.38,70.22 L177.45,70.22 L177.45,69.1 L149.38,69.1 L149.38,70.22 Z M149.38,68.4 L178.71,68.4 L178.71,67.28 L149.38,67.28 L149.38,68.4 Z M149.38,66.58 L180.04,66.58 L180.04,65.46 L149.38,65.46 L149.38,66.58 Z M149.38,64.76 L181.3,64.76 L181.3,63.64 L149.38,63.64 L149.38,64.76 Z M149.38,62.94 L182.63,62.94 L182.63,61.82 L149.38,61.82 L149.38,62.94 Z M149.38,61.12 L183.89,61.12 L183.89,60 L149.38,60 L149.38,61.12 Z" id="Shape"></path>
                        <path d="M190.89,90.24 L209.09,90.24 L209.09,89.12 L190.89,89.12 L190.89,90.24 Z M190.89,108.44 L223.3,108.44 L223.3,107.32 L190.89,107.32 L190.89,108.44 Z M190.89,106.62 L221.9,106.62 L221.9,105.5 L190.89,105.5 L190.89,106.62 Z M190.89,104.8 L220.5,104.8 L220.5,103.68 L190.89,103.68 L190.89,104.8 Z M190.89,102.98 L219.1,102.98 L219.1,101.86 L190.89,101.86 L190.89,102.98 Z M190.89,101.16 L217.63,101.16 L217.63,100.04 L190.89,100.04 L190.89,101.16 Z M190.89,99.34 L216.23,99.34 L216.23,98.22 L190.89,98.22 L190.89,99.34 Z M190.89,97.52 L214.83,97.52 L214.83,96.4 L190.89,96.4 L190.89,97.52 Z M190.89,95.7 L213.36,95.7 L213.36,94.58 L190.89,94.58 L190.89,95.7 Z M190.89,93.88 L211.96,93.88 L211.96,92.76 L190.89,92.76 L190.89,93.88 Z M190.89,92.06 L210.56,92.06 L210.56,90.94 L190.89,90.94 L190.89,92.06 Z M190.89,88.42 L207.69,88.42 L207.69,87.3 L190.89,87.3 L190.89,88.42 Z M190.89,86.6 L206.29,86.6 L206.29,85.48 L190.89,85.48 L190.89,86.6 Z M190.89,84.78 L204.89,84.78 L204.89,83.73 L190.89,83.73 L190.89,84.78 Z M190.89,82.96 L206.29,82.96 L206.29,81.84 L190.89,81.84 L190.89,82.96 Z M190.89,81.14 L207.69,81.14 L207.69,80.02 L190.89,80.02 L190.89,81.14 Z M190.89,79.32 L209.09,79.32 L209.09,78.2 L190.89,78.2 L190.89,79.32 Z M190.89,77.5 L210.56,77.5 L210.56,76.38 L190.89,76.38 L190.89,77.5 Z M190.89,75.68 L211.96,75.68 L211.96,74.56 L190.89,74.56 L190.89,75.68 Z M190.89,73.86 L213.36,73.86 L213.36,72.74 L190.89,72.74 L190.89,73.86 Z M190.89,72.04 L214.83,72.04 L214.83,70.92 L190.89,70.92 L190.89,72.04 Z M190.89,70.22 L216.23,70.22 L216.23,69.1 L190.89,69.1 L190.89,70.22 Z M190.89,68.4 L217.63,68.4 L217.63,67.28 L190.89,67.28 L190.89,68.4 Z M190.89,66.58 L219.1,66.58 L219.1,65.46 L190.89,65.46 L190.89,66.58 Z M190.89,64.76 L220.5,64.76 L220.5,63.64 L190.89,63.64 L190.89,64.76 Z M190.89,62.94 L221.9,62.94 L221.9,61.82 L190.89,61.82 L190.89,62.94 Z M190.89,61.12 L223.3,61.12 L223.3,60 L190.89,60 L190.89,61.12 Z" id="Shape"></path>
                        <path d="M227.15,89.12 L226.94,90.24 L258.72,90.24 L258.51,89.12 L227.15,89.12 Z M226.8,92.76 L226.87,93.88 L258.79,93.88 L258.86,92.76 L226.8,92.76 Z M226.8,92.06 L258.86,92.06 L258.79,90.94 L226.87,90.94 L226.8,92.06 Z M226.94,94.58 L227.15,95.7 L258.51,95.7 L258.72,94.58 L226.94,94.58 Z M227.29,96.4 L227.64,97.52 L258.02,97.52 L258.37,96.4 L227.29,96.4 Z M227.29,88.42 L258.37,88.42 L258.02,87.3 L227.64,87.3 L227.29,88.42 Z M227.92,98.22 L228.41,99.34 L257.32,99.34 L257.81,98.22 L227.92,98.22 Z M227.92,86.6 L257.74,86.6 L257.32,85.48 L228.41,85.48 L227.92,86.6 Z M228.76,100.04 L229.39,101.16 L256.27,101.16 L256.9,100.04 L228.76,100.04 Z M228.76,84.78 L256.9,84.78 L256.34,83.73 L229.39,83.73 L228.76,84.78 Z M229.88,101.86 L230.79,102.98 L254.87,102.98 L255.78,101.86 L229.88,101.86 Z M229.88,82.96 L255.78,82.96 L254.87,81.84 L230.79,81.84 L229.88,82.96 Z M231.42,103.68 L232.68,104.8 L252.98,104.8 L254.24,103.68 L231.42,103.68 Z M231.42,81.14 L254.24,81.14 L252.98,80.02 L232.68,80.02 L231.42,81.14 Z M233.59,105.5 L235.41,106.62 L250.25,106.62 L252.07,105.5 L233.59,105.5 Z M233.59,79.32 L252.07,79.32 L250.25,78.2 L235.41,78.2 L233.59,79.32 Z M236.95,107.32 C238.77,108.02 240.66,108.44 242.48,108.44 L243.11,108.44 C245,108.44 246.82,108.02 248.71,107.32 L236.95,107.32 Z M237.09,77.43 L248.57,77.43 C246.82,76.8 245.07,76.38 243.18,76.38 L242.41,76.38 C240.66,76.38 238.84,76.8 237.09,77.43 Z" id="Shape"></path>
                    </g>
                    <g id="blocks" transform="translate(1.750000, 11.560000)" fill="#434A5A" fill-rule="nonzero">
                        <polygon id="Path" style="mix-blend-mode: multiply;" points="49 0 0 0 0 21"></polygon>
                        <polygon id="Path" style="mix-blend-mode: multiply;" points="62.51 0 87.08 48.44 110.95 0"></polygon>
                        <path d="M138.6,38.85 C146.65,38.85 153.23,32.27 153.23,24.22 C153.23,16.17 146.65,9.59 138.6,9.59 C130.55,9.59 123.97,16.17 123.97,24.22 C123.97,32.27 130.55,38.85 138.6,38.85 Z" id="Path" style="mix-blend-mode: multiply;"></path>
                        <path d="M25.06,92.06 C33.88,92.06 41.09,84.85 41.09,76.03 C41.09,67.21 33.88,60 25.06,60 C16.24,60 9.03,67.21 9.03,76.03 C9.03,84.85 16.24,92.06 25.06,92.06 Z" id="Path" style="mix-blend-mode: multiply;"></path>
                        <polygon id="Path" style="mix-blend-mode: multiply;" points="44.66 100.6 93.52 76.38 44.66 76.38"></polygon>
                        <polygon id="Path" style="mix-blend-mode: multiply;" points="107.45 108.44 145.95 108.44 126.77 69.94"></polygon>
                        <path d="M173.46,88 C181.16,88 187.46,81.7 187.46,74 C187.46,66.3 181.16,60 173.46,60 C165.76,60 159.46,66.3 159.46,74 C159.46,81.7 165.76,88 173.46,88 Z" id="Path" style="mix-blend-mode: multiply;"></path>
                        <polygon id="Path" style="mix-blend-mode: multiply;" points="190.89 108.44 215.11 84.08 190.89 60"></polygon>
                        <path d="M251.86,92.06 C260.68,92.06 267.89,84.85 267.89,76.03 C267.89,67.21 260.68,60 251.86,60 C243.04,60 235.83,67.21 235.83,76.03 C235.83,84.85 243.04,92.06 251.86,92.06 Z" id="Path" style="mix-blend-mode: multiply;"></path>
                    </g>
                </g>
            </g>
        </g>
    </g>
</svg>