<svg xmlns="http://www.w3.org/2000/svg" width="388" height="161"><g fill="#E7E6DF" fill-rule="nonzero" opacity=".504" style="mix-blend-mode:multiply"><path d="M63 36.559C63 14.803 45.45 0 23.625 0H0v11.214h19.35c18 0 32.4 10.317 32.4 25.345 0 15.027-14.4 25.12-32.4 25.12H0v11.214h23.625C45.45 72.893 63 58.314 63 36.559ZM0 157h23.625C45.45 157 63 142.197 63 120.441c0-21.755-17.55-36.334-39.375-36.334H0V157ZM86 157l53.5-78.5H86V157Zm0-89.714h61.08L193 0H86v67.286ZM184.975 78.5V67.286h-37.896L139.5 78.5h45.475ZM230.5 161c-8.76 0-15.5-7.933-15.5-17.227 0-8.84 6.74-16.773 15.5-16.773 8.536 0 15.5 7.933 15.5 16.773 0 9.294-6.964 17.227-15.5 17.227ZM269 16.821h107.858V0H269v16.821ZM269 157h60.614C361.704 157 388 129.637 388 94.2c0-34.989-26.296-62.351-58.386-62.351H269v11.214h60.614c26.073 0 47.244 22.877 47.244 51.137 0 28.709-21.17 51.586-47.244 51.586H269V157Zm0-17.943h58.386c22.062 0 42.786-19.737 42.786-44.857 0-24.671-20.724-44.409-42.786-44.409H269v11.215h58.386c15.599 0 31.644 15.027 31.644 33.194 0 18.616-16.045 33.643-31.644 33.643H269v11.214Zm0-17.943h56.157c14.931 0 27.188-11.887 27.188-26.914 0-14.579-12.257-26.466-27.188-26.466H269V78.95h56.157c8.691 0 16.045 7.401 16.045 15.251 0 8.299-7.354 15.7-16.045 15.7H269v11.214Z" style="mix-blend-mode:multiply"/></g></svg>