<svg xmlns="http://www.w3.org/2000/svg" width="516" height="159"><g fill="#424345" fill-rule="nonzero"><path d="M53 72 27.8 2h5L58 72h-5ZM0 54C0 39.2 14.2 18.7 25.8 2c3.3 8.3 11.6 31.3 11.6 43 0 11.2-2.9 28.5-19.4 28.5C6.7 73.5 0 64.4 0 54ZM89.5 19.5C89.5 12.6 83.9 7 77 7H63.5V2h31.1v70h10.5c9.7 0 17.5-7.8 17.5-17.5S114.8 37 105.1 37H63.5v-5H77c6.9 0 12.5-5.6 12.5-12.5ZM144.5 73.5c11.2 0 13.4-15.4 13.4-36.5 0-18.2.1-31.5 8.4-31.5s8.4 13.3 8.4 31.5h5c0-21.1-2.2-36.5-13.4-36.5S152.9 15.9 152.9 37c0 18.2-.1 31.5-8.4 31.5s-8.4-13.3-8.4-31.5h-5c0 21.1 2.2 36.5 13.4 36.5ZM210.2 72V7h-23.5V2h28.5v70h-5Zm8 0V2h28.5v5h-23.5v65h-5ZM253.7 72V2h18.4c1.9 0 3.8.2 5.5.7 3.1.9 5.8 2.4 8 4.5-1-.1-2-.2-3-.2h-5V2h5c15.1 0 25 11.6 25 26 0 10.4-8.2 19.4-15.1 22l13.6 22h-5l-15-24.2 1.1-.2c8.3-1.7 15.4-11.5 15.4-19.6 0-6.2-2.3-11.9-6.4-15.8-2.8-2.6-6.4-4.4-10.6-5 1.2 1.1 2.2 2.4 3 3.8-2.8-2.5-6.6-4-11-4h-5.5V2h5.5c8.4 0 14.9 4.1 18.6 10.2 2.2 3.7 3.4 8.1 3.4 12.8 0 10.3-8.7 18.8-17.9 20.6L298.1 72h-5L275 42.8h1c10.5-.4 18.6-6.9 18.6-17.8 0-5.6-2.2-10.7-6-14 1.9 3.1 3 6.9 3 11 0 9.8-8.3 19-20.8 19l19.3 31h-5l-21.4-35h5.9c10.8 0 17-6.3 17-15 0-8.4-5.8-15-14.5-15h-13.4v65h-5ZM367.6 72 342.4 2h5l25.2 70h-5Zm-53-18c0-14.8 14.2-35.3 25.8-52 3.3 8.3 11.6 31.3 11.6 43 0 11.2-2.9 28.5-19.4 28.5-11.3 0-18-9.1-18-19.5ZM413.4 73.5c21 0 33.6-17.2 33.6-34.1h-5c0 14-10.5 29.1-28.6 29.1-18.2 0-28.8-15-28.8-31.6s10.7-31.4 28.8-31.4S442 20.4 442 34.4h5C447 17.5 434.4.5 413.4.5s-33.8 16.9-33.8 36.4 12.7 36.6 33.8 36.6Zm-26.3-36.6c0 15.2 9.5 29.1 26.3 29.1 16.7 0 26.1-14 26.1-26.6h-5c0 9.7-7.3 21.6-21.1 21.6-13.9 0-21.3-11.8-21.3-24.1S399.6 13 413.4 13s21.1 11.7 21.1 21.4h5c0-12.6-9.4-26.4-26.1-26.4-16.7 0-26.3 13.7-26.3 28.9Zm7.5 0c0 10.9 6.3 21.6 18.8 21.6 12.3 0 18.6-10.9 18.6-19.1h-5c0 5.4-4.1 14.1-13.6 14.1-9.6 0-13.8-8.6-13.8-16.6 0-8 4.3-16.4 13.8-16.4S427 29 427 34.4h5c0-8.2-6.3-18.9-18.6-18.9S394.6 26 394.6 36.9Zm7.5 0c0 6.5 3.2 14.1 11.3 14.1 8 0 11.1-7.7 11.1-11.6h-5c0 1-1 6.6-6.1 6.6-5.2 0-6.3-5.5-6.3-9.1 0-3.6 1.2-8.9 6.3-8.9s6.1 5.4 6.1 6.4h5c0-3.9-3.1-11.4-11.1-11.4s-11.3 7.4-11.3 13.9ZM479 72V7h-23.5V2H484v70h-5Zm8 0V2h28.5v5H492v65h-5ZM14.9 158.5c11.2 0 13.4-15.4 13.4-36.5 0-18.2.1-31.5 8.4-31.5s8.4 13.3 8.4 31.5h5c0-21.1-2.2-36.5-13.4-36.5S23.3 100.9 23.3 122c0 18.2-.1 31.5-8.4 31.5S6.5 140.2 6.5 122h-5c0 21.1 2.2 36.5 13.4 36.5ZM62.1 157v-29.5h50V157h-5v-24.5h-40V157h-5Zm-5-32.5v-5h60v5h-60Zm5-8V87h5v24.5h40V87h5v29.5h-50ZM175.6 157l-25.2-70h5l25.2 70h-5Zm-53-18c0-14.8 14.2-35.3 25.8-52 3.3 8.3 11.6 31.3 11.6 43 0 11.2-2.9 28.5-19.4 28.5-11.3 0-18-9.1-18-19.5ZM186.1 157v-30h36.6c9.7 0 17.4-8 17.4-17.6 0-9.7-7.7-17.4-17.4-17.4h-36.6v-5h59v70h-59ZM287.4 85.5c-21 0-33.8 17.1-33.8 36.4 0 19.5 12.7 36.6 33.8 36.6 10.8 0 19.5-4.6 25.2-11.4l-3.6-3.6c-4.8 5.9-12.2 10-21.6 10-18.2 0-28.8-15-28.8-31.6h2.5c0 15.2 9.5 29.1 26.3 29.1 8.7 0 15.4-3.8 19.9-9.2l-3.6-3.6c-3.6 4.5-9 7.8-16.3 7.8-13.9 0-21.3-11.8-21.3-24.1h2.5c0 10.9 6.3 21.6 18.8 21.6 6.5 0 11.3-3.1 14.4-7.2l-3.5-3.5c-2.2 3.2-5.8 5.7-10.9 5.7-9.6 0-13.8-8.6-13.8-16.6h2.5c0 6.5 3.2 14.1 11.3 14.1 4.4 0 7.3-2.3 9-5.1l-3.6-3.6c-.8 1.8-2.4 3.7-5.4 3.7-5.2 0-6.3-5.5-6.3-9.1H321c0-19.3-12.6-36.4-33.6-36.4ZM342.9 158.5c11.2 0 13.4-15.4 13.4-36.5 0-18.2.1-31.5 8.4-31.5s8.4 13.3 8.4 31.5h5c0-21.1-2.2-36.5-13.4-36.5s-13.4 15.4-13.4 36.5c0 18.2-.1 31.5-8.4 31.5s-8.4-13.3-8.4-31.5h-5c0 21.1 2.2 36.5 13.4 36.5Z"/></g></svg>