<svg xmlns="http://www.w3.org/2000/svg" width="320" height="40"><g fill="#000" fill-rule="nonzero"><path d="M9.58 30.224c3.416 0 6.244-2.324 6.244-5.88 0-3.584-2.52-6.468-6.244-6.468-1.456 0-2.744.7-3.668 1.848v-7.336h7.98l.056 1.876h.924V10.96H4.792v10.752h1.12c.644-1.512 1.568-3.108 3.5-3.108 3.136 0 3.724 3.5 3.724 5.852 0 2.52-1.652 5.04-4.34 5.04-1.484 0-2.464-.728-2.996-1.596h.084c.896 0 1.568-.672 1.568-1.54s-.672-1.54-1.568-1.54c-.84 0-1.512.672-1.512 1.54 0 1.652 1.708 3.864 5.208 3.864ZM18.512 30h11.76v-3.304h-.924l-.056 1.876h-9.1c.728-1.736 2.576-3.276 4.34-4.564 2.52-1.764 5.6-4.032 5.6-7.504 0-3.612-2.576-5.768-5.992-5.768-3.5 0-5.628 2.184-5.628 3.864 0 .84.644 1.512 1.512 1.512s1.568-.672 1.568-1.512-.672-1.54-1.484-1.568c.616-.84 1.708-1.568 3.052-1.568 2.52 0 4.228 1.988 4.228 4.592 0 2.66-.952 4.816-3.304 6.664-2.408 1.904-5.572 5.068-5.572 7.28ZM37.664 17.82c2.212 0 4.228-1.232 4.228-3.528 0-2.296-2.016-3.556-4.228-3.556-2.24 0-4.256 1.26-4.256 3.556 0 2.296 2.016 3.528 4.256 3.528Zm-2.492-3.528c0-1.68.84-2.884 2.492-2.884 1.624 0 2.492 1.176 2.492 2.884s-.868 2.856-2.492 2.856c-1.652 0-2.492-1.204-2.492-2.856ZM49.536 30h6.356v-.924l-1.932-.056v-4.788h2.912v-1.12H53.96V16h-.756c0 2.576-.644 6.412-1.792 7.112h-4.956c3.668-3.052 4.564-6.272 4.564-10.5 0-.616-.056-1.176-.168-1.652h-2.688c.308.924.504 2.268.504 3.808 0 2.436-1.176 5.516-4.284 8.344v1.12h7.028v4.788l-1.876.056V30ZM66.336 30.224c3.304 0 6.104-2.072 6.104-5.572 0-2.772-1.764-4.284-3.892-5.012 1.68-.644 3.052-1.904 3.052-4.144 0-3.08-2.604-4.76-5.348-4.76-3.164 0-5.208 1.988-5.208 3.864 0 .84.672 1.512 1.512 1.512.896 0 1.568-.672 1.568-1.512 0-.868-.672-1.568-1.568-1.568H62.5c.56-.868 1.568-1.568 3.052-1.568 2.128 0 3.472 2.044 3.472 4.032 0 2.24-1.792 3.64-3.892 3.64v1.092h.14c2.576 0 4.508 1.82 4.508 4.424 0 2.464-1.68 4.844-4.256 4.844-1.456 0-2.464-.728-3.024-1.596h.056c.896 0 1.568-.672 1.568-1.54s-.672-1.54-1.568-1.54c-.84 0-1.512.672-1.512 1.54 0 1.652 1.764 3.864 5.292 3.864ZM74.26 14.208v.364c2.324 0 3.528-2.212 3.528-3.444 0-.84-.672-1.512-1.512-1.512s-1.512.672-1.512 1.512c0 1.176.588 1.4.588 2.24 0 .588-.448.84-1.092.84ZM80.728 30h11.76v-3.304h-.924l-.056 1.876h-9.1c.728-1.736 2.576-3.276 4.34-4.564 2.52-1.764 5.6-4.032 5.6-7.504 0-3.612-2.576-5.768-5.992-5.768-3.5 0-5.628 2.184-5.628 3.864 0 .84.644 1.512 1.512 1.512s1.568-.672 1.568-1.512-.672-1.54-1.484-1.568c.616-.84 1.708-1.568 3.052-1.568 2.52 0 4.228 1.988 4.228 4.592 0 2.66-.952 4.816-3.304 6.664-2.408 1.904-5.572 5.068-5.572 7.28ZM102.4 30.224c5.04 0 7.364-4.788 7.364-9.744 0-6.188-2.604-9.744-7.056-9.744-3.92 0-6.804 2.492-6.804 6.104 0 3.584 2.772 6.16 6.692 6.16 1.68 0 3.472-.7 4.452-1.932-.224 4.648-1.344 8.428-5.068 8.428-1.428 0-2.744-.728-3.5-1.596.84-.056 1.428-.7 1.428-1.54 0-.84-.644-1.54-1.512-1.54-.896 0-1.568.7-1.568 1.54 0 1.596 1.652 3.864 5.572 3.864ZM98.592 16.84c0-2.912 1.512-5.376 4.116-5.376 2.548 0 3.92 2.604 3.92 5.376 0 2.772-1.372 5.432-3.92 5.432-2.604 0-4.116-2.52-4.116-5.432ZM114.132 30.224c.896 0 1.624-.728 1.624-1.652 0-.924-.728-1.624-1.624-1.624-.924 0-1.652.728-1.652 1.624 0 .924.728 1.652 1.652 1.652ZM126.368 30.224c5.684 0 7.056-5.796 7.056-9.884 0-4.06-1.54-9.604-7.056-9.604-5.712 0-7.084 5.544-7.084 9.604 0 4.088 1.372 9.884 7.084 9.884Zm-4.396-9.884c0-3.416.896-8.876 4.396-8.876s4.368 5.46 4.368 8.876c0 3.444-.868 9.156-4.368 9.156-3.5 0-4.396-5.712-4.396-9.156ZM136.644 30h11.76v-3.304h-.924l-.056 1.876h-9.1c.728-1.736 2.576-3.276 4.34-4.564 2.52-1.764 5.6-4.032 5.6-7.504 0-3.612-2.576-5.768-5.992-5.768-3.5 0-5.628 2.184-5.628 3.864 0 .84.644 1.512 1.512 1.512s1.568-.672 1.568-1.512-.672-1.54-1.484-1.568c.616-.84 1.708-1.568 3.052-1.568 2.52 0 4.228 1.988 4.228 4.592 0 2.66-.952 4.816-3.304 6.664-2.408 1.904-5.572 5.068-5.572 7.28ZM159.24 30.224c3.892 0 7.336-2.128 7.336-6.104 0-3.248-2.324-5.32-5.292-5.936 1.68-.42 3.248-1.484 3.248-3.668 0-3.052-3.108-3.752-5.32-3.752s-5.32.7-5.32 3.752c0 2.184 1.596 3.248 3.304 3.668-2.996.616-5.376 2.688-5.376 5.936 0 3.976 3.528 6.104 7.42 6.104Zm-4.732-6.104c0-3.164 2.156-5.432 4.732-5.432s4.648 2.212 4.648 5.432c0 3.248-2.072 5.376-4.648 5.376-2.576 0-4.732-2.184-4.732-5.376Zm1.708-9.604c0-1.708 1.456-3.052 2.996-3.052s2.996 1.344 2.996 3.052c0 1.736-1.428 3.164-2.968 3.164s-3.024-1.428-3.024-3.164ZM173.464 14.208v.364c2.296 0 3.5-2.212 3.5-3.444 0-.84-.672-1.512-1.512-1.512s-1.512.672-1.512 1.512c0 1.176.588 1.4.588 2.24 0 .588-.448.84-1.064.84Zm-4.2.364c2.324 0 3.528-2.212 3.528-3.444 0-.84-.672-1.512-1.512-1.512s-1.512.672-1.512 1.512c0 1.176.588 1.4.588 2.24 0 .588-.448.84-1.092.84v.364ZM192.7 30h2.66V11.94l1.848-.056v-.924h-4.732v.924l1.876.056v15.54L185 10.96h-4.648v.924l1.876.056v17.08l-1.876.056V30h4.788v-.924l-1.904-.056V12.78z"/></g></svg>