<svg xmlns="http://www.w3.org/2000/svg" width="320" height="40"><g fill="#000" fill-rule="nonzero"><path d="M14.416 30h4.676v-.924L16.6 29.02l-4.116-6.888 3.668-5.152 2.548-.056V16h-4.62v.924l1.176.056-3.164 4.48L8.844 16H4.196v.924l2.436.056 3.948 6.608-3.864 5.432-2.576.056V30h4.676v-.924l-1.232-.056 3.388-4.76zM22.788 17.036c1.232 0 2.408-.672 2.408-2.044 0-1.036-.672-1.596-1.456-1.876.616-.224 1.148-.672 1.148-1.512 0-1.232-1.092-1.764-2.1-1.764-1.148 0-1.96.7-1.96 1.428 0 .336.28.616.616.616.392 0 .7-.28.7-.616a.675.675 0 0 0-.448-.644c.224-.196.532-.28.812-.28.7 0 1.12.588 1.12 1.26 0 .728-.504 1.316-1.288 1.316v.42h.056c.952 0 1.512.756 1.512 1.652 0 .784-.504 1.54-1.4 1.54-.308 0-.644-.084-.868-.28.308-.056.504-.336.504-.644a.663.663 0 0 0-.672-.672c-.336 0-.644.308-.644.672 0 .644.812 1.428 1.96 1.428ZM36.06 29.496h1.764v-6.468h6.44v-1.764h-6.44v-6.468H36.06v6.468h-6.496v1.764h6.496zM51.572 36.944c1.456 0 2.24-1.344 2.632-2.38l6.608-17.584 2.212-.056V16h-4.62v.924l1.512.056-3.444 9.184L51.852 16h-4.648v.924l2.324.056 5.824 12.152-1.876 5.04c-.252.672-.812 2.044-1.736 2.044-.532 0-.924-.364-1.176-.812 1.064-.028 2.212-1.064 2.212-2.184 0-.588-.476-1.176-1.176-1.176-1.064 0-2.184 1.176-2.184 2.212 0 1.316.98 2.688 2.156 2.688ZM66.72 17.036c1.232 0 2.408-.672 2.408-2.044 0-1.036-.672-1.596-1.456-1.876.616-.224 1.148-.672 1.148-1.512 0-1.232-1.092-1.764-2.1-1.764-1.148 0-1.96.7-1.96 1.428 0 .336.28.616.616.616.392 0 .7-.28.7-.616a.675.675 0 0 0-.448-.644c.224-.196.532-.28.812-.28.7 0 1.12.588 1.12 1.26 0 .728-.504 1.316-1.288 1.316v.42h.056c.952 0 1.512.756 1.512 1.652 0 .784-.504 1.54-1.4 1.54-.308 0-.644-.084-.868-.28.308-.056.504-.336.504-.644a.663.663 0 0 0-.672-.672c-.336 0-.644.308-.644.672 0 .644.812 1.428 1.96 1.428ZM79.992 29.496h1.764v-6.468h6.44v-1.764h-6.44v-6.468h-1.764v6.468h-6.496v1.764h6.496zM92.2 30h11.396v-2.772h-.924l-.056 1.876h-7.084L103.4 16H92.2v2.744h.952l.028-1.848h6.916zM108.356 17.036c1.232 0 2.408-.672 2.408-2.044 0-1.036-.672-1.596-1.456-1.876.616-.224 1.148-.672 1.148-1.512 0-1.232-1.092-1.764-2.1-1.764-1.148 0-1.96.7-1.96 1.428 0 .336.28.616.616.616.392 0 .7-.28.7-.616a.675.675 0 0 0-.448-.644c.224-.196.532-.28.812-.28.7 0 1.12.588 1.12 1.26 0 .728-.504 1.316-1.288 1.316v.42h.056c.952 0 1.512.756 1.512 1.652 0 .784-.504 1.54-1.4 1.54-.308 0-.644-.084-.868-.28.308-.056.504-.336.504-.644a.663.663 0 0 0-.672-.672c-.336 0-.644.308-.644.672 0 .644.812 1.428 1.96 1.428ZM115.132 19.528h14.7v-1.764h-14.7v1.764Zm0 7h14.7v-1.764h-14.7v1.764ZM133.444 30h6.356v-.924l-1.904-.056v-5.012l.476-.616 4.34 6.608h4.816v-.924l-2.548-.056-4.928-7.756 3.332-4.284 2.632-.056V16h-2.772l-5.348 6.888V9.84h-4.452v.924l1.876.056v18.2l-1.876.056z"/></g></svg>