<svg xmlns="http://www.w3.org/2000/svg" width="320" height="40"><g fill="#000" fill-rule="nonzero"><path d="M14.612 30.224c3.948 0 6.384-2.716 6.916-5.824H18.98c-.14 2.268-1.708 5.096-4.368 5.096-4.48 0-5.964-4.788-5.964-9.016 0-4.2 1.736-9.016 6.244-9.016 2.016 0 4.536 1.036 5.32 3.108H20.1c-1.204 0-2.436 1.288-2.436 2.492 0 .728.504 1.26 1.232 1.26 1.204 0 2.492-1.232 2.492-2.436 0-3.472-3.36-5.152-6.72-5.152-5.572 0-8.764 4.76-8.764 9.744 0 5.04 3.136 9.744 8.708 9.744ZM26.204 33.64h3.192v-.448l-.98-.028v-6.72h-1.288c0 .924-.672 1.792-1.624 1.792v.532c.616 0 1.204-.364 1.624-.896v5.292l-.924.028v.448ZM32.56 33.64h4.396v-2.044h-.476l-.028.924h-2.716c.28-.392.728-.756 1.232-1.092 1.036-.7 2.044-1.596 2.044-2.828 0-1.372-1.12-2.156-2.38-2.156-1.26 0-2.044.756-2.1 1.372v.084c0 .364.28.644.644.644.392 0 .7-.28.7-.644a.725.725 0 0 0-.476-.672c.196-.14.504-.252.896-.252.728 0 1.4.7 1.4 1.624 0 1.148-.336 1.82-1.4 2.576-.952.7-1.736 1.652-1.736 2.464ZM51.684 30h6.328v-.924l-1.904-.056V11.94l1.876-.056v-.924h-6.3v.924l1.848.056v7.896h-8.736V11.94l1.876-.056v-.924h-6.328v.924l1.876.056v17.08l-1.876.056V30H46.7v-.924l-1.904-.056v-8.316h8.736v8.316l-1.848.056zM62.016 33.64h3.192v-.448l-.98-.028v-6.72H62.94c0 .924-.672 1.792-1.624 1.792v.532c.616 0 1.204-.364 1.624-.896v5.292l-.924.028v.448ZM68.344 30.896v.56h2.464v1.708l-.924.028v.448h3.192v-.448l-.952-.028v-1.708h.952v-.56h-.952v-2.548h-.588c0 .896-.224 2.1-.616 2.548h-1.764c1.344-1.12 1.82-2.24 1.82-3.808 0-.252-.028-.448-.084-.644h-1.26c.112.364.252.868.252 1.428 0 .952-.392 1.96-1.54 3.024ZM85.312 30.224c5.628 0 8.68-4.704 8.68-9.744 0-4.984-3.052-9.744-8.68-9.744-5.572 0-8.708 4.76-8.708 9.744 0 5.04 3.136 9.744 8.708 9.744Zm-5.964-9.744c0-4.2 1.484-9.016 5.964-9.016 4.536 0 5.964 4.816 5.964 9.016 0 4.228-1.428 9.016-5.964 9.016-4.48 0-5.964-4.788-5.964-9.016ZM97.52 30.896v.56h2.464v1.708l-.924.028v.448h3.192v-.448l-.952-.028v-1.708h.952v-.56h-.952v-2.548h-.588c0 .896-.224 2.1-.616 2.548h-1.764c1.344-1.12 1.82-2.24 1.82-3.808 0-.252-.028-.448-.084-.644h-1.26c.112.364.252.868.252 1.428 0 .952-.392 1.96-1.54 3.024Z"/></g></svg>