<svg xmlns="http://www.w3.org/2000/svg" width="320" height="40"><g fill="#424345" fill-rule="nonzero"><path d="M13.704 30.32c3.072 0 5.92-1.184 8-3.072l-1.6-2.048c-1.856 1.792-4.352 2.72-6.624 2.72-4.896 0-8.16-3.168-8.16-8.736 0-5.568 3.232-8.704 8.128-8.704 2.272 0 4.8.96 6.656 2.72l1.6-2.016a11.821 11.821 0 0 0-8-3.104C6.472 8.08 2.6 13.008 2.6 19.216c0 6.24 3.872 11.104 11.104 11.104ZM31.816 30.32c4.928 0 7.36-3.968 7.36-7.936 0-3.936-2.432-7.904-7.36-7.904-4.928 0-7.392 3.968-7.392 7.904 0 3.968 2.464 7.936 7.392 7.936Zm-4.768-7.936c0-2.816 1.6-5.632 4.768-5.632 3.168 0 4.736 2.816 4.736 5.632 0 2.848-1.568 5.664-4.736 5.664-3.168 0-4.768-2.816-4.768-5.664ZM43.496 30h2.4V19.216c2.112-1.44 3.776-2.464 4.96-2.464 1.12 0 1.76.992 1.76 3.616V30h2.4V19.92c0-.544-.032-1.056-.096-1.504 1.696-1.024 3.232-1.696 4.448-1.696 1.44 0 2.368.992 2.368 3.648V30h2.4V19.92c0-3.776-1.632-5.44-4.128-5.44-1.6 0-3.552.672-5.664 1.888-.64-1.312-1.76-1.888-3.104-1.888-1.536 0-3.456.768-5.344 2.08V14.8h-2.4V30ZM68.936 30h2.4V19.216c2.112-1.44 3.776-2.464 4.96-2.464 1.12 0 1.76.992 1.76 3.616V30h2.4V19.92c0-.544-.032-1.056-.096-1.504 1.696-1.024 3.232-1.696 4.448-1.696 1.44 0 2.368.992 2.368 3.648V30h2.4V19.92c0-3.776-1.632-5.44-4.128-5.44-1.6 0-3.552.672-5.664 1.888-.64-1.312-1.76-1.888-3.104-1.888-1.536 0-3.456.768-5.344 2.08V14.8h-2.4V30ZM98.6 30.32c1.792 0 3.872-.96 5.696-2.112V30h2.4V14.8h-2.4v10.912c-2.208 1.472-4.224 2.336-5.664 2.336-1.568 0-2.496-1.056-2.496-3.616V14.8h-2.4v10.08c0 3.904 2.144 5.44 4.864 5.44ZM112.136 30h2.4V19.088c2.208-1.472 4.224-2.336 5.664-2.336 1.568 0 2.496 1.056 2.496 3.616V30h2.4V19.92c0-3.904-2.144-5.44-4.864-5.44-1.792 0-3.872.96-5.696 2.112V14.8h-2.4V30ZM129.896 30h2.4V14.8h-2.4V30Zm-.544-20.16c0 1.12.864 1.696 1.76 1.696.864 0 1.76-.576 1.76-1.696s-.896-1.696-1.76-1.696c-.896 0-1.76.576-1.76 1.696ZM144.264 30.32c1.696 0 3.392-.544 4.768-1.664l-1.44-1.76c-1.152.768-2.368 1.152-3.52 1.152-3.232 0-4.832-2.816-4.832-5.632s1.632-5.664 4.928-5.664c1.184 0 2.496.416 3.776 1.344l1.312-1.728c-1.44-1.184-3.2-1.888-4.992-1.888-5.088 0-7.648 3.968-7.648 7.904 0 3.968 2.56 7.936 7.648 7.936ZM158.024 30.32c1.568 0 3.2-.64 4.64-1.984V30h2.4V14.8h-2.4v2.208c-1.568-1.76-3.296-2.528-4.896-2.528-3.296 0-6.112 3.072-6.112 8 0 4.8 2.976 7.84 6.368 7.84Zm-3.744-8.032c0-2.944 1.344-5.536 3.488-5.536 1.728 0 3.072.96 4.896 3.52v5.376c-1.632 1.6-3.264 2.4-4.672 2.4-2.176 0-3.712-1.888-3.712-5.76ZM175.24 30.32c1.504 0 3.136-.96 4.608-2.752l-1.472-1.728c-1.248 1.44-2.432 2.208-3.36 2.208-1.088 0-1.632-1.056-1.632-3.328v-7.648h4.992V14.8h-4.992v-3.2h-2.4v3.2h-2.24v2.272h2.24v8.48c0 3.328 1.92 4.768 4.256 4.768ZM183.048 30h2.4V14.8h-2.4V30Zm-.544-20.16c0 1.12.864 1.696 1.76 1.696.864 0 1.76-.576 1.76-1.696s-.896-1.696-1.76-1.696c-.896 0-1.76.576-1.76 1.696ZM195.272 30h2.24l6.624-15.2h-2.784l-4.96 12.128-4.96-12.128h-2.784zM212.968 30.32c2.016 0 4-.704 6.144-1.856l-1.152-1.952c-1.728.96-3.36 1.536-4.768 1.536-2.272 0-3.936-1.472-4.288-4.32h10.88v-.992c0-5.536-3.392-8.256-6.784-8.256s-6.784 2.528-6.784 8.064c0 5.312 2.976 7.776 6.752 7.776Zm-4.064-8.864c.352-3.2 2.272-4.704 4.224-4.704 1.92 0 3.84 1.568 4.32 4.704h-8.544ZM223.624 30h2.4V7.6h-2.4zM232.488 37.36c1.856 0 2.656-1.408 3.488-3.36l8.224-19.2h-2.528l-4.96 11.424-4.928-11.424h-2.56l6.304 14.304-2.048 4.576c-.416.96-.8 1.28-1.504 1.28-.384 0-1.056-.32-1.664-.8l-1.088 2.048c1.056.704 2.208 1.152 3.264 1.152Z"/></g></svg>