<svg xmlns="http://www.w3.org/2000/svg" width="320" height="40"><g fill="#424345" fill-rule="nonzero"><path d="M5.592 30h8.448c6.144 0 11.2-4.608 11.2-10.784 0-6.144-5.056-10.816-11.2-10.816H5.592V30Zm4.576-3.904v-13.76h3.008c4.352 0 7.232 2.72 7.232 6.848 0 4.16-2.88 6.912-7.232 6.912h-3.008ZM35.32 30.448c2.144 0 4.416-.672 6.784-1.856l-1.6-3.136c-1.504.896-3.072 1.408-4.48 1.408-1.856 0-3.296-.928-3.776-2.944h10.4v-1.024c0-5.952-3.52-8.704-7.456-8.704-3.52 0-7.424 2.656-7.424 8.192 0 5.472 3.296 8.064 7.552 8.064Zm-3.136-9.344c.384-2.208 1.728-3.328 3.104-3.328 1.312 0 2.656 1.088 3.072 3.328h-6.176ZM51.544 30.448c3.584 0 5.696-2.208 5.696-4.48 0-3.04-2.304-4.448-5.76-5.632-1.408-.48-2.496-.864-2.496-1.504 0-.608.48-.992 1.28-.992 1.44 0 4.16 1.216 5.44 2.144l1.568-3.072c-2.048-1.728-4.64-2.72-7.04-2.72-3.04 0-5.504 1.92-5.504 4.608 0 2.176 1.632 3.936 5.44 5.024 1.792.544 2.784 1.184 2.784 1.856 0 .768-.512 1.056-1.248 1.056-1.408 0-3.872-1.056-5.6-2.112l-1.6 3.072c2.144 1.728 4.672 2.752 7.04 2.752ZM62.904 37.488c1.824 0 3.104-1.12 4.032-3.36l8.032-19.52h-4.8l-3.424 9.472-3.424-9.472h-4.832l6.272 14.784-.928 2.112c-.512 1.184-1.152 1.6-1.952 1.6-.544 0-1.248-.32-1.792-.704l-1.568 3.488c1.376.928 2.976 1.6 4.384 1.6ZM77.592 30h4.512v-9.6c1.664-1.312 3.04-1.984 4.064-1.984 1.312 0 1.984.768 1.984 3.328V30h4.512V19.6c0-3.904-2.144-5.44-4.864-5.44-1.792 0-3.872.96-5.696 2.112v-1.664h-4.512V30ZM104.12 30.448c2.368 0 4.096-.896 5.344-1.856l-1.824-3.328c-1.152.736-2.272 1.088-3.296 1.088-2.656 0-3.968-2.048-3.968-4.096s1.312-4.128 4-4.128c1.024 0 2.208.352 3.424 1.152l1.76-3.328c-1.28-.992-3.04-1.792-5.44-1.792-5.632 0-8.448 4.032-8.448 8.096 0 4.096 2.816 8.192 8.448 8.192ZM112.504 30h4.512v-9.6c1.664-1.312 3.04-1.984 4.064-1.984 1.312 0 1.984.768 1.984 3.328V30h4.512V19.6c0-3.904-2.144-5.44-4.864-5.44-1.792 0-3.872.96-5.696 2.112V7.6h-4.512V30ZM131.704 30h4.512v-8.384c1.408-1.952 2.88-3.168 4.864-3.168.448 0 .896.096 1.312.32v-4.224c-.48-.256-.896-.352-1.344-.352-2.208 0-3.712 1.696-4.832 3.392v-2.976h-4.512V30ZM152.152 30.448c4.608 0 8.256-3.264 8.256-8.128 0-4.896-3.648-8.128-8.256-8.128-4.608 0-8.256 3.232-8.256 8.128 0 4.864 3.648 8.128 8.256 8.128ZM148.6 22.32c0-1.952 1.12-4.064 3.552-4.064 2.336 0 3.552 2.112 3.552 4.064 0 1.92-1.216 4.032-3.552 4.032-2.432 0-3.552-2.112-3.552-4.032ZM163.96 30h4.512v-9.6c1.664-1.312 3.04-1.984 4.064-1.984 1.312 0 1.984.768 1.984 3.328V30h4.512V19.6c0-3.904-2.144-5.44-4.864-5.44-1.792 0-3.872.96-5.696 2.112v-1.664h-4.512V30ZM183.16 30h4.512V14.608h-4.512V30Zm-.096-20.16c0 1.504 1.152 2.272 2.368 2.272 1.152 0 2.368-.768 2.368-2.272 0-1.504-1.216-2.272-2.368-2.272-1.216 0-2.368.768-2.368 2.272ZM191.064 30h12.16v-4.064h-7.04l7.04-7.264v-4.064h-12.16v4.064h7.328l-7.328 7.264zM206.616 30h4.512V14.608h-4.512V30Zm-.096-20.16c0 1.504 1.152 2.272 2.368 2.272 1.152 0 2.368-.768 2.368-2.272 0-1.504-1.216-2.272-2.368-2.272-1.216 0-2.368.768-2.368 2.272ZM215.8 30h4.512v-9.6c1.664-1.312 3.04-1.984 4.064-1.984 1.312 0 1.984.768 1.984 3.328V30h4.512V19.6c0-3.904-2.144-5.44-4.864-5.44-1.792 0-3.872.96-5.696 2.112v-1.664H215.8V30ZM242.04 37.488c4.096 0 7.328-2.208 7.328-7.232V14.608h-4.32v1.856c-1.632-1.6-3.264-2.304-4.736-2.304-3.744 0-6.432 3.808-6.432 8.288 0 5.44 2.944 7.968 6.304 7.968 1.6 0 3.296-.992 4.864-2.656v1.696c0 2.656-1.536 3.712-3.52 3.712-1.76 0-3.968-.864-5.248-1.664l-1.568 3.776c2.336 1.408 4.96 2.208 7.328 2.208Zm-3.552-14.944c0-2.656 1.184-4.352 2.912-4.352 1.184 0 2.368.608 3.648 1.984v4.32c-1.344 1.536-2.496 2.176-3.616 2.176-1.664 0-2.944-1.44-2.944-4.128Z"/></g></svg>