<svg xmlns="http://www.w3.org/2000/svg" width="320" height="40"><g fill="#424345" fill-rule="nonzero"><path d="M5.784 30h14.464v-3.008H9.016v-6.656h8.896v-2.944H9.016v-5.984h11.232V8.4H5.784zM33.016 30h3.552l-5.408-7.648 5.408-7.616h-3.584l-3.616 5.088-3.616-5.088h-3.584l5.408 7.616L22.168 30h3.552l3.648-5.12zM46.52 30.352c1.92 0 3.648-.64 4.96-1.728l-1.568-2.272c-1.152.768-2.336 1.12-3.424 1.12-3.04 0-4.544-2.56-4.544-5.12s1.504-5.152 4.608-5.152c1.12 0 2.4.416 3.648 1.28l1.472-2.24c-1.376-1.12-3.136-1.856-5.152-1.856-5.248 0-7.904 3.968-7.904 7.968s2.656 8 7.904 8ZM61.56 30.352c4.832 0 7.648-3.712 7.648-8 0-4.256-2.816-7.968-7.648-7.968s-7.68 3.712-7.68 7.968c0 4.288 2.848 8 7.68 8Zm-4.352-8c0-2.528 1.44-5.088 4.352-5.088 2.88 0 4.352 2.56 4.352 5.088 0 2.56-1.472 5.12-4.352 5.12-2.912 0-4.352-2.56-4.352-5.12ZM73.272 30h3.104V19.44c1.856-1.28 3.328-2.112 4.352-2.112 1.088 0 1.664.992 1.664 3.616V30h3.104V19.632c0-.288 0-.576-.032-.832 1.536-.928 2.88-1.504 3.904-1.504 1.312 0 2.144.992 2.144 3.648V30h3.104V19.824c0-3.776-1.632-5.44-4.128-5.44-1.6 0-3.52.64-5.632 1.888-.672-1.312-1.76-1.888-3.136-1.888-1.536 0-3.456.768-5.344 2.08v-1.728h-3.104V30ZM99.192 30h3.104V19.44c1.856-1.28 3.328-2.112 4.352-2.112 1.088 0 1.664.992 1.664 3.616V30h3.104V19.632c0-.288 0-.576-.032-.832 1.536-.928 2.88-1.504 3.904-1.504 1.312 0 2.144.992 2.144 3.648V30h3.104V19.824c0-3.776-1.632-5.44-4.128-5.44-1.6 0-3.52.64-5.632 1.888-.672-1.312-1.76-1.888-3.136-1.888-1.536 0-3.456.768-5.344 2.08v-1.728h-3.104V30ZM129.368 30.352c1.792 0 3.872-.96 5.696-2.112V30h3.104V14.736h-3.104V25.2c-2.048 1.44-3.84 2.24-5.12 2.24-1.504 0-2.336-.96-2.336-3.52v-9.184h-3.104v10.176c0 3.904 2.144 5.44 4.864 5.44ZM143.352 30h3.104V19.536c2.048-1.44 3.84-2.24 5.12-2.24 1.504 0 2.336.96 2.336 3.52V30h3.104V19.824c0-3.904-2.144-5.44-4.864-5.44-1.792 0-3.872.96-5.696 2.112v-1.76h-3.104V30ZM161.592 30h3.104V14.736h-3.104V30Zm-.384-20.16c0 1.248.96 1.888 1.952 1.888.96 0 1.984-.64 1.984-1.888 0-1.248-1.024-1.888-1.984-1.888-.992 0-1.952.64-1.952 1.888ZM176.664 30.352c1.92 0 3.648-.64 4.96-1.728l-1.568-2.272c-1.152.768-2.336 1.12-3.424 1.12-3.04 0-4.544-2.56-4.544-5.12s1.504-5.152 4.608-5.152c1.12 0 2.4.416 3.648 1.28l1.472-2.24c-1.376-1.12-3.136-1.856-5.152-1.856-5.248 0-7.904 3.968-7.904 7.968s2.656 8 7.904 8ZM190.392 30.352c1.536 0 3.136-.64 4.704-2.048V30h3.04V14.736h-3.04v2.08c-1.6-1.696-3.296-2.432-4.864-2.432-3.424 0-6.208 3.296-6.208 8.032 0 4.896 2.944 7.936 6.368 7.936Zm-3.072-8c0-2.816 1.28-5.12 3.296-5.12 1.536 0 2.848.832 4.48 3.008v5.12c-1.504 1.504-3.04 2.24-4.352 2.24-2.016 0-3.424-1.76-3.424-5.248ZM208.312 30.352c1.504 0 3.168-.864 4.704-2.56l-1.536-2.24c-1.088 1.216-2.144 1.888-2.976 1.888-1.024 0-1.6-.96-1.6-3.008v-6.784h4.64v-2.912h-4.64v-3.2H203.8v3.2h-2.24v2.912h2.24v7.712c0 3.392 2.016 4.992 4.512 4.992ZM222.584 30.352c4.832 0 7.648-3.712 7.648-8 0-4.256-2.816-7.968-7.648-7.968s-7.68 3.712-7.68 7.968c0 4.288 2.848 8 7.68 8Zm-4.352-8c0-2.528 1.44-5.088 4.352-5.088 2.88 0 4.352 2.56 4.352 5.088 0 2.56-1.472 5.12-4.352 5.12-2.912 0-4.352-2.56-4.352-5.12ZM234.296 30h3.104v-8.672c1.376-2.208 2.88-4 5.6-4 .256 0 .512.032.768.128v-2.88a3.212 3.212 0 0 0-1.056-.192c-2.624 0-4.192 1.632-5.312 3.392v-3.04h-3.104V30Z"/></g></svg>