<svg xmlns="http://www.w3.org/2000/svg" width="320" height="40"><g fill="#424345" fill-rule="nonzero"><path d="M20.856 35.664c1.536 0 2.976-.16 4.352-.384v-1.952a18.622 18.622 0 0 1-4.064.416c-3.008 0-4.992-1.056-5.408-3.456 5.888-.416 9.504-5.216 9.504-11.104 0-6.144-3.968-11.104-10.336-11.104C8.568 8.08 4.6 13.04 4.6 19.184c0 5.76 3.424 10.432 9.024 11.072.416 3.744 3.52 5.408 7.232 5.408Zm-14.08-16.48c0-5.152 3.2-9.216 8.128-9.216 4.96 0 8.16 4.064 8.16 9.216 0 5.184-3.2 9.248-8.16 9.248-4.928 0-8.128-4.064-8.128-9.248ZM33.784 30.32c1.792 0 3.872-.96 5.696-2.112V30h1.92V14.8h-1.92v11.392c-2.208 1.44-4.224 2.304-5.664 2.304-2.016 0-2.976-1.312-2.976-4.064V14.8h-1.92v10.08c0 3.904 2.144 5.44 4.864 5.44ZM52.088 30.32c1.6 0 3.264-.672 4.704-2.112V30h1.92V14.8h-1.92v2.272c-1.568-1.792-3.264-2.592-4.896-2.592-3.616 0-6.176 3.36-6.176 7.904 0 4.96 3.008 7.936 6.368 7.936Zm-4.256-8.032c0-3.104 1.44-5.984 4.032-5.984 1.696 0 3.168.96 4.928 3.36V26c-1.6 1.696-3.264 2.496-4.736 2.496-2.4 0-4.224-2.112-4.224-6.208ZM64.152 30h1.92v-9.664c1.408-2.272 3.2-4.032 5.728-4.032.256 0 .48 0 .736.064v-1.76a3.093 3.093 0 0 0-.928-.128c-2.496 0-4.288 1.44-5.536 3.136V14.8h-1.92V30ZM75.736 30h1.92v-9.664c1.408-2.272 3.2-4.032 5.728-4.032.256 0 .48 0 .736.064v-1.76a3.093 3.093 0 0 0-.928-.128c-2.496 0-4.288 1.44-5.536 3.136V14.8h-1.92V30ZM92.856 30.32c1.888 0 3.776-.672 5.76-1.856l-.992-1.536c-1.664 1.024-3.264 1.568-4.64 1.568-2.688 0-4.384-1.984-4.672-4.992h10.912v-.768c0-5.536-3.264-8.256-6.528-8.256S86.2 17.072 86.2 22.544c0 5.216 2.976 7.776 6.656 7.776Zm-4.544-8.64c.288-3.648 2.368-5.376 4.48-5.376 2.048 0 4.16 1.792 4.544 5.376h-9.024ZM103.064 30h1.92V7.6h-1.92zM115.256 30.32c2.848 0 4.608-1.984 4.608-4.16 0-3.232-2.816-4.416-5.12-5.312-2.08-.832-3.296-1.376-3.296-2.624 0-.992.8-1.952 2.4-1.952 1.536 0 3.168.704 4.928 2.4l1.152-1.44c-1.984-1.76-3.84-2.72-6.016-2.72-2.24 0-4.512 1.344-4.512 3.904 0 2.016 1.312 3.104 4.576 4.32 2.528.928 3.84 1.952 3.84 3.456 0 1.6-1.088 2.304-2.464 2.304-1.6 0-3.68-.928-5.376-2.368l-1.152 1.44c2.048 1.824 4.416 2.752 6.432 2.752ZM129.816 30.32c4.384 0 7.136-3.52 7.136-7.936 0-4.384-2.752-7.904-7.136-7.904-4.416 0-7.168 3.52-7.168 7.904 0 4.416 2.752 7.936 7.168 7.936Zm-5.056-7.936c0-3.424 1.984-6.08 5.056-6.08 3.04 0 5.024 2.656 5.024 6.08 0 3.456-1.984 6.112-5.024 6.112-3.072 0-5.056-2.656-5.056-6.112ZM141.272 30h1.92V18.64c1.952-1.44 3.52-2.336 4.736-2.336 1.696 0 2.464 1.248 2.464 4.064V30h1.92V19.92c0-.704-.064-1.312-.16-1.888 1.696-1.088 3.296-1.76 4.48-1.76 1.92 0 2.88 1.28 2.88 4.096V30h1.92V19.92c0-3.808-1.792-5.44-4.384-5.44-1.6 0-3.488.672-5.44 1.952-.736-1.376-1.952-1.952-3.424-1.952-1.504 0-3.232.736-4.992 2.016V14.8h-1.92V30ZM171.768 30.32c1.888 0 3.776-.672 5.76-1.856l-.992-1.536c-1.664 1.024-3.264 1.568-4.64 1.568-2.688 0-4.384-1.984-4.672-4.992h10.912v-.768c0-5.536-3.264-8.256-6.528-8.256s-6.496 2.592-6.496 8.064c0 5.216 2.976 7.776 6.656 7.776Zm-4.544-8.64c.288-3.648 2.368-5.376 4.48-5.376 2.048 0 4.16 1.792 4.544 5.376h-9.024ZM181.976 30h1.92V18.608c2.208-1.44 4.224-2.304 5.664-2.304 2.016 0 2.976 1.312 2.976 4.064V30h1.92V19.92c0-3.904-2.144-5.44-4.864-5.44-1.792 0-3.872.96-5.696 2.112V14.8h-1.92V30ZM204.792 30.32c1.888 0 3.776-.672 5.76-1.856l-.992-1.536c-1.664 1.024-3.264 1.568-4.64 1.568-2.688 0-4.384-1.984-4.672-4.992h10.912v-.768c0-5.536-3.264-8.256-6.528-8.256s-6.496 2.592-6.496 8.064c0 5.216 2.976 7.776 6.656 7.776Zm-4.544-8.64c.288-3.648 2.368-5.376 4.48-5.376 2.048 0 4.16 1.792 4.544 5.376h-9.024ZM219.832 30.32c2.848 0 4.608-1.984 4.608-4.16 0-3.232-2.816-4.416-5.12-5.312-2.08-.832-3.296-1.376-3.296-2.624 0-.992.8-1.952 2.4-1.952 1.536 0 3.168.704 4.928 2.4l1.152-1.44c-1.984-1.76-3.84-2.72-6.016-2.72-2.24 0-4.512 1.344-4.512 3.904 0 2.016 1.312 3.104 4.576 4.32 2.528.928 3.84 1.952 3.84 3.456 0 1.6-1.088 2.304-2.464 2.304-1.6 0-3.68-.928-5.376-2.368l-1.152 1.44c2.048 1.824 4.416 2.752 6.432 2.752ZM233.176 30.32c2.848 0 4.608-1.984 4.608-4.16 0-3.232-2.816-4.416-5.12-5.312-2.08-.832-3.296-1.376-3.296-2.624 0-.992.8-1.952 2.4-1.952 1.536 0 3.168.704 4.928 2.4l1.152-1.44c-1.984-1.76-3.84-2.72-6.016-2.72-2.24 0-4.512 1.344-4.512 3.904 0 2.016 1.312 3.104 4.576 4.32 2.528.928 3.84 1.952 3.84 3.456 0 1.6-1.088 2.304-2.464 2.304-1.6 0-3.68-.928-5.376-2.368l-1.152 1.44c2.048 1.824 4.416 2.752 6.432 2.752Z"/></g></svg>