<svg xmlns="http://www.w3.org/2000/svg" width="320" height="40"><g fill="#424345" fill-rule="nonzero"><path d="M13.392 30.512c4.736 0 9.472-2.784 9.472-8.32V8.4h-5.92v13.088c0 2.496-2.016 3.616-3.552 3.616s-3.552-1.12-3.552-3.616V8.4H3.92v13.792c0 5.536 4.736 8.32 9.472 8.32ZM26.864 30h5.92v-8.8c1.28-1.152 2.272-1.664 3.008-1.664 1.12 0 1.632.544 1.632 3.104V30h5.92V19.408c0-3.904-2.144-5.44-4.864-5.44-1.792 0-3.872.96-5.696 2.112v-1.6h-5.92V30ZM52.912 30.512c3.904 0 6.368-2.144 6.368-4.576 0-2.88-1.792-4.448-5.952-5.792-1.216-.384-2.112-.672-2.112-1.056 0-.352.288-.48.736-.48 1.44 0 4.672 1.472 5.696 2.016l1.664-3.936c-2.08-1.76-4.928-2.72-7.456-2.72-3.68 0-6.048 2.4-6.048 4.928 0 2.144 1.696 4.384 5.792 5.376 1.216.288 2.24.64 2.24 1.12 0 .352-.288.48-.736.48-1.28 0-3.904-1.088-5.696-2.016l-1.664 3.936c2.08 1.632 4.608 2.72 7.168 2.72ZM70.032 30.512c2.816 0 4.608-1.088 5.76-1.952l-2.08-4.384c-1.152.736-2.24 1.056-3.168 1.056-2.272 0-3.392-1.568-3.392-3.104s1.12-3.104 3.392-3.104c.928 0 2.016.32 3.168 1.056l2.08-4.384c-1.152-.864-2.944-1.728-5.76-1.728-5.984 0-8.96 4.064-8.96 8.224s2.976 8.32 8.96 8.32ZM78.352 30h5.92v-8.096c1.44-1.632 2.848-2.336 4.128-2.336.64 0 1.28.192 1.856.512v-5.6c-.576-.352-1.088-.48-1.6-.48-1.792 0-3.264 1.76-4.384 3.392V14.48h-5.92V30ZM96.88 30.512c1.792 0 3.872-.96 5.696-2.112V30h5.92V14.48h-5.92v8.8c-1.28 1.152-2.272 1.664-3.008 1.664-1.12 0-1.632-.544-1.632-3.104v-7.36h-5.92v10.592c0 3.904 2.144 5.44 4.864 5.44ZM112.656 37.04h5.6v-8.672c1.728 1.504 3.232 2.144 4.64 2.144 4.064 0 6.656-4.288 6.656-8.256 0-5.248-2.784-8.256-6.304-8.256-1.536 0-3.008.64-4.992 2.24v-1.76h-5.6v22.56Zm5.6-12.928v-3.936c1.056-1.024 2.112-1.472 2.976-1.472 1.408 0 2.4 1.216 2.4 3.136 0 2.368-1.088 3.488-2.528 3.488-.864 0-1.856-.416-2.848-1.216ZM136.976 30.512c1.792 0 3.872-.96 5.696-2.112V30h5.92V14.48h-5.92v8.8c-1.28 1.152-2.272 1.664-3.008 1.664-1.12 0-1.632-.544-1.632-3.104v-7.36h-5.92v10.592c0 3.904 2.144 5.44 4.864 5.44ZM152.752 30h5.92V7.6h-5.92zM170.544 30.512c4.416 0 8.832-2.784 8.832-8.256 0-5.504-4.416-8.256-8.832-8.256s-8.832 2.752-8.832 8.256c0 5.472 4.416 8.256 8.832 8.256Zm-2.752-8.256c0-1.376.8-2.976 2.752-2.976 1.792 0 2.752 1.6 2.752 2.976 0 1.344-.96 2.976-2.752 2.976-1.952 0-2.752-1.632-2.752-2.976ZM186.8 30.512c1.792 0 3.872-.96 5.696-2.112V30h5.92V14.48h-5.92v8.8c-1.28 1.152-2.272 1.664-3.008 1.664-1.12 0-1.632-.544-1.632-3.104v-7.36h-5.92v10.592c0 3.904 2.144 5.44 4.864 5.44ZM208.464 30.512c3.904 0 6.368-2.144 6.368-4.576 0-2.88-1.792-4.448-5.952-5.792-1.216-.384-2.112-.672-2.112-1.056 0-.352.288-.48.736-.48 1.44 0 4.672 1.472 5.696 2.016l1.664-3.936c-2.08-1.76-4.928-2.72-7.456-2.72-3.68 0-6.048 2.4-6.048 4.928 0 2.144 1.696 4.384 5.792 5.376 1.216.288 2.24.64 2.24 1.12 0 .352-.288.48-.736.48-1.28 0-3.904-1.088-5.696-2.016l-1.664 3.936c2.08 1.632 4.608 2.72 7.168 2.72ZM217.744 30h5.92V7.6h-5.92zM231.088 37.552c1.792 0 3.392-.896 4.384-3.36l7.936-19.712h-6.336l-2.4 7.712-2.4-7.712h-6.368l6.24 15.168-.16.384c-.576 1.376-1.408 1.824-2.24 1.824-.672 0-1.376-.288-1.888-.64l-1.92 4.48c1.632 1.056 3.488 1.856 5.152 1.856Z"/></g></svg>