<svg xmlns="http://www.w3.org/2000/svg" width="1280" height="180"><g fill="#424345" fill-rule="nonzero"><path d="M441.1 126h46.5v-7.5l-11.25-1.5-22.8-93h-30l-28.35 93-10.2 1.5v7.5h22.5v-7.5l-6.3-1.5 10.95-36h25.35l8.85 36-5.25 1.5v7.5Zm-27.15-51 12.3-40.05L436 75h-22.05ZM557.35 129c23.25 0 31.35-22.35 31.35-40.5S580.6 48 557.35 48c-11.85 0-20.55 6.45-26.25 13.95V51h-37.5v7.5l7.5 1.5v93l-7.5 1.5v7.5h46.5v-7.5l-9-1.5v-37.95c5.7 7.5 14.4 13.95 26.25 13.95Zm-26.25-21.6V69.9c2.85-6.15 7.35-11.4 12.15-11.4 8.25 0 13.95 9.9 13.95 30 0 19.95-5.7 30-13.95 30-4.8 0-9.3-5.1-12.15-11.1ZM598.45 126h46.5v-7.5l-9-1.5V51h-37.5v7.5l7.5 1.5v57l-7.5 1.5v7.5Zm11.1-96.6c0 6.15 4.95 11.1 11.1 11.1 6.15 0 11.4-4.95 11.4-11.1 0-6.15-5.25-11.4-11.4-11.4s-11.1 5.25-11.1 11.4ZM682.45 129c9.45 0 17.1-6.45 22.35-13.65V126h39v-7.5l-9-1.5V51h-37.5v7.5l7.5 1.5v46.95c-2.4 6.3-6 11.55-10.35 11.55-8.25 0-8.25-12.6-8.25-24V51h-37.5v7.5l7.5 1.5v28.5c0 29.1 7.8 40.5 26.25 40.5ZM850 126h45v-7.5l-9-1.5V88.5c0-29.1-7.8-40.5-26.25-40.5-9.75 0-19.8 6.6-26.25 13.8-3.9-9.6-11.25-13.8-22.35-13.8-9.45 0-17.1 6.45-22.35 13.65V51h-37.5v7.5l7.5 1.5v57l-7.5 1.5v7.5H796v-7.5l-7.2-1.5V70.05c2.4-6.3 6-11.55 10.35-11.55 8.25 0 8.25 12.6 8.25 24V117l-6 1.5v7.5h43.2v-7.5l-7.2-1.5V88.5c0-8.7-.75-15.9-2.25-21.6 3.9-4.8 8.55-8.4 12.6-8.4 8.25 0 8.25 12.6 8.25 24V117l-6 1.5v7.5Z"/></g></svg>