<svg xmlns="http://www.w3.org/2000/svg" width="561" height="242"><g fill="#424345" fill-rule="nonzero"><path d="M1.26 16h10.794v-2.037h-.777l-.063 1.344H4.977V9.049h3.822l.063 1.323h.777v-3.36h-.777l-.063 1.323H4.977V2.413h6.237l.063 1.344h.777V1.72H1.26v.777l1.323.063v12.6l-1.323.063zM19.404 16.21c1.995 0 3.927-1.134 4.62-3.255h-2.226c-.21 1.596-1.071 2.688-2.394 2.688-1.953 0-3.003-2.289-3.003-4.893h7.98c0-3.381-2.268-5.46-4.977-5.46-3.045 0-5.523 2.058-5.523 5.46s2.478 5.46 5.523 5.46Zm-2.961-6.3c.189-2.247 1.218-4.053 2.961-4.053 1.743 0 2.499 1.806 2.646 4.053h-5.607ZM32.865 16h5.019v-.777l-1.407-.063v-4.977c0-3.444-1.533-4.893-3.717-4.893-1.176 0-2.289.861-3.087 1.764V5.5h-3.717v.777l1.344.063v8.82l-1.344.063V16h5.019v-.777l-1.302-.063V8.356c.504-1.134 1.491-2.226 2.436-2.226 1.785 0 1.995 2.184 1.995 3.78v5.25l-1.239.063V16ZM48.258 16h.714l3.906-9.66 1.68-.063V5.5h-3.36v.777l.987.063-2.751 6.762L46.263 5.5h-3.927v.777l1.701.063zM61.173 16.21c1.995 0 3.927-1.134 4.62-3.255h-2.226c-.21 1.596-1.071 2.688-2.394 2.688-1.953 0-3.003-2.289-3.003-4.893h7.98c0-3.381-2.268-5.46-4.977-5.46-3.045 0-5.523 2.058-5.523 5.46s2.478 5.46 5.523 5.46Zm-2.961-6.3c.189-2.247 1.218-4.053 2.961-4.053 1.743 0 2.499 1.806 2.646 4.053h-5.607ZM67.725 16h5.124v-.777l-1.407-.063V8.881c.672-1.47 1.974-3.024 3.255-3.024.567 0 1.113.168 1.449.567-.861.063-1.722.966-1.722 1.806 0 .546.378.924.924.924.861 0 1.806-.861 1.806-1.764 0-1.26-1.05-2.1-2.289-2.1-1.617 0-2.856.987-3.423 1.638V5.5h-3.717v.777l1.344.063v8.82l-1.344.063V16ZM82.572 16.21c1.68 0 4.305-.441 4.305-2.919 0-3.171-6.405-2.478-6.405-5.586 0-1.197 1.155-1.848 2.121-1.848 1.491 0 2.436 1.386 2.436 2.793h1.197V5.5h-.777c0 .399 0 .735-.021 1.029-.84-.861-2.163-1.239-3.381-1.239-1.848 0-4.011.882-4.011 3.192 0 3.234 6.405 2.835 6.405 5.565 0 1.092-1.113 1.596-1.911 1.596-1.491 0-3.318-.798-3.318-2.688h-1.176V16h.756c0-.357.021-.693.042-.987.903.924 2.457 1.197 3.738 1.197ZM98.532 21.25c2.898 0 5.25-1.491 5.25-4.137 0-2.142-1.638-3.549-3.696-3.549-1.995 0-3.612 2.079-4.515 2.079-.63 0-.882-.798-.882-1.449 0-.588.21-1.155.546-1.407a5.418 5.418 0 0 0 2.1.399c2.289 0 4.683-1.47 4.683-4.011 0-1.218-.504-2.142-1.26-2.772.273-1.029.924-1.806 1.743-1.806.336 0 .609.105.819.273-.84.105-1.659.987-1.659 1.806 0 .546.378.924.924.924.861 0 1.806-.861 1.806-1.764 0-1.029-.756-1.806-1.806-1.806-1.323 0-2.226.903-2.688 1.827-.777-.378-1.68-.567-2.562-.567-2.394 0-4.662 1.323-4.662 3.885 0 1.323.609 2.352 1.533 3.045-.819.441-1.26 1.218-1.26 1.974 0 1.155 1.134 2.016 2.31 2.016 1.743 0 2.709-1.722 3.948-1.722 1.344 0 2.058 1.218 2.058 2.625 0 1.68-.966 3.57-2.877 3.57-2.058 0-3.36-1.365-3.36-2.688h-2.1c0 2.1 2.814 3.255 5.607 3.255ZM95.046 9.175c0-2.037.882-3.318 2.289-3.318 1.323 0 2.31 1.281 2.31 3.318s-.987 3.444-2.31 3.444c-1.407 0-2.289-1.407-2.289-3.444ZM111.09 16.21c1.995 0 3.927-1.134 4.62-3.255h-2.226c-.21 1.596-1.071 2.688-2.394 2.688-1.953 0-3.003-2.289-3.003-4.893h7.98c0-3.381-2.268-5.46-4.977-5.46-3.045 0-5.523 2.058-5.523 5.46s2.478 5.46 5.523 5.46Zm-2.961-6.3c.189-2.247 1.218-4.053 2.961-4.053 1.743 0 2.499 1.806 2.646 4.053h-5.607ZM122.283 16.21A4.76 4.76 0 0 0 126 14.446V16h3.78v-.777l-1.386-.063V.88h-3.717v.777L126 1.72v5.376c-.84-1.05-2.121-1.806-3.717-1.806-3.15 0-4.242 3.003-4.242 5.46s1.092 5.46 4.242 5.46Zm-1.722-5.46c0-2.205.714-4.62 2.835-4.62 1.323 0 2.226 1.197 2.604 2.436v4.389c-.378 1.26-1.281 2.415-2.604 2.415-2.121 0-2.835-2.415-2.835-4.62ZM136.941 16.21c3.15 0 5.565-2.247 5.565-5.46s-2.415-5.46-5.565-5.46c-3.15 0-5.565 2.247-5.565 5.46s2.415 5.46 5.565 5.46Zm-3.045-5.46c0-2.625.798-4.893 3.045-4.893s3.045 2.268 3.045 4.893-.798 4.893-3.045 4.893-3.045-2.268-3.045-4.893ZM148.722 16.21a4.76 4.76 0 0 0 3.717-1.764V16h3.78v-.777l-1.386-.063V.88h-3.717v.777l1.323.063v5.376c-.84-1.05-2.121-1.806-3.717-1.806-3.15 0-4.242 3.003-4.242 5.46s1.092 5.46 4.242 5.46ZM147 10.75c0-2.205.714-4.62 2.835-4.62 1.323 0 2.226 1.197 2.604 2.436v4.389c-.378 1.26-1.281 2.415-2.604 2.415-2.121 0-2.835-2.415-2.835-4.62ZM163.338 16.21c1.995 0 3.927-1.134 4.62-3.255h-2.226c-.21 1.596-1.071 2.688-2.394 2.688-1.953 0-3.003-2.289-3.003-4.893h7.98c0-3.381-2.268-5.46-4.977-5.46-3.045 0-5.523 2.058-5.523 5.46s2.478 5.46 5.523 5.46Zm-2.961-6.3c.189-2.247 1.218-4.053 2.961-4.053 1.743 0 2.499 1.806 2.646 4.053h-5.607ZM180.726 16h5.019v-.777l-1.407-.063v-4.977c0-3.444-1.533-4.893-3.717-4.893-1.176 0-2.289.861-3.087 1.764V.88h-3.717v.777l1.344.063v13.44l-1.344.063V16h5.019v-.777l-1.302-.063V8.356c.504-1.134 1.491-2.226 2.436-2.226 1.785 0 1.995 2.184 1.995 3.78v5.25l-1.239.063V16ZM191.394 16.21c1.701 0 3.066-.861 3.906-2.016.399 1.47 1.386 2.016 2.667 2.016 2.079 0 2.646-1.932 2.646-3.255h-.903c0 1.26-.357 2.415-1.176 2.415-.798 0-1.05-1.113-1.05-2.52V5.5h-2.373v1.596c-.84-1.05-2.121-1.806-3.717-1.806-3.15 0-4.242 3.003-4.242 5.46s1.092 5.46 4.242 5.46Zm-1.722-5.46c0-2.205.714-4.62 2.835-4.62 1.323 0 2.226 1.197 2.604 2.436v4.347c-.378 1.281-1.26 2.457-2.604 2.457-2.121 0-2.835-2.415-2.835-4.62ZM205.905 16.21c1.701 0 3.066-.861 3.906-2.016.399 1.47 1.386 2.016 2.667 2.016 2.079 0 2.646-1.932 2.646-3.255h-.903c0 1.26-.357 2.415-1.176 2.415-.798 0-1.05-1.113-1.05-2.52V5.5h-2.373v1.596c-.84-1.05-2.121-1.806-3.717-1.806-3.15 0-4.242 3.003-4.242 5.46s1.092 5.46 4.242 5.46Zm-1.722-5.46c0-2.205.714-4.62 2.835-4.62 1.323 0 2.226 1.197 2.604 2.436v4.347c-.378 1.281-1.26 2.457-2.604 2.457-2.121 0-2.835-2.415-2.835-4.62ZM220.605 16.21c1.68 0 4.305-.441 4.305-2.919 0-3.171-6.405-2.478-6.405-5.586 0-1.197 1.155-1.848 2.121-1.848 1.491 0 2.436 1.386 2.436 2.793h1.197V5.5h-.777c0 .399 0 .735-.021 1.029-.84-.861-2.163-1.239-3.381-1.239-1.848 0-4.011.882-4.011 3.192 0 3.234 6.405 2.835 6.405 5.565 0 1.092-1.113 1.596-1.911 1.596-1.491 0-3.318-.798-3.318-2.688h-1.176V16h.756c0-.357.021-.693.042-.987.903.924 2.457 1.197 3.738 1.197ZM230.307 16h5.124v-.777l-1.407-.063V5.5h-3.717v.777l1.344.063v8.82l-1.344.063V16Zm1.134-13.167c0 .693.546 1.218 1.218 1.218.672 0 1.239-.525 1.239-1.218 0-.672-.567-1.239-1.239-1.239-.672 0-1.218.567-1.218 1.239ZM241.269 16.21c1.68 0 4.305-.441 4.305-2.919 0-3.171-6.405-2.478-6.405-5.586 0-1.197 1.155-1.848 2.121-1.848 1.491 0 2.436 1.386 2.436 2.793h1.197V5.5h-.777c0 .399 0 .735-.021 1.029-.84-.861-2.163-1.239-3.381-1.239-1.848 0-4.011.882-4.011 3.192 0 3.234 6.405 2.835 6.405 5.565 0 1.092-1.113 1.596-1.911 1.596-1.491 0-3.318-.798-3.318-2.688h-1.176V16h.756c0-.357.021-.693.042-.987.903.924 2.457 1.197 3.738 1.197ZM255.801 16.21c1.68 0 4.305-.441 4.305-2.919 0-3.171-6.405-2.478-6.405-5.586 0-1.197 1.155-1.848 2.121-1.848 1.491 0 2.436 1.386 2.436 2.793h1.197V5.5h-.777c0 .399 0 .735-.021 1.029-.84-.861-2.163-1.239-3.381-1.239-1.848 0-4.011.882-4.011 3.192 0 3.234 6.405 2.835 6.405 5.565 0 1.092-1.113 1.596-1.911 1.596-1.491 0-3.318-.798-3.318-2.688h-1.176V16h.756c0-.357.021-.693.042-.987.903.924 2.457 1.197 3.738 1.197ZM266.175 16.21c2.226 0 2.646-1.827 2.646-3.255h-.903c0 1.659-.567 2.415-1.218 2.415-.735 0-1.008-.819-1.008-2.52V6.277h2.037V5.5h-2.037V2.539h-2.373V5.5h-1.911v.777h1.911v6.3c0 2.688 1.26 3.633 2.856 3.633ZM269.577 16h5.124v-.777l-1.407-.063V5.5h-3.717v.777l1.344.063v8.82l-1.344.063V16Zm1.134-13.167c0 .693.546 1.218 1.218 1.218.672 0 1.239-.525 1.239-1.218 0-.672-.567-1.239-1.239-1.239-.672 0-1.218.567-1.218 1.239Zm3.906 15.162c0 1.176.399 3.255 2.562 3.255 1.575 0 2.94-.84 2.94-3.633V5.5h-3.717v.777l1.323.063v11.55c0 1.407-.189 2.52-1.092 2.52-.798 0-1.113-1.134-1.113-2.415h-.903Zm2.94-15.162c0 .693.546 1.218 1.218 1.218.672 0 1.239-.525 1.239-1.218 0-.672-.567-1.239-1.239-1.239-.672 0-1.218.567-1.218 1.239ZM282.114 16h5.124v-.777l-1.407-.063V6.277h2.205V5.5h-2.205v-.987c0-1.323.042-3.15 1.281-3.15.504 0 .861.294 1.071.714-.693 0-1.239.588-1.239 1.281s.546 1.239 1.239 1.239c.714 0 1.26-.525 1.281-1.218v-.084C289.422 1.909 288.12.67 286.335.67c-2.289 0-2.877 2.226-2.877 3.843V5.5h-1.407v.777h1.407v8.883l-1.344.063V16ZM299.334 16.21c1.995 0 3.927-1.134 4.62-3.255h-2.226c-.21 1.596-1.071 2.688-2.394 2.688-1.953 0-3.003-2.289-3.003-4.893h7.98c0-3.381-2.268-5.46-4.977-5.46-3.045 0-5.523 2.058-5.523 5.46s2.478 5.46 5.523 5.46Zm-2.961-6.3c.189-2.247 1.218-4.053 2.961-4.053 1.743 0 2.499 1.806 2.646 4.053h-5.607ZM312.795 16h5.019v-.777l-1.407-.063v-4.977c0-3.444-1.533-4.893-3.717-4.893-1.176 0-2.289.861-3.087 1.764V5.5h-3.717v.777l1.344.063v8.82l-1.344.063V16h5.019v-.777l-1.302-.063V8.356c.504-1.134 1.491-2.226 2.436-2.226 1.785 0 1.995 2.184 1.995 3.78v5.25l-1.239.063V16ZM322.749 16h5.124v-.777l-1.407-.063V8.881c.672-1.47 1.974-3.024 3.255-3.024.567 0 1.113.168 1.449.567-.861.063-1.722.966-1.722 1.806 0 .546.378.924.924.924.861 0 1.806-.861 1.806-1.764 0-1.26-1.05-2.1-2.289-2.1-1.617 0-2.856.987-3.423 1.638V5.5h-3.717v.777l1.344.063v8.82l-1.344.063V16ZM338.73 16.21c3.15 0 5.565-2.247 5.565-5.46s-2.415-5.46-5.565-5.46c-3.15 0-5.565 2.247-5.565 5.46s2.415 5.46 5.565 5.46Zm-3.045-5.46c0-2.625.798-4.893 3.045-4.893s3.045 2.268 3.045 4.893-.798 4.893-3.045 4.893-3.045-2.268-3.045-4.893ZM351.834 16.21c3.15 0 5.565-2.247 5.565-5.46s-2.415-5.46-5.565-5.46c-3.15 0-5.565 2.247-5.565 5.46s2.415 5.46 5.565 5.46Zm-3.045-5.46c0-2.625.798-4.893 3.045-4.893s3.045 2.268 3.045 4.893-.798 4.893-3.045 4.893-3.045-2.268-3.045-4.893ZM363.615 16.21a4.76 4.76 0 0 0 3.717-1.764V16h3.78v-.777l-1.386-.063V.88h-3.717v.777l1.323.063v5.376c-.84-1.05-2.121-1.806-3.717-1.806-3.15 0-4.242 3.003-4.242 5.46s1.092 5.46 4.242 5.46Zm-1.722-5.46c0-2.205.714-4.62 2.835-4.62 1.323 0 2.226 1.197 2.604 2.436v4.389c-.378 1.26-1.281 2.415-2.604 2.415-2.121 0-2.835-2.415-2.835-4.62ZM372.288 17.638v.336c2.121 0 3.234-2.037 3.234-3.171a1.39 1.39 0 0 0-1.407-1.386c-.756 0-1.407.609-1.407 1.386 0 1.071.567 1.281.567 2.058 0 .546-.42.777-.987.777Zm.42-10.185a1.407 1.407 0 0 0 2.814 0 1.39 1.39 0 0 0-1.407-1.386 1.39 1.39 0 0 0-1.407 1.386ZM385.854 16.21c1.701 0 3.066-.861 3.906-2.016.399 1.47 1.386 2.016 2.667 2.016 2.079 0 2.646-1.932 2.646-3.255h-.903c0 1.26-.357 2.415-1.176 2.415-.798 0-1.05-1.113-1.05-2.52V5.5h-2.373v1.596c-.84-1.05-2.121-1.806-3.717-1.806-3.15 0-4.242 3.003-4.242 5.46s1.092 5.46 4.242 5.46Zm-1.722-5.46c0-2.205.714-4.62 2.835-4.62 1.323 0 2.226 1.197 2.604 2.436v4.347c-.378 1.281-1.26 2.457-2.604 2.457-2.121 0-2.835-2.415-2.835-4.62ZM399.462 16.21c2.058 0 2.583-1.827 2.583-3.255h-.924c0 1.176-.357 2.415-1.134 2.415-.882 0-1.071-1.113-1.071-2.52V.88h-3.717v.777l1.344.063v10.857c0 2.52 1.218 3.633 2.919 3.633ZM407.526 16.21c1.68 0 4.305-.441 4.305-2.919 0-3.171-6.405-2.478-6.405-5.586 0-1.197 1.155-1.848 2.121-1.848 1.491 0 2.436 1.386 2.436 2.793h1.197V5.5h-.777c0 .399 0 .735-.021 1.029-.84-.861-2.163-1.239-3.381-1.239-1.848 0-4.011.882-4.011 3.192 0 3.234 6.405 2.835 6.405 5.565 0 1.092-1.113 1.596-1.911 1.596-1.491 0-3.318-.798-3.318-2.688h-1.176V16h.756c0-.357.021-.693.042-.987.903.924 2.457 1.197 3.738 1.197ZM424.137 16h5.019v-.777l-1.407-.063v-4.977c0-3.444-1.533-4.893-3.717-4.893-1.176 0-2.289.861-3.087 1.764V.88h-3.717v.777l1.344.063v13.44l-1.344.063V16h5.019v-.777l-1.302-.063V8.356c.504-1.134 1.491-2.226 2.436-2.226 1.785 0 1.995 2.184 1.995 3.78v5.25l-1.239.063V16ZM436.086 16.21c1.995 0 3.927-1.134 4.62-3.255h-2.226c-.21 1.596-1.071 2.688-2.394 2.688-1.953 0-3.003-2.289-3.003-4.893h7.98c0-3.381-2.268-5.46-4.977-5.46-3.045 0-5.523 2.058-5.523 5.46s2.478 5.46 5.523 5.46Zm-2.961-6.3c.189-2.247 1.218-4.053 2.961-4.053 1.743 0 2.499 1.806 2.646 4.053h-5.607ZM447.237 16.21c2.226 0 2.646-1.827 2.646-3.255h-.903c0 1.659-.567 2.415-1.218 2.415-.735 0-1.008-.819-1.008-2.52V6.277h2.037V5.5h-2.037V2.539h-2.373V5.5h-1.911v.777h1.911v6.3c0 2.688 1.26 3.633 2.856 3.633ZM460.53 16.21c3.15 0 5.565-2.247 5.565-5.46s-2.415-5.46-5.565-5.46c-3.15 0-5.565 2.247-5.565 5.46s2.415 5.46 5.565 5.46Zm-3.045-5.46c0-2.625.798-4.893 3.045-4.893s3.045 2.268 3.045 4.893-.798 4.893-3.045 4.893-3.045-2.268-3.045-4.893ZM472.311 16.21c1.176 0 2.289-.882 3.087-1.785V16h3.78v-.777l-1.407-.063V5.5h-3.717v.777l1.344.063v6.804c-.504 1.113-1.491 2.226-2.457 2.226-1.785 0-1.974-2.184-1.974-3.78V5.5h-3.717v.777l1.344.063v4.977c0 3.444 1.533 4.893 3.717 4.893ZM484.995 16.21a4.76 4.76 0 0 0 3.717-1.764V16h3.78v-.777l-1.386-.063V.88h-3.717v.777l1.323.063v5.376c-.84-1.05-2.121-1.806-3.717-1.806-3.15 0-4.242 3.003-4.242 5.46s1.092 5.46 4.242 5.46Zm-1.722-5.46c0-2.205.714-4.62 2.835-4.62 1.323 0 2.226 1.197 2.604 2.436v4.389c-.378 1.26-1.281 2.415-2.604 2.415-2.121 0-2.835-2.415-2.835-4.62ZM497.616 16h5.124v-.777l-1.407-.063V5.5h-3.717v.777l1.344.063v8.82l-1.344.063V16Zm1.134-13.167c0 .693.546 1.218 1.218 1.218.672 0 1.239-.525 1.239-1.218 0-.672-.567-1.239-1.239-1.239-.672 0-1.218.567-1.218 1.239ZM508.578 16.21c1.68 0 4.305-.441 4.305-2.919 0-3.171-6.405-2.478-6.405-5.586 0-1.197 1.155-1.848 2.121-1.848 1.491 0 2.436 1.386 2.436 2.793h1.197V5.5h-.777c0 .399 0 .735-.021 1.029-.84-.861-2.163-1.239-3.381-1.239-1.848 0-4.011.882-4.011 3.192 0 3.234 6.405 2.835 6.405 5.565 0 1.092-1.113 1.596-1.911 1.596-1.491 0-3.318-.798-3.318-2.688h-1.176V16h.756c0-.357.021-.693.042-.987.903.924 2.457 1.197 3.738 1.197ZM514.332 17.638v.336c2.121 0 3.234-2.037 3.234-3.171a1.39 1.39 0 0 0-1.407-1.386c-.756 0-1.407.609-1.407 1.386 0 1.071.567 1.281.567 2.058 0 .546-.42.777-.987.777ZM523.257 16h5.124v-.777l-1.407-.063V5.5h-3.717v.777l1.344.063v8.82l-1.344.063V16Zm1.134-13.167c0 .693.546 1.218 1.218 1.218.672 0 1.239-.525 1.239-1.218 0-.672-.567-1.239-1.239-1.239-.672 0-1.218.567-1.218 1.239ZM534.219 16.21c1.68 0 4.305-.441 4.305-2.919 0-3.171-6.405-2.478-6.405-5.586 0-1.197 1.155-1.848 2.121-1.848 1.491 0 2.436 1.386 2.436 2.793h1.197V5.5h-.777c0 .399 0 .735-.021 1.029-.84-.861-2.163-1.239-3.381-1.239-1.848 0-4.011.882-4.011 3.192 0 3.234 6.405 2.835 6.405 5.565 0 1.092-1.113 1.596-1.911 1.596-1.491 0-3.318-.798-3.318-2.688h-1.176V16h.756c0-.357.021-.693.042-.987.903.924 2.457 1.197 3.738 1.197ZM7.497 47.5h5.019v-.777l-1.407-.063v-4.977c0-3.444-1.533-4.893-3.717-4.893-1.176 0-2.289.861-3.087 1.764V32.38H.588v.777l1.344.063v13.44l-1.344.063v.777h5.019v-.777l-1.302-.063v-6.804c.504-1.134 1.491-2.226 2.436-2.226 1.785 0 1.995 2.184 1.995 3.78v5.25l-1.239.063v.777ZM19.446 47.71c1.995 0 3.927-1.134 4.62-3.255H21.84c-.21 1.596-1.071 2.688-2.394 2.688-1.953 0-3.003-2.289-3.003-4.893h7.98c0-3.381-2.268-5.46-4.977-5.46-3.045 0-5.523 2.058-5.523 5.46s2.478 5.46 5.523 5.46Zm-2.961-6.3c.189-2.247 1.218-4.053 2.961-4.053 1.743 0 2.499 1.806 2.646 4.053h-5.607ZM30.597 47.71c2.226 0 2.646-1.827 2.646-3.255h-.903c0 1.659-.567 2.415-1.218 2.415-.735 0-1.008-.819-1.008-2.52v-6.573h2.037V37h-2.037v-2.961h-2.373V37H25.83v.777h1.911v6.3c0 2.688 1.26 3.633 2.856 3.633ZM41.664 47.71c2.058 0 2.583-1.827 2.583-3.255h-.924c0 1.176-.357 2.415-1.134 2.415-.882 0-1.071-1.113-1.071-2.52V32.38h-3.717v.777l1.344.063v10.857c0 2.52 1.218 3.633 2.919 3.633ZM44.898 47.5h5.124v-.777l-1.407-.063V37h-3.717v.777l1.344.063v8.82l-1.344.063v.777Zm1.134-13.167c0 .693.546 1.218 1.218 1.218.672 0 1.239-.525 1.239-1.218 0-.672-.567-1.239-1.239-1.239-.672 0-1.218.567-1.218 1.239ZM56.805 47.71c2.457 0 4.116-1.344 4.536-3.255H59.22c-.126 1.176-.819 2.688-2.415 2.688-2.121 0-2.856-2.184-2.856-4.893 0-2.121 1.029-4.809 3.402-4.809 1.197 0 2.352.546 2.877 1.365-.819.105-1.617.987-1.617 1.785 0 .546.357.924.903.924.882 0 1.827-.861 1.827-1.764 0-1.533-2.142-2.961-4.515-2.961-3.15 0-5.397 2.478-5.397 5.46 0 3.297 2.226 5.46 5.376 5.46ZM69.741 47.5h5.019v-.777l-1.407-.063v-4.977c0-3.444-1.533-4.893-3.717-4.893-1.176 0-2.289.861-3.087 1.764V32.38h-3.717v.777l1.344.063v13.44l-1.344.063v.777h5.019v-.777l-1.302-.063v-6.804c.504-1.134 1.491-2.226 2.436-2.226 1.785 0 1.995 2.184 1.995 3.78v5.25l-1.239.063v.777ZM80.409 47.71c1.701 0 3.066-.861 3.906-2.016.399 1.47 1.386 2.016 2.667 2.016 2.079 0 2.646-1.932 2.646-3.255h-.903c0 1.26-.357 2.415-1.176 2.415-.798 0-1.05-1.113-1.05-2.52V37h-2.373v1.596c-.84-1.05-2.121-1.806-3.717-1.806-3.15 0-4.242 3.003-4.242 5.46s1.092 5.46 4.242 5.46Zm-1.722-5.46c0-2.205.714-4.62 2.835-4.62 1.323 0 2.226 1.197 2.604 2.436v4.347c-.378 1.281-1.26 2.457-2.604 2.457-2.121 0-2.835-2.415-2.835-4.62ZM94.92 47.71c1.701 0 3.066-.861 3.906-2.016.399 1.47 1.386 2.016 2.667 2.016 2.079 0 2.646-1.932 2.646-3.255h-.903c0 1.26-.357 2.415-1.176 2.415-.798 0-1.05-1.113-1.05-2.52V37h-2.373v1.596c-.84-1.05-2.121-1.806-3.717-1.806-3.15 0-4.242 3.003-4.242 5.46s1.092 5.46 4.242 5.46Zm-1.722-5.46c0-2.205.714-4.62 2.835-4.62 1.323 0 2.226 1.197 2.604 2.436v4.347c-.378 1.281-1.26 2.457-2.604 2.457-2.121 0-2.835-2.415-2.835-4.62ZM118.503 47.5h5.019v-.777l-1.407-.063v-4.977c0-3.444-1.533-4.893-3.717-4.893-1.344 0-2.73 1.092-3.57 2.1-.609-1.449-1.764-2.1-3.234-2.1-1.176 0-2.289.861-3.087 1.764V37h-3.717v.777l1.344.063v8.82l-1.344.063v.777h5.019v-.777l-1.302-.063v-6.804c.504-1.134 1.491-2.226 2.436-2.226 1.785 0 1.995 2.184 1.995 3.78v5.25l-1.239.063v.777h4.914v-.777l-1.302-.063v-4.977a9.29 9.29 0 0 0-.21-2.016c.588-1.05 1.722-2.037 2.646-2.037 1.785 0 1.995 2.184 1.995 3.78v5.25l-1.239.063v.777ZM133.287 47.71c1.68 0 4.305-.441 4.305-2.919 0-3.171-6.405-2.478-6.405-5.586 0-1.197 1.155-1.848 2.121-1.848 1.491 0 2.436 1.386 2.436 2.793h1.197V37h-.777c0 .399 0 .735-.021 1.029-.84-.861-2.163-1.239-3.381-1.239-1.848 0-4.011.882-4.011 3.192 0 3.234 6.405 2.835 6.405 5.565 0 1.092-1.113 1.596-1.911 1.596-1.491 0-3.318-.798-3.318-2.688h-1.176V47.5h.756c0-.357.021-.693.042-.987.903.924 2.457 1.197 3.738 1.197ZM145.026 47.71c3.15 0 5.565-2.247 5.565-5.46s-2.415-5.46-5.565-5.46c-3.15 0-5.565 2.247-5.565 5.46s2.415 5.46 5.565 5.46Zm-3.045-5.46c0-2.625.798-4.893 3.045-4.893s3.045 2.268 3.045 4.893-.798 4.893-3.045 4.893-3.045-2.268-3.045-4.893ZM158.088 47.71c1.995 0 3.927-1.134 4.62-3.255h-2.226c-.21 1.596-1.071 2.688-2.394 2.688-1.953 0-3.003-2.289-3.003-4.893h7.98c0-3.381-2.268-5.46-4.977-5.46-3.045 0-5.523 2.058-5.523 5.46s2.478 5.46 5.523 5.46Zm-2.961-6.3c.189-2.247 1.218-4.053 2.961-4.053 1.743 0 2.499 1.806 2.646 4.053h-5.607ZM172.011 47.71c3.15 0 4.263-3.003 4.263-5.46s-1.113-5.46-4.263-5.46a4.71 4.71 0 0 0-3.654 1.701V37h-3.717v.777l1.344.063V51.7l-1.344.063v.777h5.124v-.777l-1.407-.063v-5.712c.84 1.008 2.1 1.722 3.654 1.722Zm-3.654-3.066v-4.767c.42-1.176 1.281-2.247 2.541-2.247 2.121 0 2.856 2.415 2.856 4.62s-.735 4.62-2.856 4.62c-1.26 0-2.121-1.05-2.541-2.226ZM183.75 47.71c1.995 0 3.927-1.134 4.62-3.255h-2.226c-.21 1.596-1.071 2.688-2.394 2.688-1.953 0-3.003-2.289-3.003-4.893h7.98c0-3.381-2.268-5.46-4.977-5.46-3.045 0-5.523 2.058-5.523 5.46s2.478 5.46 5.523 5.46Zm-2.961-6.3c.189-2.247 1.218-4.053 2.961-4.053 1.743 0 2.499 1.806 2.646 4.053h-5.607ZM194.04 47.71c2.058 0 2.583-1.827 2.583-3.255h-.924c0 1.176-.357 2.415-1.134 2.415-.882 0-1.071-1.113-1.071-2.52V32.38h-3.717v.777l1.344.063v10.857c0 2.52 1.218 3.633 2.919 3.633ZM207.123 47.71c1.995 0 3.927-1.134 4.62-3.255h-2.226c-.21 1.596-1.071 2.688-2.394 2.688-1.953 0-3.003-2.289-3.003-4.893h7.98c0-3.381-2.268-5.46-4.977-5.46-3.045 0-5.523 2.058-5.523 5.46s2.478 5.46 5.523 5.46Zm-2.961-6.3c.189-2.247 1.218-4.053 2.961-4.053 1.743 0 2.499 1.806 2.646 4.053h-5.607ZM220.584 47.5h5.019v-.777l-1.407-.063v-4.977c0-3.444-1.533-4.893-3.717-4.893-1.176 0-2.289.861-3.087 1.764V37h-3.717v.777l1.344.063v8.82l-1.344.063v.777h5.019v-.777l-1.302-.063v-6.804c.504-1.134 1.491-2.226 2.436-2.226 1.785 0 1.995 2.184 1.995 3.78v5.25l-1.239.063v.777ZM237.447 47.5h5.019v-.777l-1.407-.063v-4.977c0-3.444-1.533-4.893-3.717-4.893-1.176 0-2.289.861-3.087 1.764V32.38h-3.717v.777l1.344.063v13.44l-1.344.063v.777h5.019v-.777l-1.302-.063v-6.804c.504-1.134 1.491-2.226 2.436-2.226 1.785 0 1.995 2.184 1.995 3.78v5.25l-1.239.063v.777ZM249.396 47.71c1.995 0 3.927-1.134 4.62-3.255h-2.226c-.21 1.596-1.071 2.688-2.394 2.688-1.953 0-3.003-2.289-3.003-4.893h7.98c0-3.381-2.268-5.46-4.977-5.46-3.045 0-5.523 2.058-5.523 5.46s2.478 5.46 5.523 5.46Zm-2.961-6.3c.189-2.247 1.218-4.053 2.961-4.053 1.743 0 2.499 1.806 2.646 4.053h-5.607ZM260.547 47.71c2.226 0 2.646-1.827 2.646-3.255h-.903c0 1.659-.567 2.415-1.218 2.415-.735 0-1.008-.819-1.008-2.52v-6.573h2.037V37h-2.037v-2.961h-2.373V37h-1.911v.777h1.911v6.3c0 2.688 1.26 3.633 2.856 3.633ZM273.315 47.5h.714l3.906-9.66 1.68-.063V37h-3.36v.777l.987.063-2.751 6.762L271.32 37h-3.927v.777l1.701.063zM284.046 47.71c2.058 0 2.583-1.827 2.583-3.255h-.924c0 1.176-.357 2.415-1.134 2.415-.882 0-1.071-1.113-1.071-2.52V32.38h-3.717v.777l1.344.063v10.857c0 2.52 1.218 3.633 2.919 3.633ZM293.202 47.71c1.995 0 3.927-1.134 4.62-3.255h-2.226c-.21 1.596-1.071 2.688-2.394 2.688-1.953 0-3.003-2.289-3.003-4.893h7.98c0-3.381-2.268-5.46-4.977-5.46-3.045 0-5.523 2.058-5.523 5.46s2.478 5.46 5.523 5.46Zm-2.961-6.3c.189-2.247 1.218-4.053 2.961-4.053 1.743 0 2.499 1.806 2.646 4.053h-5.607ZM305.676 47.71c1.995 0 3.927-1.134 4.62-3.255h-2.226c-.21 1.596-1.071 2.688-2.394 2.688-1.953 0-3.003-2.289-3.003-4.893h7.98c0-3.381-2.268-5.46-4.977-5.46-3.045 0-5.523 2.058-5.523 5.46s2.478 5.46 5.523 5.46Zm-2.961-6.3c.189-2.247 1.218-4.053 2.961-4.053 1.743 0 2.499 1.806 2.646 4.053h-5.607ZM317.058 47.71c1.68 0 4.305-.441 4.305-2.919 0-3.171-6.405-2.478-6.405-5.586 0-1.197 1.155-1.848 2.121-1.848 1.491 0 2.436 1.386 2.436 2.793h1.197V37h-.777c0 .399 0 .735-.021 1.029-.84-.861-2.163-1.239-3.381-1.239-1.848 0-4.011.882-4.011 3.192 0 3.234 6.405 2.835 6.405 5.565 0 1.092-1.113 1.596-1.911 1.596-1.491 0-3.318-.798-3.318-2.688h-1.176V47.5h.756c0-.357.021-.693.042-.987.903.924 2.457 1.197 3.738 1.197ZM326.76 47.5h5.124v-.777l-1.407-.063V37h-3.717v.777l1.344.063v8.82l-1.344.063v.777Zm1.134-13.167c0 .693.546 1.218 1.218 1.218.672 0 1.239-.525 1.239-1.218 0-.672-.567-1.239-1.239-1.239-.672 0-1.218.567-1.218 1.239ZM339.801 47.5h5.019v-.777l-1.407-.063v-4.977c0-3.444-1.533-4.893-3.717-4.893-1.176 0-2.289.861-3.087 1.764V37h-3.717v.777l1.344.063v8.82l-1.344.063v.777h5.019v-.777l-1.302-.063v-6.804c.504-1.134 1.491-2.226 2.436-2.226 1.785 0 1.995 2.184 1.995 3.78v5.25l-1.239.063v.777ZM355.194 47.5h.714l3.906-9.66 1.68-.063V37h-3.36v.777l.987.063-2.751 6.762L353.199 37h-3.927v.777l1.701.063zM368.109 47.71c1.995 0 3.927-1.134 4.62-3.255h-2.226c-.21 1.596-1.071 2.688-2.394 2.688-1.953 0-3.003-2.289-3.003-4.893h7.98c0-3.381-2.268-5.46-4.977-5.46-3.045 0-5.523 2.058-5.523 5.46s2.478 5.46 5.523 5.46Zm-2.961-6.3c.189-2.247 1.218-4.053 2.961-4.053 1.743 0 2.499 1.806 2.646 4.053h-5.607ZM380.583 47.71c1.995 0 3.927-1.134 4.62-3.255h-2.226c-.21 1.596-1.071 2.688-2.394 2.688-1.953 0-3.003-2.289-3.003-4.893h7.98c0-3.381-2.268-5.46-4.977-5.46-3.045 0-5.523 2.058-5.523 5.46s2.478 5.46 5.523 5.46Zm-2.961-6.3c.189-2.247 1.218-4.053 2.961-4.053 1.743 0 2.499 1.806 2.646 4.053h-5.607ZM390.873 47.71c2.058 0 2.583-1.827 2.583-3.255h-.924c0 1.176-.357 2.415-1.134 2.415-.882 0-1.071-1.113-1.071-2.52V32.38h-3.717v.777l1.344.063v10.857c0 2.52 1.218 3.633 2.919 3.633ZM402.675 47.71a4.76 4.76 0 0 0 3.717-1.764V47.5h3.78v-.777l-1.386-.063V32.38h-3.717v.777l1.323.063v5.376c-.84-1.05-2.121-1.806-3.717-1.806-3.15 0-4.242 3.003-4.242 5.46s1.092 5.46 4.242 5.46Zm-1.722-5.46c0-2.205.714-4.62 2.835-4.62 1.323 0 2.226 1.197 2.604 2.436v4.389c-.378 1.26-1.281 2.415-2.604 2.415-2.121 0-2.835-2.415-2.835-4.62ZM417.291 47.71c1.995 0 3.927-1.134 4.62-3.255h-2.226c-.21 1.596-1.071 2.688-2.394 2.688-1.953 0-3.003-2.289-3.003-4.893h7.98c0-3.381-2.268-5.46-4.977-5.46-3.045 0-5.523 2.058-5.523 5.46s2.478 5.46 5.523 5.46Zm-2.961-6.3c.189-2.247 1.218-4.053 2.961-4.053 1.743 0 2.499 1.806 2.646 4.053h-5.607ZM427.581 47.71c2.058 0 2.583-1.827 2.583-3.255h-.924c0 1.176-.357 2.415-1.134 2.415-.882 0-1.071-1.113-1.071-2.52V32.38h-3.717v.777l1.344.063v10.857c0 2.52 1.218 3.633 2.919 3.633ZM436.737 47.71c1.995 0 3.927-1.134 4.62-3.255h-2.226c-.21 1.596-1.071 2.688-2.394 2.688-1.953 0-3.003-2.289-3.003-4.893h7.98c0-3.381-2.268-5.46-4.977-5.46-3.045 0-5.523 2.058-5.523 5.46s2.478 5.46 5.523 5.46Zm-2.961-6.3c.189-2.247 1.218-4.053 2.961-4.053 1.743 0 2.499 1.806 2.646 4.053h-5.607ZM450.198 47.5h5.019v-.777l-1.407-.063v-4.977c0-3.444-1.533-4.893-3.717-4.893-1.176 0-2.289.861-3.087 1.764V37h-3.717v.777l1.344.063v8.82l-1.344.063v.777h5.019v-.777l-1.302-.063v-6.804c.504-1.134 1.491-2.226 2.436-2.226 1.785 0 1.995 2.184 1.995 3.78v5.25l-1.239.063v.777ZM460.446 47.5h8.799v-2.037h-.777l-.063 1.344h-4.977L469.119 37h-8.673v2.037h.756l.084-1.344h4.851zM476.154 47.5h.693l2.604-7.476 3.255 7.476h.693l3.339-9.66 1.617-.063V37h-3.36v.777l1.05.063-2.268 6.531L480.711 37h-2.583l.924 2.121-1.827 5.271L474.159 37h-3.927v.777l1.701.063zM493.689 47.71c1.701 0 3.066-.861 3.906-2.016.399 1.47 1.386 2.016 2.667 2.016 2.079 0 2.646-1.932 2.646-3.255h-.903c0 1.26-.357 2.415-1.176 2.415-.798 0-1.05-1.113-1.05-2.52V37h-2.373v1.596c-.84-1.05-2.121-1.806-3.717-1.806-3.15 0-4.242 3.003-4.242 5.46s1.092 5.46 4.242 5.46Zm-1.722-5.46c0-2.205.714-4.62 2.835-4.62 1.323 0 2.226 1.197 2.604 2.436v4.347c-.378 1.281-1.26 2.457-2.604 2.457-2.121 0-2.835-2.415-2.835-4.62ZM503.559 47.5h5.124v-.777l-1.407-.063v-6.279c.672-1.47 1.974-3.024 3.255-3.024.567 0 1.113.168 1.449.567-.861.063-1.722.966-1.722 1.806 0 .546.378.924.924.924.861 0 1.806-.861 1.806-1.764 0-1.26-1.05-2.1-2.289-2.1-1.617 0-2.856.987-3.423 1.638V37h-3.717v.777l1.344.063v8.82l-1.344.063v.777ZM518.175 47.71c2.226 0 2.646-1.827 2.646-3.255h-.903c0 1.659-.567 2.415-1.218 2.415-.735 0-1.008-.819-1.008-2.52v-6.573h2.037V37h-2.037v-2.961h-2.373V37h-1.911v.777h1.911v6.3c0 2.688 1.26 3.633 2.856 3.633ZM522.942 47.71c.777 0 1.407-.63 1.407-1.407a1.39 1.39 0 0 0-1.407-1.386c-.756 0-1.386.609-1.386 1.386a1.39 1.39 0 0 0 1.386 1.407ZM538.251 47.5h5.187v-.777l-1.638-.063-3.675-13.44h-2.436l-4.137 13.44-1.596.063v.777h3.444v-.777l-1.155-.063 1.68-5.439h3.948l1.47 5.439-1.092.063v.777Zm-4.116-6.972 1.89-6.09 1.659 6.09h-3.549ZM548.205 47.71c2.058 0 2.583-1.827 2.583-3.255h-.924c0 1.176-.357 2.415-1.134 2.415-.882 0-1.071-1.113-1.071-2.52V32.38h-3.717v.777l1.344.063v10.857c0 2.52 1.218 3.633 2.919 3.633ZM556.269 47.71c1.68 0 4.305-.441 4.305-2.919 0-3.171-6.405-2.478-6.405-5.586 0-1.197 1.155-1.848 2.121-1.848 1.491 0 2.436 1.386 2.436 2.793h1.197V37h-.777c0 .399 0 .735-.021 1.029-.84-.861-2.163-1.239-3.381-1.239-1.848 0-4.011.882-4.011 3.192 0 3.234 6.405 2.835 6.405 5.565 0 1.092-1.113 1.596-1.911 1.596-1.491 0-3.318-.798-3.318-2.688h-1.176V47.5h.756c0-.357.021-.693.042-.987.903.924 2.457 1.197 3.738 1.197ZM5.229 79.21a4.76 4.76 0 0 0 3.717-1.764V79h3.78v-.777l-1.386-.063V63.88H7.623v.777l1.323.063v5.376c-.84-1.05-2.121-1.806-3.717-1.806-3.15 0-4.242 3.003-4.242 5.46s1.092 5.46 4.242 5.46Zm-1.722-5.46c0-2.205.714-4.62 2.835-4.62 1.323 0 2.226 1.197 2.604 2.436v4.389c-.378 1.26-1.281 2.415-2.604 2.415-2.121 0-2.835-2.415-2.835-4.62ZM19.845 79.21c1.995 0 3.927-1.134 4.62-3.255h-2.226c-.21 1.596-1.071 2.688-2.394 2.688-1.953 0-3.003-2.289-3.003-4.893h7.98c0-3.381-2.268-5.46-4.977-5.46-3.045 0-5.523 2.058-5.523 5.46s2.478 5.46 5.523 5.46Zm-2.961-6.3c.189-2.247 1.218-4.053 2.961-4.053 1.743 0 2.499 1.806 2.646 4.053h-5.607ZM37.233 79h5.019v-.777l-1.407-.063v-4.977c0-3.444-1.533-4.893-3.717-4.893-1.176 0-2.289.861-3.087 1.764V63.88h-3.717v.777l1.344.063v13.44l-1.344.063V79h5.019v-.777l-1.302-.063v-6.804c.504-1.134 1.491-2.226 2.436-2.226 1.785 0 1.995 2.184 1.995 3.78v5.25l-1.239.063V79ZM47.901 79.21c1.701 0 3.066-.861 3.906-2.016.399 1.47 1.386 2.016 2.667 2.016 2.079 0 2.646-1.932 2.646-3.255h-.903c0 1.26-.357 2.415-1.176 2.415-.798 0-1.05-1.113-1.05-2.52V68.5h-2.373v1.596c-.84-1.05-2.121-1.806-3.717-1.806-3.15 0-4.242 3.003-4.242 5.46s1.092 5.46 4.242 5.46Zm-1.722-5.46c0-2.205.714-4.62 2.835-4.62 1.323 0 2.226 1.197 2.604 2.436v4.347c-.378 1.281-1.26 2.457-2.604 2.457-2.121 0-2.835-2.415-2.835-4.62ZM62.412 79.21c1.701 0 3.066-.861 3.906-2.016.399 1.47 1.386 2.016 2.667 2.016 2.079 0 2.646-1.932 2.646-3.255h-.903c0 1.26-.357 2.415-1.176 2.415-.798 0-1.05-1.113-1.05-2.52V68.5h-2.373v1.596c-.84-1.05-2.121-1.806-3.717-1.806-3.15 0-4.242 3.003-4.242 5.46s1.092 5.46 4.242 5.46Zm-1.722-5.46c0-2.205.714-4.62 2.835-4.62 1.323 0 2.226 1.197 2.604 2.436v4.347c-.378 1.281-1.26 2.457-2.604 2.457-2.121 0-2.835-2.415-2.835-4.62ZM77.112 79.21c1.68 0 4.305-.441 4.305-2.919 0-3.171-6.405-2.478-6.405-5.586 0-1.197 1.155-1.848 2.121-1.848 1.491 0 2.436 1.386 2.436 2.793h1.197V68.5h-.777c0 .399 0 .735-.021 1.029-.84-.861-2.163-1.239-3.381-1.239-1.848 0-4.011.882-4.011 3.192 0 3.234 6.405 2.835 6.405 5.565 0 1.092-1.113 1.596-1.911 1.596-1.491 0-3.318-.798-3.318-2.688h-1.176V79h.756c0-.357.021-.693.042-.987.903.924 2.457 1.197 3.738 1.197ZM92.778 79.21c3.15 0 5.565-2.247 5.565-5.46s-2.415-5.46-5.565-5.46c-3.15 0-5.565 2.247-5.565 5.46s2.415 5.46 5.565 5.46Zm-3.045-5.46c0-2.625.798-4.893 3.045-4.893s3.045 2.268 3.045 4.893-.798 4.893-3.045 4.893-3.045-2.268-3.045-4.893ZM104.559 79.21c1.176 0 2.289-.882 3.087-1.785V79h3.78v-.777l-1.407-.063V68.5h-3.717v.777l1.344.063v6.804c-.504 1.113-1.491 2.226-2.457 2.226-1.785 0-1.974-2.184-1.974-3.78V68.5h-3.717v.777l1.344.063v4.977c0 3.444 1.533 4.893 3.717 4.893ZM117.243 79.21a4.76 4.76 0 0 0 3.717-1.764V79h3.78v-.777l-1.386-.063V63.88h-3.717v.777l1.323.063v5.376c-.84-1.05-2.121-1.806-3.717-1.806-3.15 0-4.242 3.003-4.242 5.46s1.092 5.46 4.242 5.46Zm-1.722-5.46c0-2.205.714-4.62 2.835-4.62 1.323 0 2.226 1.197 2.604 2.436v4.389c-.378 1.26-1.281 2.415-2.604 2.415-2.121 0-2.835-2.415-2.835-4.62ZM129.864 79h5.124v-.777l-1.407-.063V68.5h-3.717v.777l1.344.063v8.82l-1.344.063V79Zm1.134-13.167c0 .693.546 1.218 1.218 1.218.672 0 1.239-.525 1.239-1.218 0-.672-.567-1.239-1.239-1.239-.672 0-1.218.567-1.218 1.239ZM140.826 79.21c1.68 0 4.305-.441 4.305-2.919 0-3.171-6.405-2.478-6.405-5.586 0-1.197 1.155-1.848 2.121-1.848 1.491 0 2.436 1.386 2.436 2.793h1.197V68.5h-.777c0 .399 0 .735-.021 1.029-.84-.861-2.163-1.239-3.381-1.239-1.848 0-4.011.882-4.011 3.192 0 3.234 6.405 2.835 6.405 5.565 0 1.092-1.113 1.596-1.911 1.596-1.491 0-3.318-.798-3.318-2.688h-1.176V79h.756c0-.357.021-.693.042-.987.903.924 2.457 1.197 3.738 1.197ZM146.58 80.638v.336c2.121 0 3.234-2.037 3.234-3.171a1.39 1.39 0 0 0-1.407-1.386c-.756 0-1.407.609-1.407 1.386 0 1.071.567 1.281.567 2.058 0 .546-.42.777-.987.777ZM155.799 79h8.799v-2.037h-.777l-.063 1.344h-4.977l5.691-9.807h-8.673v2.037h.756l.084-1.344h4.851zM170.709 79.21c1.176 0 2.289-.882 3.087-1.785V79h3.78v-.777l-1.407-.063V68.5h-3.717v.777l1.344.063v6.804c-.504 1.113-1.491 2.226-2.457 2.226-1.785 0-1.974-2.184-1.974-3.78V68.5h-3.717v.777l1.344.063v4.977c0 3.444 1.533 4.893 3.717 4.893ZM182.49 79.21c2.058 0 2.583-1.827 2.583-3.255h-.924c0 1.176-.357 2.415-1.134 2.415-.882 0-1.071-1.113-1.071-2.52V63.88h-3.717v.777l1.344.063v10.857c0 2.52 1.218 3.633 2.919 3.633ZM189.462 79.21c2.058 0 2.583-1.827 2.583-3.255h-.924c0 1.176-.357 2.415-1.134 2.415-.882 0-1.071-1.113-1.071-2.52V63.88h-3.717v.777l1.344.063v10.857c0 2.52 1.218 3.633 2.919 3.633ZM198.618 79.21c1.995 0 3.927-1.134 4.62-3.255h-2.226c-.21 1.596-1.071 2.688-2.394 2.688-1.953 0-3.003-2.289-3.003-4.893h7.98c0-3.381-2.268-5.46-4.977-5.46-3.045 0-5.523 2.058-5.523 5.46s2.478 5.46 5.523 5.46Zm-2.961-6.3c.189-2.247 1.218-4.053 2.961-4.053 1.743 0 2.499 1.806 2.646 4.053h-5.607ZM212.079 79h5.019v-.777l-1.407-.063v-4.977c0-3.444-1.533-4.893-3.717-4.893-1.176 0-2.289.861-3.087 1.764V68.5h-3.717v.777l1.344.063v8.82l-1.344.063V79h5.019v-.777l-1.302-.063v-6.804c.504-1.134 1.491-2.226 2.436-2.226 1.785 0 1.995 2.184 1.995 3.78v5.25l-1.239.063V79ZM226.674 79.21a4.76 4.76 0 0 0 3.717-1.764V79h3.78v-.777l-1.386-.063V63.88h-3.717v.777l1.323.063v5.376c-.84-1.05-2.121-1.806-3.717-1.806-3.15 0-4.242 3.003-4.242 5.46s1.092 5.46 4.242 5.46Zm-1.722-5.46c0-2.205.714-4.62 2.835-4.62 1.323 0 2.226 1.197 2.604 2.436v4.389c-.378 1.26-1.281 2.415-2.604 2.415-2.121 0-2.835-2.415-2.835-4.62ZM241.29 79.21c1.995 0 3.927-1.134 4.62-3.255h-2.226c-.21 1.596-1.071 2.688-2.394 2.688-1.953 0-3.003-2.289-3.003-4.893h7.98c0-3.381-2.268-5.46-4.977-5.46-3.045 0-5.523 2.058-5.523 5.46s2.478 5.46 5.523 5.46Zm-2.961-6.3c.189-2.247 1.218-4.053 2.961-4.053 1.743 0 2.499 1.806 2.646 4.053h-5.607ZM257.733 79.21c3.15 0 5.565-2.247 5.565-5.46s-2.415-5.46-5.565-5.46c-3.15 0-5.565 2.247-5.565 5.46s2.415 5.46 5.565 5.46Zm-3.045-5.46c0-2.625.798-4.893 3.045-4.893s3.045 2.268 3.045 4.893-.798 4.893-3.045 4.893-3.045-2.268-3.045-4.893ZM264.873 79h5.124v-.777l-1.407-.063v-6.279c.672-1.47 1.974-3.024 3.255-3.024.567 0 1.113.168 1.449.567-.861.063-1.722.966-1.722 1.806 0 .546.378.924.924.924.861 0 1.806-.861 1.806-1.764 0-1.26-1.05-2.1-2.289-2.1-1.617 0-2.856.987-3.423 1.638V68.5h-3.717v.777l1.344.063v8.82l-1.344.063V79ZM280.812 79.21c1.995 0 3.927-1.134 4.62-3.255h-2.226c-.21 1.596-1.071 2.688-2.394 2.688-1.953 0-3.003-2.289-3.003-4.893h7.98c0-3.381-2.268-5.46-4.977-5.46-3.045 0-5.523 2.058-5.523 5.46s2.478 5.46 5.523 5.46Zm-2.961-6.3c.189-2.247 1.218-4.053 2.961-4.053 1.743 0 2.499 1.806 2.646 4.053h-5.607ZM294.273 79h5.019v-.777l-1.407-.063v-4.977c0-3.444-1.533-4.893-3.717-4.893-1.176 0-2.289.861-3.087 1.764V68.5h-3.717v.777l1.344.063v8.82l-1.344.063V79h5.019v-.777l-1.302-.063v-6.804c.504-1.134 1.491-2.226 2.436-2.226 1.785 0 1.995 2.184 1.995 3.78v5.25l-1.239.063V79ZM308.826 79.21c2.226 0 2.646-1.827 2.646-3.255h-.903c0 1.659-.567 2.415-1.218 2.415-.735 0-1.008-.819-1.008-2.52v-6.573h2.037V68.5h-2.037v-2.961h-2.373V68.5h-1.911v.777h1.911v6.3c0 2.688 1.26 3.633 2.856 3.633ZM316.869 79.21c1.701 0 3.066-.861 3.906-2.016.399 1.47 1.386 2.016 2.667 2.016 2.079 0 2.646-1.932 2.646-3.255h-.903c0 1.26-.357 2.415-1.176 2.415-.798 0-1.05-1.113-1.05-2.52V68.5h-2.373v1.596c-.84-1.05-2.121-1.806-3.717-1.806-3.15 0-4.242 3.003-4.242 5.46s1.092 5.46 4.242 5.46Zm-1.722-5.46c0-2.205.714-4.62 2.835-4.62 1.323 0 2.226 1.197 2.604 2.436v4.347c-.378 1.281-1.26 2.457-2.604 2.457-2.121 0-2.835-2.415-2.835-4.62ZM331.38 79.21c1.701 0 3.066-.861 3.906-2.016.399 1.47 1.386 2.016 2.667 2.016 2.079 0 2.646-1.932 2.646-3.255h-.903c0 1.26-.357 2.415-1.176 2.415-.798 0-1.05-1.113-1.05-2.52V68.5h-2.373v1.596c-.84-1.05-2.121-1.806-3.717-1.806-3.15 0-4.242 3.003-4.242 5.46s1.092 5.46 4.242 5.46Zm-1.722-5.46c0-2.205.714-4.62 2.835-4.62 1.323 0 2.226 1.197 2.604 2.436v4.347c-.378 1.281-1.26 2.457-2.604 2.457-2.121 0-2.835-2.415-2.835-4.62ZM341.25 79h5.124v-.777l-1.407-.063V68.5h-3.717v.777l1.344.063v8.82l-1.344.063V79Zm1.134-13.167c0 .693.546 1.218 1.218 1.218.672 0 1.239-.525 1.239-1.218 0-.672-.567-1.239-1.239-1.239-.672 0-1.218.567-1.218 1.239ZM357.231 79.21c1.995 0 3.927-1.134 4.62-3.255h-2.226c-.21 1.596-1.071 2.688-2.394 2.688-1.953 0-3.003-2.289-3.003-4.893h7.98c0-3.381-2.268-5.46-4.977-5.46-3.045 0-5.523 2.058-5.523 5.46s2.478 5.46 5.523 5.46Zm-2.961-6.3c.189-2.247 1.218-4.053 2.961-4.053 1.743 0 2.499 1.806 2.646 4.053h-5.607ZM370.692 79h5.019v-.777l-1.407-.063v-4.977c0-3.444-1.533-4.893-3.717-4.893-1.176 0-2.289.861-3.087 1.764V68.5h-3.717v.777l1.344.063v8.82l-1.344.063V79h5.019v-.777l-1.302-.063v-6.804c.504-1.134 1.491-2.226 2.436-2.226 1.785 0 1.995 2.184 1.995 3.78v5.25l-1.239.063V79ZM385.287 79.21a4.76 4.76 0 0 0 3.717-1.764V79h3.78v-.777l-1.386-.063V63.88h-3.717v.777l1.323.063v5.376c-.84-1.05-2.121-1.806-3.717-1.806-3.15 0-4.242 3.003-4.242 5.46s1.092 5.46 4.242 5.46Zm-1.722-5.46c0-2.205.714-4.62 2.835-4.62 1.323 0 2.226 1.197 2.604 2.436v4.389c-.378 1.26-1.281 2.415-2.604 2.415-2.121 0-2.835-2.415-2.835-4.62ZM393.981 79h5.124v-.777l-1.407-.063v-6.279c.672-1.47 1.974-3.024 3.255-3.024.567 0 1.113.168 1.449.567-.861.063-1.722.966-1.722 1.806 0 .546.378.924.924.924.861 0 1.806-.861 1.806-1.764 0-1.26-1.05-2.1-2.289-2.1-1.617 0-2.856.987-3.423 1.638V68.5h-3.717v.777l1.344.063v8.82l-1.344.063V79ZM409.962 79.21c3.15 0 5.565-2.247 5.565-5.46s-2.415-5.46-5.565-5.46c-3.15 0-5.565 2.247-5.565 5.46s2.415 5.46 5.565 5.46Zm-3.045-5.46c0-2.625.798-4.893 3.045-4.893s3.045 2.268 3.045 4.893-.798 4.893-3.045 4.893-3.045-2.268-3.045-4.893ZM423.066 79.21c3.15 0 5.565-2.247 5.565-5.46s-2.415-5.46-5.565-5.46c-3.15 0-5.565 2.247-5.565 5.46s2.415 5.46 5.565 5.46Zm-3.045-5.46c0-2.625.798-4.893 3.045-4.893s3.045 2.268 3.045 4.893-.798 4.893-3.045 4.893-3.045-2.268-3.045-4.893ZM436.464 84.25c2.898 0 5.25-1.491 5.25-4.137 0-2.142-1.638-3.549-3.696-3.549-1.995 0-3.612 2.079-4.515 2.079-.63 0-.882-.798-.882-1.449 0-.588.21-1.155.546-1.407a5.418 5.418 0 0 0 2.1.399c2.289 0 4.683-1.47 4.683-4.011 0-1.218-.504-2.142-1.26-2.772.273-1.029.924-1.806 1.743-1.806.336 0 .609.105.819.273-.84.105-1.659.987-1.659 1.806 0 .546.378.924.924.924.861 0 1.806-.861 1.806-1.764 0-1.029-.756-1.806-1.806-1.806-1.323 0-2.226.903-2.688 1.827-.777-.378-1.68-.567-2.562-.567-2.394 0-4.662 1.323-4.662 3.885 0 1.323.609 2.352 1.533 3.045-.819.441-1.26 1.218-1.26 1.974 0 1.155 1.134 2.016 2.31 2.016 1.743 0 2.709-1.722 3.948-1.722 1.344 0 2.058 1.218 2.058 2.625 0 1.68-.966 3.57-2.877 3.57-2.058 0-3.36-1.365-3.36-2.688h-2.1c0 2.1 2.814 3.255 5.607 3.255Zm-3.486-12.075c0-2.037.882-3.318 2.289-3.318 1.323 0 2.31 1.281 2.31 3.318s-.987 3.444-2.31 3.444c-1.407 0-2.289-1.407-2.289-3.444ZM447.321 79h8.799v-2.037h-.777l-.063 1.344h-4.977l5.691-9.807h-8.673v2.037h.756l.084-1.344h4.851zM457.59 79h5.124v-.777l-1.407-.063V68.5h-3.717v.777l1.344.063v8.82l-1.344.063V79Zm1.134-13.167c0 .693.546 1.218 1.218 1.218.672 0 1.239-.525 1.239-1.218 0-.672-.567-1.239-1.239-1.239-.672 0-1.218.567-1.218 1.239Zm3.906 15.162c0 1.176.399 3.255 2.562 3.255 1.575 0 2.94-.84 2.94-3.633V68.5h-3.717v.777l1.323.063v11.55c0 1.407-.189 2.52-1.092 2.52-.798 0-1.113-1.134-1.113-2.415h-.903Zm2.94-15.162c0 .693.546 1.218 1.218 1.218.672 0 1.239-.525 1.239-1.218 0-.672-.567-1.239-1.239-1.239-.672 0-1.218.567-1.218 1.239ZM477.036 79h5.019v-.777l-1.407-.063v-4.977c0-3.444-1.533-4.893-3.717-4.893-1.176 0-2.289.861-3.087 1.764V68.5h-3.717v.777l1.344.063v8.82l-1.344.063V79h5.019v-.777l-1.302-.063v-6.804c.504-1.134 1.491-2.226 2.436-2.226 1.785 0 1.995 2.184 1.995 3.78v5.25l-1.239.063V79ZM492.912 79.21c1.995 0 3.927-1.134 4.62-3.255h-2.226c-.21 1.596-1.071 2.688-2.394 2.688-1.953 0-3.003-2.289-3.003-4.893h7.98c0-3.381-2.268-5.46-4.977-5.46-3.045 0-5.523 2.058-5.523 5.46s2.478 5.46 5.523 5.46Zm-2.961-6.3c.189-2.247 1.218-4.053 2.961-4.053 1.743 0 2.499 1.806 2.646 4.053h-5.607ZM506.373 79h5.019v-.777l-1.407-.063v-4.977c0-3.444-1.533-4.893-3.717-4.893-1.176 0-2.289.861-3.087 1.764V68.5h-3.717v.777l1.344.063v8.82l-1.344.063V79h5.019v-.777l-1.302-.063v-6.804c.504-1.134 1.491-2.226 2.436-2.226 1.785 0 1.995 2.184 1.995 3.78v5.25l-1.239.063V79ZM523.236 79h5.019v-.777l-1.407-.063v-4.977c0-3.444-1.533-4.893-3.717-4.893-1.176 0-2.289.861-3.087 1.764V68.5h-3.717v.777l1.344.063v8.82l-1.344.063V79h5.019v-.777l-1.302-.063v-6.804c.504-1.134 1.491-2.226 2.436-2.226 1.785 0 1.995 2.184 1.995 3.78v5.25l-1.239.063V79ZM529.263 79h5.124v-.777l-1.407-.063V68.5h-3.717v.777l1.344.063v8.82l-1.344.063V79Zm1.134-13.167c0 .693.546 1.218 1.218 1.218.672 0 1.239-.525 1.239-1.218 0-.672-.567-1.239-1.239-1.239-.672 0-1.218.567-1.218 1.239ZM541.317 79.21c1.995 0 3.927-1.134 4.62-3.255h-2.226c-.21 1.596-1.071 2.688-2.394 2.688-1.953 0-3.003-2.289-3.003-4.893h7.98c0-3.381-2.268-5.46-4.977-5.46-3.045 0-5.523 2.058-5.523 5.46s2.478 5.46 5.523 5.46Zm-2.961-6.3c.189-2.247 1.218-4.053 2.961-4.053 1.743 0 2.499 1.806 2.646 4.053h-5.607ZM552.468 79.21c2.226 0 2.646-1.827 2.646-3.255h-.903c0 1.659-.567 2.415-1.218 2.415-.735 0-1.008-.819-1.008-2.52v-6.573h2.037V68.5h-2.037v-2.961h-2.373V68.5h-1.911v.777h1.911v6.3c0 2.688 1.26 3.633 2.856 3.633ZM5.418 110.71c1.68 0 4.305-.441 4.305-2.919 0-3.171-6.405-2.478-6.405-5.586 0-1.197 1.155-1.848 2.121-1.848 1.491 0 2.436 1.386 2.436 2.793h1.197V100h-.777c0 .399 0 .735-.021 1.029-.84-.861-2.163-1.239-3.381-1.239-1.848 0-4.011.882-4.011 3.192 0 3.234 6.405 2.835 6.405 5.565 0 1.092-1.113 1.596-1.911 1.596-1.491 0-3.318-.798-3.318-2.688H.882v3.045h.756c0-.357.021-.693.042-.987.903.924 2.457 1.197 3.738 1.197ZM18.102 110.5h5.019v-.777l-1.407-.063v-4.977c0-3.444-1.533-4.893-3.717-4.893-1.176 0-2.289.861-3.087 1.764V100h-3.717v.777l1.344.063v8.82l-1.344.063v.777h5.019v-.777l-1.302-.063v-6.804c.504-1.134 1.491-2.226 2.436-2.226 1.785 0 1.995 2.184 1.995 3.78v5.25l-1.239.063v.777ZM30.051 110.71c1.995 0 3.927-1.134 4.62-3.255h-2.226c-.21 1.596-1.071 2.688-2.394 2.688-1.953 0-3.003-2.289-3.003-4.893h7.98c0-3.381-2.268-5.46-4.977-5.46-3.045 0-5.523 2.058-5.523 5.46s2.478 5.46 5.523 5.46Zm-2.961-6.3c.189-2.247 1.218-4.053 2.961-4.053 1.743 0 2.499 1.806 2.646 4.053H27.09ZM40.341 110.71c2.058 0 2.583-1.827 2.583-3.255H42c0 1.176-.357 2.415-1.134 2.415-.882 0-1.071-1.113-1.071-2.52V95.38h-3.717v.777l1.344.063v10.857c0 2.52 1.218 3.633 2.919 3.633ZM52.332 110.71c1.68 0 4.305-.441 4.305-2.919 0-3.171-6.405-2.478-6.405-5.586 0-1.197 1.155-1.848 2.121-1.848 1.491 0 2.436 1.386 2.436 2.793h1.197V100h-.777c0 .399 0 .735-.021 1.029-.84-.861-2.163-1.239-3.381-1.239-1.848 0-4.011.882-4.011 3.192 0 3.234 6.405 2.835 6.405 5.565 0 1.092-1.113 1.596-1.911 1.596-1.491 0-3.318-.798-3.318-2.688h-1.176v3.045h.756c0-.357.021-.693.042-.987.903.924 2.457 1.197 3.738 1.197ZM63.882 110.71c2.457 0 4.116-1.344 4.536-3.255h-2.121c-.126 1.176-.819 2.688-2.415 2.688-2.121 0-2.856-2.184-2.856-4.893 0-2.121 1.029-4.809 3.402-4.809 1.197 0 2.352.546 2.877 1.365-.819.105-1.617.987-1.617 1.785 0 .546.357.924.903.924.882 0 1.827-.861 1.827-1.764 0-1.533-2.142-2.961-4.515-2.961-3.15 0-5.397 2.478-5.397 5.46 0 3.297 2.226 5.46 5.376 5.46ZM76.818 110.5h5.019v-.777l-1.407-.063v-4.977c0-3.444-1.533-4.893-3.717-4.893-1.176 0-2.289.861-3.087 1.764V95.38h-3.717v.777l1.344.063v13.44l-1.344.063v.777h5.019v-.777l-1.302-.063v-6.804c.504-1.134 1.491-2.226 2.436-2.226 1.785 0 1.995 2.184 1.995 3.78v5.25l-1.239.063v.777ZM88.767 110.71c1.995 0 3.927-1.134 4.62-3.255h-2.226c-.21 1.596-1.071 2.688-2.394 2.688-1.953 0-3.003-2.289-3.003-4.893h7.98c0-3.381-2.268-5.46-4.977-5.46-3.045 0-5.523 2.058-5.523 5.46s2.478 5.46 5.523 5.46Zm-2.961-6.3c.189-2.247 1.218-4.053 2.961-4.053 1.743 0 2.499 1.806 2.646 4.053h-5.607ZM99.96 110.71c1.176 0 2.289-.882 3.087-1.785v1.575h3.78v-.777l-1.407-.063V100h-3.717v.777l1.344.063v6.804c-.504 1.113-1.491 2.226-2.457 2.226-1.785 0-1.974-2.184-1.974-3.78V100h-3.717v.777l1.344.063v4.977c0 3.444 1.533 4.893 3.717 4.893ZM108.003 110.5h5.124v-.777l-1.407-.063v-6.279c.672-1.47 1.974-3.024 3.255-3.024.567 0 1.113.168 1.449.567-.861.063-1.722.966-1.722 1.806 0 .546.378.924.924.924.861 0 1.806-.861 1.806-1.764 0-1.26-1.05-2.1-2.289-2.1-1.617 0-2.856.987-3.423 1.638V100h-3.717v.777l1.344.063v8.82l-1.344.063v.777ZM123.942 110.71c1.995 0 3.927-1.134 4.62-3.255h-2.226c-.21 1.596-1.071 2.688-2.394 2.688-1.953 0-3.003-2.289-3.003-4.893h7.98c0-3.381-2.268-5.46-4.977-5.46-3.045 0-5.523 2.058-5.523 5.46s2.478 5.46 5.523 5.46Zm-2.961-6.3c.189-2.247 1.218-4.053 2.961-4.053 1.743 0 2.499 1.806 2.646 4.053h-5.607ZM137.403 110.5h5.019v-.777l-1.407-.063v-4.977c0-3.444-1.533-4.893-3.717-4.893-1.176 0-2.289.861-3.087 1.764V100h-3.717v.777l1.344.063v8.82l-1.344.063v.777h5.019v-.777l-1.302-.063v-6.804c.504-1.134 1.491-2.226 2.436-2.226 1.785 0 1.995 2.184 1.995 3.78v5.25l-1.239.063v.777ZM144.795 110.71c.777 0 1.407-.63 1.407-1.407a1.39 1.39 0 0 0-1.407-1.386c-.756 0-1.386.609-1.386 1.386a1.39 1.39 0 0 0 1.386 1.407ZM160.545 110.5h3.99v-.777l-1.89-.063-4.221-7.266 4.179-5.334 1.995-.063v-.777h-2.037l-6.258 8.022V97.06l1.323-.063v-.777h-5.04v.777l1.323.063v12.6l-1.323.063v.777h5.103v-.777l-1.386-.063v-4.536l.609-.777zM171.318 110.71c3.15 0 5.565-2.247 5.565-5.46s-2.415-5.46-5.565-5.46c-3.15 0-5.565 2.247-5.565 5.46s2.415 5.46 5.565 5.46Zm-3.045-5.46c0-2.625.798-4.893 3.045-4.893s3.045 2.268 3.045 4.893-.798 4.893-3.045 4.893-3.045-2.268-3.045-4.893ZM185.367 110.5h5.019v-.777l-1.407-.063v-4.977c0-3.444-1.533-4.893-3.717-4.893-1.176 0-2.289.861-3.087 1.764V100h-3.717v.777l1.344.063v8.82l-1.344.063v.777h5.019v-.777l-1.302-.063v-6.804c.504-1.134 1.491-2.226 2.436-2.226 1.785 0 1.995 2.184 1.995 3.78v5.25l-1.239.063v.777ZM191.394 110.5h5.124v-.777l-1.407-.063V100h-3.717v.777l1.344.063v8.82l-1.344.063v.777Zm1.134-13.167c0 .693.546 1.218 1.218 1.218.672 0 1.239-.525 1.239-1.218 0-.672-.567-1.239-1.239-1.239-.672 0-1.218.567-1.218 1.239Zm3.906 15.162c0 1.176.399 3.255 2.562 3.255 1.575 0 2.94-.84 2.94-3.633V100h-3.717v.777l1.323.063v11.55c0 1.407-.189 2.52-1.092 2.52-.798 0-1.113-1.134-1.113-2.415h-.903Zm2.94-15.162c0 .693.546 1.218 1.218 1.218.672 0 1.239-.525 1.239-1.218 0-.672-.567-1.239-1.239-1.239-.672 0-1.218.567-1.218 1.239ZM210.84 110.5h5.019v-.777l-1.407-.063v-4.977c0-3.444-1.533-4.893-3.717-4.893-1.176 0-2.289.861-3.087 1.764V100h-3.717v.777l1.344.063v8.82l-1.344.063v.777h5.019v-.777l-1.302-.063v-6.804c.504-1.134 1.491-2.226 2.436-2.226 1.785 0 1.995 2.184 1.995 3.78v5.25l-1.239.063v.777ZM222.789 110.71c1.995 0 3.927-1.134 4.62-3.255h-2.226c-.21 1.596-1.071 2.688-2.394 2.688-1.953 0-3.003-2.289-3.003-4.893h7.98c0-3.381-2.268-5.46-4.977-5.46-3.045 0-5.523 2.058-5.523 5.46s2.478 5.46 5.523 5.46Zm-2.961-6.3c.189-2.247 1.218-4.053 2.961-4.053 1.743 0 2.499 1.806 2.646 4.053h-5.607ZM236.25 110.5h5.019v-.777l-1.407-.063v-4.977c0-3.444-1.533-4.893-3.717-4.893-1.176 0-2.289.861-3.087 1.764V100h-3.717v.777l1.344.063v8.82l-1.344.063v.777h5.019v-.777l-1.302-.063v-6.804c.504-1.134 1.491-2.226 2.436-2.226 1.785 0 1.995 2.184 1.995 3.78v5.25l-1.239.063v.777ZM246.204 110.5h5.124v-.777l-1.407-.063v-3.591l.294-.399 3.045 4.83h4.053v-.777l-1.911-.063-3.612-5.985 2.205-2.835 1.974-.063V100h-2.037l-4.011 5.166V95.38h-3.717v.777l1.344.063v13.44l-1.344.063zM262.521 110.71c1.176 0 2.289-.882 3.087-1.785v1.575h3.78v-.777l-1.407-.063V100h-3.717v.777l1.344.063v6.804c-.504 1.113-1.491 2.226-2.457 2.226-1.785 0-1.974-2.184-1.974-3.78V100h-3.717v.777l1.344.063v4.977c0 3.444 1.533 4.893 3.717 4.893ZM277.473 110.5h5.019v-.777l-1.407-.063v-4.977c0-3.444-1.533-4.893-3.717-4.893-1.176 0-2.289.861-3.087 1.764V100h-3.717v.777l1.344.063v8.82l-1.344.063v.777h5.019v-.777l-1.302-.063v-6.804c.504-1.134 1.491-2.226 2.436-2.226 1.785 0 1.995 2.184 1.995 3.78v5.25l-1.239.063v.777ZM290.409 110.5h5.019v-.777l-1.407-.063v-4.977c0-3.444-1.533-4.893-3.717-4.893-1.176 0-2.289.861-3.087 1.764V100H283.5v.777l1.344.063v8.82l-1.344.063v.777h5.019v-.777l-1.302-.063v-6.804c.504-1.134 1.491-2.226 2.436-2.226 1.785 0 1.995 2.184 1.995 3.78v5.25l-1.239.063v.777ZM302.358 110.71c1.995 0 3.927-1.134 4.62-3.255h-2.226c-.21 1.596-1.071 2.688-2.394 2.688-1.953 0-3.003-2.289-3.003-4.893h7.98c0-3.381-2.268-5.46-4.977-5.46-3.045 0-5.523 2.058-5.523 5.46s2.478 5.46 5.523 5.46Zm-2.961-6.3c.189-2.247 1.218-4.053 2.961-4.053 1.743 0 2.499 1.806 2.646 4.053h-5.607ZM315.819 110.5h5.019v-.777l-1.407-.063v-4.977c0-3.444-1.533-4.893-3.717-4.893-1.176 0-2.289.861-3.087 1.764V100h-3.717v.777l1.344.063v8.82l-1.344.063v.777h5.019v-.777l-1.302-.063v-6.804c.504-1.134 1.491-2.226 2.436-2.226 1.785 0 1.995 2.184 1.995 3.78v5.25l-1.239.063v.777ZM331.737 110.71c3.15 0 5.565-2.247 5.565-5.46s-2.415-5.46-5.565-5.46c-3.15 0-5.565 2.247-5.565 5.46s2.415 5.46 5.565 5.46Zm-3.045-5.46c0-2.625.798-4.893 3.045-4.893s3.045 2.268 3.045 4.893-.798 4.893-3.045 4.893-3.045-2.268-3.045-4.893ZM346.248 110.71c3.15 0 4.263-3.003 4.263-5.46s-1.113-5.46-4.263-5.46a4.71 4.71 0 0 0-3.654 1.701V100h-3.717v.777l1.344.063v13.86l-1.344.063v.777h5.124v-.777l-1.407-.063v-5.712c.84 1.008 2.1 1.722 3.654 1.722Zm-3.654-3.066v-4.767c.42-1.176 1.281-2.247 2.541-2.247 2.121 0 2.856 2.415 2.856 4.62s-.735 4.62-2.856 4.62c-1.26 0-2.121-1.05-2.541-2.226ZM360.633 110.71a4.76 4.76 0 0 0 3.717-1.764v1.554h3.78v-.777l-1.386-.063V95.38h-3.717v.777l1.323.063v5.376c-.84-1.05-2.121-1.806-3.717-1.806-3.15 0-4.242 3.003-4.242 5.46s1.092 5.46 4.242 5.46Zm-1.722-5.46c0-2.205.714-4.62 2.835-4.62 1.323 0 2.226 1.197 2.604 2.436v4.389c-.378 1.26-1.281 2.415-2.604 2.415-2.121 0-2.835-2.415-2.835-4.62ZM375.249 110.71c1.995 0 3.927-1.134 4.62-3.255h-2.226c-.21 1.596-1.071 2.688-2.394 2.688-1.953 0-3.003-2.289-3.003-4.893h7.98c0-3.381-2.268-5.46-4.977-5.46-3.045 0-5.523 2.058-5.523 5.46s2.478 5.46 5.523 5.46Zm-2.961-6.3c.189-2.247 1.218-4.053 2.961-4.053 1.743 0 2.499 1.806 2.646 4.053h-5.607ZM382.095 110.5h8.799v-2.037h-.777l-.063 1.344h-4.977l5.691-9.807h-8.673v2.037h.756l.084-1.344h4.851zM398.286 110.71c1.995 0 3.927-1.134 4.62-3.255h-2.226c-.21 1.596-1.071 2.688-2.394 2.688-1.953 0-3.003-2.289-3.003-4.893h7.98c0-3.381-2.268-5.46-4.977-5.46-3.045 0-5.523 2.058-5.523 5.46s2.478 5.46 5.523 5.46Zm-2.961-6.3c.189-2.247 1.218-4.053 2.961-4.053 1.743 0 2.499 1.806 2.646 4.053h-5.607ZM408.576 110.71c2.058 0 2.583-1.827 2.583-3.255h-.924c0 1.176-.357 2.415-1.134 2.415-.882 0-1.071-1.113-1.071-2.52V95.38h-3.717v.777l1.344.063v10.857c0 2.52 1.218 3.633 2.919 3.633ZM411.81 110.5h5.124v-.777l-1.407-.063v-8.883h2.205V100h-2.205v-.987c0-1.323.042-3.15 1.281-3.15.504 0 .861.294 1.071.714-.693 0-1.239.588-1.239 1.281s.546 1.239 1.239 1.239c.714 0 1.26-.525 1.281-1.218v-.084c-.042-1.386-1.344-2.625-3.129-2.625-2.289 0-2.877 2.226-2.877 3.843V100h-1.407v.777h1.407v8.883l-1.344.063v.777ZM423.822 110.71a4.76 4.76 0 0 0 3.717-1.764v1.554h3.78v-.777l-1.386-.063V95.38h-3.717v.777l1.323.063v5.376c-.84-1.05-2.121-1.806-3.717-1.806-3.15 0-4.242 3.003-4.242 5.46s1.092 5.46 4.242 5.46Zm-1.722-5.46c0-2.205.714-4.62 2.835-4.62 1.323 0 2.226 1.197 2.604 2.436v4.389c-.378 1.26-1.281 2.415-2.604 2.415-2.121 0-2.835-2.415-2.835-4.62ZM438.438 110.71c1.995 0 3.927-1.134 4.62-3.255h-2.226c-.21 1.596-1.071 2.688-2.394 2.688-1.953 0-3.003-2.289-3.003-4.893h7.98c0-3.381-2.268-5.46-4.977-5.46-3.045 0-5.523 2.058-5.523 5.46s2.478 5.46 5.523 5.46Zm-2.961-6.3c.189-2.247 1.218-4.053 2.961-4.053 1.743 0 2.499 1.806 2.646 4.053h-5.607ZM462.63 110.5h5.019v-.777l-1.407-.063v-4.977c0-3.444-1.533-4.893-3.717-4.893-1.344 0-2.73 1.092-3.57 2.1-.609-1.449-1.764-2.1-3.234-2.1-1.176 0-2.289.861-3.087 1.764V100h-3.717v.777l1.344.063v8.82l-1.344.063v.777h5.019v-.777l-1.302-.063v-6.804c.504-1.134 1.491-2.226 2.436-2.226 1.785 0 1.995 2.184 1.995 3.78v5.25l-1.239.063v.777h4.914v-.777l-1.302-.063v-4.977a9.29 9.29 0 0 0-.21-2.016c.588-1.05 1.722-2.037 2.646-2.037 1.785 0 1.995 2.184 1.995 3.78v5.25l-1.239.063v.777ZM473.298 110.71c1.701 0 3.066-.861 3.906-2.016.399 1.47 1.386 2.016 2.667 2.016 2.079 0 2.646-1.932 2.646-3.255h-.903c0 1.26-.357 2.415-1.176 2.415-.798 0-1.05-1.113-1.05-2.52V100h-2.373v1.596c-.84-1.05-2.121-1.806-3.717-1.806-3.15 0-4.242 3.003-4.242 5.46s1.092 5.46 4.242 5.46Zm-1.722-5.46c0-2.205.714-4.62 2.835-4.62 1.323 0 2.226 1.197 2.604 2.436v4.347c-.378 1.281-1.26 2.457-2.604 2.457-2.121 0-2.835-2.415-2.835-4.62ZM490.077 110.5h5.019v-.777l-1.407-.063v-4.977c0-3.444-1.533-4.893-3.717-4.893-1.176 0-2.289.861-3.087 1.764V100h-3.717v.777l1.344.063v8.82l-1.344.063v.777h5.019v-.777l-1.302-.063v-6.804c.504-1.134 1.491-2.226 2.436-2.226 1.785 0 1.995 2.184 1.995 3.78v5.25l-1.239.063v.777ZM496.104 110.5h5.124v-.777l-1.407-.063V100h-3.717v.777l1.344.063v8.82l-1.344.063v.777Zm1.134-13.167c0 .693.546 1.218 1.218 1.218.672 0 1.239-.525 1.239-1.218 0-.672-.567-1.239-1.239-1.239-.672 0-1.218.567-1.218 1.239ZM508.158 110.71c1.995 0 3.927-1.134 4.62-3.255h-2.226c-.21 1.596-1.071 2.688-2.394 2.688-1.953 0-3.003-2.289-3.003-4.893h7.98c0-3.381-2.268-5.46-4.977-5.46-3.045 0-5.523 2.058-5.523 5.46s2.478 5.46 5.523 5.46Zm-2.961-6.3c.189-2.247 1.218-4.053 2.961-4.053 1.743 0 2.499 1.806 2.646 4.053h-5.607ZM514.71 110.5h5.124v-.777l-1.407-.063v-6.279c.672-1.47 1.974-3.024 3.255-3.024.567 0 1.113.168 1.449.567-.861.063-1.722.966-1.722 1.806 0 .546.378.924.924.924.861 0 1.806-.861 1.806-1.764 0-1.26-1.05-2.1-2.289-2.1-1.617 0-2.856.987-3.423 1.638V100h-3.717v.777l1.344.063v8.82l-1.344.063v.777ZM6.027 142h.693l2.604-7.476L12.579 142h.693l3.339-9.66 1.617-.063v-.777h-3.36v.777l1.05.063-2.268 6.531-3.066-7.371H8.001l.924 2.121-1.827 5.271-3.066-7.392H.105v.777l1.701.063zM24.885 142.21c3.15 0 5.565-2.247 5.565-5.46s-2.415-5.46-5.565-5.46c-3.15 0-5.565 2.247-5.565 5.46s2.415 5.46 5.565 5.46Zm-3.045-5.46c0-2.625.798-4.893 3.045-4.893s3.045 2.268 3.045 4.893-.798 4.893-3.045 4.893-3.045-2.268-3.045-4.893ZM32.025 142h5.124v-.777l-1.407-.063v-6.279c.672-1.47 1.974-3.024 3.255-3.024.567 0 1.113.168 1.449.567-.861.063-1.722.966-1.722 1.806 0 .546.378.924.924.924.861 0 1.806-.861 1.806-1.764 0-1.26-1.05-2.1-2.289-2.1-1.617 0-2.856.987-3.423 1.638V131.5h-3.717v.777l1.344.063v8.82l-1.344.063V142ZM46.683 142.21a4.76 4.76 0 0 0 3.717-1.764V142h3.78v-.777l-1.386-.063v-14.28h-3.717v.777l1.323.063v5.376c-.84-1.05-2.121-1.806-3.717-1.806-3.15 0-4.242 3.003-4.242 5.46s1.092 5.46 4.242 5.46Zm-1.722-5.46c0-2.205.714-4.62 2.835-4.62 1.323 0 2.226 1.197 2.604 2.436v4.389c-.378 1.26-1.281 2.415-2.604 2.415-2.121 0-2.835-2.415-2.835-4.62ZM61.299 142.21c1.995 0 3.927-1.134 4.62-3.255h-2.226c-.21 1.596-1.071 2.688-2.394 2.688-1.953 0-3.003-2.289-3.003-4.893h7.98c0-3.381-2.268-5.46-4.977-5.46-3.045 0-5.523 2.058-5.523 5.46s2.478 5.46 5.523 5.46Zm-2.961-6.3c.189-2.247 1.218-4.053 2.961-4.053 1.743 0 2.499 1.806 2.646 4.053h-5.607ZM74.76 142h5.019v-.777l-1.407-.063v-4.977c0-3.444-1.533-4.893-3.717-4.893-1.176 0-2.289.861-3.087 1.764V131.5h-3.717v.777l1.344.063v8.82l-1.344.063V142h5.019v-.777l-1.302-.063v-6.804c.504-1.134 1.491-2.226 2.436-2.226 1.785 0 1.995 2.184 1.995 3.78v5.25l-1.239.063V142ZM91.917 142.21c3.15 0 4.263-3.003 4.263-5.46s-1.113-5.46-4.263-5.46c-1.554 0-2.814.714-3.654 1.722v-6.132h-3.717v.777l1.323.063v13.44l-1.323.063V142h3.717v-1.491a4.71 4.71 0 0 0 3.654 1.701Zm-3.654-3.066v-4.767c.42-1.176 1.281-2.247 2.541-2.247 2.121 0 2.856 2.415 2.856 4.62s-.735 4.62-2.856 4.62c-1.26 0-2.121-1.05-2.541-2.226ZM103.656 142.21c1.995 0 3.927-1.134 4.62-3.255h-2.226c-.21 1.596-1.071 2.688-2.394 2.688-1.953 0-3.003-2.289-3.003-4.893h7.98c0-3.381-2.268-5.46-4.977-5.46-3.045 0-5.523 2.058-5.523 5.46s2.478 5.46 5.523 5.46Zm-2.961-6.3c.189-2.247 1.218-4.053 2.961-4.053 1.743 0 2.499 1.806 2.646 4.053h-5.607ZM116.172 142.21c3.15 0 5.565-2.247 5.565-5.46s-2.415-5.46-5.565-5.46c-3.15 0-5.565 2.247-5.565 5.46s2.415 5.46 5.565 5.46Zm-3.045-5.46c0-2.625.798-4.893 3.045-4.893s3.045 2.268 3.045 4.893-.798 4.893-3.045 4.893-3.045-2.268-3.045-4.893ZM129.276 142.21c3.15 0 5.565-2.247 5.565-5.46s-2.415-5.46-5.565-5.46c-3.15 0-5.565 2.247-5.565 5.46s2.415 5.46 5.565 5.46Zm-3.045-5.46c0-2.625.798-4.893 3.045-4.893s3.045 2.268 3.045 4.893-.798 4.893-3.045 4.893-3.045-2.268-3.045-4.893ZM136.416 142h5.124v-.777l-1.407-.063v-6.279c.672-1.47 1.974-3.024 3.255-3.024.567 0 1.113.168 1.449.567-.861.063-1.722.966-1.722 1.806 0 .546.378.924.924.924.861 0 1.806-.861 1.806-1.764 0-1.26-1.05-2.1-2.289-2.1-1.617 0-2.856.987-3.423 1.638V131.5h-3.717v.777l1.344.063v8.82l-1.344.063V142ZM151.074 142.21a4.76 4.76 0 0 0 3.717-1.764V142h3.78v-.777l-1.386-.063v-14.28h-3.717v.777l1.323.063v5.376c-.84-1.05-2.121-1.806-3.717-1.806-3.15 0-4.242 3.003-4.242 5.46s1.092 5.46 4.242 5.46Zm-1.722-5.46c0-2.205.714-4.62 2.835-4.62 1.323 0 2.226 1.197 2.604 2.436v4.389c-.378 1.26-1.281 2.415-2.604 2.415-2.121 0-2.835-2.415-2.835-4.62ZM165.69 142.21c1.995 0 3.927-1.134 4.62-3.255h-2.226c-.21 1.596-1.071 2.688-2.394 2.688-1.953 0-3.003-2.289-3.003-4.893h7.98c0-3.381-2.268-5.46-4.977-5.46-3.045 0-5.523 2.058-5.523 5.46s2.478 5.46 5.523 5.46Zm-2.961-6.3c.189-2.247 1.218-4.053 2.961-4.053 1.743 0 2.499 1.806 2.646 4.053h-5.607ZM178.164 142.21c1.995 0 3.927-1.134 4.62-3.255h-2.226c-.21 1.596-1.071 2.688-2.394 2.688-1.953 0-3.003-2.289-3.003-4.893h7.98c0-3.381-2.268-5.46-4.977-5.46-3.045 0-5.523 2.058-5.523 5.46s2.478 5.46 5.523 5.46Zm-2.961-6.3c.189-2.247 1.218-4.053 2.961-4.053 1.743 0 2.499 1.806 2.646 4.053h-5.607ZM188.454 142.21c2.058 0 2.583-1.827 2.583-3.255h-.924c0 1.176-.357 2.415-1.134 2.415-.882 0-1.071-1.113-1.071-2.52v-11.97h-3.717v.777l1.344.063v10.857c0 2.52 1.218 3.633 2.919 3.633ZM196.329 142.21a4.76 4.76 0 0 0 3.717-1.764V142h3.78v-.777l-1.386-.063v-14.28h-3.717v.777l1.323.063v5.376c-.84-1.05-2.121-1.806-3.717-1.806-3.15 0-4.242 3.003-4.242 5.46s1.092 5.46 4.242 5.46Zm-1.722-5.46c0-2.205.714-4.62 2.835-4.62 1.323 0 2.226 1.197 2.604 2.436v4.389c-.378 1.26-1.281 2.415-2.604 2.415-2.121 0-2.835-2.415-2.835-4.62ZM206.388 142.21c.777 0 1.407-.63 1.407-1.407a1.39 1.39 0 0 0-1.407-1.386c-.756 0-1.386.609-1.386 1.386a1.39 1.39 0 0 0 1.386 1.407ZM214.389 142h5.103v-.777l-1.386-.063v-12.6l1.323-.063v-.777h-5.04v.777l1.323.063v12.6l-1.323.063zM228.396 142h5.019v-.777l-1.407-.063v-4.977c0-3.444-1.533-4.893-3.717-4.893-1.176 0-2.289.861-3.087 1.764V131.5h-3.717v.777l1.344.063v8.82l-1.344.063V142h5.019v-.777l-1.302-.063v-6.804c.504-1.134 1.491-2.226 2.436-2.226 1.785 0 1.995 2.184 1.995 3.78v5.25l-1.239.063V142ZM245.553 142.21c3.15 0 4.263-3.003 4.263-5.46s-1.113-5.46-4.263-5.46c-1.554 0-2.814.714-3.654 1.722v-6.132h-3.717v.777l1.323.063v13.44l-1.323.063V142h3.717v-1.491a4.71 4.71 0 0 0 3.654 1.701Zm-3.654-3.066v-4.767c.42-1.176 1.281-2.247 2.541-2.247 2.121 0 2.856 2.415 2.856 4.62s-.735 4.62-2.856 4.62c-1.26 0-2.121-1.05-2.541-2.226ZM257.292 142.21c1.995 0 3.927-1.134 4.62-3.255h-2.226c-.21 1.596-1.071 2.688-2.394 2.688-1.953 0-3.003-2.289-3.003-4.893h7.98c0-3.381-2.268-5.46-4.977-5.46-3.045 0-5.523 2.058-5.523 5.46s2.478 5.46 5.523 5.46Zm-2.961-6.3c.189-2.247 1.218-4.053 2.961-4.053 1.743 0 2.499 1.806 2.646 4.053h-5.607ZM263.844 142h5.124v-.777l-1.407-.063v-9.66h-3.717v.777l1.344.063v8.82l-1.344.063V142Zm1.134-13.167c0 .693.546 1.218 1.218 1.218.672 0 1.239-.525 1.239-1.218 0-.672-.567-1.239-1.239-1.239-.672 0-1.218.567-1.218 1.239ZM274.617 142.21a4.76 4.76 0 0 0 3.717-1.764V142h3.78v-.777l-1.386-.063v-14.28h-3.717v.777l1.323.063v5.376c-.84-1.05-2.121-1.806-3.717-1.806-3.15 0-4.242 3.003-4.242 5.46s1.092 5.46 4.242 5.46Zm-1.722-5.46c0-2.205.714-4.62 2.835-4.62 1.323 0 2.226 1.197 2.604 2.436v4.389c-.378 1.26-1.281 2.415-2.604 2.415-2.121 0-2.835-2.415-2.835-4.62ZM289.233 142.21c1.995 0 3.927-1.134 4.62-3.255h-2.226c-.21 1.596-1.071 2.688-2.394 2.688-1.953 0-3.003-2.289-3.003-4.893h7.98c0-3.381-2.268-5.46-4.977-5.46-3.045 0-5.523 2.058-5.523 5.46s2.478 5.46 5.523 5.46Zm-2.961-6.3c.189-2.247 1.218-4.053 2.961-4.053 1.743 0 2.499 1.806 2.646 4.053h-5.607ZM313.425 142h5.019v-.777l-1.407-.063v-4.977c0-3.444-1.533-4.893-3.717-4.893-1.344 0-2.73 1.092-3.57 2.1-.609-1.449-1.764-2.1-3.234-2.1-1.176 0-2.289.861-3.087 1.764V131.5h-3.717v.777l1.344.063v8.82l-1.344.063V142h5.019v-.777l-1.302-.063v-6.804c.504-1.134 1.491-2.226 2.436-2.226 1.785 0 1.995 2.184 1.995 3.78v5.25l-1.239.063V142h4.914v-.777l-1.302-.063v-4.977a9.29 9.29 0 0 0-.21-2.016c.588-1.05 1.722-2.037 2.646-2.037 1.785 0 1.995 2.184 1.995 3.78v5.25l-1.239.063V142ZM325.416 142.21c3.15 0 5.565-2.247 5.565-5.46s-2.415-5.46-5.565-5.46c-3.15 0-5.565 2.247-5.565 5.46s2.415 5.46 5.565 5.46Zm-3.045-5.46c0-2.625.798-4.893 3.045-4.893s3.045 2.268 3.045 4.893-.798 4.893-3.045 4.893-3.045-2.268-3.045-4.893ZM338.478 142.21c1.995 0 3.927-1.134 4.62-3.255h-2.226c-.21 1.596-1.071 2.688-2.394 2.688-1.953 0-3.003-2.289-3.003-4.893h7.98c0-3.381-2.268-5.46-4.977-5.46-3.045 0-5.523 2.058-5.523 5.46s2.478 5.46 5.523 5.46Zm-2.961-6.3c.189-2.247 1.218-4.053 2.961-4.053 1.743 0 2.499 1.806 2.646 4.053h-5.607ZM349.629 142.21c2.226 0 2.646-1.827 2.646-3.255h-.903c0 1.659-.567 2.415-1.218 2.415-.735 0-1.008-.819-1.008-2.52v-6.573h2.037v-.777h-2.037v-2.961h-2.373v2.961h-1.911v.777h1.911v6.3c0 2.688 1.26 3.633 2.856 3.633ZM358.953 142.21c1.995 0 3.927-1.134 4.62-3.255h-2.226c-.21 1.596-1.071 2.688-2.394 2.688-1.953 0-3.003-2.289-3.003-4.893h7.98c0-3.381-2.268-5.46-4.977-5.46-3.045 0-5.523 2.058-5.523 5.46s2.478 5.46 5.523 5.46Zm-2.961-6.3c.189-2.247 1.218-4.053 2.961-4.053 1.743 0 2.499 1.806 2.646 4.053h-5.607ZM372.414 142h5.019v-.777l-1.407-.063v-4.977c0-3.444-1.533-4.893-3.717-4.893-1.176 0-2.289.861-3.087 1.764V131.5h-3.717v.777l1.344.063v8.82l-1.344.063V142h5.019v-.777l-1.302-.063v-6.804c.504-1.134 1.491-2.226 2.436-2.226 1.785 0 1.995 2.184 1.995 3.78v5.25l-1.239.063V142ZM387.009 142.21a4.76 4.76 0 0 0 3.717-1.764V142h3.78v-.777l-1.386-.063v-14.28h-3.717v.777l1.323.063v5.376c-.84-1.05-2.121-1.806-3.717-1.806-3.15 0-4.242 3.003-4.242 5.46s1.092 5.46 4.242 5.46Zm-1.722-5.46c0-2.205.714-4.62 2.835-4.62 1.323 0 2.226 1.197 2.604 2.436v4.389c-.378 1.26-1.281 2.415-2.604 2.415-2.121 0-2.835-2.415-2.835-4.62ZM401.625 142.21c1.995 0 3.927-1.134 4.62-3.255h-2.226c-.21 1.596-1.071 2.688-2.394 2.688-1.953 0-3.003-2.289-3.003-4.893h7.98c0-3.381-2.268-5.46-4.977-5.46-3.045 0-5.523 2.058-5.523 5.46s2.478 5.46 5.523 5.46Zm-2.961-6.3c.189-2.247 1.218-4.053 2.961-4.053 1.743 0 2.499 1.806 2.646 4.053h-5.607ZM412.104 142h5.124v-.777l-1.407-.063v-3.591l.294-.399 3.045 4.83h4.053v-.777l-1.911-.063-3.612-5.985 2.205-2.835 1.974-.063v-.777h-2.037l-4.011 5.166v-9.786h-3.717v.777l1.344.063v13.44l-1.344.063zM427.518 142.21c2.058 0 2.583-1.827 2.583-3.255h-.924c0 1.176-.357 2.415-1.134 2.415-.882 0-1.071-1.113-1.071-2.52v-11.97h-3.717v.777l1.344.063v10.857c0 2.52 1.218 3.633 2.919 3.633ZM435.393 142.21c1.701 0 3.066-.861 3.906-2.016.399 1.47 1.386 2.016 2.667 2.016 2.079 0 2.646-1.932 2.646-3.255h-.903c0 1.26-.357 2.415-1.176 2.415-.798 0-1.05-1.113-1.05-2.52v-7.35h-2.373v1.596c-.84-1.05-2.121-1.806-3.717-1.806-3.15 0-4.242 3.003-4.242 5.46s1.092 5.46 4.242 5.46Zm-1.722-5.46c0-2.205.714-4.62 2.835-4.62 1.323 0 2.226 1.197 2.604 2.436v4.347c-.378 1.281-1.26 2.457-2.604 2.457-2.121 0-2.835-2.415-2.835-4.62ZM449.904 142.21c1.176 0 2.289-.882 3.087-1.785V142h3.78v-.777l-1.407-.063v-9.66h-3.717v.777l1.344.063v6.804c-.504 1.113-1.491 2.226-2.457 2.226-1.785 0-1.974-2.184-1.974-3.78v-6.09h-3.717v.777l1.344.063v4.977c0 3.444 1.533 4.893 3.717 4.893ZM463.386 142h.693l2.604-7.476 3.255 7.476h.693l3.339-9.66 1.617-.063v-.777h-3.36v.777l1.05.063-2.268 6.531-3.066-7.371h-2.583l.924 2.121-1.827 5.271-3.066-7.392h-3.927v.777l1.701.063zM482.202 142.21c1.995 0 3.927-1.134 4.62-3.255h-2.226c-.21 1.596-1.071 2.688-2.394 2.688-1.953 0-3.003-2.289-3.003-4.893h7.98c0-3.381-2.268-5.46-4.977-5.46-3.045 0-5.523 2.058-5.523 5.46s2.478 5.46 5.523 5.46Zm-2.961-6.3c.189-2.247 1.218-4.053 2.961-4.053 1.743 0 2.499 1.806 2.646 4.053h-5.607ZM495.663 142h5.019v-.777l-1.407-.063v-4.977c0-3.444-1.533-4.893-3.717-4.893-1.176 0-2.289.861-3.087 1.764V131.5h-3.717v.777l1.344.063v8.82l-1.344.063V142h5.019v-.777l-1.302-.063v-6.804c.504-1.134 1.491-2.226 2.436-2.226 1.785 0 1.995 2.184 1.995 3.78v5.25l-1.239.063V142ZM511.875 147.25c2.898 0 5.25-1.491 5.25-4.137 0-2.142-1.638-3.549-3.696-3.549-1.995 0-3.612 2.079-4.515 2.079-.63 0-.882-.798-.882-1.449 0-.588.21-1.155.546-1.407a5.418 5.418 0 0 0 2.1.399c2.289 0 4.683-1.47 4.683-4.011 0-1.218-.504-2.142-1.26-2.772.273-1.029.924-1.806 1.743-1.806.336 0 .609.105.819.273-.84.105-1.659.987-1.659 1.806 0 .546.378.924.924.924.861 0 1.806-.861 1.806-1.764 0-1.029-.756-1.806-1.806-1.806-1.323 0-2.226.903-2.688 1.827-.777-.378-1.68-.567-2.562-.567-2.394 0-4.662 1.323-4.662 3.885 0 1.323.609 2.352 1.533 3.045-.819.441-1.26 1.218-1.26 1.974 0 1.155 1.134 2.016 2.31 2.016 1.743 0 2.709-1.722 3.948-1.722 1.344 0 2.058 1.218 2.058 2.625 0 1.68-.966 3.57-2.877 3.57-2.058 0-3.36-1.365-3.36-2.688h-2.1c0 2.1 2.814 3.255 5.607 3.255Zm-3.486-12.075c0-2.037.882-3.318 2.289-3.318 1.323 0 2.31 1.281 2.31 3.318s-.987 3.444-2.31 3.444c-1.407 0-2.289-1.407-2.289-3.444ZM522.249 142.21c2.058 0 2.583-1.827 2.583-3.255h-.924c0 1.176-.357 2.415-1.134 2.415-.882 0-1.071-1.113-1.071-2.52v-11.97h-3.717v.777l1.344.063v10.857c0 2.52 1.218 3.633 2.919 3.633ZM530.124 142.21c1.701 0 3.066-.861 3.906-2.016.399 1.47 1.386 2.016 2.667 2.016 2.079 0 2.646-1.932 2.646-3.255h-.903c0 1.26-.357 2.415-1.176 2.415-.798 0-1.05-1.113-1.05-2.52v-7.35h-2.373v1.596c-.84-1.05-2.121-1.806-3.717-1.806-3.15 0-4.242 3.003-4.242 5.46s1.092 5.46 4.242 5.46Zm-1.722-5.46c0-2.205.714-4.62 2.835-4.62 1.323 0 2.226 1.197 2.604 2.436v4.347c-.378 1.281-1.26 2.457-2.604 2.457-2.121 0-2.835-2.415-2.835-4.62ZM544.635 142.21a4.76 4.76 0 0 0 3.717-1.764V142h3.78v-.777l-1.386-.063v-14.28h-3.717v.777l1.323.063v5.376c-.84-1.05-2.121-1.806-3.717-1.806-3.15 0-4.242 3.003-4.242 5.46s1.092 5.46 4.242 5.46Zm-1.722-5.46c0-2.205.714-4.62 2.835-4.62 1.323 0 2.226 1.197 2.604 2.436v4.389c-.378 1.26-1.281 2.415-2.604 2.415-2.121 0-2.835-2.415-2.835-4.62ZM6.51 173.71c1.995 0 3.927-1.134 4.62-3.255H8.904c-.21 1.596-1.071 2.688-2.394 2.688-1.953 0-3.003-2.289-3.003-4.893h7.98c0-3.381-2.268-5.46-4.977-5.46-3.045 0-5.523 2.058-5.523 5.46s2.478 5.46 5.523 5.46Zm-2.961-6.3c.189-2.247 1.218-4.053 2.961-4.053 1.743 0 2.499 1.806 2.646 4.053H3.549ZM19.971 173.5h5.019v-.777l-1.407-.063v-4.977c0-3.444-1.533-4.893-3.717-4.893-1.176 0-2.289.861-3.087 1.764V163h-3.717v.777l1.344.063v8.82l-1.344.063v.777h5.019v-.777l-1.302-.063v-6.804c.504-1.134 1.491-2.226 2.436-2.226 1.785 0 1.995 2.184 1.995 3.78v5.25l-1.239.063v.777ZM34.755 173.71c1.68 0 4.305-.441 4.305-2.919 0-3.171-6.405-2.478-6.405-5.586 0-1.197 1.155-1.848 2.121-1.848 1.491 0 2.436 1.386 2.436 2.793h1.197V163h-.777c0 .399 0 .735-.021 1.029-.84-.861-2.163-1.239-3.381-1.239-1.848 0-4.011.882-4.011 3.192 0 3.234 6.405 2.835 6.405 5.565 0 1.092-1.113 1.596-1.911 1.596-1.491 0-3.318-.798-3.318-2.688h-1.176v3.045h.756c0-.357.021-.693.042-.987.903.924 2.457 1.197 3.738 1.197ZM46.305 173.71c2.457 0 4.116-1.344 4.536-3.255H48.72c-.126 1.176-.819 2.688-2.415 2.688-2.121 0-2.856-2.184-2.856-4.893 0-2.121 1.029-4.809 3.402-4.809 1.197 0 2.352.546 2.877 1.365-.819.105-1.617.987-1.617 1.785 0 .546.357.924.903.924.882 0 1.827-.861 1.827-1.764 0-1.533-2.142-2.961-4.515-2.961-3.15 0-5.397 2.478-5.397 5.46 0 3.297 2.226 5.46 5.376 5.46ZM59.241 173.5h5.019v-.777l-1.407-.063v-4.977c0-3.444-1.533-4.893-3.717-4.893-1.176 0-2.289.861-3.087 1.764v-6.174h-3.717v.777l1.344.063v13.44l-1.344.063v.777h5.019v-.777l-1.302-.063v-6.804c.504-1.134 1.491-2.226 2.436-2.226 1.785 0 1.995 2.184 1.995 3.78v5.25l-1.239.063v.777ZM71.19 173.71c1.995 0 3.927-1.134 4.62-3.255h-2.226c-.21 1.596-1.071 2.688-2.394 2.688-1.953 0-3.003-2.289-3.003-4.893h7.98c0-3.381-2.268-5.46-4.977-5.46-3.045 0-5.523 2.058-5.523 5.46s2.478 5.46 5.523 5.46Zm-2.961-6.3c.189-2.247 1.218-4.053 2.961-4.053 1.743 0 2.499 1.806 2.646 4.053h-5.607ZM77.742 173.5h5.124v-.777l-1.407-.063v-6.279c.672-1.47 1.974-3.024 3.255-3.024.567 0 1.113.168 1.449.567-.861.063-1.722.966-1.722 1.806 0 .546.378.924.924.924.861 0 1.806-.861 1.806-1.764 0-1.26-1.05-2.1-2.289-2.1-1.617 0-2.856.987-3.423 1.638V163h-3.717v.777l1.344.063v8.82l-1.344.063v.777ZM95.13 173.71c3.15 0 4.263-3.003 4.263-5.46s-1.113-5.46-4.263-5.46a4.71 4.71 0 0 0-3.654 1.701V163h-3.717v.777l1.344.063v13.86l-1.344.063v.777h5.124v-.777l-1.407-.063v-5.712c.84 1.008 2.1 1.722 3.654 1.722Zm-3.654-3.066v-4.767c.42-1.176 1.281-2.247 2.541-2.247 2.121 0 2.856 2.415 2.856 4.62s-.735 4.62-2.856 4.62c-1.26 0-2.121-1.05-2.541-2.226ZM105.168 173.5h8.799v-2.037h-.777l-.063 1.344h-4.977l5.691-9.807h-8.673v2.037h.756l.084-1.344h4.851zM115.437 173.5h5.124v-.777l-1.407-.063V163h-3.717v.777l1.344.063v8.82l-1.344.063v.777Zm1.134-13.167c0 .693.546 1.218 1.218 1.218.672 0 1.239-.525 1.239-1.218 0-.672-.567-1.239-1.239-1.239-.672 0-1.218.567-1.218 1.239Zm3.906 15.162c0 1.176.399 3.255 2.562 3.255 1.575 0 2.94-.84 2.94-3.633V163h-3.717v.777l1.323.063v11.55c0 1.407-.189 2.52-1.092 2.52-.798 0-1.113-1.134-1.113-2.415h-.903Zm2.94-15.162c0 .693.546 1.218 1.218 1.218.672 0 1.239-.525 1.239-1.218 0-.672-.567-1.239-1.239-1.239-.672 0-1.218.567-1.218 1.239ZM134.883 173.5h5.019v-.777l-1.407-.063v-4.977c0-3.444-1.533-4.893-3.717-4.893-1.176 0-2.289.861-3.087 1.764V163h-3.717v.777l1.344.063v8.82l-1.344.063v.777h5.019v-.777l-1.302-.063v-6.804c.504-1.134 1.491-2.226 2.436-2.226 1.785 0 1.995 2.184 1.995 3.78v5.25l-1.239.063v.777ZM142.275 173.71c.777 0 1.407-.63 1.407-1.407a1.39 1.39 0 0 0-1.407-1.386c-.756 0-1.386.609-1.386 1.386a1.39 1.39 0 0 0 1.386 1.407ZM150.066 173.5h7.413c2.709 0 4.746-1.596 4.746-3.969 0-2.205-1.764-3.696-4.074-3.927 1.302-.483 2.142-1.596 2.142-3.003 0-1.89-1.239-3.591-3.276-3.591-1.386 0-2.541.966-3.234 1.806v-1.596h-3.717v.777l1.323.063v12.6l-1.323.063v.777Zm3.717-.693v-6.699h1.722c1.869 0 4.284.861 4.284 3.318 0 1.659-1.197 3.087-2.898 3.276-.903.063-2.121.084-3.108.105Zm0-7.329v-3.528c.483-1.008 1.218-2.1 2.142-2.1 1.512 0 2.184 1.596 2.184 2.835 0 2.289-2.394 2.793-3.948 2.793h-.378ZM163.695 173.5h5.124v-.777l-1.407-.063V163h-3.717v.777l1.344.063v8.82l-1.344.063v.777Zm1.134-13.167c0 .693.546 1.218 1.218 1.218.672 0 1.239-.525 1.239-1.218 0-.672-.567-1.239-1.239-1.239-.672 0-1.218.567-1.218 1.239Zm3.906 15.162c0 1.176.399 3.255 2.562 3.255 1.575 0 2.94-.84 2.94-3.633V163h-3.717v.777l1.323.063v11.55c0 1.407-.189 2.52-1.092 2.52-.798 0-1.113-1.134-1.113-2.415h-.903Zm2.94-15.162c0 .693.546 1.218 1.218 1.218.672 0 1.239-.525 1.239-1.218 0-.672-.567-1.239-1.239-1.239-.672 0-1.218.567-1.218 1.239ZM186.081 173.71c1.995 0 3.927-1.134 4.62-3.255h-2.226c-.21 1.596-1.071 2.688-2.394 2.688-1.953 0-3.003-2.289-3.003-4.893h7.98c0-3.381-2.268-5.46-4.977-5.46-3.045 0-5.523 2.058-5.523 5.46s2.478 5.46 5.523 5.46Zm-2.961-6.3c.189-2.247 1.218-4.053 2.961-4.053 1.743 0 2.499 1.806 2.646 4.053h-5.607ZM198.555 173.71c1.995 0 3.927-1.134 4.62-3.255h-2.226c-.21 1.596-1.071 2.688-2.394 2.688-1.953 0-3.003-2.289-3.003-4.893h7.98c0-3.381-2.268-5.46-4.977-5.46-3.045 0-5.523 2.058-5.523 5.46s2.478 5.46 5.523 5.46Zm-2.961-6.3c.189-2.247 1.218-4.053 2.961-4.053 1.743 0 2.499 1.806 2.646 4.053h-5.607ZM212.016 173.5h5.019v-.777l-1.407-.063v-4.977c0-3.444-1.533-4.893-3.717-4.893-1.176 0-2.289.861-3.087 1.764V163h-3.717v.777l1.344.063v8.82l-1.344.063v.777h5.019v-.777l-1.302-.063v-6.804c.504-1.134 1.491-2.226 2.436-2.226 1.785 0 1.995 2.184 1.995 3.78v5.25l-1.239.063v.777ZM223.251 178.75c1.575 0 2.94-.84 2.94-3.633V163h-3.717v.777l1.323.063v11.55c0 1.407-.189 2.52-1.092 2.52-.798 0-1.113-1.134-1.113-2.415h-.903c0 1.176.399 3.255 2.562 3.255Zm.357-18.417c0 .693.546 1.218 1.218 1.218.672 0 1.239-.525 1.239-1.218 0-.672-.567-1.239-1.239-1.239-.672 0-1.218.567-1.218 1.239ZM234.129 173.71c3.15 0 5.565-2.247 5.565-5.46s-2.415-5.46-5.565-5.46c-3.15 0-5.565 2.247-5.565 5.46s2.415 5.46 5.565 5.46Zm-3.045-5.46c0-2.625.798-4.893 3.045-4.893s3.045 2.268 3.045 4.893-.798 4.893-3.045 4.893-3.045-2.268-3.045-4.893ZM248.178 173.5h5.019v-.777l-1.407-.063v-4.977c0-3.444-1.533-4.893-3.717-4.893-1.176 0-2.289.861-3.087 1.764V163h-3.717v.777l1.344.063v8.82l-1.344.063v.777h5.019v-.777l-1.302-.063v-6.804c.504-1.134 1.491-2.226 2.436-2.226 1.785 0 1.995 2.184 1.995 3.78v5.25l-1.239.063v.777ZM260.463 178.75c2.898 0 5.25-1.491 5.25-4.137 0-2.142-1.638-3.549-3.696-3.549-1.995 0-3.612 2.079-4.515 2.079-.63 0-.882-.798-.882-1.449 0-.588.21-1.155.546-1.407a5.418 5.418 0 0 0 2.1.399c2.289 0 4.683-1.47 4.683-4.011 0-1.218-.504-2.142-1.26-2.772.273-1.029.924-1.806 1.743-1.806.336 0 .609.105.819.273-.84.105-1.659.987-1.659 1.806 0 .546.378.924.924.924.861 0 1.806-.861 1.806-1.764 0-1.029-.756-1.806-1.806-1.806-1.323 0-2.226.903-2.688 1.827-.777-.378-1.68-.567-2.562-.567-2.394 0-4.662 1.323-4.662 3.885 0 1.323.609 2.352 1.533 3.045-.819.441-1.26 1.218-1.26 1.974 0 1.155 1.134 2.016 2.31 2.016 1.743 0 2.709-1.722 3.948-1.722 1.344 0 2.058 1.218 2.058 2.625 0 1.68-.966 3.57-2.877 3.57-2.058 0-3.36-1.365-3.36-2.688h-2.1c0 2.1 2.814 3.255 5.607 3.255Zm-3.486-12.075c0-2.037.882-3.318 2.289-3.318 1.323 0 2.31 1.281 2.31 3.318s-.987 3.444-2.31 3.444c-1.407 0-2.289-1.407-2.289-3.444ZM273.021 173.71c1.995 0 3.927-1.134 4.62-3.255h-2.226c-.21 1.596-1.071 2.688-2.394 2.688-1.953 0-3.003-2.289-3.003-4.893h7.98c0-3.381-2.268-5.46-4.977-5.46-3.045 0-5.523 2.058-5.523 5.46s2.478 5.46 5.523 5.46Zm-2.961-6.3c.189-2.247 1.218-4.053 2.961-4.053 1.743 0 2.499 1.806 2.646 4.053h-5.607ZM279.573 173.5h5.124v-.777l-1.407-.063v-6.279c.672-1.47 1.974-3.024 3.255-3.024.567 0 1.113.168 1.449.567-.861.063-1.722.966-1.722 1.806 0 .546.378.924.924.924.861 0 1.806-.861 1.806-1.764 0-1.26-1.05-2.1-2.289-2.1-1.617 0-2.856.987-3.423 1.638V163h-3.717v.777l1.344.063v8.82l-1.344.063v.777ZM295.512 173.71c1.995 0 3.927-1.134 4.62-3.255h-2.226c-.21 1.596-1.071 2.688-2.394 2.688-1.953 0-3.003-2.289-3.003-4.893h7.98c0-3.381-2.268-5.46-4.977-5.46-3.045 0-5.523 2.058-5.523 5.46s2.478 5.46 5.523 5.46Zm-2.961-6.3c.189-2.247 1.218-4.053 2.961-4.053 1.743 0 2.499 1.806 2.646 4.053h-5.607ZM312.9 173.5h5.019v-.777l-1.407-.063v-4.977c0-3.444-1.533-4.893-3.717-4.893-1.176 0-2.289.861-3.087 1.764v-6.174h-3.717v.777l1.344.063v13.44l-1.344.063v.777h5.019v-.777l-1.302-.063v-6.804c.504-1.134 1.491-2.226 2.436-2.226 1.785 0 1.995 2.184 1.995 3.78v5.25l-1.239.063v.777ZM323.568 173.71c1.701 0 3.066-.861 3.906-2.016.399 1.47 1.386 2.016 2.667 2.016 2.079 0 2.646-1.932 2.646-3.255h-.903c0 1.26-.357 2.415-1.176 2.415-.798 0-1.05-1.113-1.05-2.52V163h-2.373v1.596c-.84-1.05-2.121-1.806-3.717-1.806-3.15 0-4.242 3.003-4.242 5.46s1.092 5.46 4.242 5.46Zm-1.722-5.46c0-2.205.714-4.62 2.835-4.62 1.323 0 2.226 1.197 2.604 2.436v4.347c-.378 1.281-1.26 2.457-2.604 2.457-2.121 0-2.835-2.415-2.835-4.62ZM338.079 173.71c1.701 0 3.066-.861 3.906-2.016.399 1.47 1.386 2.016 2.667 2.016 2.079 0 2.646-1.932 2.646-3.255h-.903c0 1.26-.357 2.415-1.176 2.415-.798 0-1.05-1.113-1.05-2.52V163h-2.373v1.596c-.84-1.05-2.121-1.806-3.717-1.806-3.15 0-4.242 3.003-4.242 5.46s1.092 5.46 4.242 5.46Zm-1.722-5.46c0-2.205.714-4.62 2.835-4.62 1.323 0 2.226 1.197 2.604 2.436v4.347c-.378 1.281-1.26 2.457-2.604 2.457-2.121 0-2.835-2.415-2.835-4.62ZM352.779 173.71c1.68 0 4.305-.441 4.305-2.919 0-3.171-6.405-2.478-6.405-5.586 0-1.197 1.155-1.848 2.121-1.848 1.491 0 2.436 1.386 2.436 2.793h1.197V163h-.777c0 .399 0 .735-.021 1.029-.84-.861-2.163-1.239-3.381-1.239-1.848 0-4.011.882-4.011 3.192 0 3.234 6.405 2.835 6.405 5.565 0 1.092-1.113 1.596-1.911 1.596-1.491 0-3.318-.798-3.318-2.688h-1.176v3.045h.756c0-.357.021-.693.042-.987.903.924 2.457 1.197 3.738 1.197ZM362.481 173.5h5.124v-.777l-1.407-.063V163h-3.717v.777l1.344.063v8.82l-1.344.063v.777Zm1.134-13.167c0 .693.546 1.218 1.218 1.218.672 0 1.239-.525 1.239-1.218 0-.672-.567-1.239-1.239-1.239-.672 0-1.218.567-1.218 1.239ZM373.443 173.71c1.68 0 4.305-.441 4.305-2.919 0-3.171-6.405-2.478-6.405-5.586 0-1.197 1.155-1.848 2.121-1.848 1.491 0 2.436 1.386 2.436 2.793h1.197V163h-.777c0 .399 0 .735-.021 1.029-.84-.861-2.163-1.239-3.381-1.239-1.848 0-4.011.882-4.011 3.192 0 3.234 6.405 2.835 6.405 5.565 0 1.092-1.113 1.596-1.911 1.596-1.491 0-3.318-.798-3.318-2.688h-1.176v3.045h.756c0-.357.021-.693.042-.987.903.924 2.457 1.197 3.738 1.197ZM387.786 173.71a4.76 4.76 0 0 0 3.717-1.764v1.554h3.78v-.777l-1.386-.063v-14.28h-3.717v.777l1.323.063v5.376c-.84-1.05-2.121-1.806-3.717-1.806-3.15 0-4.242 3.003-4.242 5.46s1.092 5.46 4.242 5.46Zm-1.722-5.46c0-2.205.714-4.62 2.835-4.62 1.323 0 2.226 1.197 2.604 2.436v4.389c-.378 1.26-1.281 2.415-2.604 2.415-2.121 0-2.835-2.415-2.835-4.62ZM402.402 173.71c1.995 0 3.927-1.134 4.62-3.255h-2.226c-.21 1.596-1.071 2.688-2.394 2.688-1.953 0-3.003-2.289-3.003-4.893h7.98c0-3.381-2.268-5.46-4.977-5.46-3.045 0-5.523 2.058-5.523 5.46s2.478 5.46 5.523 5.46Zm-2.961-6.3c.189-2.247 1.218-4.053 2.961-4.053 1.743 0 2.499 1.806 2.646 4.053h-5.607ZM417.711 173.71c1.68 0 4.305-.441 4.305-2.919 0-3.171-6.405-2.478-6.405-5.586 0-1.197 1.155-1.848 2.121-1.848 1.491 0 2.436 1.386 2.436 2.793h1.197V163h-.777c0 .399 0 .735-.021 1.029-.84-.861-2.163-1.239-3.381-1.239-1.848 0-4.011.882-4.011 3.192 0 3.234 6.405 2.835 6.405 5.565 0 1.092-1.113 1.596-1.911 1.596-1.491 0-3.318-.798-3.318-2.688h-1.176v3.045h.756c0-.357.021-.693.042-.987.903.924 2.457 1.197 3.738 1.197ZM430.857 173.71c3.15 0 4.263-3.003 4.263-5.46s-1.113-5.46-4.263-5.46a4.71 4.71 0 0 0-3.654 1.701V163h-3.717v.777l1.344.063v13.86l-1.344.063v.777h5.124v-.777l-1.407-.063v-5.712c.84 1.008 2.1 1.722 3.654 1.722Zm-3.654-3.066v-4.767c.42-1.176 1.281-2.247 2.541-2.247 2.121 0 2.856 2.415 2.856 4.62s-.735 4.62-2.856 4.62c-1.26 0-2.121-1.05-2.541-2.226ZM440.412 173.71c2.058 0 2.583-1.827 2.583-3.255h-.924c0 1.176-.357 2.415-1.134 2.415-.882 0-1.071-1.113-1.071-2.52v-11.97h-3.717v.777l1.344.063v10.857c0 2.52 1.218 3.633 2.919 3.633ZM449.568 173.71c1.995 0 3.927-1.134 4.62-3.255h-2.226c-.21 1.596-1.071 2.688-2.394 2.688-1.953 0-3.003-2.289-3.003-4.893h7.98c0-3.381-2.268-5.46-4.977-5.46-3.045 0-5.523 2.058-5.523 5.46s2.478 5.46 5.523 5.46Zm-2.961-6.3c.189-2.247 1.218-4.053 2.961-4.053 1.743 0 2.499 1.806 2.646 4.053h-5.607ZM462.042 173.71c1.995 0 3.927-1.134 4.62-3.255h-2.226c-.21 1.596-1.071 2.688-2.394 2.688-1.953 0-3.003-2.289-3.003-4.893h7.98c0-3.381-2.268-5.46-4.977-5.46-3.045 0-5.523 2.058-5.523 5.46s2.478 5.46 5.523 5.46Zm-2.961-6.3c.189-2.247 1.218-4.053 2.961-4.053 1.743 0 2.499 1.806 2.646 4.053h-5.607ZM473.193 173.71c2.226 0 2.646-1.827 2.646-3.255h-.903c0 1.659-.567 2.415-1.218 2.415-.735 0-1.008-.819-1.008-2.52v-6.573h2.037V163h-2.037v-2.961h-2.373V163h-1.911v.777h1.911v6.3c0 2.688 1.26 3.633 2.856 3.633ZM480.522 173.5h5.124v-.777l-1.407-.063V163h-3.717v.777l1.344.063v8.82l-1.344.063v.777Zm1.134-13.167c0 .693.546 1.218 1.218 1.218.672 0 1.239-.525 1.239-1.218 0-.672-.567-1.239-1.239-1.239-.672 0-1.218.567-1.218 1.239ZM493.563 173.5h5.019v-.777l-1.407-.063v-4.977c0-3.444-1.533-4.893-3.717-4.893-1.176 0-2.289.861-3.087 1.764V163h-3.717v.777l1.344.063v8.82l-1.344.063v.777h5.019v-.777l-1.302-.063v-6.804c.504-1.134 1.491-2.226 2.436-2.226 1.785 0 1.995 2.184 1.995 3.78v5.25l-1.239.063v.777ZM508.158 173.71a4.76 4.76 0 0 0 3.717-1.764v1.554h3.78v-.777l-1.386-.063v-14.28h-3.717v.777l1.323.063v5.376c-.84-1.05-2.121-1.806-3.717-1.806-3.15 0-4.242 3.003-4.242 5.46s1.092 5.46 4.242 5.46Zm-1.722-5.46c0-2.205.714-4.62 2.835-4.62 1.323 0 2.226 1.197 2.604 2.436v4.389c-.378 1.26-1.281 2.415-2.604 2.415-2.121 0-2.835-2.415-2.835-4.62ZM522.774 173.71c1.995 0 3.927-1.134 4.62-3.255h-2.226c-.21 1.596-1.071 2.688-2.394 2.688-1.953 0-3.003-2.289-3.003-4.893h7.98c0-3.381-2.268-5.46-4.977-5.46-3.045 0-5.523 2.058-5.523 5.46s2.478 5.46 5.523 5.46Zm-2.961-6.3c.189-2.247 1.218-4.053 2.961-4.053 1.743 0 2.499 1.806 2.646 4.053h-5.607ZM536.991 173.71c2.058 0 2.583-1.827 2.583-3.255h-.924c0 1.176-.357 2.415-1.134 2.415-.882 0-1.071-1.113-1.071-2.52v-11.97h-3.717v.777l1.344.063v10.857c0 2.52 1.218 3.633 2.919 3.633ZM540.225 173.5h5.124v-.777l-1.407-.063V163h-3.717v.777l1.344.063v8.82l-1.344.063v.777Zm1.134-13.167c0 .693.546 1.218 1.218 1.218.672 0 1.239-.525 1.239-1.218 0-.672-.567-1.239-1.239-1.239-.672 0-1.218.567-1.218 1.239ZM553.728 173.71c3.15 0 4.263-3.003 4.263-5.46s-1.113-5.46-4.263-5.46a4.71 4.71 0 0 0-3.654 1.701V163h-3.717v.777l1.344.063v13.86l-1.344.063v.777h5.124v-.777l-1.407-.063v-5.712c.84 1.008 2.1 1.722 3.654 1.722Zm-3.654-3.066v-4.767c.42-1.176 1.281-2.247 2.541-2.247 2.121 0 2.856 2.415 2.856 4.62s-.735 4.62-2.856 4.62c-1.26 0-2.121-1.05-2.541-2.226ZM5.418 205.21c1.68 0 4.305-.441 4.305-2.919 0-3.171-6.405-2.478-6.405-5.586 0-1.197 1.155-1.848 2.121-1.848 1.491 0 2.436 1.386 2.436 2.793h1.197v-3.15h-.777c0 .399 0 .735-.021 1.029-.84-.861-2.163-1.239-3.381-1.239-1.848 0-4.011.882-4.011 3.192 0 3.234 6.405 2.835 6.405 5.565 0 1.092-1.113 1.596-1.911 1.596-1.491 0-3.318-.798-3.318-2.688H.882V205h.756c0-.357.021-.693.042-.987.903.924 2.457 1.197 3.738 1.197ZM24.906 205h5.019v-.777l-1.407-.063v-4.977c0-3.444-1.533-4.893-3.717-4.893-1.344 0-2.73 1.092-3.57 2.1-.609-1.449-1.764-2.1-3.234-2.1-1.176 0-2.289.861-3.087 1.764V194.5h-3.717v.777l1.344.063v8.82l-1.344.063V205h5.019v-.777l-1.302-.063v-6.804c.504-1.134 1.491-2.226 2.436-2.226 1.785 0 1.995 2.184 1.995 3.78v5.25l-1.239.063V205h4.914v-.777l-1.302-.063v-4.977a9.29 9.29 0 0 0-.21-2.016c.588-1.05 1.722-2.037 2.646-2.037 1.785 0 1.995 2.184 1.995 3.78v5.25l-1.239.063V205ZM35.574 205.21c1.701 0 3.066-.861 3.906-2.016.399 1.47 1.386 2.016 2.667 2.016 2.079 0 2.646-1.932 2.646-3.255h-.903c0 1.26-.357 2.415-1.176 2.415-.798 0-1.05-1.113-1.05-2.52v-7.35h-2.373v1.596c-.84-1.05-2.121-1.806-3.717-1.806-3.15 0-4.242 3.003-4.242 5.46s1.092 5.46 4.242 5.46Zm-1.722-5.46c0-2.205.714-4.62 2.835-4.62 1.323 0 2.226 1.197 2.604 2.436v4.347c-.378 1.281-1.26 2.457-2.604 2.457-2.121 0-2.835-2.415-2.835-4.62ZM49.182 205.21c2.058 0 2.583-1.827 2.583-3.255h-.924c0 1.176-.357 2.415-1.134 2.415-.882 0-1.071-1.113-1.071-2.52v-11.97h-3.717v.777l1.344.063v10.857c0 2.52 1.218 3.633 2.919 3.633ZM62.265 205.21c1.995 0 3.927-1.134 4.62-3.255h-2.226c-.21 1.596-1.071 2.688-2.394 2.688-1.953 0-3.003-2.289-3.003-4.893h7.98c0-3.381-2.268-5.46-4.977-5.46-3.045 0-5.523 2.058-5.523 5.46s2.478 5.46 5.523 5.46Zm-2.961-6.3c.189-2.247 1.218-4.053 2.961-4.053 1.743 0 2.499 1.806 2.646 4.053h-5.607ZM75.726 205h5.019v-.777l-1.407-.063v-4.977c0-3.444-1.533-4.893-3.717-4.893-1.176 0-2.289.861-3.087 1.764V194.5h-3.717v.777l1.344.063v8.82l-1.344.063V205h5.019v-.777l-1.302-.063v-6.804c.504-1.134 1.491-2.226 2.436-2.226 1.785 0 1.995 2.184 1.995 3.78v5.25l-1.239.063V205ZM90.321 205.21a4.76 4.76 0 0 0 3.717-1.764V205h3.78v-.777l-1.386-.063v-14.28h-3.717v.777l1.323.063v5.376c-.84-1.05-2.121-1.806-3.717-1.806-3.15 0-4.242 3.003-4.242 5.46s1.092 5.46 4.242 5.46Zm-1.722-5.46c0-2.205.714-4.62 2.835-4.62 1.323 0 2.226 1.197 2.604 2.436v4.389c-.378 1.26-1.281 2.415-2.604 2.415-2.121 0-2.835-2.415-2.835-4.62ZM104.937 205.21c1.995 0 3.927-1.134 4.62-3.255h-2.226c-.21 1.596-1.071 2.688-2.394 2.688-1.953 0-3.003-2.289-3.003-4.893h7.98c0-3.381-2.268-5.46-4.977-5.46-3.045 0-5.523 2.058-5.523 5.46s2.478 5.46 5.523 5.46Zm-2.961-6.3c.189-2.247 1.218-4.053 2.961-4.053 1.743 0 2.499 1.806 2.646 4.053h-5.607ZM115.416 205h5.124v-.777l-1.407-.063v-3.591l.294-.399 3.045 4.83h4.053v-.777l-1.911-.063-3.612-5.985 2.205-2.835 1.974-.063v-.777h-2.037l-4.011 5.166v-9.786h-3.717v.777l1.344.063v13.44l-1.344.063zM130.83 205.21c2.058 0 2.583-1.827 2.583-3.255h-.924c0 1.176-.357 2.415-1.134 2.415-.882 0-1.071-1.113-1.071-2.52v-11.97h-3.717v.777l1.344.063v10.857c0 2.52 1.218 3.633 2.919 3.633ZM138.705 205.21c1.701 0 3.066-.861 3.906-2.016.399 1.47 1.386 2.016 2.667 2.016 2.079 0 2.646-1.932 2.646-3.255h-.903c0 1.26-.357 2.415-1.176 2.415-.798 0-1.05-1.113-1.05-2.52v-7.35h-2.373v1.596c-.84-1.05-2.121-1.806-3.717-1.806-3.15 0-4.242 3.003-4.242 5.46s1.092 5.46 4.242 5.46Zm-1.722-5.46c0-2.205.714-4.62 2.835-4.62 1.323 0 2.226 1.197 2.604 2.436v4.347c-.378 1.281-1.26 2.457-2.604 2.457-2.121 0-2.835-2.415-2.835-4.62ZM153.216 205.21c1.176 0 2.289-.882 3.087-1.785V205h3.78v-.777l-1.407-.063v-9.66h-3.717v.777l1.344.063v6.804c-.504 1.113-1.491 2.226-2.457 2.226-1.785 0-1.974-2.184-1.974-3.78v-6.09h-3.717v.777l1.344.063v4.977c0 3.444 1.533 4.893 3.717 4.893ZM166.698 205h.693l2.604-7.476L173.25 205h.693l3.339-9.66 1.617-.063v-.777h-3.36v.777l1.05.063-2.268 6.531-3.066-7.371h-2.583l.924 2.121-1.827 5.271-3.066-7.392h-3.927v.777l1.701.063zM185.514 205.21c1.995 0 3.927-1.134 4.62-3.255h-2.226c-.21 1.596-1.071 2.688-2.394 2.688-1.953 0-3.003-2.289-3.003-4.893h7.98c0-3.381-2.268-5.46-4.977-5.46-3.045 0-5.523 2.058-5.523 5.46s2.478 5.46 5.523 5.46Zm-2.961-6.3c.189-2.247 1.218-4.053 2.961-4.053 1.743 0 2.499 1.806 2.646 4.053h-5.607ZM198.975 205h5.019v-.777l-1.407-.063v-4.977c0-3.444-1.533-4.893-3.717-4.893-1.176 0-2.289.861-3.087 1.764V194.5h-3.717v.777l1.344.063v8.82l-1.344.063V205h5.019v-.777l-1.302-.063v-6.804c.504-1.134 1.491-2.226 2.436-2.226 1.785 0 1.995 2.184 1.995 3.78v5.25l-1.239.063V205ZM216.132 205.21c3.15 0 4.263-3.003 4.263-5.46s-1.113-5.46-4.263-5.46c-1.554 0-2.814.714-3.654 1.722v-6.132h-3.717v.777l1.323.063v13.44l-1.323.063V205h3.717v-1.491a4.71 4.71 0 0 0 3.654 1.701Zm-3.654-3.066v-4.767c.42-1.176 1.281-2.247 2.541-2.247 2.121 0 2.856 2.415 2.856 4.62s-.735 4.62-2.856 4.62c-1.26 0-2.121-1.05-2.541-2.226ZM226.59 205.21c1.701 0 3.066-.861 3.906-2.016.399 1.47 1.386 2.016 2.667 2.016 2.079 0 2.646-1.932 2.646-3.255h-.903c0 1.26-.357 2.415-1.176 2.415-.798 0-1.05-1.113-1.05-2.52v-7.35h-2.373v1.596c-.84-1.05-2.121-1.806-3.717-1.806-3.15 0-4.242 3.003-4.242 5.46s1.092 5.46 4.242 5.46Zm-1.722-5.46c0-2.205.714-4.62 2.835-4.62 1.323 0 2.226 1.197 2.604 2.436v4.347c-.378 1.281-1.26 2.457-2.604 2.457-2.121 0-2.835-2.415-2.835-4.62ZM236.46 205h5.124v-.777l-1.407-.063v-6.279c.672-1.47 1.974-3.024 3.255-3.024.567 0 1.113.168 1.449.567-.861.063-1.722.966-1.722 1.806 0 .546.378.924.924.924.861 0 1.806-.861 1.806-1.764 0-1.26-1.05-2.1-2.289-2.1-1.617 0-2.856.987-3.423 1.638V194.5h-3.717v.777l1.344.063v8.82l-1.344.063V205ZM251.307 205.21c1.68 0 4.305-.441 4.305-2.919 0-3.171-6.405-2.478-6.405-5.586 0-1.197 1.155-1.848 2.121-1.848 1.491 0 2.436 1.386 2.436 2.793h1.197v-3.15h-.777c0 .399 0 .735-.021 1.029-.84-.861-2.163-1.239-3.381-1.239-1.848 0-4.011.882-4.011 3.192 0 3.234 6.405 2.835 6.405 5.565 0 1.092-1.113 1.596-1.911 1.596-1.491 0-3.318-.798-3.318-2.688h-1.176V205h.756c0-.357.021-.693.042-.987.903.924 2.457 1.197 3.738 1.197ZM261.681 205.21c2.226 0 2.646-1.827 2.646-3.255h-.903c0 1.659-.567 2.415-1.218 2.415-.735 0-1.008-.819-1.008-2.52v-6.573h2.037v-.777h-2.037v-2.961h-2.373v2.961h-1.911v.777h1.911v6.3c0 2.688 1.26 3.633 2.856 3.633ZM271.005 205.21c1.995 0 3.927-1.134 4.62-3.255h-2.226c-.21 1.596-1.071 2.688-2.394 2.688-1.953 0-3.003-2.289-3.003-4.893h7.98c0-3.381-2.268-5.46-4.977-5.46-3.045 0-5.523 2.058-5.523 5.46s2.478 5.46 5.523 5.46Zm-2.961-6.3c.189-2.247 1.218-4.053 2.961-4.053 1.743 0 2.499 1.806 2.646 4.053h-5.607ZM284.466 205h5.019v-.777l-1.407-.063v-4.977c0-3.444-1.533-4.893-3.717-4.893-1.176 0-2.289.861-3.087 1.764V194.5h-3.717v.777l1.344.063v8.82l-1.344.063V205h5.019v-.777l-1.302-.063v-6.804c.504-1.134 1.491-2.226 2.436-2.226 1.785 0 1.995 2.184 1.995 3.78v5.25l-1.239.063V205ZM300.678 210.25c2.898 0 5.25-1.491 5.25-4.137 0-2.142-1.638-3.549-3.696-3.549-1.995 0-3.612 2.079-4.515 2.079-.63 0-.882-.798-.882-1.449 0-.588.21-1.155.546-1.407a5.418 5.418 0 0 0 2.1.399c2.289 0 4.683-1.47 4.683-4.011 0-1.218-.504-2.142-1.26-2.772.273-1.029.924-1.806 1.743-1.806.336 0 .609.105.819.273-.84.105-1.659.987-1.659 1.806 0 .546.378.924.924.924.861 0 1.806-.861 1.806-1.764 0-1.029-.756-1.806-1.806-1.806-1.323 0-2.226.903-2.688 1.827-.777-.378-1.68-.567-2.562-.567-2.394 0-4.662 1.323-4.662 3.885 0 1.323.609 2.352 1.533 3.045-.819.441-1.26 1.218-1.26 1.974 0 1.155 1.134 2.016 2.31 2.016 1.743 0 2.709-1.722 3.948-1.722 1.344 0 2.058 1.218 2.058 2.625 0 1.68-.966 3.57-2.877 3.57-2.058 0-3.36-1.365-3.36-2.688h-2.1c0 2.1 2.814 3.255 5.607 3.255Zm-3.486-12.075c0-2.037.882-3.318 2.289-3.318 1.323 0 2.31 1.281 2.31 3.318s-.987 3.444-2.31 3.444c-1.407 0-2.289-1.407-2.289-3.444ZM313.236 205.21c1.995 0 3.927-1.134 4.62-3.255h-2.226c-.21 1.596-1.071 2.688-2.394 2.688-1.953 0-3.003-2.289-3.003-4.893h7.98c0-3.381-2.268-5.46-4.977-5.46-3.045 0-5.523 2.058-5.523 5.46s2.478 5.46 5.523 5.46Zm-2.961-6.3c.189-2.247 1.218-4.053 2.961-4.053 1.743 0 2.499 1.806 2.646 4.053h-5.607ZM333.501 205h5.019v-.777l-1.407-.063v-4.977c0-3.444-1.533-4.893-3.717-4.893-1.344 0-2.73 1.092-3.57 2.1-.609-1.449-1.764-2.1-3.234-2.1-1.176 0-2.289.861-3.087 1.764V194.5h-3.717v.777l1.344.063v8.82l-1.344.063V205h5.019v-.777l-1.302-.063v-6.804c.504-1.134 1.491-2.226 2.436-2.226 1.785 0 1.995 2.184 1.995 3.78v5.25l-1.239.063V205h4.914v-.777l-1.302-.063v-4.977a9.29 9.29 0 0 0-.21-2.016c.588-1.05 1.722-2.037 2.646-2.037 1.785 0 1.995 2.184 1.995 3.78v5.25l-1.239.063V205ZM344.169 205.21c1.701 0 3.066-.861 3.906-2.016.399 1.47 1.386 2.016 2.667 2.016 2.079 0 2.646-1.932 2.646-3.255h-.903c0 1.26-.357 2.415-1.176 2.415-.798 0-1.05-1.113-1.05-2.52v-7.35h-2.373v1.596c-.84-1.05-2.121-1.806-3.717-1.806-3.15 0-4.242 3.003-4.242 5.46s1.092 5.46 4.242 5.46Zm-1.722-5.46c0-2.205.714-4.62 2.835-4.62 1.323 0 2.226 1.197 2.604 2.436v4.347c-.378 1.281-1.26 2.457-2.604 2.457-2.121 0-2.835-2.415-2.835-4.62ZM354.039 205h5.124v-.777l-1.407-.063v-3.591l.294-.399 3.045 4.83h4.053v-.777l-1.911-.063-3.612-5.985 2.205-2.835 1.974-.063v-.777h-2.037l-4.011 5.166v-9.786h-3.717v.777l1.344.063v13.44l-1.344.063zM365.715 205h5.124v-.777l-1.407-.063v-3.591l.294-.399 3.045 4.83h4.053v-.777l-1.911-.063-3.612-5.985 2.205-2.835 1.974-.063v-.777h-2.037l-4.011 5.166v-9.786h-3.717v.777l1.344.063v13.44l-1.344.063zM383.313 205.21c1.995 0 3.927-1.134 4.62-3.255h-2.226c-.21 1.596-1.071 2.688-2.394 2.688-1.953 0-3.003-2.289-3.003-4.893h7.98c0-3.381-2.268-5.46-4.977-5.46-3.045 0-5.523 2.058-5.523 5.46s2.478 5.46 5.523 5.46Zm-2.961-6.3c.189-2.247 1.218-4.053 2.961-4.053 1.743 0 2.499 1.806 2.646 4.053h-5.607ZM393.603 205.21c2.058 0 2.583-1.827 2.583-3.255h-.924c0 1.176-.357 2.415-1.134 2.415-.882 0-1.071-1.113-1.071-2.52v-11.97h-3.717v.777l1.344.063v10.857c0 2.52 1.218 3.633 2.919 3.633ZM396.837 205h5.124v-.777l-1.407-.063v-9.66h-3.717v.777l1.344.063v8.82l-1.344.063V205Zm1.134-13.167c0 .693.546 1.218 1.218 1.218.672 0 1.239-.525 1.239-1.218 0-.672-.567-1.239-1.239-1.239-.672 0-1.218.567-1.218 1.239Zm3.906 15.162c0 1.176.399 3.255 2.562 3.255 1.575 0 2.94-.84 2.94-3.633V194.5h-3.717v.777l1.323.063v11.55c0 1.407-.189 2.52-1.092 2.52-.798 0-1.113-1.134-1.113-2.415h-.903Zm2.94-15.162c0 .693.546 1.218 1.218 1.218.672 0 1.239-.525 1.239-1.218 0-.672-.567-1.239-1.239-1.239-.672 0-1.218.567-1.218 1.239ZM409.374 205h5.124v-.777l-1.407-.063v-3.591l.294-.399 3.045 4.83h4.053v-.777l-1.911-.063-3.612-5.985 2.205-2.835 1.974-.063v-.777h-2.037l-4.011 5.166v-9.786h-3.717v.777l1.344.063v13.44l-1.344.063zM429.618 205.21c1.701 0 3.066-.861 3.906-2.016.399 1.47 1.386 2.016 2.667 2.016 2.079 0 2.646-1.932 2.646-3.255h-.903c0 1.26-.357 2.415-1.176 2.415-.798 0-1.05-1.113-1.05-2.52v-7.35h-2.373v1.596c-.84-1.05-2.121-1.806-3.717-1.806-3.15 0-4.242 3.003-4.242 5.46s1.092 5.46 4.242 5.46Zm-1.722-5.46c0-2.205.714-4.62 2.835-4.62 1.323 0 2.226 1.197 2.604 2.436v4.347c-.378 1.281-1.26 2.457-2.604 2.457-2.121 0-2.835-2.415-2.835-4.62ZM443.226 205.21c2.058 0 2.583-1.827 2.583-3.255h-.924c0 1.176-.357 2.415-1.134 2.415-.882 0-1.071-1.113-1.071-2.52v-11.97h-3.717v.777l1.344.063v10.857c0 2.52 1.218 3.633 2.919 3.633ZM451.29 205.21c1.68 0 4.305-.441 4.305-2.919 0-3.171-6.405-2.478-6.405-5.586 0-1.197 1.155-1.848 2.121-1.848 1.491 0 2.436 1.386 2.436 2.793h1.197v-3.15h-.777c0 .399 0 .735-.021 1.029-.84-.861-2.163-1.239-3.381-1.239-1.848 0-4.011.882-4.011 3.192 0 3.234 6.405 2.835 6.405 5.565 0 1.092-1.113 1.596-1.911 1.596-1.491 0-3.318-.798-3.318-2.688h-1.176V205h.756c0-.357.021-.693.042-.987.903.924 2.457 1.197 3.738 1.197ZM461.286 205h8.799v-2.037h-.777l-.063 1.344h-4.977l5.691-9.807h-8.673v2.037h.756l.084-1.344h4.851zM477.477 205.21c1.995 0 3.927-1.134 4.62-3.255h-2.226c-.21 1.596-1.071 2.688-2.394 2.688-1.953 0-3.003-2.289-3.003-4.893h7.98c0-3.381-2.268-5.46-4.977-5.46-3.045 0-5.523 2.058-5.523 5.46s2.478 5.46 5.523 5.46Zm-2.961-6.3c.189-2.247 1.218-4.053 2.961-4.053 1.743 0 2.499 1.806 2.646 4.053h-5.607ZM.882 236.5h8.799v-2.037h-.777l-.063 1.344H3.864L9.555 226H.882v2.037h.756l.084-1.344h4.851zM11.151 236.5h5.124v-.777l-1.407-.063V226h-3.717v.777l1.344.063v8.82l-1.344.063v.777Zm1.134-13.167c0 .693.546 1.218 1.218 1.218.672 0 1.239-.525 1.239-1.218 0-.672-.567-1.239-1.239-1.239-.672 0-1.218.567-1.218 1.239Zm3.906 15.162c0 1.176.399 3.255 2.562 3.255 1.575 0 2.94-.84 2.94-3.633V226h-3.717v.777l1.323.063v11.55c0 1.407-.189 2.52-1.092 2.52-.798 0-1.113-1.134-1.113-2.415h-.903Zm2.94-15.162c0 .693.546 1.218 1.218 1.218.672 0 1.239-.525 1.239-1.218 0-.672-.567-1.239-1.239-1.239-.672 0-1.218.567-1.218 1.239ZM29.127 236.5h.693l2.604-7.476 3.255 7.476h.693l3.339-9.66 1.617-.063V226h-3.36v.777l1.05.063-2.268 6.531L33.684 226h-2.583l.924 2.121-1.827 5.271L27.132 226h-3.927v.777l1.701.063zM46.662 236.71c1.701 0 3.066-.861 3.906-2.016.399 1.47 1.386 2.016 2.667 2.016 2.079 0 2.646-1.932 2.646-3.255h-.903c0 1.26-.357 2.415-1.176 2.415-.798 0-1.05-1.113-1.05-2.52V226h-2.373v1.596c-.84-1.05-2.121-1.806-3.717-1.806-3.15 0-4.242 3.003-4.242 5.46s1.092 5.46 4.242 5.46Zm-1.722-5.46c0-2.205.714-4.62 2.835-4.62 1.323 0 2.226 1.197 2.604 2.436v4.347c-.378 1.281-1.26 2.457-2.604 2.457-2.121 0-2.835-2.415-2.835-4.62ZM61.173 236.71c1.701 0 3.066-.861 3.906-2.016.399 1.47 1.386 2.016 2.667 2.016 2.079 0 2.646-1.932 2.646-3.255h-.903c0 1.26-.357 2.415-1.176 2.415-.798 0-1.05-1.113-1.05-2.52V226H64.89v1.596c-.84-1.05-2.121-1.806-3.717-1.806-3.15 0-4.242 3.003-4.242 5.46s1.092 5.46 4.242 5.46Zm-1.722-5.46c0-2.205.714-4.62 2.835-4.62 1.323 0 2.226 1.197 2.604 2.436v4.347c-.378 1.281-1.26 2.457-2.604 2.457-2.121 0-2.835-2.415-2.835-4.62ZM71.043 236.5h5.124v-.777l-1.407-.063v-6.279c.672-1.47 1.974-3.024 3.255-3.024.567 0 1.113.168 1.449.567-.861.063-1.722.966-1.722 1.806 0 .546.378.924.924.924.861 0 1.806-.861 1.806-1.764 0-1.26-1.05-2.1-2.289-2.1-1.617 0-2.856.987-3.423 1.638V226h-3.717v.777l1.344.063v8.82l-1.344.063v.777ZM85.659 236.71c2.226 0 2.646-1.827 2.646-3.255h-.903c0 1.659-.567 2.415-1.218 2.415-.735 0-1.008-.819-1.008-2.52v-6.573h2.037V226h-2.037v-2.961h-2.373V226h-1.911v.777h1.911v6.3c0 2.688 1.26 3.633 2.856 3.633ZM93.891 236.71c1.68 0 4.305-.441 4.305-2.919 0-3.171-6.405-2.478-6.405-5.586 0-1.197 1.155-1.848 2.121-1.848 1.491 0 2.436 1.386 2.436 2.793h1.197V226h-.777c0 .399 0 .735-.021 1.029-.84-.861-2.163-1.239-3.381-1.239-1.848 0-4.011.882-4.011 3.192 0 3.234 6.405 2.835 6.405 5.565 0 1.092-1.113 1.596-1.911 1.596-1.491 0-3.318-.798-3.318-2.688h-1.176v3.045h.756c0-.357.021-.693.042-.987.903.924 2.457 1.197 3.738 1.197ZM109.032 236.5h.693l2.604-7.476 3.255 7.476h.693l3.339-9.66 1.617-.063V226h-3.36v.777l1.05.063-2.268 6.531-3.066-7.371h-2.583l.924 2.121-1.827 5.271-3.066-7.392h-3.927v.777l1.701.063zM127.89 236.71c3.15 0 5.565-2.247 5.565-5.46s-2.415-5.46-5.565-5.46c-3.15 0-5.565 2.247-5.565 5.46s2.415 5.46 5.565 5.46Zm-3.045-5.46c0-2.625.798-4.893 3.045-4.893s3.045 2.268 3.045 4.893-.798 4.893-3.045 4.893-3.045-2.268-3.045-4.893ZM135.03 236.5h5.124v-.777l-1.407-.063v-6.279c.672-1.47 1.974-3.024 3.255-3.024.567 0 1.113.168 1.449.567-.861.063-1.722.966-1.722 1.806 0 .546.378.924.924.924.861 0 1.806-.861 1.806-1.764 0-1.26-1.05-2.1-2.289-2.1-1.617 0-2.856.987-3.423 1.638V226h-3.717v.777l1.344.063v8.82l-1.344.063v.777ZM149.688 236.71a4.76 4.76 0 0 0 3.717-1.764v1.554h3.78v-.777l-1.386-.063v-14.28h-3.717v.777l1.323.063v5.376c-.84-1.05-2.121-1.806-3.717-1.806-3.15 0-4.242 3.003-4.242 5.46s1.092 5.46 4.242 5.46Zm-1.722-5.46c0-2.205.714-4.62 2.835-4.62 1.323 0 2.226 1.197 2.604 2.436v4.389c-.378 1.26-1.281 2.415-2.604 2.415-2.121 0-2.835-2.415-2.835-4.62ZM164.304 236.71c1.995 0 3.927-1.134 4.62-3.255h-2.226c-.21 1.596-1.071 2.688-2.394 2.688-1.953 0-3.003-2.289-3.003-4.893h7.98c0-3.381-2.268-5.46-4.977-5.46-3.045 0-5.523 2.058-5.523 5.46s2.478 5.46 5.523 5.46Zm-2.961-6.3c.189-2.247 1.218-4.053 2.961-4.053 1.743 0 2.499 1.806 2.646 4.053h-5.607ZM177.765 236.5h5.019v-.777l-1.407-.063v-4.977c0-3.444-1.533-4.893-3.717-4.893-1.176 0-2.289.861-3.087 1.764V226h-3.717v.777l1.344.063v8.82l-1.344.063v.777h5.019v-.777l-1.302-.063v-6.804c.504-1.134 1.491-2.226 2.436-2.226 1.785 0 1.995 2.184 1.995 3.78v5.25l-1.239.063v.777ZM193.977 241.75c2.898 0 5.25-1.491 5.25-4.137 0-2.142-1.638-3.549-3.696-3.549-1.995 0-3.612 2.079-4.515 2.079-.63 0-.882-.798-.882-1.449 0-.588.21-1.155.546-1.407a5.418 5.418 0 0 0 2.1.399c2.289 0 4.683-1.47 4.683-4.011 0-1.218-.504-2.142-1.26-2.772.273-1.029.924-1.806 1.743-1.806.336 0 .609.105.819.273-.84.105-1.659.987-1.659 1.806 0 .546.378.924.924.924.861 0 1.806-.861 1.806-1.764 0-1.029-.756-1.806-1.806-1.806-1.323 0-2.226.903-2.688 1.827-.777-.378-1.68-.567-2.562-.567-2.394 0-4.662 1.323-4.662 3.885 0 1.323.609 2.352 1.533 3.045-.819.441-1.26 1.218-1.26 1.974 0 1.155 1.134 2.016 2.31 2.016 1.743 0 2.709-1.722 3.948-1.722 1.344 0 2.058 1.218 2.058 2.625 0 1.68-.966 3.57-2.877 3.57-2.058 0-3.36-1.365-3.36-2.688h-2.1c0 2.1 2.814 3.255 5.607 3.255Zm-3.486-12.075c0-2.037.882-3.318 2.289-3.318 1.323 0 2.31 1.281 2.31 3.318s-.987 3.444-2.31 3.444c-1.407 0-2.289-1.407-2.289-3.444ZM206.535 236.71c1.995 0 3.927-1.134 4.62-3.255h-2.226c-.21 1.596-1.071 2.688-2.394 2.688-1.953 0-3.003-2.289-3.003-4.893h7.98c0-3.381-2.268-5.46-4.977-5.46-3.045 0-5.523 2.058-5.523 5.46s2.478 5.46 5.523 5.46Zm-2.961-6.3c.189-2.247 1.218-4.053 2.961-4.053 1.743 0 2.499 1.806 2.646 4.053h-5.607ZM217.728 236.71a4.76 4.76 0 0 0 3.717-1.764v1.554h3.78v-.777l-1.386-.063v-14.28h-3.717v.777l1.323.063v5.376c-.84-1.05-2.121-1.806-3.717-1.806-3.15 0-4.242 3.003-4.242 5.46s1.092 5.46 4.242 5.46Zm-1.722-5.46c0-2.205.714-4.62 2.835-4.62 1.323 0 2.226 1.197 2.604 2.436v4.389c-.378 1.26-1.281 2.415-2.604 2.415-2.121 0-2.835-2.415-2.835-4.62ZM226.422 236.5h5.124v-.777l-1.407-.063v-6.279c.672-1.47 1.974-3.024 3.255-3.024.567 0 1.113.168 1.449.567-.861.063-1.722.966-1.722 1.806 0 .546.378.924.924.924.861 0 1.806-.861 1.806-1.764 0-1.26-1.05-2.1-2.289-2.1-1.617 0-2.856.987-3.423 1.638V226h-3.717v.777l1.344.063v8.82l-1.344.063v.777ZM241.08 236.71c1.701 0 3.066-.861 3.906-2.016.399 1.47 1.386 2.016 2.667 2.016 2.079 0 2.646-1.932 2.646-3.255h-.903c0 1.26-.357 2.415-1.176 2.415-.798 0-1.05-1.113-1.05-2.52V226h-2.373v1.596c-.84-1.05-2.121-1.806-3.717-1.806-3.15 0-4.242 3.003-4.242 5.46s1.092 5.46 4.242 5.46Zm-1.722-5.46c0-2.205.714-4.62 2.835-4.62 1.323 0 2.226 1.197 2.604 2.436v4.347c-.378 1.281-1.26 2.457-2.604 2.457-2.121 0-2.835-2.415-2.835-4.62ZM255.591 236.71c1.701 0 3.066-.861 3.906-2.016.399 1.47 1.386 2.016 2.667 2.016 2.079 0 2.646-1.932 2.646-3.255h-.903c0 1.26-.357 2.415-1.176 2.415-.798 0-1.05-1.113-1.05-2.52V226h-2.373v1.596c-.84-1.05-2.121-1.806-3.717-1.806-3.15 0-4.242 3.003-4.242 5.46s1.092 5.46 4.242 5.46Zm-1.722-5.46c0-2.205.714-4.62 2.835-4.62 1.323 0 2.226 1.197 2.604 2.436v4.347c-.378 1.281-1.26 2.457-2.604 2.457-2.121 0-2.835-2.415-2.835-4.62ZM265.461 236.5h5.124v-.777l-1.407-.063V226h-3.717v.777l1.344.063v8.82l-1.344.063v.777Zm1.134-13.167c0 .693.546 1.218 1.218 1.218.672 0 1.239-.525 1.239-1.218 0-.672-.567-1.239-1.239-1.239-.672 0-1.218.567-1.218 1.239ZM276.234 236.71a4.76 4.76 0 0 0 3.717-1.764v1.554h3.78v-.777l-1.386-.063v-14.28h-3.717v.777l1.323.063v5.376c-.84-1.05-2.121-1.806-3.717-1.806-3.15 0-4.242 3.003-4.242 5.46s1.092 5.46 4.242 5.46Zm-1.722-5.46c0-2.205.714-4.62 2.835-4.62 1.323 0 2.226 1.197 2.604 2.436v4.389c-.378 1.26-1.281 2.415-2.604 2.415-2.121 0-2.835-2.415-2.835-4.62ZM286.293 236.71c.777 0 1.407-.63 1.407-1.407a1.39 1.39 0 0 0-1.407-1.386c-.756 0-1.386.609-1.386 1.386a1.39 1.39 0 0 0 1.386 1.407Z"/></g></svg>