<svg xmlns="http://www.w3.org/2000/svg" width="388" height="288"><path fill="#E7E6DF" fill-rule="nonzero" d="M109.584 287.22c47.189 0 80.221-29.785 99.621-61.167 15.73 46.807 51.909 61.168 85.465 61.168 66.065 0 93.33-47.338 93.33-87.762h-20.973c0 28.19-7.865 50.53-30.41 50.53-22.547 0-30.412-29.786-30.412-79.784V10.638H201.341v38.828C181.416 22.87 151.005 0 109.584 0 28.314 0 0 79.252 0 143.61c0 64.36 28.314 143.61 109.584 143.61Zm.227-143.61c0-71.547 20.204-106.787 49.446-106.787 17.014 0 32.964 18.688 43.066 40.58v92.904c0 12.815 1.063 24.561 2.658 34.706-10.102 23.493-27.115 45.385-45.724 45.385-29.242 0-49.446-35.774-49.446-106.788Z" opacity=".5" style="mix-blend-mode:multiply"/></svg>