<svg xmlns="http://www.w3.org/2000/svg" width="539" height="104"><g fill="#424345" fill-rule="nonzero"><path d="M22.328 40.808c1.488 0 4.32-.768 4.32-2.4 0-1.536-1.008-2.304-2.448-2.304-2.352 0-3.696 1.824-6.048 1.824-1.44 0-2.736-1.296-3.552-2.544 10.8-.144 18.288-10.608 18.288-20.688 0-6.912-3.84-12.72-11.952-12.72-10.992 0-18.624 10.752-18.624 20.592 0 6.432 3.36 11.856 10.176 12.72.576.96 1.104 1.584 1.968 2.448 2.16 2.064 4.32 3.072 7.872 3.072ZM6.872 23.768c0-7.296 4.176-20.544 13.68-20.544 5.904 0 7.872 5.04 7.872 10.176 0 7.104-3.888 20.736-13.68 20.736-5.904 0-7.872-5.136-7.872-10.368ZM43.208 35.384c2.928 0 5.664-2.16 7.776-4.416 0 1.968.72 4.416 4.032 4.416 1.872 0 3.168-1.248 4.656-2.688l.192-1.296c-1.248 1.344-2.352 2.4-3.408 2.4-.672 0-1.248-.528-1.248-2.064 0-1.824 3.36-18.192 3.936-21.12l-4.56.864c-.48 2.112-2.88 13.728-3.456 18.096-1.824 2.208-4.272 4.224-6.672 4.224-2.112 0-2.976-1.728-2.976-3.84 0-1.584 1.92-10.08 3.168-16.176.336-1.68-.096-2.736-1.296-3.024-1.584-.336-3.216.192-6.432 1.728l-.288 1.2c.72-.432 2.448-1.248 3.12-1.104.528.096.576.816.432 1.488l-.144.576c-1.44 6.048-2.976 13.44-2.976 15.312 0 3.312 2.016 5.424 6.144 5.424ZM71.288 35.384c3.264 0 6.624-1.728 8.976-4.32.048 1.968.768 4.32 4.032 4.32 1.872 0 3.168-1.248 4.656-2.688l.192-1.296c-1.248 1.344-2.352 2.4-3.408 2.4-.672 0-1.248-.528-1.248-2.064 0-1.824 3.36-18.192 3.936-21.12l-4.56.864-.816 3.792c-1.248-2.784-3.504-4.656-6.912-4.656-7.824 0-12.432 8.544-12.432 15.888 0 4.56 1.92 8.88 7.584 8.88Zm-2.88-8.88c0-4.8 2.592-14.304 9.36-14.304 3.504 0 4.272 3.984 4.416 7.248-.528 2.784-1.104 5.712-1.488 7.968C79.4 30.632 76.76 33.8 73.784 33.8c-4.08 0-5.376-3.792-5.376-7.296ZM111.608 35.384c1.872 0 3.12-1.2 4.656-2.688l.288-1.296c-1.248 1.248-2.448 2.4-3.504 2.4-.672 0-1.2-.528-1.2-2.064 0-2.64 3.024-13.296 3.024-15.936 0-3.552-2.352-5.184-5.76-5.184-2.592 0-5.616 1.872-7.824 3.984l.144-.816c.336-1.728-.096-2.784-1.248-3.024-1.632-.288-3.216.288-6.432 1.872l-.24 1.248c.72-.48 2.4-1.344 3.072-1.2.528.096.576.816.48 1.488l-.144.576L92.888 35h4.416L101 16.088c1.872-2.064 4.416-3.888 6.528-3.888 2.448 0 2.976 1.104 2.976 3.6 0 4.032-3.024 11.232-3.024 15.504 0 2.016.816 4.08 4.128 4.08ZM127.64 35.384c4.704 0 6.096-4.464 6.672-7.344H132.2c-.576 2.928-2.016 5.76-3.504 5.76-1.296 0-1.776-1.536-1.776-3.072 0-1.68 1.488-9.264 2.88-16.224h4.896l.432-1.92h-4.896c.672-3.408 1.344-6.48 1.776-8.4h-4.416a455.422 455.422 0 0 0-1.776 8.4h-4.32l-.432 1.92h4.368C124.04 21.32 122.6 28.76 122.6 30.536c0 3.456 1.824 4.848 5.04 4.848ZM142.616 35.384c1.872 0 3.312-1.248 4.848-2.688l.192-1.296c-1.104 1.248-2.448 2.4-3.6 2.4-.672 0-1.248-.528-1.248-2.064 0-1.488 2.208-12.432 3.36-17.952.336-1.728-.096-2.784-1.296-3.024-1.584-.336-3.216.192-6.432 1.824l-.24 1.2c.72-.432 2.448-1.296 3.12-1.152.528.096.576.816.432 1.488l-.144.576c-1.488 6.288-3.024 14.496-3.024 16.224 0 2.016.72 4.464 4.032 4.464Zm.288-29.856c0 1.2.864 2.112 2.16 2.112 1.584 0 3.12-1.392 3.12-3.072 0-1.2-.912-2.112-2.16-2.112-1.584 0-3.12 1.44-3.12 3.072ZM158.792 35.384c4.704 0 6.096-4.464 6.672-7.344h-2.112c-.576 2.928-2.016 5.76-3.504 5.76-1.296 0-1.776-1.536-1.776-3.072 0-1.68 1.488-9.264 2.88-16.224h4.896l.432-1.92h-4.896c.672-3.408 1.344-6.48 1.776-8.4h-4.416a455.422 455.422 0 0 0-1.776 8.4h-4.32l-.432 1.92h4.368c-1.392 6.816-2.832 14.256-2.832 16.032 0 3.456 1.824 4.848 5.04 4.848ZM173.768 35.384c1.872 0 3.312-1.248 4.848-2.688l.192-1.296c-1.104 1.248-2.448 2.4-3.6 2.4-.672 0-1.248-.528-1.248-2.064 0-1.488 2.208-12.432 3.36-17.952.336-1.728-.096-2.784-1.296-3.024-1.584-.336-3.216.192-6.432 1.824l-.24 1.2c.72-.432 2.448-1.296 3.12-1.152.528.096.576.816.432 1.488l-.144.576c-1.488 6.288-3.024 14.496-3.024 16.224 0 2.016.72 4.464 4.032 4.464Zm.288-29.856c0 1.2.864 2.112 2.16 2.112 1.584 0 3.12-1.392 3.12-3.072 0-1.2-.912-2.112-2.16-2.112-1.584 0-3.12 1.44-3.12 3.072ZM191.912 35.384c3.888 0 8.88-2.4 11.328-7.104h-4.416c-1.68 2.976-4.08 5.856-6.816 5.856-2.784 0-4.608-2.64-4.848-5.952 7.344-.24 16.992-2.688 16.992-9.792 0-3.888-2.352-7.776-7.392-7.776-8.64 0-14.448 7.344-14.448 15.216 0 5.76 3.696 9.552 9.6 9.552Zm-4.8-8.496c.288-5.568 3.36-15.024 9.12-15.024 2.784 0 3.792 2.496 3.792 4.752 0 6.384-5.664 9.888-12.912 10.272ZM215.624 35.384c5.28 0 10.56-2.448 10.56-7.488 0-5.664-12.144-4.272-12.144-10.848 0-2.928 3.264-5.184 6.096-5.184 2.496 0 4.032.624 4.8 1.584-1.872.336-4.032 2.496-4.032 4.224 0 .864.624 1.488 1.632 1.488 1.824 0 4.512-1.824 4.512-3.744 0-3.456-3.792-4.8-7.056-4.8-4.656 0-10.656 3.312-10.656 8.112 0 6.192 12.144 5.04 12.144 10.848 0 2.544-2.688 4.56-5.04 4.56-2.592 0-6.624-1.488-6.624-6.336h-2.496l-1.44 7.2h1.872c.24-1.104.432-2.112.672-2.88 1.632 2.544 4.704 3.264 7.2 3.264ZM227.816 38.216l-.144.672c4.608 0 7.776-4.848 7.776-6.912 0-1.248-.96-2.208-2.304-2.208-2.16 0-3.456 1.92-3.456 3.696 0 1.152.48 1.728.48 2.64 0 1.488-1.008 2.112-2.352 2.112ZM262.472 35.384c8.112 0 13.344-8.544 13.344-15.888 0-4.56-2.208-8.88-7.872-8.88-2.928 0-5.808 1.392-8.016 3.6l2.112-10.992c.336-1.728-.096-2.784-1.296-3.024-1.584-.288-3.216.288-6.384 1.92l-.24 1.248c.72-.48 2.4-1.392 3.072-1.248.528.096.576.864.48 1.488l-.144.624L253.4 25.16a10.363 10.363 0 0 0-.144 1.68c0 5.088 3.84 8.544 9.216 8.544Zm-4.944-8.544v-.384l1.632-8.304c1.536-3.072 4.512-5.952 7.344-5.952 4.08 0 4.608 3.744 4.608 7.296 0 4.8-1.968 14.64-8.736 14.64-3.6 0-4.848-3.168-4.848-7.296ZM288.152 35.384c7.872 0 14.016-7.44 14.016-15.264 0-5.856-4.08-9.504-9.264-9.504-7.632 0-14.064 7.104-14.064 15.216 0 5.904 4.128 9.552 9.312 9.552Zm-4.656-9.312c0-6.144 4.272-14.208 9.312-14.208 3.216 0 4.704 4.128 4.704 8.064 0 6.288-4.128 14.208-9.072 14.208-3.168 0-4.944-4.128-4.944-8.064ZM312.92 35.384c4.704 0 6.096-4.464 6.672-7.344h-2.112c-.576 2.928-2.016 5.76-3.504 5.76-1.296 0-1.776-1.536-1.776-3.072 0-1.68 1.488-9.264 2.88-16.224h4.896l.432-1.92h-4.896c.672-3.408 1.344-6.48 1.776-8.4h-4.416a455.422 455.422 0 0 0-1.776 8.4h-4.32l-.432 1.92h4.368c-1.392 6.816-2.832 14.256-2.832 16.032 0 3.456 1.824 4.848 5.04 4.848ZM322.856 35h4.368l.672-3.408c1.248-6.576 5.088-19.392 10.128-19.392 1.488 0 2.4 1.056 2.4 3.024 0 3.168-3.024 12.624-3.024 16.08 0 2.016.816 4.08 4.128 4.08 1.872 0 3.12-1.2 4.656-2.688l.288-1.296c-1.248 1.248-2.448 2.4-3.504 2.4-.672 0-1.2-.528-1.2-2.064 0-2.64 3.024-13.296 3.024-15.936 0-3.024-1.968-5.184-5.424-5.184-4.128 0-7.296 5.088-9.312 9.888l3.36-17.28C333.752 1.496 333.32.44 332.12.2c-1.584-.288-3.216.288-6.384 1.92l-.24 1.2c.72-.432 2.4-1.344 3.072-1.2.528.096.576.816.48 1.488l-.144.624L322.856 35ZM364.664 35.384c1.872 0 3.12-1.2 4.656-2.688l.24-1.296c-1.248 1.344-2.4 2.4-3.456 2.4-.672 0-1.248-.528-1.248-2.064s3.888-20.928 5.472-28.512c.336-1.728-.096-2.784-1.248-3.024-1.632-.336-3.216.24-6.432 1.824l-.288 1.248c.72-.48 2.448-1.344 3.12-1.2.528.096.576.816.432 1.488l-.144.576c-2.016 9.024-5.088 24.96-5.088 26.784 0 2.016.672 4.464 3.984 4.464ZM378.344 35.384c1.872 0 3.312-1.248 4.848-2.688l.192-1.296c-1.104 1.248-2.448 2.4-3.6 2.4-.672 0-1.248-.528-1.248-2.064 0-1.488 2.208-12.432 3.36-17.952.336-1.728-.096-2.784-1.296-3.024-1.584-.336-3.216.192-6.432 1.824l-.24 1.2c.72-.432 2.448-1.296 3.12-1.152.528.096.576.816.432 1.488l-.144.576c-1.488 6.288-3.024 14.496-3.024 16.224 0 2.016.72 4.464 4.032 4.464Zm.288-29.856c0 1.2.864 2.112 2.16 2.112 1.584 0 3.12-1.392 3.12-3.072 0-1.2-.912-2.112-2.16-2.112-1.584 0-3.12 1.44-3.12 3.072ZM394.376 35.384c3.216 0 6.384-1.536 8.688-3.936l-2.256 12.288c-.336 1.728.144 2.784 1.296 3.024 1.632.288 3.216-.288 6.432-1.92l.24-1.248c-.72.48-2.4 1.344-3.12 1.2-.528-.096-.576-.816-.432-1.44l.096-.624 6.192-32.112-4.752.96-.624 3.456c-1.344-2.64-3.696-4.416-6.912-4.416-7.824 0-12.432 8.544-12.432 15.888 0 4.56 1.92 8.88 7.584 8.88Zm-2.928-8.88c0-4.8 2.64-14.304 9.408-14.304 3.36 0 4.272 3.744 4.512 6.96l-1.584 8.496c-1.392 3.168-4.032 6.144-7.152 6.144-4.08 0-5.184-3.792-5.184-7.296ZM422.12 35.384c2.928 0 5.664-2.16 7.776-4.416 0 1.968.72 4.416 4.032 4.416 1.872 0 3.168-1.248 4.656-2.688l.192-1.296c-1.248 1.344-2.352 2.4-3.408 2.4-.672 0-1.248-.528-1.248-2.064 0-1.824 3.36-18.192 3.936-21.12l-4.56.864c-.48 2.112-2.88 13.728-3.456 18.096-1.824 2.208-4.272 4.224-6.672 4.224-2.112 0-2.976-1.728-2.976-3.84 0-1.584 1.92-10.08 3.168-16.176.336-1.68-.096-2.736-1.296-3.024-1.584-.336-3.216.192-6.432 1.728l-.288 1.2c.72-.432 2.448-1.248 3.12-1.104.528.096.576.816.432 1.488l-.144.576c-1.44 6.048-2.976 13.44-2.976 15.312 0 3.312 2.016 5.424 6.144 5.424ZM448.04 35.384c1.872 0 3.312-1.248 4.848-2.688l.192-1.296c-1.104 1.248-2.448 2.4-3.6 2.4-.672 0-1.248-.528-1.248-2.064 0-1.488 2.208-12.432 3.36-17.952.336-1.728-.096-2.784-1.296-3.024-1.584-.336-3.216.192-6.432 1.824l-.24 1.2c.72-.432 2.448-1.296 3.12-1.152.528.096.576.816.432 1.488l-.144.576c-1.488 6.288-3.024 14.496-3.024 16.224 0 2.016.72 4.464 4.032 4.464Zm.288-29.856c0 1.2.864 2.112 2.16 2.112 1.584 0 3.12-1.392 3.12-3.072 0-1.2-.912-2.112-2.16-2.112-1.584 0-3.12 1.44-3.12 3.072ZM464.072 35.384c3.264 0 6.624-1.728 8.976-4.32.048 1.968.72 4.32 3.984 4.32 1.872 0 3.216-1.248 4.656-2.688l.24-1.296c-1.248 1.344-2.4 2.4-3.456 2.4-.672 0-1.248-.528-1.248-2.064s3.936-20.928 5.472-28.512c.384-1.728-.048-2.784-1.248-3.024-1.584-.336-3.216.24-6.432 1.824l-.24 1.248c.72-.48 2.448-1.344 3.12-1.2.528.096.576.864.432 1.488l-.144.624c-.72 3.168-1.536 7.152-2.352 11.088-1.2-2.784-3.504-4.656-6.912-4.656-7.824 0-12.432 8.544-12.432 15.888 0 4.56 1.92 8.88 7.584 8.88Zm-2.88-8.88c0-4.8 2.592-14.304 9.36-14.304 3.552 0 4.32 4.128 4.416 7.392-.528 2.928-1.056 5.568-1.392 7.632-1.296 3.312-4.032 6.576-7.104 6.576-4.08 0-5.28-3.792-5.28-7.296ZM8.072 92.384c3.264 0 6.624-1.728 8.976-4.32.048 1.968.768 4.32 4.032 4.32 1.872 0 3.168-1.248 4.656-2.688l.192-1.296c-1.248 1.344-2.352 2.4-3.408 2.4-.672 0-1.248-.528-1.248-2.064 0-1.824 3.36-18.192 3.936-21.12l-4.56.864-.816 3.792c-1.248-2.784-3.504-4.656-6.912-4.656C5.096 67.616.488 76.16.488 83.504c0 4.56 1.92 8.88 7.584 8.88Zm-2.88-8.88c0-4.8 2.592-14.304 9.36-14.304 3.504 0 4.272 3.984 4.416 7.248-.528 2.784-1.104 5.712-1.488 7.968-1.296 3.216-3.936 6.384-6.912 6.384-4.08 0-5.376-3.792-5.376-7.296ZM48.392 92.384c1.872 0 3.12-1.2 4.656-2.688l.288-1.296c-1.248 1.248-2.448 2.4-3.504 2.4-.672 0-1.2-.528-1.2-2.064 0-2.64 3.024-13.296 3.024-15.936 0-3.552-2.352-5.184-5.76-5.184-2.592 0-5.616 1.872-7.824 3.984l.144-.816c.336-1.728-.096-2.784-1.248-3.024-1.632-.288-3.216.288-6.432 1.872l-.24 1.248c.72-.48 2.4-1.344 3.072-1.2.528.096.576.816.48 1.488l-.144.576L29.672 92h4.416l3.696-18.912c1.872-2.064 4.416-3.888 6.528-3.888 2.448 0 2.976 1.104 2.976 3.6 0 4.032-3.024 11.232-3.024 15.504 0 2.016.816 4.08 4.128 4.08ZM64.28 92.384c3.264 0 6.624-1.728 8.976-4.32.048 1.968.72 4.32 3.984 4.32 1.872 0 3.216-1.248 4.656-2.688l.24-1.296c-1.248 1.344-2.4 2.4-3.456 2.4-.672 0-1.248-.528-1.248-2.064s3.936-20.928 5.472-28.512c.384-1.728-.048-2.784-1.248-3.024-1.584-.336-3.216.24-6.432 1.824l-.24 1.248c.72-.48 2.448-1.344 3.12-1.2.528.096.576.864.432 1.488l-.144.624c-.72 3.168-1.536 7.152-2.352 11.088-1.2-2.784-3.504-4.656-6.912-4.656-7.824 0-12.432 8.544-12.432 15.888 0 4.56 1.92 8.88 7.584 8.88Zm-2.88-8.88c0-4.8 2.592-14.304 9.36-14.304 3.552 0 4.32 4.128 4.416 7.392-.528 2.928-1.056 5.568-1.392 7.632-1.296 3.312-4.032 6.576-7.104 6.576-4.08 0-5.28-3.792-5.28-7.296ZM103.544 92.384c3.264 0 6.624-1.728 8.976-4.32.048 1.968.72 4.32 3.984 4.32 1.872 0 3.216-1.248 4.656-2.688l.24-1.296c-1.248 1.344-2.4 2.4-3.456 2.4-.672 0-1.248-.528-1.248-2.064s3.936-20.928 5.472-28.512c.384-1.728-.048-2.784-1.248-3.024-1.584-.336-3.216.24-6.432 1.824l-.24 1.248c.72-.48 2.448-1.344 3.12-1.2.528.096.576.864.432 1.488l-.144.624c-.72 3.168-1.536 7.152-2.352 11.088-1.2-2.784-3.504-4.656-6.912-4.656-7.824 0-12.432 8.544-12.432 15.888 0 4.56 1.92 8.88 7.584 8.88Zm-2.88-8.88c0-4.8 2.592-14.304 9.36-14.304 3.552 0 4.32 4.128 4.416 7.392-.528 2.928-1.056 5.568-1.392 7.632-1.296 3.312-4.032 6.576-7.104 6.576-4.08 0-5.28-3.792-5.28-7.296ZM125.576 92h4.416l.96-4.944c1.2-5.76 4.896-18.192 10.512-18.192 1.056 0 2.016.624 2.592 1.584-1.92.336-4.032 2.496-4.032 4.224 0 .864.624 1.488 1.632 1.488 1.824 0 4.512-1.824 4.512-3.744 0-2.496-2.016-4.8-4.272-4.8-3.456 0-6.816 4.848-8.928 9.216l1.152-6.048c.336-1.728-.096-2.784-1.248-3.024-1.632-.288-3.216.288-6.432 1.872l-.24 1.248c.72-.48 2.4-1.344 3.072-1.2.528.096.576.816.48 1.488l-.144.576L125.576 92ZM146.792 103.904c2.496 0 4.032-2.352 5.04-4.08L170.312 68h-4.992l-.336 1.584 2.832.096L158.36 86l-3.216-16.32c-.432-1.68-1.536-2.208-2.688-1.968-1.296.24-3.072 1.68-4.944 4.608l.24 1.2c.336-.672 1.776-2.592 2.352-2.688.48-.096.72.192.864.96l.144.624 3.792 19.536-4.176 7.2c-.624 1.104-2.064 3.504-3.552 3.504-1.056 0-1.68-.384-1.92-1.68 1.872-.048 4.512-1.92 4.512-3.84 0-.96-.48-1.92-1.632-1.92-1.92 0-4.416 2.256-4.56 4.08V99.536c.048 2.832 1.008 4.368 3.216 4.368ZM167.048 95.216l-.144.672c4.608 0 7.776-4.848 7.776-6.912 0-1.248-.96-2.208-2.304-2.208-2.16 0-3.456 1.92-3.456 3.696 0 1.152.48 1.728.48 2.64 0 1.488-1.008 2.112-2.352 2.112ZM198.728 92.384c5.28 0 10.56-2.448 10.56-7.488 0-5.664-12.144-4.272-12.144-10.848 0-2.928 3.264-5.184 6.096-5.184 2.496 0 4.032.624 4.8 1.584-1.872.336-4.032 2.496-4.032 4.224 0 .864.624 1.488 1.632 1.488 1.824 0 4.512-1.824 4.512-3.744 0-3.456-3.792-4.8-7.056-4.8-4.656 0-10.656 3.312-10.656 8.112 0 6.192 12.144 5.04 12.144 10.848 0 2.544-2.688 4.56-5.04 4.56-2.592 0-6.624-1.488-6.624-6.336h-2.496l-1.44 7.2h1.872c.24-1.104.432-2.112.672-2.88 1.632 2.544 4.704 3.264 7.2 3.264ZM214.376 92h4.368l.672-3.408c1.248-6.576 5.088-19.392 10.128-19.392 1.488 0 2.4 1.056 2.4 3.024 0 3.168-3.024 12.624-3.024 16.08 0 2.016.816 4.08 4.128 4.08 1.872 0 3.12-1.2 4.656-2.688l.288-1.296c-1.248 1.248-2.448 2.4-3.504 2.4-.672 0-1.2-.528-1.2-2.064 0-2.64 3.024-13.296 3.024-15.936 0-3.024-1.968-5.184-5.424-5.184-4.128 0-7.296 5.088-9.312 9.888l3.36-17.28c.336-1.728-.096-2.784-1.296-3.024-1.584-.288-3.216.288-6.384 1.92l-.24 1.2c.72-.432 2.4-1.344 3.072-1.2.528.096.576.816.48 1.488l-.144.624L214.376 92ZM250.76 92.384c7.872 0 14.016-7.44 14.016-15.264 0-5.856-4.08-9.504-9.264-9.504-7.632 0-14.064 7.104-14.064 15.216 0 5.904 4.128 9.552 9.312 9.552Zm-4.656-9.312c0-6.144 4.272-14.208 9.312-14.208 3.216 0 4.704 4.128 4.704 8.064 0 6.288-4.128 14.208-9.072 14.208-3.168 0-4.944-4.128-4.944-8.064ZM274.952 92.384c2.928 0 5.664-2.16 7.776-4.416 0 1.968.72 4.416 4.032 4.416 1.872 0 3.168-1.248 4.656-2.688l.192-1.296c-1.248 1.344-2.352 2.4-3.408 2.4-.672 0-1.248-.528-1.248-2.064 0-1.824 3.36-18.192 3.936-21.12l-4.56.864c-.48 2.112-2.88 13.728-3.456 18.096-1.824 2.208-4.272 4.224-6.672 4.224-2.112 0-2.976-1.728-2.976-3.84 0-1.584 1.92-10.08 3.168-16.176.336-1.68-.096-2.736-1.296-3.024-1.584-.336-3.216.192-6.432 1.728l-.288 1.2c.72-.432 2.448-1.248 3.12-1.104.528.096.576.816.432 1.488l-.144.576c-1.44 6.048-2.976 13.44-2.976 15.312 0 3.312 2.016 5.424 6.144 5.424ZM300.296 92.384c1.872 0 3.12-1.2 4.656-2.688l.24-1.296c-1.248 1.344-2.4 2.4-3.456 2.4-.672 0-1.248-.528-1.248-2.064s3.888-20.928 5.472-28.512c.336-1.728-.096-2.784-1.248-3.024-1.632-.336-3.216.24-6.432 1.824l-.288 1.248c.72-.48 2.448-1.344 3.12-1.2.528.096.576.816.432 1.488l-.144.576c-2.016 9.024-5.088 24.96-5.088 26.784 0 2.016.672 4.464 3.984 4.464ZM316.136 92.384c3.264 0 6.624-1.728 8.976-4.32.048 1.968.72 4.32 3.984 4.32 1.872 0 3.216-1.248 4.656-2.688l.24-1.296c-1.248 1.344-2.4 2.4-3.456 2.4-.672 0-1.248-.528-1.248-2.064s3.936-20.928 5.472-28.512c.384-1.728-.048-2.784-1.248-3.024-1.584-.336-3.216.24-6.432 1.824l-.24 1.248c.72-.48 2.448-1.344 3.12-1.2.528.096.576.864.432 1.488l-.144.624c-.72 3.168-1.536 7.152-2.352 11.088-1.2-2.784-3.504-4.656-6.912-4.656-7.824 0-12.432 8.544-12.432 15.888 0 4.56 1.92 8.88 7.584 8.88Zm-2.88-8.88c0-4.8 2.592-14.304 9.36-14.304 3.552 0 4.32 4.128 4.416 7.392-.528 2.928-1.056 5.568-1.392 7.632-1.296 3.312-4.032 6.576-7.104 6.576-4.08 0-5.28-3.792-5.28-7.296ZM358.76 92.384c8.112 0 13.344-8.544 13.344-15.888 0-4.56-2.208-8.88-7.872-8.88-2.928 0-5.808 1.392-8.016 3.6l2.112-10.992c.336-1.728-.096-2.784-1.296-3.024-1.584-.288-3.216.288-6.384 1.92l-.24 1.248c.72-.48 2.4-1.392 3.072-1.248.528.096.576.864.48 1.488l-.144.624-4.128 20.928a10.363 10.363 0 0 0-.144 1.68c0 5.088 3.84 8.544 9.216 8.544Zm-4.944-8.544v-.384l1.632-8.304c1.536-3.072 4.512-5.952 7.344-5.952 4.08 0 4.608 3.744 4.608 7.296 0 4.8-1.968 14.64-8.736 14.64-3.6 0-4.848-3.168-4.848-7.296ZM384.728 92.384c3.888 0 8.88-2.4 11.328-7.104h-4.416c-1.68 2.976-4.08 5.856-6.816 5.856-2.784 0-4.608-2.64-4.848-5.952 7.344-.24 16.992-2.688 16.992-9.792 0-3.888-2.352-7.776-7.392-7.776-8.64 0-14.448 7.344-14.448 15.216 0 5.76 3.696 9.552 9.6 9.552Zm-4.8-8.496c.288-5.568 3.36-15.024 9.12-15.024 2.784 0 3.792 2.496 3.792 4.752 0 6.384-5.664 9.888-12.912 10.272ZM420.152 92.384c3.888 0 8.88-2.4 11.328-7.104h-4.416c-1.68 2.976-4.08 5.856-6.816 5.856-2.784 0-4.608-2.64-4.848-5.952 7.344-.24 16.992-2.688 16.992-9.792 0-3.888-2.352-7.776-7.392-7.776-8.64 0-14.448 7.344-14.448 15.216 0 5.76 3.696 9.552 9.6 9.552Zm-4.8-8.496c.288-5.568 3.36-15.024 9.12-15.024 2.784 0 3.792 2.496 3.792 4.752 0 6.384-5.664 9.888-12.912 10.272ZM432.92 92h7.632l.288-1.584-1.776-.096 6.864-8.016 2.928 6.48c1.152 2.688 2.688 3.6 4.848 3.6 2.16 0 4.176-2.16 4.848-3.36l-.096-1.008c-.72 1.008-1.92 2.4-3.12 2.4-.576 0-1.248-1.056-2.16-3.024l-3.984-8.928 7.488-8.784 4.608-.096.288-1.584h-8.496l-.336 1.584 2.4.096-6.48 7.632-3.264-7.296c-.72-1.776-1.44-2.4-2.88-2.4-1.68 0-4.176 2.688-5.376 4.752l.192 1.152c.624-1.104 1.776-2.688 2.304-2.688 1.008 0 1.536.864 2.112 2.256l3.648 8.064-7.824 9.168-4.32.096L432.92 92ZM470.408 92.384c3.264 0 6.624-1.728 8.976-4.32.048 1.968.768 4.32 4.032 4.32 1.872 0 3.168-1.248 4.656-2.688l.192-1.296c-1.248 1.344-2.352 2.4-3.408 2.4-.672 0-1.248-.528-1.248-2.064 0-1.824 3.36-18.192 3.936-21.12l-4.56.864-.816 3.792c-1.248-2.784-3.504-4.656-6.912-4.656-7.824 0-12.432 8.544-12.432 15.888 0 4.56 1.92 8.88 7.584 8.88Zm-2.88-8.88c0-4.8 2.592-14.304 9.36-14.304 3.504 0 4.272 3.984 4.416 7.248-.528 2.784-1.104 5.712-1.488 7.968-1.296 3.216-3.936 6.384-6.912 6.384-4.08 0-5.376-3.792-5.376-7.296ZM501.224 92.384c5.376 0 9.744-3.312 11.328-7.344h-4.224c-.864 2.4-3.168 6.096-6.768 6.096-4.32 0-5.136-3.84-5.136-7.824 0-6.096 3.072-14.352 9.888-14.352 3.36 0 5.616 1.392 6.384 3.648-1.92.24-4.176 2.448-4.176 4.224 0 .912.624 1.488 1.584 1.488 1.872 0 4.56-1.872 4.56-3.792v-.048c0-4.464-3.792-6.864-8.592-6.864-8.496 0-14.256 7.152-14.256 15.024 0 5.808 3.168 9.744 9.408 9.744ZM524.84 92.384c4.704 0 6.096-4.464 6.672-7.344H529.4c-.576 2.928-2.016 5.76-3.504 5.76-1.296 0-1.776-1.536-1.776-3.072 0-1.68 1.488-9.264 2.88-16.224h4.896l.432-1.92h-4.896c.672-3.408 1.344-6.48 1.776-8.4h-4.416a455.422 455.422 0 0 0-1.776 8.4h-4.32l-.432 1.92h4.368C521.24 78.32 519.8 85.76 519.8 87.536c0 3.456 1.824 4.848 5.04 4.848ZM534.632 92.384c1.728 0 3.408-1.584 3.408-3.408 0-1.248-.96-2.208-2.304-2.208-1.68 0-3.408 1.536-3.408 3.36 0 1.248.96 2.256 2.304 2.256Z"/></g></svg>