<svg xmlns="http://www.w3.org/2000/svg" width="320" height="40"><g fill="#424345" fill-rule="nonzero"><path d="M24.984 36.72v-2.24c-.992.128-2.24.224-3.584.224-6.848 0-9.216-.928-9.408-5.024 1.28.416 2.592.64 3.936.64 5.824 0 11.616-4 11.616-12s-5.824-12-11.616-12c-5.824 0-11.648 4-11.648 12 0 5.6 2.88 9.248 6.592 10.944 0 2.848.224 7.456 14.112 7.456ZM5.72 19.056C5.72 13.36 9.4 7.44 17.048 7.44c5.888 0 8.928 4.992 8.928 10.208 0 5.632-3.584 11.552-11.168 11.552-6.016 0-9.088-4.96-9.088-10.144ZM37.016 30.32c2.336 0 4.576-1.76 6.752-6.72h.096c-.192 2.144-.608 4.256-1.056 6.4h2.24c-.192-2.656-.256-5.312-.256-8 0-2.688.064-5.312.256-8h-1.12c0 10.56-3.296 15.328-6.848 15.328-2.816 0-5.376-3.072-5.376-8.672 0-2.272.384-4.64.992-6.656h-1.92c-.448 1.888-.672 3.648-.672 5.248 0 6.816 3.072 11.072 6.912 11.072ZM53.496 30.32c3.072 0 6.08-2.208 7.84-6.72h.064c-.192 2.144-.832 4.256-1.216 6.4h2.24c.096-2.272.096-5.216.096-7.776 0-4.96-.384-8.544-5.6-8.544-2.24 0-5.984.704-8.832 1.728v2.24c3.264-1.536 6.4-2.944 9.184-2.944 2.208 0 3.808.896 4.064 3.328-11.552 4.416-13.216 5.504-13.216 6.432 0 3.872 2.464 5.856 5.376 5.856Zm-4.224-5.44c0-.608 1.408-1.856 12.064-5.792-.736 7.328-3.808 9.792-7.68 9.792-1.984 0-4.384-1.792-4.384-4ZM66.2 30h2.24c-.48-1.664-.896-3.584-.896-5.44 0-4.672 1.728-9.088 5.376-9.088 1.408 0 2.976.736 4.704 2.176v-2.24c-1.408-1.152-2.72-1.696-3.968-1.696-2.208 0-4.192 1.76-6.176 5.088h-.064c.256-1.6.576-3.2 1.024-4.8H66.2c.192 2.656.256 5.312.256 8 0 2.688-.064 5.312-.256 8ZM79.864 30h2.24c-.48-1.664-.896-3.584-.896-5.44 0-4.672 1.728-9.088 5.376-9.088 1.408 0 2.976.736 4.704 2.176v-2.24c-1.408-1.152-2.72-1.696-3.968-1.696-2.208 0-4.192 1.76-6.176 5.088h-.064c.256-1.6.576-3.2 1.024-4.8h-2.24c.192 2.656.256 5.312.256 8 0 2.688-.064 5.312-.256 8ZM100.28 30.32c2.304 0 4.416-.576 6.432-1.728v-2.24c-2.528 1.728-4.736 2.848-6.912 2.848-3.328 0-5.856-2.208-5.856-6.752v-.064l13.024-.768c0-2.56-1.248-7.936-6.304-7.936-4.48 0-8.096 3.424-8.096 8.32 0 5.76 4.512 8.32 7.712 8.32Zm-6.24-9.024c.544-3.424 3.456-6.592 7.04-6.592 3.744 0 4.672 3.648 4.672 5.92-4.032.32-8.192.544-11.712.672ZM112.76 30.32c.832 0 1.888-.544 3.2-1.728v-2.24c-1.472 1.824-2.56 2.592-3.328 2.592-.992 0-1.984-2.752-1.984-6.56 0-4.96.832-11.744 1.44-16.384h-2.24c-.096 2.464-.16 7.424-.16 10.464 0 6.912.096 13.856 3.072 13.856ZM124.248 30.32c3.36 0 6.176-1.408 6.176-4.256 0-2.464-1.92-3.328-6.56-4.864-2.752-.896-5.664-1.888-5.664-3.904 0-1.536 1.44-2.592 3.776-2.592 2.144 0 4.416 1.184 7.712 2.944v-2.24c-2.72-1.12-4.704-1.728-6.848-1.728-2.72 0-5.44 1.088-5.44 3.776 0 2.496 1.856 3.712 4.16 4.352 1.6.448 2.912 1.024 4.576 1.6 1.984.704 3.488 1.696 3.488 3.136 0 1.632-2.336 2.752-4.512 2.752-2.144 0-4.416-1.184-7.712-2.944v2.24c2.72 1.12 4.704 1.728 6.848 1.728ZM140.28 30.32c4.032 0 8.064-2.784 8.064-8.352 0-5.536-4.032-8.288-8.064-8.288-4.064 0-8.096 2.752-8.096 8.288 0 5.568 4.032 8.352 8.096 8.352Zm-6.72-7.456c0-3.904 2.656-8.16 7.648-8.16 3.84 0 5.696 3.072 5.696 6.4 0 3.904-2.528 8.096-7.488 8.096-3.968 0-5.856-3.04-5.856-6.336ZM151.224 30h1.12c0-10.304 3.648-15.136 6.688-15.136 2.144 0 4 2.432 4 7.136 0 2.688-.384 5.312-.8 8h1.536c.544-10.304 3.968-15.136 7.008-15.136 3.072 0 4.096 3.84 4.096 7.936 0 2.624-.416 5.344-.96 7.2h1.92c.448-1.888.672-3.648.672-5.248 0-6.88-2.624-11.072-5.696-11.072-1.984 0-4.544 2.048-6.464 6.656-.864-4.224-2.944-6.656-5.28-6.656-2.176 0-4.576 2.08-6.4 6.72h-.064c.16-2.144.448-4.256.864-6.4h-2.24c.192 2.656.256 5.312.256 8 0 2.688-.064 5.312-.256 8ZM186.456 30.32c2.304 0 4.416-.576 6.432-1.728v-2.24c-2.528 1.728-4.736 2.848-6.912 2.848-3.328 0-5.856-2.208-5.856-6.752v-.064l13.024-.768c0-2.56-1.248-7.936-6.304-7.936-4.48 0-8.096 3.424-8.096 8.32 0 5.76 4.512 8.32 7.712 8.32Zm-6.24-9.024c.544-3.424 3.456-6.592 7.04-6.592 3.744 0 4.672 3.648 4.672 5.92-4.032.32-8.192.544-11.712.672ZM196.024 30h1.12c0-10.56 3.296-15.328 6.848-15.328 2.816 0 5.376 3.072 5.376 8.672 0 2.272-.384 4.64-.992 6.656h1.92c.448-1.888.672-3.648.672-5.248 0-6.816-3.072-11.072-6.912-11.072-2.336 0-4.416 1.76-6.592 6.72h-.064c.192-2.144.48-4.256.864-6.4h-2.24c.192 2.656.256 5.312.256 8 0 2.688-.064 5.312-.256 8ZM220.92 30.32c2.304 0 4.416-.576 6.432-1.728v-2.24c-2.528 1.728-4.736 2.848-6.912 2.848-3.328 0-5.856-2.208-5.856-6.752v-.064l13.024-.768c0-2.56-1.248-7.936-6.304-7.936-4.48 0-8.096 3.424-8.096 8.32 0 5.76 4.512 8.32 7.712 8.32Zm-6.24-9.024c.544-3.424 3.456-6.592 7.04-6.592 3.744 0 4.672 3.648 4.672 5.92-4.032.32-8.192.544-11.712.672ZM236.536 30.32c3.36 0 6.176-1.408 6.176-4.256 0-2.464-1.92-3.328-6.56-4.864-2.752-.896-5.664-1.888-5.664-3.904 0-1.536 1.44-2.592 3.776-2.592 2.144 0 4.416 1.184 7.712 2.944v-2.24c-2.72-1.12-4.704-1.728-6.848-1.728-2.72 0-5.44 1.088-5.44 3.776 0 2.496 1.856 3.712 4.16 4.352 1.6.448 2.912 1.024 4.576 1.6 1.984.704 3.488 1.696 3.488 3.136 0 1.632-2.336 2.752-4.512 2.752-2.144 0-4.416-1.184-7.712-2.944v2.24c2.72 1.12 4.704 1.728 6.848 1.728ZM251.48 30.32c3.36 0 6.176-1.408 6.176-4.256 0-2.464-1.92-3.328-6.56-4.864-2.752-.896-5.664-1.888-5.664-3.904 0-1.536 1.44-2.592 3.776-2.592 2.144 0 4.416 1.184 7.712 2.944v-2.24c-2.72-1.12-4.704-1.728-6.848-1.728-2.72 0-5.44 1.088-5.44 3.776 0 2.496 1.856 3.712 4.16 4.352 1.6.448 2.912 1.024 4.576 1.6 1.984.704 3.488 1.696 3.488 3.136 0 1.632-2.336 2.752-4.512 2.752-2.144 0-4.416-1.184-7.712-2.944v2.24c2.72 1.12 4.704 1.728 6.848 1.728Z"/></g></svg>