<svg xmlns="http://www.w3.org/2000/svg" width="320" height="40"><g fill="#424345" fill-rule="nonzero"><path d="M3.24 30h7.2V17.264h.096l4.928 5.888h.48L21 17.264V30h7.2V6.32h-7.104l-5.408 6.592L10.44 6.32h-7.2zM32.2 30h6.4V13.68h-6.4V30Zm-.384-21.248c0 1.984 1.6 3.584 3.584 3.584s3.584-1.6 3.584-3.584S37.384 5.2 35.4 5.2s-3.584 1.568-3.584 3.552ZM49.512 30.48c3.776 0 7.008-1.664 7.008-4.448 0-3.424-3.392-5.28-5.984-6.016-1.312-.384-2.784-.864-2.784-1.408 0-.48.544-.672 1.152-.672 1.76 0 5.472.928 6.816 1.6v-4.704c-1.888-.992-4.672-1.632-7.264-1.632-3.616 0-6.88 1.248-6.88 4.448 0 3.104 2.176 4.864 5.76 5.92 1.76.512 2.976.96 2.976 1.632 0 .384-.512.576-1.504.576-2.048 0-5.92-.928-7.488-1.632v4.704c3.008 1.056 5.632 1.632 8.192 1.632ZM64.456 30.416c2.144 0 4.256-1.088 5.248-2.688h.064V30h5.76V5.68h-5.76v10.176h-.064c-1.344-1.728-3.168-2.592-4.96-2.592-3.36 0-6.624 2.912-6.624 8.576 0 6.272 3.232 8.576 6.336 8.576Zm.704-8.608c0-2.976.864-4 1.984-4 1.184 0 1.984 1.024 1.984 4 0 2.912-.8 3.936-1.984 3.936-1.12 0-1.984-1.024-1.984-3.936ZM87.272 30.48c2.048 0 5.408-.544 7.488-1.632v-4.704c-2.24.928-4.544 1.632-6.368 1.632-2.272 0-3.36-1.248-3.68-2.752h10.816c0-6.944-4.64-9.824-8.64-9.824-4.32 0-8.8 3.328-8.8 8.64 0 4.32 3.072 8.64 9.184 8.64ZM85 19.984c.48-1.184 1.312-2.08 2.272-2.08 1.28 0 1.856 1.536 1.856 2.08H85ZM98.408 30h6.4v-9.12c.512-.544 1.344-1.344 2.24-1.344.832 0 1.536.672 1.536 2.784V30h6.4v-9.12c.512-.544 1.344-1.344 2.24-1.344.832 0 1.536.672 1.536 2.784V30h6.4v-9.792c0-3.872-1.76-7.008-4.672-7.008-1.888 0-3.904.992-6.08 2.912-.896-2.176-2.304-2.912-4.128-2.912-1.824 0-4.256 1.664-5.408 2.784h-.064V13.68h-6.4V30ZM136.584 30.48c2.048 0 5.408-.544 7.488-1.632v-4.704c-2.24.928-4.544 1.632-6.368 1.632-2.272 0-3.36-1.248-3.68-2.752h10.816c0-6.944-4.64-9.824-8.64-9.824-4.32 0-8.8 3.328-8.8 8.64 0 4.32 3.072 8.64 9.184 8.64Zm-2.272-10.496c.48-1.184 1.312-2.08 2.272-2.08 1.28 0 1.856 1.536 1.856 2.08h-4.128ZM151.496 30.48c2.4 0 4.224-1.216 5.376-2.784h.064V30h6.4v-3.072c0-10.752-2.656-13.728-7.392-13.728-2.848 0-5.824.544-8.64 1.632v5.632c1.6-1.056 5.472-2.528 7.776-2.528 1.024 0 1.76.288 1.856 1.024-6.112 0-9.856 2.912-9.856 6.816 0 2.496 1.696 4.704 4.416 4.704Zm2.176-6.336c0-1.344 1.056-2.144 3.296-2.144v.448c0 2.72-.64 3.488-1.664 3.488-.928 0-1.632-.864-1.632-1.792ZM166.216 30h6.4v-9.12c1.12-.928 1.952-1.344 2.528-1.344 1.376 0 1.536 2.24 1.536 5.76V30h6.4c.064-1.696.096-3.2.096-4.576 0-10.944-1.824-12.224-5.088-12.224-2.048 0-4.288 1.632-5.408 2.784h-.064V13.68h-6.4V30ZM190.152 30.48c2.4 0 4.224-1.216 5.376-2.784h.064V30h6.4v-3.072c0-10.752-2.656-13.728-7.392-13.728-2.848 0-5.824.544-8.64 1.632v5.632c1.6-1.056 5.472-2.528 7.776-2.528 1.024 0 1.76.288 1.856 1.024-6.112 0-9.856 2.912-9.856 6.816 0 2.496 1.696 4.704 4.416 4.704Zm2.176-6.336c0-1.344 1.056-2.144 3.296-2.144v.448c0 2.72-.64 3.488-1.664 3.488-.928 0-1.632-.864-1.632-1.792ZM204.872 30h6.4v-9.12c1.12-.928 1.952-1.344 2.528-1.344 1.376 0 1.536 2.24 1.536 5.76V30h6.4c.064-1.696.096-3.2.096-4.576 0-10.944-1.824-12.224-5.088-12.224-2.048 0-4.288 1.632-5.408 2.784h-.064V13.68h-6.4V30ZM232.52 30.48c1.504 0 4-.544 6.208-1.632v-5.952c-1.408.896-2.816 1.632-3.936 1.632-1.344 0-2.24-1.056-2.24-2.656v-3.488h6.144V13.68h-6.144v-4h-6.4v4h-2.24v4.704h2.24v5.696c0 3.712 2.4 6.4 6.368 6.4ZM249.32 30.48c3.776 0 7.008-1.664 7.008-4.448 0-3.424-3.392-5.28-5.984-6.016-1.312-.384-2.784-.864-2.784-1.408 0-.48.544-.672 1.152-.672 1.76 0 5.472.928 6.816 1.6v-4.704c-1.888-.992-4.672-1.632-7.264-1.632-3.616 0-6.88 1.248-6.88 4.448 0 3.104 2.176 4.864 5.76 5.92 1.76.512 2.976.96 2.976 1.632 0 .384-.512.576-1.504.576-2.048 0-5.92-.928-7.488-1.632v4.704c3.008 1.056 5.632 1.632 8.192 1.632Z"/></g></svg>