<svg xmlns="http://www.w3.org/2000/svg" width="320" height="40"><g fill="#424345" fill-rule="nonzero"><path d="M11.408 30.48c2.816 0 6.592-1.984 9.12-8.48h.096c-.096 2.656-.416 5.344-1.024 8h2.24c-.128-3.904-.16-7.776-.16-11.68s.032-7.808.16-11.68h-4.608c1.248 3.168 3.296 8.384 3.296 11.84 0 2.464-1.248 3.52-3.008 3.52C13.2 22 5.712 15.632 5.712 8.112c0-.48 0-.96.064-1.472h-1.12c-.48 3.104-.736 6.112-.736 8.896 0 8.512 2.336 14.944 7.488 14.944ZM26.16 30h1.12c0-6.4 3.68-9.312 7.2-9.312 3.296 0 6.432 2.496 6.432 6.976 0 .736-.064 1.536-.224 2.336h1.12c.544-1.888.768-3.648.768-5.312 0-6.976-3.424-11.168-7.296-11.168-2.72 0-5.664 2.112-7.744 6.88h-.096c0-2.144.384-4.256.96-6.4h-2.24c.096 2.688.16 5.344.16 8 0 2.656-.064 5.344-.16 8ZM53.424 30.48c3.168 0 7.2-.672 7.2-4.832 0-2.976-2.304-4.32-6.4-4.32-6.048 0-7.648-.32-7.648-2.048 1.664-.384 3.232-.608 4.704-.608 2.976 0 5.664.864 8.384 2.816v-6.4c-2.464-1.024-4.32-1.568-6.848-1.568-4.8 0-7.52 2.656-7.52 5.12 0 2.432 1.6 3.776 5.312 3.776h2.176c2.976 0 6.016.16 6.016 1.792-.96.224-2.176.352-3.52.352-3.328 0-7.392-.768-9.728-2.464v6.432c2.56 1.216 4.928 1.952 7.872 1.952ZM71.152 30.48c2.272 0 4.768-.256 7.264-1.568v-5.92c-2.752.896-6.048 1.504-8.864 1.504-3.776 0-5.696-.896-5.696-3.264 1.76-.992 3.68-1.728 7.584-1.728 1.984 0 4.896.512 6.976 1.504v-5.92c-2.496-1.312-4.704-1.568-6.976-1.568-5.216 0-8.736 3.232-8.736 8.48 0 5.536 3.712 8.48 8.448 8.48ZM82.256 30h1.12c0-.32 0-.608.032-.896.64-5.76 3.808-8.416 7.168-8.416 1.344 0 2.816.256 3.968.8v-6.4c-.576-.736-1.92-1.568-3.168-1.568-2.72 0-5.664 2.112-7.744 6.88h-.096c0-2.144.384-4.256.96-6.4h-2.24c.096 2.688.16 5.344.16 8 0 2.656-.064 5.344-.16 8ZM104.08 30.48c2.72 0 5.664-2.112 7.744-6.88h.096c0 2.144-.384 4.256-.96 6.4h2.24c-.096-2.688-.16-5.344-.16-8 0-2.656.064-5.344.16-8h-1.12c0 6.4-3.68 9.312-7.2 9.312-3.296 0-6.432-2.496-6.432-6.976 0-.736.064-1.536.224-2.336h-1.12a19.026 19.026 0 0 0-.768 5.312c0 6.976 3.424 11.168 7.296 11.168ZM117.04 36.4h2.24c-.704-4.192-.928-6.528-.928-10.72h.096c2.176 4.544 5.824 4.8 7.68 4.8 4.576 0 8.96-3.136 8.96-8.48 0-5.312-4.384-8.48-8.832-8.48-3.072 0-6.176 1.504-7.904 4.8h-.096c.16-1.44.48-2.88 1.024-4.32h-2.24a325.439 325.439 0 0 1 0 22.4Zm1.344-15.104c2.848-1.056 5.44-1.792 10.08-1.792 3.36 0 5.696.736 5.696 3.2-2.336 1.056-5.44 1.792-10.08 1.792-3.36 0-5.696-.736-5.696-3.2ZM144.624 30.48c2.72 0 5.664-2.112 7.744-6.88h.096c0 2.144-.384 4.256-.96 6.4h2.24c-.096-2.688-.16-5.344-.16-8 0-2.656.064-5.344.16-8h-1.12c0 6.4-3.68 9.312-7.2 9.312-3.296 0-6.432-2.496-6.432-6.976 0-.736.064-1.536.224-2.336h-1.12a19.026 19.026 0 0 0-.768 5.312c0 6.976 3.424 11.168 7.296 11.168ZM162.864 30.48c1.376 0 3.584-1.12 4.768-1.92v-6.4c-.896.608-2.688 1.248-4.448 1.248-2.432 0-4.8-1.216-4.8-5.344 0-4.8.32-7.264.96-12.064h-2.24c.16 4 .16 7.68.16 11.68 0 8.096 1.024 12.8 5.6 12.8ZM178.48 30.48c5.984 0 8.96-4.288 8.96-8.48 0-4.224-2.976-8.48-8.96-8.48-5.984 0-8.928 4.256-8.928 8.48 0 4.192 2.944 8.48 8.928 8.48Zm-7.776-9.184c0-.32 5.216-1.792 9.856-1.792 3.36 0 5.696.736 5.696 3.2 0 .32-5.216 1.792-9.856 1.792-3.36 0-5.696-.736-5.696-3.2ZM196.976 30.48c2.72 0 5.664-2.112 7.744-6.88h.096c0 2.144-.384 4.256-.96 6.4h2.24c-.096-2.688-.16-5.344-.16-8 0-2.656.064-5.344.16-8h-1.12c0 6.4-3.68 9.312-7.2 9.312-3.296 0-6.432-2.496-6.432-6.976 0-.736.064-1.536.224-2.336h-1.12a19.026 19.026 0 0 0-.768 5.312c0 6.976 3.424 11.168 7.296 11.168ZM217.584 30.48c3.168 0 7.2-.672 7.2-4.832 0-2.976-2.304-4.32-6.4-4.32-6.048 0-7.648-.32-7.648-2.048 1.664-.384 3.232-.608 4.704-.608 2.976 0 5.664.864 8.384 2.816v-6.4c-2.464-1.024-4.32-1.568-6.848-1.568-4.8 0-7.52 2.656-7.52 5.12 0 2.432 1.6 3.776 5.312 3.776h2.176c2.976 0 6.016.16 6.016 1.792-.96.224-2.176.352-3.52.352-3.328 0-7.392-.768-9.728-2.464v6.432c2.56 1.216 4.928 1.952 7.872 1.952ZM233.104 30.48c1.376 0 3.584-1.12 4.768-1.92v-6.4c-.896.608-2.688 1.248-4.448 1.248-2.432 0-4.8-1.216-4.8-5.344 0-4.8.32-7.264.96-12.064h-2.24c.16 4 .16 7.68.16 11.68 0 8.096 1.024 12.8 5.6 12.8ZM248.048 36.88c5.536 0 7.264-5.472 7.264-12.16 0-2.496 0-8.256.128-10.72h-1.152c-.832 6.24-4.128 8.288-6.944 8.288-2.944 0-5.76-2.208-5.76-6.208 0-.64.064-1.376.224-2.08h-1.024a17.235 17.235 0 0 0-.672 4.736c0 6.944 3.52 10.016 7.104 10.016 2.688 0 5.6-1.76 6.976-4.928v.896c0 4.384-2.848 6.144-6.656 6.144-2.08 0-4.48-.8-6.304-1.952v6.4c2.752 1.056 4.224 1.568 6.816 1.568Z"/></g></svg>