<svg xmlns="http://www.w3.org/2000/svg" width="320" height="40"><g fill="#424345" fill-rule="nonzero"><path d="M13.8 30.352c3.2 0 6.272-.736 8.992-2.4v-3.168c-2.656 2.368-7.488 3.264-10.272 3.264-5.184 0-8.832-3.36-8.832-9.312.512-5.632 5.28-10.208 10.944-10.208 2.656 0 5.44.992 8.16 3.328V8.688a16.14 16.14 0 0 0-8.416-2.368c-6.272 0-12.096 3.648-12.096 12 0 7.328 5.024 12.032 11.52 12.032ZM33.256 30.352c4.384 0 8.224-3.04 8.224-8.384 0-5.312-3.84-8.32-8.224-8.32s-8.224 3.008-8.224 8.32c0 5.344 3.84 8.384 8.224 8.384Zm-6.88-7.744c0-3.328 3.072-7.104 8-7.104 3.776 0 5.696 2.688 5.696 5.856 0 3.328-2.976 7.04-7.872 7.04-3.872 0-5.824-2.656-5.824-5.792ZM44.36 30h1.12c0-9.632 3.616-14.144 6.688-14.144 2.272 0 4.256 2.4 4.256 7.072 0 2.368-.352 4.704-.704 7.072h1.44c.448-9.632 3.904-14.144 6.976-14.144 3.008 0 4.32 3.584 4.32 7.744 0 2.304-.384 4.704-.864 6.4h1.792c.48-1.888.704-3.648.704-5.248 0-6.848-2.656-11.104-5.792-11.104-1.984 0-4.608 2.08-6.592 6.656-.864-4.192-3.008-6.656-5.376-6.656-2.208 0-4.64 2.08-6.528 6.752h-.064c.128-2.144.416-4.256.864-6.4h-2.24c.192 2.656.256 5.312.256 8 0 2.688-.064 5.312-.256 8ZM73.288 30h1.12c0-9.632 3.616-14.144 6.688-14.144 2.272 0 4.256 2.4 4.256 7.072 0 2.368-.352 4.704-.704 7.072h1.44c.448-9.632 3.904-14.144 6.976-14.144 3.008 0 4.32 3.584 4.32 7.744 0 2.304-.384 4.704-.864 6.4h1.792c.48-1.888.704-3.648.704-5.248 0-6.848-2.656-11.104-5.792-11.104-1.984 0-4.608 2.08-6.592 6.656-.864-4.192-3.008-6.656-5.376-6.656-2.208 0-4.64 2.08-6.528 6.752h-.064c.128-2.144.416-4.256.864-6.4h-2.24c.192 2.656.256 5.312.256 8 0 2.688-.064 5.312-.256 8ZM108.552 30.352c2.4 0 4.768-1.824 6.912-6.752h.096c-.16 2.144-.576 4.256-1.024 6.4h2.24c-.192-2.656-.256-5.312-.256-8 0-2.688.064-5.312.256-8h-1.12c0 9.856-3.36 14.336-6.912 14.336-2.912 0-5.568-2.976-5.568-8.416 0-2.016.352-4.096.864-5.92h-1.76c-.48 1.888-.704 3.648-.704 5.248 0 6.848 3.136 11.104 6.976 11.104ZM120.616 30h1.12c0-9.856 3.36-14.336 6.912-14.336 2.88 0 5.536 2.976 5.536 8.384 0 2.016-.32 4.128-.864 5.952h1.792c.48-1.888.704-3.648.704-5.248 0-6.848-3.136-11.104-6.976-11.104-2.4 0-4.64 1.824-6.784 6.752h-.064c.16-2.144.448-4.256.864-6.4h-2.24c.192 2.656.256 5.312.256 8 0 2.688-.064 5.312-.256 8ZM139.016 30h2.624c-.96-2.752-1.568-5.44-1.568-7.616 0-3.52 1.44-5.824 1.92-8.384h-2.976c.16 2.656.16 5.312.16 8 0 2.688 0 5.312-.16 8Zm-.256-20.832c0 1.184.768 1.792 1.664 1.792 1.088 0 2.08-.832 2.08-2.016 0-1.184-.736-1.824-1.664-1.824-1.088 0-2.08.832-2.08 2.048ZM152.104 30.352c2.304 0 4.48-.544 6.56-1.696v-2.88c-3.104 1.792-5.056 2.624-7.52 2.624-3.968 0-5.568-2.656-5.568-5.824.288-3.872 2.976-7.072 6.944-7.072 1.888 0 3.776.736 6.144 2.688v-2.848c-2.08-1.184-4.224-1.696-6.24-1.696-4.576 0-8.192 2.944-8.192 8.352 0 5.728 4 8.352 7.872 8.352ZM166.568 30.352c3.232 0 6.048-2.176 8-6.752h.064c-.16 2.144-.768 4.256-1.216 6.4h2.24c.096-2.368.096-5.312.096-7.936 0-5.024-.736-8.416-5.952-8.416-2.304 0-5.76.64-8.8 1.696v2.944c3.36-1.696 6.752-3.072 9.6-3.072 2.176 0 3.68.864 3.936 3.04C163.4 22.16 161 23.408 161 24.272c0 3.968 2.432 6.08 5.568 6.08Zm-3.744-5.824c0-.576 1.792-1.824 11.712-5.216-.64 6.368-3.552 8.896-7.552 8.896-1.952 0-4.16-1.6-4.16-3.68ZM185 30.352c1.248 0 3.168-.8 4.48-1.76v-2.944c-1.856 1.76-3.968 2.688-5.376 2.688-2.624 0-3.84-2.624-3.84-11.52 0-1.44 1.088-1.888 2.528-1.888 1.856 0 4.48.8 6.688 2.016V14h-9.088c.256-1.216.544-2.336.896-3.328h-2.24c.032 1.792.032 3.52.032 5.312 0 9.952.864 14.368 5.92 14.368ZM192.36 30h2.624c-.96-2.752-1.568-5.44-1.568-7.616 0-3.52 1.44-5.824 1.92-8.384h-2.976c.16 2.656.16 5.312.16 8 0 2.688 0 5.312-.16 8Zm-.256-20.832c0 1.184.768 1.792 1.664 1.792 1.088 0 2.08-.832 2.08-2.016 0-1.184-.736-1.824-1.664-1.824-1.088 0-2.08.832-2.08 2.048ZM203.176 30.352h.16c4.96-1.12 8.864-9.44 8.864-16.352h-2.048c.032.576.064 1.12.064 1.664-.064 6.016-2.4 11.2-7.136 12.384-1.28-4.704-1.952-9.376-3.008-14.048h-3.168l6.272 16.352ZM221.832 30.352c2.368 0 4.512-.544 6.592-1.696v-2.88c-2.624 1.6-4.96 2.624-7.328 2.624-3.2 0-5.632-1.952-5.824-5.696l13.344-1.248c-.096-2.976-1.664-7.808-6.432-7.808-4.448 0-8.256 3.424-8.256 8.352 0 5.728 4.448 8.352 7.904 8.352Zm-6.528-8.8c.384-3.264 3.328-6.208 6.784-6.208 3.488 0 4.608 3.136 4.672 5.28-3.84.416-7.808.704-11.456.928ZM234.888 30.352c.928 0 2.176-.64 3.488-1.76v-2.944c-1.376 1.632-2.592 2.368-3.52 2.368-1.248 0-2.464-2.496-2.464-6.368 0-4.928.736-10.976 1.376-15.648h-2.24c-.064 2.72-.128 7.456-.128 10.656 0 7.104.256 13.696 3.488 13.696ZM247.944 36.752c4.992 0 6.848-4.608 6.848-11.904 0-1.504 0-9.344.096-10.848h-2.048c.576 2.144.864 4.544.928 6.912-1.184 4.096-3.296 7.104-6.432 7.104-2.976 0-5.568-2.976-5.568-7.008 0-2.912.224-4.96 1.056-7.008h-2.048c-.384 1.44-.704 3.424-.704 5.248 0 5.28 2.304 10.816 6.944 10.816 2.464 0 5.184-2.048 6.752-5.376-.256 6.496-1.76 10.24-5.664 10.24-1.92 0-4.384-.928-7.456-2.784v2.912c2.944 1.12 5.248 1.696 7.296 1.696Z"/></g></svg>