<svg xmlns="http://www.w3.org/2000/svg" width="320" height="40"><g fill="#424345" fill-rule="nonzero"><path d="M15.224 30.384c6.656 0 11.104-5.824 11.104-12.128 0-6.272-4.448-12.096-11.104-12.096-6.688 0-11.104 5.824-11.104 12.096 0 6.304 4.416 12.128 11.104 12.128ZM7.48 18.256c0-5.248 3.2-9.216 7.744-9.216s7.744 3.968 7.744 9.216c0 5.184-3.2 9.248-7.744 9.248S7.48 23.44 7.48 18.256ZM35.256 30.384h.16c5.664-2.112 9.248-9.472 9.248-16.48h-3.04c0 4.032-1.216 9.472-5.056 12.352L31.32 13.904h-3.456l7.392 16.48ZM55.128 30.384c2.048 0 4.576-.608 6.528-1.76v-2.528c-1.728 1.216-4.032 1.952-6.144 1.952-3.072 0-5.856-2.176-6.048-5.696h13.12c0-6.24-4.288-8.832-7.808-8.832-4.032 0-8.32 3.296-8.32 8.416 0 5.024 3.968 8.448 8.672 8.448Zm-5.536-9.792c.608-2.88 2.976-4.768 5.28-4.768 2.176 0 4.672 1.76 4.672 4.768h-9.952ZM65.592 30h2.912v-8.48c1.312-3.296 2.752-5.44 4.672-5.44 1.024 0 2.176.544 3.488 1.728V15.28c-1.344-1.184-2.496-1.76-3.552-1.76-1.632 0-3.072 1.376-4.544 4h-.064v-3.616h-2.912V30ZM84.824 30.384c3.552 0 6.848-1.344 6.848-4.16 0-2.752-3.264-4.224-6.176-5.216-2.304-.832-4.512-1.856-4.512-3.392 0-1.184 1.184-1.76 2.784-1.76 2.304 0 5.632 1.184 7.232 2.24v-2.528c-1.696-1.152-4.672-2.048-7.296-2.048-2.944 0-5.568 1.088-5.568 3.904 0 2.976 3.008 4.48 6.336 5.632 2.336.832 4.384 1.632 4.384 3.072 0 1.248-1.824 1.92-3.968 1.92-2.4 0-5.344-.864-6.816-1.696v2.528c1.888.928 4.352 1.504 6.752 1.504ZM99.16 30.384c2.144 0 4.768-1.568 7.296-4.256h.064V30h2.912V13.904h-2.912v9.44c-2.208 2.656-4.48 4.16-6.208 4.16-2.176 0-3.424-2.432-3.424-7.648 0-1.984.096-3.968.256-5.952H94.2c-.16 2.752-.32 5.504-.32 8.288 0 4.896 1.92 8.192 5.28 8.192ZM122.68 30.352c3.68 0 6.848-3.168 6.848-8.416 0-5.024-3.168-8.384-6.944-8.384-2.208 0-4.768 1.216-6.432 3.936h-.064V5.904H113.4V30h2.688v-3.616h.064c1.536 2.656 4.192 3.968 6.528 3.968Zm-6.304-8.416c0-4 3.168-6.144 5.344-6.144 2.464 0 4.672 2.144 4.672 6.144 0 3.968-2.208 6.112-4.672 6.112-2.176 0-5.344-2.144-5.344-6.112ZM138.136 30.384c3.552 0 6.848-1.344 6.848-4.16 0-2.752-3.264-4.224-6.176-5.216-2.304-.832-4.512-1.856-4.512-3.392 0-1.184 1.184-1.76 2.784-1.76 2.304 0 5.632 1.184 7.232 2.24v-2.528c-1.696-1.152-4.672-2.048-7.296-2.048-2.944 0-5.568 1.088-5.568 3.904 0 2.976 3.008 4.48 6.336 5.632 2.336.832 4.384 1.632 4.384 3.072 0 1.248-1.824 1.92-3.968 1.92-2.4 0-5.344-.864-6.816-1.696v2.528c1.888.928 4.352 1.504 6.752 1.504ZM154.712 30.384c1.76 0 3.744-.544 5.824-1.76v-2.528c-1.888 1.216-3.68 1.824-5.184 1.824-3.424 0-5.472-2.88-5.472-5.984 0-3.072 1.952-5.984 5.44-5.984 1.504 0 3.296.608 5.216 1.856V15.28c-2.048-1.216-4.032-1.76-5.792-1.76-4.736 0-8.064 3.904-8.064 8.416 0 4.448 3.232 8.448 8.032 8.448ZM163.48 30h2.912v-8.48c1.312-3.296 2.752-5.44 4.672-5.44 1.024 0 2.176.544 3.488 1.728V15.28c-1.344-1.184-2.496-1.76-3.552-1.76-1.632 0-3.072 1.376-4.544 4h-.064v-3.616h-2.912V30ZM177.08 30h2.912V13.904h-2.912V30Zm-.64-20.416c0 1.12.96 2.08 2.08 2.08 1.248 0 2.112-.96 2.112-2.08s-.864-2.112-2.112-2.112c-1.12 0-2.08.992-2.08 2.112ZM183.96 36.4h2.688V26.352h.064c1.6 2.816 4.352 4 6.528 4 4.064 0 6.848-3.68 6.848-8.416 0-5.12-3.264-8.384-6.944-8.384-2.336 0-4.864 1.312-6.432 3.936h-.064v-3.584h-2.688V36.4Zm2.976-14.464c0-3.968 3.168-6.112 5.344-6.112 2.432 0 4.64 2.144 4.64 6.112s-2.208 6.112-4.64 6.112c-2.176 0-5.344-2.144-5.344-6.112ZM208.6 30.384c1.344 0 3.136-.64 4.832-2.048v-2.944c-1.376 1.44-2.88 2.24-4.128 2.24-1.472 0-2.528-1.12-2.528-3.168v-8.256h6.624v-2.304h-6.624v-4h-2.912v4h-2.24v2.304h2.24V25.2c0 2.944 1.92 5.184 4.736 5.184ZM216.312 30h2.912V13.904h-2.912V30Zm-.64-20.416c0 1.12.96 2.08 2.08 2.08 1.248 0 2.112-.96 2.112-2.08s-.864-2.112-2.112-2.112c-1.12 0-2.08.992-2.08 2.112ZM230.584 30.384c5.056 0 8.384-4 8.384-8.448 0-4.48-3.328-8.416-8.384-8.416-5.024 0-8.352 3.968-8.352 8.416 0 4.48 3.328 8.448 8.352 8.448Zm-5.152-8.448c0-3.872 2.112-6.112 5.152-6.112 3.072 0 5.184 2.208 5.184 6.112 0 3.872-2.112 6.112-5.184 6.112-3.04 0-5.152-2.208-5.152-6.112ZM241.976 30h2.912v-9.44c2.208-2.656 4.48-4.192 6.208-4.192 2.208 0 3.488 2.464 3.488 7.68V30h2.912c.032-1.568.032-2.976.032-5.824 0-9.728-3.04-10.656-5.28-10.656-2.176 0-4.8 1.536-7.296 4.224h-.064v-3.84h-2.912V30Z"/></g></svg>