<svg xmlns="http://www.w3.org/2000/svg" width="320" height="40"><g fill="#424345" fill-rule="nonzero"><path d="M24.24 36.72V35.6c-6.432 0-7.744-.288-7.84-5.44 5.728-.96 9.664-6.368 9.664-11.84 0-6.048-4.8-12-11.488-12S3.12 12.272 3.12 18.32s4.768 12 11.456 12h.544c.16 5.856 2.368 6.4 9.12 6.4ZM4.4 18.32c0-5.792 4.224-10.88 10.176-10.88s10.208 5.088 10.208 10.88c0 5.664-4.256 10.88-10.208 10.88S4.4 23.984 4.4 18.32ZM34.192 30.32c2.208 0 5.024-1.504 8.224-4.96h.064V30h1.184V14H42.48v9.6c-2.752 3.52-5.728 5.6-8.064 5.6-2.592 0-4.448-2.56-4.448-8.608 0-2.208.128-4.384.32-6.592h-1.184c-.192 2.528-.32 5.024-.32 7.552 0 5.216 2.016 8.768 5.408 8.768ZM50.704 30.32c2.944 0 6.688-1.952 8.48-4.928h.064V30h1.184v-8.032c0-6.304-2.528-8.288-6.176-8.288-2.272 0-4.928.736-7.712 1.728v1.12c2.176-.896 5.088-1.728 7.552-1.728 2.368 0 4.32.8 4.768 3.072-8.48 1.92-12.32 5.12-12.32 8.416 0 2.816 1.824 4.032 4.16 4.032Zm-2.944-3.904c0-2.88 2.72-5.472 11.264-7.424.224 1.312.288 2.592.288 3.904-.768 3.424-5.472 6.4-8.64 6.4-1.664 0-2.912-.832-2.912-2.88ZM70.096 30.32c2.4 0 5.344-1.408 7.136-4.608h.064V30h1.184V6h-1.184v12.288h-.064c-1.792-3.2-4.736-4.608-7.136-4.608-4 0-7.104 3.616-7.104 8.32 0 4.704 3.104 8.32 7.104 8.32ZM64.176 22c0-4.512 2.88-7.2 5.984-7.2 2.688 0 7.04 2.688 7.04 7.2 0 4.512-4.352 7.2-7.04 7.2-3.104 0-5.984-2.688-5.984-7.2ZM82.64 30h1.184v-8.416c.96-4.032 2.528-6.784 4.736-6.784 1.056 0 2.272.672 3.648 2.144v-1.44c-1.344-1.216-2.592-1.824-3.744-1.824-1.824 0-3.392 1.568-4.576 4.608h-.064V14H82.64v16ZM97.648 30.32c2.944 0 6.688-1.952 8.48-4.928h.064V30h1.184v-8.032c0-6.304-2.528-8.288-6.176-8.288-2.272 0-4.928.736-7.712 1.728v1.12c2.176-.896 5.088-1.728 7.552-1.728 2.368 0 4.32.8 4.768 3.072-8.48 1.92-12.32 5.12-12.32 8.416 0 2.816 1.824 4.032 4.16 4.032Zm-2.944-3.904c0-2.88 2.72-5.472 11.264-7.424.224 1.312.288 2.592.288 3.904-.768 3.424-5.472 6.4-8.64 6.4-1.664 0-2.912-.832-2.912-2.88ZM110.896 36.4h1.184V25.712h.064c1.792 3.2 4.736 4.608 7.136 4.608 4 0 7.104-3.616 7.104-8.32 0-4.704-3.104-8.32-7.104-8.32-2.4 0-5.344 1.408-7.136 4.608h-.064V14h-1.184v22.4Zm1.28-14.4c0-4.512 4.352-7.2 7.04-7.2 3.104 0 5.984 2.688 5.984 7.2 0 4.512-2.88 7.2-5.984 7.2-2.688 0-7.04-2.688-7.04-7.2ZM129.584 30h1.184v-9.6c2.752-3.52 5.728-5.6 8.064-5.6 2.592 0 4.448 2.56 4.448 8.608V30h1.184v-7.552c0-5.216-2.016-8.768-5.408-8.768-2.208 0-5.024 1.504-8.224 4.96h-.064V6h-1.184v24ZM155.248 30.32c4.672 0 8.064-3.776 8.064-8.352 0-4.576-3.392-8.288-8.064-8.288-4.672 0-8.064 3.744-8.064 8.32 0 4.576 3.392 8.32 8.064 8.32ZM148.464 22c0-4.384 2.784-7.2 6.784-7.2s6.784 2.784 6.784 7.168-2.784 7.232-6.784 7.232-6.784-2.816-6.784-7.2ZM166.512 30h1.184v-9.6c2.752-3.52 5.728-5.6 8.064-5.6 2.592 0 4.448 2.56 4.448 8.608V30h1.184v-6.464c0-9.088-3.68-9.856-5.408-9.856-2.208 0-5.024 1.504-8.224 4.96h-.064V14h-1.184v16ZM185.072 30h1.184V14h-1.184v16Zm-.768-20c0 .704.64 1.344 1.344 1.344.864 0 1.376-.64 1.376-1.344 0-.704-.512-1.376-1.376-1.376-.704 0-1.344.672-1.344 1.376ZM197.072 30.32c1.664 0 3.552-.544 5.6-1.824v-1.28c-2.016 1.408-3.84 1.984-5.408 1.984-4.128 0-6.528-3.68-6.528-7.2 0-3.584 2.208-7.2 6.368-7.2 1.568 0 3.456.576 5.568 1.984v-1.28c-2.016-1.28-3.904-1.824-5.568-1.824-4.64 0-7.648 4.32-7.648 8.32s2.912 8.32 7.616 8.32ZM208.432 30.32c2.944 0 6.688-1.952 8.48-4.928h.064V30h1.184v-8.032c0-6.304-2.528-8.288-6.176-8.288-2.272 0-4.928.736-7.712 1.728v1.12c2.176-.896 5.088-1.728 7.552-1.728 2.368 0 4.32.8 4.768 3.072-8.48 1.92-12.32 5.12-12.32 8.416 0 2.816 1.824 4.032 4.16 4.032Zm-2.944-3.904c0-2.88 2.72-5.472 11.264-7.424.224 1.312.288 2.592.288 3.904-.768 3.424-5.472 6.4-8.64 6.4-1.664 0-2.912-.832-2.912-2.88ZM225.616 30.32c1.28 0 2.72-.672 4.128-2.24v-1.44c-1.344 1.696-2.912 2.56-4.192 2.56-1.536 0-2.688-1.152-2.688-3.456V6h-1.184v19.744c0 2.592 1.696 4.576 3.936 4.576ZM236.24 30.32c1.28 0 2.72-.672 4.128-2.24v-1.44c-1.344 1.696-2.912 2.56-4.192 2.56-1.536 0-2.688-1.152-2.688-3.456V6h-1.184v19.744c0 2.592 1.696 4.576 3.936 4.576ZM248.528 36.72c4.992 0 7.648-1.696 7.648-11.328V14h-1.184v8.832c-1.792 3.904-4.352 6.368-7.232 6.368-2.592 0-4.448-2.56-4.448-8.608 0-2.208.128-4.384.32-6.592h-1.184c-.192 2.528-.32 5.024-.32 7.552 0 5.216 2.016 8.768 5.536 8.768 2.592 0 5.408-1.92 7.264-4.928h.064c0 8.672-1.632 10.208-6.624 10.208-1.664 0-3.648-.672-5.952-2.08v1.28c2.336 1.312 4.384 1.92 6.112 1.92Z"/></g></svg>