<svg xmlns="http://www.w3.org/2000/svg" width="320" height="40"><g fill="#424345" fill-rule="nonzero"><path d="M13.936 30.352c2.144 0 4.608-.768 7.136-2.304v-2.144C18.928 27.44 16.304 28.4 14 28.4c-4.16 0-8.544-2.784-8.544-10.112 0-7.36 4.384-10.112 8.544-10.112 2.336 0 4.96.96 7.072 2.496V8.528c-2.528-1.504-5.12-2.304-7.328-2.304-5.44 0-10.624 4.288-10.624 12.064 0 7.808 5.12 12.064 10.816 12.064ZM24.176 30h2.08V13.936h-2.08V30Zm-.704-20.224c0 .928.8 1.728 1.728 1.728 1.056 0 1.728-.8 1.728-1.728 0-.896-.672-1.728-1.728-1.728-.928 0-1.728.832-1.728 1.728ZM30.288 30h2.08v-8.448c1.12-3.68 2.624-6.112 4.704-6.112 1.024 0 2.208.608 3.552 1.952v-1.984c-1.344-1.216-2.528-1.824-3.648-1.824-1.728 0-3.232 1.472-4.544 4.32h-.064v-3.968h-2.08V30ZM50.032 30.352c1.728 0 3.648-.544 5.728-1.792v-1.92c-1.952 1.344-3.776 1.92-5.312 1.92-3.776 0-6.016-3.296-6.016-6.592 0-3.328 2.112-6.592 5.92-6.592 1.536 0 3.36.576 5.408 1.92v-1.92c-2.048-1.248-3.968-1.792-5.696-1.792-4.672 0-7.872 4.128-7.872 8.384 0 4.224 3.072 8.384 7.84 8.384ZM63.536 30.352c2.176 0 4.896-1.536 7.744-4.608h.064V30h2.08V13.936h-2.08v9.536c-2.464 3.072-5.088 4.896-7.104 4.896-2.4 0-3.936-2.528-3.936-8.16 0-2.08.096-4.16.256-6.272h-2.048c-.192 2.656-.32 5.28-.32 7.936 0 5.056 1.984 8.48 5.344 8.48ZM77.456 30h2.08v-9.376c2.272-3.232 4.608-5.024 6.24-5.024 2.208 0 3.712 2.592 3.712 7.616V30h2.048v-9.984C94.608 16.56 96.4 15.6 98.032 15.6c2.432 0 3.52 3.424 3.52 7.616V30h2.048v-7.936c0-5.536-2.08-8.48-5.024-8.48-2.24 0-4.768 1.6-7.456 4.64-.864-3.232-2.624-4.64-4.704-4.64-2.08 0-4.704 2.016-6.816 4.608h-.064v-4.256h-2.08V30ZM112.4 30.352c3.488 0 6.784-1.248 6.784-4.096 0-2.56-3.232-3.936-6.208-5.024-2.528-.928-4.928-2.08-4.928-3.872 0-1.376 1.344-2.048 3.2-2.048 2.432 0 5.664 1.28 7.296 2.4v-1.984c-1.632-1.184-4.64-2.144-7.264-2.144-2.816 0-5.248 1.088-5.248 3.808 0 2.944 3.232 4.384 6.464 5.536 2.496.896 4.736 1.824 4.736 3.456 0 1.44-2.144 2.24-4.576 2.24-2.464 0-5.184-.864-6.656-1.728v1.984c1.632.928 4.032 1.472 6.4 1.472ZM126.96 30.352c1.312 0 2.912-.672 4.448-2.144V26c-1.344 1.568-2.88 2.432-4.128 2.432-1.504 0-2.624-1.152-2.624-3.328v-9.44h6.752v-1.728h-6.752v-4h-2.048v4h-2.24v1.728h2.24v9.792c0 2.784 1.824 4.896 4.352 4.896ZM137.264 30.352c2.848 0 6.272-1.824 7.968-4.576h.064V30h2.048v-7.2c0-7.04-2.56-9.216-6.368-9.216-2.368 0-5.088.704-7.872 1.728v1.856c2.08-.896 5.152-1.856 7.584-1.856 2.144 0 3.904.736 4.288 2.752-8.096 1.6-11.904 4.736-11.904 8.128 0 2.784 1.792 4.16 4.192 4.16Zm-2.08-4.32c0-2.624 2.432-4.928 9.92-6.528.192 1.12.256 2.208.256 3.328-.64 3.296-4.672 5.888-7.488 5.888-1.536 0-2.688-.832-2.688-2.688ZM150.736 30h2.08v-9.536c2.464-3.072 5.088-4.864 7.136-4.864 2.368 0 3.968 2.496 3.968 8.128V30h2.048v-6.144c0-9.408-3.36-10.272-5.344-10.272-2.176 0-4.896 1.536-7.744 4.608h-.064v-4.256h-2.08V30ZM174.64 30.352c1.312 0 2.912-.672 4.448-2.144V26c-1.344 1.568-2.88 2.432-4.128 2.432-1.504 0-2.624-1.152-2.624-3.328v-9.44h6.752v-1.728h-6.752v-4h-2.048v4h-2.24v1.728h2.24v9.792c0 2.784 1.824 4.896 4.352 4.896ZM181.904 30h2.08V13.936h-2.08V30ZM181.2 9.776c0 .928.8 1.728 1.728 1.728 1.056 0 1.728-.8 1.728-1.728 0-.896-.672-1.728-1.728-1.728-.928 0-1.728.832-1.728 1.728ZM191.056 30.352c2.848 0 6.272-1.824 7.968-4.576h.064V30h2.048v-7.2c0-7.04-2.56-9.216-6.368-9.216-2.368 0-5.088.704-7.872 1.728v1.856c2.08-.896 5.152-1.856 7.584-1.856 2.144 0 3.904.736 4.288 2.752-8.096 1.6-11.904 4.736-11.904 8.128 0 2.784 1.792 4.16 4.192 4.16Zm-2.08-4.32c0-2.624 2.432-4.928 9.92-6.528.192 1.12.256 2.208.256 3.328-.64 3.296-4.672 5.888-7.488 5.888-1.536 0-2.688-.832-2.688-2.688ZM209.616 30.352c1.312 0 2.912-.672 4.448-2.144V26c-1.344 1.568-2.88 2.432-4.128 2.432-1.504 0-2.624-1.152-2.624-3.328v-9.44h6.752v-1.728h-6.752v-4h-2.048v4h-2.24v1.728h2.24v9.792c0 2.784 1.824 4.896 4.352 4.896ZM216.88 30h2.08V13.936h-2.08V30Zm-.704-20.224c0 .928.8 1.728 1.728 1.728 1.056 0 1.728-.8 1.728-1.728 0-.896-.672-1.728-1.728-1.728-.928 0-1.728.832-1.728 1.728ZM230.256 30.352c4.864 0 8.224-3.904 8.224-8.416 0-4.512-3.36-8.352-8.224-8.352-4.864 0-8.224 3.872-8.224 8.384 0 4.512 3.36 8.384 8.224 8.384Zm-5.984-8.384c0-4.128 2.464-6.656 5.984-6.656s5.984 2.496 5.984 6.624c0 4.16-2.464 6.688-5.984 6.688s-5.984-2.528-5.984-6.656ZM241.552 30h2.08v-9.536c2.464-3.072 5.088-4.864 7.136-4.864 2.368 0 3.968 2.496 3.968 8.128V30h2.048v-6.144c0-9.408-3.36-10.272-5.344-10.272-2.176 0-4.896 1.536-7.744 4.608h-.064v-4.256h-2.08V30Z"/></g></svg>