<svg xmlns="http://www.w3.org/2000/svg" width="320" height="40"><g fill="#424345" fill-rule="nonzero"><path d="M13.24 30.384c3.104 0 5.824-.768 8.544-2.144v-4.096c-3.072 1.92-6.208 2.848-8.8 2.848-5.056 0-6.624-3.04-6.624-8.576 0-1.12.992-1.504 2.336-1.504 2.08 0 5.376 1.184 7.872 2.304V15.92H6.36V9.552c5.152.16 10.176.544 15.424 1.504V6.64H5.24v13.792c0 7.04 2.368 9.952 8 9.952ZM24.312 30h2.944c-.032-.512-.032-.992-.032-1.44 0-3.392 1.024-5.216 4.544-5.888 3.552.8 4.384 2.624 4.384 5.024 0 .672-.096 1.44-.256 2.304h4.096c0-4.832-2.944-7.072-5.888-7.776 4.032-.96 5.824-5.632 5.824-8.256h-2.944c.064.512.064.992.064 1.44 0 3.392-1.056 5.696-4.576 6.368-3.584-1.024-4.352-3.264-4.352-5.6 0-.64.096-1.376.224-2.208h-4.096c0 4.896 3.2 7.424 6.272 8.192-4.096.896-6.208 5.248-6.208 7.84ZM49.944 30.384c2.304 0 4.544-.48 6.72-1.696v-3.456c-3.04 1.6-5.248 2.4-7.808 2.4-3.904 0-5.568-2.336-5.568-5.312.576-3.296 3.104-6.016 7.072-6.016 1.92 0 4 .704 6.304 2.464v-3.456c-2.176-1.216-4.32-1.696-6.4-1.696-4.672 0-8.288 3.008-8.288 8.384 0 5.696 3.936 8.384 7.968 8.384ZM67.288 30.384c4.672 0 8.352-3.296 8.352-8.416 0-5.088-3.68-8.352-8.352-8.352-4.704 0-8.384 3.264-8.384 8.352 0 5.12 3.68 8.416 8.384 8.416Zm-7.072-8.032c0-2.72 3.488-6.048 8.384-6.048 3.68 0 5.696 2.304 5.696 5.344 0 2.688-3.424 5.984-8.288 5.984-3.776 0-5.792-2.272-5.792-5.28ZM78.52 30h1.12c0-8.928 3.584-13.184 6.688-13.184 2.368 0 4.48 2.4 4.48 7.072 0 2.048-.288 4.064-.608 6.112h1.376c.384-8.928 3.808-13.184 6.912-13.184 3.008 0 4.544 3.328 4.544 7.616 0 1.984-.288 4.064-.704 5.568h1.632c.48-1.888.704-3.648.704-5.28 0-6.752-2.688-11.072-5.888-11.072-1.984 0-4.704 2.048-6.72 6.592-.896-4.128-3.008-6.592-5.44-6.592-2.208 0-4.704 2.048-6.688 6.752h-.064c.096-2.144.416-4.256.896-6.4h-2.24c.16 2.656.224 5.312.224 8 0 2.688-.064 5.312-.224 8ZM107.864 30h1.12c0-8.928 3.584-13.184 6.688-13.184 2.368 0 4.48 2.4 4.48 7.072 0 2.048-.288 4.064-.608 6.112h1.376c.384-8.928 3.808-13.184 6.912-13.184 3.008 0 4.544 3.328 4.544 7.616 0 1.984-.288 4.064-.704 5.568h1.632c.48-1.888.704-3.648.704-5.28 0-6.752-2.688-11.072-5.888-11.072-1.984 0-4.704 2.048-6.72 6.592-.896-4.128-3.008-6.592-5.44-6.592-2.208 0-4.704 2.048-6.688 6.752h-.064c.096-2.144.416-4.256.896-6.4h-2.24c.16 2.656.224 5.312.224 8 0 2.688-.064 5.312-.224 8ZM143.608 30.384c2.464 0 4.928-1.888 7.072-6.784h.096c-.128 2.144-.512 4.256-1.024 6.4h2.24c-.16-2.656-.224-5.312-.224-8 0-2.688.064-5.312.224-8h-1.12c0 9.184-3.424 13.312-6.944 13.312-2.976 0-5.728-2.88-5.728-8.096 0-1.76.256-3.616.736-5.216h-1.664c-.48 1.888-.704 3.648-.704 5.28 0 6.848 3.2 11.104 7.04 11.104ZM155.832 30h1.12c0-9.184 3.424-13.312 6.976-13.312 2.976 0 5.728 2.88 5.728 8.096 0 1.76-.288 3.616-.736 5.216h1.632c.48-1.888.704-3.648.704-5.28 0-6.848-3.168-11.104-7.04-11.104-2.464 0-4.832 1.888-6.976 6.784h-.064c.128-2.144.448-4.256.896-6.4h-2.24c.16 2.656.224 5.312.224 8 0 2.688-.064 5.312-.224 8ZM174.456 30h3.04c-1.056-2.496-1.92-5.312-1.92-7.456 0-3.552 2.208-5.6 2.592-8.544h-3.712c.16 2.656.16 5.312.16 8 0 2.688 0 5.312-.16 8Zm-.16-20.896c0 1.28.832 2.016 1.888 2.016 1.344 0 2.368-.96 2.368-2.272 0-1.184-.8-2.048-1.984-2.048-1.248 0-2.272.992-2.272 2.304ZM188.216 30.384c2.304 0 4.544-.48 6.72-1.696v-3.456c-3.04 1.6-5.248 2.4-7.808 2.4-3.904 0-5.568-2.336-5.568-5.312.576-3.296 3.104-6.016 7.072-6.016 1.92 0 4 .704 6.304 2.464v-3.456c-2.176-1.216-4.32-1.696-6.4-1.696-4.672 0-8.288 3.008-8.288 8.384 0 5.696 3.936 8.384 7.968 8.384ZM203.288 30.384c3.392 0 5.984-2.112 8.096-6.784h.064c-.128 2.144-.672 4.256-1.184 6.4h2.24c.064-2.496.064-5.408.064-8.096 0-5.088-1.024-8.288-6.304-8.288-2.336 0-5.536.576-8.768 1.696v3.616c3.488-1.824 7.136-3.232 10.016-3.232 2.144 0 3.552.832 3.84 2.72-10.752 3.456-13.824 4.864-13.824 5.696 0 4.032 2.336 6.272 5.76 6.272Zm-3.296-6.24c0-.48 2.176-1.76 11.36-4.608-.576 5.44-3.328 8-7.456 8-1.888 0-3.904-1.408-3.904-3.392ZM221.752 30.384c1.28 0 3.232-.864 4.544-1.792v-3.648c-1.76 1.6-3.808 2.528-5.28 2.528-2.56 0-3.968-2.4-3.968-10.816 0-1.28.928-1.696 2.176-1.696 1.6 0 4.128.768 7.072 2.656V14h-9.088c.224-1.216.48-2.368.864-3.456h-2.24c.064 2.016.064 3.808.064 5.76 0 9.6.896 14.08 5.856 14.08ZM236.76 30.384c4.672 0 8.352-3.296 8.352-8.416 0-5.088-3.68-8.352-8.352-8.352-4.704 0-8.384 3.264-8.384 8.352 0 5.12 3.68 8.416 8.384 8.416Zm-7.072-8.032c0-2.72 3.488-6.048 8.384-6.048 3.68 0 5.696 2.304 5.696 5.344 0 2.688-3.424 5.984-8.288 5.984-3.776 0-5.792-2.272-5.792-5.28ZM247.992 30h1.856c-.32-1.216-.576-2.592-.576-3.936.224-5.024 2.432-8.864 5.984-8.864 1.376 0 2.912.576 4.448 1.728v-3.616c-1.12-1.024-2.464-1.664-3.712-1.664-2.368 0-4.672 1.888-6.688 5.696h-.064c.16-1.792.512-3.552.992-5.344h-2.24c.16 2.656.224 5.312.224 8 0 2.688-.064 5.312-.224 8Z"/></g></svg>