<svg xmlns="http://www.w3.org/2000/svg" width="388" height="490"><path fill="#E7E6DF" fill-rule="nonzero" d="M286.901 490C340.866 490 388 463.458 388 396.764c0-44.917-31.423-78.264-92.901-104.125-34.155-14.292-64.895-31.986-64.895-55.806 0-31.305 47.134-38.791 117.493-38.791C347.697 61.93 258.894 0 177.606 0c-67.627 0-129.79 43.556-129.79 123.18v36.75H0v48.32h47.817v274.944h51.232V123.181c0-51.723 36.205-75.542 77.19-75.542 51.233 0 109.296 37.43 112.712 105.486-70.36 0-114.76 44.236-114.76 91.194 0 36.07 25.274 72.14 81.288 92.556 43.035 15.653 76.507 34.028 76.507 63.292 0 29.944-19.127 41.514-42.352 41.514-36.888 0-82.655-22.459-117.493-49l-31.423 38.11C176.24 464.14 236.352 490 286.901 490Z" opacity=".504" style="mix-blend-mode:multiply"/></svg>