<svg xmlns="http://www.w3.org/2000/svg" width="1280" height="180"><g fill="#424345" fill-rule="nonzero"><path d="M124 125h37.05c24.9 0 37.2-13.65 37.2-29.25 0-11.25-6.3-21.9-19.2-27 5.1-5.1 7.8-12 7.8-18.75 0-13.2-10.35-26.25-28.35-26.25H124V125Zm12-11.25v-36.9h25.95c15.75 0 23.55 9.3 23.55 18.3s-7.8 18.6-23.55 18.6H136Zm0-48.15V35h23.25c9.9 0 14.85 7.95 14.85 15.45 0 7.35-4.95 15.15-14.85 15.15H136ZM217 125h11.25V20H217zM283.15 126.5c23.1 0 34.5-18.6 34.5-37.2 0-18.45-11.4-37.05-34.5-37.05S248.5 70.85 248.5 89.3c0 18.6 11.55 37.2 34.65 37.2ZM260.8 89.3c0-13.2 7.5-26.4 22.35-26.4 14.85 0 22.2 13.2 22.2 26.4 0 13.35-7.35 26.55-22.2 26.55s-22.35-13.2-22.35-26.55ZM367.3 126.5c23.1 0 34.5-18.6 34.5-37.2 0-18.45-11.4-37.05-34.5-37.05s-34.65 18.6-34.65 37.05c0 18.6 11.55 37.2 34.65 37.2Zm-22.35-37.2c0-13.2 7.5-26.4 22.35-26.4 14.85 0 22.2 13.2 22.2 26.4 0 13.35-7.35 26.55-22.2 26.55s-22.35-13.2-22.35-26.55ZM446.65 126.5c7.35 0 14.85-2.85 21.75-8.85V125h11.25V20H468.4v38.7c-7.2-4.65-14.1-6.45-20.25-6.45-18.9 0-31.35 18.15-31.35 37.05 0 23.7 14.1 37.2 29.85 37.2ZM429.1 89.3c0-16.8 9.45-26.55 21.3-26.55 5.7 0 12 2.4 18 7.5v34.95c-7.95 7.2-15.45 10.65-21.75 10.65-10.5 0-17.55-9.45-17.55-26.55ZM509.95 159.5c8.7 0 12.45-6.6 16.35-15.75l38.55-90H553l-23.25 53.55-23.1-53.55h-12l29.55 67.05-9.6 21.45c-1.95 4.5-3.75 6-7.05 6-1.8 0-4.95-1.5-7.8-3.75l-5.1 9.6c4.95 3.3 10.35 5.4 15.3 5.4ZM618.1 125h12V90.65h22.35c24.6 0 36.9-16.8 36.9-33.45 0-16.8-12.3-33.45-36.9-33.45H618.1V125Zm12-45.6V35h23.25c15.6 0 23.25 11.1 23.25 22.2s-7.65 22.2-23.25 22.2H630.1ZM733.45 126.5c7.35 0 15-3 21.75-9.3v7.8h11.25V53.75H755.2V64.1c-7.35-8.25-15.45-11.85-22.95-11.85-15.45 0-28.65 14.4-28.65 37.5 0 22.5 13.95 36.75 29.85 36.75ZM715.9 88.85c0-13.8 6.3-25.95 16.35-25.95 8.1 0 14.4 4.5 22.95 16.5v25.2c-7.65 7.5-15.3 11.25-21.9 11.25-10.2 0-17.4-8.85-17.4-27ZM791.95 125h11.25V73.85c10.35-6.9 19.8-10.95 26.55-10.95 7.35 0 11.7 4.95 11.7 16.95V125h11.25V77.75c0-18.3-10.05-25.5-22.8-25.5-8.4 0-18.15 4.5-26.7 9.9v-8.4h-11.25V125ZM899.8 126.5c7.35 0 14.85-2.85 21.75-8.85V125h11.25V20h-11.25v38.7c-7.2-4.65-14.1-6.45-20.25-6.45-18.9 0-31.35 18.15-31.35 37.05 0 23.7 14.1 37.2 29.85 37.2Zm-17.55-37.2c0-16.8 9.45-26.55 21.3-26.55 5.7 0 12 2.4 18 7.5v34.95c-7.95 7.2-15.45 10.65-21.75 10.65-10.5 0-17.55-9.45-17.55-26.55ZM987.7 126.5c23.1 0 34.5-18.6 34.5-37.2 0-18.45-11.4-37.05-34.5-37.05s-34.65 18.6-34.65 37.05c0 18.6 11.55 37.2 34.65 37.2Zm-22.35-37.2c0-13.2 7.5-26.4 22.35-26.4 14.85 0 22.2 13.2 22.2 26.4 0 13.35-7.35 26.55-22.2 26.55s-22.35-13.2-22.35-26.55ZM1042.45 125h11.25V83.75c6.3-10.95 13.5-20.85 27.9-20.85.75 0 1.5 0 2.4.15v-10.2c-1.5-.45-2.85-.6-4.35-.6-13.35 0-20.7 7.35-25.95 15.9v-14.4h-11.25V125ZM1123.6 126.5c7.35 0 15-3 21.75-9.3v7.8h11.25V53.75h-11.25V64.1c-7.35-8.25-15.45-11.85-22.95-11.85-15.45 0-28.65 14.4-28.65 37.5 0 22.5 13.95 36.75 29.85 36.75Zm-17.55-37.65c0-13.8 6.3-25.95 16.35-25.95 8.1 0 14.4 4.5 22.95 16.5v25.2c-7.65 7.5-15.3 11.25-21.9 11.25-10.2 0-17.4-8.85-17.4-27Z"/></g></svg>