<svg xmlns="http://www.w3.org/2000/svg" width="386" height="368"><g fill="#424345" fill-rule="nonzero"><path d="M1.89 18.5h4.62c4.032 0 7.35-3.024 7.35-7.077 0-4.032-3.318-7.098-7.35-7.098H1.89V18.5Zm1.68-1.575V5.9h3.045c3.633 0 5.46 2.793 5.46 5.502 0 2.73-1.827 5.523-5.46 5.523H3.57ZM20.811 18.71c3.234 0 4.83-2.604 4.83-5.208 0-2.583-1.596-5.187-4.83-5.187s-4.851 2.604-4.851 5.187c0 2.604 1.617 5.208 4.851 5.208Zm-3.129-5.208c0-1.848 1.05-3.696 3.129-3.696 2.079 0 3.108 1.848 3.108 3.696 0 1.869-1.029 3.717-3.108 3.717s-3.129-1.848-3.129-3.717ZM28.476 18.5h1.575v-3.297l1.617-1.659 3.213 4.956h1.848l-3.99-6.048 3.801-3.927h-2.079l-4.41 4.557V3.8h-1.575zM41.706 18.71c1.176 0 2.541-.63 3.738-1.386V18.5h1.575V8.525h-1.575v7.161c-1.449.966-2.772 1.533-3.717 1.533-1.029 0-1.638-.693-1.638-2.373V8.525h-1.575v6.615c0 2.562 1.407 3.57 3.192 3.57ZM50.589 18.5h1.575v-7.077c1.386-.945 2.478-1.617 3.255-1.617.735 0 1.155.651 1.155 2.373V18.5h1.575v-6.615c0-.357-.021-.693-.063-.987 1.113-.672 2.121-1.113 2.919-1.113.945 0 1.554.651 1.554 2.394V18.5h1.575v-6.615c0-2.478-1.071-3.57-2.709-3.57-1.05 0-2.331.441-3.717 1.239-.42-.861-1.155-1.239-2.037-1.239-1.008 0-2.268.504-3.507 1.365V8.525h-1.575V18.5ZM70.98 18.71c1.323 0 2.625-.462 4.032-1.218l-.756-1.281c-1.134.63-2.205 1.008-3.129 1.008-1.491 0-2.583-.966-2.814-2.835h7.14v-.651c0-3.633-2.226-5.418-4.452-5.418s-4.452 1.659-4.452 5.292c0 3.486 1.953 5.103 4.431 5.103Zm-2.667-5.817c.231-2.1 1.491-3.087 2.772-3.087 1.26 0 2.52 1.029 2.835 3.087h-5.607ZM77.973 18.5h1.575v-7.161c1.449-.966 2.772-1.533 3.717-1.533 1.029 0 1.638.693 1.638 2.373V18.5h1.575v-6.615c0-2.562-1.407-3.57-3.192-3.57-1.176 0-2.541.63-3.738 1.386V8.525h-1.575V18.5ZM92.736 18.71c.987 0 2.058-.63 3.024-1.806l-.966-1.134c-.819.945-1.596 1.449-2.205 1.449-.714 0-1.071-.693-1.071-2.184v-5.019h3.276V8.525h-3.276v-2.1h-1.575v2.1h-1.47v1.491h1.47v5.565c0 2.184 1.26 3.129 2.793 3.129ZM103.005 16.925V18.5h9.135v-1.575h-7.308c.21-2.289 2.016-3.423 3.78-4.515 1.806-1.113 3.57-2.352 3.57-4.641 0-1.806-1.491-3.654-3.99-3.654-1.659 0-3.528.693-5.187 1.89l.714 1.512c1.428-1.029 3.255-1.827 4.62-1.827 1.197 0 2.058.588 2.058 2.163 0 1.533-1.449 2.583-3.087 3.633-2.037 1.302-4.305 2.793-4.305 5.439ZM119.28 18.71c3.066 0 4.599-2.436 4.599-4.851 0-2.436-1.533-4.851-4.578-4.851-1.05 0-2.163.336-3.15 1.05V5.9h6.972V4.325h-8.631v7.224l1.659.651c1.029-1.134 2.058-1.596 2.961-1.596 1.995 0 2.982 1.659 2.982 3.297 0 1.617-.966 3.234-2.898 3.234-1.323 0-2.919-.84-4.41-1.785l-.714 1.512c1.701 1.218 3.57 1.848 5.208 1.848ZM132.342 18.5h1.68v-3.36h1.47v-1.575h-1.47v-9.24h-1.68l-6.594 9.24v1.575h6.594v3.36Zm-4.62-4.935 4.62-6.447v6.447h-4.62ZM142.002 18.5h1.68l1.533-3.15h7.014l1.533 3.15h1.68L148.89 4.325h-.315L142.002 18.5Zm3.969-4.725 2.751-5.691 2.751 5.691h-5.502ZM161.973 18.71c3.234 0 4.83-2.604 4.83-5.208 0-2.583-1.596-5.187-4.83-5.187s-4.851 2.604-4.851 5.187c0 2.604 1.617 5.208 4.851 5.208Zm-3.129-5.208c0-1.848 1.05-3.696 3.129-3.696 2.079 0 3.108 1.848 3.108 3.696 0 1.869-1.029 3.717-3.108 3.717s-3.129-1.848-3.129-3.717ZM169.638 18.5h1.575v-7.161c1.449-.966 2.772-1.533 3.717-1.533 1.029 0 1.638.693 1.638 2.373V18.5h1.575v-6.615c0-2.562-1.407-3.57-3.192-3.57-1.176 0-2.541.63-3.738 1.386V8.525h-1.575V18.5ZM181.293 18.5h1.575V8.525h-1.575V18.5Zm-.357-13.23c0 .735.567 1.113 1.155 1.113.567 0 1.155-.378 1.155-1.113s-.588-1.113-1.155-1.113c-.588 0-1.155.378-1.155 1.113ZM189.882 18.71c1.029 0 2.1-.42 3.045-1.302V18.5h1.575V8.525h-1.575v1.449c-1.029-1.155-2.163-1.659-3.213-1.659-2.163 0-4.011 2.016-4.011 5.25 0 3.15 1.953 5.145 4.179 5.145Zm-2.457-5.271c0-1.932.882-3.633 2.289-3.633 1.134 0 2.016.63 3.213 2.31v3.528c-1.071 1.05-2.142 1.575-3.066 1.575-1.428 0-2.436-1.239-2.436-3.78ZM201.516 18.71c2.016 0 3.066-1.491 3.066-2.814 0-2.163-1.995-2.94-3.591-3.549-1.092-.42-1.995-.777-1.995-1.449 0-.63.483-1.113 1.365-1.113.966 0 2.247.525 3.297 1.512l.966-1.155c-1.344-1.134-2.751-1.806-4.221-1.806-1.386 0-3.087.819-3.087 2.709 0 1.449 1.029 2.163 3.234 2.94 1.764.63 2.352 1.344 2.352 1.953 0 .903-.546 1.281-1.302 1.281-1.05 0-2.499-.672-3.612-1.512l-.966 1.176c1.491 1.26 3.129 1.827 4.494 1.827ZM212.499 18.5h1.68v-4.809h3.129c3.444 0 5.166-2.352 5.166-4.683 0-2.352-1.722-4.683-5.166-4.683h-4.809V18.5Zm1.68-6.384V5.9h3.255c2.184 0 3.255 1.554 3.255 3.108s-1.071 3.108-3.255 3.108h-3.255ZM229.32 18.71c3.234 0 4.83-2.604 4.83-5.208 0-2.583-1.596-5.187-4.83-5.187s-4.851 2.604-4.851 5.187c0 2.604 1.617 5.208 4.851 5.208Zm-3.129-5.208c0-1.848 1.05-3.696 3.129-3.696 2.079 0 3.108 1.848 3.108 3.696 0 1.869-1.029 3.717-3.108 3.717s-3.129-1.848-3.129-3.717ZM240.429 18.71c1.029 0 2.079-.399 3.045-1.239V18.5h1.575V3.8h-1.575v5.418c-1.008-.651-1.974-.903-2.835-.903-2.646 0-4.389 2.541-4.389 5.187 0 3.318 1.974 5.208 4.179 5.208Zm-2.457-5.208c0-2.352 1.323-3.717 2.982-3.717.798 0 1.68.336 2.52 1.05v4.893c-1.113 1.008-2.163 1.491-3.045 1.491-1.47 0-2.457-1.323-2.457-3.717ZM252.315 18.71c1.323 0 2.625-.462 4.032-1.218l-.756-1.281c-1.134.63-2.205 1.008-3.129 1.008-1.491 0-2.583-.966-2.814-2.835h7.14v-.651c0-3.633-2.226-5.418-4.452-5.418s-4.452 1.659-4.452 5.292c0 3.486 1.953 5.103 4.431 5.103Zm-2.667-5.817c.231-2.1 1.491-3.087 2.772-3.087 1.26 0 2.52 1.029 2.835 3.087h-5.607ZM259.308 23.12h1.575v-5.313c1.008.651 1.974.903 2.835.903 2.646 0 4.389-2.331 4.389-5.061 0-3.318-1.848-5.334-4.011-5.334-1.05 0-2.184.504-3.213 1.659V8.525h-1.575V23.12Zm1.575-6.93v-4.074c1.197-1.68 2.079-2.31 3.213-2.31 1.407 0 2.289 1.701 2.289 3.57 0 2.709-1.323 3.864-2.982 3.864-.798 0-1.68-.336-2.52-1.05ZM274.386 18.71c2.016 0 3.066-1.491 3.066-2.814 0-2.163-1.995-2.94-3.591-3.549-1.092-.42-1.995-.777-1.995-1.449 0-.63.483-1.113 1.365-1.113.966 0 2.247.525 3.297 1.512l.966-1.155c-1.344-1.134-2.751-1.806-4.221-1.806-1.386 0-3.087.819-3.087 2.709 0 1.449 1.029 2.163 3.234 2.94 1.764.63 2.352 1.344 2.352 1.953 0 .903-.546 1.281-1.302 1.281-1.05 0-2.499-.672-3.612-1.512l-.966 1.176c1.491 1.26 3.129 1.827 4.494 1.827ZM283.458 18.71c1.029 0 2.1-.42 3.045-1.302V18.5h1.575V8.525h-1.575v1.449c-1.029-1.155-2.163-1.659-3.213-1.659-2.163 0-4.011 2.016-4.011 5.25 0 3.15 1.953 5.145 4.179 5.145Zm-2.667-12.411.378 1.008 6.132-2.31-.651-1.764-5.859 3.066Zm.21 7.14c0-1.932.882-3.633 2.289-3.633 1.134 0 2.016.63 3.213 2.31v3.528c-1.071 1.05-2.142 1.575-3.066 1.575-1.428 0-2.436-1.239-2.436-3.78ZM291.648 18.5h1.575v-7.161c1.449-.966 2.772-1.533 3.717-1.533 1.029 0 1.638.693 1.638 2.373V18.5h1.575v-6.615c0-2.562-1.407-3.57-3.192-3.57-1.176 0-2.541.63-3.738 1.386V8.525h-1.575V18.5ZM303.849 18.71c.63 0 1.134-.504 1.134-1.155s-.504-1.155-1.134-1.155c-.672 0-1.176.504-1.176 1.155s.504 1.155 1.176 1.155ZM313.278 18.5h9.177v-1.575h-7.497v-4.998h6.111v-1.575h-6.111V5.9h7.497V4.325h-9.177V18.5Zm.651-15.834.273 1.008 3.99-1.554 3.99 1.554.252-1.008-4.242-2.352-4.263 2.352ZM328.293 18.71c.987 0 2.058-.63 3.024-1.806l-.966-1.134c-.819.945-1.596 1.449-2.205 1.449-.714 0-1.071-.693-1.071-2.184v-5.019h3.276V8.525h-3.276v-2.1H325.5v2.1h-1.47v1.491h1.47v5.565c0 2.184 1.26 3.129 2.793 3.129ZM333.417 18.5h1.575v-5.775c.882-1.533 1.89-2.919 3.906-2.919.105 0 .21 0 .336.021V8.399a2.03 2.03 0 0 0-.609-.084c-1.869 0-2.898 1.029-3.633 2.226V8.525h-1.575V18.5ZM345.03 18.71c1.323 0 2.625-.462 4.032-1.218l-.756-1.281c-1.134.63-2.205 1.008-3.129 1.008-1.491 0-2.583-.966-2.814-2.835h7.14v-.651c0-3.633-2.226-5.418-4.452-5.418s-4.452 1.659-4.452 5.292c0 3.486 1.953 5.103 4.431 5.103Zm-2.667-5.817c.231-2.1 1.491-3.087 2.772-3.087 1.26 0 2.52 1.029 2.835 3.087h-5.607ZM1.89 50h1.68V38.723L11.823 50h1.659V35.825h-1.68v11.277L3.57 35.825H1.89zM20.853 50.21c1.323 0 2.625-.462 4.032-1.218l-.756-1.281c-1.134.63-2.205 1.008-3.129 1.008-1.491 0-2.583-.966-2.814-2.835h7.14v-.651c0-3.633-2.226-5.418-4.452-5.418s-4.452 1.659-4.452 5.292c0 3.486 1.953 5.103 4.431 5.103Zm-2.667-5.817c.231-2.1 1.491-3.087 2.772-3.087 1.26 0 2.52 1.029 2.835 3.087h-5.607ZM27.846 50h1.575v-9.975h-1.575V50Zm-.357-13.23c0 .735.567 1.113 1.155 1.113.567 0 1.155-.378 1.155-1.113s-.588-1.113-1.155-1.113c-.588 0-1.155.378-1.155 1.113ZM32.991 50h1.575V35.3h-1.575zM38.136 50h1.575V35.3h-1.575zM55.083 50.21a7.841 7.841 0 0 0 5.25-2.016l-1.05-1.344c-1.218 1.176-2.856 1.785-4.347 1.785-3.213 0-5.355-2.079-5.355-5.733 0-3.654 2.121-5.712 5.334-5.712 1.491 0 3.15.63 4.368 1.785l1.05-1.323a7.758 7.758 0 0 0-5.25-2.037c-4.746 0-7.287 3.234-7.287 7.308 0 4.095 2.541 7.287 7.287 7.287ZM65.625 50.21c1.176 0 2.541-.63 3.738-1.386V50h1.575v-9.975h-1.575v7.161c-1.449.966-2.772 1.533-3.717 1.533-1.029 0-1.638-.693-1.638-2.373v-6.321h-1.575v6.615c0 2.562 1.407 3.57 3.192 3.57ZM74.508 50h1.575v-5.775c.882-1.533 1.89-2.919 3.906-2.919.105 0 .21 0 .336.021v-1.428a2.03 2.03 0 0 0-.609-.084c-1.869 0-2.898 1.029-3.633 2.226v-2.016h-1.575V50ZM85.869 50.21c2.016 0 3.066-1.491 3.066-2.814 0-2.163-1.995-2.94-3.591-3.549-1.092-.42-1.995-.777-1.995-1.449 0-.63.483-1.113 1.365-1.113.966 0 2.247.525 3.297 1.512l.966-1.155c-1.344-1.134-2.751-1.806-4.221-1.806-1.386 0-3.087.819-3.087 2.709 0 1.449 1.029 2.163 3.234 2.94 1.764.63 2.352 1.344 2.352 1.953 0 .903-.546 1.281-1.302 1.281-1.05 0-2.499-.672-3.612-1.512l-.966 1.176c1.491 1.26 3.129 1.827 4.494 1.827ZM95.193 50.21c1.323 0 2.625-.462 4.032-1.218l-.756-1.281c-1.134.63-2.205 1.008-3.129 1.008-1.491 0-2.583-.966-2.814-2.835h7.14v-.651c0-3.633-2.226-5.418-4.452-5.418s-4.452 1.659-4.452 5.292c0 3.486 1.953 5.103 4.431 5.103Zm-2.667-5.817c.231-2.1 1.491-3.087 2.772-3.087 1.26 0 2.52 1.029 2.835 3.087h-5.607ZM107.541 50h1.68V38.786l5.019 7.959h.315l4.956-7.896V50h1.68V35.825h-1.68l-5.124 8.169-5.166-8.169h-1.68zM128.982 50.21c3.234 0 4.83-2.604 4.83-5.208 0-2.583-1.596-5.187-4.83-5.187s-4.851 2.604-4.851 5.187c0 2.604 1.617 5.208 4.851 5.208Zm-3.129-5.208c0-1.848 1.05-3.696 3.129-3.696 2.079 0 3.108 1.848 3.108 3.696 0 1.869-1.029 3.717-3.108 3.717s-3.129-1.848-3.129-3.717ZM136.647 50h1.575V35.3h-1.575zM141.792 50h1.575V35.3h-1.575zM150.381 50.21c1.029 0 2.1-.42 3.045-1.302V50h1.575v-9.975h-1.575v1.449c-1.029-1.155-2.163-1.659-3.213-1.659-2.163 0-4.011 2.016-4.011 5.25 0 3.15 1.953 5.145 4.179 5.145Zm-2.457-5.271c0-1.932.882-3.633 2.289-3.633 1.134 0 2.016.63 3.213 2.31v3.528c-1.071 1.05-2.142 1.575-3.066 1.575-1.428 0-2.436-1.239-2.436-3.78ZM158.571 50h1.575v-5.775c.882-1.533 1.89-2.919 3.906-2.919.105 0 .21 0 .336.021v-1.428a2.03 2.03 0 0 0-.609-.084c-1.869 0-2.898 1.029-3.633 2.226v-2.016h-1.575V50ZM170.184 50.21c1.323 0 2.625-.462 4.032-1.218l-.756-1.281c-1.134.63-2.205 1.008-3.129 1.008-1.491 0-2.583-.966-2.814-2.835h7.14v-.651c0-3.633-2.226-5.418-4.452-5.418s-4.452 1.659-4.452 5.292c0 3.486 1.953 5.103 4.431 5.103Zm-2.667-5.817c.231-2.1 1.491-3.087 2.772-3.087 1.26 0 2.52 1.029 2.835 3.087h-5.607ZM187.845 50h.315l6.552-14.175h-1.932l-4.767 10.29-4.788-10.29h-1.953zM197.799 54.83c1.218 0 1.743-.924 2.289-2.205l5.397-12.6h-1.659l-3.255 7.497-3.234-7.497h-1.68l4.137 9.387-1.344 3.003c-.273.63-.525.84-.987.84-.252 0-.693-.21-1.092-.525l-.714 1.344c.693.462 1.449.756 2.142.756ZM206.745 50h7.056v-1.491h-5.082l5.082-6.993v-1.491h-7.056v1.491h5.25l-5.25 6.993V50Zm.126-13.818 3.381 2.625 3.423-2.625-.273-1.008-3.15 1.617-3.129-1.617-.252 1.008ZM219.975 50.21c1.029 0 2.1-.42 3.045-1.302V50h1.575v-9.975h-1.575v1.449c-1.029-1.155-2.163-1.659-3.213-1.659-2.163 0-4.011 2.016-4.011 5.25 0 3.15 1.953 5.145 4.179 5.145Zm-2.457-5.271c0-1.932.882-3.633 2.289-3.633 1.134 0 2.016.63 3.213 2.31v3.528c-1.071 1.05-2.142 1.575-3.066 1.575-1.428 0-2.436-1.239-2.436-3.78ZM231.609 50.21c1.029 0 2.079-.399 3.045-1.239V50h1.575V35.3h-1.575v5.418c-1.008-.651-1.974-.903-2.835-.903-2.646 0-4.389 2.541-4.389 5.187 0 3.318 1.974 5.208 4.179 5.208Zm-2.457-5.208c0-2.352 1.323-3.717 2.982-3.717.798 0 1.68.336 2.52 1.05v4.893c-1.113 1.008-2.163 1.491-3.045 1.491-1.47 0-2.457-1.323-2.457-3.717ZM242.571 50.21c1.176 0 2.541-.63 3.738-1.386V50h1.575v-9.975h-1.575v7.161c-1.449.966-2.772 1.533-3.717 1.533-1.029 0-1.638-.693-1.638-2.373v-6.321h-1.575v6.615c0 2.562 1.407 3.57 3.192 3.57ZM251.706 54.83c1.575 0 2.562-.693 2.562-2.499V40.025h-1.575v12.096c0 .84-.336 1.218-.987 1.218-.42 0-.987-.168-1.701-.462l-.651 1.428c.882.357 1.659.525 2.352.525Zm.609-18.06c0 .735.567 1.113 1.155 1.113.567 0 1.155-.378 1.155-1.113s-.588-1.113-1.155-1.113c-.588 0-1.155.378-1.155 1.113ZM261.786 50.21c1.323 0 2.625-.462 4.032-1.218l-.756-1.281c-1.134.63-2.205 1.008-3.129 1.008-1.491 0-2.583-.966-2.814-2.835h7.14v-.651c0-3.633-2.226-5.418-4.452-5.418s-4.452 1.659-4.452 5.292c0 3.486 1.953 5.103 4.431 5.103Zm-2.667-5.817c.231-2.1 1.491-3.087 2.772-3.087 1.26 0 2.52 1.029 2.835 3.087h-5.607ZM279.678 50h1.68v-3.36h1.47v-1.575h-1.47v-9.24h-1.68l-6.594 9.24v1.575h6.594V50Zm-4.62-4.935 4.62-6.447v6.447h-4.62ZM289.59 50.21c2.856 0 4.494-2.331 4.494-4.788 0-3.129-2.142-4.788-4.41-4.788-1.197 0-2.289.504-3.171 1.365.756-3.444 3.171-4.368 5.082-4.83l-.546-1.554c-4.2 1.239-6.531 3.759-6.531 8.61 0 3.087 1.281 5.985 5.082 5.985Zm-3.234-4.767c0-1.659 1.134-3.192 2.982-3.192 1.932 0 2.961 1.533 2.961 3.192 0 1.659-1.029 3.192-2.961 3.192-1.848 0-2.982-1.533-2.982-3.192ZM300.804 50.21c2.52 0 5.04-1.197 5.04-3.549 0-1.743-1.407-2.793-3.213-3.906 1.512-1.218 2.331-2.1 2.331-3.549 0-1.89-1.533-3.591-4.158-3.591-2.625 0-4.095 1.701-4.095 3.591 0 1.428.756 2.331 2.247 3.528-1.932 1.113-3.192 2.184-3.192 3.927 0 2.352 2.52 3.549 5.04 3.549Zm-3.276-3.549c0-1.155 1.113-2.247 3.276-3.192 2.163.945 3.276 2.037 3.276 3.192 0 1.323-1.596 1.974-3.192 1.974-1.659 0-3.36-.693-3.36-1.974Zm.903-7.455c0-.945.945-2.016 2.373-2.016 1.428 0 2.436 1.071 2.436 2.016 0 1.575-1.008 2.142-2.436 2.919-1.428-.777-2.373-1.344-2.373-2.919ZM11.865 81.5h1.68V67.325h-1.68v6.048H3.57v-6.048H1.89V81.5h1.68v-6.552h8.295zM20.664 81.71c1.029 0 2.1-.42 3.045-1.302V81.5h1.575v-9.975h-1.575v1.449c-1.029-1.155-2.163-1.659-3.213-1.659-2.163 0-4.011 2.016-4.011 5.25 0 3.15 1.953 5.145 4.179 5.145Zm-2.457-5.271c0-1.932.882-3.633 2.289-3.633 1.134 0 2.016.63 3.213 2.31v3.528c-1.071 1.05-2.142 1.575-3.066 1.575-1.428 0-2.436-1.239-2.436-3.78ZM28.854 81.5h1.575v-7.077c1.386-.945 2.478-1.617 3.255-1.617.735 0 1.155.651 1.155 2.373V81.5h1.575v-6.615c0-.357-.021-.693-.063-.987 1.113-.672 2.121-1.113 2.919-1.113.945 0 1.554.651 1.554 2.394V81.5h1.575v-6.615c0-2.478-1.071-3.57-2.709-3.57-1.05 0-2.331.441-3.717 1.239-.42-.861-1.155-1.239-2.037-1.239-1.008 0-2.268.504-3.507 1.365v-1.155h-1.575V81.5ZM45.549 81.5h1.575v-7.077c1.386-.945 2.478-1.617 3.255-1.617.735 0 1.155.651 1.155 2.373V81.5h1.575v-6.615c0-.357-.021-.693-.063-.987 1.113-.672 2.121-1.113 2.919-1.113.945 0 1.554.651 1.554 2.394V81.5h1.575v-6.615c0-2.478-1.071-3.57-2.709-3.57-1.05 0-2.331.441-3.717 1.239-.42-.861-1.155-1.239-2.037-1.239-1.008 0-2.268.504-3.507 1.365v-1.155h-1.575V81.5ZM65.688 81.71c1.029 0 2.1-.42 3.045-1.302V81.5h1.575v-9.975h-1.575v1.449c-1.029-1.155-2.163-1.659-3.213-1.659-2.163 0-4.011 2.016-4.011 5.25 0 3.15 1.953 5.145 4.179 5.145Zm-2.457-5.271c0-1.932.882-3.633 2.289-3.633 1.134 0 2.016.63 3.213 2.31v3.528c-1.071 1.05-2.142 1.575-3.066 1.575-1.428 0-2.436-1.239-2.436-3.78ZM73.878 81.5h1.575v-7.077c1.386-.945 2.478-1.617 3.255-1.617.735 0 1.155.651 1.155 2.373V81.5h1.575v-6.615c0-.357-.021-.693-.063-.987 1.113-.672 2.121-1.113 2.919-1.113.945 0 1.554.651 1.554 2.394V81.5h1.575v-6.615c0-2.478-1.071-3.57-2.709-3.57-1.05 0-2.331.441-3.717 1.239-.42-.861-1.155-1.239-2.037-1.239-1.008 0-2.268.504-3.507 1.365v-1.155h-1.575V81.5ZM94.017 81.71c2.016 0 3.066-1.491 3.066-2.814 0-2.163-1.995-2.94-3.591-3.549-1.092-.42-1.995-.777-1.995-1.449 0-.63.483-1.113 1.365-1.113.966 0 2.247.525 3.297 1.512l.966-1.155c-1.344-1.134-2.751-1.806-4.221-1.806-1.386 0-3.087.819-3.087 2.709 0 1.449 1.029 2.163 3.234 2.94 1.764.63 2.352 1.344 2.352 1.953 0 .903-.546 1.281-1.302 1.281-1.05 0-2.499-.672-3.612-1.512l-.966 1.176c1.491 1.26 3.129 1.827 4.494 1.827ZM111.594 81.71a7.673 7.673 0 0 0 4.872-1.743v-5.943h-5.208v1.575h3.528v3.381c-.966.672-2.079 1.155-3.318 1.155-3.843 0-5.523-2.835-5.523-5.733 0-2.877 1.68-5.712 5.523-5.712 1.617 0 3.234.756 4.326 1.827l1.071-1.302a7.668 7.668 0 0 0-5.271-2.1c-4.242 0-7.434 3.066-7.434 7.287 0 4.242 3.192 7.308 7.434 7.308ZM123.816 81.71c3.234 0 4.83-2.604 4.83-5.208 0-2.583-1.596-5.187-4.83-5.187s-4.851 2.604-4.851 5.187c0 2.604 1.617 5.208 4.851 5.208Zm-3.129-5.208c0-1.848 1.05-3.696 3.129-3.696 2.079 0 3.108 1.848 3.108 3.696 0 1.869-1.029 3.717-3.108 3.717s-3.129-1.848-3.129-3.717ZM131.481 81.5h1.575V66.8h-1.575zM137.298 86.33c1.218 0 1.743-.924 2.289-2.205l5.397-12.6h-1.659l-3.255 7.497-3.234-7.497h-1.68l4.137 9.387-1.344 3.003c-.273.63-.525.84-.987.84-.252 0-.693-.21-1.092-.525l-.714 1.344c.693.462 1.449.756 2.142.756ZM151.494 86.33c2.058 0 3.654-1.281 3.654-4.557V71.525h-1.575v1.449c-1.029-1.155-2.163-1.659-3.213-1.659-2.163 0-4.011 1.995-4.011 5.46 0 3.738 2.1 4.935 4.158 4.935 1.113 0 2.1-.735 3.066-1.911V81.5c0 2.436-.924 3.297-2.31 3.297-1.113 0-2.415-.609-3.444-1.491l-.966 1.218c1.407 1.113 3.129 1.806 4.641 1.806Zm-3.423-9.807c0-2.037.882-3.717 2.289-3.717 1.134 0 2.016.63 3.213 2.31v2.814c-1.197 1.68-2.058 2.289-3.045 2.289-1.344 0-2.457-1.197-2.457-3.696ZM161.175 81.71c1.176 0 2.541-.63 3.738-1.386V81.5h1.575v-9.975h-1.575v7.161c-1.449.966-2.772 1.533-3.717 1.533-1.029 0-1.638-.693-1.638-2.373v-6.321h-1.575v6.615c0 2.562 1.407 3.57 3.192 3.57ZM175.413 81.5h1.68V70.286l5.019 7.959h.315l4.956-7.896V81.5h1.68V67.325h-1.68l-5.124 8.169-5.166-8.169h-1.68zM196.182 81.71c1.029 0 2.1-.42 3.045-1.302V81.5h1.575v-9.975h-1.575v1.449c-1.029-1.155-2.163-1.659-3.213-1.659-2.163 0-4.011 2.016-4.011 5.25 0 3.15 1.953 5.145 4.179 5.145Zm-2.457-5.271c0-1.932.882-3.633 2.289-3.633 1.134 0 2.016.63 3.213 2.31v3.528c-1.071 1.05-2.142 1.575-3.066 1.575-1.428 0-2.436-1.239-2.436-3.78ZM204.372 81.5h1.575v-5.775c.882-1.533 1.89-2.919 3.906-2.919.105 0 .21 0 .336.021v-1.428a2.03 2.03 0 0 0-.609-.084c-1.869 0-2.898 1.029-3.633 2.226v-2.016h-1.575V81.5ZM218.043 81.5h1.89l-3.549-4.998 3.549-4.977h-1.911l-2.583 3.654-2.604-3.654h-1.911l3.549 4.977-3.549 4.998h1.89l2.625-3.654zM222.138 81.5h1.575v-9.975h-1.575V81.5Zm-.357-13.23c0 .735.567 1.113 1.155 1.113.567 0 1.155-.378 1.155-1.113s-.588-1.113-1.155-1.113c-.588 0-1.155.378-1.155 1.113ZM230.727 81.71c2.016 0 3.066-1.491 3.066-2.814 0-2.163-1.995-2.94-3.591-3.549-1.092-.42-1.995-.777-1.995-1.449 0-.63.483-1.113 1.365-1.113.966 0 2.247.525 3.297 1.512l.966-1.155c-1.344-1.134-2.751-1.806-4.221-1.806-1.386 0-3.087.819-3.087 2.709 0 1.449 1.029 2.163 3.234 2.94 1.764.63 2.352 1.344 2.352 1.953 0 .903-.546 1.281-1.302 1.281-1.05 0-2.499-.672-3.612-1.512l-.966 1.176c1.491 1.26 3.129 1.827 4.494 1.827ZM239.799 81.71c1.029 0 2.1-.42 3.045-1.302V81.5h1.575v-9.975h-1.575v1.449c-1.029-1.155-2.163-1.659-3.213-1.659-2.163 0-4.011 2.016-4.011 5.25 0 3.15 1.953 5.145 4.179 5.145Zm-2.457-5.271c0-1.932.882-3.633 2.289-3.633 1.134 0 2.016.63 3.213 2.31v3.528c-1.071 1.05-2.142 1.575-3.066 1.575-1.428 0-2.436-1.239-2.436-3.78ZM247.989 81.5h1.575v-7.161c1.449-.966 2.772-1.533 3.717-1.533 1.029 0 1.638.693 1.638 2.373V81.5h1.575v-6.615c0-2.562-1.407-3.57-3.192-3.57-1.176 0-2.541.63-3.738 1.386v-1.176h-1.575V81.5ZM262.752 81.71c.987 0 2.058-.63 3.024-1.806l-.966-1.134c-.819.945-1.596 1.449-2.205 1.449-.714 0-1.071-.693-1.071-2.184v-5.019h3.276v-1.491h-3.276v-2.1h-1.575v2.1h-1.47v1.491h1.47v5.565c0 2.184 1.26 3.129 2.793 3.129ZM277.893 75.221h-1.575c0 3.129 0 3.339-1.092 3.801-1.974.84-2.856 2.247-2.856 3.57 0 1.743 1.491 3.318 4.074 3.318 1.827 0 3.087-.84 4.41-1.89l-1.071-1.344c-1.071 1.092-2.415 1.596-3.528 1.596-1.197 0-2.142-.609-2.142-1.764 0-.651.336-1.596 1.302-1.995 1.302-.546 2.478-1.071 2.478-2.478v-2.814Zm-1.89-2.751c0 .651.504 1.155 1.134 1.155.672 0 1.176-.504 1.176-1.155s-.504-1.155-1.176-1.155c-.63 0-1.134.504-1.134 1.155ZM283.794 81.5h9.177v-1.575h-7.497v-4.998h6.111v-1.575h-6.111V68.9h7.497v-1.575h-9.177zM299.145 81.71c1.029 0 2.079-.399 3.045-1.239V81.5h1.575V66.8h-1.575v5.418c-1.008-.651-1.974-.903-2.835-.903-2.646 0-4.389 2.541-4.389 5.187 0 3.318 1.974 5.208 4.179 5.208Zm-2.457-5.208c0-2.352 1.323-3.717 2.982-3.717.798 0 1.68.336 2.52 1.05v4.893c-1.113 1.008-2.163 1.491-3.045 1.491-1.47 0-2.457-1.323-2.457-3.717ZM310.107 81.71c1.176 0 2.541-.63 3.738-1.386V81.5h1.575v-9.975h-1.575v7.161c-1.449.966-2.772 1.533-3.717 1.533-1.029 0-1.638-.693-1.638-2.373v-6.321h-1.575v6.615c0 2.562 1.407 3.57 3.192 3.57ZM323.274 81.71a4.94 4.94 0 0 0 3.129-1.092l-.945-1.155c-.756.504-1.554.756-2.31.756-2.121 0-3.171-1.848-3.171-3.696s1.071-3.717 3.234-3.717c.777 0 1.638.273 2.478.882l.861-1.134c-.945-.777-2.1-1.239-3.276-1.239-3.339 0-5.019 2.604-5.019 5.187 0 2.604 1.68 5.208 5.019 5.208ZM332.304 81.71c1.029 0 2.1-.42 3.045-1.302V81.5h1.575v-9.975h-1.575v1.449c-1.029-1.155-2.163-1.659-3.213-1.659-2.163 0-4.011 2.016-4.011 5.25 0 3.15 1.953 5.145 4.179 5.145Zm-2.457-5.271c0-1.932.882-3.633 2.289-3.633 1.134 0 2.016.63 3.213 2.31v3.528c-1.071 1.05-2.142 1.575-3.066 1.575-1.428 0-2.436-1.239-2.436-3.78ZM345.219 86.33c.987 0 1.953-.483 1.953-1.827 0-1.47-.945-1.974-1.911-1.974-.105 0-.21 0-.294.021l.294-.861a4.878 4.878 0 0 0 2.646-1.071l-.945-1.155c-.756.504-1.554.756-2.31.756-2.121 0-3.171-1.848-3.171-3.696s1.071-3.717 3.234-3.717c.777 0 1.638.273 2.478.882l.861-1.134c-.945-.777-2.1-1.239-3.276-1.239-3.339 0-5.019 2.604-5.019 5.187 0 2.415 1.428 4.809 4.284 5.166l-.483 1.386.294 1.008c.252-.168.777-.378 1.197-.378.525 0 .777.378.777.735 0 .378-.252.756-.777.756-.441 0-.945-.21-1.197-.378l-.294 1.029c.378.294 1.029.504 1.659.504ZM353.808 81.71c1.029 0 2.1-.42 3.045-1.302V81.5h1.575v-9.975h-1.575v1.449c-1.029-1.155-2.163-1.659-3.213-1.659-2.163 0-4.011 2.016-4.011 5.25 0 3.15 1.953 5.145 4.179 5.145Zm-3.045-12.978 1.239.861c.462-.693.756-1.113 1.302-1.113.777 0 1.218 1.197 2.415 1.197.924 0 1.596-.714 2.289-1.89l-1.239-.861c-.462.693-.756 1.113-1.302 1.113-.735 0-1.218-1.197-2.415-1.197-.924 0-1.596.714-2.289 1.89Zm.588 7.707c0-1.932.882-3.633 2.289-3.633 1.134 0 2.016.63 3.213 2.31v3.528c-1.071 1.05-2.142 1.575-3.066 1.575-1.428 0-2.436-1.239-2.436-3.78ZM366.114 81.71c3.234 0 4.83-2.604 4.83-5.208 0-2.583-1.596-5.187-4.83-5.187s-4.851 2.604-4.851 5.187c0 2.604 1.617 5.208 4.851 5.208Zm-3.129-5.208c0-1.848 1.05-3.696 3.129-3.696 2.079 0 3.108 1.848 3.108 3.696 0 1.869-1.029 3.717-3.108 3.717s-3.129-1.848-3.129-3.717ZM376.005 77.804h1.575c0-3.129 0-3.339 1.092-3.801 1.974-.84 2.856-2.247 2.856-3.57 0-1.743-1.491-3.318-4.074-3.318-1.827 0-3.087.84-4.41 1.89l1.071 1.344c1.071-1.092 2.415-1.596 3.528-1.596 1.197 0 2.142.609 2.142 1.764 0 .651-.336 1.596-1.302 1.995-1.302.546-2.478 1.071-2.478 2.478v2.814Zm-.42 2.751c0 .651.504 1.155 1.176 1.155.63 0 1.134-.504 1.134-1.155s-.504-1.155-1.134-1.155c-.672 0-1.176.504-1.176 1.155ZM5.061 115.247h1.47v-1.575h-.672c-.798 0-1.134-.294-1.134-1.785 0-.336.021-.798.021-1.323 0-1.638-.21-3.885-1.533-4.641 1.323-.756 1.533-3.003 1.533-4.641 0-.525-.021-.987-.021-1.323 0-1.491.336-1.785 1.134-1.785h.672v-1.575h-1.47c-1.113 0-2.037.399-2.037 2.184 0 .399.021.945.021 1.575 0 1.974-.21 4.683-1.995 5.565 1.785.882 1.995 3.591 1.995 5.565 0 .63-.021 1.176-.021 1.575 0 1.785.924 2.184 2.037 2.184ZM12.768 113.21c1.995 0 4.053-1.092 4.053-4.704v-9.681h-1.68v9.681c0 2.394-1.05 3.15-2.226 3.15-.966 0-1.995-.504-2.604-.987l-1.05 1.302c.546.63 2.016 1.239 3.507 1.239ZM23.058 113.21c1.176 0 2.541-.63 3.738-1.386V113h1.575v-9.975h-1.575v7.161c-1.449.966-2.772 1.533-3.717 1.533-1.029 0-1.638-.693-1.638-2.373v-6.321h-1.575v6.615c0 2.562 1.407 3.57 3.192 3.57ZM31.941 113h1.575V98.3h-1.575zM37.086 113h1.575v-9.975h-1.575V113Zm-.357-13.23c0 .735.567 1.113 1.155 1.113.567 0 1.155-.378 1.155-1.113s-.588-1.113-1.155-1.113c-.588 0-1.155.378-1.155 1.113ZM45.675 113.21c1.029 0 2.1-.42 3.045-1.302V113h1.575v-9.975H48.72v1.449c-1.029-1.155-2.163-1.659-3.213-1.659-2.163 0-4.011 2.016-4.011 5.25 0 3.15 1.953 5.145 4.179 5.145Zm-2.457-5.271c0-1.932.882-3.633 2.289-3.633 1.134 0 2.016.63 3.213 2.31v3.528c-1.071 1.05-2.142 1.575-3.066 1.575-1.428 0-2.436-1.239-2.436-3.78ZM53.865 113h1.575v-7.161c1.449-.966 2.772-1.533 3.717-1.533 1.029 0 1.638.693 1.638 2.373V113h1.575v-6.615c0-2.562-1.407-3.57-3.192-3.57-1.176 0-2.541.63-3.738 1.386v-1.176h-1.575V113ZM65.52 113h1.575v-7.161c1.449-.966 2.772-1.533 3.717-1.533 1.029 0 1.638.693 1.638 2.373V113h1.575v-6.615c0-2.562-1.407-3.57-3.192-3.57-1.176 0-2.541.63-3.738 1.386v-1.176H65.52V113ZM80.619 113.21c1.029 0 2.1-.42 3.045-1.302V113h1.575v-9.975h-1.575v1.449c-1.029-1.155-2.163-1.659-3.213-1.659-2.163 0-4.011 2.016-4.011 5.25 0 3.15 1.953 5.145 4.179 5.145Zm-2.457-5.271c0-1.932.882-3.633 2.289-3.633 1.134 0 2.016.63 3.213 2.31v3.528c-1.071 1.05-2.142 1.575-3.066 1.575-1.428 0-2.436-1.239-2.436-3.78ZM99.477 113h.315l6.552-14.175h-1.932l-4.767 10.29-4.788-10.29h-1.953zM112.203 113.21c1.029 0 2.1-.42 3.045-1.302V113h1.575v-9.975h-1.575v1.449c-1.029-1.155-2.163-1.659-3.213-1.659-2.163 0-4.011 2.016-4.011 5.25 0 3.15 1.953 5.145 4.179 5.145Zm-2.457-5.271c0-1.932.882-3.633 2.289-3.633 1.134 0 2.016.63 3.213 2.31v3.528c-1.071 1.05-2.142 1.575-3.066 1.575-1.428 0-2.436-1.239-2.436-3.78ZM120.393 113h1.575v-7.161c1.449-.966 2.772-1.533 3.717-1.533 1.029 0 1.638.693 1.638 2.373V113h1.575v-6.615c0-2.562-1.407-3.57-3.192-3.57-1.176 0-2.541.63-3.738 1.386v-1.176h-1.575V113ZM137.403 113h5.187c3.486 0 5.208-1.911 5.208-4.095 0-1.575-.882-3.066-2.688-3.78a3.742 3.742 0 0 0 1.092-2.625c0-1.848-1.449-3.675-3.969-3.675h-4.83V113Zm1.68-1.575v-5.166h3.633c2.205 0 3.297 1.302 3.297 2.562 0 1.26-1.092 2.604-3.297 2.604h-3.633Zm0-6.741V100.4h3.255c1.386 0 2.079 1.113 2.079 2.163 0 1.029-.693 2.121-2.079 2.121h-3.255ZM150.423 113h1.575v-5.775c.882-1.533 1.89-2.919 3.906-2.919.105 0 .21 0 .336.021v-1.428a2.03 2.03 0 0 0-.609-.084c-1.869 0-2.898 1.029-3.633 2.226v-2.016h-1.575V113ZM161.784 113.21c1.029 0 2.1-.42 3.045-1.302V113h1.575v-9.975h-1.575v1.449c-1.029-1.155-2.163-1.659-3.213-1.659-2.163 0-4.011 2.016-4.011 5.25 0 3.15 1.953 5.145 4.179 5.145Zm-2.457-5.271c0-1.932.882-3.633 2.289-3.633 1.134 0 2.016.63 3.213 2.31v3.528c-1.071 1.05-2.142 1.575-3.066 1.575-1.428 0-2.436-1.239-2.436-3.78ZM174.594 113.21c2.205 0 4.179-1.89 4.179-5.208 0-2.646-1.743-5.187-4.389-5.187-.861 0-1.827.252-2.835.903V98.3h-1.575V113h1.575v-1.029c.966.84 2.016 1.239 3.045 1.239Zm-3.045-2.982v-4.893c.84-.714 1.722-1.05 2.52-1.05 1.659 0 2.982 1.365 2.982 3.717 0 2.394-.987 3.717-2.457 3.717-.882 0-1.932-.483-3.045-1.491ZM185.052 113.21c1.029 0 2.1-.42 3.045-1.302V113h1.575v-9.975h-1.575v1.449c-1.029-1.155-2.163-1.659-3.213-1.659-2.163 0-4.011 2.016-4.011 5.25 0 3.15 1.953 5.145 4.179 5.145Zm-2.457-5.271c0-1.932.882-3.633 2.289-3.633 1.134 0 2.016.63 3.213 2.31v3.528c-1.071 1.05-2.142 1.575-3.066 1.575-1.428 0-2.436-1.239-2.436-3.78ZM193.242 113h1.575v-7.161c1.449-.966 2.772-1.533 3.717-1.533 1.029 0 1.638.693 1.638 2.373V113h1.575v-6.615c0-2.562-1.407-3.57-3.192-3.57-1.176 0-2.541.63-3.738 1.386v-1.176h-1.575V113ZM208.005 113.21c.987 0 2.058-.63 3.024-1.806l-.966-1.134c-.819.945-1.596 1.449-2.205 1.449-.714 0-1.071-.693-1.071-2.184v-5.019h3.276v-1.491h-3.276v-2.1h-1.575v2.1h-1.47v1.491h1.47v5.565c0 2.184 1.26 3.129 2.793 3.129ZM220.584 104.978c1.47 0 2.94-1.05 2.94-3.171 0-2.142-1.47-3.192-2.94-3.192s-2.94 1.05-2.94 3.192c0 2.121 1.47 3.171 2.94 3.171Zm-1.365-3.171c0-1.008.525-1.785 1.365-1.785.861 0 1.365.777 1.365 1.785 0 1.071-.504 1.764-1.365 1.764s-1.365-.693-1.365-1.764ZM229.383 113h1.68V98.825h-1.68l-4.494 4.221 1.134 1.26 3.36-3.15zM234.633 111.425V113h9.135v-1.575h-7.308c.21-2.289 2.016-3.423 3.78-4.515 1.806-1.113 3.57-2.352 3.57-4.641 0-1.806-1.491-3.654-3.99-3.654-1.659 0-3.528.693-5.187 1.89l.714 1.512c1.428-1.029 3.255-1.827 4.62-1.827 1.197 0 2.058.588 2.058 2.163 0 1.533-1.449 2.583-3.087 3.633-2.037 1.302-4.305 2.793-4.305 5.439ZM248.388 113h1.722l5.46-14.175h-9.555v1.575h7.224zM262.269 113h1.68V98.825h-1.68l-4.494 4.221 1.134 1.26 3.36-3.15zM272.454 108.653h7.35v-1.491h-7.35zM290.178 107.813h1.575v-6.006h2.709v-1.344h-2.709V98.3h-1.575v2.163h-2.709v1.344h2.709zM300.321 113h1.68V98.825h-1.68l-4.494 4.221 1.134 1.26 3.36-3.15zM310.107 113.21c3.066 0 4.767-1.911 4.767-3.885 0-1.344-.819-2.751-2.583-3.57 1.365-.819 2.037-2.1 2.037-3.381 0-2.583-1.932-3.759-4.284-3.759-1.764 0-3.738.651-5.313 1.869l.714 1.512c1.407-1.008 3.297-1.806 4.767-1.806 1.47 0 2.331 1.092 2.331 2.226 0 1.26-1.029 2.583-3.402 2.583v1.575c2.709 0 3.927 1.386 3.927 2.709 0 1.197-1.008 2.352-2.877 2.352-1.512 0-3.339-.903-4.746-1.785l-.714 1.512c1.533 1.176 3.549 1.848 5.376 1.848ZM320.586 113h1.68V98.825h-1.68l-4.494 4.221 1.134 1.26 3.36-3.15zM330.288 113.21c2.856 0 4.494-2.331 4.494-4.788 0-3.129-2.142-4.788-4.41-4.788-1.197 0-2.289.504-3.171 1.365.756-3.444 3.171-4.368 5.082-4.83l-.546-1.554c-4.2 1.239-6.531 3.759-6.531 8.61 0 3.087 1.281 5.985 5.082 5.985Zm-3.234-4.767c0-1.659 1.134-3.192 2.982-3.192 1.932 0 2.961 1.533 2.961 3.192 0 1.659-1.029 3.192-2.961 3.192-1.848 0-2.982-1.533-2.982-3.192ZM339.402 115.247c1.113 0 2.037-.399 2.037-2.184 0-.399-.021-.945-.021-1.575 0-1.974.21-4.683 1.995-5.565-1.785-.882-1.995-3.591-1.995-5.565 0-.63.021-1.176.021-1.575 0-1.785-.924-2.184-2.037-2.184h-1.47v1.575h.672c.798 0 1.134.294 1.134 1.785 0 .336-.021.798-.021 1.323 0 1.638.21 3.885 1.533 4.641-1.323.756-1.533 3.003-1.533 4.641 0 .525.021.987.021 1.323 0 1.491-.336 1.785-1.134 1.785h-.672v1.575h1.47ZM6.384 144.71c3.402 0 5.376-3.045 5.376-7.287 0-4.221-1.974-7.308-5.376-7.308s-5.334 3.087-5.334 7.308c0 4.242 1.932 7.287 5.334 7.287Zm-3.612-7.287c0-3.465 1.386-5.733 3.633-5.733s3.633 2.268 3.633 5.733c0 3.486-1.386 5.712-3.633 5.712s-3.633-2.226-3.633-5.712ZM15.141 144.71c.63 0 1.134-.504 1.134-1.155s-.504-1.155-1.134-1.155c-.672 0-1.176.504-1.176 1.155s.504 1.155 1.176 1.155ZM23.814 144.71c3.402 0 5.376-3.045 5.376-7.287 0-4.221-1.974-7.308-5.376-7.308s-5.334 3.087-5.334 7.308c0 4.242 1.932 7.287 5.334 7.287Zm-3.612-7.287c0-3.465 1.386-5.733 3.633-5.733s3.633 2.268 3.633 5.733c0 3.486-1.386 5.712-3.633 5.712s-3.633-2.226-3.633-5.712ZM36.624 144.71c3.402 0 5.376-3.045 5.376-7.287 0-4.221-1.974-7.308-5.376-7.308s-5.334 3.087-5.334 7.308c0 4.242 1.932 7.287 5.334 7.287Zm-3.612-7.287c0-3.465 1.386-5.733 3.633-5.733s3.633 2.268 3.633 5.733c0 3.486-1.386 5.712-3.633 5.712s-3.633-2.226-3.633-5.712ZM49.266 144.71c3.066 0 4.767-1.911 4.767-3.885 0-1.344-.819-2.751-2.583-3.57 1.365-.819 2.037-2.1 2.037-3.381 0-2.583-1.932-3.759-4.284-3.759-1.764 0-3.738.651-5.313 1.869l.714 1.512c1.407-1.008 3.297-1.806 4.767-1.806 1.47 0 2.331 1.092 2.331 2.226 0 1.26-1.029 2.583-3.402 2.583v1.575c2.709 0 3.927 1.386 3.927 2.709 0 1.197-1.008 2.352-2.877 2.352-1.512 0-3.339-.903-4.746-1.785l-.714 1.512c1.533 1.176 3.549 1.848 5.376 1.848ZM62.832 144.5h1.806l9.639-14.175h-1.806L62.832 144.5Zm-1.596-11.193c0 2.121 1.47 3.171 2.94 3.171s2.94-1.05 2.94-3.171c0-2.142-1.47-3.192-2.94-3.192s-2.94 1.05-2.94 3.192Zm1.575 0c0-1.008.525-1.785 1.365-1.785.861 0 1.365.777 1.365 1.785 0 1.071-.504 1.764-1.365 1.764s-1.365-.693-1.365-1.764Zm7.161 8.232c0 2.121 1.47 3.171 2.94 3.171s2.94-1.05 2.94-3.171c0-2.142-1.47-3.192-2.94-3.192s-2.94 1.05-2.94 3.192Zm1.575 0c0-1.008.525-1.785 1.365-1.785.861 0 1.365.777 1.365 1.785 0 1.071-.504 1.764-1.365 1.764s-1.365-.693-1.365-1.764Zm5.355 0c0 2.121 1.47 3.171 2.94 3.171s2.94-1.05 2.94-3.171c0-2.142-1.47-3.192-2.94-3.192s-2.94 1.05-2.94 3.192Zm1.575 0c0-1.008.525-1.785 1.365-1.785.861 0 1.365.777 1.365 1.785 0 1.071-.504 1.764-1.365 1.764s-1.365-.693-1.365-1.764ZM97.062 144.71c4.662 0 6.972-3.654 6.972-7.308 0-3.633-2.31-7.287-6.972-7.287-4.62 0-6.93 3.654-6.93 7.287 0 3.654 2.31 7.308 6.93 7.308Zm-5.145-7.308c0-2.856 1.722-5.712 5.166-5.712 3.444 0 5.166 2.856 5.166 5.712 0 2.877-1.722 5.733-5.166 5.733-3.444 0-5.166-2.856-5.166-5.733ZM111.552 144.71c3.066 0 5.019-1.491 5.019-3.57 0-2.982-2.499-3.822-4.767-4.578-1.953-.651-3.759-1.281-3.759-3.108 0-1.302.924-1.764 2.394-1.764 1.428 0 3.423.84 4.977 1.848l1.029-1.428c-1.806-1.281-4.053-1.995-5.964-1.995-2.352 0-4.221 1.071-4.221 3.444 0 3.045 2.478 3.801 4.767 4.494 1.953.588 3.759 1.134 3.759 3.024 0 1.218-1.176 2.016-2.814 2.016-1.344 0-3.549-.756-4.809-1.848l-1.134 1.239c1.491 1.323 3.633 2.226 5.523 2.226ZM124.719 144.5h.315l6.552-14.175h-1.932l-4.767 10.29-4.788-10.29h-1.953zM134.106 144.5h9.177v-1.575h-7.497v-4.998h6.111v-1.575h-6.111V131.9h7.497v-1.575h-9.177V144.5Zm.651-17.178 4.242 2.352 4.263-2.352-.273-1.008-3.99 1.554-3.99-1.554-.252 1.008ZM149.331 144.5h1.68v-12.6h4.452v-1.575h-10.605v1.575h4.473zM157.983 144.5h8.253v-1.575h-6.573v-12.6h-1.68zM174.846 144.71c4.662 0 6.972-3.654 6.972-7.308 0-3.633-2.31-7.287-6.972-7.287-4.62 0-6.93 3.654-6.93 7.287 0 3.654 2.31 7.308 6.93 7.308Zm-5.145-7.308c0-2.856 1.722-5.712 5.166-5.712 3.444 0 5.166 2.856 5.166 5.712 0 2.877-1.722 5.733-5.166 5.733-3.444 0-5.166-2.856-5.166-5.733ZM190.071 144.5h.315l6.552-14.175h-1.932l-4.767 10.29-4.788-10.29h-1.953zM198.198 144.5h1.68l1.533-3.15h7.014l1.533 3.15h1.68l-6.552-14.175h-.315l-6.573 14.175Zm3.969-4.725 2.751-5.691 2.751 5.691h-5.502ZM220.605 144.71a7.841 7.841 0 0 0 5.25-2.016l-1.05-1.344c-1.218 1.176-2.856 1.785-4.347 1.785-3.213 0-5.355-2.079-5.355-5.733 0-3.654 2.121-5.712 5.334-5.712 1.491 0 3.15.63 4.368 1.785l1.05-1.323a7.758 7.758 0 0 0-5.25-2.037c-4.746 0-7.287 3.234-7.287 7.308 0 4.095 2.541 7.287 7.287 7.287Zm-5.439-17.388 4.242 2.352 4.263-2.352-.273-1.008-3.99 1.554-3.99-1.554-.252 1.008ZM233.877 144.71c2.835 0 5.691-1.722 5.691-5.46v-8.925h-1.68v8.673c0 2.877-2.037 4.137-4.011 4.137-1.995 0-4.032-1.26-4.032-4.137v-8.673h-1.68v8.925c0 3.738 2.856 5.46 5.712 5.46Zm-1.785-16.653c0 .945.84 1.575 1.785 1.575.924 0 1.785-.63 1.785-1.575 0-1.008-.861-1.596-1.785-1.596-.945 0-1.785.588-1.785 1.596Zm1.05 0c0-.378.252-.651.735-.651s.735.273.735.651-.252.63-.735.63-.735-.252-.735-.63ZM250.53 144.71c1.995 0 4.053-1.092 4.053-4.704v-9.681h-1.68v9.681c0 2.394-1.05 3.15-2.226 3.15-.966 0-1.995-.504-2.604-.987l-1.05 1.302c.546.63 2.016 1.239 3.507 1.239ZM264.243 144.71c4.662 0 6.972-3.654 6.972-7.308 0-3.633-2.31-7.287-6.972-7.287-4.62 0-6.93 3.654-6.93 7.287 0 3.654 2.31 7.308 6.93 7.308Zm-5.145-7.308c0-2.856 1.722-5.712 5.166-5.712 3.444 0 5.166 2.856 5.166 5.712 0 2.877-1.722 5.733-5.166 5.733-3.444 0-5.166-2.856-5.166-5.733Zm1.848-8.652.294 1.029 6.342-1.638-.483-1.827-6.153 2.436ZM274.155 144.5h1.68v-14.175h-1.68V144.5Zm-2.478-15.75.294 1.029 6.342-1.638-.483-1.827-6.153 2.436ZM278.88 144.5h10.248v-1.575h-8.232l8.211-11.025v-1.575H278.88v1.575h8.211l-8.211 11.025zM297.57 144.71c2.835 0 5.691-1.722 5.691-5.46v-8.925h-1.68v8.673c0 2.877-2.037 4.137-4.011 4.137-1.995 0-4.032-1.26-4.032-4.137v-8.673h-1.68v8.925c0 3.738 2.856 5.46 5.712 5.46Zm-2.394-15.015.903.084 1.302-4.452-1.575-.147-.63 4.515Zm2.583 0 .903.084 1.302-4.452-1.575-.147-.63 4.515ZM306.726 144.5h9.177v-1.575h-7.497v-4.998h6.111v-1.575h-6.111V131.9h7.497v-1.575h-9.177zM318.738 144.5h1.68v-11.277l8.253 11.277h1.659v-14.175h-1.68v11.277l-8.232-11.277h-1.68zM1.89 176h4.62c4.032 0 7.35-3.024 7.35-7.077 0-4.032-3.318-7.098-7.35-7.098H1.89V176Zm1.68-1.575V163.4h3.045c3.633 0 5.46 2.793 5.46 5.502 0 2.73-1.827 5.523-5.46 5.523H3.57ZM19.467 176.21c1.176 0 2.541-.63 3.738-1.386V176h1.575v-9.975h-1.575v7.161c-1.449.966-2.772 1.533-3.717 1.533-1.029 0-1.638-.693-1.638-2.373v-6.321h-1.575v6.615c0 2.562 1.407 3.57 3.192 3.57ZM28.35 176h1.575v-14.7H28.35zM33.495 176h1.575v-7.161c1.449-.966 2.772-1.533 3.717-1.533 1.029 0 1.638.693 1.638 2.373V176H42v-6.615c0-2.562-1.407-3.57-3.192-3.57-1.176 0-2.541.63-3.738 1.386v-1.176h-1.575V176ZM48.846 176.21c1.323 0 2.625-.462 4.032-1.218l-.756-1.281c-1.134.63-2.205 1.008-3.129 1.008-1.491 0-2.583-.966-2.814-2.835h7.14v-.651c0-3.633-2.226-5.418-4.452-5.418s-4.452 1.659-4.452 5.292c0 3.486 1.953 5.103 4.431 5.103Zm-2.667-5.817c.231-2.1 1.491-3.087 2.772-3.087 1.26 0 2.52 1.029 2.835 3.087h-5.607ZM59.283 176.21c2.016 0 3.066-1.491 3.066-2.814 0-2.163-1.995-2.94-3.591-3.549-1.092-.42-1.995-.777-1.995-1.449 0-.63.483-1.113 1.365-1.113.966 0 2.247.525 3.297 1.512l.966-1.155c-1.344-1.134-2.751-1.806-4.221-1.806-1.386 0-3.087.819-3.087 2.709 0 1.449 1.029 2.163 3.234 2.94 1.764.63 2.352 1.344 2.352 1.953 0 .903-.546 1.281-1.302 1.281-1.05 0-2.499-.672-3.612-1.512l-.966 1.176c1.491 1.26 3.129 1.827 4.494 1.827ZM68.355 176.21c2.016 0 3.066-1.491 3.066-2.814 0-2.163-1.995-2.94-3.591-3.549-1.092-.42-1.995-.777-1.995-1.449 0-.63.483-1.113 1.365-1.113.966 0 2.247.525 3.297 1.512l.966-1.155c-1.344-1.134-2.751-1.806-4.221-1.806-1.386 0-3.087.819-3.087 2.709 0 1.449 1.029 2.163 3.234 2.94 1.764.63 2.352 1.344 2.352 1.953 0 .903-.546 1.281-1.302 1.281-1.05 0-2.499-.672-3.612-1.512l-.966 1.176c1.491 1.26 3.129 1.827 4.494 1.827ZM81.585 178.268c.588 0 1.155-.063 1.722-.168l.231-1.575a7.317 7.317 0 0 1-1.953.252c-3.906 0-6.657-2.73-6.657-6.762 0-3.885 2.835-6.909 6.657-6.909 3.948 0 6.636 3.024 6.636 6.909 0 3.255-2.457 4.599-3.654 4.599-.399 0-.672-.147-.672-1.323 0-1.89.462-4.872.861-6.909-.903-.567-1.974-.84-2.73-.84-2.541 0-4.074 2.772-4.074 5.397 0 2.289 1.134 3.423 2.247 3.423.903 0 1.701-.63 2.352-1.449v1.176c0 1.134.693 1.659 1.806 1.659 2.205 0 5.544-2.184 5.544-6.258 0-4.032-3.486-7.875-8.316-7.875-4.179 0-8.337 2.877-8.337 8.379s4.158 8.274 8.337 8.274Zm-2.058-7.434c0-1.785.966-3.906 2.751-3.906.336 0 .609.063.903.21l-.441 3.717c-.651 1.113-1.302 1.974-1.911 1.974-.798 0-1.302-.693-1.302-1.995ZM97.566 171.653h11.592v-1.491H97.566zM117.663 176h1.68v-2.709h3.129c3.486 0 5.208-2.184 5.208-4.368s-1.722-4.368-5.208-4.368h-3.129v-2.73h-1.68V176Zm1.68-4.284v-5.586h3.255c2.205 0 3.297 1.428 3.297 2.793 0 1.344-1.092 2.793-3.297 2.793h-3.255ZM134.568 176h1.68v-5.46l5.544-8.715h-1.995l-4.389 7.014-4.389-7.014h-1.974l5.523 8.715V176Zm-2.457-15.75.294 1.029 6.342-1.638-.483-1.827-6.153 2.436ZM144.207 176h4.62c4.032 0 7.35-3.024 7.35-7.077 0-4.032-3.318-7.098-7.35-7.098h-4.62v6.342h-1.449v1.491h1.449V176Zm1.68-1.575v-4.767h4.221v-1.491h-4.221V163.4h3.045c3.633 0 5.46 2.793 5.46 5.502 0 2.73-1.827 5.523-5.46 5.523h-3.045ZM157.857 176h1.68l1.533-3.15h7.014l1.533 3.15h1.68l-6.552-14.175h-.315L157.857 176Zm3.969-4.725 2.751-5.691 2.751 5.691h-5.502ZM185.661 176.21a7.673 7.673 0 0 0 4.872-1.743v-5.943h-5.208v1.575h3.528v3.381c-.966.672-2.079 1.155-3.318 1.155-3.843 0-5.523-2.835-5.523-5.733 0-2.877 1.68-5.712 5.523-5.712 1.617 0 3.234.756 4.326 1.827l1.071-1.302a7.668 7.668 0 0 0-5.271-2.1c-4.242 0-7.434 3.066-7.434 7.287 0 4.242 3.192 7.308 7.434 7.308ZM201.915 176h1.974l-3.066-5.166c2.016-.756 3.024-2.541 3.024-4.326 0-2.352-1.722-4.683-5.166-4.683h-4.809V176h1.68v-4.809H199.038l2.877 4.809Zm-6.363-6.384V163.4h3.255c2.184 0 3.255 1.554 3.255 3.108s-1.071 3.108-3.255 3.108h-3.255ZM212.121 176.21c2.835 0 5.691-1.722 5.691-5.46v-8.925h-1.68v8.673c0 2.877-2.037 4.137-4.011 4.137-1.995 0-4.032-1.26-4.032-4.137v-8.673h-1.68v8.925c0 3.738 2.856 5.46 5.712 5.46Zm-3.213-16.653c0 .735.567 1.113 1.155 1.113.567 0 1.155-.378 1.155-1.113s-.588-1.113-1.155-1.113c-.588 0-1.155.378-1.155 1.113Zm4.095 0c0 .735.567 1.113 1.155 1.113.567 0 1.155-.378 1.155-1.113s-.588-1.113-1.155-1.113c-.588 0-1.155.378-1.155 1.113ZM221.277 176h1.68v-11.277L231.21 176h1.659v-14.175h-1.68v11.277l-8.232-11.277h-1.68zM241.899 176h5.187c3.486 0 5.208-1.911 5.208-4.095 0-1.575-.882-3.066-2.688-3.78a3.742 3.742 0 0 0 1.092-2.625c0-1.848-1.449-3.675-3.969-3.675h-4.83V176Zm1.68-1.575v-5.166h3.633c2.205 0 3.297 1.302 3.297 2.562 0 1.26-1.092 2.604-3.297 2.604h-3.633Zm0-6.741V163.4h3.255c1.386 0 2.079 1.113 2.079 2.163 0 1.029-.693 2.121-2.079 2.121h-3.255ZM263.067 176h1.974l-3.066-5.166c2.016-.756 3.024-2.541 3.024-4.326 0-2.352-1.722-4.683-5.166-4.683h-4.809V176h1.68v-4.809H260.19l2.877 4.809Zm-6.363-6.384V163.4h3.255c2.184 0 3.255 1.554 3.255 3.108s-1.071 3.108-3.255 3.108h-3.255ZM269.031 178.142l1.722-2.646c.903.441 1.974.714 3.213.714 4.662 0 6.972-3.654 6.972-7.308 0-2.1-.756-4.179-2.31-5.586l1.785-2.751-1.407-.882-1.722 2.688c-.945-.483-2.037-.756-3.318-.756-4.62 0-6.93 3.654-6.93 7.287 0 2.142.777 4.263 2.352 5.67l-1.743 2.709 1.386.861Zm-.21-9.24c0-2.856 1.722-5.712 5.166-5.712.924 0 1.722.21 2.394.567l-6.048 9.345c-1.008-1.092-1.512-2.646-1.512-4.2Zm2.835 5.208 6.027-9.345c.987 1.092 1.47 2.625 1.47 4.137 0 2.877-1.722 5.733-5.166 5.733-.903 0-1.68-.189-2.331-.525ZM283.878 176h4.62c4.032 0 7.35-3.024 7.35-7.077 0-4.032-3.318-7.098-7.35-7.098h-4.62V176Zm1.68-1.575V163.4h3.045c3.633 0 5.46 2.793 5.46 5.502 0 2.73-1.827 5.523-5.46 5.523h-3.045ZM304.038 176h1.68v-11.214l5.019 7.959h.315l4.956-7.896V176h1.68v-14.175h-1.68l-5.124 8.169-5.166-8.169h-1.68zM327.558 176.21c4.662 0 6.972-3.654 6.972-7.308 0-3.633-2.31-7.287-6.972-7.287-4.62 0-6.93 3.654-6.93 7.287 0 3.654 2.31 7.308 6.93 7.308Zm-5.145-7.308c0-2.856 1.722-5.712 5.166-5.712 3.444 0 5.166 2.856 5.166 5.712 0 2.877-1.722 5.733-5.166 5.733-3.444 0-5.166-2.856-5.166-5.733ZM337.47 176h1.68v-5.817h8.295V176h1.68v-10.038h1.47v-1.491h-1.47v-2.646h-1.68v2.646h-8.295v-2.646h-1.68v2.646H336v1.491h1.47V176Zm1.68-7.392v-2.646h8.295v2.646h-8.295ZM352.905 176h1.68v-5.817h8.295V176h1.68v-10.038h1.47v-1.491h-1.47v-2.646h-1.68v2.646h-8.295v-2.646h-1.68v2.646h-1.47v1.491h1.47V176Zm1.68-7.392v-2.646h8.295v2.646h-8.295ZM370.461 172.304h1.575c0-3.129 0-3.339 1.092-3.801 1.974-.84 2.856-2.247 2.856-3.57 0-1.743-1.491-3.318-4.074-3.318-1.827 0-3.087.84-4.41 1.89l1.071 1.344c1.071-1.092 2.415-1.596 3.528-1.596 1.197 0 2.142.609 2.142 1.764 0 .651-.336 1.596-1.302 1.995-1.302.546-2.478 1.071-2.478 2.478v2.814Zm-.42 2.751c0 .651.504 1.155 1.176 1.155.63 0 1.134-.504 1.134-1.155s-.504-1.155-1.134-1.155c-.672 0-1.176.504-1.176 1.155ZM378.609 172.304h1.575l.525-10.479h-2.625l.525 10.479Zm-.378 2.751c0 .651.504 1.155 1.176 1.155.63 0 1.134-.504 1.134-1.155s-.504-1.155-1.134-1.155c-.672 0-1.176.504-1.176 1.155ZM1.89 207.5h1.68v-14.175H1.89zM7.245 207.5H8.82v-7.161c1.449-.966 2.772-1.533 3.717-1.533 1.029 0 1.638.693 1.638 2.373v6.321h1.575v-6.615c0-2.562-1.407-3.57-3.192-3.57-1.176 0-2.541.63-3.738 1.386v-1.176H7.245v9.975ZM22.008 207.71c.987 0 2.058-.63 3.024-1.806l-.966-1.134c-.819.945-1.596 1.449-2.205 1.449-.714 0-1.071-.693-1.071-2.184v-5.019h3.276v-1.491H20.79v-2.1h-1.575v2.1h-1.47v1.491h1.47v5.565c0 2.184 1.26 3.129 2.793 3.129ZM30.828 207.71c1.323 0 2.625-.462 4.032-1.218l-.756-1.281c-1.134.63-2.205 1.008-3.129 1.008-1.491 0-2.583-.966-2.814-2.835h7.14v-.651c0-3.633-2.226-5.418-4.452-5.418s-4.452 1.659-4.452 5.292c0 3.486 1.953 5.103 4.431 5.103Zm-2.667-5.817c.231-2.1 1.491-3.087 2.772-3.087 1.26 0 2.52 1.029 2.835 3.087h-5.607ZM37.821 207.5h1.575v-7.161c1.449-.966 2.772-1.533 3.717-1.533 1.029 0 1.638.693 1.638 2.373v6.321h1.575v-6.615c0-2.562-1.407-3.57-3.192-3.57-1.176 0-2.541.63-3.738 1.386v-1.176h-1.575v9.975ZM48.636 207.5h7.056v-1.491H50.61l5.082-6.993v-1.491h-7.056v1.491h5.25l-5.25 6.993zM58.422 207.5h1.575v-9.975h-1.575v9.975Zm-1.365-12.516.63.693 3.171-2.373-1.281-1.029-2.52 2.709ZM66.444 207.5h1.47l4.347-9.975h-1.827l-3.255 7.959-3.255-7.959h-1.827zM89.691 207.5h1.68v-14.175h-1.68v6.048h-8.295v-6.048h-1.68V207.5h1.68v-6.552h8.295zM95.151 207.5h9.177v-1.575h-7.497v-4.998h6.111v-1.575h-6.111V194.9h7.497v-1.575h-9.177zM115.206 207.5h1.974l-3.066-5.166c2.016-.756 3.024-2.541 3.024-4.326 0-2.352-1.722-4.683-5.166-4.683h-4.809V207.5h1.68v-4.809H112.329l2.877 4.809Zm-6.363-6.384V194.9h3.255c2.184 0 3.255 1.554 3.255 3.108s-1.071 3.108-3.255 3.108h-3.255ZM120.015 207.5h5.187c3.486 0 5.208-1.911 5.208-4.095 0-1.575-.882-3.066-2.688-3.78a3.742 3.742 0 0 0 1.092-2.625c0-1.848-1.449-3.675-3.969-3.675h-4.83V207.5Zm1.68-1.575v-5.166h3.633c2.205 0 3.297 1.302 3.297 2.562 0 1.26-1.092 2.604-3.297 2.604h-3.633Zm0-6.741V194.9h3.255c1.386 0 2.079 1.113 2.079 2.163 0 1.029-.693 2.121-2.079 2.121h-3.255ZM133.14 207.5h1.68v-14.175h-1.68V207.5Zm-2.478-15.75.294 1.029 6.342-1.638-.483-1.827-6.153 2.436ZM143.913 207.5h.315l6.552-14.175h-1.932l-4.767 10.29-4.788-10.29h-1.953zM159.39 207.71c4.662 0 6.972-3.654 6.972-7.308 0-3.633-2.31-7.287-6.972-7.287-4.62 0-6.93 3.654-6.93 7.287 0 3.654 2.31 7.308 6.93 7.308Zm-5.145-7.308c0-2.856 1.722-5.712 5.166-5.712 3.444 0 5.166 2.856 5.166 5.712 0 2.877-1.722 5.733-5.166 5.733-3.444 0-5.166-2.856-5.166-5.733ZM177.345 207.5h1.974l-3.066-5.166c2.016-.756 3.024-2.541 3.024-4.326 0-2.352-1.722-4.683-5.166-4.683h-4.809V207.5h1.68v-4.809H174.468l2.877 4.809Zm-6.363-6.384V194.9h3.255c2.184 0 3.255 1.554 3.255 3.108s-1.071 3.108-3.255 3.108h-3.255ZM195.447 207.5h1.974l-3.066-5.166c2.016-.756 3.024-2.541 3.024-4.326 0-2.352-1.722-4.683-5.166-4.683h-4.809V207.5h1.68v-4.809H192.57l2.877 4.809Zm-6.363-6.384V194.9h3.255c2.184 0 3.255 1.554 3.255 3.108s-1.071 3.108-3.255 3.108h-3.255ZM203.847 207.71c1.323 0 2.625-.462 4.032-1.218l-.756-1.281c-1.134.63-2.205 1.008-3.129 1.008-1.491 0-2.583-.966-2.814-2.835h7.14v-.651c0-3.633-2.226-5.418-4.452-5.418s-4.452 1.659-4.452 5.292c0 3.486 1.953 5.103 4.431 5.103Zm-2.667-5.817c.231-2.1 1.491-3.087 2.772-3.087 1.26 0 2.52 1.029 2.835 3.087h-5.607ZM210.84 212.12h1.575v-5.313c1.008.651 1.974.903 2.835.903 2.646 0 4.389-2.331 4.389-5.061 0-3.318-1.848-5.334-4.011-5.334-1.05 0-2.184.504-3.213 1.659v-1.449h-1.575v14.595Zm1.575-6.93v-4.074c1.197-1.68 2.079-2.31 3.213-2.31 1.407 0 2.289 1.701 2.289 3.57 0 2.709-1.323 3.864-2.982 3.864-.798 0-1.68-.336-2.52-1.05ZM225.246 207.71c1.176 0 2.541-.63 3.738-1.386v1.176h1.575v-9.975h-1.575v7.161c-1.449.966-2.772 1.533-3.717 1.533-1.029 0-1.638-.693-1.638-2.373v-6.321h-1.575v6.615c0 2.562 1.407 3.57 3.192 3.57ZM238.749 207.71c2.205 0 4.179-1.89 4.179-5.208 0-2.646-1.743-5.187-4.389-5.187-.861 0-1.827.252-2.835.903V192.8h-1.575v14.7h1.575v-1.029c.966.84 2.016 1.239 3.045 1.239Zm-3.045-2.982v-4.893c.84-.714 1.722-1.05 2.52-1.05 1.659 0 2.982 1.365 2.982 3.717 0 2.394-.987 3.717-2.457 3.717-.882 0-1.932-.483-3.045-1.491ZM245.763 207.5h1.575v-14.7h-1.575zM250.908 207.5h1.575v-9.975h-1.575v9.975Zm-.357-13.23c0 .735.567 1.113 1.155 1.113.567 0 1.155-.378 1.155-1.113s-.588-1.113-1.155-1.113c-.588 0-1.155.378-1.155 1.113ZM260.337 207.71a4.94 4.94 0 0 0 3.129-1.092l-.945-1.155c-.756.504-1.554.756-2.31.756-2.121 0-3.171-1.848-3.171-3.696s1.071-3.717 3.234-3.717c.777 0 1.638.273 2.478.882l.861-1.134c-.945-.777-2.1-1.239-3.276-1.239-3.339 0-5.019 2.604-5.019 5.187 0 2.604 1.68 5.208 5.019 5.208ZM271.425 210.083H273v-15.267h1.575v9.324h1.68v-9.324h1.47v-1.491h-7.077c-3.339 0-5.67 1.491-5.67 4.452s2.016 4.452 4.095 4.452c.735 0 1.533-.189 2.352-.651v8.505ZM284.76 207.5h10.248v-1.575h-8.232l8.211-11.025v-1.575H284.76v1.575h8.211l-8.211 11.025zM297.948 212.12h1.575v-5.313c1.008.651 1.974.903 2.835.903 2.646 0 4.389-2.331 4.389-5.061 0-3.318-1.848-5.334-4.011-5.334-1.05 0-2.184.504-3.213 1.659v-1.449h-1.575v14.595Zm1.575-6.93v-4.074c1.197-1.68 2.079-2.31 3.213-2.31 1.407 0 2.289 1.701 2.289 3.57 0 2.709-1.323 3.864-2.982 3.864-.798 0-1.68-.336-2.52-1.05ZM312.354 207.71c1.176 0 2.541-.63 3.738-1.386v1.176h1.575v-9.975h-1.575v7.161c-1.449.966-2.772 1.533-3.717 1.533-1.029 0-1.638-.693-1.638-2.373v-6.321h-1.575v6.615c0 2.562 1.407 3.57 3.192 3.57Zm-.567-13.419c0 1.218.945 1.848 1.785 1.848.819 0 1.785-.63 1.785-1.848 0-1.26-.966-1.848-1.785-1.848-.84 0-1.785.588-1.785 1.848Zm1.05 0c0-.504.315-.903.735-.903s.735.399.735.903-.315.903-.735.903-.735-.399-.735-.903ZM324.681 207.71c2.016 0 3.066-1.491 3.066-2.814 0-2.163-1.995-2.94-3.591-3.549-1.092-.42-1.995-.777-1.995-1.449 0-.63.483-1.113 1.365-1.113.966 0 2.247.525 3.297 1.512l.966-1.155c-1.344-1.134-2.751-1.806-4.221-1.806-1.386 0-3.087.819-3.087 2.709 0 1.449 1.029 2.163 3.234 2.94 1.764.63 2.352 1.344 2.352 1.953 0 .903-.546 1.281-1.302 1.281-1.05 0-2.499-.672-3.612-1.512l-.966 1.176c1.491 1.26 3.129 1.827 4.494 1.827ZM334.425 207.71c3.234 0 4.83-2.604 4.83-5.208 0-2.583-1.596-5.187-4.83-5.187s-4.851 2.604-4.851 5.187c0 2.604 1.617 5.208 4.851 5.208Zm-3.129-5.208c0-1.848 1.05-3.696 3.129-3.696 2.079 0 3.108 1.848 3.108 3.696 0 1.869-1.029 3.717-3.108 3.717s-3.129-1.848-3.129-3.717ZM346.71 207.71c2.205 0 4.179-1.89 4.179-5.208 0-2.646-1.743-5.187-4.389-5.187-.861 0-1.827.252-2.835.903V192.8h-1.575v14.7h1.575v-1.029c.966.84 2.016 1.239 3.045 1.239Zm-3.045-2.982v-4.893c.84-.714 1.722-1.05 2.52-1.05 1.659 0 2.982 1.365 2.982 3.717 0 2.394-.987 3.717-2.457 3.717-.882 0-1.932-.483-3.045-1.491ZM353.724 207.5h1.575v-9.975h-1.575v9.975Zm-1.365-12.516.63.693 3.171-2.373-1.281-1.029-2.52 2.709ZM9.933 239h1.974l-3.066-5.166c2.016-.756 3.024-2.541 3.024-4.326 0-2.352-1.722-4.683-5.166-4.683H1.89V239h1.68v-4.809H7.056L9.933 239Zm-6.363-6.384V226.4h3.255c2.184 0 3.255 1.554 3.255 3.108s-1.071 3.108-3.255 3.108H3.57ZM18.333 239.21c1.323 0 2.625-.462 4.032-1.218l-.756-1.281c-1.134.63-2.205 1.008-3.129 1.008-1.491 0-2.583-.966-2.814-2.835h7.14v-.651c0-3.633-2.226-5.418-4.452-5.418s-4.452 1.659-4.452 5.292c0 3.486 1.953 5.103 4.431 5.103Zm-2.667-5.817c.231-2.1 1.491-3.087 2.772-3.087 1.26 0 2.52 1.029 2.835 3.087h-5.607ZM28.77 239.21c2.016 0 3.066-1.491 3.066-2.814 0-2.163-1.995-2.94-3.591-3.549-1.092-.42-1.995-.777-1.995-1.449 0-.63.483-1.113 1.365-1.113.966 0 2.247.525 3.297 1.512l.966-1.155c-1.344-1.134-2.751-1.806-4.221-1.806-1.386 0-3.087.819-3.087 2.709 0 1.449 1.029 2.163 3.234 2.94 1.764.63 2.352 1.344 2.352 1.953 0 .903-.546 1.281-1.302 1.281-1.05 0-2.499-.672-3.612-1.512l-.966 1.176c1.491 1.26 3.129 1.827 4.494 1.827Zm-4.095-14.028 3.381 2.625 3.423-2.625-.273-1.008-3.15 1.617-3.129-1.617-.252 1.008ZM34.398 243.62h1.575v-5.313c1.008.651 1.974.903 2.835.903 2.646 0 4.389-2.331 4.389-5.061 0-3.318-1.848-5.334-4.011-5.334-1.05 0-2.184.504-3.213 1.659v-1.449h-1.575v14.595Zm1.575-6.93v-4.074c1.197-1.68 2.079-2.31 3.213-2.31 1.407 0 2.289 1.701 2.289 3.57 0 2.709-1.323 3.864-2.982 3.864-.798 0-1.68-.336-2.52-1.05ZM49.728 239.21c1.323 0 2.625-.462 4.032-1.218l-.756-1.281c-1.134.63-2.205 1.008-3.129 1.008-1.491 0-2.583-.966-2.814-2.835h7.14v-.651c0-3.633-2.226-5.418-4.452-5.418s-4.452 1.659-4.452 5.292c0 3.486 1.953 5.103 4.431 5.103Zm-2.667-5.817c.231-2.1 1.491-3.087 2.772-3.087 1.26 0 2.52 1.029 2.835 3.087h-5.607ZM56.721 239h1.575v-3.297l1.617-1.659L63.126 239h1.848l-3.99-6.048 3.801-3.927h-2.079l-4.41 4.557V224.3h-1.575zM70.287 239.21c.987 0 2.058-.63 3.024-1.806l-.966-1.134c-.819.945-1.596 1.449-2.205 1.449-.714 0-1.071-.693-1.071-2.184v-5.019h3.276v-1.491h-3.276v-2.1h-1.575v2.1h-1.47v1.491h1.47v5.565c0 2.184 1.26 3.129 2.793 3.129ZM78.498 235.955c1.26 0 2.268-1.008 2.268-2.31s-1.008-2.31-2.268-2.31c-1.344 0-2.352 1.008-2.352 2.31s1.008 2.31 2.352 2.31ZM90.426 239h1.68v-14.175h-1.68zM99.498 243.83c.987 0 1.953-.483 1.953-1.827 0-1.47-.945-1.974-1.911-1.974-.105 0-.21 0-.294.021l.294-.861c1.806-.126 2.751-1.533 2.751-2.793 0-2.163-1.995-2.94-3.591-3.549-1.092-.42-1.995-.777-1.995-1.449 0-.63.483-1.113 1.365-1.113.966 0 2.247.525 3.297 1.512l.966-1.155c-1.344-1.134-2.751-1.806-4.221-1.806-1.386 0-3.087.819-3.087 2.709 0 1.449 1.029 2.163 3.234 2.94 1.764.63 2.352 1.344 2.352 1.953 0 .903-.546 1.281-1.302 1.281-1.05 0-2.499-.672-3.612-1.512l-.966 1.176c1.176.987 2.457 1.554 3.612 1.743l-.504 1.428.294 1.008c.252-.168.777-.378 1.197-.378.525 0 .777.378.777.735 0 .378-.252.756-.777.756-.441 0-.945-.21-1.197-.378l-.294 1.029c.378.294 1.029.504 1.659.504ZM109.578 243.83c.987 0 1.953-.483 1.953-1.827 0-1.47-.945-1.974-1.911-1.974-.105 0-.21 0-.294.021l.294-.861a4.878 4.878 0 0 0 2.646-1.071l-.945-1.155c-.756.504-1.554.756-2.31.756-2.121 0-3.171-1.848-3.171-3.696s1.071-3.717 3.234-3.717c.777 0 1.638.273 2.478.882l.861-1.134c-.945-.777-2.1-1.239-3.276-1.239-3.339 0-5.019 2.604-5.019 5.187 0 2.415 1.428 4.809 4.284 5.166l-.483 1.386.294 1.008c.252-.168.777-.378 1.197-.378.525 0 .777.378.777.735 0 .378-.252.756-.777.756-.441 0-.945-.21-1.197-.378l-.294 1.029c.378.294 1.029.504 1.659.504ZM114.723 239h1.575v-9.975h-1.575V239Zm-.357-13.23c0 .735.567 1.113 1.155 1.113.567 0 1.155-.378 1.155-1.113s-.588-1.113-1.155-1.113c-.588 0-1.155.378-1.155 1.113ZM125.118 239h1.575v-14.7h-1.575zM130.263 239h1.575v-9.975h-1.575V239Zm-.357-13.23c0 .735.567 1.113 1.155 1.113.567 0 1.155-.378 1.155-1.113s-.588-1.113-1.155-1.113c-.588 0-1.155.378-1.155 1.113ZM138.516 239.21c.987 0 2.058-.63 3.024-1.806l-.966-1.134c-.819.945-1.596 1.449-2.205 1.449-.714 0-1.071-.693-1.071-2.184v-5.019h3.276v-1.491h-3.276v-2.1h-1.575v2.1h-1.47v1.491h1.47v5.565c0 2.184 1.26 3.129 2.793 3.129ZM147.336 239.21c1.323 0 2.625-.462 4.032-1.218l-.756-1.281c-1.134.63-2.205 1.008-3.129 1.008-1.491 0-2.583-.966-2.814-2.835h7.14v-.651c0-3.633-2.226-5.418-4.452-5.418s-4.452 1.659-4.452 5.292c0 3.486 1.953 5.103 4.431 5.103Zm-2.667-5.817c.231-2.1 1.491-3.087 2.772-3.087 1.26 0 2.52 1.029 2.835 3.087h-5.607ZM154.329 239h1.575v-5.775c.882-1.533 1.89-2.919 3.906-2.919.105 0 .21 0 .336.021v-1.428a2.03 2.03 0 0 0-.609-.084c-1.869 0-2.898 1.029-3.633 2.226v-2.016h-1.575V239ZM165.69 239.21c1.029 0 2.1-.42 3.045-1.302V239h1.575v-9.975h-1.575v1.449c-1.029-1.155-2.163-1.659-3.213-1.659-2.163 0-4.011 2.016-4.011 5.25 0 3.15 1.953 5.145 4.179 5.145Zm-2.457-5.271c0-1.932.882-3.633 2.289-3.633 1.134 0 2.016.63 3.213 2.31v3.528c-1.071 1.05-2.142 1.575-3.066 1.575-1.428 0-2.436-1.239-2.436-3.78ZM176.988 239.21c.987 0 2.058-.63 3.024-1.806l-.966-1.134c-.819.945-1.596 1.449-2.205 1.449-.714 0-1.071-.693-1.071-2.184v-5.019h3.276v-1.491h-3.276v-2.1h-1.575v2.1h-1.47v1.491h1.47v5.565c0 2.184 1.26 3.129 2.793 3.129ZM184.884 239.21c1.176 0 2.541-.63 3.738-1.386V239h1.575v-9.975h-1.575v7.161c-1.449.966-2.772 1.533-3.717 1.533-1.029 0-1.638-.693-1.638-2.373v-6.321h-1.575v6.615c0 2.562 1.407 3.57 3.192 3.57Zm-1.932-12.705h6.3v-1.491h-6.3v1.491ZM193.767 239h1.575v-5.775c.882-1.533 1.89-2.919 3.906-2.919.105 0 .21 0 .336.021v-1.428a2.03 2.03 0 0 0-.609-.084c-1.869 0-2.898 1.029-3.633 2.226v-2.016h-1.575V239ZM201.684 239h1.575v-9.975h-1.575V239Zm-.357-13.23c0 .735.567 1.113 1.155 1.113.567 0 1.155-.378 1.155-1.113s-.588-1.113-1.155-1.113c-.588 0-1.155.378-1.155 1.113ZM206.829 239h1.575v-7.161c1.449-.966 2.772-1.533 3.717-1.533 1.029 0 1.638.693 1.638 2.373V239h1.575v-6.615c0-2.562-1.407-3.57-3.192-3.57-1.176 0-2.541.63-3.738 1.386v-1.176h-1.575V239ZM222.18 239.21c1.323 0 2.625-.462 4.032-1.218l-.756-1.281c-1.134.63-2.205 1.008-3.129 1.008-1.491 0-2.583-.966-2.814-2.835h7.14v-.651c0-3.633-2.226-5.418-4.452-5.418s-4.452 1.659-4.452 5.292c0 3.486 1.953 5.103 4.431 5.103Zm-2.667-5.817c.231-2.1 1.491-3.087 2.772-3.087 1.26 0 2.52 1.029 2.835 3.087h-5.607Zm1.533-7.623c0 .735.567 1.113 1.155 1.113.567 0 1.155-.378 1.155-1.113s-.588-1.113-1.155-1.113c-.588 0-1.155.378-1.155 1.113ZM241.038 238.181l3.885-4.704-3.864-4.662h-1.911l3.864 4.641-3.864 4.725h1.89Zm-6.3 0h1.89l3.885-4.704-3.864-4.662h-1.911l3.864 4.641-3.864 4.725ZM252.168 243.83c2.058 0 3.654-1.281 3.654-4.557v-10.248h-1.575v1.449c-1.029-1.155-2.163-1.659-3.213-1.659-2.163 0-4.011 1.995-4.011 5.46 0 3.738 2.1 4.935 4.158 4.935 1.113 0 2.1-.735 3.066-1.911V239c0 2.436-.924 3.297-2.31 3.297-1.113 0-2.415-.609-3.444-1.491l-.966 1.218c1.407 1.113 3.129 1.806 4.641 1.806Zm-3.423-9.807c0-2.037.882-3.717 2.289-3.717 1.134 0 2.016.63 3.213 2.31v2.814c-1.197 1.68-2.058 2.289-3.045 2.289-1.344 0-2.457-1.197-2.457-3.696ZM262.773 239.21c1.323 0 2.625-.462 4.032-1.218l-.756-1.281c-1.134.63-2.205 1.008-3.129 1.008-1.491 0-2.583-.966-2.814-2.835h7.14v-.651c0-3.633-2.226-5.418-4.452-5.418s-4.452 1.659-4.452 5.292c0 3.486 1.953 5.103 4.431 5.103Zm-2.667-5.817c.231-2.1 1.491-3.087 2.772-3.087 1.26 0 2.52 1.029 2.835 3.087h-5.607ZM270.081 227.345v1.68h-1.47v1.491h1.47V239h1.575v-8.484h3.276v-1.491h-3.276v-1.428c0-1.449.567-2.016 1.449-2.016.63 0 1.449.294 2.31.756l.756-1.197c-.945-.693-2.037-1.05-3.024-1.05-1.68 0-3.066 1.029-3.066 3.255ZM280.455 239.21c1.029 0 2.1-.42 3.045-1.302V239h1.575v-9.975H283.5v1.449c-1.029-1.155-2.163-1.659-3.213-1.659-2.163 0-4.011 2.016-4.011 5.25 0 3.15 1.953 5.145 4.179 5.145Zm-2.625-13.44c0 .735.567 1.113 1.155 1.113.567 0 1.155-.378 1.155-1.113s-.588-1.113-1.155-1.113c-.588 0-1.155.378-1.155 1.113Zm.168 8.169c0-1.932.882-3.633 2.289-3.633 1.134 0 2.016.63 3.213 2.31v3.528c-1.071 1.05-2.142 1.575-3.066 1.575-1.428 0-2.436-1.239-2.436-3.78Zm3.927-8.169c0 .735.567 1.113 1.155 1.113.567 0 1.155-.378 1.155-1.113s-.588-1.113-1.155-1.113c-.588 0-1.155.378-1.155 1.113ZM296.31 239.21c1.659 0 3.108-.819 3.108-2.877 0-1.386-.966-2.415-2.856-3.213-1.05-.441-1.995-.987-1.995-1.722 0-.966 1.449-1.197 3.612-1.197 0-4.2-2.73-6.111-5.229-6.111-2.079 0-3.99 1.344-3.99 3.801v1.134h-1.47v1.491h1.47V239h1.575v-11.109c0-1.596 1.113-2.331 2.373-2.331 1.575 0 3.36 1.155 3.465 3.255-2.163 0-3.528 1.365-3.528 2.814 0 1.113.777 2.226 2.499 2.856 1.323.483 2.352 1.05 2.352 1.953 0 .924-.588 1.281-1.302 1.281-1.134 0-2.541-.693-3.612-1.512l-.966 1.176c1.092 1.029 2.94 1.827 4.494 1.827ZM305.088 238.181h1.89l-3.864-4.725 3.864-4.641h-1.911l-3.864 4.662 3.885 4.704Zm.525-4.704 3.885 4.704h1.89l-3.864-4.725 3.864-4.641h-1.911l-3.864 4.662ZM320.838 227.345v1.68h-1.47v1.491h1.47V239h1.575v-8.484h3.276v-1.491h-3.276v-1.428c0-1.449.567-2.016 1.449-2.016.63 0 1.449.294 2.31.756l.756-1.197c-.945-.693-2.037-1.05-3.024-1.05-1.68 0-3.066 1.029-3.066 3.255ZM331.212 239.21c1.029 0 2.1-.42 3.045-1.302V239h1.575v-9.975h-1.575v1.449c-1.029-1.155-2.163-1.659-3.213-1.659-2.163 0-4.011 2.016-4.011 5.25 0 3.15 1.953 5.145 4.179 5.145Zm-2.457-5.271c0-1.932.882-3.633 2.289-3.633 1.134 0 2.016.63 3.213 2.31v3.528c-1.071 1.05-2.142 1.575-3.066 1.575-1.428 0-2.436-1.239-2.436-3.78Zm1.26-8.148c0 1.218.945 1.848 1.785 1.848.819 0 1.785-.63 1.785-1.848 0-1.26-.966-1.848-1.785-1.848-.84 0-1.785.588-1.785 1.848Zm1.05 0c0-.504.315-.903.735-.903s.735.399.735.903-.315.903-.735.903-.735-.399-.735-.903ZM343.098 239.21c1.323 0 2.625-.462 4.032-1.218l-.756-1.281c-1.134.63-2.205 1.008-3.129 1.008-1.491 0-2.583-.966-2.814-2.835h7.14v-.651c0-3.633-2.226-5.418-4.452-5.418s-4.452 1.659-4.452 5.292c0 3.486 1.953 5.103 4.431 5.103Zm-2.667-5.817c.231-2.1 1.491-3.087 2.772-3.087 1.26 0 2.52 1.029 2.835 3.087h-5.607ZM353.199 239.21c.987 0 2.058-.63 3.024-1.806l-.966-1.134c-.819.945-1.596 1.449-2.205 1.449-.714 0-1.071-.693-1.071-2.184v-5.019h3.276v-1.491h-3.276v-2.1h-1.575v2.1h-1.47v1.491h1.47v5.565c0 2.184 1.26 3.129 2.793 3.129ZM4.662 270.5h1.47l4.347-9.975H8.652l-3.255 7.959-3.255-7.959H.315zM16.023 270.71c1.029 0 2.1-.42 3.045-1.302v1.092h1.575v-9.975h-1.575v1.449c-1.029-1.155-2.163-1.659-3.213-1.659-2.163 0-4.011 2.016-4.011 5.25 0 3.15 1.953 5.145 4.179 5.145Zm-2.457-5.271c0-1.932.882-3.633 2.289-3.633 1.134 0 2.016.63 3.213 2.31v3.528c-1.071 1.05-2.142 1.575-3.066 1.575-1.428 0-2.436-1.239-2.436-3.78ZM27.657 270.71c1.029 0 2.079-.399 3.045-1.239v1.029h1.575v-14.7h-1.575v5.418c-1.008-.651-1.974-.903-2.835-.903-2.646 0-4.389 2.541-4.389 5.187 0 3.318 1.974 5.208 4.179 5.208Zm-2.457-5.208c0-2.352 1.323-3.717 2.982-3.717.798 0 1.68.336 2.52 1.05v4.893c-1.113 1.008-2.163 1.491-3.045 1.491-1.47 0-2.457-1.323-2.457-3.717ZM35.847 270.5h1.575v-9.975h-1.575v9.975Zm-.987-12.495h3.57v-1.491h-3.57v1.491ZM45.612 270.71c2.205 0 4.179-1.89 4.179-5.208 0-2.646-1.743-5.187-4.389-5.187-.861 0-1.827.252-2.835.903V255.8h-1.575v14.7h1.575v-1.029c.966.84 2.016 1.239 3.045 1.239Zm-3.045-2.982v-4.893c.84-.714 1.722-1.05 2.52-1.05 1.659 0 2.982 1.365 2.982 3.717 0 2.394-.987 3.717-2.457 3.717-.882 0-1.932-.483-3.045-1.491ZM56.07 270.71c1.029 0 2.1-.42 3.045-1.302v1.092h1.575v-9.975h-1.575v1.449c-1.029-1.155-2.163-1.659-3.213-1.659-2.163 0-4.011 2.016-4.011 5.25 0 3.15 1.953 5.145 4.179 5.145Zm-2.562-12.705h6.3v-1.491h-6.3v1.491Zm.105 7.434c0-1.932.882-3.633 2.289-3.633 1.134 0 2.016.63 3.213 2.31v3.528c-1.071 1.05-2.142 1.575-3.066 1.575-1.428 0-2.436-1.239-2.436-3.78ZM69.51 270.5h1.575v-5.775c.882-1.533 1.89-2.919 3.906-2.919.105 0 .21 0 .336.021v-1.428a2.03 2.03 0 0 0-.609-.084c-1.869 0-2.898 1.029-3.633 2.226v-2.016H69.51v9.975ZM81.123 270.71c1.323 0 2.625-.462 4.032-1.218l-.756-1.281c-1.134.63-2.205 1.008-3.129 1.008-1.491 0-2.583-.966-2.814-2.835h7.14v-.651c0-3.633-2.226-5.418-4.452-5.418s-4.452 1.659-4.452 5.292c0 3.486 1.953 5.103 4.431 5.103Zm-2.667-5.817c.231-2.1 1.491-3.087 2.772-3.087 1.26 0 2.52 1.029 2.835 3.087h-5.607ZM88.116 270.5h1.575v-9.975h-1.575v9.975Zm-1.386-12.642.189 1.008 2.016-1.596 1.995 1.596.168-1.008-2.163-2.625-2.205 2.625ZM93.261 270.5h1.575v-7.161c1.449-.966 2.772-1.533 3.717-1.533 1.029 0 1.638.693 1.638 2.373v6.321h1.575v-6.615c0-2.562-1.407-3.57-3.192-3.57-1.176 0-2.541.63-3.738 1.386v-1.176h-1.575v9.975ZM108.024 270.71c.987 0 2.058-.63 3.024-1.806l-.966-1.134c-.819.945-1.596 1.449-2.205 1.449-.714 0-1.071-.693-1.071-2.184v-5.019h3.276v-1.491h-3.276v-2.1h-1.575v2.1h-1.47v1.491h1.47v5.565c0 2.184 1.26 3.129 2.793 3.129ZM116.592 270.71c1.029 0 2.1-.42 3.045-1.302v1.092h1.575v-9.975h-1.575v1.449c-1.029-1.155-2.163-1.659-3.213-1.659-2.163 0-4.011 2.016-4.011 5.25 0 3.15 1.953 5.145 4.179 5.145Zm-2.814-12.621.273 1.008 3.15-1.617 3.129 1.617.252-1.008-3.381-2.625-3.423 2.625Zm.357 7.35c0-1.932.882-3.633 2.289-3.633 1.134 0 2.016.63 3.213 2.31v3.528c-1.071 1.05-2.142 1.575-3.066 1.575-1.428 0-2.436-1.239-2.436-3.78ZM124.782 270.5h1.575v-14.7h-1.575zM129.927 270.5h1.575v-7.161c1.449-.966 2.772-1.533 3.717-1.533 1.029 0 1.638.693 1.638 2.373v6.321h1.575v-6.615c0-2.562-1.407-3.57-3.192-3.57-1.176 0-2.541.63-3.738 1.386v-1.176h-1.575v9.975ZM141.582 270.5h1.575v-9.975h-1.575v9.975Zm-.357-13.23c0 .735.567 1.113 1.155 1.113.567 0 1.155-.378 1.155-1.113s-.588-1.113-1.155-1.113c-.588 0-1.155.378-1.155 1.113ZM147.273 270.71c.63 0 1.134-.504 1.134-1.155s-.504-1.155-1.134-1.155c-.672 0-1.176.504-1.176 1.155s.504 1.155 1.176 1.155ZM166.53 270.71c3.066 0 5.019-1.491 5.019-3.57 0-2.982-2.499-3.822-4.767-4.578-1.953-.651-3.759-1.281-3.759-3.108 0-1.302.924-1.764 2.394-1.764 1.428 0 3.423.84 4.977 1.848l1.029-1.428c-1.806-1.281-4.053-1.995-5.964-1.995-2.352 0-4.221 1.071-4.221 3.444 0 3.045 2.478 3.801 4.767 4.494 1.953.588 3.759 1.134 3.759 3.024 0 1.218-1.176 2.016-2.814 2.016-1.344 0-3.549-.756-4.809-1.848l-1.134 1.239c1.491 1.323 3.633 2.226 5.523 2.226ZM177.597 270.5h1.68v-12.6h4.452v-1.575h-10.605v1.575h4.473zM192.339 270.71c4.662 0 6.972-3.654 6.972-7.308 0-3.633-2.31-7.287-6.972-7.287-4.62 0-6.93 3.654-6.93 7.287 0 3.654 2.31 7.308 6.93 7.308Zm-5.145-7.308c0-2.856 1.722-5.712 5.166-5.712 3.444 0 5.166 2.856 5.166 5.712 0 2.877-1.722 5.733-5.166 5.733-3.444 0-5.166-2.856-5.166-5.733ZM210.588 270.71c2.457 0 3.822-2.31 3.822-4.599 0-2.142-1.197-4.116-3.864-4.389l2.646-3.822v-1.575h-10.941V270.5h1.68v-12.6h7.245l-2.604 3.759v1.491c2.646 0 4.053 1.008 4.053 2.982 0 1.848-.945 2.856-2.247 2.856-.525 0-1.134-.168-1.764-.546l-.903 1.449c1.05.546 2.016.819 2.877.819ZM220.563 270.5h1.68v-12.6h4.452v-1.575H216.09v1.575h4.473zM237.258 270.5h1.974l-3.066-5.166c2.016-.756 3.024-2.541 3.024-4.326 0-2.352-1.722-4.683-5.166-4.683h-4.809V270.5h1.68v-4.809H234.381l2.877 4.809Zm-6.363-6.384V257.9h3.255c2.184 0 3.255 1.554 3.255 3.108s-1.071 3.108-3.255 3.108h-3.255ZM247.464 270.71c2.835 0 5.691-1.722 5.691-5.46v-8.925h-1.68v8.673c0 2.877-2.037 4.137-4.011 4.137-1.995 0-4.032-1.26-4.032-4.137v-8.673h-1.68v8.925c0 3.738 2.856 5.46 5.712 5.46ZM256.62 270.5h1.68v-4.809h3.129c3.444 0 5.166-2.352 5.166-4.683 0-2.352-1.722-4.683-5.166-4.683h-4.809V270.5Zm1.68-6.384V257.9h3.255c2.184 0 3.255 1.554 3.255 3.108s-1.071 3.108-3.255 3.108H258.3ZM269.43 270.5h1.68v-4.809h3.129c3.444 0 5.166-2.352 5.166-4.683 0-2.352-1.722-4.683-5.166-4.683h-4.809V270.5Zm1.68-6.384V257.9h3.255c2.184 0 3.255 1.554 3.255 3.108s-1.071 3.108-3.255 3.108h-3.255ZM7.287 302.21c2.835 0 5.691-1.722 5.691-5.46v-8.925h-1.68v8.673c0 2.877-2.037 4.137-4.011 4.137-1.995 0-4.032-1.26-4.032-4.137v-8.673h-1.68v8.925c0 3.738 2.856 5.46 5.712 5.46Zm-3.15-15.918h6.3v-1.491h-6.3v1.491ZM19.782 302.21c1.029 0 2.079-.399 3.045-1.239V302h1.575v-14.7h-1.575v5.418c-1.008-.651-1.974-.903-2.835-.903-2.646 0-4.389 2.541-4.389 5.187 0 3.318 1.974 5.208 4.179 5.208Zm-2.457-5.208c0-2.352 1.323-3.717 2.982-3.717.798 0 1.68.336 2.52 1.05v4.893c-1.113 1.008-2.163 1.491-3.045 1.491-1.47 0-2.457-1.323-2.457-3.717ZM31.668 302.21c1.323 0 2.625-.462 4.032-1.218l-.756-1.281c-1.134.63-2.205 1.008-3.129 1.008-1.491 0-2.583-.966-2.814-2.835h7.14v-.651c0-3.633-2.226-5.418-4.452-5.418s-4.452 1.659-4.452 5.292c0 3.486 1.953 5.103 4.431 5.103Zm-2.667-5.817c.231-2.1 1.491-3.087 2.772-3.087 1.26 0 2.52 1.029 2.835 3.087h-5.607ZM38.661 302h1.575v-7.161c1.449-.966 2.772-1.533 3.717-1.533 1.029 0 1.638.693 1.638 2.373V302h1.575v-6.615c0-2.562-1.407-3.57-3.192-3.57-1.176 0-2.541.63-3.738 1.386v-1.176h-1.575V302ZM53.76 302.21c2.016 0 3.066-1.491 3.066-2.814 0-2.163-1.995-2.94-3.591-3.549-1.092-.42-1.995-.777-1.995-1.449 0-.63.483-1.113 1.365-1.113.966 0 2.247.525 3.297 1.512l.966-1.155c-1.344-1.134-2.751-1.806-4.221-1.806-1.386 0-3.087.819-3.087 2.709 0 1.449 1.029 2.163 3.234 2.94 1.764.63 2.352 1.344 2.352 1.953 0 .903-.546 1.281-1.302 1.281-1.05 0-2.499-.672-3.612-1.512l-.966 1.176c1.491 1.26 3.129 1.827 4.494 1.827ZM62.496 302.21c.987 0 2.058-.63 3.024-1.806l-.966-1.134c-.819.945-1.596 1.449-2.205 1.449-.714 0-1.071-.693-1.071-2.184v-5.019h3.276v-1.491h-3.276v-2.1h-1.575v2.1h-1.47v1.491h1.47v5.565c0 2.184 1.26 3.129 2.793 3.129ZM67.62 302h1.575v-9.975H67.62V302Zm-.357-13.23c0 .735.567 1.113 1.155 1.113.567 0 1.155-.378 1.155-1.113s-.588-1.113-1.155-1.113c-.588 0-1.155.378-1.155 1.113ZM72.765 302h1.575v-14.7h-1.575zM77.91 306.62h1.575v-5.313c1.008.651 1.974.903 2.835.903 2.646 0 4.389-2.331 4.389-5.061 0-3.318-1.848-5.334-4.011-5.334-1.05 0-2.184.504-3.213 1.659v-1.449H77.91v14.595Zm1.575-6.93v-4.074c1.197-1.68 2.079-2.31 3.213-2.31 1.407 0 2.289 1.701 2.289 3.57 0 2.709-1.323 3.864-2.982 3.864-.798 0-1.68-.336-2.52-1.05ZM89.544 302h1.575v-7.161c1.449-.966 2.772-1.533 3.717-1.533 1.029 0 1.638.693 1.638 2.373V302h1.575v-6.615c0-2.562-1.407-3.57-3.192-3.57-1.176 0-2.541.63-3.738 1.386v-1.176h-1.575V302Zm3.15 1.911c0 .651.504 1.155 1.176 1.155h.042a6.762 6.762 0 0 1-.525 1.554h1.155c.42-.924.588-1.659.588-2.247 0-1.134-.63-1.617-1.26-1.617-.672 0-1.176.504-1.176 1.155ZM103.971 302.21c1.176 0 2.541-.63 3.738-1.386V302h1.575v-9.975h-1.575v7.161c-1.449.966-2.772 1.533-3.717 1.533-1.029 0-1.638-.693-1.638-2.373v-6.321h-1.575v6.615c0 2.562 1.407 3.57 3.192 3.57ZM118.209 302h5.187c3.486 0 5.208-1.911 5.208-4.095 0-1.575-.882-3.066-2.688-3.78a3.742 3.742 0 0 0 1.092-2.625c0-1.848-1.449-3.675-3.969-3.675h-4.83V302Zm1.68-1.575v-5.166h3.633c2.205 0 3.297 1.302 3.297 2.562 0 1.26-1.092 2.604-3.297 2.604h-3.633Zm0-6.741V289.4h3.255c1.386 0 2.079 1.113 2.079 2.163 0 1.029-.693 2.121-2.079 2.121h-3.255ZM131.229 302h1.575v-14.7h-1.575zM140.49 302.21c3.234 0 4.83-2.604 4.83-5.208 0-2.583-1.596-5.187-4.83-5.187s-4.851 2.604-4.851 5.187c0 2.604 1.617 5.208 4.851 5.208Zm-3.129-5.208c0-1.848 1.05-3.696 3.129-3.696 2.079 0 3.108 1.848 3.108 3.696 0 1.869-1.029 3.717-3.108 3.717s-3.129-1.848-3.129-3.717ZM148.155 302h1.575v-7.161c1.449-.966 2.772-1.533 3.717-1.533 1.029 0 1.638.693 1.638 2.373V302h1.575v-6.615c0-2.562-1.407-3.57-3.192-3.57-1.176 0-2.541.63-3.738 1.386v-1.176h-1.575V302ZM163.254 302.21c1.029 0 2.079-.399 3.045-1.239V302h1.575v-14.7h-1.575v5.418c-1.008-.651-1.974-.903-2.835-.903-2.646 0-4.389 2.541-4.389 5.187 0 3.318 1.974 5.208 4.179 5.208Zm-2.457-5.208c0-2.352 1.323-3.717 2.982-3.717.798 0 1.68.336 2.52 1.05v4.893c-1.113 1.008-2.163 1.491-3.045 1.491-1.47 0-2.457-1.323-2.457-3.717ZM174.888 302.21c2.016 0 3.066-1.491 3.066-2.814 0-2.163-1.995-2.94-3.591-3.549-1.092-.42-1.995-.777-1.995-1.449 0-.63.483-1.113 1.365-1.113.966 0 2.247.525 3.297 1.512l.966-1.155c-1.344-1.134-2.751-1.806-4.221-1.806-1.386 0-3.087.819-3.087 2.709 0 1.449 1.029 2.163 3.234 2.94 1.764.63 2.352 1.344 2.352 1.953 0 .903-.546 1.281-1.302 1.281-1.05 0-2.499-.672-3.612-1.512l-.966 1.176c1.491 1.26 3.129 1.827 4.494 1.827ZM193.914 302h1.974l-3.066-5.166c2.016-.756 3.024-2.541 3.024-4.326 0-2.352-1.722-4.683-5.166-4.683h-4.809V302h1.68v-4.809H191.037l2.877 4.809Zm-6.363-6.384V289.4h3.255c2.184 0 3.255 1.554 3.255 3.108s-1.071 3.108-3.255 3.108h-3.255ZM198.618 302h1.575v-9.975h-1.575V302Zm-.357-13.23c0 .735.567 1.113 1.155 1.113.567 0 1.155-.378 1.155-1.113s-.588-1.113-1.155-1.113c-.588 0-1.155.378-1.155 1.113ZM208.173 306.83c2.058 0 3.654-1.281 3.654-4.557v-10.248h-1.575v1.449c-1.029-1.155-2.163-1.659-3.213-1.659-2.163 0-4.011 1.995-4.011 5.46 0 3.738 2.1 4.935 4.158 4.935 1.113 0 2.1-.735 3.066-1.911V302c0 2.436-.924 3.297-2.31 3.297-1.113 0-2.415-.609-3.444-1.491l-.966 1.218c1.407 1.113 3.129 1.806 4.641 1.806Zm-3.423-9.807c0-2.037.882-3.717 2.289-3.717 1.134 0 2.016.63 3.213 2.31v2.814c-1.197 1.68-2.058 2.289-3.045 2.289-1.344 0-2.457-1.197-2.457-3.696ZM215.082 302h1.575v-7.161c1.449-.966 2.772-1.533 3.717-1.533 1.029 0 1.638.693 1.638 2.373V302h1.575v-6.615c0-2.562-1.407-3.57-3.192-3.57-1.176 0-2.541.63-3.738 1.386V287.3h-1.575V302ZM229.845 302.21c.987 0 2.058-.63 3.024-1.806l-.966-1.134c-.819.945-1.596 1.449-2.205 1.449-.714 0-1.071-.693-1.071-2.184v-5.019h3.276v-1.491h-3.276v-2.1h-1.575v2.1h-1.47v1.491h1.47v5.565c0 2.184 1.26 3.129 2.793 3.129ZM234.969 302h1.575v-9.975h-1.575V302Zm-.357-13.23c0 .735.567 1.113 1.155 1.113.567 0 1.155-.378 1.155-1.113s-.588-1.113-1.155-1.113c-.588 0-1.155.378-1.155 1.113ZM243.558 302.21c2.016 0 3.066-1.491 3.066-2.814 0-2.163-1.995-2.94-3.591-3.549-1.092-.42-1.995-.777-1.995-1.449 0-.63.483-1.113 1.365-1.113.966 0 2.247.525 3.297 1.512l.966-1.155c-1.344-1.134-2.751-1.806-4.221-1.806-1.386 0-3.087.819-3.087 2.709 0 1.449 1.029 2.163 3.234 2.94 1.764.63 2.352 1.344 2.352 1.953 0 .903-.546 1.281-1.302 1.281-1.05 0-2.499-.672-3.612-1.512l-.966 1.176c1.491 1.26 3.129 1.827 4.494 1.827ZM249.186 302h1.575v-7.077c1.386-.945 2.478-1.617 3.255-1.617.735 0 1.155.651 1.155 2.373V302h1.575v-6.615c0-.357-.021-.693-.063-.987 1.113-.672 2.121-1.113 2.919-1.113.945 0 1.554.651 1.554 2.394V302h1.575v-6.615c0-2.478-1.071-3.57-2.709-3.57-1.05 0-2.331.441-3.717 1.239-.42-.861-1.155-1.239-2.037-1.239-1.008 0-2.268.504-3.507 1.365v-1.155h-1.575V302ZM276.654 302h1.68l.672-3.759h3.192v-1.491h-2.919l.609-3.444h2.31v-1.491h-2.037l.756-4.2h-1.68l-.756 4.2h-3.339l.756-4.2h-1.68l-.756 4.2h-3.066v1.491h2.793l-.609 3.444h-2.184v1.491h1.911l-.672 3.759h1.68l.672-3.759h3.339l-.672 3.759Zm-2.394-5.25.609-3.444h3.339l-.609 3.444h-3.339ZM288.057 302h1.68v-14.175h-1.68l-4.494 4.221 1.134 1.26 3.36-3.15zM297.297 302.21c2.52 0 5.04-1.197 5.04-3.549 0-1.743-1.407-2.793-3.213-3.906 1.512-1.218 2.331-2.1 2.331-3.549 0-1.89-1.533-3.591-4.158-3.591-2.625 0-4.095 1.701-4.095 3.591 0 1.428.756 2.331 2.247 3.528-1.932 1.113-3.192 2.184-3.192 3.927 0 2.352 2.52 3.549 5.04 3.549Zm-3.276-3.549c0-1.155 1.113-2.247 3.276-3.192 2.163.945 3.276 2.037 3.276 3.192 0 1.323-1.596 1.974-3.192 1.974-1.659 0-3.36-.693-3.36-1.974Zm.903-7.455c0-.945.945-2.016 2.373-2.016 1.428 0 2.436 1.071 2.436 2.016 0 1.575-1.008 2.142-2.436 2.919-1.428-.777-2.373-1.344-2.373-2.919ZM309.183 302.21c3.066 0 4.767-1.911 4.767-3.885 0-1.344-.819-2.751-2.583-3.57 1.365-.819 2.037-2.1 2.037-3.381 0-2.583-1.932-3.759-4.284-3.759-1.764 0-3.738.651-5.313 1.869l.714 1.512c1.407-1.008 3.297-1.806 4.767-1.806 1.47 0 2.331 1.092 2.331 2.226 0 1.26-1.029 2.583-3.402 2.583v1.575c2.709 0 3.927 1.386 3.927 2.709 0 1.197-1.008 2.352-2.877 2.352-1.512 0-3.339-.903-4.746-1.785l-.714 1.512c1.533 1.176 3.549 1.848 5.376 1.848ZM1.89 333.5h5.187c3.486 0 5.208-1.911 5.208-4.095 0-1.575-.882-3.066-2.688-3.78A3.742 3.742 0 0 0 10.689 323c0-1.848-1.449-3.675-3.969-3.675H1.89V333.5Zm1.68-1.575v-5.166h3.633c2.205 0 3.297 1.302 3.297 2.562 0 1.26-1.092 2.604-3.297 2.604H3.57Zm0-6.741V320.9h3.255c1.386 0 2.079 1.113 2.079 2.163 0 1.029-.693 2.121-2.079 2.121H3.57ZM14.91 333.5h1.575v-14.7H14.91zM22.827 333.71c1.176 0 2.541-.63 3.738-1.386v1.176h1.575v-9.975h-1.575v7.161c-1.449.966-2.772 1.533-3.717 1.533-1.029 0-1.638-.693-1.638-2.373v-6.321h-1.575v6.615c0 2.562 1.407 3.57 3.192 3.57ZM31.71 333.5h1.575v-7.161c1.449-.966 2.772-1.533 3.717-1.533 1.029 0 1.638.693 1.638 2.373v6.321h1.575v-6.615c0-2.562-1.407-3.57-3.192-3.57-1.176 0-2.541.63-3.738 1.386v-1.176H31.71v9.975ZM46.809 333.71c1.029 0 2.079-.399 3.045-1.239v1.029h1.575v-14.7h-1.575v5.418c-1.008-.651-1.974-.903-2.835-.903-2.646 0-4.389 2.541-4.389 5.187 0 3.318 1.974 5.208 4.179 5.208Zm-2.457-5.208c0-2.352 1.323-3.717 2.982-3.717.798 0 1.68.336 2.52 1.05v4.893c-1.113 1.008-2.163 1.491-3.045 1.491-1.47 0-2.457-1.323-2.457-3.717ZM58.695 333.71c1.323 0 2.625-.462 4.032-1.218l-.756-1.281c-1.134.63-2.205 1.008-3.129 1.008-1.491 0-2.583-.966-2.814-2.835h7.14v-.651c0-3.633-2.226-5.418-4.452-5.418s-4.452 1.659-4.452 5.292c0 3.486 1.953 5.103 4.431 5.103Zm-2.667-5.817c.231-2.1 1.491-3.087 2.772-3.087 1.26 0 2.52 1.029 2.835 3.087h-5.607ZM65.688 333.5h1.575v-5.775c.882-1.533 1.89-2.919 3.906-2.919.105 0 .21 0 .336.021v-1.428a2.03 2.03 0 0 0-.609-.084c-1.869 0-2.898 1.029-3.633 2.226v-2.016h-1.575v9.975ZM78.96 333.5h8.253v-1.575H80.64v-12.6h-1.68zM93.072 333.71c1.029 0 2.1-.42 3.045-1.302v1.092h1.575v-9.975h-1.575v1.449c-1.029-1.155-2.163-1.659-3.213-1.659-2.163 0-4.011 2.016-4.011 5.25 0 3.15 1.953 5.145 4.179 5.145Zm-2.667-12.411.378 1.008 6.132-2.31-.651-1.764-5.859 3.066Zm.21 7.14c0-1.932.882-3.633 2.289-3.633 1.134 0 2.016.63 3.213 2.31v3.528c-1.071 1.05-2.142 1.575-3.066 1.575-1.428 0-2.436-1.239-2.436-3.78ZM104.706 333.71c2.016 0 3.066-1.491 3.066-2.814 0-2.163-1.995-2.94-3.591-3.549-1.092-.42-1.995-.777-1.995-1.449 0-.63.483-1.113 1.365-1.113.966 0 2.247.525 3.297 1.512l.966-1.155c-1.344-1.134-2.751-1.806-4.221-1.806-1.386 0-3.087.819-3.087 2.709 0 1.449 1.029 2.163 3.234 2.94 1.764.63 2.352 1.344 2.352 1.953 0 .903-.546 1.281-1.302 1.281-1.05 0-2.499-.672-3.612-1.512l-.966 1.176c1.491 1.26 3.129 1.827 4.494 1.827ZM113.442 333.71c.987 0 2.058-.63 3.024-1.806l-.966-1.134c-.819.945-1.596 1.449-2.205 1.449-.714 0-1.071-.693-1.071-2.184v-5.019h3.276v-1.491h-3.276v-2.1h-1.575v2.1h-1.47v1.491h1.47v5.565c0 2.184 1.26 3.129 2.793 3.129ZM118.566 333.5h1.575v-9.975h-1.575v9.975Zm-.357-13.23c0 .735.567 1.113 1.155 1.113.567 0 1.155-.378 1.155-1.113s-.588-1.113-1.155-1.113c-.588 0-1.155.378-1.155 1.113ZM123.711 333.5h1.575v-7.077c1.386-.945 2.478-1.617 3.255-1.617.735 0 1.155.651 1.155 2.373v6.321h1.575v-6.615c0-.357-.021-.693-.063-.987 1.113-.672 2.121-1.113 2.919-1.113.945 0 1.554.651 1.554 2.394v6.321h1.575v-6.615c0-2.478-1.071-3.57-2.709-3.57-1.05 0-2.331.441-3.717 1.239-.42-.861-1.155-1.239-2.037-1.239-1.008 0-2.268.504-3.507 1.365v-1.155h-1.575v9.975ZM143.85 333.71c1.029 0 2.1-.42 3.045-1.302v1.092h1.575v-9.975h-1.575v1.449c-1.029-1.155-2.163-1.659-3.213-1.659-2.163 0-4.011 2.016-4.011 5.25 0 3.15 1.953 5.145 4.179 5.145Zm-2.457-5.271c0-1.932.882-3.633 2.289-3.633 1.134 0 2.016.63 3.213 2.31v3.528c-1.071 1.05-2.142 1.575-3.066 1.575-1.428 0-2.436-1.239-2.436-3.78ZM157.395 333.5h5.187c3.486 0 5.208-1.911 5.208-4.095 0-1.575-.882-3.066-2.688-3.78a3.742 3.742 0 0 0 1.092-2.625c0-1.848-1.449-3.675-3.969-3.675h-4.83V333.5Zm1.68-1.575v-5.166h3.633c2.205 0 3.297 1.302 3.297 2.562 0 1.26-1.092 2.604-3.297 2.604h-3.633Zm0-6.741V320.9h3.255c1.386 0 2.079 1.113 2.079 2.163 0 1.029-.693 2.121-2.079 2.121h-3.255ZM174.111 333.71c1.323 0 2.625-.462 4.032-1.218l-.756-1.281c-1.134.63-2.205 1.008-3.129 1.008-1.491 0-2.583-.966-2.814-2.835h7.14v-.651c0-3.633-2.226-5.418-4.452-5.418s-4.452 1.659-4.452 5.292c0 3.486 1.953 5.103 4.431 5.103Zm-2.667-5.817c.231-2.1 1.491-3.087 2.772-3.087 1.26 0 2.52 1.029 2.835 3.087h-5.607ZM181.104 333.5h1.575v-14.7h-1.575zM186.249 333.5h1.575v-14.7h-1.575zM194.838 333.71c1.029 0 2.1-.42 3.045-1.302v1.092h1.575v-9.975h-1.575v1.449c-1.029-1.155-2.163-1.659-3.213-1.659-2.163 0-4.011 2.016-4.011 5.25 0 3.15 1.953 5.145 4.179 5.145Zm-2.457-5.271c0-1.932.882-3.633 2.289-3.633 1.134 0 2.016.63 3.213 2.31v3.528c-1.071 1.05-2.142 1.575-3.066 1.575-1.428 0-2.436-1.239-2.436-3.78ZM203.028 333.5h1.575v-7.161c1.449-.966 2.772-1.533 3.717-1.533 1.029 0 1.638.693 1.638 2.373v6.321h1.575v-6.615c0-2.562-1.407-3.57-3.192-3.57-1.176 0-2.541.63-3.738 1.386v-1.176h-1.575v9.975ZM218.127 333.71c1.029 0 2.079-.399 3.045-1.239v1.029h1.575v-14.7h-1.575v5.418c-1.008-.651-1.974-.903-2.835-.903-2.646 0-4.389 2.541-4.389 5.187 0 3.318 1.974 5.208 4.179 5.208Zm-2.457-5.208c0-2.352 1.323-3.717 2.982-3.717.798 0 1.68.336 2.52 1.05v4.893c-1.113 1.008-2.163 1.491-3.045 1.491-1.47 0-2.457-1.323-2.457-3.717ZM226.317 333.5h1.575v-9.975h-1.575v9.975Zm-.357-13.23c0 .735.567 1.113 1.155 1.113.567 0 1.155-.378 1.155-1.113s-.588-1.113-1.155-1.113c-.588 0-1.155.378-1.155 1.113ZM231.252 329.804h1.575l.525-10.479h-2.625l.525 10.479Zm-.378 2.751c0 .651.504 1.155 1.176 1.155.63 0 1.134-.504 1.134-1.155s-.504-1.155-1.134-1.155c-.672 0-1.176.504-1.176 1.155ZM244.755 333.5h1.68v-12.6h4.452v-1.575h-10.605v1.575h4.473zM253.302 333.5h1.575v-9.975h-1.575v9.975Zm-.987-12.495h3.57v-1.491h-3.57v1.491ZM258.447 333.5h1.575v-5.775c.882-1.533 1.89-2.919 3.906-2.919.105 0 .21 0 .336.021v-1.428a2.03 2.03 0 0 0-.609-.084c-1.869 0-2.898 1.029-3.633 2.226v-2.016h-1.575v9.975ZM266.364 333.5h1.575v-9.975h-1.575v9.975Zm-.357-13.23c0 .735.567 1.113 1.155 1.113.567 0 1.155-.378 1.155-1.113s-.588-1.113-1.155-1.113c-.588 0-1.155.378-1.155 1.113ZM281.484 338.33c.987 0 1.953-.483 1.953-1.827 0-1.47-.945-1.974-1.911-1.974-.105 0-.21 0-.294.021l.294-.861a4.878 4.878 0 0 0 2.646-1.071l-.945-1.155c-.756.504-1.554.756-2.31.756-2.121 0-3.171-1.848-3.171-3.696s1.071-3.717 3.234-3.717c.777 0 1.638.273 2.478.882l.861-1.134c-.945-.777-2.1-1.239-3.276-1.239-3.339 0-5.019 2.604-5.019 5.187 0 2.415 1.428 4.809 4.284 5.166l-.483 1.386.294 1.008c.252-.168.777-.378 1.197-.378.525 0 .777.378.777.735 0 .378-.252.756-.777.756-.441 0-.945-.21-1.197-.378l-.294 1.029c.378.294 1.029.504 1.659.504ZM290.073 333.71c1.029 0 2.1-.42 3.045-1.302v1.092h1.575v-9.975h-1.575v1.449c-1.029-1.155-2.163-1.659-3.213-1.659-2.163 0-4.011 2.016-4.011 5.25 0 3.15 1.953 5.145 4.179 5.145Zm-2.457-5.271c0-1.932.882-3.633 2.289-3.633 1.134 0 2.016.63 3.213 2.31v3.528c-1.071 1.05-2.142 1.575-3.066 1.575-1.428 0-2.436-1.239-2.436-3.78ZM302.673 338.33c2.058 0 3.654-1.281 3.654-4.557v-10.248h-1.575v1.449c-1.029-1.155-2.163-1.659-3.213-1.659-2.163 0-4.011 1.995-4.011 5.46 0 3.738 2.1 4.935 4.158 4.935 1.113 0 2.1-.735 3.066-1.911v1.701c0 2.436-.924 3.297-2.31 3.297-1.113 0-2.415-.609-3.444-1.491l-.966 1.218c1.407 1.113 3.129 1.806 4.641 1.806Zm-4.116-19.824c0 2.016 1.344 3.528 3.15 3.528 1.806 0 3.15-1.533 3.15-3.528h-1.575c0 1.365-.777 2.037-1.575 2.037-.777 0-1.575-.672-1.575-2.037h-1.575Zm.693 10.017c0-2.037.882-3.717 2.289-3.717 1.134 0 2.016.63 3.213 2.31v2.814c-1.197 1.68-2.058 2.289-3.045 2.289-1.344 0-2.457-1.197-2.457-3.696ZM309.372 336.041h1.155c.714-1.302.966-2.289.966-3.024 0-1.134-.63-1.617-1.26-1.617-.672 0-1.176.504-1.176 1.155s.504 1.155 1.176 1.155h.042c-.126.63-.399 1.407-.903 2.331ZM319.578 333.5h1.68v-5.943h6.111v-1.575h-6.111V320.9h7.497v-1.575h-9.177zM333.942 333.71c1.176 0 2.541-.63 3.738-1.386v1.176h1.575v-9.975h-1.575v7.161c-1.449.966-2.772 1.533-3.717 1.533-1.029 0-1.638-.693-1.638-2.373v-6.321h-1.575v6.615c0 2.562 1.407 3.57 3.192 3.57ZM342.405 329.153h7.35v-1.491h-7.35zM356.013 333.71c.987 0 2.058-.63 3.024-1.806l-.966-1.134c-.819.945-1.596 1.449-2.205 1.449-.714 0-1.071-.693-1.071-2.184v-5.019h3.276v-1.491h-3.276v-2.1h-1.575v2.1h-1.47v1.491h1.47v5.565c0 2.184 1.26 3.129 2.793 3.129Zm.063-10.794.861.21 1.344-4.389-1.575-.147-.63 4.326ZM361.137 333.5h1.575v-9.975h-1.575v9.975Zm-.357-13.23c0 .735.567 1.113 1.155 1.113.567 0 1.155-.378 1.155-1.113s-.588-1.113-1.155-1.113c-.588 0-1.155.378-1.155 1.113ZM369.978 333.71c1.323 0 2.625-.462 4.032-1.218l-.756-1.281c-1.134.63-2.205 1.008-3.129 1.008-1.491 0-2.583-.966-2.814-2.835h7.14v-.651c0-3.633-2.226-5.418-4.452-5.418s-4.452 1.659-4.452 5.292c0 3.486 1.953 5.103 4.431 5.103Zm-2.667-5.817c.231-2.1 1.491-3.087 2.772-3.087 1.26 0 2.52 1.029 2.835 3.087h-5.607ZM376.971 333.5h1.575v-7.161c1.449-.966 2.772-1.533 3.717-1.533 1.029 0 1.638.693 1.638 2.373v6.321h1.575v-6.615c0-2.562-1.407-3.57-3.192-3.57-1.176 0-2.541.63-3.738 1.386v-1.176h-1.575v9.975ZM5.901 365.21c3.234 0 4.83-2.604 4.83-5.208 0-2.583-1.596-5.187-4.83-5.187s-4.851 2.604-4.851 5.187c0 2.604 1.617 5.208 4.851 5.208Zm-3.129-5.208c0-1.848 1.05-3.696 3.129-3.696 2.079 0 3.108 1.848 3.108 3.696 0 1.869-1.029 3.717-3.108 3.717s-3.129-1.848-3.129-3.717ZM13.566 365h1.575v-5.775c.882-1.533 1.89-2.919 3.906-2.919.105 0 .21 0 .336.021v-1.428a2.03 2.03 0 0 0-.609-.084c-1.869 0-2.898 1.029-3.633 2.226v-2.016h-1.575V365ZM34.818 365h7.707v-1.575h-6.216l-.966-4.998h5.796v-1.575h-6.09l-.903-4.452h8.379v-1.575H32.067v.042L25.578 365h1.89l1.428-3.15h5.313l.609 3.15Zm-5.208-4.725 3.003-6.636 1.281 6.636H29.61ZM45.255 365h1.575v-5.775c.882-1.533 1.89-2.919 3.906-2.919.105 0 .21 0 .336.021v-1.428a2.03 2.03 0 0 0-.609-.084c-1.869 0-2.898 1.029-3.633 2.226v-2.016h-1.575V365ZM55.041 367.1l.987-2.037c.399.105.819.147 1.26.147 3.234 0 4.83-2.604 4.83-5.208 0-1.512-.546-3.045-1.659-4.053l1.155-2.394-1.386-.63-1.071 2.226a5.2 5.2 0 0 0-1.869-.336c-3.234 0-4.851 2.604-4.851 5.187 0 1.764.735 3.507 2.205 4.473l-.966 1.995 1.365.63Zm-.882-7.098c0-1.848 1.05-3.696 3.129-3.696.441 0 .84.084 1.197.231l-3.129 6.468c-.798-.714-1.197-1.848-1.197-3.003Zm2.541 3.675 2.982-6.132c.483.672.714 1.575.714 2.457 0 1.869-1.029 3.717-3.108 3.717-.21 0-.399-.021-.588-.042ZM70.203 365h1.575v-3.297l1.617-1.659L76.608 365h1.848l-3.99-6.048 3.801-3.927h-2.079l-4.41 4.557V350.3h-1.575zM80.661 365h1.575v-5.775c.882-1.533 1.89-2.919 3.906-2.919.105 0 .21 0 .336.021v-1.428a2.03 2.03 0 0 0-.609-.084c-1.869 0-2.898 1.029-3.633 2.226v-2.016h-1.575V365ZM88.578 365h1.575v-9.975h-1.575V365Zm-.357-13.23c0 .735.567 1.113 1.155 1.113.567 0 1.155-.378 1.155-1.113s-.588-1.113-1.155-1.113c-.588 0-1.155.378-1.155 1.113ZM93.723 365h1.575v-3.297l1.617-1.659 3.213 4.956h1.848l-3.99-6.048 3.801-3.927h-2.079l-4.41 4.557V350.3h-1.575zM104.181 365h1.575v-14.7h-1.575V365Zm2.205-10.584.861.21 1.344-4.389-1.575-.147-.63 4.326ZM112.098 365.21c1.176 0 2.541-.63 3.738-1.386V365h1.575v-9.975h-1.575v7.161c-1.449.966-2.772 1.533-3.717 1.533-1.029 0-1.638-.693-1.638-2.373v-6.321h-1.575v6.615c0 2.562 1.407 3.57 3.192 3.57Zm-2.037-12.411.378 1.008 6.132-2.31-.651-1.764-5.859 3.066ZM120.981 365h1.575v-7.161c1.449-.966 2.772-1.533 3.717-1.533 1.029 0 1.638.693 1.638 2.373V365h1.575v-6.615c0-2.562-1.407-3.57-3.192-3.57-1.176 0-2.541.63-3.738 1.386v-1.176h-1.575V365Zm.693-13.818 3.381 2.625 3.423-2.625-.273-1.008-3.15 1.617-3.129-1.617-.252 1.008ZM138.201 353.345v1.68h-1.47v1.491h1.47V365h1.575v-8.484h3.276v-1.491h-3.276v-1.428c0-1.449.567-2.016 1.449-2.016.63 0 1.449.294 2.31.756l.756-1.197c-.945-.693-2.037-1.05-3.024-1.05-1.68 0-3.066 1.029-3.066 3.255ZM148.827 365.21c1.323 0 2.625-.462 4.032-1.218l-.756-1.281c-1.134.63-2.205 1.008-3.129 1.008-1.491 0-2.583-.966-2.814-2.835h7.14v-.651c0-3.633-2.226-5.418-4.452-5.418s-4.452 1.659-4.452 5.292c0 3.486 1.953 5.103 4.431 5.103Zm-3.234-12.411.378 1.008 6.132-2.31-.651-1.764-5.859 3.066Zm.567 6.594c.231-2.1 1.491-3.087 2.772-3.087 1.26 0 2.52 1.029 2.835 3.087h-5.607ZM159.264 365.21c2.016 0 3.066-1.491 3.066-2.814 0-2.163-1.995-2.94-3.591-3.549-1.092-.42-1.995-.777-1.995-1.449 0-.63.483-1.113 1.365-1.113.966 0 2.247.525 3.297 1.512l.966-1.155c-1.344-1.134-2.751-1.806-4.221-1.806-1.386 0-3.087.819-3.087 2.709 0 1.449 1.029 2.163 3.234 2.94 1.764.63 2.352 1.344 2.352 1.953 0 .903-.546 1.281-1.302 1.281-1.05 0-2.499-.672-3.612-1.512l-.966 1.176c1.491 1.26 3.129 1.827 4.494 1.827ZM167.664 365.21c1.176 0 2.541-.63 3.738-1.386V365h1.575v-9.975h-1.575v7.161c-1.449.966-2.772 1.533-3.717 1.533-1.029 0-1.638-.693-1.638-2.373v-6.321h-1.575v6.615c0 2.562 1.407 3.57 3.192 3.57Zm-1.176-11.634.861.21 1.344-4.41-1.575-.147-.63 4.347Zm2.583.021.861.21 1.344-4.41-1.575-.126-.63 4.326ZM178.773 361.304h1.575c0-3.129 0-3.339 1.092-3.801 1.974-.84 2.856-2.247 2.856-3.57 0-1.743-1.491-3.318-4.074-3.318-1.827 0-3.087.84-4.41 1.89l1.071 1.344c1.071-1.092 2.415-1.596 3.528-1.596 1.197 0 2.142.609 2.142 1.764 0 .651-.336 1.596-1.302 1.995-1.302.546-2.478 1.071-2.478 2.478v2.814Zm-.42 2.751c0 .651.504 1.155 1.176 1.155.63 0 1.134-.504 1.134-1.155s-.504-1.155-1.134-1.155c-.672 0-1.176.504-1.176 1.155Z"/></g></svg>