<svg xmlns="http://www.w3.org/2000/svg" width="320" height="40"><g fill="#000" fill-rule="nonzero"><path d="m11.176 30 .616.28c.616-.952 2.268-2.156 3.276-2.66v-1.008l-1.848 1.036v-4.2c0-4.116-1.652-6.048-4.592-6.048-1.316 0-2.772.672-4.088 2.072l.364.84c1.036-.616 1.876-.896 2.604-.896 1.82 0 2.8.98 3.304 2.716l-7.056 3.024a8.781 8.781 0 0 0-.196 1.82c0 1.652.896 3.304 3.108 3.304 1.204 0 3.304-1.708 4.564-2.996L11.176 30ZM4.848 14.656l.252.504 4.956-1.484c1.26-.588 1.96-1.484 2.212-2.156l-2.128-.728c-.392 1.316-1.176 1.932-5.292 3.864Zm1.036 11.9c0-.308.056-.588.196-.896l4.984-2.184c.112.784.168 1.708.168 2.688-1.232 1.092-2.744 1.764-3.864 1.764-.868 0-1.484-.42-1.484-1.372ZM16.468 30h5.544v-1.008c-1.232 0-1.652-.28-1.736-1.288l-.028-2.996V22.72c1.008-1.736 2.436-2.94 3.332-3.304.952 0 1.764.672 2.688 1.54.84-.364 1.4-.896 1.68-1.68-1.26-1.4-2.212-1.876-3.976-1.876-1.708.588-2.968 2.24-3.724 3.584.028-1.512.056-2.744.112-3.304l-.588-.28c-.616.952-2.296 2.156-3.304 2.66v1.008l1.54-.756c.168.364.196 2.996.196 5.488v1.988c-.084.924-.784 1.204-1.736 1.204V30ZM34.304 30h.84c4.872-2.044 6.692-5.712 6.692-8.54 0-2.296-1.176-4.06-2.856-4.06-1.12 0-2.408.672-3.752 2.436l.392.7c.868-.532 1.652-.756 2.324-.756 1.484 0 2.072 1.092 2.072 2.576 0 1.792-.728 4.144-4.116 5.712-1.932-4.116-2.856-6.16-2.856-8.008 0-.784.168-1.512.504-2.38l-.7-.28c-.952 1.148-2.576 2.632-4.06 3.444v.98l1.764-.868L34.304 30ZM44.356 30h5.936v-1.008c-1.232 0-1.848-.28-1.932-1.26l-.028-6.048c0-1.876.196-3.388.28-4.004l-.588-.28c-.56.952-2.856 2.212-3.948 2.492V20.9l2.016-.7c.112.728.196 4.704.196 7.42v.112c0 .98-.952 1.26-1.932 1.26V30Zm-.7-15.344.252.504 4.956-1.484c1.26-.588 1.96-1.484 2.212-2.156l-2.128-.728c-.392 1.316-1.176 1.932-5.292 3.864ZM59.42 30.28c1.876 0 4.704-1.484 5.796-2.296l-.588-.7c-1.092.448-1.624.644-2.66.644-1.708 0-3.192-.448-4.648-.448-.42 0-.84.056-1.26.14l8.568-9.52v-.42h-9.1l-2.632 3.696.644.504c.812-1.036 1.904-2.016 3.472-2.016h4.34l-9.1 9.716V30c.84-.336 1.512-.476 2.156-.476 1.568 0 2.8.756 5.012.756ZM71.432 30.28c1.736 0 3.332-1.568 3.892-2.324l-.588-.7c-.98.84-1.848 1.204-2.576 1.204-1.26 0-2.24-1.064-2.24-2.38v-3.164c0-1.316 0-2.8.056-3.976h5.488v-1.26h-5.46c0-1.232.084-2.324.252-3.108l-.7-.224c-.616 1.4-1.428 3.052-3.08 3.332v1.26h1.484c-.084 1.932-.112 5.32-.112 7.14 0 2.8.812 4.2 3.584 4.2ZM81.26 30.28c1.96 0 3.724-1.736 4.9-3.304-.028 1.372-.056 2.52-.112 3.024l.616.28c.616-.952 2.268-2.156 3.276-2.66v-1.008l-1.512.756c-.084-.784-.14-2.968-.14-5.096 0-1.82.056-3.64.196-4.592l-1.148-.28c-.588.924-1.596 1.876-2.604 2.38v1.008l1.428-.896c.056.616.056 1.736.056 3.052l-.028 2.184c-1.204 1.512-2.772 3.08-3.976 3.08-1.68 0-2.072-2.856-2.072-5.6 0-2.38.224-4.256.336-4.928l-1.148-.28c-.588.924-1.596 1.876-2.604 2.38v1.008l1.428-.896a24.876 24.876 0 0 0-.168 2.94c0 3.248.616 7.448 3.276 7.448Zm2.492-14.98.504.196 2.044-3.36c.196-.336.196-.7.196-1.008 0-.56-.168-1.036-.392-1.372l-1.904.588c.336.448.504.812.504 1.4 0 .728-.308 1.736-.952 3.556Zm-3.136 0 .504.196 2.044-3.36c.196-.336.196-.7.196-1.008 0-.56-.168-1.036-.392-1.372l-1.904.588c.336.448.504.812.504 1.4 0 .728-.308 1.736-.952 3.556ZM92.18 30h5.544v-1.008c-1.232 0-1.652-.28-1.736-1.288l-.028-2.996V22.72c1.008-1.736 2.436-2.94 3.332-3.304.952 0 1.764.672 2.688 1.54.84-.364 1.4-.896 1.68-1.68-1.26-1.4-2.212-1.876-3.976-1.876-1.708.588-2.968 2.24-3.724 3.584.028-1.512.056-2.744.112-3.304l-.588-.28c-.616.952-2.296 2.156-3.304 2.66v1.008l1.54-.756c.168.364.196 2.996.196 5.488v1.988c-.084.924-.784 1.204-1.736 1.204V30ZM110.968 30.28c3.668 0 5.908-2.968 5.908-6.356s-2.212-6.524-5.908-6.524c-3.668 0-5.908 3.108-5.908 6.524 0 3.444 2.24 6.356 5.908 6.356Zm1.064-1.596c-3.192 0-5.18-3.388-5.18-6.16 0-1.932.98-3.584 3.192-3.584 3.276 0 5.124 3.416 5.124 6.104 0 1.96-.98 3.64-3.136 3.64Zm-.868-13.384.504.196 2.044-3.36c.196-.336.196-.7.196-1.008 0-.56-.168-1.036-.392-1.372l-1.904.588c.336.448.504.812.504 1.4 0 .728-.308 1.736-.952 3.556Zm-3.136 0 .504.196 2.044-3.36c.196-.336.196-.7.196-1.008 0-.56-.168-1.036-.392-1.372l-1.904.588c.336.448.504.812.504 1.4 0 .728-.308 1.736-.952 3.556ZM130.652 30.28c1.736 0 3.332-1.568 3.892-2.324l-.588-.7c-.98.84-1.848 1.204-2.576 1.204-1.26 0-2.24-1.064-2.24-2.38v-3.164c0-1.316 0-2.8.056-3.976h5.488v-1.26h-5.46c0-1.232.084-2.324.252-3.108l-.7-.224c-.616 1.4-1.428 3.052-3.08 3.332v1.26h1.484c-.084 1.932-.112 5.32-.112 7.14 0 2.8.812 4.2 3.584 4.2ZM140.48 30.28c1.96 0 3.724-1.736 4.9-3.304-.028 1.372-.056 2.52-.112 3.024l.616.28c.616-.952 2.268-2.156 3.276-2.66v-1.008l-1.512.756c-.084-.784-.14-2.968-.14-5.096 0-1.82.056-3.64.196-4.592l-1.148-.28c-.588.924-1.596 1.876-2.604 2.38v1.008l1.428-.896c.056.616.056 1.736.056 3.052l-.028 2.184c-1.204 1.512-2.772 3.08-3.976 3.08-1.68 0-2.072-2.856-2.072-5.6 0-2.38.224-4.256.336-4.928l-1.148-.28c-.588.924-1.596 1.876-2.604 2.38v1.008l1.428-.896a24.876 24.876 0 0 0-.168 2.94c0 3.248.616 7.448 3.276 7.448Zm4.424-15.848c.756 0 1.4-.616 1.4-1.4 0-.756-.644-1.4-1.4-1.4-.784 0-1.4.644-1.4 1.4 0 .784.616 1.4 1.4 1.4Zm-4.256 0c.756 0 1.4-.616 1.4-1.4 0-.756-.644-1.4-1.4-1.4-.784 0-1.4.644-1.4 1.4 0 .784.616 1.4 1.4 1.4ZM150.952 30h5.544v-1.008c-1.232 0-1.708-.28-1.792-1.288l-.028-1.848v-1.204l1.624-1.4c2.128 2.856 3.248 4.452 3.248 5.292 0 .308-.196.448-.588.448V30h5.6v-1.008c-1.232 0-1.904-.252-2.66-1.316l-4.088-5.712c3.444-2.968 4.004-3.276 4.732-3.276V17.68h-4.228v1.008c.588 0 .84.168.84.392 0 .252-.28.504-.644.812l-3.836 3.164c0-4.592.084-10.024.42-12.236l-.588-.28c-.616.952-2.66 2.212-3.668 2.716v1.008l1.652-.588c.112 2.66.168 6.356.168 9.66l-.056 4.368c0 1.008-.672 1.288-1.652 1.288V30ZM171.588 30.28c3.668 0 5.908-2.968 5.908-6.356s-2.212-6.524-5.908-6.524c-3.668 0-5.908 3.108-5.908 6.524 0 3.444 2.24 6.356 5.908 6.356Zm1.064-1.596c-3.192 0-5.18-3.388-5.18-6.16 0-1.932.98-3.584 3.192-3.584 3.276 0 5.124 3.416 5.124 6.104 0 1.96-.98 3.64-3.136 3.64Zm1.064-14.252c.756 0 1.4-.616 1.4-1.4 0-.756-.644-1.4-1.4-1.4-.784 0-1.4.644-1.4 1.4 0 .784.616 1.4 1.4 1.4Zm-4.256 0c.756 0 1.4-.616 1.4-1.4 0-.756-.644-1.4-1.4-1.4-.784 0-1.4.644-1.4 1.4 0 .784.616 1.4 1.4 1.4ZM179.736 30h5.544v-1.008c-1.232 0-1.652-.28-1.736-1.288l-.028-2.996V22.72c1.008-1.736 2.436-2.94 3.332-3.304.952 0 1.764.672 2.688 1.54.84-.364 1.4-.896 1.68-1.68-1.26-1.4-2.212-1.876-3.976-1.876-1.708.588-2.968 2.24-3.724 3.584.028-1.512.056-2.744.112-3.304l-.588-.28c-.616.952-2.296 2.156-3.304 2.66v1.008l1.54-.756c.168.364.196 2.996.196 5.488v1.988c-.084.924-.784 1.204-1.736 1.204V30ZM192.336 30h5.628v-1.008c-1.232 0-1.708-.28-1.792-1.26a90.222 90.222 0 0 1-.112-4.592c0-1.428.028-2.772.084-4.2h5.404v-1.26h-5.32l.112-2.24c.084-1.596 1.148-2.884 2.884-2.884.952 0 1.764.672 2.688 1.54.84-.364 1.4-.896 1.68-1.68-1.26-1.4-2.212-1.876-3.976-1.876-1.064 0-4.06 1.708-5.46 5.432-.084.196-.112.812-.112 1.708h-1.652v1.26h1.624v6.496l-.028 2.268c0 1.008-.672 1.288-1.652 1.288V30ZM206.868 30.28c1.96 0 3.724-1.736 4.9-3.304-.028 1.372-.056 2.52-.112 3.024l.616.28c.616-.952 2.268-2.156 3.276-2.66v-1.008l-1.512.756c-.084-.784-.14-2.968-.14-5.096 0-1.82.056-3.64.196-4.592l-1.148-.28c-.588.924-1.596 1.876-2.604 2.38v1.008l1.428-.896c.056.616.056 1.736.056 3.052l-.028 2.184c-1.204 1.512-2.772 3.08-3.976 3.08-1.68 0-2.072-2.856-2.072-5.6 0-2.38.224-4.256.336-4.928l-1.148-.28c-.588.924-1.596 1.876-2.604 2.38v1.008l1.428-.896a24.876 24.876 0 0 0-.168 2.94c0 3.248.616 7.448 3.276 7.448Zm-1.428-15.624.252.504 4.956-1.484c1.26-.588 1.96-1.484 2.212-2.156l-2.128-.728c-.392 1.316-1.176 1.932-5.292 3.864ZM217.788 30h5.544v-1.008c-1.232 0-1.652-.28-1.736-1.288l-.028-2.996V22.72c1.008-1.736 2.436-2.94 3.332-3.304.952 0 1.764.672 2.688 1.54.84-.364 1.4-.896 1.68-1.68-1.26-1.4-2.212-1.876-3.976-1.876-1.708.588-2.968 2.24-3.724 3.584.028-1.512.056-2.744.112-3.304l-.588-.28c-.616.952-2.296 2.156-3.304 2.66v1.008l1.54-.756c.168.364.196 2.996.196 5.488v1.988c-.084.924-.784 1.204-1.736 1.204V30ZM236.576 30.28c3.668 0 5.908-2.968 5.908-6.356s-2.212-6.524-5.908-6.524c-3.668 0-5.908 3.108-5.908 6.524 0 3.444 2.24 6.356 5.908 6.356Zm1.064-1.596c-3.192 0-5.18-3.388-5.18-6.16 0-1.932.98-3.584 3.192-3.584 3.276 0 5.124 3.416 5.124 6.104 0 1.96-.98 3.64-3.136 3.64Zm-4.788-14.028.252.504 4.956-1.484c1.26-.588 1.96-1.484 2.212-2.156l-2.128-.728c-.392 1.316-1.176 1.932-5.292 3.864ZM249.4 27.564c2.828 0 5.712-1.68 5.712-5.04 0-1.428-.504-2.688-1.344-3.584l.868.028c1.148 0 2.156-.112 2.996-.364v-1.036a15.92 15.92 0 0 1-2.996.28c-.924 0-1.96-.084-3.136-.252-.448-.14-.952-.196-1.484-.196-3.444 0-5.992 2.324-5.992 5.488 0 2.24 1.372 3.668 3.164 4.312-.196.812-.532 1.876-.868 2.464l.42.756c.728-.14 1.484-.196 2.268-.196 3.612 0 6.692 1.54 6.692 3.36 0 1.316-1.764 2.156-4.592 2.156-3.36 0-6.076-1.428-6.076-3.22 0-.28.056-.588.168-.924l-.784-.42c-.644.728-.952 1.484-.952 2.268 0 2.212 2.52 3.696 6.328 3.696 4.396 0 7.84-1.932 7.84-4.424 0-2.352-3.052-3.892-7.7-3.892l-.952.056c.056-.42.168-.868.336-1.316h.084Zm1.232-1.876c-2.996 0-5.516-1.708-5.516-3.752 0-1.428 1.344-2.324 3.5-2.324 2.968 0 5.376 1.68 5.376 3.724 0 1.428-1.316 2.352-3.36 2.352ZM264.94 30.28c1.036 0 1.904-.364 3.304-1.148l2.1-2.884-.532-.336c-1.82 2.464-3.64 2.632-4.2 2.632-2.156 0-4.116-1.988-4.676-4.48h10.136v-1.26h-.448c-.616-2.604-2.576-5.404-5.684-5.404-3.528 0-5.908 2.94-5.908 6.496 0 3.752 2.492 6.384 5.908 6.384Zm-3.612-15.624.252.504 4.956-1.484c1.26-.588 1.96-1.484 2.212-2.156l-2.128-.728c-.392 1.316-1.176 1.932-5.292 3.864Zm-.532 8.148v-.14c0-1.848.952-3.416 3.192-3.416 1.792 0 3.78 1.68 4.48 3.556h-7.672ZM281.124 30.28c2.66 0 5.18-2.604 5.18-6.356 0-3.388-2.212-6.524-5.908-6.524-1.764 0-3.08.728-3.92 1.848l.14-1.568-.588-.28c-.616.952-2.268 2.156-3.276 2.66v1.036l1.512-.784c.252 1.848.308 5.488.308 8.988l-.056 5.264c0 1.008-.672 1.288-1.652 1.288v1.008h5.544v-1.008c-1.232 0-1.708-.28-1.792-1.288-.112-2.464-.224-5.32-.28-8.064 1.204 2.66 3.024 3.78 4.788 3.78Zm-4.788-5.712.056-3.444c.532-1.176 1.652-1.96 3.08-1.96 2.268 0 5.068 2.128 5.068 5.74 0 2.296-1.652 3.64-3.22 3.64-1.82 0-4.172-1.54-4.984-3.976Z"/></g></svg>