<svg xmlns="http://www.w3.org/2000/svg" width="320" height="40"><g fill="#424345" fill-rule="nonzero"><path d="m7.976 24.064.924.868.924-.868c-.112-.952-.168-5.572-.168-6.104 0-.028.196-4.116.868-5.824l-1.652-1.904-1.596 1.904c.812 1.344.868 4.704.868 5.824 0 .532-.084 5.152-.168 6.104Zm.896 6.216L11 28.152 8.872 26.08 6.8 28.152l2.072 2.128ZM27.8 31.428l1.82.336c.14-1.316.616-4.256 1.176-7.532 1.708.028 3.164.056 3.892.14l.308-1.848c-.728.056-2.212.112-3.92.14l.252-1.512.308-1.764c1.652.028 3.024.084 3.752.14l.308-1.848c-.728.056-2.128.112-3.78.14.588-3.192 1.12-5.964 1.428-7.224l-1.82-.336c-.168 1.344-.616 4.284-1.176 7.588H26.96c.588-3.192 1.12-5.992 1.428-7.252l-1.82-.336c-.168 1.344-.616 4.256-1.176 7.56-1.568-.028-2.884-.084-3.584-.14l-.308 1.848c.7-.056 2.016-.112 3.612-.14l-.252 1.484-.308 1.792c-1.512-.056-2.772-.084-3.444-.14l-.308 1.848c.672-.056 1.932-.112 3.444-.14-.56 3.164-1.12 5.936-1.4 7.196l1.82.336c.14-1.344.616-4.256 1.176-7.56h3.388c-.588 3.192-1.148 5.964-1.428 7.224Zm-1.708-8.736.28-1.54.308-1.792h3.388l-.252 1.512-.336 1.82h-3.388ZM45.944 16.308l-.196 2.324 2.324-.196c.196-.476.784-1.624 1.176-1.988.168-.168.392-.336.616-.448-.196 1.288-.784 2.66-1.176 3.584l1.876 1.316 1.008-2.1c-.672-.952-1.232-1.736-1.232-2.884.28.14.504.28.728.448.42.336 1.092 1.456 1.344 1.904h2.352l-.42-2.324c-.98 0-2.38-.056-3.584-.392 1.176-.448 2.576-.616 3.556-.7l.196-2.324-2.324.196c-.196.448-.784 1.624-1.176 1.988a3.59 3.59 0 0 1-.616.476c.168-1.288.756-2.688 1.176-3.612l-1.876-1.316-1.008 2.1c.616.868 1.232 1.792 1.232 2.884-.28-.112-.504-.28-.728-.448-.42-.364-1.12-1.456-1.344-1.904h-2.352l.42 2.324c.98 0 2.38.056 3.584.392-1.204.448-2.604.616-3.556.7ZM64.564 35.04l.084.7c1.848-.252 3.5-1.596 3.5-3.444 0-.756-.28-1.624-1.008-2.548.476-.7 1.316-1.456 1.792-1.848l-2.856-1.82-1.512 3.444c1.54 1.036 2.24 2.268 2.24 3.276 0 1.148-.84 2.044-2.24 2.24ZM80.804 30.28l2.128-2.128-2.128-2.072-2.072 2.072zM94.132 33.612l1.736.728c.476-1.96 1.96-6.86 3.5-11.816 1.54-4.928 3.136-9.828 3.836-11.676l-1.736-.728c-.504 1.932-1.96 6.86-3.5 11.816-1.54 4.928-3.164 9.8-3.836 11.676ZM115.776 23.42l2.128-2.128-2.128-2.072-2.072 2.072 2.072 2.128Zm0 6.86 2.128-2.128-2.128-2.072-2.072 2.072 2.072 2.128ZM129.776 23.56l2.128-2.128-2.128-2.072-2.072 2.072 2.072 2.128Zm-1.512 11.48.084.7c1.848-.252 3.5-1.596 3.5-3.444 0-.756-.28-1.624-1.008-2.548.476-.7 1.316-1.456 1.792-1.848l-2.856-1.82-1.512 3.444c1.54 1.036 2.24 2.268 2.24 3.276 0 1.148-.84 2.044-2.24 2.24ZM144.308 23.028l1.596 1.904 1.652-1.904c-.308-.532-.672-1.232-.672-1.736 0-2.044 2.408-2.828 2.408-5.964 0-3.304-2.716-5.068-5.46-5.068v.868c2.436.616 3.36 2.296 3.36 4.34 0 2.352-1.232 5.208-2.884 7.56Zm1.596 7.252 2.128-2.128-2.128-2.072-2.072 2.072 2.072 2.128ZM167.128 34.34l1.736-.728c-.672-1.876-2.296-6.748-3.836-11.676-1.54-4.956-2.996-9.884-3.5-11.816l-1.736.728c.7 1.848 2.296 6.748 3.836 11.676 1.54 4.956 3.024 9.856 3.5 11.816ZM182.64 23.028c.084.952.168 5.572.168 6.104 0 1.12-.056 4.48-.868 5.824l1.596 1.904 1.652-1.904c-.672-1.708-.868-5.796-.868-5.824 0-.532.056-5.152.168-6.104l-.924-.868-.924.868Zm.896-6.216-2.072 2.128 2.072 2.072 2.128-2.072-2.128-2.128ZM197.536 25.968l2.128-2.128-2.128-2.072-2.072 2.072zM215.848 24.68l-1.596-1.904-1.652 1.904c.308.532.672 1.232.672 1.736 0 2.044-2.408 2.828-2.408 5.964 0 3.304 2.716 5.068 5.46 5.068v-.868c-2.436-.616-3.36-2.296-3.36-4.34 0-2.352 1.232-5.208 2.884-7.56Zm-1.596-7.252-2.128 2.128 2.128 2.072 2.072-2.072-2.072-2.128ZM230.716 27.116l3.304-3.304-3.304-3.192-3.192 3.192z"/></g></svg>