<svg xmlns="http://www.w3.org/2000/svg" width="320" height="40"><g fill="#424345" fill-rule="nonzero"><path d="M9.104 31.4h1.848l-.056-1.148c3.528-.196 6.468-2.044 6.468-5.32 0-3.024-2.996-4.592-5.796-5.992l-.784-.392c0-2.688.028-5.236.084-7.168h.28c1.316 0 2.66.56 3.5 1.96v1.82h1.176v-3.332c-1.596-1.26-3.304-1.792-4.928-1.848l.056-1.12H9.104l.056 1.288c-2.8.588-4.788 2.744-4.788 5.068 0 2.996 2.408 4.48 4.9 5.74 0 2.856-.028 5.656-.084 7.756-1.4-.196-2.772-.7-3.752-1.484v-1.82H4.26v3.108c1.4 1.008 3.136 1.568 4.9 1.708L9.104 31.4ZM6.976 14.656c0-1.288.952-2.324 2.212-2.856l.084 5.88c-1.344-.84-2.296-1.764-2.296-3.024Zm3.808 7.028c2.184 1.064 4.06 2.184 4.06 4.2 0 1.876-1.876 2.8-3.976 2.912a259.531 259.531 0 0 1-.084-7.112ZM31.084 30.784h1.848l-.084-2.016c.644-.168 1.344-.504 2.268-1.008l2.1-2.884-.532-.336c-1.484 1.988-2.94 2.492-3.892 2.604l-.028-4.956.028-4.144c.84.224 1.764.7 2.688 1.54.84-.364 1.4-.896 1.68-1.68-1.232-1.204-2.772-1.82-4.312-1.876l.084-1.932h-1.848l.084 2.072c-2.688.588-4.984 2.856-4.984 6.356s2.296 5.992 4.984 6.328l-.084 1.932Zm-3.164-9.408c0-1.624 1.372-3.22 3.304-3.444l.028 4.256-.056 4.76c-1.708-.728-3.276-3.108-3.276-5.572ZM45.616 30h9.8l2.884-3.696-.756-.476c-.84 1.036-1.456 1.792-3.024 2.38h-6.692c.868-2.24 2.94-4.62 3.584-6.524 1.596.028 3.108.084 4.004.168v-1.848c-1.008.084-2.38.14-3.836.168-.252-1.764-1.82-3.248-1.82-5.348 0-1.848 2.044-3.192 4.06-3.192 1.232 0 2.548.532 3.388 1.904v1.792H58.3V12.08c-1.596-1.26-3.36-1.82-4.956-1.82-3.472 0-6.328 2.464-6.328 5.096s1.316 3.108 1.792 4.788c-1.204 0-2.324-.056-3.192-.14v1.848c.728-.084 1.96-.14 3.36-.168-.168 1.764-2.296 6.188-3.36 8.316ZM67.596 11.744l6.272 9.604v.644a93.993 93.993 0 0 1-4.592-.168v1.848c.952-.084 2.688-.14 4.564-.168l-.028 1.288a92.782 92.782 0 0 1-4.536-.168v1.848c.952-.084 2.632-.14 4.48-.168L73.7 27.62c-.084 1.176-1.484 1.484-2.324 1.484V30h7.504v-.896c-1.036 0-2.352-.112-2.408-1.232l-.056-1.568c1.764.028 3.388.084 4.396.168v-1.848c-1.176.084-2.772.14-4.424.168l-.028-1.288c1.82.028 3.5.084 4.452.168v-1.848c-1.232.084-2.8.14-4.452.168V20.76l4.284-8.176c.476-.924 1.008-1.428 2.1-1.428v-.896h-5.152v.896c.924 0 1.4.308 1.4.812 0 .14 0 .308-.084.476L75.52 19.36l-4.452-7.056c-.084-.14-.14-.28-.14-.392 0-.448.588-.756 1.344-.756v-.896H66.14v.896c.644 0 1.232.224 1.456.588ZM102.456 30c2.212 0 3.388-.476 5.348-1.596l2.856-3.976-.728-.448c-2.52 3.416-5.012 4.62-7.364 4.62-3.304 0-6.048-2.688-7.14-6.216h1.456c2.212 0 4.424.056 5.656.168v-1.848c-1.484.112-3.64.168-5.768.168h-1.68c-.056-.42-.112-.84-.14-1.288h1.792c2.296 0 4.62.056 5.796.168v-1.848c-1.596.112-3.724.168-5.852.168h-1.68c.392-3.472 2.716-6.44 7.364-6.44 2.212 0 6.524 1.512 6.944 5.292h.868V12.78c-2.352-1.736-4.984-2.52-7.42-2.52-4.536 0-9.016 3.024-10.108 7.728l-1.652-.084v1.848l1.428-.084-.028.56v.56l-1.4-.084v1.848l1.596-.084c.952 5.208 5.292 7.532 9.856 7.532Z"/></g></svg>