<svg xmlns="http://www.w3.org/2000/svg" width="320" height="40"><g fill="#424345" fill-rule="nonzero"><path d="M4.4 30h5.936v-1.008c-1.232 0-1.848-.28-1.932-1.26l-.028-6.048c0-1.876.196-3.388.28-4.004l-.588-.28c-.56.952-2.856 2.212-3.948 2.492V20.9l2.016-.7c.112.728.196 4.704.196 7.42v.112c0 .98-.952 1.26-1.932 1.26V30Zm3.024-15.568c.756 0 1.4-.616 1.4-1.4 0-.756-.644-1.4-1.4-1.4-.784 0-1.4.644-1.4 1.4 0 .784.616 1.4 1.4 1.4ZM19.716 30h5.936v-1.008c-1.232 0-1.848-.28-1.932-1.26l-.028-6.048c0-1.876.196-3.388.28-4.004l-.588-.28c-.56.952-2.856 2.212-3.948 2.492V20.9l2.016-.7c.112.728.196 4.704.196 7.42v.112c0 .98-.952 1.26-1.932 1.26V30Zm3.024-15.568c.756 0 1.4-.616 1.4-1.4 0-.756-.644-1.4-1.4-1.4-.784 0-1.4.644-1.4 1.4 0 .784.616 1.4 1.4 1.4ZM28.032 30h5.936v-1.008c-1.232 0-1.848-.28-1.932-1.26l-.028-6.048c0-1.876.196-3.388.28-4.004l-.588-.28c-.56.952-2.856 2.212-3.948 2.492V20.9l2.016-.7c.112.728.196 4.704.196 7.42v.112c0 .98-.952 1.26-1.932 1.26V30Zm3.024-15.568c.756 0 1.4-.616 1.4-1.4 0-.756-.644-1.4-1.4-1.4-.784 0-1.4.644-1.4 1.4 0 .784.616 1.4 1.4 1.4ZM43.348 30h5.936v-1.008c-1.232 0-1.848-.28-1.932-1.26l-.028-6.048c0-1.876.196-3.388.28-4.004l-.588-.28c-.56.952-2.856 2.212-3.948 2.492V20.9l2.016-.7c.112.728.196 4.704.196 7.42v.112c0 .98-.952 1.26-1.932 1.26V30Zm3.024-15.568c.756 0 1.4-.616 1.4-1.4 0-.756-.644-1.4-1.4-1.4-.784 0-1.4.644-1.4 1.4 0 .784.616 1.4 1.4 1.4ZM51.664 30H57.6v-1.008c-1.232 0-1.848-.28-1.932-1.26l-.028-6.048c0-1.876.196-3.388.28-4.004l-.588-.28c-.56.952-2.856 2.212-3.948 2.492V20.9l2.016-.7c.112.728.196 4.704.196 7.42v.112c0 .98-.952 1.26-1.932 1.26V30Zm3.024-15.568c.756 0 1.4-.616 1.4-1.4 0-.756-.644-1.4-1.4-1.4-.784 0-1.4.644-1.4 1.4 0 .784.616 1.4 1.4 1.4ZM59.98 30h5.936v-1.008c-1.232 0-1.848-.28-1.932-1.26l-.028-6.048c0-1.876.196-3.388.28-4.004l-.588-.28c-.56.952-2.856 2.212-3.948 2.492V20.9l2.016-.7c.112.728.196 4.704.196 7.42v.112c0 .98-.952 1.26-1.932 1.26V30Zm3.024-15.568c.756 0 1.4-.616 1.4-1.4 0-.756-.644-1.4-1.4-1.4-.784 0-1.4.644-1.4 1.4 0 .784.616 1.4 1.4 1.4ZM75.744 20.34 79.86 30h.84l4.34-10.108c.504-1.176 1.008-1.204 1.568-1.204V17.68h-4.536v1.008c1.232 0 1.708.28 1.708.784 0 .14-.028.308-.112.504l-2.884 7.196-2.884-7.196a1.299 1.299 0 0 1-.112-.532c0-.56.56-.756 1.708-.756V17.68h-5.46v1.008c.84 0 1.036.112 1.708 1.652ZM94.028 28.992V30h4.256v-1.008c-.588 0-.84-.112-.84-.336 0-.14.084-.336.28-.56l2.968-3.08 2.324 2.688c.28.336.364.644.364.812 0 .364-.364.476-.868.476V30H108v-1.008c-.98 0-1.568-.392-2.128-1.064l-3.78-4.396 3.696-3.864c.588-.616 1.176-.98 2.212-.98V17.68h-4.228v1.008c.56 0 .84.112.84.336 0 .196-.252.532-.644.952l-2.604 2.744-2.156-2.492c-.476-.56-.532-.84-.532-1.064 0-.364.364-.476.868-.476V17.68h-5.516v1.008c.952 0 1.54.364 2.072 1.008l3.864 4.48-3.64 3.78c-.616.644-1.204 1.036-2.296 1.036ZM116.092 30h5.544v-1.008c-1.232 0-1.708-.28-1.792-1.288l-.028-1.848c0-4.872 0-12.348.42-15.036l-.588-.28c-.616.952-2.66 2.212-3.668 2.716v1.008l1.652-.588c.112 2.66.168 6.356.168 9.66l-.056 4.368c0 1.008-.672 1.288-1.652 1.288V30ZM135.944 30.28c1.036 0 1.904-.364 3.304-1.148l2.1-2.884-.532-.336c-1.82 2.464-3.64 2.632-4.452 2.632-2.072 0-4.312-2.856-4.312-5.796 0-1.764 1.596-3.472 3.752-3.472 1.148 0 2.464.476 3.808 1.68.84-.364 1.4-.896 1.68-1.68A6.507 6.507 0 0 0 136.7 17.4c-3.248 0-6.384 2.408-6.384 6.496 0 3.78 2.688 6.384 5.628 6.384ZM155.516 30.28c1.68 0 2.968-.616 3.892-1.624l-.14 1.344.616.28c.616-.952 2.268-2.156 3.276-2.66v-1.008l-1.792.924c-.056-.252-.056-.56-.056-2.212 0-4.872.196-11.816.476-14.504l-.588-.28c-.616.952-2.66 2.212-3.668 2.716v1.008l1.652-.588c.14 1.932.28 4.396.336 6.86-1.26-2.24-2.856-3.136-4.368-3.136-2.884 0-5.544 3.164-5.544 6.524 0 3.444 2.24 6.356 5.908 6.356Zm-4.172-7.532c0-2.268 1.68-3.556 3.248-3.556 1.68 0 3.892 1.232 4.956 3.332v.812c0 1.512-.028 2.744-.056 3.724-.672.924-1.792 1.484-3.052 1.484-2.296 0-5.096-2.184-5.096-5.796ZM171.84 30h5.544v-1.008c-1.232 0-1.652-.28-1.736-1.288l-.028-2.996V21.46c1.092-.98 2.352-1.652 3.416-1.652 2.016 0 2.856 2.044 2.856 7.644v.308c0 .952-.364 1.232-1.736 1.232V30h5.516v-1.008c-1.26 0-1.652-.28-1.652-1.26 0-2.52-.14-4.48-.392-6.02 1.148-1.12 2.52-1.904 3.696-1.904 2.016 0 2.856 2.044 2.856 7.644v.308c0 .952-.364 1.232-1.736 1.232V30h5.516v-1.008c-1.26 0-1.652-.28-1.652-1.26-.028-7.784-1.148-10.332-3.836-10.332-2.044 0-3.892 1.596-5.096 3.108-.588-2.24-1.624-3.108-3.192-3.108-1.764 0-3.36 1.176-4.536 2.464 0-.98.028-1.764.084-2.184l-.588-.28c-.616.952-2.296 2.156-3.304 2.66v1.008l1.54-.756c.168.336.224 3.22.224 5.768v1.624c-.084 1.008-.784 1.288-1.764 1.288V30Z"/></g></svg>