<svg xmlns="http://www.w3.org/2000/svg" width="320" height="40"><g fill="#424345" fill-rule="nonzero"><path d="M5.456 22.916v1.848c1.036-.112 3.556-.168 6.188-.168 0 2.632-.056 5.152-.168 6.188h1.848c-.084-1.036-.14-3.556-.168-6.188 2.632 0 5.152.056 6.188.168v-1.848c-1.036.084-3.556.14-6.188.168.028-2.632.084-5.152.168-6.188h-1.848c.112 1.036.168 3.556.168 6.188-2.632-.028-5.152-.084-6.188-.168ZM22.256 22.916v1.848c1.148-.112 4.032-.168 6.944-.168s5.796.056 6.944.168v-1.848c-1.148.084-4.032.168-6.944.168s-5.796-.084-6.944-.168ZM40.428 28.096l1.316 1.316c.672-.812 2.38-2.632 4.256-4.508 1.848 1.876 3.584 3.696 4.256 4.508l1.316-1.316c-.784-.7-2.604-2.408-4.508-4.256 1.904-1.848 3.696-3.584 4.508-4.256l-1.316-1.316c-.7.784-2.408 2.604-4.256 4.508a116.94 116.94 0 0 1-4.256-4.508l-1.316 1.316c.812.672 2.632 2.38 4.508 4.256a116.94 116.94 0 0 1-4.508 4.256ZM55.856 22.916v1.848c1.148-.112 4.032-.168 6.944-.168s5.796.056 6.944.168v-1.848c-1.148.084-4.032.168-6.944.168s-5.796-.084-6.944-.168Zm6.944 7.028 2.128-2.128-2.128-2.072-2.072 2.072 2.072 2.128Zm0-8.008 2.128-2.128-2.128-2.072-2.072 2.072 2.072 2.128ZM72.656 19.892v1.848c1.148-.112 4.032-.168 6.944-.168s5.796.056 6.944.168v-1.848c-1.148.084-4.032.168-6.944.168s-5.796-.084-6.944-.168Zm0 6.048v1.848c1.148-.112 4.032-.168 6.944-.168s5.796.056 6.944.168V25.94c-1.148.084-4.032.168-6.944.168s-5.796-.084-6.944-.168ZM90.296 32.604l1.624.924c.532-1.092 1.764-3.332 3.22-5.908h1.26c2.912 0 5.796.056 6.944.168V25.94c-1.148.084-4.032.168-6.944.168h-.392l1.12-1.988 1.484-2.548c2.072.028 3.864.084 4.732.168v-1.848c-.728.056-2.156.112-3.836.14 1.372-2.268 2.548-4.2 3.164-5.124l-1.624-.924c-.56 1.092-1.82 3.416-3.332 6.076H96.4c-2.912 0-5.796-.084-6.944-.168v1.848c1.148-.112 4.032-.168 6.944-.168h.476l-1.036 1.792-1.596 2.716c-2.1-.028-3.92-.084-4.788-.14v1.848c.728-.084 2.184-.112 3.864-.14-1.316 2.212-2.436 4.06-3.024 4.956ZM107.628 21.712v1.484c.84-.084 2.828-.14 4.956-.14 0 2.128-.028 4.144-.14 4.984h1.484c-.056-.84-.112-2.856-.14-4.984 2.128 0 4.144.056 4.984.14v-1.484c-.84.084-2.856.14-4.984.14.028-2.128.084-4.116.14-4.956h-1.484c.112.84.14 2.828.14 4.956-2.128 0-4.116-.056-4.956-.14Zm0 7.588v1.484c.924-.084 3.22-.14 5.572-.14 2.324 0 4.648.056 5.572.14V29.3c-.924.084-3.248.14-5.572.14-2.352 0-4.648-.056-5.572-.14ZM123 29.356l1.624.924c.756-1.568 3.052-5.768 5.292-9.688 2.24-3.892 4.564-7.672 5.544-9.128l-1.624-.924c-.784 1.54-2.968 5.404-5.208 9.296-2.268 3.92-4.676 8.064-5.628 9.52Zm3.08-11.676c1.932 0 3.108-1.652 3.108-3.528 0-1.904-1.148-3.612-3.108-3.612-1.904 0-3.08 1.708-3.08 3.612 0 1.904 1.176 3.528 3.08 3.528Zm.504-1.288c-1.064 0-2.38-1.092-2.38-2.884 0-1.148.644-1.652 1.372-1.652 1.064 0 2.38 1.064 2.38 2.856 0 1.176-.616 1.68-1.372 1.68ZM132.044 30c1.932 0 3.108-1.652 3.108-3.528 0-1.904-1.148-3.612-3.108-3.612-1.904 0-3.08 1.708-3.08 3.612 0 1.904 1.176 3.528 3.08 3.528Zm.504-1.288c-1.064 0-2.38-1.092-2.38-2.884 0-1.148.644-1.652 1.372-1.652 1.064 0 2.38 1.064 2.38 2.856 0 1.176-.616 1.68-1.372 1.68ZM139.66 29.356l1.624.924c.756-1.568 3.052-5.768 5.292-9.688 2.24-3.892 4.564-7.672 5.544-9.128l-1.624-.924c-.784 1.54-2.968 5.404-5.208 9.296-2.268 3.92-4.676 8.064-5.628 9.52Zm9.044.644c1.932 0 3.108-1.652 3.108-3.528 0-1.904-1.148-3.612-3.108-3.612-1.904 0-3.08 1.708-3.08 3.612 0 1.904 1.176 3.528 3.08 3.528Zm.504-1.288c-1.064 0-2.38-1.092-2.38-2.884 0-1.148.644-1.652 1.372-1.652 1.064 0 2.38 1.064 2.38 2.856 0 1.176-.616 1.68-1.372 1.68ZM142.74 17.68c1.932 0 3.108-1.652 3.108-3.528 0-1.904-1.148-3.612-3.108-3.612-1.904 0-3.08 1.708-3.08 3.612 0 1.904 1.176 3.528 3.08 3.528Zm.504-1.288c-1.064 0-2.38-1.092-2.38-2.884 0-1.148.644-1.652 1.372-1.652 1.064 0 2.38 1.064 2.38 2.856 0 1.176-.616 1.68-1.372 1.68ZM156.432 30c1.932 0 3.108-1.652 3.108-3.528 0-1.904-1.148-3.612-3.108-3.612-1.904 0-3.08 1.708-3.08 3.612 0 1.904 1.176 3.528 3.08 3.528Zm.504-1.288c-1.064 0-2.38-1.092-2.38-2.884 0-1.148.644-1.652 1.372-1.652 1.064 0 2.38 1.064 2.38 2.856 0 1.176-.616 1.68-1.372 1.68Z"/></g></svg>