<svg xmlns="http://www.w3.org/2000/svg" width="320" height="40"><g fill="#424345" fill-rule="nonzero"><path d="m4.68 33.64-.056 1.288c4.676 0 10.836-2.856 10.836-6.076 0-2.296-2.66-4.424-9.128-4.648a12.98 12.98 0 0 1-.056-1.344c0-1.484.084-2.492.196-2.996h3.5c1.708 0 2.912.98 3.808 2.016l.7-.504-2.884-3.696H4.12c.056.784.112 2.016.112 3.36 0 1.708-.056 3.528-.112 4.34 5.88 0 8.4 2.072 8.4 4.2 0 1.848-3.164 4.06-7.84 4.06ZM16.3 28.88V30h9.548l2.884-3.696-.7-.504c-.896 1.036-2.1 2.016-3.808 2.016h-4.088c2.016-1.148 6.272-4.172 6.272-6.748 0-1.96-1.372-3.668-4.62-3.668-2.38 0-4.62 1.456-5.488 2.156l.42.756c.952-.476 2.436-.868 3.836-.868 1.82 0 3.472.644 3.472 2.436 0 2.184-5.628 5.712-7.728 7ZM33.744 18.1c2.156 0 3.472-1.736 3.472-3.724 0-2.016-1.288-3.836-3.472-3.836-2.156 0-3.472 1.82-3.472 3.836s1.316 3.724 3.472 3.724Zm.56-1.372c-1.204 0-2.688-1.148-2.688-3.052 0-1.204.728-1.736 1.568-1.736 1.176 0 2.66 1.12 2.66 3.024 0 1.232-.7 1.764-1.54 1.764ZM44.048 35.068h6.916V34.06c-1.232 0-2.352-.28-2.436-1.288V30h2.604v-1.792h-2.576c.028-3.5.168-6.72.448-10.528l-.56-.28-9.24 11.76-.028.84h7.42l-.14 2.772c-.056 1.008-1.428 1.288-2.408 1.288v1.008Zm-2.38-6.86 4.788-6.216c.112 2.576.168 4.256.168 5.824v.392h-4.956ZM53.344 33.64l-.056 1.288c6.02 0 11.06-3.304 11.06-6.692 0-1.568-1.12-3.136-3.724-4.396l4.116-5.6v-.56h-9.324l-2.884 3.696.756.476c.84-1.036 1.456-1.792 3.024-2.38h5.432l-3.276 4.872v.42c2.212 1.344 3.192 2.856 3.192 4.228 0 2.548-3.304 4.648-8.316 4.648ZM67.26 16.98l.084.7c2.464-.336 3.864-2.296 3.864-4.172 0-1.092-.448-1.904-1.428-2.968l-1.568 1.596c.868.812 1.288 1.344 1.288 2.184 0 1.12-.784 2.464-2.24 2.66ZM73.168 28.88V30h9.548l2.884-3.696-.7-.504c-.896 1.036-2.1 2.016-3.808 2.016h-4.088c2.016-1.148 6.272-4.172 6.272-6.748 0-1.96-1.372-3.668-4.62-3.668-2.38 0-4.62 1.456-5.488 2.156l.42.756c.952-.476 2.436-.868 3.836-.868 1.82 0 3.472.644 3.472 2.436 0 2.184-5.628 5.712-7.728 7ZM87.756 33.78l.28.868c7.14-4.48 9.604-8.708 9.604-11.844 0-3.276-2.688-5.404-5.6-5.404-3.108 0-5.18 2.38-5.18 4.928 0 2.352 1.68 4.844 6.048 5.712l.364-.84c-3.136-1.176-4.48-3.528-4.48-5.404s1.344-2.8 2.856-2.8c1.792 0 3.78 1.344 3.78 3.948 0 3.024-2.38 7.308-7.672 10.836ZM102.232 30.28l2.128-2.128-2.128-2.072-2.072 2.072zM113.32 30.28c3.556 0 6.44-2.884 6.44-6.468 0-3.528-2.884-6.412-6.44-6.412-3.556 0-6.44 2.884-6.44 6.412 0 3.584 2.884 6.468 6.44 6.468Zm.784-1.176c-2.296 0-5.012-2.24-5.012-6.272 0-2.688 1.736-4.172 3.388-4.172 2.324 0 5.124 2.408 5.124 6.356 0 2.604-1.792 4.088-3.5 4.088Zm-.84-3.864 1.428-1.428-1.428-1.372-1.372 1.372 1.372 1.428ZM121.44 28.88V30h9.548l2.884-3.696-.7-.504c-.896 1.036-2.1 2.016-3.808 2.016h-4.088c2.016-1.148 6.272-4.172 6.272-6.748 0-1.96-1.372-3.668-4.62-3.668-2.38 0-4.62 1.456-5.488 2.156l.42.756c.952-.476 2.436-.868 3.836-.868 1.82 0 3.472.644 3.472 2.436 0 2.184-5.628 5.712-7.728 7ZM139.808 30.28c3.22 0 5.824-1.652 5.824-4.368 0-2.352-1.708-4.34-3.892-6.048 1.876-1.316 3.5-2.968 3.5-5.236 0-2.856-2.044-4.088-4.228-4.088-2.884 0-5.236 1.652-5.236 4.368 0 2.296 1.064 4.06 2.94 5.6-1.932 1.512-3.584 3.444-3.584 5.684 0 2.856 2.268 4.088 4.676 4.088Zm1.092-1.344c-1.736 0-3.696-1.176-3.696-3.808 0-1.764 1.092-2.912 2.464-3.92 2.8 2.016 3.948 3.556 3.948 5.572 0 1.4-1.288 2.156-2.716 2.156Zm-2.996-14.812c0-1.26.672-2.212 2.156-2.212 1.568 0 3.304 1.064 3.304 3.388 0 1.596-1.232 2.772-2.66 3.808-1.792-1.428-2.8-3.444-2.8-4.984ZM148.152 16.98l.084.7c2.464-.336 3.864-2.296 3.864-4.172 0-1.092-.448-1.904-1.428-2.968l-1.568 1.596c.868.812 1.288 1.344 1.288 2.184 0 1.12-.784 2.464-2.24 2.66Zm3.5 0 .084.7c2.464-.336 3.864-2.296 3.864-4.172 0-1.092-.448-1.904-1.428-2.968l-1.568 1.596c.868.812 1.288 1.344 1.288 2.184 0 1.12-.784 2.464-2.24 2.66ZM158.12 29.104V30h5.74v-.896c-1.008 0-2.128-.056-2.212-1.12-.168-2.268-.196-4.928-.196-7.476 0-1.988.028-3.948.112-5.544L173.744 30h.392c-.224-1.876-.336-6.944-.336-11.536 0-2.128 0-4.2.084-5.852.056-1.176.196-1.456 1.764-1.456v-.896h-5.824v.896c1.008 0 2.128.056 2.212 1.12.168 2.268.196 4.928.196 7.476 0 2.016-.028 2.968-.112 4.34L160.528 10.26h-.98c.224 1.876.336 6.944.336 11.536 0 2.128 0 4.2-.084 5.852-.056 1.176-.28 1.456-1.68 1.456Z"/></g></svg>