<svg xmlns="http://www.w3.org/2000/svg" width="320" height="40"><g fill="#424345" fill-rule="nonzero"><path d="M4.12 29.104V30h6.328v-.896c-1.092 0-2.156-.084-2.212-1.204-.112-2.408-.112-4.844-.112-7.252 0-2.94 0-5.852.252-8.512.084-.896 1.148-.98 2.072-.98v-.896H4.12v.896c.98 0 1.708.364 1.764 1.512.084 1.652.084 3.724.084 5.936 0 3.22-.028 6.636-.168 9.212-.056 1.008-.868 1.288-1.68 1.288ZM19.688 29.104V30h6.328v-.896c-1.092 0-2.156-.084-2.212-1.204-.112-2.408-.112-4.844-.112-7.252 0-2.94 0-5.852.252-8.512.084-.896 1.148-.98 2.072-.98v-.896h-6.328v.896c.98 0 1.708.364 1.764 1.512.084 1.652.084 3.724.084 5.936 0 3.22-.028 6.636-.168 9.212-.056 1.008-.868 1.288-1.68 1.288ZM28.256 29.104V30h6.328v-.896c-1.092 0-2.156-.084-2.212-1.204-.112-2.408-.112-4.844-.112-7.252 0-2.94 0-5.852.252-8.512.084-.896 1.148-.98 2.072-.98v-.896h-6.328v.896c.98 0 1.708.364 1.764 1.512.084 1.652.084 3.724.084 5.936 0 3.22-.028 6.636-.168 9.212-.056 1.008-.868 1.288-1.68 1.288ZM43.824 29.104V30h6.328v-.896c-1.092 0-2.156-.084-2.212-1.204-.112-2.408-.112-4.844-.112-7.252 0-2.94 0-5.852.252-8.512.084-.896 1.148-.98 2.072-.98v-.896h-6.328v.896c.98 0 1.708.364 1.764 1.512.084 1.652.084 3.724.084 5.936 0 3.22-.028 6.636-.168 9.212-.056 1.008-.868 1.288-1.68 1.288ZM52.392 29.104V30h6.328v-.896c-1.092 0-2.156-.084-2.212-1.204-.112-2.408-.112-4.844-.112-7.252 0-2.94 0-5.852.252-8.512.084-.896 1.148-.98 2.072-.98v-.896h-6.328v.896c.98 0 1.708.364 1.764 1.512.084 1.652.084 3.724.084 5.936 0 3.22-.028 6.636-.168 9.212-.056 1.008-.868 1.288-1.68 1.288ZM60.96 29.104V30h6.328v-.896c-1.092 0-2.156-.084-2.212-1.204-.112-2.408-.112-4.844-.112-7.252 0-2.94 0-5.852.252-8.512.084-.896 1.148-.98 2.072-.98v-.896H60.96v.896c.98 0 1.708.364 1.764 1.512.084 1.652.084 3.724.084 5.936 0 3.22-.028 6.636-.168 9.212-.056 1.008-.868 1.288-1.68 1.288ZM77.788 12.612 85.88 30h.952l7.616-17.976c.364-.868.924-.868 1.82-.868v-.896H90.5v.896c1.008 0 1.792.28 1.792 1.12 0 .224-.084.504-.196.812l-5.32 13.776-6.216-13.888c-.168-.364-.252-.672-.252-.924 0-.812.924-.896 1.932-.896v-.896h-6.552v.896c1.4 0 1.68.56 2.1 1.456ZM116.148 29.104V30h8.12v-.896c-1.848 0-3.668-1.428-4.788-3.08l-4.032-5.964 4.788-6.384c.84-1.12 2.464-2.548 4.032-2.548v-.868h-7.056v.868c1.036 0 1.484.392 1.484 1.008 0 .392-.112.868-.476 1.344l-3.78 5.04c-3.36-5.068-3.528-5.656-3.528-6.132 0-.728.364-1.26 1.344-1.26v-.868h-8.008v.868c1.792 0 3.556 1.484 4.536 2.94l4.228 6.328-4.564 6.076c-.896 1.204-2.324 2.632-4.2 2.632V30h6.86v-.896c-.924 0-1.26-.364-1.26-.868 0-.448.224-1.008.616-1.54l3.584-4.76c3.5 5.292 3.668 5.824 3.668 6.216 0 .588-.42.952-1.568.952ZM133.788 29.104V30h10.976l2.884-3.696-.756-.476c-.84 1.036-1.456 1.792-3.024 2.38h-5.964a226.89 226.89 0 0 1-.112-7.56c0-2.94.112-5.852.252-8.512.056-.896 1.148-.98 2.072-.98v-.896h-6.328v.896c.952 0 1.708.308 1.764 1.428.084 1.68.084 3.78.084 6.02 0 3.248-.028 6.636-.168 9.212-.056 1.008-.896 1.288-1.68 1.288ZM165.876 30.28c2.632 0 3.864-.504 5.852-1.624l2.94-4.088-.756-.476c-2.576 3.5-5.124 4.116-7.448 4.116-5.432 0-8.26-4.984-8.26-9.464 0-3.556 1.932-7 7.056-7 3.164 0 7.616 1.204 8.036 5.096h.896v-4.284c-2.436-1.764-5.152-2.576-8.176-2.576-5.824 0-10.108 4.536-10.108 10.136 0 5.628 4.284 10.164 9.968 10.164ZM184.188 30h8.876c6.216 0 9.24-4.872 9.24-9.772 0-4.984-3.108-9.968-9.24-9.968h-8.876v.896c.952 0 1.708.308 1.764 1.428.084 1.68.084 3.78.084 6.02 0 3.248-.028 6.636-.168 9.212-.056 1.008-.896 1.288-1.68 1.288V30Zm4.004-9.352c0-3.08.084-6.16.28-8.904h3.332c5.684 0 8.204 6.58 8.204 9.52 0 3.92-1.848 7.14-6.244 7.14h-5.46c-.084-2.548-.112-5.18-.112-7.756ZM212.048 29.104V30h5.712v-.896c-1.008 0-2.1-.028-2.184-1.064-.196-2.296-.224-4.984-.224-7.532 0-1.764 0-4.816.084-6.832L222.884 30h.336l7.168-15.736c.14 1.96.196 3.808.196 6.384 0 2.408 0 4.844-.112 7.252-.056 1.12-1.12 1.204-2.212 1.204V30h6.328v-.896c-.868 0-1.624-.308-1.68-1.484-.112-2.38-.168-5.796-.168-9.016 0-2.268 0-4.396.028-6.076.112-1.204.924-1.372 1.96-1.372v-.896h-7v.896c1.204 0 1.736.196 1.736.756 0 .196-.084.476-.224.784l-5.796 13.384-5.992-13.496a.96.96 0 0 1-.112-.448c0-.644.784-.98 2.072-.98v-.896h-7.448v.896c1.092 0 1.624.168 1.68 1.512.112 2.436.168 5.908.168 9.128 0 2.128 0 4.2-.084 5.852-.056 1.176-.336 1.456-1.68 1.456Z"/></g></svg>