<svg xmlns="http://www.w3.org/2000/svg" width="320" height="40"><g fill="#424345" fill-rule="nonzero"><path d="M10.552 30.28c2.212 0 4.48-1.54 6.58-3.808 2.268 2.1 4.312 3.808 5.124 3.808l3.22-2.1-.532-.728c-.756.532-1.596 1.092-2.408 1.092-.924 0-2.632-1.344-4.452-3.108 2.156-2.576 4.144-5.824 5.768-8.82.28-.504.952-1.148 1.624-1.148V14.46h-4.228v1.008c.672 0 1.428.056 1.428.616 0 .084-.028.168-.056.252-1.736 3.5-3.668 6.188-5.516 8.12-1.848-1.876-3.696-3.976-4.928-5.404 2.492-.448 3.472-1.96 3.472-3.444 0-2.352-1.736-3.472-3.528-3.472-1.876 0-3.78 1.232-3.78 3.64 0 .952.336 1.96 1.008 2.772-2.884 1.456-4.228 4.004-4.228 6.356 0 2.828 1.96 5.376 5.432 5.376Zm-3.08-5.544c0-1.876.952-4.06 2.744-5.292 1.232 1.316 3.556 3.78 5.852 6.02-2.1 1.876-4.088 2.772-5.628 2.772-2.016 0-2.968-1.596-2.968-3.5Zm2.688-8.904c0-1.344 1.232-2.212 2.352-2.212.924 0 1.736.588 1.736 1.96 0 1.092-1.176 2.268-2.94 2.576-.84-.868-1.148-1.652-1.148-2.324ZM44.152 34.424c3.556 0 7.028-1.596 9.604-4.144l-.532-.56c-2.52 2.1-5.348 3.08-7.924 3.08-5.712 0-8.484-4.228-8.484-8.624 0-6.972 5.348-10.528 10.136-10.528 5.208 0 7.504 3.752 7.504 7.364 0 3.192-1.848 6.272-5.124 6.412.14-.84 1.568-8.204 1.904-8.988l-.364-.28c-5.6 0-10.22 2.436-10.22 7.056 0 2.1 1.288 3.864 3.22 3.864 1.568 0 2.716-.728 3.752-1.848l-.392 1.652c5.992 0 9.128-4.676 9.128-9.128 0-3.976-2.548-7.784-8.148-7.784-5.768 0-13.356 5.18-13.356 13.356 0 5.208 3.752 9.1 9.296 9.1Zm-1.96-9.94c0-2.072 2.1-4.704 6.692-5.012-.168 1.344-.56 4.284-.896 5.936l-.056.28c-.952.812-2.38 1.484-3.416 1.484-1.484 0-2.324-1.176-2.324-2.688ZM67.14 33.92h1.848c-.112-1.736-.168-6.244-.168-10.752 0-4.508.056-9.016.168-10.752H67.14c.084 1.736.168 6.244.168 10.752 0 4.508-.084 9.016-.168 10.752ZM89.596 32.156A9.84 9.84 0 0 0 99.48 22.3c0-5.488-4.34-9.884-9.828-9.884a9.84 9.84 0 0 0-9.884 9.856c0 5.488 4.34 9.884 9.828 9.884Zm.112-5.012c.784 0 1.4-.252 2.436-.84l1.54-2.1-.392-.252c-1.344 1.82-2.66 1.932-3.276 1.932-1.512 0-3.136-2.1-3.136-4.256 0-1.288 1.148-2.52 2.744-2.52.84 0 1.792.336 2.772 1.232.616-.28 1.036-.672 1.232-1.232-.952-.952-2.156-1.372-3.36-1.372-2.38 0-4.676 1.764-4.676 4.732 0 2.772 1.988 4.676 4.116 4.676Zm1.008 3.108c-6.188 0-9.492-4.648-9.492-8.932 0-3.64 2.408-7.028 7.448-7.028 6.188 0 9.492 4.648 9.492 8.932 0 3.64-2.408 7.028-7.448 7.028ZM114.544 20.48c2.716 0 4.956-2.24 4.956-4.984 0-2.716-2.24-4.956-4.956-4.956-2.744 0-4.984 2.24-4.984 4.956a4.995 4.995 0 0 0 4.984 4.984Zm.644-1.232c-2.492 0-4.704-2.044-4.704-4.368 0-1.456.924-3.164 3.416-3.164 2.52 0 4.704 2.044 4.704 4.34 0 1.456-.924 3.192-3.416 3.192Zm-2.436-2.296v.252h1.68v-.252c-.224 0-.476 0-.476-.168v-1.428l.392.028c.448 1.12 1.372 1.82 2.268 1.82v-.42c-.56 0-1.008-.476-1.372-1.456.448-.168.756-.616.756-1.12 0-.672-.616-.952-1.148-.952h-2.1v.224c.112 0 .336.084.336.28v1.148l-.028 1.764c0 .196-.168.28-.308.28Zm1.204-2.184.028-.896h.588c.224 0 .644.028.644.42 0 .336-.364.504-.672.504l-.588-.028ZM132.492 18.1c2.156 0 3.472-1.736 3.472-3.724 0-2.016-1.288-3.836-3.472-3.836-2.156 0-3.472 1.82-3.472 3.836s1.316 3.724 3.472 3.724Zm.56-1.372c-1.204 0-2.688-1.148-2.688-3.052 0-1.204.728-1.736 1.568-1.736 1.176 0 2.66 1.12 2.66 3.024 0 1.232-.7 1.764-1.54 1.764ZM146.24 17.064v.308h3.332v-.308c-.364 0-.896-.336-.924-.756l-.028-1.708c0-1.064.028-1.904.084-2.8l1.736-.028v-.952h-4.844l-.952 1.652.084.14c.336-.364.672-.588 1.176-.784l1.316-.028.028 1.792c0 .952 0 1.96-.056 2.716-.028.392-.672.756-.952.756Zm4.536 0v.308h2.604v-.308c-.336 0-.868-.224-.896-.644-.056-.672-.056-1.456-.056-2.184l.028-2.268 2.492 5.404h.224l2.744-5.068a99.8 99.8 0 0 1-.112 3.976c-.028.476-.504.784-.868.784v.308h3.024v-.308c-.448 0-.644-.364-.672-.784-.056-1.008-.056-2.492-.056-3.64v-.784c0-.42.392-.728.728-.728v-.308h-3.024v.308c.336 0 .448.168.448.336s-.084.336-.14.448l-1.764 3.304-1.568-3.556a.52.52 0 0 1-.056-.196c0-.252.196-.336.644-.336v-.308h-3.724v.308c.308 0 .644.252.672.616.056.784.056 1.876.056 2.912v1.82c0 .308-.28.588-.728.588ZM176.368 36.02l.336.84c3.416-.98 4.34-2.072 4.34-14.532 0-3.5.196-9.576.42-11.228l-.448-.28c-.224.84-.868 1.708-1.624 2.324a9.721 9.721 0 0 0-2.52-.392c-4.172 0-5.992 3.752-5.992 7.224 0 2.324 1.26 5.656 4.452 5.656 1.4 0 2.996-.896 3.948-1.624v3.668c0 4.704-.364 7.812-2.912 8.344ZM194.792 30.252c2.576 0 5.18-1.232 5.18-3.668 0-1.4-1.204-2.436-2.576-3.304 1.792-.448 3.248-1.596 3.248-3.416 0-1.82-2.016-2.996-3.808-4.032-1.372-.784-2.604-1.54-2.604-2.408 0-.98.896-1.54 1.904-1.54.868 0 1.82.392 2.464 1.204v1.12h1.008v-2.576c-.952-.672-2.156-1.008-3.332-1.008-2.296 0-4.48 1.232-4.48 3.444 0 1.456 1.232 2.492 2.632 3.388-1.82.336-3.304 1.512-3.304 3.332 0 1.848 2.016 3.08 3.808 4.088 1.4.784 2.604 1.568 2.604 2.436 0 1.148-.924 1.624-2.1 1.624-1.12 0-2.436-.448-3.304-1.176v-1.12h-1.008v2.576c.952.672 2.324 1.036 3.668 1.036Zm-1.232-10.108c0-.98.896-1.54 1.904-1.54.504 0 1.008.14 1.484.392.756.504 1.26 1.036 1.26 1.596 0 1.148-.924 1.624-2.1 1.624l-.588-.028c-1.092-.672-1.96-1.316-1.96-2.044ZM211.144 33.92h1.848c-.112-1.736-.168-6.244-.168-10.752 0-4.508.056-9.016.168-10.752h-1.848c.084 1.736.168 6.244.168 10.752 0 4.508-.084 9.016-.168 10.752ZM225.76 21.936h1.512c0-4.088.056-7.952.168-9.52h-1.848c.084 1.568.168 5.432.168 9.52Zm-.168 11.984h1.848c-.112-1.568-.168-5.432-.168-9.52h-1.512c0 4.088-.084 7.952-.168 9.52ZM243.596 32.212l1.596 1.904 1.652-1.904c-.588-1.512-.924-5.208-.924-8.652 0-.868.028-1.736.056-2.548 1.456.056 2.828.224 3.416.476l.98-1.092-.98-1.148c-.588.196-1.876.308-3.304.336.14-1.512.364-2.716.7-3.248l-1.596-1.904-1.652 1.904c.28.672.476 1.848.644 3.276-1.372-.028-2.632-.112-3.164-.308l-.98 1.092.98 1.148c.616-.308 1.904-.476 3.276-.504.112 1.344.168 2.8.168 4.228 0 3.08-.252 5.936-.868 6.944ZM266.528 32.212l1.596 1.904 1.652-1.904c-.476-1.204-.784-3.808-.896-6.58 1.484.056 2.856.224 3.444.476l.98-1.092-.98-1.148c-.588.196-1.988.308-3.472.364v-.672c0-.868.028-1.736.056-2.548 1.456.056 2.828.224 3.416.476l.98-1.092-.98-1.148c-.588.196-1.876.308-3.304.336.14-1.512.364-2.716.7-3.248l-1.596-1.904-1.652 1.904c.28.672.476 1.848.644 3.276-1.372-.028-2.632-.112-3.164-.308l-.98 1.092.98 1.148c.616-.308 1.904-.476 3.276-.504.084 1.008.14 2.1.168 3.192-1.484-.028-2.856-.112-3.444-.308l-.98 1.092.98 1.148c.644-.308 1.988-.476 3.444-.532-.028 2.94-.28 5.6-.868 6.58Z"/></g></svg>