<svg xmlns="http://www.w3.org/2000/svg" width="320" height="40"><g fill="#424345" fill-rule="nonzero"><path d="M11.932 35.46h1.428c-3.164-2.912-4.788-7.924-4.788-12.852s1.624-9.8 4.788-12.348h-1.428C7.2 14.6 5.8 18.52 5.8 22.552c0 4.088 1.456 8.288 6.132 12.908ZM20.136 30.28c2.38 0 4.368-1.26 4.368-3.64 0-1.764-1.54-2.464-3.08-3.164-1.54-.7-3.108-1.428-3.108-3.276 0-.98.896-1.54 1.904-1.54.868 0 1.82.392 2.464 1.204v1.12h1.008V18.8c-1.344-.84-2.548-1.4-3.892-1.4-2.016 0-3.696 1.148-3.696 3.444 0 2.52 1.96 3.444 3.696 4.228 1.316.588 2.492 1.148 2.492 2.296s-.924 1.624-2.1 1.624c-1.12 0-2.436-.448-3.304-1.176v-1.12H15.88v2.1c1.148.952 2.744 1.484 4.256 1.484ZM30.58 30.28c1.96 0 3.724-1.736 4.9-3.304-.028 1.372-.056 2.52-.112 3.024l.616.28c.616-.952 2.268-2.156 3.276-2.66v-1.008l-1.512.756c-.084-.784-.14-2.968-.14-5.096 0-1.82.056-3.64.196-4.592l-1.148-.28c-.588.924-1.596 1.876-2.604 2.38v1.008l1.428-.896c.056.616.056 1.736.056 3.052l-.028 2.184c-1.204 1.512-2.772 3.08-3.976 3.08-1.68 0-2.072-2.856-2.072-5.6 0-2.38.224-4.256.336-4.928l-1.148-.28c-.588.924-1.596 1.876-2.604 2.38v1.008l1.428-.896a24.876 24.876 0 0 0-.168 2.94c0 3.248.616 7.448 3.276 7.448ZM50.04 30h5.516v-1.008c-1.26 0-1.652-.28-1.652-1.26-.028-7.784-1.148-10.332-3.836-10.332-1.876 0-3.584 1.344-4.76 2.744 0-1.12.028-2.016.084-2.464l-.588-.28c-.616.952-2.296 2.156-3.304 2.66v1.008l1.54-.756c.168.336.224 3.22.224 5.768v1.652c-.084.98-.784 1.26-1.764 1.26V30h5.544v-1.008c-1.232 0-1.652-.28-1.736-1.288l-.028-2.996v-3.024c1.148-1.12 2.492-1.876 3.64-1.876 2.016 0 2.856 2.044 2.856 7.644v.308c0 .952-.364 1.232-1.736 1.232V30ZM57.376 35.46h1.428c4.676-4.62 6.132-8.82 6.132-12.908 0-4.032-1.4-7.952-6.132-12.292h-1.428c3.164 2.548 4.788 7.42 4.788 12.348 0 4.928-1.624 9.94-4.788 12.852ZM76.724 35.628V33.78c-.644.084-2.156.168-3.808.168-.084-2.548-.112-6.832-.112-11.088 0-4.256.028-8.54.112-11.088 1.652 0 3.164.084 3.808.168v-1.848c-.756.084-2.66.168-4.592.168h-1.596c.084 2.016.168 7.336.168 12.6 0 5.264-.084 10.584-.168 12.6h1.596c1.932 0 3.836.056 4.592.168ZM86.3 30.28c2.38 0 4.368-1.26 4.368-3.64 0-1.764-1.54-2.464-3.08-3.164-1.54-.7-3.108-1.428-3.108-3.276 0-.98.896-1.54 1.904-1.54.868 0 1.82.392 2.464 1.204v1.12h1.008V18.8c-1.344-.84-2.548-1.4-3.892-1.4-2.016 0-3.696 1.148-3.696 3.444 0 2.52 1.96 3.444 3.696 4.228 1.316.588 2.492 1.148 2.492 2.296s-.924 1.624-2.1 1.624c-1.12 0-2.436-.448-3.304-1.176v-1.12h-1.008v2.1c1.148.952 2.744 1.484 4.256 1.484ZM98.536 30.28c1.036 0 1.904-.364 3.304-1.148l2.1-2.884-.532-.336c-1.82 2.464-3.64 2.632-4.2 2.632-2.156 0-4.116-1.988-4.676-4.48h10.136v-1.26h-.448c-.616-2.604-2.576-5.404-5.684-5.404-3.528 0-5.908 2.94-5.908 6.496 0 3.752 2.492 6.384 5.908 6.384Zm-4.144-7.476v-.14c0-1.848.952-3.416 3.192-3.416 1.792 0 3.78 1.68 4.48 3.556h-7.672ZM113.964 30l.616.28c.616-.952 2.268-2.156 3.276-2.66v-1.008l-1.848 1.036v-4.2c0-4.116-1.652-6.048-4.592-6.048-1.316 0-2.772.672-4.088 2.072l.364.84c1.036-.616 1.876-.896 2.604-.896 1.82 0 2.8.98 3.304 2.716l-7.056 3.024a8.781 8.781 0 0 0-.196 1.82c0 1.652.896 3.304 3.108 3.304 1.204 0 3.304-1.708 4.564-2.996L113.964 30Zm-5.292-3.444c0-.308.056-.588.196-.896l4.984-2.184c.112.784.168 1.708.168 2.688-1.232 1.092-2.744 1.764-3.864 1.764-.868 0-1.484-.42-1.484-1.372ZM122.336 33.78v1.848c.756-.112 2.66-.168 4.592-.168h1.596c-.084-2.016-.168-7.336-.168-12.6 0-5.264.084-10.584.168-12.6h-1.596c-1.932 0-3.836-.084-4.592-.168v1.848c.644-.084 2.156-.168 3.808-.168.084 2.548.112 6.832.112 11.088 0 4.256-.028 8.54-.112 11.088-1.652 0-3.164-.084-3.808-.168ZM141.684 35.46v-1.512c-2.716 0-5.096-1.008-5.096-3.5 0-.756.504-1.792.98-2.744.448-.896.84-1.736.84-2.296 0-1.232-1.344-2.156-2.1-2.632.756-.476 2.1-1.4 2.1-2.632 0-.56-.392-1.4-.84-2.296-.476-.952-.98-1.988-.98-2.744 0-2.492 2.38-3.5 5.096-3.5v-1.512c-5.432.224-7.56 2.044-7.56 4.424 0 1.484.84 2.632 1.596 3.612.56.728 1.036 1.4 1.036 2.044 0 1.092-1.204 2.128-2.548 2.464v.28c1.344.336 2.548 1.372 2.548 2.464 0 .644-.476 1.316-1.036 2.044-.756.98-1.596 2.128-1.596 3.612 0 2.38 2.128 4.2 7.56 4.424ZM148.46 30.28c2.38 0 4.368-1.26 4.368-3.64 0-1.764-1.54-2.464-3.08-3.164-1.54-.7-3.108-1.428-3.108-3.276 0-.98.896-1.54 1.904-1.54.868 0 1.82.392 2.464 1.204v1.12h1.008V18.8c-1.344-.84-2.548-1.4-3.892-1.4-2.016 0-3.696 1.148-3.696 3.444 0 2.52 1.96 3.444 3.696 4.228 1.316.588 2.492 1.148 2.492 2.296s-.924 1.624-2.1 1.624c-1.12 0-2.436-.448-3.304-1.176v-1.12h-1.008v2.1c1.148.952 2.744 1.484 4.256 1.484ZM161.844 30l.616.28c.616-.952 2.268-2.156 3.276-2.66v-1.008l-1.848 1.036v-4.2c0-4.116-1.652-6.048-4.592-6.048-1.316 0-2.772.672-4.088 2.072l.364.84c1.036-.616 1.876-.896 2.604-.896 1.82 0 2.8.98 3.304 2.716l-7.056 3.024a8.781 8.781 0 0 0-.196 1.82c0 1.652.896 3.304 3.108 3.304 1.204 0 3.304-1.708 4.564-2.996L161.844 30Zm-5.292-3.444c0-.308.056-.588.196-.896l4.984-2.184c.112.784.168 1.708.168 2.688-1.232 1.092-2.744 1.764-3.864 1.764-.868 0-1.484-.42-1.484-1.372ZM175.676 30h5.516v-1.008c-1.26 0-1.652-.28-1.652-1.26-.028-7.784-1.148-10.332-3.836-10.332-1.876 0-3.584 1.344-4.76 2.744 0-1.12.028-2.016.084-2.464l-.588-.28c-.616.952-2.296 2.156-3.304 2.66v1.008l1.54-.756c.168.336.224 3.22.224 5.768v1.652c-.084.98-.784 1.26-1.764 1.26V30h5.544v-1.008c-1.232 0-1.652-.28-1.736-1.288l-.028-2.996v-3.024c1.148-1.12 2.492-1.876 3.64-1.876 2.016 0 2.856 2.044 2.856 7.644v.308c0 .952-.364 1.232-1.736 1.232V30ZM188.64 30.28c1.68 0 2.968-.616 3.892-1.624l-.14 1.344.616.28c.616-.952 2.268-2.156 3.276-2.66v-1.008l-1.792.924c-.056-.252-.056-.56-.056-2.212 0-4.872.196-11.816.476-14.504l-.588-.28c-.616.952-2.66 2.212-3.668 2.716v1.008l1.652-.588c.14 1.932.28 4.396.336 6.86-1.26-2.24-2.856-3.136-4.368-3.136-2.884 0-5.544 3.164-5.544 6.524 0 3.444 2.24 6.356 5.908 6.356Zm-4.172-7.532c0-2.268 1.68-3.556 3.248-3.556 1.68 0 3.892 1.232 4.956 3.332v.812c0 1.512-.028 2.744-.056 3.724-.672.924-1.792 1.484-3.052 1.484-2.296 0-5.096-2.184-5.096-5.796ZM198.244 33.948v1.512c5.432-.224 7.56-2.044 7.56-4.424 0-1.484-.84-2.632-1.596-3.612-.56-.728-1.036-1.4-1.036-2.044 0-1.092 1.204-2.128 2.548-2.464v-.28c-1.344-.336-2.548-1.372-2.548-2.464 0-.644.476-1.316 1.036-2.044.756-.98 1.596-2.128 1.596-3.612 0-2.38-2.128-4.2-7.56-4.424v1.512c2.716 0 5.096 1.008 5.096 3.5 0 .756-.504 1.792-.98 2.744-.448.896-.84 1.736-.84 2.296 0 1.232 1.344 2.156 2.1 2.632-.756.476-2.1 1.4-2.1 2.632 0 .56.392 1.4.84 2.296.476.952.98 1.988.98 2.744 0 2.492-2.38 3.5-5.096 3.5Z"/></g></svg>