<svg xmlns="http://www.w3.org/2000/svg" width="320" height="40"><g fill="#424345" fill-rule="nonzero"><path d="M11.588 30h1.848c-.112-1.26-.168-4.2-.168-7.084 0-2.492.056-4.9.112-7.28 1.736 1.904 2.94 3.304 5.124 6.076l1.12-1.288c-2.38-2.464-4.732-5.152-7.112-8.12-2.38 2.968-4.732 5.656-7.112 8.12l1.12 1.288c2.184-2.772 3.388-4.172 5.124-6.104.056 2.744.112 5.04.112 7.336 0 2.66-.056 5.348-.168 7.056ZM29.424 26.416l1.316 1.316c.812-.98 2.856-3.108 4.9-5.124 1.736-1.764 3.5-3.444 5.236-5.096-.14 2.576-.308 4.452-.7 7.924l1.708-.112c.056-3.416.308-6.972.7-10.752-3.78.392-7.336.644-10.752.7l-.112 1.708c3.472-.42 5.32-.56 7.924-.7-1.904 1.988-3.472 3.64-5.096 5.264-1.904 1.876-3.836 3.752-5.124 4.872ZM60.672 27.144l1.288 1.12c2.464-2.38 5.152-4.732 8.12-7.112-2.968-2.38-5.656-4.732-8.12-7.112l-1.288 1.12c2.772 2.184 4.172 3.388 6.104 5.124-2.744.056-5.04.112-7.336.112-2.66 0-5.348-.056-7.056-.168v1.848c1.26-.112 4.2-.168 7.084-.168 2.492 0 4.9.056 7.28.112-1.904 1.736-3.304 2.94-6.076 5.124ZM93.04 27.732c-.392-3.78-.644-7.336-.7-10.752l-1.708-.112c.392 3.472.56 5.348.7 7.924-1.736-1.652-3.5-3.332-5.236-5.096-2.044-2.016-4.088-4.144-4.9-5.124l-1.316 1.316c1.288 1.12 3.22 2.996 5.124 4.872 1.624 1.624 3.192 3.276 5.096 5.264-2.604-.14-4.452-.28-7.924-.7l.112 1.708c3.416.056 6.972.308 10.752.7ZM109.952 30c2.38-2.968 4.732-5.656 7.112-8.12l-1.12-1.288c-2.184 2.772-3.388 4.172-5.124 6.076a306.13 306.13 0 0 1-.112-7.28c0-2.884.056-5.824.168-7.084h-1.848c.112 1.708.168 4.396.168 7.056 0 2.296-.056 4.592-.112 7.336-1.736-1.932-2.94-3.332-5.124-6.104l-1.12 1.288c2.38 2.464 4.732 5.152 7.112 8.12ZM126.864 27.732c3.78-.392 7.336-.644 10.752-.7l.112-1.708c-3.472.42-5.32.56-7.924.7 1.904-1.988 3.472-3.64 5.096-5.264 1.904-1.876 3.836-3.752 5.124-4.872l-1.316-1.316c-.812.98-2.856 3.108-4.9 5.124-1.736 1.764-3.5 3.444-5.236 5.096.14-2.576.308-4.452.7-7.924l-1.708.112c-.056 3.416-.308 6.972-.7 10.752ZM157.944 28.264l1.288-1.12c-2.772-2.184-4.172-3.388-6.076-5.124a306.13 306.13 0 0 1 7.28-.112c2.884 0 5.824.056 7.084.168v-1.848c-1.708.112-4.396.168-7.056.168-2.296 0-4.592-.056-7.336-.112 1.932-1.736 3.332-2.94 6.104-5.124l-1.288-1.12c-2.464 2.38-5.152 4.732-8.12 7.112 2.968 2.38 5.656 4.732 8.12 7.112ZM189.164 27.732l1.316-1.316c-1.288-1.12-3.22-2.996-5.124-4.872-1.624-1.624-3.192-3.276-5.096-5.264 2.604.14 4.452.28 7.924.7l-.112-1.708c-3.416-.056-6.972-.308-10.752-.7.392 3.78.644 7.336.7 10.752l1.708.112c-.392-3.472-.56-5.348-.7-7.924 1.736 1.652 3.5 3.332 5.236 5.096 2.044 2.016 4.088 4.144 4.9 5.124Z"/></g></svg>