<svg xmlns="http://www.w3.org/2000/svg" width="320" height="40"><g fill="#424345" fill-rule="nonzero"><path d="m12.848 11.24-.084-.7C10.3 10.876 8.9 12.836 8.9 14.712c0 1.092.448 1.904 1.428 2.968l1.568-1.596c-.868-.812-1.288-1.344-1.288-2.184 0-1.12.784-2.464 2.24-2.66Zm-3.5 0-.084-.7C6.8 10.876 5.4 12.836 5.4 14.712c0 1.092.448 1.904 1.428 2.968l1.568-1.596c-.868-.812-1.288-1.344-1.288-2.184 0-1.12.784-2.464 2.24-2.66ZM26.596 11.24l-.084-.7c-2.464.336-3.864 2.296-3.864 4.172 0 1.092.448 1.904 1.428 2.968l1.568-1.596c-.868-.812-1.288-1.344-1.288-2.184 0-1.12.784-2.464 2.24-2.66ZM49.444 28.404l1.26-1.372c-1.652-1.176-4.2-3.248-5.824-4.816 1.624-1.568 4.172-3.64 5.824-4.816l-1.26-1.372c-2.156 2.324-4.34 4.2-7 6.188 2.66 1.988 4.844 3.864 7 6.188Zm-6.048 0 1.26-1.372c-1.652-1.176-4.2-3.248-5.824-4.816 1.624-1.568 4.172-3.64 5.824-4.816l-1.26-1.372c-2.156 2.324-4.34 4.2-7 6.188 2.66 1.988 4.844 3.864 7 6.188ZM69.352 27.032l1.26 1.372c2.156-2.324 4.34-4.2 7-6.188-2.66-1.988-4.844-3.864-7-6.188l-1.26 1.372c1.652 1.176 4.2 3.248 5.824 4.816-1.624 1.568-4.172 3.64-5.824 4.816Zm-6.048 0 1.26 1.372c2.156-2.324 4.34-4.2 7-6.188-2.66-1.988-4.844-3.864-7-6.188l-1.26 1.372c1.652 1.176 4.2 3.248 5.824 4.816-1.624 1.568-4.172 3.64-5.824 4.816ZM91.36 11.24l-.084-.7c-2.464.336-3.864 2.296-3.864 4.172 0 1.092.448 1.904 1.428 2.968l1.568-1.596c-.868-.812-1.288-1.344-1.288-2.184 0-1.12.784-2.464 2.24-2.66ZM101.16 16.98l.084.7c2.464-.336 3.864-2.296 3.864-4.172 0-1.092-.448-1.904-1.428-2.968l-1.568 1.596c.868.812 1.288 1.344 1.288 2.184 0 1.12-.784 2.464-2.24 2.66ZM114.908 33.472l.084.7c2.464-.336 3.864-2.296 3.864-4.172 0-1.092-.448-1.904-1.428-2.968l-1.568 1.596c.868.812 1.288 1.344 1.288 2.184 0 1.12-.784 2.464-2.24 2.66ZM136.104 11.24l-.084-.7c-2.464.336-3.864 2.296-3.864 4.172 0 1.092.448 1.904 1.428 2.968l1.568-1.596c-.868-.812-1.288-1.344-1.288-2.184 0-1.12.784-2.464 2.24-2.66Zm-3.5 0-.084-.7c-2.464.336-3.864 2.296-3.864 4.172 0 1.092.448 1.904 1.428 2.968l1.568-1.596c-.868-.812-1.288-1.344-1.288-2.184 0-1.12.784-2.464 2.24-2.66ZM145.904 16.98l.084.7c2.464-.336 3.864-2.296 3.864-4.172 0-1.092-.448-1.904-1.428-2.968l-1.568 1.596c.868.812 1.288 1.344 1.288 2.184 0 1.12-.784 2.464-2.24 2.66Zm3.5 0 .084.7c2.464-.336 3.864-2.296 3.864-4.172 0-1.092-.448-1.904-1.428-2.968l-1.568 1.596c.868.812 1.288 1.344 1.288 2.184 0 1.12-.784 2.464-2.24 2.66ZM163.152 33.472l.084.7c2.464-.336 3.864-2.296 3.864-4.172 0-1.092-.448-1.904-1.428-2.968l-1.568 1.596c.868.812 1.288 1.344 1.288 2.184 0 1.12-.784 2.464-2.24 2.66Zm3.5 0 .084.7c2.464-.336 3.864-2.296 3.864-4.172 0-1.092-.448-1.904-1.428-2.968l-1.568 1.596c.868.812 1.288 1.344 1.288 2.184 0 1.12-.784 2.464-2.24 2.66ZM187.4 28.404l1.26-1.372c-1.652-1.176-4.2-3.248-5.824-4.816 1.624-1.568 4.172-3.64 5.824-4.816l-1.26-1.372c-2.156 2.324-4.34 4.2-7 6.188 2.66 1.988 4.844 3.864 7 6.188ZM201.26 27.032l1.26 1.372c2.156-2.324 4.34-4.2 7-6.188-2.66-1.988-4.844-3.864-7-6.188l-1.26 1.372c1.652 1.176 4.2 3.248 5.824 4.816-1.624 1.568-4.172 3.64-5.824 4.816ZM219.32 22.244v1.848c.756-.112 2.66-.168 4.592-.168 1.932 0 3.836.056 4.592.168v-1.848c-.756.084-2.66.168-4.592.168-1.932 0-3.836-.084-4.592-.168ZM238.304 31.82v1.848c1.064-.112 3.752-.168 6.468-.168s5.404.056 6.468.168V31.82c-1.064.084-3.752.168-6.468.168s-5.404-.084-6.468-.168ZM261.04 22.244v1.848c1.148-.112 4.032-.168 6.944-.168s5.796.056 6.944.168v-1.848c-1.148.084-4.032.168-6.944.168s-5.796-.084-6.944-.168ZM284.728 22.244v1.848c1.54-.112 5.376-.168 9.268-.168 3.864 0 7.7.056 9.24.168v-1.848c-1.54.084-5.376.168-9.24.168-3.892 0-7.728-.084-9.268-.168Z"/></g></svg>