<svg xmlns="http://www.w3.org/2000/svg" width="1280" height="180"><g fill="#E7E6DF" fill-rule="nonzero"><path d="M438.75 144.75c15 0 29.7-3 41.7-9 0-11.55.15-22.5.6-31.35.3-6.3 4.65-7.8 9.15-7.8v-4.8h-35.4v4.8c6 0 10.2.75 10.95 8.1.75 7.8 1.2 15.3 1.2 24.45-7.35 4.2-13.8 4.5-22.35 4.5-30.15 0-45.3-26.7-45.3-50.7 0-19.05 10.35-37.5 37.8-37.5 16.95 0 37.65 6.45 39.9 27.3h4.8V49.8C468.75 40.35 457.35 36 441.15 36 409.95 36 387 60.3 387 90.3c0 30.15 22.95 54.45 51.75 54.45ZM541.5 143.25l3.3 1.5c3.3-5.1 12.15-11.55 17.55-14.25v-5.4l-9.9 5.55v-22.5c0-22.05-8.85-32.4-24.6-32.4-7.05 0-14.85 3.6-21.9 11.1l1.95 4.5c5.55-3.3 10.05-4.8 13.95-4.8 9.75 0 15 5.25 17.7 14.55l-37.8 16.2c-.75 3.3-1.05 7.05-1.05 9.75 0 8.85 4.8 17.7 16.65 17.7 6.45 0 17.7-9.15 24.45-16.05l-.3 14.55Zm-28.35-18.45c0-1.65.3-3.15 1.05-4.8l26.7-11.7c.6 4.2.9 9.15.9 14.4-6.6 5.85-14.7 9.45-20.7 9.45-4.65 0-7.95-2.25-7.95-7.35ZM591.9 144.75c10.5 0 19.95-9.3 26.25-17.7-.15 7.35-.3 13.5-.6 16.2l3.3 1.5c3.3-5.1 12.15-11.55 17.55-14.25v-5.4l-8.1 4.05c-.45-4.2-.75-15.9-.75-27.3 0-9.75.3-19.5 1.05-24.6l-6.15-1.5C621.3 80.7 615.9 85.8 610.5 88.5v5.4l7.65-4.8c.3 3.3.3 9.3.3 16.35l-.15 11.7c-6.45 8.1-14.85 16.5-21.3 16.5-9 0-11.1-15.3-11.1-30 0-12.75 1.2-22.8 1.8-26.4l-6.15-1.5C578.4 80.7 573 85.8 567.6 88.5v5.4l7.65-4.8c-.45 3.6-.9 9.3-.9 15.75 0 17.4 3.3 39.9 17.55 39.9ZM674.7 144.75c9.3 0 17.85-8.4 20.85-12.45l-3.15-3.75c-5.25 4.5-9.9 6.45-13.8 6.45-6.75 0-12-5.7-12-12.75V105.3c0-7.05 0-15 .3-21.3h29.4v-6.75h-29.25c0-6.6.45-12.45 1.35-16.65l-3.75-1.2c-3.3 7.5-7.65 16.35-16.5 17.85V84h7.95c-.45 10.35-.6 28.5-.6 38.25 0 15 4.35 22.5 19.2 22.5ZM706.8 143.25h31.8v-5.4c-6.6 0-9.9-1.5-10.35-6.75l-.15-32.4c0-10.05 1.05-18.15 1.5-21.45l-3.15-1.5c-3 5.1-15.3 11.85-21.15 13.35v5.4l10.8-3.75c.6 3.9 1.05 25.2 1.05 39.75v.6c0 5.25-5.1 6.75-10.35 6.75v5.4Zm16.2-83.4c4.05 0 7.5-3.3 7.5-7.5 0-4.05-3.45-7.5-7.5-7.5-4.2 0-7.5 3.45-7.5 7.5 0 4.2 3.3 7.5 7.5 7.5ZM795.6 143.25h29.55v-5.4c-6.75 0-8.85-1.5-8.85-6.75-.15-41.7-6.15-55.35-20.55-55.35-10.05 0-19.2 7.2-25.5 14.7 0-6 .15-10.8.45-13.2l-3.15-1.5c-3.3 5.1-12.3 11.55-17.7 14.25v5.4l8.25-4.05c.9 1.8 1.2 17.25 1.2 30.9v8.85c-.45 5.25-4.2 6.75-9.45 6.75v5.4h29.7v-5.4c-6.6 0-8.85-1.5-9.3-6.9l-.15-16.05V98.7c6.15-6 13.35-10.05 19.5-10.05 10.8 0 15.3 10.95 15.3 40.95v1.65c0 5.1-1.95 6.6-9.3 6.6v5.4ZM871.2 143.25l3.3 1.5c3.3-5.1 12.15-11.55 17.55-14.25v-5.4l-9.9 5.55v-22.5c0-22.05-8.85-32.4-24.6-32.4-7.05 0-14.85 3.6-21.9 11.1l1.95 4.5c5.55-3.3 10.05-4.8 13.95-4.8 9.75 0 15 5.25 17.7 14.55l-37.8 16.2c-.75 3.3-1.05 7.05-1.05 9.75 0 8.85 4.8 17.7 16.65 17.7 6.45 0 17.7-9.15 24.45-16.05l-.3 14.55Zm-28.35-18.45c0-1.65.3-3.15 1.05-4.8l26.7-11.7c.6 4.2.9 9.15.9 14.4-6.6 5.85-14.7 9.45-20.7 9.45-4.65 0-7.95-2.25-7.95-7.35Z"/></g></svg>