<svg xmlns="http://www.w3.org/2000/svg" width="368" height="346"><path fill="#E7E6DF" fill-rule="nonzero" d="M0 346h152.435v-27.68c-33.874 0-45.422-7.689-47.732-35.369-.77-24.604-.77-53.053-.77-82.271v-88.422c34.644-30.756 76.988-46.134 114.711-46.134 56.201 0 103.164 33.832 103.164 102.263 0 60.742-42.344 129.942-119.331 149.933V346H368v-27.68c-29.255 0-60.05-2.307-74.678-6.151C345.674 261.422 368 201.449 368 147.627 368 50.747 305.64 0 234.812 0c-44.653 0-93.155 20.76-130.11 63.049 0-24.605.77-44.596 2.31-55.36L90.846 0C73.908 26.142 27.715 59.204 0 73.044v27.68l42.343-20.76c4.62 9.227 6.16 88.423 6.16 158.392v47.67C45.422 311.4 26.175 318.32 0 318.32V346Z" opacity=".501" style="mix-blend-mode:multiply"/></svg>