<svg xmlns="http://www.w3.org/2000/svg" width="367" height="149"><g fill="#E7E6DF" fill-rule="nonzero"><path d="M.601 14.328.475 15h3.654l.126-.672c-.651 0-1.092-.168-1.092-.483 0-.273.714-1.68 2.562-5.166h4.032c.315 2.52.567 4.62.567 4.809 0 .525-.525.84-1.029.84L9.169 15h3.822l.147-.672c-.525 0-.966-.168-1.071-1.008L10.618 2.19c-.021-.126-.021-.252-.021-.378 0-.084 0-.168.021-.231.084-.462.462-.714 1.26-.714l.126-.672H7.783l-.126.672c.693 0 .966.189.966.546 0 .273-.189.672-.441 1.134L2.155 13.194c-.504.882-1.008 1.134-1.554 1.134Zm5.712-6.762 2.688-4.998.63 4.998H6.313ZM20.971 15.21c.693 0 1.617-.462 2.436-1.197l-.504-.441c-.462.483-.798.672-1.008.672-.189 0-.273-.168-.273-.462 0-.882 2.142-11.151 2.856-13.167l-.399-.21c-.609.714-2.31 1.659-3.15 2.037l-.147.756 1.323-.441c-.294 1.995-2.142 10.227-2.142 11.277 0 .798.42 1.176 1.008 1.176ZM25.696 14.034c0 .798.42 1.176 1.008 1.176.693 0 1.617-.462 2.436-1.197l-.504-.441c-.462.483-.798.672-1.008.672-.189 0-.273-.168-.273-.462 0-1.89 1.092-6.216 1.701-8.022l-.42-.21c-.546.714-2.457 1.659-3.318 1.869l-.147.756 1.617-.525c-.147.546-1.092 4.305-1.092 6.384Zm3.423-10.689c.63 0 1.281-.546 1.281-1.239 0-.483-.378-.861-.882-.861-.672 0-1.26.609-1.26 1.281 0 .462.357.819.861.819ZM37.372 15.21c.693 0 1.617-.462 2.436-1.197l-.504-.441c-.462.483-.798.672-1.008.672-.189 0-.273-.168-.273-.462 0-.273.903-5.208.903-6.426 0-1.176-.441-1.806-1.302-1.806-1.47 0-2.919 1.995-4.074 4.662.441-1.974.903-3.906 1.071-4.452l-.42-.21c-.588.714-2.016 1.617-2.856 1.995l-.147.756 1.26-.567c-.252 2.667-.462 3.885-1.302 7.266h1.428c.924-3.381 2.667-7.707 3.948-7.707.525 0 .651.693.651 1.26 0 1.071-.819 4.725-.819 5.481 0 .798.42 1.176 1.008 1.176ZM44.344 15.21c.777 0 1.302-.273 2.331-.861l1.995-2.163-.357-.252c-1.722 1.848-2.793 1.974-3.213 1.974-1.386 0-2.205-1.092-2.373-2.583l6.258-1.848c0-1.911-.483-3.927-2.772-3.927-3.171 0-5.019 3.297-5.019 6.174 0 2.1 1.155 3.486 3.15 3.486Zm-1.659-4.767c.063-1.386.504-3.507 2.562-3.507 1.176 0 1.848.987 2.079 2.205l-4.641 1.302ZM55.579 11.535c0 2.226 1.365 3.675 2.961 3.675.714 0 1.47-.294 2.163-.945v.042c0 .588.546.903 1.05.903.693 0 1.617-.462 2.436-1.197l-.504-.441c-.462.483-.798.672-1.008.672-.189 0-.273-.168-.273-.462 0-2.058 2.184-11.277 2.751-13.167l-.399-.21c-.609.714-2.31 1.659-3.15 2.037l-.147.756 1.323-.441c-.168 1.533-.462 3.129-.777 4.662-.462-1.323-1.176-1.869-2.226-1.869-1.953 0-4.2 3.045-4.2 5.985Zm1.491-1.029c0-1.428.672-3.612 2.562-3.612 1.071 0 1.764.672 2.079 1.869-.42 1.974-.819 3.738-.966 4.872-.273.168-.63.273-1.092.273-1.407 0-2.583-1.26-2.583-3.402ZM65.89 15h1.638l.021-.147c.903-3.339 1.785-7.161 3.192-7.833.462 0 1.092.546 1.659 1.197.693-.273 1.197-.672 1.512-1.26-.735-1.05-1.386-1.407-2.709-1.407-1.176.42-1.995 1.995-2.73 4.2.357-1.785.693-3.465.861-3.99l-.399-.21c-.609.714-2.037 1.617-2.856 1.995l-.147.756 1.26-.567c0 .777-1.176 6.888-1.302 7.266ZM76.432 15.231c.861 0 1.869-.504 2.919-1.617l-.021.42c0 .798.42 1.176 1.008 1.176.693 0 1.617-.462 2.436-1.197l-.504-.441c-.462.483-.798.672-1.008.672-.189 0-.273-.168-.273-.462 0-1.071 1.407-7.098 1.932-8.022l-.273-.21h-.021c-4.578 0-8.484 2.331-8.484 6.3 0 2.1.945 3.381 2.289 3.381Zm-1.071-4.095c0-1.848 1.911-4.158 5.565-4.431-.336 1.701-1.134 4.158-1.47 6.027-.504.483-.945.63-1.848.63-1.449 0-2.247-1.008-2.247-2.226ZM86.743 15h.525a37.343 37.343 0 0 0 3.36-5.691L91.405 15h.252c2.919-1.89 5.166-4.515 5.166-7.434 0-1.197-.483-2.016-1.323-2.016-.714 0-1.638.504-2.751 1.827l.147.525c.63-.399 1.176-.567 1.596-.567.693 0 1.029.525 1.029 1.302 0 1.638-1.407 3.717-3.108 4.662-.399-2.268-.819-4.62-.84-6.153l.504-1.386h-.798c-.735 2.394-1.848 4.746-3.381 7.14-.378-1.89-.588-3.15-.588-4.179 0-1.134.252-1.953.777-2.961l-.399-.21c-.777.861-2.079 1.974-3.129 2.583l-.147.735 1.26-.651L86.743 15ZM97.894 15h1.638l.021-.147c.945-3.36 2.646-7.539 4.368-7.539 1.155 0 1.491 1.134 1.491 2.163 0 2.037-1.89 4.221-4.116 4.767l-.147.756h4.515l.147-.756c-.798 0-1.617-.063-1.995-.168 1.722-1.407 3.003-3.465 3.003-5.544 0-2.121-.819-2.961-2.058-2.961-1.68-.021-3.255 2.205-4.452 5.061.42-2.121.861-4.284 1.05-4.872l-.42-.21c-.588.714-2.016 1.617-2.856 1.995l-.147.756 1.26-.567c0 1.239-1.155 6.846-1.302 7.266ZM111.985 20.355c.672 0 3.003-1.302 4.389-4.074.063-.147.861-4.893 1.155-6.426.21-1.071.42-2.079.672-3.15h3.444l.189-.945h-3.402l.399-1.68c.294-1.197 1.155-2.163 2.268-2.163.609 0 1.029.504 1.491 1.155.588-.273 1.029-.672 1.323-1.26-.609-1.05-1.155-1.407-2.268-1.407-.672 0-2.877 1.281-4.284 4.074l-.294 1.281h-1.071l-.189.945h1.05c-.63 3.066-1.722 8.379-2.1 9.975-.294 1.218-1.134 2.163-2.226 2.163-.294 0-.63-.105-.861-.294-.588.273-1.029.672-1.323 1.26.42.399.903.546 1.638.546ZM121.792 15h1.638l.021-.147c.903-3.339 1.785-7.161 3.192-7.833.462 0 1.092.546 1.659 1.197.693-.273 1.197-.672 1.512-1.26-.735-1.05-1.386-1.407-2.709-1.407-1.176.42-1.995 1.995-2.73 4.2.357-1.785.693-3.465.861-3.99l-.399-.21c-.609.714-2.037 1.617-2.856 1.995l-.147.756 1.26-.567c0 .777-1.176 6.888-1.302 7.266ZM133.069 15.21c2.751 0 4.83-2.961 4.83-5.88 0-2.079-1.008-3.78-2.961-3.78-2.73 0-4.83 3.108-4.83 5.985 0 2.079 1.029 3.675 2.961 3.675Zm.945-1.302c-1.092 0-2.415-1.26-2.415-3.402 0-1.428.714-3.612 2.394-3.612 1.281 0 2.415 1.239 2.415 3.36 0 1.512-.588 3.654-2.394 3.654ZM139.264 15h1.638c.924-3.381 2.667-7.707 3.696-7.686.315.021.714.42.714 1.239 0 1.092-.378 3.024-1.071 6.447h1.617l.084-.378c.945-3.318 2.625-7.308 4.305-7.308 1.155 0 1.491 1.134 1.491 2.163 0 2.037-1.89 4.221-4.116 4.767l-.147.756h4.515l.147-.756c-.798 0-1.617-.063-1.995-.168 1.722-1.407 3.003-3.465 3.003-5.544 0-2.121-.819-2.961-2.058-2.961-1.617-.021-3.15 2.037-4.326 4.767.231-1.26.357-2.226.357-2.961 0-1.323-.42-1.827-1.323-1.827-1.428 0-2.94 2.205-4.095 5.082.399-2.1.861-4.284 1.029-4.872l-.42-.21c-.588.714-2.016 1.617-2.856 1.995l-.147.756 1.26-.567c0 1.281-1.113 6.72-1.302 7.266ZM162.385 15.21c1.302 0 2.73-1.176 3.276-1.743l-.357-.525c-.84.63-1.554.903-2.1.903-.819 0-1.365-.588-1.365-1.386 0-.819.777-4.347 1.113-5.754h2.793l.189-.945h-2.772c.189-.924.378-1.743.63-2.331l-.483-.168c-.672 1.05-1.512 2.289-2.793 2.499l-.189.945h1.113c-.357 1.512-1.26 5.649-1.26 6.636 0 1.239.609 1.869 2.205 1.869ZM167.11 15h1.701c.924-3.381 2.667-7.686 4.41-7.686 1.155 0 1.491 1.134 1.491 2.163 0 2.037-1.89 4.221-4.116 4.767l-.147.756h4.515l.147-.756c-.798 0-1.617-.063-1.995-.168 1.722-1.407 3.003-3.465 3.003-5.544 0-2.121-.819-2.961-2.058-2.961-1.743-.021-3.36 2.331-4.557 5.334.756-3.822 1.869-8.988 2.31-10.29l-.399-.21c-.609.714-2.31 1.659-3.15 2.037l-.147.756 1.323-.441c-.483 3.171-1.638 9.261-2.331 12.243ZM180.697 15.21c.777 0 1.302-.273 2.331-.861l1.995-2.163-.357-.252c-1.722 1.848-2.793 1.974-3.213 1.974-1.386 0-2.205-1.092-2.373-2.583l6.258-1.848c0-1.911-.483-3.927-2.772-3.927-3.171 0-5.019 3.297-5.019 6.174 0 2.1 1.155 3.486 3.15 3.486Zm-1.659-4.767c.063-1.386.504-3.507 2.562-3.507 1.176 0 1.848.987 2.079 2.205l-4.641 1.302ZM190.315 19.389l-.147.756h4.158l.147-.756c-.672 0-1.176-.168-1.176-.756 0-.063 0-.147.021-.21.252-1.785.567-3.843.924-5.838.378 1.848 1.218 2.583 2.163 2.583 1.932 0 4.389-3.129 4.389-6.132 0-2.352-1.281-3.486-2.73-3.486-.882 0-1.827.42-2.583 1.239l.294-1.029-.399-.21c-.609.714-2.016 1.617-2.835 1.995l-.168.777 1.26-.588c-.105 1.806-1.218 7.518-1.89 10.71-.231.735-.693.945-1.428.945Zm4.263-8.547c.21-1.029.42-2.037.63-2.94.399-.63.966-1.029 1.722-1.029 1.155 0 2.436 1.176 2.436 3.234 0 1.281-.567 3.801-2.415 3.801-1.155 0-2.163-1.05-2.373-3.066ZM203.125 15.21c.693 0 1.617-.462 2.436-1.197l-.504-.441c-.462.483-.798.672-1.008.672-.189 0-.273-.168-.273-.462 0-.882 2.142-11.151 2.856-13.167l-.399-.21c-.609.714-2.31 1.659-3.15 2.037l-.147.756 1.323-.441c-.294 1.995-2.142 10.227-2.142 11.277 0 .798.42 1.176 1.008 1.176ZM209.404 15.231c.861 0 1.869-.504 2.919-1.617l-.021.42c0 .798.42 1.176 1.008 1.176.693 0 1.617-.462 2.436-1.197l-.504-.441c-.462.483-.798.672-1.008.672-.189 0-.273-.168-.273-.462 0-1.071 1.407-7.098 1.932-8.022l-.273-.21h-.021c-4.578 0-8.484 2.331-8.484 6.3 0 2.1.945 3.381 2.289 3.381Zm-1.071-4.095c0-1.848 1.911-4.158 5.565-4.431-.336 1.701-1.134 4.158-1.47 6.027-.504.483-.945.63-1.848.63-1.449 0-2.247-1.008-2.247-2.226ZM220.345 15.21c.777 0 1.386-.168 2.478-.861l1.995-2.163-.357-.252c-1.722 1.848-2.94 1.974-3.549 1.974-1.344 0-2.037-1.617-2.037-3.486 0-2.058.546-3.465 2.31-3.465.861 0 1.722.567 2.457 1.575.693-.189 1.239-.525 1.638-1.071-.672-1.05-1.764-1.911-2.982-1.911-2.52 0-4.914 2.688-4.914 5.943 0 2.247 1.05 3.717 2.961 3.717ZM228.703 15.21c.777 0 1.302-.273 2.331-.861l1.995-2.163-.357-.252c-1.722 1.848-2.793 1.974-3.213 1.974-1.386 0-2.205-1.092-2.373-2.583l6.258-1.848c0-1.911-.483-3.927-2.772-3.927-3.171 0-5.019 3.297-5.019 6.174 0 2.1 1.155 3.486 3.15 3.486Zm-1.659-4.767c.063-1.386.504-3.507 2.562-3.507 1.176 0 1.848.987 2.079 2.205l-4.641 1.302ZM242.29 15h.525a37.343 37.343 0 0 0 3.36-5.691l.777 5.691h.252c2.919-1.89 5.166-4.515 5.166-7.434 0-1.197-.483-2.016-1.323-2.016-.714 0-1.638.504-2.751 1.827l.147.525c.63-.399 1.176-.567 1.596-.567.693 0 1.029.525 1.029 1.302 0 1.638-1.407 3.717-3.108 4.662-.399-2.268-.819-4.62-.84-6.153l.504-1.386h-.798c-.735 2.394-1.848 4.746-3.381 7.14-.378-1.89-.588-3.15-.588-4.179 0-1.134.252-1.953.777-2.961l-.399-.21c-.777.861-2.079 1.974-3.129 2.583l-.147.735 1.26-.651L242.29 15ZM253.273 15h1.701c.924-3.381 2.667-7.686 4.41-7.686 1.155 0 1.491 1.134 1.491 2.163 0 2.037-1.89 4.221-4.116 4.767l-.147.756h4.515l.147-.756c-.798 0-1.617-.063-1.995-.168 1.722-1.407 3.003-3.465 3.003-5.544 0-2.121-.819-2.961-2.058-2.961-1.743-.021-3.36 2.331-4.557 5.334.756-3.822 1.869-8.988 2.31-10.29l-.399-.21c-.609.714-2.31 1.659-3.15 2.037l-.147.756 1.323-.441c-.483 3.171-1.638 9.261-2.331 12.243ZM266.86 15.21c.777 0 1.302-.273 2.331-.861l1.995-2.163-.357-.252c-1.722 1.848-2.793 1.974-3.213 1.974-1.386 0-2.205-1.092-2.373-2.583l6.258-1.848c0-1.911-.483-3.927-2.772-3.927-3.171 0-5.019 3.297-5.019 6.174 0 2.1 1.155 3.486 3.15 3.486Zm-1.659-4.767c.063-1.386.504-3.507 2.562-3.507 1.176 0 1.848.987 2.079 2.205l-4.641 1.302ZM272.929 15h1.638l.021-.147c.903-3.339 1.785-7.161 3.192-7.833.462 0 1.092.546 1.659 1.197.693-.273 1.197-.672 1.512-1.26-.735-1.05-1.386-1.407-2.709-1.407-1.176.42-1.995 1.995-2.73 4.2.357-1.785.693-3.465.861-3.99l-.399-.21c-.609.714-2.037 1.617-2.856 1.995l-.147.756 1.26-.567c0 .777-1.176 6.888-1.302 7.266ZM284.374 15.21c.777 0 1.302-.273 2.331-.861l1.995-2.163-.357-.252c-1.722 1.848-2.793 1.974-3.213 1.974-1.386 0-2.205-1.092-2.373-2.583l6.258-1.848c0-1.911-.483-3.927-2.772-3.927-3.171 0-5.019 3.297-5.019 6.174 0 2.1 1.155 3.486 3.15 3.486Zm-1.659-4.767c.063-1.386.504-3.507 2.562-3.507 1.176 0 1.848.987 2.079 2.205l-4.641 1.302ZM297.961 15h.525a37.343 37.343 0 0 0 3.36-5.691l.777 5.691h.252c2.919-1.89 5.166-4.515 5.166-7.434 0-1.197-.483-2.016-1.323-2.016-.714 0-1.638.504-2.751 1.827l.147.525c.63-.399 1.176-.567 1.596-.567.693 0 1.029.525 1.029 1.302 0 1.638-1.407 3.717-3.108 4.662-.399-2.268-.819-4.62-.84-6.153l.504-1.386h-.798c-.735 2.394-1.848 4.746-3.381 7.14-.378-1.89-.588-3.15-.588-4.179 0-1.134.252-1.953.777-2.961l-.399-.21c-.777.861-2.079 1.974-3.129 2.583l-.147.735 1.26-.651L297.961 15ZM312.157 15.21c.777 0 1.302-.273 2.331-.861l1.995-2.163-.357-.252c-1.722 1.848-2.793 1.974-3.213 1.974-1.386 0-2.205-1.092-2.373-2.583l6.258-1.848c0-1.911-.483-3.927-2.772-3.927-3.171 0-5.019 3.297-5.019 6.174 0 2.1 1.155 3.486 3.15 3.486Zm-1.659-4.767c.063-1.386.504-3.507 2.562-3.507 1.176 0 1.848.987 2.079 2.205l-4.641 1.302ZM325.618 15.231c.861 0 1.869-.504 2.919-1.617l-.021.42c0 .798.42 1.176 1.008 1.176.693 0 1.617-.462 2.436-1.197l-.504-.441c-.462.483-.798.672-1.008.672-.189 0-.273-.168-.273-.462 0-1.071 1.407-7.098 1.932-8.022l-.273-.21h-.021c-4.578 0-8.484 2.331-8.484 6.3 0 2.1.945 3.381 2.289 3.381Zm-1.071-4.095c0-1.848 1.911-4.158 5.565-4.431-.336 1.701-1.134 4.158-1.47 6.027-.504.483-.945.63-1.848.63-1.449 0-2.247-1.008-2.247-2.226ZM333.661 15h1.638l.021-.147c.903-3.339 1.785-7.161 3.192-7.833.462 0 1.092.546 1.659 1.197.693-.273 1.197-.672 1.512-1.26-.735-1.05-1.386-1.407-2.709-1.407-1.176.42-1.995 1.995-2.73 4.2.357-1.785.693-3.465.861-3.99l-.399-.21c-.609.714-2.037 1.617-2.856 1.995l-.147.756 1.26-.567c0 .777-1.176 6.888-1.302 7.266ZM345.106 15.21c.777 0 1.302-.273 2.331-.861l1.995-2.163-.357-.252c-1.722 1.848-2.793 1.974-3.213 1.974-1.386 0-2.205-1.092-2.373-2.583l6.258-1.848c0-1.911-.483-3.927-2.772-3.927-3.171 0-5.019 3.297-5.019 6.174 0 2.1 1.155 3.486 3.15 3.486Zm-1.659-4.767c.063-1.386.504-3.507 2.562-3.507 1.176 0 1.848.987 2.079 2.205l-4.641 1.302ZM4.171 47.21c1.302 0 2.73-1.176 3.276-1.743l-.357-.525c-.84.63-1.554.903-2.1.903-.819 0-1.365-.588-1.365-1.386 0-.819.777-4.347 1.113-5.754h2.793l.189-.945H4.948c.189-.924.378-1.743.63-2.331l-.483-.168c-.672 1.05-1.512 2.289-2.793 2.499l-.189.945h1.113c-.357 1.512-1.26 5.649-1.26 6.636 0 1.239.609 1.869 2.205 1.869ZM8.896 47h1.701c.924-3.381 2.667-7.686 4.41-7.686 1.155 0 1.491 1.134 1.491 2.163 0 2.037-1.89 4.221-4.116 4.767l-.147.756h4.515l.147-.756c-.798 0-1.617-.063-1.995-.168 1.722-1.407 3.003-3.465 3.003-5.544 0-2.121-.819-2.961-2.058-2.961-1.743-.021-3.36 2.331-4.557 5.334.756-3.822 1.869-8.988 2.31-10.29l-.399-.21c-.609.714-2.31 1.659-3.15 2.037l-.147.756 1.323-.441C10.744 37.928 9.589 44.018 8.896 47ZM19.438 47h1.638l.021-.147c.903-3.339 1.785-7.161 3.192-7.833.462 0 1.092.546 1.659 1.197.693-.273 1.197-.672 1.512-1.26-.735-1.05-1.386-1.407-2.709-1.407-1.176.42-1.995 1.995-2.73 4.2.357-1.785.693-3.465.861-3.99l-.399-.21c-.609.714-2.037 1.617-2.856 1.995l-.147.756 1.26-.567c0 .777-1.176 6.888-1.302 7.266ZM30.715 47.21c2.751 0 4.83-2.961 4.83-5.88 0-2.079-1.008-3.78-2.961-3.78-2.73 0-4.83 3.108-4.83 5.985 0 2.079 1.029 3.675 2.961 3.675Zm.945-1.302c-1.092 0-2.415-1.26-2.415-3.402 0-1.428.714-3.612 2.394-3.612 1.281 0 2.415 1.239 2.415 3.36 0 1.512-.588 3.654-2.394 3.654ZM39.094 47.21c1.008 0 2.247-1.827 3.297-4.326-.315 1.512-.588 2.814-.588 3.15 0 .798.42 1.176 1.008 1.176.693 0 1.617-.462 2.436-1.197l-.504-.441c-.462.483-.798.672-1.008.672-.189 0-.273-.168-.273-.462 0-.987 1.239-6.552 1.743-8.022h-1.722c-.924 3.381-2.646 7.896-3.717 7.896-.42 0-.672-.777-.672-1.827 0-1.722.756-4.683 1.239-6.069l-.819-.21c-.567.693-1.47 1.407-2.289 1.785l-.147.756 1.197-.672c-.441 1.386-.861 3.465-.861 4.956 0 1.554.42 2.835 1.68 2.835ZM49.699 52.376c2.1 0 3.066-1.596 3.948-6.195.504-2.625 1.554-7.182 1.953-8.421l-.294-.21c-.21.462-.63.945-1.071 1.365-.273-.819-.924-1.365-2.268-1.365-2.961 0-4.851 3.255-4.851 6.069 0 1.995.987 3.591 2.982 3.591.987 0 1.785-.462 2.394-1.134-.693 3.465-1.365 5.271-2.457 5.271-1.176 0-2.94-.672-2.94-2.142 0-.336.126-.672.294-1.008l-.525-.315c-.525.567-1.071 1.26-1.071 2.079 0 1.512 1.953 2.415 3.906 2.415ZM48.67 42.317c0-1.722.756-3.423 2.352-3.423 1.365 0 2.037 1.05 2.331 2.226l-.651 3.864c-.357.546-.861.924-1.659.924-1.554 0-2.373-1.806-2.373-3.591ZM55.831 47h1.701c.924-3.381 2.667-7.686 4.41-7.686 1.155 0 1.491 1.134 1.491 2.163 0 2.037-1.89 4.221-4.116 4.767L59.17 47h4.515l.147-.756c-.798 0-1.617-.063-1.995-.168 1.722-1.407 3.003-3.465 3.003-5.544 0-2.121-.819-2.961-2.058-2.961-1.743-.021-3.36 2.331-4.557 5.334.756-3.822 1.869-8.988 2.31-10.29l-.399-.21c-.609.714-2.31 1.659-3.15 2.037l-.147.756 1.323-.441c-.483 3.171-1.638 9.261-2.331 12.243ZM74.08 47.21c1.302 0 2.73-1.176 3.276-1.743l-.357-.525c-.84.63-1.554.903-2.1.903-.819 0-1.365-.588-1.365-1.386 0-.819.777-4.347 1.113-5.754h2.793l.189-.945h-2.772c.189-.924.378-1.743.63-2.331l-.483-.168c-.672 1.05-1.512 2.289-2.793 2.499l-.189.945h1.113c-.357 1.512-1.26 5.649-1.26 6.636 0 1.239.609 1.869 2.205 1.869ZM78.805 47h1.701c.924-3.381 2.667-7.686 4.41-7.686 1.155 0 1.491 1.134 1.491 2.163 0 2.037-1.89 4.221-4.116 4.767l-.147.756h4.515l.147-.756c-.798 0-1.617-.063-1.995-.168 1.722-1.407 3.003-3.465 3.003-5.544 0-2.121-.819-2.961-2.058-2.961-1.743-.021-3.36 2.331-4.557 5.334.756-3.822 1.869-8.988 2.31-10.29l-.399-.21c-.609.714-2.31 1.659-3.15 2.037l-.147.756 1.323-.441c-.483 3.171-1.638 9.261-2.331 12.243ZM92.392 47.21c.777 0 1.302-.273 2.331-.861l1.995-2.163-.357-.252c-1.722 1.848-2.793 1.974-3.213 1.974-1.386 0-2.205-1.092-2.373-2.583l6.258-1.848c0-1.911-.483-3.927-2.772-3.927-3.171 0-5.019 3.297-5.019 6.174 0 2.1 1.155 3.486 3.15 3.486Zm-1.659-4.767c.063-1.386.504-3.507 2.562-3.507 1.176 0 1.848.987 2.079 2.205l-4.641 1.302ZM106.168 47.21c1.302 0 2.73-1.176 3.276-1.743l-.357-.525c-.84.63-1.554.903-2.1.903-.819 0-1.365-.588-1.365-1.386 0-.819.777-4.347 1.113-5.754h2.793l.189-.945h-2.772c.189-.924.378-1.743.63-2.331l-.483-.168c-.672 1.05-1.512 2.289-2.793 2.499l-.189.945h1.113c-.357 1.512-1.26 5.649-1.26 6.636 0 1.239.609 1.869 2.205 1.869ZM110.893 47h1.701c.924-3.381 2.667-7.686 4.41-7.686 1.155 0 1.491 1.134 1.491 2.163 0 2.037-1.89 4.221-4.116 4.767l-.147.756h4.515l.147-.756c-.798 0-1.617-.063-1.995-.168 1.722-1.407 3.003-3.465 3.003-5.544 0-2.121-.819-2.961-2.058-2.961-1.743-.021-3.36 2.331-4.557 5.334.756-3.822 1.869-8.988 2.31-10.29l-.399-.21c-.609.714-2.31 1.659-3.15 2.037l-.147.756 1.323-.441c-.483 3.171-1.638 9.261-2.331 12.243ZM122.023 46.034c0 .798.42 1.176 1.008 1.176.693 0 1.617-.462 2.436-1.197l-.504-.441c-.462.483-.798.672-1.008.672-.189 0-.273-.168-.273-.462 0-1.89 1.092-6.216 1.701-8.022l-.42-.21c-.546.714-2.457 1.659-3.318 1.869l-.147.756 1.617-.525c-.147.546-1.092 4.305-1.092 6.384Zm3.423-10.689c.63 0 1.281-.546 1.281-1.239 0-.483-.378-.861-.882-.861-.672 0-1.26.609-1.26 1.281 0 .462.357.819.861.819ZM127.483 47h1.638l.021-.147c.903-3.339 1.785-7.161 3.192-7.833.462 0 1.092.546 1.659 1.197.693-.273 1.197-.672 1.512-1.26-.735-1.05-1.386-1.407-2.709-1.407-1.176.42-1.995 1.995-2.73 4.2.357-1.785.693-3.465.861-3.99l-.399-.21c-.609.714-2.037 1.617-2.856 1.995l-.147.756 1.26-.567c0 .777-1.176 6.888-1.302 7.266ZM135.799 43.535c0 2.226 1.365 3.675 2.961 3.675.714 0 1.47-.294 2.163-.945v.042c0 .588.546.903 1.05.903.693 0 1.617-.462 2.436-1.197l-.504-.441c-.462.483-.798.672-1.008.672-.189 0-.273-.168-.273-.462 0-2.058 2.184-11.277 2.751-13.167l-.399-.21c-.609.714-2.31 1.659-3.15 2.037l-.147.756 1.323-.441c-.168 1.533-.462 3.129-.777 4.662-.462-1.323-1.176-1.869-2.226-1.869-1.953 0-4.2 3.045-4.2 5.985Zm1.491-1.029c0-1.428.672-3.612 2.562-3.612 1.071 0 1.764.672 2.079 1.869-.42 1.974-.819 3.738-.966 4.872-.273.168-.63.273-1.092.273-1.407 0-2.583-1.26-2.583-3.402ZM154.594 47.21c3.255 0 5.061-3.801 5.061-6.636 0-1.596-.672-3.024-2.184-3.024-.945 0-2.037.756-3.129 1.827l.21.525c.609-.378 1.218-.546 1.764-.546 1.239 0 2.142.945 2.142 2.394 0 1.659-.924 4.095-2.982 4.095-1.155 0-2.205-.672-2.499-1.827.525-2.751 1.512-7.833 2.94-11.403l-.483-.21c-.924.819-2.541 1.974-3.801 2.541l-.147.756 1.827-.798c-.168 1.26-1.575 8.295-2.394 10.668 1.155 1.071 2.436 1.638 3.675 1.638ZM163.792 47.21c2.751 0 4.83-2.961 4.83-5.88 0-2.079-1.008-3.78-2.961-3.78-2.73 0-4.83 3.108-4.83 5.985 0 2.079 1.029 3.675 2.961 3.675Zm.945-1.302c-1.092 0-2.415-1.26-2.415-3.402 0-1.428.714-3.612 2.394-3.612 1.281 0 2.415 1.239 2.415 3.36 0 1.512-.588 3.654-2.394 3.654ZM169.903 43.535c0 2.226 1.365 3.675 2.961 3.675.714 0 1.47-.294 2.163-.945v.042c0 .588.546.903 1.05.903.693 0 1.617-.462 2.436-1.197l-.504-.441c-.462.483-.798.672-1.008.672-.189 0-.273-.168-.273-.462 0-2.058 2.184-11.277 2.751-13.167l-.399-.21c-.609.714-2.31 1.659-3.15 2.037l-.147.756 1.323-.441c-.168 1.533-.462 3.129-.777 4.662-.462-1.323-1.176-1.869-2.226-1.869-1.953 0-4.2 3.045-4.2 5.985Zm1.491-1.029c0-1.428.672-3.612 2.562-3.612 1.071 0 1.764.672 2.079 1.869-.42 1.974-.819 3.738-.966 4.872-.273.168-.63.273-1.092.273-1.407 0-2.583-1.26-2.583-3.402ZM178.975 52.145h1.722c1.617-2.604 4.158-8.484 7.917-14.385h-1.722l-3.003 6.993c-.882-3.696-1.218-6.405-1.218-6.993l-.42-.21a10.396 10.396 0 0 1-2.163 1.995l-.168.903 1.218-.882 1.848 5.733-4.011 6.846ZM196.825 47.21c2.751 0 4.83-2.961 4.83-5.88 0-2.079-1.008-3.78-2.961-3.78-2.73 0-4.83 3.108-4.83 5.985 0 2.079 1.029 3.675 2.961 3.675Zm.945-1.302c-1.092 0-2.415-1.26-2.415-3.402 0-1.428.714-3.612 2.394-3.612 1.281 0 2.415 1.239 2.415 3.36 0 1.512-.588 3.654-2.394 3.654ZM201.403 52.355c.672 0 3.003-1.302 4.389-4.074.063-.147.861-4.893 1.155-6.426.21-1.071.42-2.079.672-3.15h3.444l.189-.945h-3.402l.399-1.68c.294-1.197 1.155-2.163 2.268-2.163.609 0 1.029.504 1.491 1.155.588-.273 1.029-.672 1.323-1.26-.609-1.05-1.155-1.407-2.268-1.407-.672 0-2.877 1.281-4.284 4.074l-.294 1.281h-1.071l-.189.945h1.05c-.63 3.066-1.722 8.379-2.1 9.975-.294 1.218-1.134 2.163-2.226 2.163-.294 0-.63-.105-.861-.294-.588.273-1.029.672-1.323 1.26.42.399.903.546 1.638.546ZM218.917 47.21c1.302 0 2.73-1.176 3.276-1.743l-.357-.525c-.84.63-1.554.903-2.1.903-.819 0-1.365-.588-1.365-1.386 0-.819.777-4.347 1.113-5.754h2.793l.189-.945h-2.772c.189-.924.378-1.743.63-2.331l-.483-.168c-.672 1.05-1.512 2.289-2.793 2.499l-.189.945h1.113c-.357 1.512-1.26 5.649-1.26 6.636 0 1.239.609 1.869 2.205 1.869ZM223.642 47h1.701c.924-3.381 2.667-7.686 4.41-7.686 1.155 0 1.491 1.134 1.491 2.163 0 2.037-1.89 4.221-4.116 4.767l-.147.756h4.515l.147-.756c-.798 0-1.617-.063-1.995-.168 1.722-1.407 3.003-3.465 3.003-5.544 0-2.121-.819-2.961-2.058-2.961-1.743-.021-3.36 2.331-4.557 5.334.756-3.822 1.869-8.988 2.31-10.29l-.399-.21c-.609.714-2.31 1.659-3.15 2.037l-.147.756 1.323-.441c-.483 3.171-1.638 9.261-2.331 12.243ZM237.229 47.21c.777 0 1.302-.273 2.331-.861l1.995-2.163-.357-.252c-1.722 1.848-2.793 1.974-3.213 1.974-1.386 0-2.205-1.092-2.373-2.583l6.258-1.848c0-1.911-.483-3.927-2.772-3.927-3.171 0-5.019 3.297-5.019 6.174 0 2.1 1.155 3.486 3.15 3.486Zm-1.659-4.767c.063-1.386.504-3.507 2.562-3.507 1.176 0 1.848.987 2.079 2.205l-4.641 1.302ZM246.847 51.389l-.147.756h4.158l.147-.756c-.672 0-1.176-.168-1.176-.756 0-.063 0-.147.021-.21.252-1.785.567-3.843.924-5.838.378 1.848 1.218 2.583 2.163 2.583 1.932 0 4.389-3.129 4.389-6.132 0-2.352-1.281-3.486-2.73-3.486-.882 0-1.827.42-2.583 1.239l.294-1.029-.399-.21c-.609.714-2.016 1.617-2.835 1.995l-.168.777 1.26-.588c-.105 1.806-1.218 7.518-1.89 10.71-.231.735-.693.945-1.428.945Zm4.263-8.547c.21-1.029.42-2.037.63-2.94.399-.63.966-1.029 1.722-1.029 1.155 0 2.436 1.176 2.436 3.234 0 1.281-.567 3.801-2.415 3.801-1.155 0-2.163-1.05-2.373-3.066ZM259.657 47.21c.693 0 1.617-.462 2.436-1.197l-.504-.441c-.462.483-.798.672-1.008.672-.189 0-.273-.168-.273-.462 0-.882 2.142-11.151 2.856-13.167l-.399-.21c-.609.714-2.31 1.659-3.15 2.037l-.147.756 1.323-.441c-.294 1.995-2.142 10.227-2.142 11.277 0 .798.42 1.176 1.008 1.176ZM265.936 47.231c.861 0 1.869-.504 2.919-1.617l-.021.42c0 .798.42 1.176 1.008 1.176.693 0 1.617-.462 2.436-1.197l-.504-.441c-.462.483-.798.672-1.008.672-.189 0-.273-.168-.273-.462 0-1.071 1.407-7.098 1.932-8.022l-.273-.21h-.021c-4.578 0-8.484 2.331-8.484 6.3 0 2.1.945 3.381 2.289 3.381Zm-1.071-4.095c0-1.848 1.911-4.158 5.565-4.431-.336 1.701-1.134 4.158-1.47 6.027-.504.483-.945.63-1.848.63-1.449 0-2.247-1.008-2.247-2.226ZM280.195 47.21c.693 0 1.617-.462 2.436-1.197l-.504-.441c-.462.483-.798.672-1.008.672-.189 0-.273-.168-.273-.462 0-.273.903-5.208.903-6.426 0-1.176-.441-1.806-1.302-1.806-1.47 0-2.919 1.995-4.074 4.662.441-1.974.903-3.906 1.071-4.452l-.42-.21c-.588.714-2.016 1.617-2.856 1.995l-.147.756 1.26-.567c-.252 2.667-.462 3.885-1.302 7.266h1.428c.924-3.381 2.667-7.707 3.948-7.707.525 0 .651.693.651 1.26 0 1.071-.819 4.725-.819 5.481 0 .798.42 1.176 1.008 1.176ZM287.167 47.21c.777 0 1.302-.273 2.331-.861l1.995-2.163-.357-.252c-1.722 1.848-2.793 1.974-3.213 1.974-1.386 0-2.205-1.092-2.373-2.583l6.258-1.848c0-1.911-.483-3.927-2.772-3.927-3.171 0-5.019 3.297-5.019 6.174 0 2.1 1.155 3.486 3.15 3.486Zm-1.659-4.767c.063-1.386.504-3.507 2.562-3.507 1.176 0 1.848.987 2.079 2.205l-4.641 1.302ZM295.693 47.21c1.302 0 2.73-1.176 3.276-1.743l-.357-.525c-.84.63-1.554.903-2.1.903-.819 0-1.365-.588-1.365-1.386 0-.819.777-4.347 1.113-5.754h2.793l.189-.945h-2.772c.189-.924.378-1.743.63-2.331l-.483-.168c-.672 1.05-1.512 2.289-2.793 2.499l-.189.945h1.113c-.357 1.512-1.26 5.649-1.26 6.636 0 1.239.609 1.869 2.205 1.869ZM308.293 47.21c1.302 0 2.73-1.176 3.276-1.743l-.357-.525c-.84.63-1.554.903-2.1.903-.819 0-1.365-.588-1.365-1.386 0-.819.777-4.347 1.113-5.754h2.793l.189-.945h-2.772c.189-.924.378-1.743.63-2.331l-.483-.168c-.672 1.05-1.512 2.289-2.793 2.499l-.189.945h1.113c-.357 1.512-1.26 5.649-1.26 6.636 0 1.239.609 1.869 2.205 1.869ZM316.063 47.21c2.751 0 4.83-2.961 4.83-5.88 0-2.079-1.008-3.78-2.961-3.78-2.73 0-4.83 3.108-4.83 5.985 0 2.079 1.029 3.675 2.961 3.675Zm.945-1.302c-1.092 0-2.415-1.26-2.415-3.402 0-1.428.714-3.612 2.394-3.612 1.281 0 2.415 1.239 2.415 3.36 0 1.512-.588 3.654-2.394 3.654ZM329.965 47.21c1.302 0 2.73-1.176 3.276-1.743l-.357-.525c-.84.63-1.554.903-2.1.903-.819 0-1.365-.588-1.365-1.386 0-.819.777-4.347 1.113-5.754h2.793l.189-.945h-2.772c.189-.924.378-1.743.63-2.331l-.483-.168c-.672 1.05-1.512 2.289-2.793 2.499l-.189.945h1.113c-.357 1.512-1.26 5.649-1.26 6.636 0 1.239.609 1.869 2.205 1.869ZM334.69 47h1.701c.924-3.381 2.667-7.686 4.41-7.686 1.155 0 1.491 1.134 1.491 2.163 0 2.037-1.89 4.221-4.116 4.767l-.147.756h4.515l.147-.756c-.798 0-1.617-.063-1.995-.168 1.722-1.407 3.003-3.465 3.003-5.544 0-2.121-.819-2.961-2.058-2.961-1.743-.021-3.36 2.331-4.557 5.334.756-3.822 1.869-8.988 2.31-10.29l-.399-.21c-.609.714-2.31 1.659-3.15 2.037l-.147.756 1.323-.441c-.483 3.171-1.638 9.261-2.331 12.243ZM348.277 47.21c.777 0 1.302-.273 2.331-.861l1.995-2.163-.357-.252c-1.722 1.848-2.793 1.974-3.213 1.974-1.386 0-2.205-1.092-2.373-2.583l6.258-1.848c0-1.911-.483-3.927-2.772-3.927-3.171 0-5.019 3.297-5.019 6.174 0 2.1 1.155 3.486 3.15 3.486Zm-1.659-4.767c.063-1.386.504-3.507 2.562-3.507 1.176 0 1.848.987 2.079 2.205l-4.641 1.302ZM3.73 79.21c1.995 0 3.36-1.596 3.36-3.192 0-.987-.756-1.449-1.533-1.911-.777-.462-1.554-.945-1.554-1.974 0-.735.42-1.638 1.491-1.638.546 0 1.092.294 1.386.903l-.168.84h.651l.315-1.638c-.735-.63-1.407-1.05-2.268-1.05-1.785 0-2.94 1.596-2.94 3.297 0 1.365.945 1.953 1.806 2.457.672.399 1.281.777 1.281 1.47 0 .651-.441 1.47-1.596 1.47-.714 0-1.491-.336-1.932-.882l.168-.84h-.651l-.294 1.575c.588.714 1.533 1.113 2.478 1.113ZM8.371 79H9.82c.063-.798.588-3.633 1.176-6.594.63-.651 1.344-1.113 1.995-1.113.63 0 1.218.609 1.218 1.344 0 .756-.651 1.638-2.52 2.058.378 2.268.756 4.515 2.247 4.515.651 0 1.407-.357 2.289-1.197l-.504-.441c-.357.336-.714.483-1.029.483-.903 0-1.617-1.344-1.953-2.898 2.058-.525 3.192-2.478 3.192-3.927 0-.945-.462-1.68-1.491-1.68-.861 0-2.079.693-3.234 1.89.609-2.919 1.26-5.796 1.596-6.825l-.336-.21c-.546.714-2.016 1.659-2.751 2.037l-.147.756 1.155-.441a225.415 225.415 0 0 1-1.302 7.245A164.835 164.835 0 0 1 8.371 79ZM16.267 84.145h1.722c1.617-2.604 4.158-8.484 7.917-14.385h-1.722l-3.003 6.993c-.882-3.696-1.218-6.405-1.218-6.993l-.42-.21a10.396 10.396 0 0 1-2.163 1.995l-.168.903 1.218-.882 1.848 5.733-4.011 6.846ZM33.697 79.21c1.302 0 2.73-1.176 3.276-1.743l-.357-.525c-.84.63-1.554.903-2.1.903-.819 0-1.365-.588-1.365-1.386 0-.819.777-4.347 1.113-5.754h2.793l.189-.945h-2.772c.189-.924.378-1.743.63-2.331l-.483-.168c-.672 1.05-1.512 2.289-2.793 2.499l-.189.945h1.113c-.357 1.512-1.26 5.649-1.26 6.636 0 1.239.609 1.869 2.205 1.869ZM41.635 79.21c.777 0 1.302-.273 2.331-.861l1.995-2.163-.357-.252c-1.722 1.848-2.793 1.974-3.213 1.974-1.386 0-2.205-1.092-2.373-2.583l6.258-1.848c0-1.911-.483-3.927-2.772-3.927-3.171 0-5.019 3.297-5.019 6.174 0 2.1 1.155 3.486 3.15 3.486Zm-1.659-4.767c.063-1.386.504-3.507 2.562-3.507 1.176 0 1.848.987 2.079 2.205l-4.641 1.302ZM48.733 79.21c.693 0 1.617-.462 2.436-1.197l-.504-.441c-.462.483-.798.672-1.008.672-.189 0-.273-.168-.273-.462 0-.882 2.142-11.151 2.856-13.167l-.399-.21c-.609.714-2.31 1.659-3.15 2.037l-.147.756 1.323-.441c-.294 1.995-2.142 10.227-2.142 11.277 0 .798.42 1.176 1.008 1.176ZM53.899 79.21c.693 0 1.617-.462 2.436-1.197l-.504-.441c-.462.483-.798.672-1.008.672-.189 0-.273-.168-.273-.462 0-.882 2.142-11.151 2.856-13.167l-.399-.21c-.609.714-2.31 1.659-3.15 2.037l-.147.756 1.323-.441c-.294 1.995-2.142 10.227-2.142 11.277 0 .798.42 1.176 1.008 1.176ZM60.052 79.21c1.995 0 3.36-1.596 3.36-3.192 0-.987-.756-1.449-1.533-1.911-.777-.462-1.554-.945-1.554-1.974 0-.735.42-1.638 1.491-1.638.546 0 1.092.294 1.386.903l-.168.84h.651L64 70.6c-.735-.63-1.407-1.05-2.268-1.05-1.785 0-2.94 1.596-2.94 3.297 0 1.365.945 1.953 1.806 2.457.672.399 1.281.777 1.281 1.47 0 .651-.441 1.47-1.596 1.47-.714 0-1.491-.336-1.932-.882l.168-.84h-.651l-.294 1.575c.588.714 1.533 1.113 2.478 1.113ZM72.484 79.21c1.008 0 2.247-1.827 3.297-4.326-.315 1.512-.588 2.814-.588 3.15 0 .798.42 1.176 1.008 1.176.693 0 1.617-.462 2.436-1.197l-.504-.441c-.462.483-.798.672-1.008.672-.189 0-.273-.168-.273-.462 0-.987 1.239-6.552 1.743-8.022h-1.722c-.924 3.381-2.646 7.896-3.717 7.896-.42 0-.672-.777-.672-1.827 0-1.722.756-4.683 1.239-6.069l-.819-.21c-.567.693-1.47 1.407-2.289 1.785l-.147.756 1.197-.672c-.441 1.386-.861 3.465-.861 4.956 0 1.554.42 2.835 1.68 2.835ZM82.354 79.21c1.995 0 3.36-1.596 3.36-3.192 0-.987-.756-1.449-1.533-1.911-.777-.462-1.554-.945-1.554-1.974 0-.735.42-1.638 1.491-1.638.546 0 1.092.294 1.386.903l-.168.84h.651l.315-1.638c-.735-.63-1.407-1.05-2.268-1.05-1.785 0-2.94 1.596-2.94 3.297 0 1.365.945 1.953 1.806 2.457.672.399 1.281.777 1.281 1.47 0 .651-.441 1.47-1.596 1.47-.714 0-1.491-.336-1.932-.882l.168-.84h-.651l-.294 1.575c.588.714 1.533 1.113 2.478 1.113ZM95.059 79.21c1.302 0 2.73-1.176 3.276-1.743l-.357-.525c-.84.63-1.554.903-2.1.903-.819 0-1.365-.588-1.365-1.386 0-.819.777-4.347 1.113-5.754h2.793l.189-.945h-2.772c.189-.924.378-1.743.63-2.331l-.483-.168c-.672 1.05-1.512 2.289-2.793 2.499l-.189.945h1.113c-.357 1.512-1.26 5.649-1.26 6.636 0 1.239.609 1.869 2.205 1.869ZM99.784 79h1.701c.924-3.381 2.667-7.686 4.41-7.686 1.155 0 1.491 1.134 1.491 2.163 0 2.037-1.89 4.221-4.116 4.767l-.147.756h4.515l.147-.756c-.798 0-1.617-.063-1.995-.168 1.722-1.407 3.003-3.465 3.003-5.544 0-2.121-.819-2.961-2.058-2.961-1.743-.021-3.36 2.331-4.557 5.334.756-3.822 1.869-8.988 2.31-10.29l-.399-.21c-.609.714-2.31 1.659-3.15 2.037l-.147.756 1.323-.441c-.483 3.171-1.638 9.261-2.331 12.243ZM113.371 79.21c.777 0 1.302-.273 2.331-.861l1.995-2.163-.357-.252c-1.722 1.848-2.793 1.974-3.213 1.974-1.386 0-2.205-1.092-2.373-2.583l6.258-1.848c0-1.911-.483-3.927-2.772-3.927-3.171 0-5.019 3.297-5.019 6.174 0 2.1 1.155 3.486 3.15 3.486Zm-1.659-4.767c.063-1.386.504-3.507 2.562-3.507 1.176 0 1.848.987 2.079 2.205l-4.641 1.302ZM122.989 83.389l-.147.756H127l.147-.756c-.672 0-1.176-.168-1.176-.756 0-.063 0-.147.021-.21.252-1.785.567-3.843.924-5.838.378 1.848 1.218 2.583 2.163 2.583 1.932 0 4.389-3.129 4.389-6.132 0-2.352-1.281-3.486-2.73-3.486-.882 0-1.827.42-2.583 1.239l.294-1.029-.399-.21c-.609.714-2.016 1.617-2.835 1.995l-.168.777 1.26-.588c-.105 1.806-1.218 7.518-1.89 10.71-.231.735-.693.945-1.428.945Zm4.263-8.547c.21-1.029.42-2.037.63-2.94.399-.63.966-1.029 1.722-1.029 1.155 0 2.436 1.176 2.436 3.234 0 1.281-.567 3.801-2.415 3.801-1.155 0-2.163-1.05-2.373-3.066ZM135.799 79.21c.693 0 1.617-.462 2.436-1.197l-.504-.441c-.462.483-.798.672-1.008.672-.189 0-.273-.168-.273-.462 0-.882 2.142-11.151 2.856-13.167l-.399-.21c-.609.714-2.31 1.659-3.15 2.037l-.147.756 1.323-.441c-.294 1.995-2.142 10.227-2.142 11.277 0 .798.42 1.176 1.008 1.176ZM142.078 79.231c.861 0 1.869-.504 2.919-1.617l-.021.42c0 .798.42 1.176 1.008 1.176.693 0 1.617-.462 2.436-1.197l-.504-.441c-.462.483-.798.672-1.008.672-.189 0-.273-.168-.273-.462 0-1.071 1.407-7.098 1.932-8.022l-.273-.21h-.021c-4.578 0-8.484 2.331-8.484 6.3 0 2.1.945 3.381 2.289 3.381Zm-1.071-4.095c0-1.848 1.911-4.158 5.565-4.431-.336 1.701-1.134 4.158-1.47 6.027-.504.483-.945.63-1.848.63-1.449 0-2.247-1.008-2.247-2.226ZM153.019 79.21c.777 0 1.386-.168 2.478-.861l1.995-2.163-.357-.252c-1.722 1.848-2.94 1.974-3.549 1.974-1.344 0-2.037-1.617-2.037-3.486 0-2.058.546-3.465 2.31-3.465.861 0 1.722.567 2.457 1.575.693-.189 1.239-.525 1.638-1.071-.672-1.05-1.764-1.911-2.982-1.911-2.52 0-4.914 2.688-4.914 5.943 0 2.247 1.05 3.717 2.961 3.717ZM161.377 79.21c.777 0 1.302-.273 2.331-.861l1.995-2.163-.357-.252c-1.722 1.848-2.793 1.974-3.213 1.974-1.386 0-2.205-1.092-2.373-2.583l6.258-1.848c0-1.911-.483-3.927-2.772-3.927-3.171 0-5.019 3.297-5.019 6.174 0 2.1 1.155 3.486 3.15 3.486Zm-1.659-4.767c.063-1.386.504-3.507 2.562-3.507 1.176 0 1.848.987 2.079 2.205l-4.641 1.302ZM173.284 78.034c0 .798.42 1.176 1.008 1.176.693 0 1.617-.462 2.436-1.197l-.504-.441c-.462.483-.798.672-1.008.672-.189 0-.273-.168-.273-.462 0-1.89 1.092-6.216 1.701-8.022l-.42-.21c-.546.714-2.457 1.659-3.318 1.869l-.147.756 1.617-.525c-.147.546-1.092 4.305-1.092 6.384Zm3.423-10.689c.63 0 1.281-.546 1.281-1.239 0-.483-.378-.861-.882-.861-.672 0-1.26.609-1.26 1.281 0 .462.357.819.861.819ZM178.744 79h1.638l.021-.147c.945-3.36 2.646-7.539 4.368-7.539 1.155 0 1.491 1.134 1.491 2.163 0 2.037-1.89 4.221-4.116 4.767l-.147.756h4.515l.147-.756c-.798 0-1.617-.063-1.995-.168 1.722-1.407 3.003-3.465 3.003-5.544 0-2.121-.819-2.961-2.058-2.961-1.68-.021-3.255 2.205-4.452 5.061.42-2.121.861-4.284 1.05-4.872l-.42-.21c-.588.714-2.016 1.617-2.856 1.995l-.147.756 1.26-.567c0 1.239-1.155 6.846-1.302 7.266ZM196.72 79h.525a37.343 37.343 0 0 0 3.36-5.691l.777 5.691h.252c2.919-1.89 5.166-4.515 5.166-7.434 0-1.197-.483-2.016-1.323-2.016-.714 0-1.638.504-2.751 1.827l.147.525c.63-.399 1.176-.567 1.596-.567.693 0 1.029.525 1.029 1.302 0 1.638-1.407 3.717-3.108 4.662-.399-2.268-.819-4.62-.84-6.153l.504-1.386h-.798c-.735 2.394-1.848 4.746-3.381 7.14-.378-1.89-.588-3.15-.588-4.179 0-1.134.252-1.953.777-2.961l-.399-.21c-.777.861-2.079 1.974-3.129 2.583l-.147.735 1.26-.651L196.72 79ZM207.703 79h1.701c.924-3.381 2.667-7.686 4.41-7.686 1.155 0 1.491 1.134 1.491 2.163 0 2.037-1.89 4.221-4.116 4.767l-.147.756h4.515l.147-.756c-.798 0-1.617-.063-1.995-.168 1.722-1.407 3.003-3.465 3.003-5.544 0-2.121-.819-2.961-2.058-2.961-1.743-.021-3.36 2.331-4.557 5.334.756-3.822 1.869-8.988 2.31-10.29l-.399-.21c-.609.714-2.31 1.659-3.15 2.037l-.147.756 1.323-.441c-.483 3.171-1.638 9.261-2.331 12.243ZM218.833 78.034c0 .798.42 1.176 1.008 1.176.693 0 1.617-.462 2.436-1.197l-.504-.441c-.462.483-.798.672-1.008.672-.189 0-.273-.168-.273-.462 0-1.89 1.092-6.216 1.701-8.022l-.42-.21c-.546.714-2.457 1.659-3.318 1.869l-.147.756 1.617-.525c-.147.546-1.092 4.305-1.092 6.384Zm3.423-10.689c.63 0 1.281-.546 1.281-1.239 0-.483-.378-.861-.882-.861-.672 0-1.26.609-1.26 1.281 0 .462.357.819.861.819ZM227.191 79.21c.777 0 1.386-.168 2.478-.861l1.995-2.163-.357-.252c-1.722 1.848-2.94 1.974-3.549 1.974-1.344 0-2.037-1.617-2.037-3.486 0-2.058.546-3.465 2.31-3.465.861 0 1.722.567 2.457 1.575.693-.189 1.239-.525 1.638-1.071-.672-1.05-1.764-1.911-2.982-1.911-2.52 0-4.914 2.688-4.914 5.943 0 2.247 1.05 3.717 2.961 3.717ZM232.336 79h1.701c.924-3.381 2.667-7.686 4.41-7.686 1.155 0 1.491 1.134 1.491 2.163 0 2.037-1.89 4.221-4.116 4.767l-.147.756h4.515l.147-.756c-.798 0-1.617-.063-1.995-.168 1.722-1.407 3.003-3.465 3.003-5.544 0-2.121-.819-2.961-2.058-2.961-1.743-.021-3.36 2.331-4.557 5.334.756-3.822 1.869-8.988 2.31-10.29l-.399-.21c-.609.714-2.31 1.659-3.15 2.037l-.147.756 1.323-.441c-.483 3.171-1.638 9.261-2.331 12.243ZM250.585 79.21c1.302 0 2.73-1.176 3.276-1.743l-.357-.525c-.84.63-1.554.903-2.1.903-.819 0-1.365-.588-1.365-1.386 0-.819.777-4.347 1.113-5.754h2.793l.189-.945h-2.772c.189-.924.378-1.743.63-2.331l-.483-.168c-.672 1.05-1.512 2.289-2.793 2.499l-.189.945h1.113c-.357 1.512-1.26 5.649-1.26 6.636 0 1.239.609 1.869 2.205 1.869ZM255.31 79h1.701c.924-3.381 2.667-7.686 4.41-7.686 1.155 0 1.491 1.134 1.491 2.163 0 2.037-1.89 4.221-4.116 4.767l-.147.756h4.515l.147-.756c-.798 0-1.617-.063-1.995-.168 1.722-1.407 3.003-3.465 3.003-5.544 0-2.121-.819-2.961-2.058-2.961-1.743-.021-3.36 2.331-4.557 5.334.756-3.822 1.869-8.988 2.31-10.29l-.399-.21c-.609.714-2.31 1.659-3.15 2.037l-.147.756 1.323-.441c-.483 3.171-1.638 9.261-2.331 12.243ZM268.897 79.21c.777 0 1.302-.273 2.331-.861l1.995-2.163-.357-.252c-1.722 1.848-2.793 1.974-3.213 1.974-1.386 0-2.205-1.092-2.373-2.583l6.258-1.848c0-1.911-.483-3.927-2.772-3.927-3.171 0-5.019 3.297-5.019 6.174 0 2.1 1.155 3.486 3.15 3.486Zm-1.659-4.767c.063-1.386.504-3.507 2.562-3.507 1.176 0 1.848.987 2.079 2.205l-4.641 1.302ZM278.515 83.389l-.147.756h4.158l.147-.756c-.672 0-1.176-.168-1.176-.756 0-.063 0-.147.021-.21.252-1.785.567-3.843.924-5.838.378 1.848 1.218 2.583 2.163 2.583 1.932 0 4.389-3.129 4.389-6.132 0-2.352-1.281-3.486-2.73-3.486-.882 0-1.827.42-2.583 1.239l.294-1.029-.399-.21c-.609.714-2.016 1.617-2.835 1.995l-.168.777 1.26-.588c-.105 1.806-1.218 7.518-1.89 10.71-.231.735-.693.945-1.428.945Zm4.263-8.547c.21-1.029.42-2.037.63-2.94.399-.63.966-1.029 1.722-1.029 1.155 0 2.436 1.176 2.436 3.234 0 1.281-.567 3.801-2.415 3.801-1.155 0-2.163-1.05-2.373-3.066ZM291.325 79.21c.693 0 1.617-.462 2.436-1.197l-.504-.441c-.462.483-.798.672-1.008.672-.189 0-.273-.168-.273-.462 0-.882 2.142-11.151 2.856-13.167l-.399-.21c-.609.714-2.31 1.659-3.15 2.037l-.147.756 1.323-.441c-.294 1.995-2.142 10.227-2.142 11.277 0 .798.42 1.176 1.008 1.176ZM297.604 79.231c.861 0 1.869-.504 2.919-1.617l-.021.42c0 .798.42 1.176 1.008 1.176.693 0 1.617-.462 2.436-1.197l-.504-.441c-.462.483-.798.672-1.008.672-.189 0-.273-.168-.273-.462 0-1.071 1.407-7.098 1.932-8.022l-.273-.21h-.021c-4.578 0-8.484 2.331-8.484 6.3 0 2.1.945 3.381 2.289 3.381Zm-1.071-4.095c0-1.848 1.911-4.158 5.565-4.431-.336 1.701-1.134 4.158-1.47 6.027-.504.483-.945.63-1.848.63-1.449 0-2.247-1.008-2.247-2.226ZM311.863 79.21c.693 0 1.617-.462 2.436-1.197l-.504-.441c-.462.483-.798.672-1.008.672-.189 0-.273-.168-.273-.462 0-.273.903-5.208.903-6.426 0-1.176-.441-1.806-1.302-1.806-1.47 0-2.919 1.995-4.074 4.662.441-1.974.903-3.906 1.071-4.452l-.42-.21c-.588.714-2.016 1.617-2.856 1.995l-.147.756 1.26-.567c-.252 2.667-.462 3.885-1.302 7.266h1.428c.924-3.381 2.667-7.707 3.948-7.707.525 0 .651.693.651 1.26 0 1.071-.819 4.725-.819 5.481 0 .798.42 1.176 1.008 1.176ZM318.835 79.21c.777 0 1.302-.273 2.331-.861l1.995-2.163-.357-.252c-1.722 1.848-2.793 1.974-3.213 1.974-1.386 0-2.205-1.092-2.373-2.583l6.258-1.848c0-1.911-.483-3.927-2.772-3.927-3.171 0-5.019 3.297-5.019 6.174 0 2.1 1.155 3.486 3.15 3.486Zm-1.659-4.767c.063-1.386.504-3.507 2.562-3.507 1.176 0 1.848.987 2.079 2.205l-4.641 1.302ZM327.361 79.21c1.302 0 2.73-1.176 3.276-1.743l-.357-.525c-.84.63-1.554.903-2.1.903-.819 0-1.365-.588-1.365-1.386 0-.819.777-4.347 1.113-5.754h2.793l.189-.945h-2.772c.189-.924.378-1.743.63-2.331l-.483-.168c-.672 1.05-1.512 2.289-2.793 2.499l-.189.945h1.113c-.357 1.512-1.26 5.649-1.26 6.636 0 1.239.609 1.869 2.205 1.869ZM339.772 79h.525a37.343 37.343 0 0 0 3.36-5.691l.777 5.691h.252c2.919-1.89 5.166-4.515 5.166-7.434 0-1.197-.483-2.016-1.323-2.016-.714 0-1.638.504-2.751 1.827l.147.525c.63-.399 1.176-.567 1.596-.567.693 0 1.029.525 1.029 1.302 0 1.638-1.407 3.717-3.108 4.662-.399-2.268-.819-4.62-.84-6.153l.504-1.386h-.798c-.735 2.394-1.848 4.746-3.381 7.14-.378-1.89-.588-3.15-.588-4.179 0-1.134.252-1.953.777-2.961l-.399-.21c-.777.861-2.079 1.974-3.129 2.583l-.147.735 1.26-.651L339.772 79ZM351.511 78.034c0 .798.42 1.176 1.008 1.176.693 0 1.617-.462 2.436-1.197l-.504-.441c-.462.483-.798.672-1.008.672-.189 0-.273-.168-.273-.462 0-1.89 1.092-6.216 1.701-8.022l-.42-.21c-.546.714-2.457 1.659-3.318 1.869l-.147.756 1.617-.525c-.147.546-1.092 4.305-1.092 6.384Zm3.423-10.689c.63 0 1.281-.546 1.281-1.239 0-.483-.378-.861-.882-.861-.672 0-1.26.609-1.26 1.281 0 .462.357.819.861.819ZM358 79.21c.693 0 1.617-.462 2.436-1.197l-.504-.441c-.462.483-.798.672-1.008.672-.189 0-.273-.168-.273-.462 0-.882 2.142-11.151 2.856-13.167l-.399-.21c-.609.714-2.31 1.659-3.15 2.037l-.147.756 1.323-.441c-.294 1.995-2.142 10.227-2.142 11.277 0 .798.42 1.176 1.008 1.176ZM363.166 79.21c.693 0 1.617-.462 2.436-1.197l-.504-.441c-.462.483-.798.672-1.008.672-.189 0-.273-.168-.273-.462 0-.882 2.142-11.151 2.856-13.167l-.399-.21c-.609.714-2.31 1.659-3.15 2.037l-.147.756 1.323-.441c-.294 1.995-2.142 10.227-2.142 11.277 0 .798.42 1.176 1.008 1.176ZM4.948 111.21c3.255 0 5.061-3.801 5.061-6.636 0-1.596-.672-3.024-2.184-3.024-.945 0-2.037.756-3.129 1.827l.21.525c.609-.378 1.218-.546 1.764-.546 1.239 0 2.142.945 2.142 2.394 0 1.659-.924 4.095-2.982 4.095-1.155 0-2.205-.672-2.499-1.827.525-2.751 1.512-7.833 2.94-11.403l-.483-.21c-.924.819-2.541 1.974-3.801 2.541l-.147.756 1.827-.798c-.168 1.26-1.575 8.295-2.394 10.668 1.155 1.071 2.436 1.638 3.675 1.638ZM14.314 111.21c.777 0 1.302-.273 2.331-.861l1.995-2.163-.357-.252c-1.722 1.848-2.793 1.974-3.213 1.974-1.386 0-2.205-1.092-2.373-2.583l6.258-1.848c0-1.911-.483-3.927-2.772-3.927-3.171 0-5.019 3.297-5.019 6.174 0 2.1 1.155 3.486 3.15 3.486Zm-1.659-4.767c.063-1.386.504-3.507 2.562-3.507 1.176 0 1.848.987 2.079 2.205l-4.641 1.302ZM27.649 111.21c1.995 0 3.36-1.596 3.36-3.192 0-.987-.756-1.449-1.533-1.911-.777-.462-1.554-.945-1.554-1.974 0-.735.42-1.638 1.491-1.638.546 0 1.092.294 1.386.903l-.168.84h.651l.315-1.638c-.735-.63-1.407-1.05-2.268-1.05-1.785 0-2.94 1.596-2.94 3.297 0 1.365.945 1.953 1.806 2.457.672.399 1.281.777 1.281 1.47 0 .651-.441 1.47-1.596 1.47-.714 0-1.491-.336-1.932-.882l.168-.84h-.651l-.294 1.575c.588.714 1.533 1.113 2.478 1.113ZM35.692 111.21c.777 0 1.302-.273 2.331-.861l1.995-2.163-.357-.252c-1.722 1.848-2.793 1.974-3.213 1.974-1.386 0-2.205-1.092-2.373-2.583l6.258-1.848c0-1.911-.483-3.927-2.772-3.927-3.171 0-5.019 3.297-5.019 6.174 0 2.1 1.155 3.486 3.15 3.486Zm-1.659-4.767c.063-1.386.504-3.507 2.562-3.507 1.176 0 1.848.987 2.079 2.205l-4.641 1.302ZM44.806 111.21c.777 0 1.302-.273 2.331-.861l1.995-2.163-.357-.252c-1.722 1.848-2.793 1.974-3.213 1.974-1.386 0-2.205-1.092-2.373-2.583l6.258-1.848c0-1.911-.483-3.927-2.772-3.927-3.171 0-5.019 3.297-5.019 6.174 0 2.1 1.155 3.486 3.15 3.486Zm-1.659-4.767c.063-1.386.504-3.507 2.562-3.507 1.176 0 1.848.987 2.079 2.205l-4.641 1.302ZM50.875 111h1.638l.021-.147c.945-3.36 2.646-7.539 4.368-7.539 1.155 0 1.491 1.134 1.491 2.163 0 2.037-1.89 4.221-4.116 4.767l-.147.756h4.515l.147-.756c-.798 0-1.617-.063-1.995-.168 1.722-1.407 3.003-3.465 3.003-5.544 0-2.121-.819-2.961-2.058-2.961-1.68-.021-3.255 2.205-4.452 5.061.42-2.121.861-4.284 1.05-4.872l-.42-.21c-.588.714-2.016 1.617-2.856 1.995l-.147.756 1.26-.567c0 1.239-1.155 6.846-1.302 7.266ZM60.031 114.78l-.042.525c1.344-.21 2.772-1.47 2.772-3.129 0-.42-.084-.882-.315-1.365.399-.525 1.05-1.092 1.407-1.386l-1.554-1.365-1.47 2.583c.693.63.987 1.386.987 2.037 0 1.05-.714 1.932-1.785 2.1ZM73.492 111.231c.861 0 1.869-.504 2.919-1.617l-.021.42c0 .798.42 1.176 1.008 1.176.693 0 1.617-.462 2.436-1.197l-.504-.441c-.462.483-.798.672-1.008.672-.189 0-.273-.168-.273-.462 0-1.071 1.407-7.098 1.932-8.022l-.273-.21h-.021c-4.578 0-8.484 2.331-8.484 6.3 0 2.1.945 3.381 2.289 3.381Zm-1.071-4.095c0-1.848 1.911-4.158 5.565-4.431-.336 1.701-1.134 4.158-1.47 6.027-.504.483-.945.63-1.848.63-1.449 0-2.247-1.008-2.247-2.226ZM87.751 111.21c.693 0 1.617-.462 2.436-1.197l-.504-.441c-.462.483-.798.672-1.008.672-.189 0-.273-.168-.273-.462 0-.273.903-5.208.903-6.426 0-1.176-.441-1.806-1.302-1.806-1.47 0-2.919 1.995-4.074 4.662.441-1.974.903-3.906 1.071-4.452l-.42-.21c-.588.714-2.016 1.617-2.856 1.995l-.147.756 1.26-.567c-.252 2.667-.462 3.885-1.302 7.266h1.428c.924-3.381 2.667-7.707 3.948-7.707.525 0 .651.693.651 1.26 0 1.071-.819 4.725-.819 5.481 0 .798.42 1.176 1.008 1.176ZM91.594 107.535c0 2.226 1.365 3.675 2.961 3.675.714 0 1.47-.294 2.163-.945v.042c0 .588.546.903 1.05.903.693 0 1.617-.462 2.436-1.197l-.504-.441c-.462.483-.798.672-1.008.672-.189 0-.273-.168-.273-.462 0-2.058 2.184-11.277 2.751-13.167l-.399-.21c-.609.714-2.31 1.659-3.15 2.037l-.147.756 1.323-.441c-.168 1.533-.462 3.129-.777 4.662-.462-1.323-1.176-1.869-2.226-1.869-1.953 0-4.2 3.045-4.2 5.985Zm1.491-1.029c0-1.428.672-3.612 2.562-3.612 1.071 0 1.764.672 2.079 1.869-.42 1.974-.819 3.738-.966 4.872-.273.168-.63.273-1.092.273-1.407 0-2.583-1.26-2.583-3.402ZM107.743 110.034c0 .798.42 1.176 1.008 1.176.693 0 1.617-.462 2.436-1.197l-.504-.441c-.462.483-.798.672-1.008.672-.189 0-.273-.168-.273-.462 0-1.89 1.092-6.216 1.701-8.022l-.42-.21c-.546.714-2.457 1.659-3.318 1.869l-.147.756 1.617-.525c-.147.546-1.092 4.305-1.092 6.384Zm3.423-10.689c.63 0 1.281-.546 1.281-1.239 0-.483-.378-.861-.882-.861-.672 0-1.26.609-1.26 1.281 0 .462.357.819.861.819ZM115.66 111.21c1.302 0 2.73-1.176 3.276-1.743l-.357-.525c-.84.63-1.554.903-2.1.903-.819 0-1.365-.588-1.365-1.386 0-.819.777-4.347 1.113-5.754h2.793l.189-.945h-2.772c.189-.924.378-1.743.63-2.331l-.483-.168c-.672 1.05-1.512 2.289-2.793 2.499l-.189.945h1.113c-.357 1.512-1.26 5.649-1.26 6.636 0 1.239.609 1.869 2.205 1.869ZM126.391 110.034c0 .798.42 1.176 1.008 1.176.693 0 1.617-.462 2.436-1.197l-.504-.441c-.462.483-.798.672-1.008.672-.189 0-.273-.168-.273-.462 0-1.89 1.092-6.216 1.701-8.022l-.42-.21c-.546.714-2.457 1.659-3.318 1.869l-.147.756 1.617-.525c-.147.546-1.092 4.305-1.092 6.384Zm3.423-10.689c.63 0 1.281-.546 1.281-1.239 0-.483-.378-.861-.882-.861-.672 0-1.26.609-1.26 1.281 0 .462.357.819.861.819ZM133.867 111.21c1.995 0 3.36-1.596 3.36-3.192 0-.987-.756-1.449-1.533-1.911-.777-.462-1.554-.945-1.554-1.974 0-.735.42-1.638 1.491-1.638.546 0 1.092.294 1.386.903l-.168.84h.651l.315-1.638c-.735-.63-1.407-1.05-2.268-1.05-1.785 0-2.94 1.596-2.94 3.297 0 1.365.945 1.953 1.806 2.457.672.399 1.281.777 1.281 1.47 0 .651-.441 1.47-1.596 1.47-.714 0-1.491-.336-1.932-.882l.168-.84h-.651l-.294 1.575c.588.714 1.533 1.113 2.478 1.113ZM150.331 111.21c.693 0 1.617-.462 2.436-1.197l-.504-.441c-.462.483-.798.672-1.008.672-.189 0-.273-.168-.273-.462 0-.273.903-5.208.903-6.426 0-1.176-.441-1.806-1.302-1.806-1.47 0-2.919 1.995-4.074 4.662.441-1.974.903-3.906 1.071-4.452l-.42-.21c-.588.714-2.016 1.617-2.856 1.995l-.147.756 1.26-.567c-.252 2.667-.462 3.885-1.302 7.266h1.428c.924-3.381 2.667-7.707 3.948-7.707.525 0 .651.693.651 1.26 0 1.071-.819 4.725-.819 5.481 0 .798.42 1.176 1.008 1.176ZM157.135 111.21c2.751 0 4.83-2.961 4.83-5.88 0-2.079-1.008-3.78-2.961-3.78-2.73 0-4.83 3.108-4.83 5.985 0 2.079 1.029 3.675 2.961 3.675Zm.945-1.302c-1.092 0-2.415-1.26-2.415-3.402 0-1.428.714-3.612 2.394-3.612 1.281 0 2.415 1.239 2.415 3.36 0 1.512-.588 3.654-2.394 3.654ZM165.787 111.21c1.302 0 2.73-1.176 3.276-1.743l-.357-.525c-.84.63-1.554.903-2.1.903-.819 0-1.365-.588-1.365-1.386 0-.819.777-4.347 1.113-5.754h2.793l.189-.945h-2.772c.189-.924.378-1.743.63-2.331l-.483-.168c-.672 1.05-1.512 2.289-2.793 2.499l-.189.945h1.113c-.357 1.512-1.26 5.649-1.26 6.636 0 1.239.609 1.869 2.205 1.869ZM175.573 111h1.449c.063-.798.588-3.633 1.176-6.594.63-.651 1.344-1.113 1.995-1.113.63 0 1.218.609 1.218 1.344 0 .756-.651 1.638-2.52 2.058.378 2.268.756 4.515 2.247 4.515.651 0 1.407-.357 2.289-1.197l-.504-.441c-.357.336-.714.483-1.029.483-.903 0-1.617-1.344-1.953-2.898 2.058-.525 3.192-2.478 3.192-3.927 0-.945-.462-1.68-1.491-1.68-.861 0-2.079.693-3.234 1.89.609-2.919 1.26-5.796 1.596-6.825l-.336-.21c-.546.714-2.016 1.659-2.751 2.037l-.147.756 1.155-.441a225.415 225.415 0 0 1-1.302 7.245 164.835 164.835 0 0 1-1.05 4.998ZM190.924 111.21c.693 0 1.617-.462 2.436-1.197l-.504-.441c-.462.483-.798.672-1.008.672-.189 0-.273-.168-.273-.462 0-.273.903-5.208.903-6.426 0-1.176-.441-1.806-1.302-1.806-1.47 0-2.919 1.995-4.074 4.662.441-1.974.903-3.906 1.071-4.452l-.42-.21c-.588.714-2.016 1.617-2.856 1.995l-.147.756 1.26-.567c-.252 2.667-.462 3.885-1.302 7.266h1.428c.924-3.381 2.667-7.707 3.948-7.707.525 0 .651.693.651 1.26 0 1.071-.819 4.725-.819 5.481 0 .798.42 1.176 1.008 1.176ZM197.728 111.21c2.751 0 4.83-2.961 4.83-5.88 0-2.079-1.008-3.78-2.961-3.78-2.73 0-4.83 3.108-4.83 5.985 0 2.079 1.029 3.675 2.961 3.675Zm.945-1.302c-1.092 0-2.415-1.26-2.415-3.402 0-1.428.714-3.612 2.394-3.612 1.281 0 2.415 1.239 2.415 3.36 0 1.512-.588 3.654-2.394 3.654ZM206.191 111h.525a37.343 37.343 0 0 0 3.36-5.691l.777 5.691h.252c2.919-1.89 5.166-4.515 5.166-7.434 0-1.197-.483-2.016-1.323-2.016-.714 0-1.638.504-2.751 1.827l.147.525c.63-.399 1.176-.567 1.596-.567.693 0 1.029.525 1.029 1.302 0 1.638-1.407 3.717-3.108 4.662-.399-2.268-.819-4.62-.84-6.153l.504-1.386h-.798c-.735 2.394-1.848 4.746-3.381 7.14-.378-1.89-.588-3.15-.588-4.179 0-1.134.252-1.953.777-2.961l-.399-.21c-.777.861-2.079 1.974-3.129 2.583l-.147.735 1.26-.651 1.071 6.783ZM217.342 111h1.638l.021-.147c.945-3.36 2.646-7.539 4.368-7.539 1.155 0 1.491 1.134 1.491 2.163 0 2.037-1.89 4.221-4.116 4.767l-.147.756h4.515l.147-.756c-.798 0-1.617-.063-1.995-.168 1.722-1.407 3.003-3.465 3.003-5.544 0-2.121-.819-2.961-2.058-2.961-1.68-.021-3.255 2.205-4.452 5.061.42-2.121.861-4.284 1.05-4.872l-.42-.21c-.588.714-2.016 1.617-2.856 1.995l-.147.756 1.26-.567c0 1.239-1.155 6.846-1.302 7.266ZM236.095 111.21c.777 0 1.302-.273 2.331-.861l1.995-2.163-.357-.252c-1.722 1.848-2.793 1.974-3.213 1.974-1.386 0-2.205-1.092-2.373-2.583l6.258-1.848c0-1.911-.483-3.927-2.772-3.927-3.171 0-5.019 3.297-5.019 6.174 0 2.1 1.155 3.486 3.15 3.486Zm-1.659-4.767c.063-1.386.504-3.507 2.562-3.507 1.176 0 1.848.987 2.079 2.205l-4.641 1.302ZM241.072 110.244l-.147.756h3.192l.147-.756c-.42 0-.567-.105-.567-.252 0-.126.126-.273.294-.42l2.205-2.163 1.008 1.869c.084.147.168.315.168.483 0 .273-.189.483-.735.483l-.147.756h4.116l.147-.756c-.735 0-1.176-.315-1.428-.798l-1.785-3.339 2.919-2.856c.525-.504 1.029-.735 1.806-.735l.147-.756h-3.171l-.147.756c.399 0 .588.084.588.231 0 .147-.315.441-.63.735l-1.911 1.869-.903-1.68c-.105-.189-.252-.462-.252-.672 0-.273.189-.483.735-.483l.147-.756h-4.137l-.147.756c.714 0 1.155.273 1.407.756l1.827 3.402-2.856 2.793c-.567.546-1.071.777-1.89.777ZM255.604 111.21c.777 0 1.386-.168 2.478-.861l1.995-2.163-.357-.252c-1.722 1.848-2.94 1.974-3.549 1.974-1.344 0-2.037-1.617-2.037-3.486 0-2.058.546-3.465 2.31-3.465.861 0 1.722.567 2.457 1.575.693-.189 1.239-.525 1.638-1.071-.672-1.05-1.764-1.911-2.982-1.911-2.52 0-4.914 2.688-4.914 5.943 0 2.247 1.05 3.717 2.961 3.717ZM263.962 111.21c.777 0 1.302-.273 2.331-.861l1.995-2.163-.357-.252c-1.722 1.848-2.793 1.974-3.213 1.974-1.386 0-2.205-1.092-2.373-2.583l6.258-1.848c0-1.911-.483-3.927-2.772-3.927-3.171 0-5.019 3.297-5.019 6.174 0 2.1 1.155 3.486 3.15 3.486Zm-1.659-4.767c.063-1.386.504-3.507 2.562-3.507 1.176 0 1.848.987 2.079 2.205l-4.641 1.302ZM268.33 115.389l-.147.756h4.158l.147-.756c-.672 0-1.176-.168-1.176-.756 0-.063 0-.147.021-.21.252-1.785.567-3.843.924-5.838.378 1.848 1.218 2.583 2.163 2.583 1.932 0 4.389-3.129 4.389-6.132 0-2.352-1.281-3.486-2.73-3.486-.882 0-1.827.42-2.583 1.239l.294-1.029-.399-.21c-.609.714-2.016 1.617-2.835 1.995l-.168.777 1.26-.588c-.105 1.806-1.218 7.518-1.89 10.71-.231.735-.693.945-1.428.945Zm4.263-8.547c.21-1.029.42-2.037.63-2.94.399-.63.966-1.029 1.722-1.029 1.155 0 2.436 1.176 2.436 3.234 0 1.281-.567 3.801-2.415 3.801-1.155 0-2.163-1.05-2.373-3.066ZM282.568 111.21c1.302 0 2.73-1.176 3.276-1.743l-.357-.525c-.84.63-1.554.903-2.1.903-.819 0-1.365-.588-1.365-1.386 0-.819.777-4.347 1.113-5.754h2.793l.189-.945h-2.772c.189-.924.378-1.743.63-2.331l-.483-.168c-.672 1.05-1.512 2.289-2.793 2.499l-.189.945h1.113c-.357 1.512-1.26 5.649-1.26 6.636 0 1.239.609 1.869 2.205 1.869ZM294.979 111h.525a37.343 37.343 0 0 0 3.36-5.691l.777 5.691h.252c2.919-1.89 5.166-4.515 5.166-7.434 0-1.197-.483-2.016-1.323-2.016-.714 0-1.638.504-2.751 1.827l.147.525c.63-.399 1.176-.567 1.596-.567.693 0 1.029.525 1.029 1.302 0 1.638-1.407 3.717-3.108 4.662-.399-2.268-.819-4.62-.84-6.153l.504-1.386h-.798c-.735 2.394-1.848 4.746-3.381 7.14-.378-1.89-.588-3.15-.588-4.179 0-1.134.252-1.953.777-2.961l-.399-.21c-.777.861-2.079 1.974-3.129 2.583l-.147.735 1.26-.651 1.071 6.783ZM305.962 111h1.701c.924-3.381 2.667-7.686 4.41-7.686 1.155 0 1.491 1.134 1.491 2.163 0 2.037-1.89 4.221-4.116 4.767l-.147.756h4.515l.147-.756c-.798 0-1.617-.063-1.995-.168 1.722-1.407 3.003-3.465 3.003-5.544 0-2.121-.819-2.961-2.058-2.961-1.743-.021-3.36 2.331-4.557 5.334.756-3.822 1.869-8.988 2.31-10.29l-.399-.21c-.609.714-2.31 1.659-3.15 2.037l-.147.756 1.323-.441c-.483 3.171-1.638 9.261-2.331 12.243ZM319.549 111.21c.777 0 1.302-.273 2.331-.861l1.995-2.163-.357-.252c-1.722 1.848-2.793 1.974-3.213 1.974-1.386 0-2.205-1.092-2.373-2.583l6.258-1.848c0-1.911-.483-3.927-2.772-3.927-3.171 0-5.019 3.297-5.019 6.174 0 2.1 1.155 3.486 3.15 3.486Zm-1.659-4.767c.063-1.386.504-3.507 2.562-3.507 1.176 0 1.848.987 2.079 2.205l-4.641 1.302ZM325.618 111h1.638l.021-.147c.945-3.36 2.646-7.539 4.368-7.539 1.155 0 1.491 1.134 1.491 2.163 0 2.037-1.89 4.221-4.116 4.767l-.147.756h4.515l.147-.756c-.798 0-1.617-.063-1.995-.168 1.722-1.407 3.003-3.465 3.003-5.544 0-2.121-.819-2.961-2.058-2.961-1.68-.021-3.255 2.205-4.452 5.061.42-2.121.861-4.284 1.05-4.872l-.42-.21c-.588.714-2.016 1.617-2.856 1.995l-.147.756 1.26-.567c0 1.239-1.155 6.846-1.302 7.266ZM4.171 143.21c1.302 0 2.73-1.176 3.276-1.743l-.357-.525c-.84.63-1.554.903-2.1.903-.819 0-1.365-.588-1.365-1.386 0-.819.777-4.347 1.113-5.754h2.793l.189-.945H4.948c.189-.924.378-1.743.63-2.331l-.483-.168c-.672 1.05-1.512 2.289-2.793 2.499l-.189.945h1.113c-.357 1.512-1.26 5.649-1.26 6.636 0 1.239.609 1.869 2.205 1.869ZM8.896 143h1.701c.924-3.381 2.667-7.686 4.41-7.686 1.155 0 1.491 1.134 1.491 2.163 0 2.037-1.89 4.221-4.116 4.767l-.147.756h4.515l.147-.756c-.798 0-1.617-.063-1.995-.168 1.722-1.407 3.003-3.465 3.003-5.544 0-2.121-.819-2.961-2.058-2.961-1.743-.021-3.36 2.331-4.557 5.334.756-3.822 1.869-8.988 2.31-10.29l-.399-.21c-.609.714-2.31 1.659-3.15 2.037l-.147.756 1.323-.441c-.483 3.171-1.638 9.261-2.331 12.243ZM22.483 143.21c.777 0 1.302-.273 2.331-.861l1.995-2.163-.357-.252c-1.722 1.848-2.793 1.974-3.213 1.974-1.386 0-2.205-1.092-2.373-2.583l6.258-1.848c0-1.911-.483-3.927-2.772-3.927-3.171 0-5.019 3.297-5.019 6.174 0 2.1 1.155 3.486 3.15 3.486Zm-1.659-4.767c.063-1.386.504-3.507 2.562-3.507 1.176 0 1.848.987 2.079 2.205l-4.641 1.302ZM32.101 147.389l-.147.756h4.158l.147-.756c-.672 0-1.176-.168-1.176-.756 0-.063 0-.147.021-.21.252-1.785.567-3.843.924-5.838.378 1.848 1.218 2.583 2.163 2.583 1.932 0 4.389-3.129 4.389-6.132 0-2.352-1.281-3.486-2.73-3.486-.882 0-1.827.42-2.583 1.239l.294-1.029-.399-.21c-.609.714-2.016 1.617-2.835 1.995l-.168.777 1.26-.588c-.105 1.806-1.218 7.518-1.89 10.71-.231.735-.693.945-1.428.945Zm4.263-8.547c.21-1.029.42-2.037.63-2.94.399-.63.966-1.029 1.722-1.029 1.155 0 2.436 1.176 2.436 3.234 0 1.281-.567 3.801-2.415 3.801-1.155 0-2.163-1.05-2.373-3.066ZM44.911 143.21c.693 0 1.617-.462 2.436-1.197l-.504-.441c-.462.483-.798.672-1.008.672-.189 0-.273-.168-.273-.462 0-.882 2.142-11.151 2.856-13.167l-.399-.21c-.609.714-2.31 1.659-3.15 2.037l-.147.756 1.323-.441c-.294 1.995-2.142 10.227-2.142 11.277 0 .798.42 1.176 1.008 1.176ZM51.19 143.231c.861 0 1.869-.504 2.919-1.617l-.021.42c0 .798.42 1.176 1.008 1.176.693 0 1.617-.462 2.436-1.197l-.504-.441c-.462.483-.798.672-1.008.672-.189 0-.273-.168-.273-.462 0-1.071 1.407-7.098 1.932-8.022l-.273-.21h-.021c-4.578 0-8.484 2.331-8.484 6.3 0 2.1.945 3.381 2.289 3.381Zm-1.071-4.095c0-1.848 1.911-4.158 5.565-4.431-.336 1.701-1.134 4.158-1.47 6.027-.504.483-.945.63-1.848.63-1.449 0-2.247-1.008-2.247-2.226ZM65.449 143.21c.693 0 1.617-.462 2.436-1.197l-.504-.441c-.462.483-.798.672-1.008.672-.189 0-.273-.168-.273-.462 0-.273.903-5.208.903-6.426 0-1.176-.441-1.806-1.302-1.806-1.47 0-2.919 1.995-4.074 4.662.441-1.974.903-3.906 1.071-4.452l-.42-.21c-.588.714-2.016 1.617-2.856 1.995l-.147.756 1.26-.567c-.252 2.667-.462 3.885-1.302 7.266h1.428c.924-3.381 2.667-7.707 3.948-7.707.525 0 .651.693.651 1.26 0 1.071-.819 4.725-.819 5.481 0 .798.42 1.176 1.008 1.176ZM72.421 143.21c.777 0 1.302-.273 2.331-.861l1.995-2.163-.357-.252c-1.722 1.848-2.793 1.974-3.213 1.974-1.386 0-2.205-1.092-2.373-2.583l6.258-1.848c0-1.911-.483-3.927-2.772-3.927-3.171 0-5.019 3.297-5.019 6.174 0 2.1 1.155 3.486 3.15 3.486Zm-1.659-4.767c.063-1.386.504-3.507 2.562-3.507 1.176 0 1.848.987 2.079 2.205l-4.641 1.302ZM80.947 143.21c1.302 0 2.73-1.176 3.276-1.743l-.357-.525c-.84.63-1.554.903-2.1.903-.819 0-1.365-.588-1.365-1.386 0-.819.777-4.347 1.113-5.754h2.793l.189-.945h-2.772c.189-.924.378-1.743.63-2.331l-.483-.168c-.672 1.05-1.512 2.289-2.793 2.499l-.189.945h1.113c-.357 1.512-1.26 5.649-1.26 6.636 0 1.239.609 1.869 2.205 1.869ZM91.678 142.034c0 .798.42 1.176 1.008 1.176.693 0 1.617-.462 2.436-1.197l-.504-.441c-.462.483-.798.672-1.008.672-.189 0-.273-.168-.273-.462 0-1.89 1.092-6.216 1.701-8.022l-.42-.21c-.546.714-2.457 1.659-3.318 1.869l-.147.756 1.617-.525c-.147.546-1.092 4.305-1.092 6.384Zm3.423-10.689c.63 0 1.281-.546 1.281-1.239 0-.483-.378-.861-.882-.861-.672 0-1.26.609-1.26 1.281 0 .462.357.819.861.819ZM99.154 143.21c1.995 0 3.36-1.596 3.36-3.192 0-.987-.756-1.449-1.533-1.911-.777-.462-1.554-.945-1.554-1.974 0-.735.42-1.638 1.491-1.638.546 0 1.092.294 1.386.903l-.168.84h.651l.315-1.638c-.735-.63-1.407-1.05-2.268-1.05-1.785 0-2.94 1.596-2.94 3.297 0 1.365.945 1.953 1.806 2.457.672.399 1.281.777 1.281 1.47 0 .651-.441 1.47-1.596 1.47-.714 0-1.491-.336-1.932-.882l.168-.84h-.651l-.294 1.575c.588.714 1.533 1.113 2.478 1.113ZM111.418 143.21c1.995 0 3.36-1.596 3.36-3.192 0-.987-.756-1.449-1.533-1.911-.777-.462-1.554-.945-1.554-1.974 0-.735.42-1.638 1.491-1.638.546 0 1.092.294 1.386.903l-.168.84h.651l.315-1.638c-.735-.63-1.407-1.05-2.268-1.05-1.785 0-2.94 1.596-2.94 3.297 0 1.365.945 1.953 1.806 2.457.672.399 1.281.777 1.281 1.47 0 .651-.441 1.47-1.596 1.47-.714 0-1.491-.336-1.932-.882l.168-.84h-.651l-.294 1.575c.588.714 1.533 1.113 2.478 1.113ZM119.293 143.21c2.751 0 4.83-2.961 4.83-5.88 0-2.079-1.008-3.78-2.961-3.78-2.73 0-4.83 3.108-4.83 5.985 0 2.079 1.029 3.675 2.961 3.675Zm.945-1.302c-1.092 0-2.415-1.26-2.415-3.402 0-1.428.714-3.612 2.394-3.612 1.281 0 2.415 1.239 2.415 3.36 0 1.512-.588 3.654-2.394 3.654ZM130.57 143h1.701c.924-3.381 2.667-7.686 4.41-7.686 1.155 0 1.491 1.134 1.491 2.163 0 2.037-1.89 4.221-4.116 4.767l-.147.756h4.515l.147-.756c-.798 0-1.617-.063-1.995-.168 1.722-1.407 3.003-3.465 3.003-5.544 0-2.121-.819-2.961-2.058-2.961-1.743-.021-3.36 2.331-4.557 5.334.756-3.822 1.869-8.988 2.31-10.29l-.399-.21c-.609.714-2.31 1.659-3.15 2.037l-.147.756 1.323-.441c-.483 3.171-1.638 9.261-2.331 12.243ZM141.7 142.034c0 .798.42 1.176 1.008 1.176.693 0 1.617-.462 2.436-1.197l-.504-.441c-.462.483-.798.672-1.008.672-.189 0-.273-.168-.273-.462 0-1.89 1.092-6.216 1.701-8.022l-.42-.21c-.546.714-2.457 1.659-3.318 1.869l-.147.756 1.617-.525c-.147.546-1.092 4.305-1.092 6.384Zm3.423-10.689c.63 0 1.281-.546 1.281-1.239 0-.483-.378-.861-.882-.861-.672 0-1.26.609-1.26 1.281 0 .462.357.819.861.819ZM149.911 148.376c2.1 0 3.066-1.596 3.948-6.195.504-2.625 1.554-7.182 1.953-8.421l-.294-.21c-.21.462-.63.945-1.071 1.365-.273-.819-.924-1.365-2.268-1.365-2.961 0-4.851 3.255-4.851 6.069 0 1.995.987 3.591 2.982 3.591.987 0 1.785-.462 2.394-1.134-.693 3.465-1.365 5.271-2.457 5.271-1.176 0-2.94-.672-2.94-2.142 0-.336.126-.672.294-1.008l-.525-.315c-.525.567-1.071 1.26-1.071 2.079 0 1.512 1.953 2.415 3.906 2.415Zm-1.029-10.059c0-1.722.756-3.423 2.352-3.423 1.365 0 2.037 1.05 2.331 2.226l-.651 3.864c-.357.546-.861.924-1.659.924-1.554 0-2.373-1.806-2.373-3.591ZM156.043 143h1.701c.924-3.381 2.667-7.686 4.41-7.686 1.155 0 1.491 1.134 1.491 2.163 0 2.037-1.89 4.221-4.116 4.767l-.147.756h4.515l.147-.756c-.798 0-1.617-.063-1.995-.168 1.722-1.407 3.003-3.465 3.003-5.544 0-2.121-.819-2.961-2.058-2.961-1.743-.021-3.36 2.331-4.557 5.334.756-3.822 1.869-8.988 2.31-10.29l-.399-.21c-.609.714-2.31 1.659-3.15 2.037l-.147.756 1.323-.441c-.483 3.171-1.638 9.261-2.331 12.243ZM172.423 142.034c0 .798.42 1.176 1.008 1.176.693 0 1.617-.462 2.436-1.197l-.504-.441c-.462.483-.798.672-1.008.672-.189 0-.273-.168-.273-.462 0-1.89 1.092-6.216 1.701-8.022l-.42-.21c-.546.714-2.457 1.659-3.318 1.869l-.147.756 1.617-.525c-.147.546-1.092 4.305-1.092 6.384Zm3.423-10.689c.63 0 1.281-.546 1.281-1.239 0-.483-.378-.861-.882-.861-.672 0-1.26.609-1.26 1.281 0 .462.357.819.861.819ZM177.883 143h1.638l.021-.147c.945-3.36 2.646-7.539 4.368-7.539 1.155 0 1.491 1.134 1.491 2.163 0 2.037-1.89 4.221-4.116 4.767l-.147.756h4.515l.147-.756c-.798 0-1.617-.063-1.995-.168 1.722-1.407 3.003-3.465 3.003-5.544 0-2.121-.819-2.961-2.058-2.961-1.68-.021-3.255 2.205-4.452 5.061.42-2.121.861-4.284 1.05-4.872l-.42-.21c-.588.714-2.016 1.617-2.856 1.995l-.147.756 1.26-.567c0 1.239-1.155 6.846-1.302 7.266ZM196.468 143.21c2.751 0 4.83-2.961 4.83-5.88 0-2.079-1.008-3.78-2.961-3.78-2.73 0-4.83 3.108-4.83 5.985 0 2.079 1.029 3.675 2.961 3.675Zm.945-1.302c-1.092 0-2.415-1.26-2.415-3.402 0-1.428.714-3.612 2.394-3.612 1.281 0 2.415 1.239 2.415 3.36 0 1.512-.588 3.654-2.394 3.654ZM204.847 143.21c1.008 0 2.247-1.827 3.297-4.326-.315 1.512-.588 2.814-.588 3.15 0 .798.42 1.176 1.008 1.176.693 0 1.617-.462 2.436-1.197l-.504-.441c-.462.483-.798.672-1.008.672-.189 0-.273-.168-.273-.462 0-.987 1.239-6.552 1.743-8.022h-1.722c-.924 3.381-2.646 7.896-3.717 7.896-.42 0-.672-.777-.672-1.827 0-1.722.756-4.683 1.239-6.069l-.819-.21c-.567.693-1.47 1.407-2.289 1.785l-.147.756 1.197-.672c-.441 1.386-.861 3.465-.861 4.956 0 1.554.42 2.835 1.68 2.835ZM212.701 143h1.638l.021-.147c.903-3.339 1.785-7.161 3.192-7.833.462 0 1.092.546 1.659 1.197.693-.273 1.197-.672 1.512-1.26-.735-1.05-1.386-1.407-2.709-1.407-1.176.42-1.995 1.995-2.73 4.2.357-1.785.693-3.465.861-3.99l-.399-.21c-.609.714-2.037 1.617-2.856 1.995l-.147.756 1.26-.567c0 .777-1.176 6.888-1.302 7.266ZM224.713 147.389l-.231.966c5.502 0 8.274-2.961 8.274-5.376 0-1.344-.861-2.52-2.583-2.94l5.208-5.964.063-.315h-6.279l-2.52 2.772.42.378c.756-.777 1.722-1.512 2.898-1.512h2.709l-5.649 6.111-.063.315c.546-.147 1.05-.231 1.491-.231 1.659 0 2.583.987 2.583 2.121 0 1.659-1.932 3.675-6.321 3.675ZM238.888 143.21c.777 0 1.302-.273 2.331-.861l1.995-2.163-.357-.252c-1.722 1.848-2.793 1.974-3.213 1.974-1.386 0-2.205-1.092-2.373-2.583l6.258-1.848c0-1.911-.483-3.927-2.772-3.927-3.171 0-5.019 3.297-5.019 6.174 0 2.1 1.155 3.486 3.15 3.486Zm-1.659-4.767c.063-1.386.504-3.507 2.562-3.507 1.176 0 1.848.987 2.079 2.205l-4.641 1.302ZM251.173 143.21c.693 0 1.617-.462 2.436-1.197l-.504-.441c-.462.483-.798.672-1.008.672-.189 0-.273-.168-.273-.462 0-.273.903-5.208.903-6.426 0-1.176-.441-1.806-1.302-1.806-1.47 0-2.919 1.995-4.074 4.662.441-1.974.903-3.906 1.071-4.452l-.42-.21c-.588.714-2.016 1.617-2.856 1.995l-.147.756 1.26-.567c-.252 2.667-.462 3.885-1.302 7.266h1.428c.924-3.381 2.667-7.707 3.948-7.707.525 0 .651.693.651 1.26 0 1.071-.819 4.725-.819 5.481 0 .798.42 1.176 1.008 1.176ZM255.688 142.034c0 .798.42 1.176 1.008 1.176.693 0 1.617-.462 2.436-1.197l-.504-.441c-.462.483-.798.672-1.008.672-.189 0-.273-.168-.273-.462 0-1.89 1.092-6.216 1.701-8.022l-.42-.21c-.546.714-2.457 1.659-3.318 1.869l-.147.756 1.617-.525c-.147.546-1.092 4.305-1.092 6.384Zm3.423-10.689c.63 0 1.281-.546 1.281-1.239 0-.483-.378-.861-.882-.861-.672 0-1.26.609-1.26 1.281 0 .462.357.819.861.819ZM263.605 143.21c1.302 0 2.73-1.176 3.276-1.743l-.357-.525c-.84.63-1.554.903-2.1.903-.819 0-1.365-.588-1.365-1.386 0-.819.777-4.347 1.113-5.754h2.793l.189-.945h-2.772c.189-.924.378-1.743.63-2.331l-.483-.168c-.672 1.05-1.512 2.289-2.793 2.499l-.189.945h1.113c-.357 1.512-1.26 5.649-1.26 6.636 0 1.239.609 1.869 2.205 1.869ZM268.33 143h1.701c.924-3.381 2.667-7.686 4.41-7.686 1.155 0 1.491 1.134 1.491 2.163 0 2.037-1.89 4.221-4.116 4.767l-.147.756h4.515l.147-.756c-.798 0-1.617-.063-1.995-.168 1.722-1.407 3.003-3.465 3.003-5.544 0-2.121-.819-2.961-2.058-2.961-1.743-.021-3.36 2.331-4.557 5.334.756-3.822 1.869-8.988 2.31-10.29l-.399-.21c-.609.714-2.31 1.659-3.15 2.037l-.147.756 1.323-.441c-.483 3.171-1.638 9.261-2.331 12.243ZM279.397 143.21l1.659-1.596-1.05-1.554-1.617 1.554z"/></g></svg>