<svg xmlns="http://www.w3.org/2000/svg" width="461" height="150"><g fill="#E7E6DF" fill-rule="nonzero"><path d="M1 32.457V34h13.029C20.472 34 24 28.695 24 23.487c0-4.003-2.07-7.91-6.49-9.308 2.257-1.688 3.48-4.148 3.48-6.56C20.99 3.763 17.838 0 10.736 0H1v1.543c1.6 0 2.87.53 2.963 2.46.141 2.893.141 6.51.141 10.369 0 5.594-.047 11.43-.282 15.866-.094 1.736-1.505 2.219-2.822 2.219ZM8 17.72V16h3.742C17.69 16 21 20.623 21 24.754 21 28.05 18.89 31 14.332 31h-6.14C8.048 26.623 8 22.098 8 17.721ZM8 14c.048-3.8.19-7.55.429-11H11c5.048 0 7 3.1 7 6 0 2.55-1.476 5-4.619 5H8ZM34.894 34c3.411 0 6.481-2.965 8.528-5.643-.05 2.343-.098 4.304-.195 5.165l1.072.478c1.072-1.626 3.947-3.683 5.701-4.543v-1.722l-2.631 1.291c-.147-1.339-.244-5.07-.244-8.704 0-3.109.097-6.218.341-7.844L45.468 12c-1.023 1.578-2.777 3.204-4.532 4.065v1.722l2.486-1.53c.097 1.052.097 2.965.097 5.213l-.049 3.73c-2.095 2.583-4.824 5.26-6.92 5.26-2.923 0-3.605-4.877-3.605-9.564 0-4.066.39-7.27.585-8.418L31.532 12c-1.024 1.578-2.778 3.204-4.532 4.065v1.722l2.485-1.53a41.713 41.713 0 0 0-.292 5.021c0 5.548 1.072 12.722 5.701 12.722ZM61.271 34c2.897 0 5.56-2.657 6.495-3.938l-.981-1.187c-1.635 1.424-3.084 2.04-4.299 2.04-2.103 0-3.738-1.803-3.738-4.033V21.52c0-2.23 0-4.745.093-6.738H68v-2.135h-9.112c0-2.088.14-3.939.42-5.267L58.14 7c-1.028 2.373-2.383 5.172-5.14 5.647v2.135h2.477c-.14 3.274-.187 9.016-.187 12.1 0 4.745 1.355 7.118 5.981 7.118ZM91.271 34c2.897 0 5.56-2.657 6.495-3.938l-.981-1.187c-1.635 1.424-3.084 2.04-4.299 2.04-2.103 0-3.738-1.803-3.738-4.033V21.52c0-2.23 0-4.745.093-6.738H98v-2.135h-9.112c0-2.088.14-3.939.42-5.267L88.14 7c-1.028 2.373-2.383 5.172-5.14 5.647v2.135h2.477c-.14 3.274-.187 9.016-.187 12.1 0 4.745 1.355 7.118 5.981 7.118ZM100.195 33h9.67v-1.71c-2.15 0-2.98-.474-3.126-2.184l-.049-3.133v-7.787c2.1-1.662 4.59-2.47 6.837-2.47 3.564 0 6.543 2.09 6.543 6.316 0 3.75-2.686 8.024-7.569 9.259V33H123v-1.71c-1.856 0-3.809-.142-4.737-.38 3.32-3.133 4.737-6.837 4.737-10.16 0-5.983-3.955-9.117-8.448-9.117-2.686 0-5.518 1.14-7.813 3.466.049-6.03.244-11.823.684-14.624L106.397 0c-1.074 1.614-4.639 3.751-6.397 4.606v1.71l2.881-.998c.195 4.51.293 10.778.293 16.381l-.098 7.407c0 1.71-1.172 2.185-2.88 2.185V33ZM137.305 34c1.807 0 3.32-.622 5.762-1.96l3.663-4.927-.928-.574c-3.174 4.209-6.349 4.496-7.325 4.496-3.76 0-7.18-3.396-8.156-7.652H148V21.23h-.781c-1.075-4.447-4.493-9.23-9.914-9.23C131.15 12 127 17.022 127 23.096 127 29.504 131.347 34 137.305 34ZM130 21v-.236c0-3.118 1.613-5.764 5.409-5.764 3.036 0 6.405 2.835 7.591 6h-13ZM165.198 46h3.857a2599.332 2599.332 0 0 1 12.37-29.194c.847-2.024 1.694-2.072 3.575-2.072V13h-7.62v1.734c1.27 0 1.882.627 1.882 1.446 0 .24-.047.53-.141.77l-4.939 12.044-4.515-11.417a2.42 2.42 0 0 1-.188-1.012c0-1.012.705-1.83 1.693-1.83V13H162v1.734c2.117 0 2.681.193 3.81 2.843l6.538 15.416L165.198 46ZM198 34c6.209 0 10-5.07 10-10.857C208 17.357 204.256 12 198 12c-6.209 0-10 5.309-10 11.143C188 29.026 191.791 34 198 34Zm1.72-2c-5.373 0-8.72-5.91-8.72-10.747 0-3.37 1.65-6.253 5.374-6.253 5.515 0 8.626 5.96 8.626 10.65 0 3.419-1.65 6.35-5.28 6.35ZM220.055 29.506c4.79 0 9.676-2.893 9.676-8.68 0-2.46-.854-4.63-2.276-6.174l1.47.049c1.945 0 3.652-.193 5.075-.627v-1.785a26.537 26.537 0 0 1-5.075.483c-1.565 0-3.32-.145-5.312-.434-.76-.242-1.613-.338-2.514-.338-5.834 0-10.15 4.003-10.15 9.452 0 3.859 2.324 6.318 5.36 7.427-.333 1.399-.902 3.232-1.471 4.244l.711 1.303c1.234-.242 2.514-.338 3.842-.338 6.119 0 11.336 2.652 11.336 5.787 0 2.267-2.988 3.714-7.778 3.714-5.692 0-10.293-2.46-10.293-5.546 0-.483.095-1.013.285-1.592l-1.328-.723c-1.091 1.254-1.613 2.556-1.613 3.906 0 3.81 4.269 6.366 10.72 6.366 7.446 0 13.28-3.328 13.28-7.62 0-4.05-5.17-6.703-13.043-6.703l-1.613.096c.095-.723.284-1.495.569-2.267h.142ZM222.322 26c-5.063 0-9.322-2.811-9.322-6.175 0-2.35 2.271-3.825 5.915-3.825 5.016 0 9.085 2.765 9.085 6.129 0 2.35-2.224 3.871-5.678 3.871ZM235.195 33h9.67v-1.71c-2.15 0-2.98-.474-3.126-2.184l-.049-3.133v-7.787c2.1-1.662 4.59-2.47 6.837-2.47 3.564 0 6.543 2.09 6.543 6.316 0 3.75-2.686 8.024-7.569 9.259V33H258v-1.71c-1.856 0-3.809-.142-4.737-.38 3.32-3.133 4.737-6.837 4.737-10.16 0-5.983-3.955-9.117-8.448-9.117-2.686 0-5.518 1.14-7.813 3.466.049-6.03.244-11.823.684-14.624L241.397 0c-1.074 1.614-4.639 3.751-6.397 4.606v1.71l2.881-.998c.195 4.51.293 10.778.293 16.381l-.098 7.407c0 1.71-1.172 2.185-2.88 2.185V33ZM268.894 34c3.411 0 6.481-2.965 8.528-5.643-.05 2.343-.098 4.304-.195 5.165l1.072.478c1.072-1.626 3.947-3.683 5.701-4.543v-1.722l-2.631 1.291c-.147-1.339-.244-5.07-.244-8.704 0-3.109.097-6.218.341-7.844L279.468 12c-1.023 1.578-2.777 3.204-4.532 4.065v1.722l2.486-1.53c.097 1.052.097 2.965.097 5.213l-.049 3.73c-2.095 2.583-4.824 5.26-6.92 5.26-2.923 0-3.605-4.877-3.605-9.564 0-4.066.39-7.27.585-8.418L265.532 12c-1.024 1.578-2.778 3.204-4.532 4.065v1.722l2.485-1.53a41.713 41.713 0 0 0-.292 5.021c0 5.548 1.072 12.722 5.701 12.722ZM288 34h9.659v-1.76c-2.147 0-2.879-.489-3.025-2.249l-.049-5.231v-3.471c1.756-3.031 4.244-5.133 5.805-5.769 1.659 0 3.073 1.173 4.683 2.689 1.464-.636 2.44-1.565 2.927-2.933-2.195-2.445-3.854-3.276-6.927-3.276-2.975 1.027-5.17 3.911-6.488 6.258.05-2.64.098-4.791.195-5.77L293.756 12c-1.073 1.662-4 3.764-5.756 4.644v1.76l2.683-1.32c.293.636.341 5.232.341 9.583v3.47c-.146 1.614-1.365 2.103-3.024 2.103V34ZM317.271 34c2.897 0 5.56-2.657 6.495-3.938l-.981-1.187c-1.635 1.424-3.084 2.04-4.299 2.04-2.103 0-3.738-1.803-3.738-4.033V21.52c0-2.23 0-4.745.093-6.738H324v-2.135h-9.112c0-2.088.14-3.939.42-5.267L314.14 7c-1.028 2.373-2.383 5.172-5.14 5.647v2.135h2.477c-.14 3.274-.187 9.016-.187 12.1 0 4.745 1.355 7.118 5.981 7.118ZM335.403 34c4.14 0 7.597-2.152 7.597-6.217 0-3.013-2.679-4.21-5.357-5.405-2.679-1.195-5.406-2.439-5.406-5.595 0-1.674 1.558-2.63 3.312-2.63 1.51 0 3.165.669 4.285 2.056v1.913h1.754v-3.73c-2.338-1.435-4.432-2.392-6.77-2.392-3.506 0-6.428 1.96-6.428 5.883 0 4.304 3.409 5.882 6.428 7.221 2.29 1.005 4.335 1.961 4.335 3.922S337.545 31.8 335.5 31.8c-1.948 0-4.237-.765-5.747-2.009v-1.913H328v3.587c1.997 1.626 4.773 2.535 7.403 2.535ZM366.477 34h1.443c2.597-4.4 4.618-8.8 6.061-13.2l5.051 13.2h.722c7.6-4.889 10.246-9.973 10.246-14.911 0-4.009-1.972-7.089-4.859-7.089-1.924 0-4.137 1.173-6.446 4.253l.674 1.223c1.491-.93 2.838-1.32 3.993-1.32 2.357 0 3.607 1.955 3.607 4.497 0 3.13-1.972 7.187-6.109 9.387-2.26-5.28-4.57-10.804-5.436-14.324l.626-3.227h-2.165c-.77 5.573-2.502 11.098-5.34 16.622-2.838-6.209-4.137-9.484-4.137-12.467 0-1.368.289-2.64.866-4.155L364.071 12c-1.635 2.004-4.521 4.596-7.071 6.013v1.711l3.03-1.515L366.478 34ZM404.305 34c1.807 0 3.32-.622 5.762-1.96l3.663-4.927-.928-.574c-3.174 4.209-6.349 4.496-7.325 4.496-3.76 0-7.18-3.396-8.156-7.652H415V21.23h-.781c-1.075-4.447-4.493-9.23-9.914-9.23C398.15 12 394 17.022 394 23.096 394 29.504 398.347 34 404.305 34ZM397 21v-.236c0-3.118 1.613-5.764 5.409-5.764 3.036 0 6.405 2.835 7.591 6h-13ZM418 34h9.659v-1.76c-2.147 0-2.879-.489-3.025-2.249l-.049-5.231v-3.471c1.756-3.031 4.244-5.133 5.805-5.769 1.659 0 3.073 1.173 4.683 2.689 1.464-.636 2.44-1.565 2.927-2.933-2.195-2.445-3.854-3.276-6.927-3.276-2.975 1.027-5.17 3.911-6.488 6.258.05-2.64.098-4.791.195-5.77L423.756 12c-1.073 1.662-4 3.764-5.756 4.644v1.76l2.683-1.32c.293.636.341 5.232.341 9.583v3.47c-.146 1.614-1.365 2.103-3.024 2.103V34ZM450.305 34c1.807 0 3.32-.622 5.762-1.96l3.663-4.927-.928-.574c-3.174 4.209-6.349 4.496-7.325 4.496-3.76 0-7.18-3.396-8.156-7.652H461V21.23h-.781c-1.075-4.447-4.493-9.23-9.914-9.23C444.15 12 440 17.022 440 23.096 440 29.504 444.347 34 450.305 34ZM443 21v-.236c0-3.118 1.613-5.764 5.409-5.764 3.036 0 6.405 2.835 7.591 6h-13ZM.198 91H10v-1.71c-2.178 0-3.02-.474-3.168-2.184l-.05-3.133c0-8.262 0-20.94.743-25.498L6.485 58C5.396 59.614 1.782 61.751 0 62.606v1.71l2.92-.998c.199 4.51.298 10.778.298 16.381l-.1 7.407c0 1.71-1.187 2.185-2.92 2.185V91ZM23 92c6.209 0 10-5.07 10-10.857C33 75.357 29.256 70 23 70c-6.209 0-10 5.309-10 11.143C13 87.026 16.791 92 23 92Zm1.72-2C19.348 90 16 84.09 16 79.253 16 75.883 17.65 73 21.374 73 26.889 73 30 78.96 30 83.65c0 3.419-1.65 6.35-5.28 6.35ZM49.236 91.522l1.07.478c1.071-1.626 3.942-3.683 5.694-4.543v-1.722l-3.212 1.77V80.33c0-7.03-2.87-10.33-7.98-10.33-2.287 0-4.818 1.148-7.105 3.54l.633 1.434c1.8-1.052 3.26-1.53 4.525-1.53 3.163 0 4.866 1.673 5.742 4.639l-12.262 5.165A14.751 14.751 0 0 0 36 86.357C36 89.178 37.557 92 41.401 92c2.093 0 5.743-2.917 7.932-5.117l-.097 4.639ZM40 85.535c0-.554.094-1.057.33-1.61L48.717 80c.189 1.409.283 3.07.283 4.83-2.073 1.962-4.618 3.17-6.503 3.17-1.46 0-2.497-.755-2.497-2.465ZM68.027 92c2.851 0 5.037-1.061 6.605-2.797l-.237 2.315L75.44 92c1.046-1.64 3.85-3.713 5.56-4.582v-1.736l-3.041 1.592c-.095-.434-.095-.965-.095-3.81 0-8.392.332-20.352.807-24.982L77.674 58c-1.046 1.64-4.515 3.81-6.226 4.678v1.736l2.804-1.013c.238 3.328.475 7.572.57 11.816-2.138-3.858-4.847-5.401-7.413-5.401-4.895 0-9.409 5.45-9.409 11.236C58 86.984 61.802 92 68.027 92ZM61 79.084C61 75.204 63.867 73 66.543 73c2.867 0 6.641 2.108 8.457 5.7v1.39c0 2.587-.048 4.694-.096 6.371C73.758 88.041 71.846 89 69.696 89 65.778 89 61 85.263 61 79.084ZM94.305 92c1.807 0 3.32-.622 5.762-1.96l3.663-4.927-.928-.574c-3.174 4.209-6.349 4.496-7.325 4.496-3.76 0-7.18-3.396-8.156-7.652H105V79.23h-.781c-1.075-4.447-4.493-9.23-9.914-9.23C88.15 70 84 75.022 84 81.096 84 87.504 88.347 92 94.305 92ZM87 79v-.236C87 75.646 88.613 73 92.409 73c3.036 0 6.405 2.835 7.591 6H87ZM119.027 92c2.851 0 5.037-1.061 6.605-2.797l-.237 2.315 1.045.482c1.046-1.64 3.85-3.713 5.56-4.582v-1.736l-3.041 1.592c-.095-.434-.095-.965-.095-3.81 0-8.392.332-20.352.807-24.982l-.997-.482c-1.046 1.64-4.515 3.81-6.226 4.678v1.736l2.804-1.013c.238 3.328.475 7.572.57 11.816-2.138-3.858-4.847-5.401-7.413-5.401-4.895 0-9.409 5.45-9.409 11.236C109 86.984 112.802 92 119.027 92ZM112 79.084c0-3.88 2.867-6.084 5.543-6.084 2.867 0 6.641 2.108 8.457 5.7v1.39c0 2.587-.048 4.694-.096 6.371-1.146 1.58-3.058 2.539-5.208 2.539-3.918 0-8.696-3.737-8.696-9.916ZM155.477 92h1.443c2.597-4.4 4.618-8.8 6.061-13.2l5.051 13.2h.722c7.6-4.889 10.246-9.973 10.246-14.911 0-4.009-1.972-7.089-4.859-7.089-1.924 0-4.137 1.173-6.446 4.253l.674 1.223c1.491-.93 2.838-1.32 3.993-1.32 2.357 0 3.607 1.955 3.607 4.497 0 3.13-1.972 7.187-6.109 9.387-2.26-5.28-4.57-10.804-5.436-14.324l.626-3.227h-2.165c-.77 5.573-2.502 11.098-5.34 16.622-2.838-6.209-4.137-9.484-4.137-12.467 0-1.368.289-2.64.866-4.155L153.071 70c-1.635 2.004-4.521 4.596-7.071 6.013v1.711l3.03-1.515L155.478 92ZM183.495 91H194v-1.68c-2.18 0-3.27-.467-3.419-2.1l-.05-10.08c0-3.127.347-5.647.496-6.673l-1.04-.467c-.992 1.587-5.055 3.687-6.987 4.153v1.68l3.568-1.166c.198 1.213.346 7.84.346 12.366v.187c0 1.633-1.684 2.1-3.419 2.1V91Zm5.005-26c1.35 0 2.5-1.1 2.5-2.5 0-1.35-1.15-2.5-2.5-2.5-1.4 0-2.5 1.15-2.5 2.5 0 1.4 1.1 2.5 2.5 2.5ZM204.271 92c2.897 0 5.56-2.657 6.495-3.938l-.981-1.187c-1.635 1.424-3.084 2.04-4.299 2.04-2.103 0-3.738-1.803-3.738-4.033V79.52c0-2.23 0-4.745.093-6.738H211v-2.135h-9.112c0-2.088.14-3.939.42-5.267L201.14 65c-1.028 2.373-2.383 5.172-5.14 5.647v2.135h2.477c-.14 3.274-.187 9.016-.187 12.1 0 4.745 1.355 7.118 5.981 7.118ZM213.195 91h9.67v-1.71c-2.15 0-2.98-.474-3.126-2.184l-.049-3.133v-7.787c2.1-1.662 4.59-2.47 6.837-2.47 3.564 0 6.543 2.09 6.543 6.316 0 3.75-2.686 8.024-7.569 9.259V91H236v-1.71c-1.856 0-3.809-.142-4.737-.38 3.32-3.133 4.737-6.837 4.737-10.16 0-5.983-3.955-9.117-8.448-9.117-2.686 0-5.518 1.14-7.813 3.466.049-6.03.244-11.823.684-14.624L219.397 58c-1.074 1.614-4.639 3.751-6.397 4.606v1.71l2.881-.998c.195 4.51.293 10.778.293 16.381l-.098 7.407c0 1.71-1.172 2.185-2.88 2.185V91ZM251.195 91h9.67v-1.71c-2.15 0-2.98-.474-3.126-2.184l-.049-3.133v-7.787c2.1-1.662 4.59-2.47 6.837-2.47 3.564 0 6.543 2.09 6.543 6.316 0 3.75-2.686 8.024-7.569 9.259V91H274v-1.71c-1.856 0-3.809-.142-4.737-.38 3.32-3.133 4.737-6.837 4.737-10.16 0-5.983-3.955-9.117-8.448-9.117-2.686 0-5.518 1.14-7.813 3.466.049-6.03.244-11.823.684-14.624L257.397 58c-1.074 1.614-4.639 3.751-6.397 4.606v1.71l2.881-.998c.195 4.51.293 10.778.293 16.381l-.098 7.407c0 1.71-1.172 2.185-2.88 2.185V91ZM288.305 92c1.807 0 3.32-.622 5.762-1.96l3.663-4.927-.928-.574c-3.174 4.209-6.349 4.496-7.325 4.496-3.76 0-7.18-3.396-8.156-7.652H299V79.23h-.781c-1.075-4.447-4.493-9.23-9.914-9.23C282.15 70 278 75.022 278 81.096 278 87.504 282.347 92 288.305 92ZM281 79v-.236c0-3.118 1.613-5.764 5.409-5.764 3.036 0 6.405 2.835 7.591 6h-13ZM303 92h9.659v-1.76c-2.147 0-2.879-.489-3.025-2.249l-.049-5.231v-3.471c1.756-3.031 4.244-5.133 5.805-5.769 1.659 0 3.073 1.173 4.683 2.689 1.464-.636 2.44-1.565 2.927-2.933-2.195-2.445-3.854-3.276-6.927-3.276-2.975 1.027-5.17 3.911-6.488 6.258.05-2.64.098-4.791.195-5.77L308.756 70c-1.073 1.662-4 3.764-5.756 4.644v1.76l2.683-1.32c.293.636.341 5.232.341 9.583v3.47c-.146 1.614-1.365 2.103-3.024 2.103V92ZM335.148 92c5.548 0 9.852-4.63 9.852-12.443 0-4.63-2.248-9.741-6.552-9.741-2.152 0-4.305 1.736-6.313 4.195l.67 1.206c1.243-.868 2.534-1.254 3.778-1.254 3.3 0 6.121 2.99 6.121 7.282 0 5.354-3.013 7.62-6.17 7.62-2.63 0-5.308-1.543-6.504-4.195 0-6.318 0-17.99 1.674-26.188L330.51 58c-1.722 1.88-4.926 4.533-7.509 5.835v1.737l3.778-1.833.048 3.472c0 7.33-.096 16.494-.765 21.027 3.109 2.46 6.265 3.762 9.087 3.762ZM361.236 91.522l1.07.478c1.071-1.626 3.942-3.683 5.694-4.543v-1.722l-3.212 1.77V80.33c0-7.03-2.87-10.33-7.98-10.33-2.287 0-4.818 1.148-7.105 3.54l.633 1.434c1.8-1.052 3.26-1.53 4.525-1.53 3.163 0 4.866 1.673 5.742 4.639l-12.262 5.165a14.751 14.751 0 0 0-.341 3.109c0 2.821 1.557 5.643 5.401 5.643 2.093 0 5.743-2.917 7.932-5.117l-.097 4.639ZM352 85.535c0-.554.094-1.057.33-1.61L360.717 80c.189 1.409.283 3.07.283 4.83-2.073 1.962-4.618 3.17-6.503 3.17-1.46 0-2.497-.755-2.497-2.465ZM369.198 91H379v-1.71c-2.178 0-3.02-.474-3.168-2.184l-.05-3.133c0-8.262 0-20.94.743-25.498l-1.04-.475c-1.089 1.614-4.703 3.751-6.485 4.606v1.71l2.92-.998c.199 4.51.298 10.778.298 16.381l-.1 7.407c0 1.71-1.187 2.185-2.92 2.185V91ZM402.34 92c3.803 0 7.703-2.631 11.313-6.506 3.9 3.588 7.414 6.506 8.81 6.506L428 88.412l-.915-1.244c-1.3.91-2.744 1.866-4.14 1.866-1.589 0-4.525-2.296-7.655-5.31 3.707-4.401 7.125-9.95 9.918-15.07.481-.86 1.637-1.961 2.792-1.961V64.97h-7.27v1.722c1.156 0 2.456.096 2.456 1.052 0 .144-.048.287-.097.43-2.984 5.98-6.306 10.573-9.484 13.874-3.177-3.205-6.355-6.793-8.473-9.233 4.285-.765 5.97-3.348 5.97-5.884 0-4.018-2.985-5.932-6.066-5.932-3.226 0-6.5 2.105-6.5 6.22 0 1.626.578 3.348 1.734 4.735-4.96 2.488-7.27 6.841-7.27 10.86 0 4.832 3.37 9.185 9.34 9.185ZM397 82.029c0-3.201 1.661-6.927 4.788-9.029 2.15 2.245 6.205 6.449 10.212 10.27-3.664 3.201-7.134 4.73-9.82 4.73-3.519 0-5.18-2.723-5.18-5.971Zm5-14.128c0-2.37 2.11-3.901 4.027-3.901 1.583 0 2.973 1.037 2.973 3.457 0 1.926-2.014 4-5.034 4.543-1.439-1.53-1.966-2.914-1.966-4.099ZM9.477 150h1.443c2.597-4.4 4.618-8.8 6.061-13.2l5.051 13.2h.722c7.6-4.889 10.246-9.973 10.246-14.911 0-4.009-1.972-7.089-4.859-7.089-1.924 0-4.137 1.173-6.446 4.253l.674 1.223c1.491-.93 2.838-1.32 3.993-1.32 2.357 0 3.607 1.955 3.607 4.497 0 3.13-1.972 7.187-6.109 9.387-2.26-5.28-4.57-10.804-5.436-14.324l.626-3.227h-2.165c-.77 5.573-2.502 11.098-5.34 16.622-2.838-6.209-4.137-9.484-4.137-12.467 0-1.368.289-2.64.866-4.155L7.071 128c-1.635 2.004-4.521 4.596-7.071 6.013v1.711l3.03-1.515L9.478 150ZM37.495 149H48v-1.68c-2.18 0-3.27-.467-3.419-2.1l-.05-10.08c0-3.127.347-5.647.496-6.673l-1.04-.467c-.992 1.587-5.055 3.687-6.987 4.153v1.68l3.568-1.166c.198 1.213.346 7.84.346 12.366v.187c0 1.633-1.684 2.1-3.419 2.1V149Zm5.005-26c1.35 0 2.5-1.1 2.5-2.5 0-1.35-1.15-2.5-2.5-2.5-1.4 0-2.5 1.15-2.5 2.5 0 1.4 1.1 2.5 2.5 2.5ZM65.582 150H75v-1.76c-2.151 0-2.82-.489-2.82-2.2-.049-13.591-1.96-18.04-6.55-18.04-3.204 0-6.12 2.347-8.128 4.791 0-1.955.048-3.52.143-4.302L56.641 128c-1.051 1.662-3.92 3.764-5.641 4.644v1.76l2.63-1.32c.286.587.382 5.623.382 10.072v2.884c-.143 1.711-1.339 2.2-3.012 2.2V150h9.466v-1.76c-2.103 0-2.82-.489-2.964-2.249l-.048-5.231v-5.28c1.96-1.956 4.255-3.276 6.215-3.276 3.443 0 4.877 3.57 4.877 13.347v.538c0 1.662-.622 2.151-2.964 2.151V150ZM85.271 150c2.897 0 5.56-2.657 6.495-3.938l-.981-1.187c-1.635 1.424-3.084 2.04-4.299 2.04-2.103 0-3.738-1.803-3.738-4.033v-5.362c0-2.23 0-4.745.093-6.738H92v-2.135h-9.112c0-2.088.14-3.939.42-5.267L82.14 123c-1.028 2.373-2.383 5.172-5.14 5.647v2.135h2.477c-.14 3.274-.187 9.016-.187 12.1 0 4.745 1.355 7.118 5.981 7.118ZM105.305 150c1.807 0 3.32-.622 5.762-1.96l3.663-4.927-.928-.574c-3.174 4.209-6.349 4.496-7.325 4.496-3.76 0-7.18-3.396-8.156-7.652H116v-2.153h-.781c-1.075-4.447-4.493-9.23-9.914-9.23C99.15 128 95 133.022 95 139.096 95 145.504 99.347 150 105.305 150ZM98 137v-.236c0-3.118 1.613-5.764 5.409-5.764 3.036 0 6.405 2.835 7.591 6H98ZM120 150h9.659v-1.76c-2.147 0-2.879-.489-3.025-2.249l-.049-5.231v-3.471c1.756-3.031 4.244-5.133 5.805-5.769 1.659 0 3.073 1.173 4.683 2.689 1.464-.636 2.44-1.565 2.927-2.933-2.195-2.445-3.854-3.276-6.927-3.276-2.975 1.027-5.17 3.911-6.488 6.258.05-2.64.098-4.791.195-5.77l-1.024-.488c-1.073 1.662-4 3.764-5.756 4.644v1.76l2.683-1.32c.293.636.341 5.232.341 9.583v3.47c-.146 1.614-1.365 2.103-3.024 2.103V150ZM153.195 149h9.67v-1.71c-2.15 0-2.98-.474-3.126-2.184l-.049-3.133v-7.787c2.1-1.662 4.59-2.47 6.837-2.47 3.564 0 6.543 2.09 6.543 6.316 0 3.75-2.686 8.024-7.569 9.259V149H176v-1.71c-1.856 0-3.809-.142-4.737-.38 3.32-3.133 4.737-6.837 4.737-10.16 0-5.983-3.955-9.117-8.448-9.117-2.686 0-5.518 1.14-7.813 3.466.049-6.03.244-11.823.684-14.624l-1.026-.475c-1.074 1.614-4.639 3.751-6.397 4.606v1.71l2.881-.998c.195 4.51.293 10.778.293 16.381l-.098 7.407c0 1.71-1.172 2.185-2.88 2.185V149ZM190.305 150c1.807 0 3.32-.622 5.762-1.96l3.663-4.927-.928-.574c-3.174 4.209-6.349 4.496-7.325 4.496-3.76 0-7.18-3.396-8.156-7.652H201v-2.153h-.781c-1.075-4.447-4.493-9.23-9.914-9.23-6.154 0-10.305 5.022-10.305 11.096 0 6.408 4.347 10.904 10.305 10.904ZM183 137v-.236c0-3.118 1.613-5.764 5.409-5.764 3.036 0 6.405 2.835 7.591 6h-13ZM205 150h9.659v-1.76c-2.147 0-2.879-.489-3.025-2.249l-.049-5.231v-3.471c1.756-3.031 4.244-5.133 5.805-5.769 1.659 0 3.073 1.173 4.683 2.689 1.464-.636 2.44-1.565 2.927-2.933-2.195-2.445-3.854-3.276-6.927-3.276-2.975 1.027-5.17 3.911-6.488 6.258.05-2.64.098-4.791.195-5.77l-1.024-.488c-1.073 1.662-4 3.764-5.756 4.644v1.76l2.683-1.32c.293.636.341 5.232.341 9.583v3.47c-.146 1.614-1.365 2.103-3.024 2.103V150ZM236.148 150c5.548 0 9.852-4.63 9.852-12.443 0-4.63-2.248-9.741-6.552-9.741-2.152 0-4.305 1.736-6.313 4.195l.67 1.206c1.243-.868 2.534-1.254 3.778-1.254 3.3 0 6.121 2.99 6.121 7.282 0 5.354-3.013 7.62-6.17 7.62-2.63 0-5.308-1.543-6.504-4.195 0-6.318 0-17.99 1.674-26.188L231.51 116c-1.722 1.88-4.926 4.533-7.509 5.835v1.737l3.778-1.833.048 3.472c0 7.33-.096 16.494-.765 21.027 3.109 2.46 6.265 3.762 9.087 3.762ZM257.403 150c4.14 0 7.597-2.152 7.597-6.217 0-3.013-2.679-4.21-5.357-5.405-2.679-1.195-5.406-2.439-5.406-5.595 0-1.674 1.558-2.63 3.312-2.63 1.51 0 3.165.669 4.285 2.056v1.913h1.754v-3.73c-2.338-1.435-4.432-2.392-6.77-2.392-3.506 0-6.428 1.96-6.428 5.883 0 4.304 3.409 5.882 6.428 7.221 2.29 1.005 4.335 1.961 4.335 3.922s-1.608 2.774-3.653 2.774c-1.948 0-4.237-.765-5.747-2.009v-1.913H250v3.587c1.997 1.626 4.773 2.535 7.403 2.535ZM272.453 150l3.547-3.547-3.547-3.453-3.453 3.453z"/></g></svg>