<?xml version="1.0" encoding="UTF-8"?>
<svg width="320px" height="40px" viewBox="0 0 320 40" version="1.1" xmlns="http://www.w3.org/2000/svg" xmlns:xlink="http://www.w3.org/1999/xlink">
    <title>apium-latin-black</title>
    <g id="_exports" stroke="none" stroke-width="1" fill="none" fill-rule="evenodd">
        <g id="Apium" transform="translate(-1401, -686)">
            <g id="apium-styles" transform="translate(0, 686)">
                <g id="apium-latin-black" transform="translate(1401, 0)">
                    <rect id="Rectangle-Copy-4" fill="#F7DF88" opacity="0" x="0" y="0" width="320" height="40"></rect>
                    <g transform="translate(2.64, 6.96)" fill="#424345" fill-rule="nonzero">
                        <path d="M11.008,23.68 C15.264,23.68 18.304,21.12 18.304,16.32 L18.304,3.2 L19.904,2.88 L19.904,1.28 L15.424,1.28 L15.424,2.88 L17.024,3.2 L17.024,15.04 C17.024,17.632 16.672,22.272 12.512,22.272 C9.088,22.272 8,18.912 8,16.32 L8,1.28 L0,1.28 L0,2.88 L1.6,3.2 L1.6,15.04 C1.6,20.48 5.376,23.68 11.008,23.68 Z" id="Path"></path>
                        <path d="M32.032,23.04 L41.632,23.04 L41.632,21.44 L39.712,21.12 L39.712,15.04 C39.712,8.832 38.048,6.4 34.112,6.4 C32.096,6.4 30.464,7.776 29.344,9.312 L29.344,7.04 L21.344,7.04 L21.344,8.64 L22.944,8.96 L22.944,21.12 L21.344,21.44 L21.344,23.04 L30.88,23.04 L30.88,21.44 L29.344,21.12 L29.344,11.104 C29.856,9.76 30.624,8.64 31.552,8.64 C33.312,8.64 33.312,11.328 33.312,13.76 L33.312,21.12 L32.032,21.44 L32.032,23.04 Z" id="Path"></path>
                        <path d="M50.976,23.68 C53.824,23.68 58.144,22.88 58.144,18.752 C58.144,14.304 49.472,14.528 49.472,9.472 C49.472,8.224 50.4,7.36 51.616,7.36 C54.208,7.36 54.624,10.112 54.624,11.84 L57.184,11.84 L57.184,7.04 L56.224,7.04 C56.224,7.648 56.192,8.224 56.128,8.672 C54.848,7.104 52.64,6.4 50.56,6.4 C47.456,6.4 43.072,7.456 43.072,11.776 C43.072,16.448 51.744,16.992 51.744,20.992 C51.744,22.304 50.432,22.72 49.44,22.72 C46.848,22.72 45.632,20.576 45.632,18.4 L43.072,18.4 L43.072,23.04 L44.032,23.04 C44.032,22.464 44.064,21.92 44.128,21.472 C45.696,23.296 48.736,23.68 50.976,23.68 Z" id="Path"></path>
                        <path d="M70.464,23.68 C74.112,23.68 76.928,22.144 77.92,18.4 L73.056,18.4 C73.056,20.896 72.224,22.72 70.464,22.72 C68.704,22.72 67.264,20.864 67.264,15.04 C67.264,10.432 69.216,7.744 72.224,7.744 C73.248,7.744 74.56,8.096 75.36,8.928 C73.824,9.312 72.448,10.88 72.448,12.416 C72.448,13.504 73.184,14.272 74.272,14.272 C76,14.272 77.888,12.48 77.888,10.72 C77.888,7.968 73.664,6.4 70.464,6.4 C65.472,6.4 60.544,9.312 60.544,15.04 C60.544,20.736 65.472,23.68 70.464,23.68 Z" id="Path"></path>
                        <path d="M80.32,23.04 L90.24,23.04 L90.24,21.44 L88.32,21.12 L88.32,11.968 C89.536,9.664 91.456,7.36 93.024,7.36 C93.536,7.36 93.92,7.52 94.24,7.776 C92.512,7.936 90.848,9.664 90.848,11.36 C90.848,12.448 91.584,13.216 92.672,13.216 C94.4,13.216 96.288,11.424 96.288,9.664 C96.288,8.064 94.848,6.4 92.96,6.4 C90.656,6.4 89.12,7.616 88.32,8.576 L88.32,7.04 L80.32,7.04 L80.32,8.64 L81.92,8.96 L81.92,21.12 L80.32,21.44 L80.32,23.04 Z" id="Path"></path>
                        <path d="M103.968,23.68 C105.984,23.68 107.616,22.304 108.736,20.768 L108.736,23.04 L117.056,23.04 L117.056,21.44 L115.136,21.12 L115.136,7.04 L107.136,7.04 L107.136,8.64 L108.736,8.96 L108.736,18.976 C108.224,20.32 107.456,21.44 106.528,21.44 C104.768,21.44 104.768,18.752 104.768,16.32 L104.768,7.04 L96.768,7.04 L96.768,8.64 L98.368,8.96 L98.368,15.04 C98.368,21.248 100.032,23.68 103.968,23.68 Z" id="Path"></path>
                        <path d="M132.256,23.68 C137.216,23.68 138.944,18.912 138.944,15.04 C138.944,11.168 137.216,6.4 132.256,6.4 C129.728,6.4 127.872,7.776 126.656,9.376 L126.656,7.04 L118.656,7.04 L118.656,8.64 L120.256,8.96 L120.256,28.8 L118.656,29.12 L118.656,30.72 L128.576,30.72 L128.576,29.12 L126.656,28.8 L126.656,20.704 C127.872,22.304 129.728,23.68 132.256,23.68 Z M126.656,19.072 L126.656,11.072 C127.264,9.76 128.224,8.64 129.248,8.64 C131.008,8.64 132.224,10.752 132.224,15.04 C132.224,19.296 131.008,21.44 129.248,21.44 C128.224,21.44 127.264,20.352 126.656,19.072 Z" id="Shape"></path>
                        <path d="M147.904,23.68 C149.92,23.68 151.552,22.304 152.672,20.768 L152.672,23.04 L160.992,23.04 L160.992,21.44 L159.072,21.12 L159.072,7.04 L151.072,7.04 L151.072,8.64 L152.672,8.96 L152.672,18.976 C152.16,20.32 151.392,21.44 150.464,21.44 C148.704,21.44 148.704,18.752 148.704,16.32 L148.704,7.04 L140.704,7.04 L140.704,8.64 L142.304,8.96 L142.304,15.04 C142.304,21.248 143.968,23.68 147.904,23.68 Z" id="Path"></path>
                        <path d="M169.088,23.68 C173.504,23.68 174.784,21.376 174.784,18.4 L173.504,18.4 C173.504,19.744 172.768,21.44 171.648,21.44 C170.272,21.44 169.792,19.648 169.792,16.64 L169.792,0 L161.792,0 L161.792,1.6 L163.392,1.92 L163.392,16.64 C163.392,22.176 166.4,23.68 169.088,23.68 Z" id="Path"></path>
                        <path d="M185.984,23.68 C190.976,23.68 195.904,20.736 195.904,15.04 C195.904,9.312 190.976,6.4 185.984,6.4 C180.992,6.4 176.064,9.312 176.064,15.04 C176.064,20.768 180.992,23.68 185.984,23.68 Z M182.784,15.04 C182.784,9.216 184.192,7.36 185.984,7.36 C187.776,7.36 189.184,9.216 189.184,15.04 C189.184,20.864 187.776,22.72 185.984,22.72 C184.192,22.72 182.784,20.864 182.784,15.04 Z" id="Shape"></path>
                        <path d="M204.864,23.68 C206.88,23.68 208.512,22.304 209.632,20.768 L209.632,23.04 L217.952,23.04 L217.952,21.44 L216.032,21.12 L216.032,7.04 L208.032,7.04 L208.032,8.64 L209.632,8.96 L209.632,18.976 C209.12,20.32 208.352,21.44 207.424,21.44 C205.664,21.44 205.664,18.752 205.664,16.32 L205.664,7.04 L197.664,7.04 L197.664,8.64 L199.264,8.96 L199.264,15.04 C199.264,21.248 200.928,23.68 204.864,23.68 Z" id="Path"></path>
                        <path d="M227.776,23.68 C230.624,23.68 234.944,22.88 234.944,18.752 C234.944,14.304 226.272,14.528 226.272,9.472 C226.272,8.224 227.2,7.36 228.416,7.36 C231.008,7.36 231.424,10.112 231.424,11.84 L233.984,11.84 L233.984,7.04 L233.024,7.04 C233.024,7.648 232.992,8.224 232.928,8.672 C231.648,7.104 229.44,6.4 227.36,6.4 C224.256,6.4 219.872,7.456 219.872,11.776 C219.872,16.448 228.544,16.992 228.544,20.992 C228.544,22.304 227.232,22.72 226.24,22.72 C223.648,22.72 222.432,20.576 222.432,18.4 L219.872,18.4 L219.872,23.04 L220.832,23.04 C220.832,22.464 220.864,21.92 220.928,21.472 C222.496,23.296 225.536,23.68 227.776,23.68 Z" id="Path"></path>
                        <path d="M243.36,23.68 C247.776,23.68 249.056,21.376 249.056,18.4 L247.776,18.4 C247.776,19.744 247.04,21.44 245.92,21.44 C244.544,21.44 244.064,19.648 244.064,16.64 L244.064,0 L236.064,0 L236.064,1.6 L237.664,1.92 L237.664,16.64 C237.664,22.176 240.672,23.68 243.36,23.68 Z" id="Path"></path>
                        <path d="M253.824,31.36 C256.384,31.36 257.76,28.448 258.208,27.232 L265.056,8.96 L267.36,8.64 L267.36,7.04 L262.88,7.04 L262.88,8.64 L263.776,8.96 L261.504,15.072 L257.856,7.04 L249.216,7.04 L249.216,8.64 L251.744,8.96 L258.464,23.104 L256.928,27.232 C256.416,28.576 255.616,30.4 253.824,30.4 C253.28,30.4 252.8,30.24 252.384,29.952 C254.048,29.728 255.648,28.032 255.648,26.4 C255.648,25.312 254.912,24.544 253.824,24.544 C252.096,24.544 250.208,26.336 250.208,28.096 C250.208,30.176 251.936,31.36 253.824,31.36 Z" id="Path"></path>
                    </g>
                </g>
            </g>
        </g>
    </g>
</svg>