<?xml version="1.0" encoding="UTF-8"?>
<svg width="320px" height="40px" viewBox="0 0 320 40" version="1.1" xmlns="http://www.w3.org/2000/svg" xmlns:xlink="http://www.w3.org/1999/xlink">
    <title>apium-cyrillic-regular</title>
    <g id="_exports" stroke="none" stroke-width="1" fill="none" fill-rule="evenodd">
        <g id="Apium" transform="translate(-351, -826)">
            <g id="apium-styles" transform="translate(0, 686)">
                <g id="apium-cyrillic-regular" transform="translate(351, 140)">
                    <rect id="Rectangle-Copy-13" fill="#F7DF88" opacity="0" x="0" y="0" width="320" height="40"></rect>
                    <g transform="translate(5.536, 4.4)" fill="#424345" fill-rule="nonzero">
                        <path d="M7.904,25.824 C12.64,25.824 15.744,22.112 15.744,17.6 C15.744,13.216 12.8,9.472 8.192,9.472 C6.272,9.472 2.976,10.528 2.016,13.568 C1.824,12.64 1.76,11.84 1.76,11.072 C1.76,9.344 2.208,8.032 2.816,7.2 C4.096,5.408 6.56,5.216 10.784,5.216 C13.92,5.216 14.56,1.984 14.56,0 L13.408,0 C13.408,0.992 12.8,2.304 11.424,2.304 C5.504,2.304 3.776,3.968 2.528,5.44 C0.704,7.744 -1.13686838e-13,11.808 -1.13686838e-13,16.704 C-1.13686838e-13,21.888 2.528,25.824 7.904,25.824 Z M3.072,17.824 C3.072,15.136 3.808,10.496 7.904,10.496 C11.744,10.496 12.608,14.56 12.608,17.6 C12.608,20.736 11.744,24.8 7.904,24.8 C4.48,24.8 3.072,20.672 3.072,17.824 Z" id="Shape"></path>
                        <path d="M33.472,25.824 C36.608,25.824 37.216,22.944 37.216,20.96 L35.808,20.96 C35.808,21.984 35.488,24.8 34.112,24.8 C32.96,24.8 32.512,23.04 32.512,21.152 L32.512,14.976 C32.512,11.136 29.376,9.344 25.984,9.344 C22.88,9.344 19.488,10.816 19.488,14.24 L20.896,14.24 C20.896,11.936 23.072,10.304 25.024,10.304 C28.064,10.304 29.6,12 29.6,14.912 L29.6,16.608 C28.416,15.424 26.656,14.784 24.8,14.784 C21.728,14.784 18.816,16.64 18.816,20.192 C18.816,23.712 21.728,25.824 24.8,25.824 C26.88,25.824 28.896,24.896 30.048,23.456 C30.592,25.024 31.744,25.824 33.472,25.824 Z M21.952,20.192 C21.952,17.76 23.936,15.84 26.176,15.84 C27.776,15.84 29.024,16.992 29.6,18.432 L29.6,20.288 C29.6,20.864 29.632,21.408 29.696,21.92 C29.184,23.392 27.872,24.8 26.176,24.8 C23.936,24.8 21.952,22.624 21.952,20.192 Z" id="Shape"></path>
                        <polygon id="Path" points="38.88 25.6 46.144 25.6 46.144 24.544 43.968 24.48 43.968 10.624 50.688 10.624 50.752 12.736 51.808 12.736 51.808 9.6 38.88 9.6 38.88 10.656 41.024 10.72 41.024 24.48 38.88 24.544"></polygon>
                        <path d="M68,25.824 C71.136,25.824 71.744,22.944 71.744,20.96 L70.336,20.96 C70.336,21.984 70.016,24.8 68.64,24.8 C67.488,24.8 67.04,23.04 67.04,21.152 L67.04,14.976 C67.04,11.136 63.904,9.344 60.512,9.344 C57.408,9.344 54.016,10.816 54.016,14.24 L55.424,14.24 C55.424,11.936 57.6,10.304 59.552,10.304 C62.592,10.304 64.128,12 64.128,14.912 L64.128,16.608 C62.944,15.424 61.184,14.784 59.328,14.784 C56.256,14.784 53.344,16.64 53.344,20.192 C53.344,23.712 56.256,25.824 59.328,25.824 C61.408,25.824 63.424,24.896 64.576,23.456 C65.12,25.024 66.272,25.824 68,25.824 Z M56.48,20.192 C56.48,17.76 58.464,15.84 60.704,15.84 C62.304,15.84 63.552,16.992 64.128,18.432 L64.128,20.288 C64.128,20.864 64.16,21.408 64.224,21.92 C63.712,23.392 62.4,24.8 60.704,24.8 C58.464,24.8 56.48,22.624 56.48,20.192 Z" id="Shape"></path>
                        <polygon id="Path" points="84.384 25.6 89.728 25.6 89.728 24.544 86.88 24.48 82.176 16.608 86.368 10.72 89.28 10.656 89.28 9.6 84 9.6 84 10.656 85.344 10.72 81.728 15.84 78.016 9.6 72.704 9.6 72.704 10.656 75.488 10.72 80 18.272 75.584 24.48 72.64 24.544 72.64 25.6 77.984 25.6 77.984 24.544 76.576 24.48 80.448 19.04"></polygon>
                        <path d="M95.04,33.504 C96.704,33.504 97.6,32 98.048,30.816 L105.6,10.72 L108.128,10.656 L108.128,9.6 L102.848,9.6 L102.848,10.656 L104.576,10.72 L100.64,21.216 L95.36,9.6 L90.048,9.6 L90.048,10.656 L92.704,10.72 L99.36,24.608 L97.216,30.368 C96.928,31.136 96.288,32.704 95.232,32.704 C94.624,32.704 94.176,32.288 93.888,31.776 C95.104,31.744 96.416,30.56 96.416,29.28 C96.416,28.608 95.872,27.936 95.072,27.936 C93.856,27.936 92.576,29.28 92.576,30.464 C92.576,31.968 93.696,33.504 95.04,33.504 Z" id="Path"></path>
                        <path d="M118.72,25.6 L125.984,25.6 L125.984,24.544 L123.776,24.48 L123.776,10.72 L125.92,10.656 L125.92,9.6 L112.128,9.6 L112.128,10.656 L114.88,10.72 C114.88,18.208 114.464,24.992 111.456,24.992 C110.976,24.992 110.656,24.832 110.432,24.544 C111.616,24.448 112.864,23.296 112.864,22.048 C112.864,21.408 112.32,20.704 111.52,20.704 C110.304,20.704 109.024,22.048 109.024,23.264 C109.024,24.736 110.016,25.824 111.328,25.824 C115.328,25.824 115.904,19.008 115.904,10.624 L120.864,10.624 L120.864,24.48 L118.72,24.544 L118.72,25.6 Z" id="Path"></path>
                        <path d="M127.84,25.6 L136.48,25.6 C139.04,25.6 142.24,23.84 142.24,20.672 C142.24,17.472 139.04,15.68 136.416,15.68 L132.928,15.68 L132.928,10.72 L135.04,10.656 L135.04,9.6 L127.84,9.6 L127.84,10.656 L129.984,10.72 L129.984,24.48 L127.84,24.544 L127.84,25.6 Z M132.928,24.704 L132.928,16.544 L134.304,16.544 C136.384,16.544 139.168,17.664 139.168,20.608 C139.168,22.656 137.792,24.576 135.872,24.672 C135.072,24.704 133.92,24.704 132.928,24.704 Z" id="Shape"></path>
                        <path d="M153.088,25.824 C156.864,25.824 159.296,23.648 159.872,20.96 L157.056,20.96 C156.832,22.56 155.712,25.024 153.088,25.024 C149.504,25.024 148.448,21.28 148.448,17.6 C148.448,14.72 149.92,10.24 153.696,10.24 C155.712,10.24 157.6,11.232 158.4,12.576 C157.216,12.704 156.032,13.984 156.032,15.104 C156.032,15.872 156.544,16.416 157.312,16.416 C158.528,16.416 159.872,15.2 159.872,13.92 C159.872,11.68 156.832,9.344 153.152,9.344 C148.384,9.344 145.312,13.376 145.312,17.6 C145.312,22.432 148.32,25.824 153.088,25.824 Z" id="Path"></path>
                        <polygon id="Path" points="164.768 25.6 172.032 25.6 172.032 24.544 169.824 24.48 169.824 10.624 174.144 10.624 174.208 12.736 175.264 12.736 175.264 9.6 161.376 9.6 161.376 12.736 162.432 12.736 162.496 10.624 166.912 10.624 166.912 24.48 164.768 24.544"></polygon>
                        <path d="M176.352,25.6 L185.792,25.6 C188.352,25.6 191.52,24.32 191.52,21.152 C191.52,18.4 189.184,17.024 186.848,16.704 C188.192,16.16 189.28,15.04 189.28,13.408 C189.28,11.136 187.456,9.376 185.12,9.376 C183.456,9.376 182.176,10.56 181.44,11.552 L181.44,9.6 L176.352,9.6 L176.352,10.656 L178.496,10.72 L178.496,24.48 L176.352,24.544 L176.352,25.6 Z M181.44,24.704 L181.44,17.44 L183.616,17.44 C185.696,17.44 188.48,18.112 188.48,21.088 C188.48,23.136 187.104,24.576 185.184,24.672 C184,24.704 182.624,24.704 181.44,24.704 Z M181.44,16.48 L181.44,12.896 C182.016,11.744 182.976,10.4 184.128,10.4 C185.824,10.4 186.464,11.968 186.464,13.44 C186.464,16.224 183.712,16.48 181.952,16.48 L181.44,16.48 Z" id="Shape"></path>
                        <path d="M209.12,25.824 C212.256,25.824 212.864,22.944 212.864,20.96 L211.456,20.96 C211.456,21.984 211.136,24.8 209.76,24.8 C208.608,24.8 208.16,23.04 208.16,21.152 L208.16,14.976 C208.16,11.136 205.024,9.344 201.632,9.344 C198.528,9.344 195.136,10.816 195.136,14.24 L196.544,14.24 C196.544,11.936 198.72,10.304 200.672,10.304 C203.712,10.304 205.248,12 205.248,14.912 L205.248,16.608 C204.064,15.424 202.304,14.784 200.448,14.784 C197.376,14.784 194.464,16.64 194.464,20.192 C194.464,23.712 197.376,25.824 200.448,25.824 C202.528,25.824 204.544,24.896 205.696,23.456 C206.24,25.024 207.392,25.824 209.12,25.824 Z M197.6,20.192 C197.6,17.76 199.584,15.84 201.824,15.84 C203.424,15.84 204.672,16.992 205.248,18.432 L205.248,20.288 C205.248,20.864 205.28,21.408 205.344,21.92 C204.832,23.392 203.52,24.8 201.824,24.8 C199.584,24.8 197.6,22.624 197.6,20.192 Z" id="Shape"></path>
                    </g>
                </g>
            </g>
        </g>
    </g>
</svg>