<svg xmlns="http://www.w3.org/2000/svg" width="320" height="40"><g fill="#424345" fill-rule="nonzero"><path d="M4.8 30h9.92v-1.6l-1.92-.32v-12.8h5.12l.32 1.632h1.6V14H4.8v1.6l1.6.32v12.16l-1.6.32zM31.04 30.64c4.992 0 9.92-2.944 9.92-8.64 0-5.728-4.928-8.64-9.92-8.64s-9.92 2.912-9.92 8.64c0 5.728 4.928 8.64 9.92 8.64ZM27.84 22c0-5.824 1.408-7.68 3.2-7.68 1.792 0 3.2 1.856 3.2 7.68s-1.408 7.68-3.2 7.68c-1.792 0-3.2-1.856-3.2-7.68ZM53.44 30.64c3.648 0 6.464-1.536 7.456-5.28h-4.864c0 2.496-.832 4.32-2.592 4.32-1.76 0-3.2-1.856-3.2-7.68 0-4.608 1.952-7.296 4.96-7.296 1.024 0 2.336.352 3.136 1.184-1.536.384-2.912 1.952-2.912 3.488 0 1.088.736 1.856 1.824 1.856 1.728 0 3.616-1.792 3.616-3.552 0-2.752-4.224-4.32-7.424-4.32-4.992 0-9.92 2.912-9.92 8.64 0 5.696 4.928 8.64 9.92 8.64ZM73.984 30h9.632v-1.6l-1.92-.32V15.92l1.6-.32V14h-20v1.6l1.6.32v12.16l-1.6.32V30h9.536v-1.6l-1.536-.32V15.312h3.968V28.08l-1.28.32zM95.616 30.64c4.992 0 9.92-2.944 9.92-8.64 0-5.728-4.928-8.64-9.92-8.64s-9.92 2.912-9.92 8.64c0 5.728 4.928 8.64 9.92 8.64Zm-3.2-8.64c0-5.824 1.408-7.68 3.2-7.68 1.792 0 3.2 1.856 3.2 7.68s-1.408 7.68-3.2 7.68c-1.792 0-3.2-1.856-3.2-7.68ZM109.536 30h13.408l.48 4.32h1.92v-5.76l-2.4-.384V15.92l1.6-.32V14H110.24v1.6l1.6.32c-.096 5.984-1.216 10.56-2.784 12.32l-1.92.32v5.76h1.92l.48-4.32Zm1.28-1.92c1.696-2.56 2.304-7.36 2.304-12.768h3.392V28.08h-5.696ZM143.456 30.64c5.056 0 5.696-2.688 5.696-5.28h-1.28c0 1.568-.736 3.04-1.856 3.04-1.376 0-1.856-1.792-1.856-4.8v-3.424c0-4.8-2.656-6.816-7.52-6.816-5.28 0-7.232 3.136-7.232 5.28h1.28c0-1.568 1.632-3.68 3.552-3.68 1.92 0 3.52 1.184 3.52 4.896v1.056c-.928-1.056-2.336-1.856-4.32-1.856-3.04 0-6.016 1.6-6.016 5.632 0 4.096 2.976 5.952 6.016 5.952 2.624 0 4.256-1.408 5.088-2.944 1.088 2.24 3.072 2.944 4.928 2.944Zm-9.312-5.952c0-1.312.576-3.36 2.304-3.36.576 0 1.024.352 1.312.832v1.44c0 1.184.128 2.208.384 3.04-.256.896-.8 1.728-1.696 1.728-1.728 0-2.304-2.368-2.304-3.68ZM163.872 30.64c4.96 0 6.688-4.768 6.688-8.64 0-3.872-1.728-8.64-6.688-8.64-2.528 0-4.384 1.376-5.6 2.976V14h-8v1.6l1.6.32v19.84l-1.6.32v1.6h9.92v-1.6l-1.92-.32v-8.096c1.216 1.6 3.072 2.976 5.6 2.976Zm-5.6-4.608v-8c.608-1.312 1.568-2.432 2.592-2.432 1.76 0 2.976 2.112 2.976 6.4 0 4.256-1.216 6.4-2.976 6.4-1.024 0-1.984-1.088-2.592-2.368ZM183.04 30.64c3.648 0 6.464-1.536 7.456-5.28h-4.864c0 2.496-.832 4.32-2.592 4.32-1.76 0-3.2-1.856-3.2-7.68 0-4.608 1.952-7.296 4.96-7.296 1.024 0 2.336.352 3.136 1.184-1.536.384-2.912 1.952-2.912 3.488 0 1.088.736 1.856 1.824 1.856 1.728 0 3.616-1.792 3.616-3.552 0-2.752-4.224-4.32-7.424-4.32-4.992 0-9.92 2.912-9.92 8.64 0 5.696 4.928 8.64 9.92 8.64ZM196.768 30h9.92v-1.6l-1.92-.32v-12.8h4.16l.32 1.632h1.6V14h-18.592v2.88h1.6l.32-1.6h4.192v12.8l-1.6.32zM211.808 30h11.488c2.56 0 7.232-.288 7.232-4.448 0-3.136-2.656-4.16-5.056-4.448 1.568-.448 2.944-1.408 2.944-3.488 0-2.816-2.432-4.256-4.896-4.256-1.376 0-2.752.928-3.712 1.824V14h-8v1.6l1.6.32v12.16l-1.6.32V30Zm8-1.312v-6.88h.928c1.952 0 3.392 1.44 3.392 3.392 0 .96-.224 2.624-1.664 3.168-.48.192-1.728.288-2.656.32Zm0-7.84v-4.736c.288-.32.672-.544 1.088-.544 1.376 0 1.984 1.216 1.984 2.368 0 1.76-1.376 2.912-3.072 2.912ZM242.048 30.64c4.992 0 9.92-2.944 9.92-8.64 0-5.728-4.928-8.64-9.92-8.64s-9.92 2.912-9.92 8.64c0 5.728 4.928 8.64 9.92 8.64Zm-3.2-8.64c0-5.824 1.408-7.68 3.2-7.68 1.792 0 3.2 1.856 3.2 7.68s-1.408 7.68-3.2 7.68c-1.792 0-3.2-1.856-3.2-7.68Z"/></g></svg>