<svg xmlns="http://www.w3.org/2000/svg" width="320" height="40"><g fill="#424345" fill-rule="nonzero"><path d="M17.104 33.68c.832 0 2.72-.416 2.72-1.44s-.64-1.44-1.472-1.44c-1.568 0-2.24 1.12-3.808 1.12-.992 0-1.888-.896-2.432-1.76 7.136-.064 11.968-7.072 11.968-13.696 0-4.512-2.4-8.384-7.744-8.384-7.2 0-12.128 7.168-12.128 13.664 0 4.16 2.048 7.744 6.464 8.32.416.672.704 1.056 1.28 1.632 1.28 1.312 2.624 1.984 5.152 1.984ZM6.576 22.032c0-4.96 2.912-13.152 9.504-13.152 4.32 0 5.664 3.776 5.664 7.2 0 4.928-2.784 13.28-9.472 13.28-4.352 0-5.696-3.84-5.696-7.328ZM30.832 30.16c1.952 0 3.68-1.504 5.056-2.976v.256c0 1.184.224 2.72 2.272 2.72.928 0 1.76-.704 2.752-1.6l.128-.8c-.864.928-1.568 1.6-2.208 1.6-.416 0-.832-.352-.832-1.472 0-1.344 2.24-12.288 2.624-14.048l-2.336.416c-.32 1.344-1.888 8.928-2.304 12.096-1.28 1.536-3.008 3.008-4.768 3.008-1.536 0-2.144-1.28-2.144-2.784 0-1.024 1.248-6.592 2.08-10.72.256-1.152.096-1.792-.576-1.952-.736-.16-1.6.032-3.808 1.056l-.16.608c.352-.224 1.536-.832 2.016-.736.416.096.384.672.288 1.088l-.064.32c-.928 3.808-2.016 8.928-2.016 10.336 0 2.208 1.28 3.584 4 3.584ZM48.72 30.16c2.08 0 4.288-1.024 5.888-2.752v.032c0 1.184.224 2.72 2.272 2.72.928 0 1.76-.704 2.752-1.6l.128-.8c-.864.928-1.568 1.6-2.208 1.6-.416 0-.832-.352-.832-1.472 0-1.344 2.24-12.288 2.624-14.048l-2.336.416c-.096.384-.288 1.376-.544 2.592-.832-1.856-2.336-3.008-4.544-3.008-5.152 0-8.192 5.6-8.192 10.464 0 3.008 1.248 5.856 4.992 5.856Zm-2.592-5.952c0-3.296 1.824-9.568 6.592-9.568 2.688 0 3.04 3.072 3.104 5.408-.32 1.536-.608 3.104-.832 4.448-.8 2.432-2.688 4.864-4.96 4.864-3.008 0-3.904-2.784-3.904-5.152ZM67.12 30.16c2.048 0 4.256-.992 5.856-2.72 0 1.184.224 2.72 2.272 2.72.928 0 1.76-.704 2.752-1.6l.128-.8c-.864.928-1.568 1.6-2.208 1.6-.416 0-.832-.352-.832-1.472 0-1.152 2.656-14.112 3.68-19.104.256-1.152.096-1.792-.576-1.92-.736-.16-1.6.064-3.776 1.12l-.128.608c.32-.224 1.504-.864 1.984-.768.384.096.384.64.288 1.088l-.064.32c-.48 2.08-1.056 4.864-1.632 7.648-.8-1.888-2.336-3.04-4.544-3.04-5.152 0-8.192 5.6-8.192 10.464 0 3.008 1.248 5.856 4.992 5.856Zm-2.592-5.952c0-3.296 1.824-9.568 6.592-9.568 2.688 0 3.072 3.136 3.104 5.472l-.832 4.32c-.8 2.464-2.72 4.928-5.024 4.928-3.008 0-3.84-2.784-3.84-5.152ZM83.76 27.088c.448-2.368 3.008-12.448 7.04-12.448.736 0 1.44.48 1.856 1.152-1.12.256-2.4 1.568-2.4 2.592 0 .544.384.896.992.896 1.12 0 2.752-1.088 2.752-2.272 0-1.6-1.408-3.168-2.848-3.168-2.464 0-4.704 3.68-6.08 6.464l.896-4.48c.224-1.152.064-1.792-.608-1.92-.768-.128-1.6.096-3.776 1.152l-.128.64c.352-.224 1.504-.896 1.984-.8.416.096.384.64.32 1.088l-.064.32L80.944 30h2.24l.576-2.912ZM99.568 30.16c2.08 0 4.288-1.024 5.888-2.752v.032c0 1.184.224 2.72 2.272 2.72.928 0 1.76-.704 2.752-1.6l.128-.8c-.864.928-1.568 1.6-2.208 1.6-.416 0-.832-.352-.832-1.472 0-1.344 2.24-12.288 2.624-14.048l-2.336.416c-.096.384-.288 1.376-.544 2.592-.832-1.856-2.336-3.008-4.544-3.008-5.152 0-8.192 5.6-8.192 10.464 0 3.008 1.248 5.856 4.992 5.856Zm-2.592-5.952c0-3.296 1.824-9.568 6.592-9.568 2.688 0 3.04 3.072 3.104 5.408-.32 1.536-.608 3.104-.832 4.448-.8 2.432-2.688 4.864-4.96 4.864-3.008 0-3.904-2.784-3.904-5.152ZM120.24 30.16c5.152 0 8.192-5.6 8.192-10.464 0-3.008-1.92-5.856-4.992-5.856-2.4 0-4.576 2.88-6.176 6.464l.864-4.48c.224-1.152.064-1.792-.608-1.92-.768-.128-1.6.096-3.776 1.152l-.128.64c.352-.224 1.504-.896 1.984-.8.416.096.384.64.32 1.088l-.064.32-4.064 20.416h-2.24l-.192.96h6.528l.192-.96h-2.048l1.76-8.96v-.096l.064-.192c.832 1.664 2.304 2.688 4.384 2.688Zm-3.808-5.184c1.376-5.44 3.744-10.336 6.624-10.336 2.688 0 2.976 2.784 2.976 5.152 0 3.296-1.728 9.568-6.784 9.568-1.92 0-2.624-2.272-2.816-4.384ZM130.704 30h2.24l.672-3.392c1.056-4.736 3.52-11.968 6.88-11.968 1.12 0 1.76.768 1.76 2.208 0 2.208-2.016 8.672-2.016 10.88 0 1.184.32 2.432 2.368 2.432.928 0 1.728-.672 2.784-1.6l.16-.8c-.864.864-1.632 1.6-2.272 1.6-.416 0-.8-.352-.8-1.472 0-1.76 2.016-8.704 2.016-10.624 0-2.016-1.28-3.424-3.456-3.424-2.72 0-4.896 3.68-6.304 6.912l2.336-11.968c.224-1.152.064-1.792-.608-1.92-.768-.128-1.6.096-3.776 1.152l-.128.64c.352-.224 1.504-.896 1.984-.8.416.096.384.64.32 1.088l-.064.32L130.704 30ZM153.68 30.16c5.056 0 8.864-5.024 8.864-10.112 0-3.776-2.464-6.208-5.696-6.208-4.864 0-8.896 4.768-8.896 10.08 0 3.808 2.496 6.24 5.728 6.24Zm-3.296-6.528c0-4.32 3.04-8.992 6.4-8.992 2.304 0 3.328 3.104 3.328 5.728 0 4.448-2.944 8.992-6.208 8.992-2.304 0-3.52-3.104-3.52-5.728ZM176.752 30.16c.928 0 1.728-.672 2.784-1.6l.16-.8c-.864.864-1.632 1.6-2.272 1.6-.416 0-.8-.352-.8-1.472 0-1.76 2.016-8.704 2.016-10.624 0-2.432-1.568-3.424-3.744-3.424-1.728 0-3.744 1.312-5.184 2.72l.128-.736c.224-1.152.064-1.792-.608-1.92-.768-.128-1.6.096-3.776 1.152l-.128.64c.352-.224 1.504-.896 1.984-.8.416.096.384.64.32 1.088l-.064.32L164.816 30h2.24l2.464-12.576c1.344-1.472 3.2-2.784 4.736-2.784 1.792 0 2.144.8 2.144 2.624 0 2.912-2.016 7.616-2.016 10.464 0 1.184.32 2.432 2.368 2.432ZM185.136 30.16c.928 0 1.856-.704 2.912-1.6l.128-.8c-.768.864-1.632 1.6-2.368 1.6-.416 0-.832-.352-.832-1.472 0-1.088 1.472-8.416 2.24-12.064.256-1.152.096-1.792-.576-1.92-.736-.16-1.6.064-3.808 1.088l-.128.64c.352-.224 1.536-.864 2.016-.768.384.096.384.64.288 1.088l-.064.32c-.96 4.032-2.08 9.888-2.08 11.168 0 1.184.224 2.72 2.272 2.72Zm.352-19.68c0 .736.544 1.28 1.344 1.28.992 0 1.92-.832 1.92-1.888 0-.736-.544-1.312-1.312-1.312-.992 0-1.952.896-1.952 1.92ZM196.464 30.16c3.584 0 6.368-2.304 7.36-4.8h-2.4c-.576 1.44-2.176 4-4.736 4-3.2 0-3.68-2.88-3.68-5.536 0-4.032 2.144-9.184 6.56-9.184 2.528 0 4.032 1.056 4.512 2.592-1.184.128-2.624 1.504-2.624 2.592 0 .576.384.928.992.928 1.12 0 2.784-1.088 2.784-2.272v-.032c0-2.976-2.304-4.608-5.536-4.608-5.6 0-9.056 4.832-9.056 9.92 0 3.744 1.728 6.4 5.824 6.4ZM211.888 30.16c2.08 0 4.288-1.024 5.888-2.752v.032c0 1.184.224 2.72 2.272 2.72.928 0 1.76-.704 2.752-1.6l.128-.8c-.864.928-1.568 1.6-2.208 1.6-.416 0-.832-.352-.832-1.472 0-1.344 2.24-12.288 2.624-14.048l-2.336.416c-.096.384-.288 1.376-.544 2.592-.832-1.856-2.336-3.008-4.544-3.008-5.152 0-8.192 5.6-8.192 10.464 0 3.008 1.248 5.856 4.992 5.856Zm-2.592-5.952c0-3.296 1.824-9.568 6.592-9.568 2.688 0 3.04 3.072 3.104 5.408-.32 1.536-.608 3.104-.832 4.448-.8 2.432-2.688 4.864-4.96 4.864-3.008 0-3.904-2.784-3.904-5.152ZM228.016 30.16c.928 0 1.696-.672 2.752-1.6l.128-.8c-.864.928-1.568 1.6-2.208 1.6-.416 0-.832-.352-.832-1.472 0-1.152 2.624-14.112 3.648-19.104.256-1.152.096-1.792-.576-1.92-.736-.16-1.6.064-3.808 1.088l-.128.64c.352-.224 1.536-.864 2.016-.768.384.096.384.64.288 1.088l-.064.32c-1.312 5.728-3.488 16.832-3.488 18.208 0 1.184.224 2.72 2.272 2.72ZM235.984 30.16c.928 0 1.696-.672 2.752-1.6l.128-.8c-.864.928-1.568 1.6-2.208 1.6-.416 0-.832-.352-.832-1.472 0-1.152 2.624-14.112 3.648-19.104.256-1.152.096-1.792-.576-1.92-.736-.16-1.6.064-3.808 1.088l-.128.64c.352-.224 1.536-.864 2.016-.768.384.096.384.64.288 1.088l-.064.32c-1.312 5.728-3.488 16.832-3.488 18.208 0 1.184.224 2.72 2.272 2.72ZM241.104 37.84c1.504 0 2.336-1.248 3.008-2.432L256.272 14h-3.36l-.192.96h2.048l-6.56 11.552L246 15.12c-.288-1.12-.928-1.376-1.568-1.248-.736.16-1.76 1.024-2.976 3.136l.096.608c.16-.416 1.152-1.856 1.536-1.952.256-.032.416.096.48.448l.096.352L246.256 30l-2.784 4.896c-.352.608-1.248 2.144-2.112 2.144-.672 0-1.056-.256-1.184-1.184 1.12-.032 2.752-1.088 2.752-2.272 0-.576-.256-1.248-.992-1.248-1.184 0-2.688 1.376-2.784 2.496v.16c.032 1.824.512 2.848 1.952 2.848Z"/></g></svg>