<?xml version="1.0" encoding="UTF-8"?>
<svg width="320px" height="40px" viewBox="0 0 320 40" version="1.1" xmlns="http://www.w3.org/2000/svg" xmlns:xlink="http://www.w3.org/1999/xlink">
    <title>apium-cyrillic-medium</title>
    <g id="_exports" stroke="none" stroke-width="1" fill="none" fill-rule="evenodd">
        <g id="Apium" transform="translate(-701, -826)">
            <g id="apium-styles" transform="translate(0, 686)">
                <g id="apium-cyrillic-medium" transform="translate(701, 140)">
                    <rect id="Rectangle-Copy-12" fill="#F7DF88" opacity="0" x="0" y="0" width="320" height="40"></rect>
                    <g transform="translate(3.896, 13.68)" fill="#424345" fill-rule="nonzero">
                        <polygon id="Path" points="0 16.32 5.664 16.32 12.608 2.592 12.608 15.04 10.56 15.136 10.56 16.32 18.336 16.32 18.336 15.136 16.192 15.04 16.192 1.6 18.24 1.504 18.24 0.32 12.576 0.32 5.664 13.504 5.664 1.6 7.68 1.504 7.68 0.32 0 0.32 0 1.504 2.048 1.6 2.048 15.04 0 15.136"></polygon>
                        <path d="M22.176,16.32 L34.048,16.32 L34.528,20.64 L36.32,20.64 L36.32,15.2 L34.048,15.072 L34.048,1.6 L36.064,1.504 L36.064,0.32 L22.656,0.32 L22.656,1.504 L24.672,1.6 C24.64,7.936 23.744,13.568 22.016,15.072 L19.872,15.2 L19.872,20.64 L21.696,20.64 L22.176,16.32 Z M23.36,15.04 C25.12,12.704 25.76,7.456 25.76,1.408 L30.4,1.408 L30.4,15.04 L23.36,15.04 Z" id="Shape"></path>
                        <path d="M47.168,16.64 C50.208,16.64 53.152,14.912 54.208,11.68 L50.816,11.68 C50.496,14.112 49.184,15.776 47.168,15.776 C44.192,15.776 42.592,12.288 42.592,8.32 L54.752,8.32 C54.752,3.168 51.296,0 47.168,0 C42.528,0 38.752,3.136 38.752,8.32 C38.752,13.504 42.528,16.64 47.168,16.64 Z M42.656,7.04 C42.944,3.616 44.512,0.864 47.168,0.864 C49.824,0.864 50.976,3.616 51.2,7.04 L42.656,7.04 Z" id="Shape"></path>
                        <polygon id="Path" points="67.392 16.32 75.04 16.32 75.04 15.136 72.896 15.04 72.896 1.6 74.944 1.504 74.944 0.32 67.392 0.32 67.392 1.504 69.28 1.6 69.28 7.584 62.72 7.584 62.72 1.6 64.608 1.504 64.608 0.32 57.056 0.32 57.056 1.504 59.104 1.6 59.104 15.04 57.056 15.136 57.056 16.32 64.704 16.32 64.704 15.136 62.72 15.04 62.72 8.672 69.28 8.672 69.28 15.04 67.392 15.136"></polygon>
                        <polygon id="Path" points="79.712 16.32 87.488 16.32 87.488 15.136 85.376 15.04 85.376 1.376 89.664 1.376 89.76 3.424 90.944 3.424 90.944 0.32 76.096 0.32 76.096 3.424 77.28 3.424 77.376 1.376 81.728 1.376 81.728 15.04 79.712 15.136"></polygon>
                        <polygon id="Path" points="92 16.32 97.664 16.32 104.608 2.592 104.608 15.04 102.56 15.136 102.56 16.32 110.336 16.32 110.336 15.136 108.192 15.04 108.192 1.6 110.24 1.504 110.24 0.32 104.576 0.32 97.664 13.504 97.664 1.6 99.68 1.504 99.68 0.32 92 0.32 92 1.504 94.048 1.6 94.048 15.04 92 15.136"></polygon>
                        <path d="M119.872,9.92 C121.6,9.92 123.232,9.376 124.256,8.736 L124.256,15.04 L122.24,15.136 L122.24,16.32 L130.016,16.32 L130.016,15.136 L127.872,15.04 L127.872,1.6 L129.888,1.504 L129.888,0.32 L122.368,0.32 L122.368,1.504 L124.256,1.6 L124.256,7.616 C123.424,8.416 122.144,8.64 121.216,8.64 C118.24,8.64 117.536,5.312 117.536,2.88 L117.536,1.6 L119.424,1.504 L119.424,0.32 L111.872,0.32 L111.872,1.504 L113.888,1.6 L113.888,2.784 C113.888,7.36 116.544,9.92 119.872,9.92 Z" id="Path"></path>
                        <polygon id="Path" points="142.144 16.32 149.792 16.32 149.792 15.136 147.648 15.04 147.648 1.6 149.696 1.504 149.696 0.32 142.144 0.32 142.144 1.504 144.032 1.6 144.032 7.584 137.472 7.584 137.472 1.6 139.36 1.504 139.36 0.32 131.808 0.32 131.808 1.504 133.856 1.6 133.856 15.04 131.808 15.136 131.808 16.32 139.456 16.32 139.456 15.136 137.472 15.04 137.472 8.672 144.032 8.672 144.032 15.04 142.144 15.136"></polygon>
                        <path d="M160.672,16.64 C165.472,16.64 169.152,13.216 169.152,8.32 C169.152,3.424 165.472,0 160.672,0 C155.872,0 152.192,3.424 152.192,8.32 C152.192,13.216 155.872,16.64 160.672,16.64 Z M156.032,8.32 C156.032,4.32 157.248,0.864 160.672,0.864 C164.096,0.864 165.312,4.32 165.312,8.32 C165.312,12.32 164.096,15.776 160.672,15.776 C157.248,15.776 156.032,12.32 156.032,8.32 Z" id="Shape"></path>
                        <path d="M180.352,16.64 C184.096,16.64 186.624,14.592 187.264,11.68 L184.032,11.68 C183.84,13.472 182.784,15.776 180.352,15.776 C177.12,15.776 176,12.448 176,8.32 C176,5.088 177.568,0.992 181.184,0.992 C183.008,0.992 184.768,1.824 185.568,3.072 C184.32,3.232 183.104,4.576 183.104,5.792 C183.104,6.624 183.648,7.2 184.48,7.2 C185.824,7.2 187.264,5.888 187.264,4.512 C187.264,2.176 184,0 180.384,0 C175.584,0 172.16,3.776 172.16,8.32 C172.16,13.344 175.552,16.64 180.352,16.64 Z" id="Path"></path>
                        <polygon id="Path" points="192.416 16.32 200.192 16.32 200.192 15.136 198.08 15.04 198.08 1.376 202.368 1.376 202.464 3.424 203.648 3.424 203.648 0.32 188.8 0.32 188.8 3.424 189.984 3.424 190.08 1.376 194.432 1.376 194.432 15.04 192.416 15.136"></polygon>
                        <polygon id="Path" points="204.704 16.32 210.368 16.32 217.312 2.592 217.312 15.04 215.264 15.136 215.264 16.32 223.04 16.32 223.04 15.136 220.896 15.04 220.896 1.6 222.944 1.504 222.944 0.32 217.28 0.32 210.368 13.504 210.368 1.6 212.384 1.504 212.384 0.32 204.704 0.32 204.704 1.504 206.752 1.6 206.752 15.04 204.704 15.136"></polygon>
                    </g>
                </g>
            </g>
        </g>
    </g>
</svg>