<svg xmlns="http://www.w3.org/2000/svg" width="320" height="40"><g fill="#424345" fill-rule="nonzero"><path d="M14.008 30.48c5.536 0 9.12-3.552 10.176-6.88h-4.8c-.672 2.624-2.24 5.984-5.184 5.984-2.784 0-3.968-2.176-3.968-5.6 0-5.536 2.72-15.328 9.248-15.328 1.984 0 3.968.896 4.832 2.368-1.888.288-4.032 2.304-4.032 4.096 0 .864.576 1.44 1.536 1.44 1.92 0 4.416-2.08 4.448-4v-.096C26.2 9.776 23.192 7.76 18.68 7.76c-7.488 0-13.44 6.752-13.44 13.888 0 5.024 3.136 8.832 8.768 8.832ZM35.32 30.48c5.92 0 10.816-4.672 10.816-10.272 0-4.32-3.488-6.688-7.552-6.688-5.824 0-10.816 4.576-10.816 10.272 0 4.32 3.52 6.688 7.552 6.688Zm-2.432-5.216c0-3.36 2.208-10.848 5.568-10.848 1.632 0 2.56 1.664 2.56 4.32 0 3.392-2.176 10.848-5.504 10.848-1.632 0-2.624-1.664-2.624-4.32ZM71.992 30.48c2.24 0 3.232-1.152 4.16-2.272l.224-1.088c-.736.736-1.632 1.6-2.528 1.6-.576 0-.864-.32-.864-1.024 0-1.856 2.144-9.376 2.144-10.624 0-2.24-1.632-3.552-4.224-3.552-1.824 0-3.968 1.184-5.472 2.592-.416-1.664-1.888-2.592-4.096-2.592-1.728 0-3.712 1.024-5.216 2.304.192-1.056-.48-1.92-1.632-2.176-2.016-.384-3.712.48-5.76 1.568l-.288 1.44c.896-.576 1.92-.96 2.304-.896.224.064.384.352.288.768l-.16.64L48.344 30h5.024l2.496-12.832c.96-1.056 2.144-1.888 3.168-1.888 1.152 0 1.504.576 1.504 1.792 0 1.92-1.984 9.984-2.528 12.928H63c.416-2.144 2.528-11.68 2.528-12.928.928-.992 2.08-1.792 3.104-1.792 1.152 0 1.472.576 1.472 1.792 0 1.92-1.952 7.072-1.952 9.92 0 1.824 1.184 3.488 3.84 3.488ZM89.08 30.48c5.408 0 8.512-5.984 8.512-10.88 0-3.136-1.536-6.08-5.184-6.08-2.72 0-4.768 1.92-6.272 4.928l.48-2.496c.224-1.152-.448-2.048-1.6-2.272-2.016-.416-3.776.448-5.792 1.568l-.288 1.408c.896-.576 1.92-.96 2.304-.896.224.032.384.352.288.736l-.16.704-3.712 18.88-1.856.224-.288 1.376h8.384l.288-1.376-1.536-.224 1.696-8.608c.864 1.696 2.368 3.008 4.736 3.008Zm-4.352-4.96.128-.64c1.056-4.416 3.104-9.6 5.344-9.6 1.76 0 2.144 1.664 2.144 3.968 0 2.912-1.472 9.472-5.312 9.472-1.344 0-2.016-1.568-2.304-3.2ZM103.96 30.48c2.24 0 3.2-1.152 4.128-2.272l.224-1.088c-.736.768-1.6 1.6-2.496 1.6-.576 0-.864-.32-.864-1.024 0-.8 2.56-13.568 3.616-18.816.224-1.12-.448-2.016-1.632-2.272-1.984-.416-3.712.448-5.76 1.536l-.32 1.408c.928-.576 1.952-.928 2.336-.864.192.064.352.32.256.736l-.128.672c-1.44 6.592-3.232 15.872-3.232 16.704 0 1.856 1.216 3.68 3.872 3.68ZM117.912 30.48c2.336 0 7.072-1.056 8.576-4.48h-4.416c-.864 2.016-2.464 3.584-4.064 3.584-1.664 0-2.336-1.824-2.432-3.872 4.8-.192 12.128-2.24 12.128-6.752 0-2.944-2.496-5.44-6.528-5.44-6.08 0-10.912 4.64-10.912 10.272 0 4.288 3.392 6.688 7.648 6.688Zm-2.272-5.696c.096-3.712 1.792-10.368 5.312-10.368 1.504 0 2.368 1.696 2.368 3.296 0 3.392-2.592 6.688-7.68 7.072ZM153.464 30.48c2.24 0 3.232-1.152 4.16-2.272l.224-1.088c-.736.736-1.632 1.6-2.528 1.6-.576 0-.864-.32-.864-1.024 0-1.856 2.144-9.376 2.144-10.624 0-2.24-1.632-3.552-4.224-3.552-1.824 0-3.968 1.184-5.472 2.592-.416-1.664-1.888-2.592-4.096-2.592-1.728 0-3.712 1.024-5.216 2.304.192-1.056-.48-1.92-1.632-2.176-2.016-.384-3.712.48-5.76 1.568l-.288 1.44c.896-.576 1.92-.96 2.304-.896.224.064.384.352.288.768l-.16.64L129.816 30h5.024l2.496-12.832c.96-1.056 2.144-1.888 3.168-1.888 1.152 0 1.504.576 1.504 1.792 0 1.92-1.984 9.984-2.528 12.928h4.992c.416-2.144 2.528-11.68 2.528-12.928.928-.992 2.08-1.792 3.104-1.792 1.152 0 1.472.576 1.472 1.792 0 1.92-1.952 7.072-1.952 9.92 0 1.824 1.184 3.488 3.84 3.488ZM167.544 30.48c2.336 0 7.072-1.056 8.576-4.48h-4.416c-.864 2.016-2.464 3.584-4.064 3.584-1.664 0-2.336-1.824-2.432-3.872 4.8-.192 12.128-2.24 12.128-6.752 0-2.944-2.496-5.44-6.528-5.44-6.08 0-10.912 4.64-10.912 10.272 0 4.288 3.392 6.688 7.648 6.688Zm-2.272-5.696c.096-3.712 1.792-10.368 5.312-10.368 1.504 0 2.368 1.696 2.368 3.296 0 3.392-2.592 6.688-7.68 7.072ZM193.528 30.48c2.208 0 3.2-1.152 4.128-2.272l.224-1.088c-.736.736-1.6 1.6-2.528 1.6-.544 0-.832-.32-.832-1.024 0-1.856 2.112-9.376 2.112-10.624 0-2.24-1.6-3.552-4.192-3.552-1.728 0-3.712 1.024-5.216 2.304.192-1.056-.48-1.92-1.632-2.176-2.016-.384-3.712.48-5.76 1.568l-.288 1.44c.896-.576 1.92-.96 2.304-.896.224.064.384.352.288.768l-.16.64L179.448 30h5.024l2.496-12.832c.96-1.056 2.144-1.888 3.168-1.888 1.152 0 1.504.576 1.504 1.792 0 1.92-1.952 7.072-1.952 9.92 0 1.824 1.152 3.488 3.84 3.488ZM205.912 30.48c4.288 0 5.344-2.752 5.824-5.12h-1.344c-.288 1.728-1.184 3.36-2.4 3.36-.896 0-1.248-.864-1.248-2.08 0-1.024.832-5.504 1.696-9.856h2.944l.384-1.664h-2.976l1.152-5.664h-5.024l-1.152 5.664h-2.624l-.384 1.664h2.688c-.832 4.224-1.632 8.512-1.632 9.536 0 3.136 1.888 4.16 4.096 4.16ZM218.616 30.48c2.56 0 4.8-1.472 6.368-3.232.16 1.696 1.408 3.232 3.84 3.232 2.24 0 3.232-1.184 4.16-2.272l.192-1.088c-.736.768-1.568 1.6-2.496 1.6-.576 0-.864-.32-.864-1.024 0-.928 2.208-11.712 2.688-14.176l-5.248.992-.48 2.272c-.832-1.824-2.4-3.264-4.864-3.264-5.408 0-8.48 5.984-8.48 10.88 0 3.136 1.312 6.08 5.184 6.08Zm.064-5.76c0-2.88 1.472-9.44 5.216-9.44 1.568 0 2.24 1.856 2.464 3.616-.448 2.368-.992 5.088-1.248 6.656-.896 1.632-2.368 3.168-3.776 3.168-1.856 0-2.656-1.696-2.656-4ZM235.672 30h5.024l.576-2.976c1.44-7.136 3.712-12.608 7.136-12.608.576 0 1.056.256 1.376.704-1.632.192-3.552 1.952-3.552 3.488 0 .768.512 1.28 1.344 1.28 1.536 0 3.808-1.568 3.808-3.136 0-1.824-1.184-3.232-2.784-3.232-1.92 0-4.096 1.952-5.664 5.056l.512-2.656c.224-1.12-.448-2.016-1.632-2.272-2.016-.384-3.712.48-5.76 1.568l-.288 1.44c.896-.576 1.92-.96 2.304-.896.224.064.384.352.288.768l-.16.64L235.672 30ZM251.736 38.16c2.144 0 3.776-2.464 4.48-3.552L269.016 14h-3.296l-.288 1.376 1.408.224-5.568 8.96-1.856-9.504c-.288-1.088-1.408-1.728-2.56-1.504-1.216.256-2.912 1.408-4.128 2.976l.256 1.312c.416-.48 1.312-1.216 1.664-1.28.512-.096.704.32.864 1.152l.16.672 2.24 11.584-2.784 4.448c-.64 1.056-1.76 2.848-3.168 2.848-.704 0-1.216-.288-1.472-.928 1.632-.064 3.712-1.824 3.712-3.456 0-.736-.448-1.344-1.312-1.344-1.664 0-3.776 1.824-3.808 3.456v.064c.032 2.144 1.056 3.104 2.656 3.104Z"/></g></svg>