<?xml version="1.0" encoding="UTF-8"?>
<svg width="320px" height="40px" viewBox="0 0 320 40" version="1.1" xmlns="http://www.w3.org/2000/svg" xmlns:xlink="http://www.w3.org/1999/xlink">
    <title>apium-latin-medium-italic</title>
    <g id="_exports" stroke="none" stroke-width="1" fill="none" fill-rule="evenodd">
        <g id="Apium" transform="translate(-701, -756)">
            <g id="apium-styles" transform="translate(0, 686)">
                <g id="apium-latin-medium-italic" transform="translate(701, 70)">
                    <rect id="Rectangle-Copy-6" fill="#F7DF88" opacity="0" x="0" y="0" width="320" height="40"></rect>
                    <g transform="translate(5.208, 6.6735)" fill="#424345" fill-rule="nonzero">
                        <path d="M8.32,23.646531 C15.68,23.646531 20.896,16.670531 20.896,9.82253103 C20.896,5.08653103 18.144,1.24653103 12.672,1.24653103 C5.216,1.24653103 5.68434189e-14,8.35053103 5.68434189e-14,15.006531 C5.68434189e-14,19.806531 2.816,23.646531 8.32,23.646531 Z M3.68,16.318531 C3.68,11.518531 6.4,2.11053103 12.448,2.11053103 C16,2.11053103 17.248,5.05453103 17.248,8.44653103 C17.248,12.958531 14.848,22.782531 8.544,22.782531 C4.96,22.782531 3.68,19.806531 3.68,16.318531 Z" id="Shape"></path>
                        <path d="M28.288,23.326531 L29.344,23.326531 L38.976,7.32653103 L35.648,7.32653103 L35.392,8.51053103 L37.12,8.60653103 L30.944,18.878531 L28.896,8.41453103 C28.608,7.32653103 27.744,6.87853103 26.848,7.03853103 C25.856,7.23053103 24.512,8.25453103 23.296,10.078531 L23.488,11.070531 C23.744,10.622531 24.672,9.50253103 25.088,9.43853103 C25.44,9.37453103 25.632,9.63053103 25.76,10.238531 L25.856,10.750531 L28.288,23.326531 Z" id="Path"></path>
                        <path d="M45.568,23.646531 C48.096,23.646531 51.872,22.238531 53.472,19.006531 L50.048,19.006531 C48.992,21.022531 47.392,22.782531 45.664,22.782531 C43.872,22.782531 42.816,21.022531 42.688,18.878531 C47.552,18.686531 54.304,16.926531 54.304,12.286531 C54.304,9.53453103 52.416,7.00653103 48.832,7.00653103 C42.976,7.00653103 38.784,11.806531 38.784,17.182531 C38.784,21.150531 41.536,23.646531 45.568,23.646531 Z M42.688,17.982531 C42.88,14.270531 44.768,7.87053103 48.512,7.87053103 C50.24,7.87053103 50.976,9.53453103 50.976,11.070531 C50.976,15.038531 47.552,17.662531 42.688,17.982531 Z" id="Shape"></path>
                        <path d="M60.864,20.638531 C61.792,15.774531 64.224,7.87053103 68,7.87053103 C68.64,7.87053103 69.216,8.22253103 69.6,8.76653103 C68.224,9.02253103 66.656,10.590531 66.656,11.838531 C66.656,12.478531 67.072,12.894531 67.808,12.894531 C69.12,12.894531 71.072,11.582531 71.072,10.206531 C71.072,8.51053103 69.792,7.00653103 68.256,7.00653103 C66.08,7.00653103 63.872,9.75853103 62.4,12.766531 L63.104,9.21453103 C63.328,8.06253103 62.912,7.29453103 61.984,7.10253103 C60.608,6.84653103 59.328,7.39053103 57.216,8.47853103 L57.024,9.50253103 C57.632,9.08653103 58.72,8.57453103 59.136,8.67053103 C59.456,8.73453103 59.52,9.15053103 59.456,9.56653103 L59.328,10.046531 L56.704,23.326531 L60.32,23.326531 L60.864,20.606531 L60.864,20.638531 Z" id="Path"></path>
                        <path d="M77.152,23.646531 C80.768,23.646531 84.448,22.014531 84.448,18.558531 C84.448,14.846531 76.544,15.614531 76.544,11.166531 C76.544,9.27853103 78.592,7.87053103 80.544,7.87053103 C82.016,7.87053103 83.04,8.19053103 83.616,8.76653103 C82.24,9.05453103 80.736,10.590531 80.736,11.838531 C80.736,12.478531 81.152,12.894531 81.888,12.894531 C83.2,12.894531 85.152,11.582531 85.152,10.206531 C85.152,7.80653103 82.4,7.00653103 80.096,7.00653103 C76.736,7.00653103 72.672,9.18253103 72.672,12.542531 C72.672,16.638531 80.544,16.094531 80.544,19.966531 C80.544,21.630531 78.784,22.782531 77.312,22.782531 C75.52,22.782531 73.184,21.694531 73.184,18.526531 L71.36,18.526531 L70.4,23.326531 L71.552,23.326531 C71.712,22.558531 71.872,21.854531 72.064,21.342531 C73.184,23.166531 75.392,23.646531 77.152,23.646531 Z" id="Path"></path>
                        <path d="M92.352,23.646531 C94.336,23.646531 96.32,22.238531 97.728,20.702531 C97.824,22.142531 98.56,23.646531 100.8,23.646531 C102.368,23.646531 103.296,22.718531 104.224,21.726531 L104.416,20.766531 C103.616,21.598531 102.816,22.366531 102.048,22.366531 C101.568,22.366531 101.216,22.046531 101.216,21.118531 C101.216,19.966531 103.424,9.11853103 103.872,7.00653103 L100.096,7.71053103 C99.744,9.18253103 98.176,16.958531 97.792,19.678531 C96.672,21.086531 95.136,22.366531 93.664,22.366531 C92.352,22.366531 91.84,21.342531 91.84,20.062531 C91.84,18.974531 93.12,13.182531 93.952,9.21453103 C94.176,8.09453103 93.76,7.29453103 92.864,7.10253103 C91.488,6.78253103 90.176,7.29453103 88.032,8.35053103 L87.808,9.37453103 C88.448,8.99053103 89.536,8.47853103 89.984,8.57453103 C90.304,8.63853103 90.336,9.05453103 90.272,9.50253103 L90.144,9.98253103 C89.184,14.174531 88.224,18.942531 88.224,20.062531 C88.224,22.238531 89.6,23.646531 92.352,23.646531 Z" id="Path"></path>
                        <path d="M114.656,23.646531 C120.352,23.646531 124,17.886531 124,12.958531 C124,9.91853103 122.56,7.00653103 118.752,7.00653103 C116.672,7.00653103 114.688,8.06253103 113.216,9.53453103 L114.656,2.17453103 C114.88,1.02253103 114.464,0.254531035 113.536,0.0625310348 C112.16,-0.193468965 110.88,0.350531035 108.768,1.43853103 L108.576,2.46253103 C109.184,2.07853103 110.272,1.53453103 110.72,1.63053103 C111.04,1.69453103 111.104,2.11053103 111.008,2.52653103 L110.912,3.03853103 L108.192,16.734531 C108.128,17.150531 108.096,17.534531 108.096,17.918531 C108.096,21.470531 111.008,23.646531 114.656,23.646531 Z M111.616,18.142531 L111.616,17.726531 L112.736,11.998531 C113.792,10.078531 115.648,8.28653103 117.344,8.28653103 C119.776,8.28653103 120.192,10.526531 120.192,12.862531 C120.192,15.934531 118.848,22.782531 114.592,22.782531 C112.416,22.782531 111.616,20.766531 111.616,18.142531 Z" id="Shape"></path>
                        <path d="M131.456,23.646531 C135.072,23.646531 138.752,22.014531 138.752,18.558531 C138.752,14.846531 130.848,15.614531 130.848,11.166531 C130.848,9.27853103 132.896,7.87053103 134.848,7.87053103 C136.32,7.87053103 137.344,8.19053103 137.92,8.76653103 C136.544,9.05453103 135.04,10.590531 135.04,11.838531 C135.04,12.478531 135.456,12.894531 136.192,12.894531 C137.504,12.894531 139.456,11.582531 139.456,10.206531 C139.456,7.80653103 136.704,7.00653103 134.4,7.00653103 C131.04,7.00653103 126.976,9.18253103 126.976,12.542531 C126.976,16.638531 134.848,16.094531 134.848,19.966531 C134.848,21.630531 133.088,22.782531 131.616,22.782531 C129.824,22.782531 127.488,21.694531 127.488,18.526531 L125.664,18.526531 L124.704,23.326531 L125.856,23.326531 C126.016,22.558531 126.176,21.854531 126.368,21.342531 C127.488,23.166531 129.696,23.646531 131.456,23.646531 Z" id="Path"></path>
                        <path d="M148.544,23.646531 C152.128,23.646531 155.136,21.598531 156.288,18.686531 L153.056,18.686531 C152.512,20.478531 151.04,22.782531 148.736,22.782531 C146.176,22.782531 145.568,20.542531 145.568,17.886531 C145.568,13.822531 147.552,7.99853103 152.224,7.99853103 C154.24,7.99853103 155.712,8.83053103 156.256,10.238531 C154.88,10.430531 153.248,11.998531 153.248,13.278531 C153.248,13.950531 153.696,14.366531 154.4,14.366531 C155.776,14.366531 157.696,12.958531 157.696,11.550531 L157.696,11.518531 C157.696,8.54253103 154.944,7.00653103 151.808,7.00653103 C146.016,7.00653103 141.824,11.646531 141.824,17.086531 C141.824,21.086531 144.32,23.646531 148.544,23.646531 Z" id="Path"></path>
                        <path d="M163.776,20.638531 C164.704,15.774531 167.136,7.87053103 170.912,7.87053103 C171.552,7.87053103 172.128,8.22253103 172.512,8.76653103 C171.136,9.02253103 169.568,10.590531 169.568,11.838531 C169.568,12.478531 169.984,12.894531 170.72,12.894531 C172.032,12.894531 173.984,11.582531 173.984,10.206531 C173.984,8.51053103 172.704,7.00653103 171.168,7.00653103 C168.992,7.00653103 166.784,9.75853103 165.312,12.766531 L166.016,9.21453103 C166.24,8.06253103 165.824,7.29453103 164.896,7.10253103 C163.52,6.84653103 162.24,7.39053103 160.128,8.47853103 L159.936,9.50253103 C160.544,9.08653103 161.632,8.57453103 162.048,8.67053103 C162.368,8.73453103 162.432,9.15053103 162.368,9.56653103 L162.24,10.046531 L159.616,23.326531 L163.232,23.326531 L163.776,20.606531 L163.776,20.638531 Z" id="Path"></path>
                        <path d="M178.56,23.646531 C180.128,23.646531 181.12,22.718531 182.112,21.726531 L182.272,20.766531 C181.536,21.566531 180.672,22.366531 179.808,22.366531 C179.328,22.366531 178.976,22.046531 178.976,21.118531 C178.976,20.190531 180.448,12.926531 181.216,9.18253103 C181.44,8.06253103 181.056,7.29453103 180.128,7.10253103 C178.752,6.81453103 177.44,7.32653103 175.328,8.41453103 L175.136,9.43853103 C175.744,9.02253103 176.832,8.54253103 177.28,8.60653103 C177.568,8.67053103 177.664,9.08653103 177.568,9.53453103 L177.44,10.014531 C176.448,14.334531 175.488,19.422531 175.488,20.446531 C175.488,21.950531 176.192,23.646531 178.56,23.646531 Z M178.592,3.58253103 C178.592,4.44653103 179.232,5.08653103 180.128,5.08653103 C181.28,5.08653103 182.368,4.09453103 182.368,2.87853103 C182.368,2.04653103 181.76,1.37453103 180.864,1.37453103 C179.712,1.37453103 178.592,2.43053103 178.592,3.58253103 Z" id="Shape"></path>
                        <path d="M193.44,23.646531 C198.72,23.646531 201.792,17.854531 201.792,12.958531 C201.792,9.91853103 200.064,7.00653103 196.704,7.00653103 C194.144,7.00653103 192.064,9.37453103 190.464,12.702531 L191.168,9.18253103 C191.392,8.06253103 190.976,7.29453103 190.048,7.10253103 C188.672,6.84653103 187.392,7.35853103 185.28,8.44653103 L185.088,9.50253103 C185.696,9.08653103 186.784,8.60653103 187.232,8.67053103 C187.552,8.73453103 187.584,9.15053103 187.488,9.56653103 L187.424,10.046531 L183.52,29.726531 L181.472,29.822531 L181.248,31.006531 L188.672,31.006531 L188.896,29.822531 L187.136,29.726531 L188.832,21.086531 L188.896,20.798531 C189.728,22.462531 191.232,23.646531 193.44,23.646531 Z M189.344,18.590531 C190.56,13.598531 192.8,8.28653103 195.424,8.28653103 C197.632,8.28653103 197.984,10.526531 197.984,12.862531 C197.984,15.934531 196.384,22.366531 191.936,22.366531 C190.304,22.366531 189.6,20.446531 189.344,18.590531 Z" id="Shape"></path>
                        <path d="M209.152,23.646531 C212.672,23.646531 213.632,20.766531 214.048,18.686531 L212.672,18.686531 C212.288,20.574531 211.392,22.366531 210.304,22.366531 C209.44,22.366531 209.088,21.406531 209.088,20.318531 C209.088,19.230531 210.016,14.334531 210.944,9.79053103 L214.112,9.79053103 L214.4,8.41453103 L211.232,8.41453103 L212.416,2.78253103 L208.8,2.78253103 L207.616,8.41453103 L204.8,8.41453103 L204.512,9.79053103 L207.328,9.79053103 C206.432,14.238531 205.536,18.974531 205.536,20.126531 C205.536,22.718531 206.976,23.646531 209.152,23.646531 Z" id="Path"></path>
                        <path d="M219.968,23.646531 C221.536,23.646531 222.528,22.718531 223.52,21.726531 L223.68,20.766531 C222.944,21.566531 222.08,22.366531 221.216,22.366531 C220.736,22.366531 220.384,22.046531 220.384,21.118531 C220.384,20.190531 221.856,12.926531 222.624,9.18253103 C222.848,8.06253103 222.464,7.29453103 221.536,7.10253103 C220.16,6.81453103 218.848,7.32653103 216.736,8.41453103 L216.544,9.43853103 C217.152,9.02253103 218.24,8.54253103 218.688,8.60653103 C218.976,8.67053103 219.072,9.08653103 218.976,9.53453103 L218.848,10.014531 C217.856,14.334531 216.896,19.422531 216.896,20.446531 C216.896,21.950531 217.6,23.646531 219.968,23.646531 Z M220,3.58253103 C220,4.44653103 220.64,5.08653103 221.536,5.08653103 C222.688,5.08653103 223.776,4.09453103 223.776,2.87853103 C223.776,2.04653103 223.168,1.37453103 222.272,1.37453103 C221.12,1.37453103 220,2.43053103 220,3.58253103 Z" id="Shape"></path>
                        <path d="M232.576,23.646531 C238.048,23.646531 242.4,18.782531 242.4,13.438531 C242.4,9.40653103 239.424,7.00653103 235.808,7.00653103 C230.464,7.00653103 225.952,11.678531 225.952,17.182531 C225.952,21.246531 228.928,23.646531 232.576,23.646531 Z M229.696,17.790531 C229.696,13.950531 232.32,7.87053103 235.712,7.87053103 C237.664,7.87053103 238.656,10.238531 238.656,12.862531 C238.656,16.798531 236.096,22.782531 232.768,22.782531 C230.816,22.782531 229.696,20.414531 229.696,17.790531 Z" id="Shape"></path>
                        <path d="M257.632,23.646531 C259.232,23.646531 260.128,22.718531 261.12,21.726531 L261.312,20.766531 C260.512,21.566531 259.68,22.366531 258.912,22.366531 C258.4,22.366531 258.08,22.046531 258.08,21.118531 C258.08,19.294531 260.16,12.094531 260.16,10.494531 C260.16,8.15853103 258.56,7.00653103 256.16,7.00653103 C254.432,7.00653103 252.448,8.15853103 250.976,9.53453103 L251.04,9.21453103 C251.264,8.06253103 250.848,7.29453103 249.92,7.10253103 C248.544,6.84653103 247.264,7.39053103 245.152,8.47853103 L244.96,9.50253103 C245.568,9.08653103 246.656,8.57453103 247.072,8.67053103 C247.392,8.73453103 247.456,9.15053103 247.392,9.56653103 L247.264,10.046531 L244.64,23.326531 L248.256,23.326531 L250.752,10.654531 C251.904,9.37453103 253.408,8.28653103 254.72,8.28653103 C256.192,8.28653103 256.512,8.99053103 256.512,10.494531 C256.512,12.926531 254.528,17.854531 254.528,20.670531 C254.528,22.206531 255.296,23.646531 257.632,23.646531 Z" id="Path"></path>
                    </g>
                </g>
            </g>
        </g>
    </g>
</svg>