<?xml version="1.0" encoding="UTF-8"?>
<svg width="320px" height="40px" viewBox="0 0 320 40" version="1.1" xmlns="http://www.w3.org/2000/svg" xmlns:xlink="http://www.w3.org/1999/xlink">
    <title>apium-cyrillic-medium-italic</title>
    <g id="_exports" stroke="none" stroke-width="1" fill="none" fill-rule="evenodd">
        <g id="Apium" transform="translate(-701, -896)">
            <g id="apium-styles" transform="translate(0, 686)">
                <g id="apium-cyrillic-medium-italic" transform="translate(701, 210)">
                    <rect id="Rectangle-Copy-18" fill="#F7DF88" opacity="0" x="0" y="0" width="320" height="40"></rect>
                    <g transform="translate(4.056, 6.64)" fill="#424345" fill-rule="nonzero">
                        <path d="M6.528,23.68 C13.088,23.68 16.352,17.6 16.352,10.848 C16.352,6.048 14.208,0 8.512,0 C7.456,0 6.24,0.224 4.896,0.768 C4.192,1.12 3.296,1.92 3.296,2.784 C3.296,3.616 3.904,4.256 4.8,4.256 C5.92,4.256 7.008,3.264 7.008,2.112 C7.008,1.728 6.88,1.408 6.688,1.152 C7.264,0.992 7.808,0.928 8.32,0.928 C12.192,0.928 13.312,4.384 13.312,7.872 C13.312,8.448 13.28,9.056 13.216,9.632 C11.744,7.424 9.44,7.04 8.224,7.04 C3.008,7.04 0,12.864 0,16.992 C0,21.248 2.688,23.68 6.528,23.68 Z M3.712,18.08 C3.712,14.848 5.568,8.32 9.632,8.32 C11.808,8.32 12.544,11.04 12.544,13.376 C12.544,16.832 10.56,22.816 7.008,22.816 C4.416,22.816 3.712,20.288 3.712,18.08 Z" id="Shape"></path>
                        <path d="M24.832,23.68 C27.36,23.68 31.136,22.272 32.736,19.04 L29.312,19.04 C28.256,21.056 26.656,22.816 24.928,22.816 C23.136,22.816 22.08,21.056 21.952,18.912 C26.816,18.72 33.568,16.96 33.568,12.32 C33.568,9.568 31.68,7.04 28.096,7.04 C22.24,7.04 18.048,11.84 18.048,17.216 C18.048,21.184 20.8,23.68 24.832,23.68 Z M21.952,18.016 C22.144,14.304 24.032,7.904 27.776,7.904 C29.504,7.904 30.24,9.568 30.24,11.104 C30.24,15.072 26.816,17.696 21.952,18.016 Z" id="Shape"></path>
                        <path d="M24.448,4.736 L24.832,5.76 C25.792,5.728 30.336,3.68 31.872,2.24 L29.504,0.96 C28.8,1.952 25.856,4.224 24.448,4.736 Z" id="Path"></path>
                        <path d="M43.168,23.68 C46.592,23.68 50.656,21.376 50.656,18.304 C50.656,16.832 49.696,15.712 48.48,15.168 C50.016,14.176 50.976,12.768 50.976,10.912 C50.976,8.448 48.544,7.04 45.984,7.04 C40.128,7.04 35.936,11.84 35.936,17.216 C35.936,21.184 39.04,23.68 43.168,23.68 Z M39.808,17.312 C42.304,17.248 44.768,16.864 46.72,16.064 C47.328,16.64 47.712,17.568 47.712,18.624 C47.712,20.96 45.856,22.816 43.84,22.816 C40.8,22.816 39.936,19.584 39.808,17.312 Z M39.84,16.448 C40.032,12.8 41.92,7.904 45.664,7.904 C47.392,7.904 48.128,9.152 48.128,10.688 C48.128,14.016 44.704,16.192 39.84,16.448 Z" id="Shape"></path>
                        <path d="M60.224,23.68 C63.808,23.68 66.816,21.632 67.968,18.72 L64.736,18.72 C64.192,20.512 62.72,22.816 60.416,22.816 C57.856,22.816 57.248,20.576 57.248,17.92 C57.248,13.856 59.232,8.032 63.904,8.032 C65.92,8.032 67.392,8.864 67.936,10.272 C66.56,10.464 64.928,12.032 64.928,13.312 C64.928,13.984 65.376,14.4 66.08,14.4 C67.456,14.4 69.376,12.992 69.376,11.584 L69.376,11.552 C69.376,8.576 66.624,7.04 63.488,7.04 C57.696,7.04 53.504,11.68 53.504,17.12 C53.504,21.12 56,23.68 60.224,23.68 Z" id="Path"></path>
                        <path d="M93.632,23.68 C95.2,23.68 96.096,22.752 97.088,21.76 L97.28,20.8 C96.48,21.6 95.68,22.4 94.88,22.4 C94.4,22.4 94.08,22.08 94.08,21.152 C94.08,19.328 96.128,12.128 96.128,10.528 C96.128,8.192 94.56,7.04 92.16,7.04 C90.368,7.04 88.256,8.32 86.752,9.76 C86.432,7.936 84.928,7.04 82.816,7.04 C81.088,7.04 79.104,8.192 77.632,9.568 L77.696,9.248 C77.92,8.096 77.504,7.328 76.576,7.136 C75.2,6.88 73.92,7.424 71.808,8.512 L71.616,9.536 C72.224,9.12 73.312,8.608 73.728,8.704 C74.048,8.768 74.112,9.184 74.048,9.6 L73.92,10.08 L71.296,23.36 L74.912,23.36 L77.408,10.688 C78.56,9.408 80.064,8.32 81.376,8.32 C82.848,8.32 83.168,9.024 83.168,10.528 C83.168,12.96 81.216,20.32 80.672,23.36 L84.288,23.36 C84.704,21.024 86.752,12.416 86.816,10.624 C87.968,9.376 89.44,8.32 90.688,8.32 C92.16,8.32 92.512,9.024 92.512,10.528 C92.512,12.96 90.528,17.888 90.528,20.704 C90.528,22.24 91.264,23.68 93.632,23.68 Z" id="Path"></path>
                        <path d="M106.752,23.68 C110.176,23.68 114.24,21.376 114.24,18.304 C114.24,16.832 113.28,15.712 112.064,15.168 C113.6,14.176 114.56,12.768 114.56,10.912 C114.56,8.448 112.128,7.04 109.568,7.04 C103.712,7.04 99.52,11.84 99.52,17.216 C99.52,21.184 102.624,23.68 106.752,23.68 Z M103.392,17.312 C105.888,17.248 108.352,16.864 110.304,16.064 C110.912,16.64 111.296,17.568 111.296,18.624 C111.296,20.96 109.44,22.816 107.424,22.816 C104.384,22.816 103.52,19.584 103.392,17.312 Z M103.424,16.448 C103.616,12.8 105.504,7.904 109.248,7.904 C110.976,7.904 111.712,9.152 111.712,10.688 C111.712,14.016 108.288,16.192 103.424,16.448 Z" id="Shape"></path>
                        <path d="M123.872,23.68 C126.4,23.68 130.176,22.272 131.776,19.04 L128.352,19.04 C127.296,21.056 125.696,22.816 123.968,22.816 C122.176,22.816 121.12,21.056 120.992,18.912 C125.856,18.72 132.608,16.96 132.608,12.32 C132.608,9.568 130.72,7.04 127.136,7.04 C121.28,7.04 117.088,11.84 117.088,17.216 C117.088,21.184 119.84,23.68 123.872,23.68 Z M120.992,18.016 C121.184,14.304 123.072,7.904 126.816,7.904 C128.544,7.904 129.28,9.568 129.28,11.104 C129.28,15.072 125.856,17.696 120.992,18.016 Z" id="Shape"></path>
                        <path d="M152.192,7.04 L148.416,7.744 L147.072,14.624 L140.544,14.624 L141.6,9.248 C141.824,8.096 141.408,7.328 140.48,7.136 C139.104,6.88 137.824,7.424 135.712,8.512 L135.52,9.536 C136.128,9.12 137.216,8.608 137.632,8.704 C137.952,8.768 138.016,9.184 137.952,9.6 L137.824,10.08 L135.2,23.36 L138.816,23.36 L140.32,15.712 L146.848,15.712 L145.728,21.472 C145.504,22.624 145.92,23.392 146.848,23.584 C148.224,23.84 149.536,23.296 151.648,22.208 L151.84,21.184 C151.2,21.6 150.112,22.112 149.696,22.016 C149.376,21.952 149.312,21.536 149.376,21.12 L149.504,20.608 L152.192,7.04 Z" id="Path"></path>
                        <path d="M159.232,23.68 C161.216,23.68 163.2,22.272 164.608,20.736 C164.704,22.176 165.44,23.68 167.68,23.68 C169.248,23.68 170.176,22.752 171.104,21.76 L171.296,20.8 C170.496,21.632 169.696,22.4 168.928,22.4 C168.448,22.4 168.096,22.08 168.096,21.152 C168.096,20 170.304,9.152 170.752,7.04 L166.976,7.744 C166.624,9.216 165.056,16.992 164.672,19.712 C163.552,21.12 162.016,22.4 160.544,22.4 C159.232,22.4 158.72,21.376 158.72,20.096 C158.72,19.008 160,13.216 160.832,9.248 C161.056,8.128 160.64,7.328 159.744,7.136 C158.368,6.816 157.056,7.328 154.912,8.384 L154.688,9.408 C155.328,9.024 156.416,8.512 156.864,8.608 C157.184,8.672 157.216,9.088 157.152,9.536 L157.024,10.016 C156.064,14.208 155.104,18.976 155.104,20.096 C155.104,22.272 156.48,23.68 159.232,23.68 Z" id="Path"></path>
                        <path d="M178.656,23.68 C180.64,23.68 182.624,22.272 184.032,20.736 C184.128,22.176 184.864,23.68 187.104,23.68 C188.16,23.68 188.896,23.264 189.568,22.688 C190.24,22.144 190.816,21.6 191.264,20.96 C191.008,21.504 190.88,21.952 190.784,22.368 C190.528,23.808 191.136,24.576 190.944,25.728 C190.752,26.688 190.272,27.264 189.472,27.712 L189.824,28.288 C191.264,27.872 192.64,26.112 192.896,24.608 C193.248,22.752 192.288,21.344 192.544,19.968 C192.608,19.584 192.8,18.976 193.024,18.688 L192.16,18.272 C191.872,19.232 191.328,20.192 190.72,20.8 C189.92,21.632 189.12,22.4 188.352,22.4 C187.872,22.4 187.52,22.08 187.52,21.152 C187.52,20 189.728,9.152 190.176,7.04 L186.4,7.744 C186.048,9.216 184.48,16.992 184.096,19.712 C182.976,21.12 181.44,22.4 179.968,22.4 C178.656,22.4 178.144,21.376 178.144,20.096 C178.144,19.008 179.424,13.216 180.256,9.248 C180.48,8.128 180.064,7.328 179.168,7.136 C177.792,6.816 176.48,7.328 174.336,8.384 L174.112,9.408 C174.752,9.024 175.84,8.512 176.288,8.608 C176.608,8.672 176.64,9.088 176.576,9.536 L176.448,10.016 C175.488,14.208 174.528,18.976 174.528,20.096 C174.528,22.272 175.904,23.68 178.656,23.68 Z" id="Path"></path>
                        <path d="M201.184,23.68 C203.52,23.68 205.728,22.432 207.296,20.672 C207.36,22.112 208.096,23.68 210.368,23.68 C211.936,23.68 212.864,22.752 213.792,21.76 L213.984,20.8 C213.184,21.632 212.384,22.4 211.616,22.4 C211.136,22.4 210.784,22.08 210.784,21.152 C210.784,20 212.992,9.152 213.408,7.04 L209.632,7.744 C209.536,8.16 209.344,9.024 209.12,10.144 C208.288,8.352 206.752,7.04 204.416,7.04 C199.136,7.04 196.096,12.832 196.096,17.728 C196.096,20.768 197.376,23.68 201.184,23.68 Z M199.904,17.824 C199.904,14.752 201.568,8.32 205.824,8.32 C207.84,8.32 208.448,10.656 208.608,12.672 C208.224,14.72 207.808,16.928 207.552,18.496 C206.656,20.48 204.992,22.4 203.2,22.4 C200.768,22.4 199.904,20.16 199.904,17.824 Z" id="Shape"></path>
                    </g>
                </g>
            </g>
        </g>
    </g>
</svg>