<svg xmlns="http://www.w3.org/2000/svg" width="320" height="40"><g fill="#424345" fill-rule="nonzero"><path d="M1.416 30h4.16l.32-1.6-1.216-.32 3.232-16.544L11.336 30h1.632l9.28-17.152-2.976 15.232-1.664.32-.32 1.6h9.28l.32-1.6-1.216-.32 3.488-17.92 1.92-.32.32-1.6h-8.256l-6.976 12.864L14.312 8.24H5.288l-.32 1.6 1.92.32L3.4 28.08l-1.664.32zM37.064 30.64c2.88 0 3.968-1.408 4.832-2.592l.256-1.248c-.672.672-1.6 1.6-2.656 1.6-.64 0-.864-.288-.864-.8 0-.608 1.472-7.648 2.24-11.616.224-1.12-.704-2.176-2.144-2.464-2.624-.544-4.768.608-6.784 1.696l-.352 1.824c1.184-.736 2.112-.96 2.464-.896.128.032.352.192.256.576l-.192.864c-1.024 4.544-1.728 8.32-1.728 8.896 0 2.176 1.696 4.16 4.672 4.16Zm-.576-20.832c0 1.12.8 1.952 1.92 1.952 1.472 0 2.88-1.344 2.88-2.816 0-1.056-.8-1.92-1.952-1.92-1.44 0-2.848 1.344-2.848 2.784ZM50.728 30.64c4 0 8.16-1.792 8.16-5.504 0-3.52-6.976-3.392-6.976-8.096 0-1.632 1.376-2.72 3.648-2.72.864 0 1.792.16 2.496.512-1.76.448-3.584 2.272-3.584 3.904 0 .864.544 1.44 1.504 1.44 1.728 0 4.32-1.792 4.32-3.552 0-.512-.096-1.024-.384-1.408-1.056-1.6-4-1.856-6.272-1.856-4.288 0-8.576 2.112-8.576 6.08 0 3.936 6.976 4.256 6.976 8.16 0 1.6-1.6 2.08-2.688 2.08-2.144 0-3.04-1.6-3.04-4.512h-2.56L42.792 30h.96c.16-.832.352-1.568.64-2.112 1.248 2.304 4.128 2.752 6.336 2.752ZM66.728 30.64c2.784 0 5.056-1.664 6.624-3.488.32 1.888 1.952 3.488 4.608 3.488 2.88 0 3.968-1.408 4.832-2.592l.256-1.248c-.672.672-1.6 1.6-2.656 1.6-.64 0-.864-.288-.864-.8 0-.64 2.528-13.312 3.552-18.656.224-1.088-.704-2.176-2.144-2.464-2.624-.512-4.768.672-6.752 1.792l-.384 1.792c1.216-.736 2.144-.96 2.464-.896.128.032.384.16.288.576l-.192.832c-.416 1.984-.832 4.128-1.248 6.144-.896-1.856-2.528-3.36-5.056-3.36-5.536 0-8.608 6.176-8.608 11.104 0 3.168 1.344 6.176 5.28 6.176Zm1.376-5.664c0-2.688 1.312-9.376 4.544-9.376 1.184 0 1.824 1.408 2.112 2.88-.608 3.232-1.152 5.984-1.344 7.264-.896 1.408-2.176 2.656-3.264 2.656-1.28 0-2.048-1.152-2.048-3.424ZM93.544 30.64c2.208 0 7.872-.704 9.28-4.32h-5.376c-.704 2.048-2.336 3.36-3.744 3.36-1.536 0-1.856-1.856-1.888-3.776 4.704-.224 12.64-2.528 12.64-6.912 0-3.2-3.104-5.632-7.584-5.632-6.304 0-11.776 4.48-11.776 10.368 0 4.576 4 6.912 8.448 6.912Zm-1.632-5.728c.064-3.712 1.44-10.592 4.8-10.592 1.28 0 2.272 1.728 2.272 3.36 0 2.816-1.824 6.784-7.072 7.232ZM131.24 30.64c2.88 0 3.968-1.408 4.832-2.592l.256-1.248c-.672.672-1.6 1.6-2.656 1.6-.64 0-.864-.288-.864-.8 0-1.92 2.176-9.696 2.176-10.624 0-2.144-1.632-3.616-4.448-3.616-1.856 0-4 1.088-5.536 2.464-.512-1.504-2.016-2.464-4.288-2.464-1.728 0-3.712.96-5.248 2.208-.064-.96-.928-1.792-2.176-2.016-2.624-.544-4.768.64-6.752 1.76l-.352 1.824c1.184-.736 2.112-.992 2.464-.928.096.032.352.16.256.576l-.192.832L106.28 30h6.4l2.56-13.088c.736-.768 1.6-1.312 2.368-1.312.832 0 1.152.48 1.152 1.376 0 1.44-2.016 10.208-2.528 13.024h6.368c.416-1.92 2.56-12.096 2.56-13.024v-.16c.704-.704 1.536-1.216 2.272-1.216.832 0 1.152.48 1.152 1.376 0 1.44-1.92 6.816-1.92 9.632 0 2.176 1.6 4.032 4.576 4.032ZM146.664 30.64c2.208 0 7.872-.704 9.28-4.32h-5.376c-.704 2.048-2.336 3.36-3.744 3.36-1.536 0-1.856-1.856-1.888-3.776 4.704-.224 12.64-2.528 12.64-6.912 0-3.2-3.104-5.632-7.584-5.632-6.304 0-11.776 4.48-11.776 10.368 0 4.576 4 6.912 8.448 6.912Zm-1.632-5.728c.064-3.712 1.44-10.592 4.8-10.592 1.28 0 2.272 1.728 2.272 3.36 0 2.816-1.824 6.784-7.072 7.232ZM164.04 30.64c2.784 0 5.056-1.664 6.624-3.488.32 1.888 1.952 3.488 4.608 3.488 2.88 0 3.968-1.408 4.832-2.592l.256-1.248c-.672.672-1.6 1.6-2.656 1.6-.64 0-.864-.288-.864-.8 0-.736 2.176-11.424 2.688-14.24l-6.688 1.28a38.52 38.52 0 0 0-.416 2.08c-.896-1.824-2.464-3.36-5.056-3.36-5.536 0-8.608 6.176-8.608 11.104 0 3.168 1.344 6.176 5.28 6.176Zm1.376-5.664c0-2.656 1.312-9.376 4.544-9.376 1.152 0 1.792 1.44 2.112 2.912-.544 2.656-1.12 5.824-1.376 7.232-.896 1.408-2.144 2.656-3.232 2.656-1.28 0-2.048-1.152-2.048-3.424ZM197.96 30.64c2.88 0 3.968-1.408 4.832-2.592l.256-1.248c-.672.672-1.6 1.6-2.656 1.6-.64 0-.864-.288-.864-.8 0-1.92 2.176-9.696 2.176-10.624 0-2.144-1.632-3.616-4.448-3.616-1.728 0-3.712.96-5.248 2.208-.064-.96-.928-1.792-2.176-2.016-2.624-.544-4.768.64-6.752 1.76l-.352 1.824c1.184-.736 2.112-.992 2.464-.928.096.032.352.16.256.576l-.192.832L182.824 30h6.4l2.56-13.088c.736-.768 1.6-1.312 2.368-1.312.832 0 1.152.48 1.152 1.376 0 1.44-1.92 6.816-1.92 9.632 0 2.176 1.6 4.032 4.576 4.032ZM210.152 30.64c2.784 0 5.056-1.664 6.624-3.488.32 1.888 1.952 3.488 4.608 3.488 2.88 0 3.968-1.408 4.832-2.592l.256-1.248c-.672.672-1.6 1.6-2.656 1.6-.64 0-.864-.288-.864-.8 0-.736 2.176-11.424 2.688-14.24l-6.688 1.28a38.52 38.52 0 0 0-.416 2.08c-.896-1.824-2.464-3.36-5.056-3.36-5.536 0-8.608 6.176-8.608 11.104 0 3.168 1.344 6.176 5.28 6.176Zm1.376-5.664c0-2.656 1.312-9.376 4.544-9.376 1.152 0 1.792 1.44 2.112 2.912-.544 2.656-1.12 5.824-1.376 7.232-.896 1.408-2.144 2.656-3.232 2.656-1.28 0-2.048-1.152-2.048-3.424ZM244.072 30.64c2.88 0 3.968-1.408 4.832-2.592l.256-1.248c-.672.672-1.6 1.6-2.656 1.6-.64 0-.864-.288-.864-.8 0-1.92 2.176-9.696 2.176-10.624 0-2.144-1.632-3.616-4.448-3.616-1.728 0-3.712.96-5.248 2.208-.064-.96-.928-1.792-2.176-2.016-2.624-.544-4.768.64-6.752 1.76l-.352 1.824c1.184-.736 2.112-.992 2.464-.928.096.032.352.16.256.576l-.192.832L228.936 30h6.4l2.56-13.088c.736-.768 1.6-1.312 2.368-1.312.832 0 1.152.48 1.152 1.376 0 1.44-1.92 6.816-1.92 9.632 0 2.176 1.6 4.032 4.576 4.032ZM257.64 30.64c5.056 0 6.176-2.624 6.72-5.28h-1.28c-.256 1.6-1.088 3.04-2.464 3.04-.896 0-1.28-.768-1.28-2.112 0-.96.736-5.056 1.536-9.216h2.752l.416-1.92h-2.784l1.152-5.696h-6.4l-1.152 5.696h-2.464l-.416 1.92h2.528c-.768 4-1.472 7.84-1.472 8.768 0 3.712 2.336 4.8 4.608 4.8ZM272.648 30.64c4 0 8.16-1.792 8.16-5.504 0-3.52-6.976-3.392-6.976-8.096 0-1.632 1.376-2.72 3.648-2.72.864 0 1.792.16 2.496.512-1.76.448-3.584 2.272-3.584 3.904 0 .864.544 1.44 1.504 1.44 1.728 0 4.32-1.792 4.32-3.552 0-.512-.096-1.024-.384-1.408-1.056-1.6-4-1.856-6.272-1.856-4.288 0-8.576 2.112-8.576 6.08 0 3.936 6.976 4.256 6.976 8.16 0 1.6-1.6 2.08-2.688 2.08-2.144 0-3.04-1.6-3.04-4.512h-2.56l-.96 4.832h.96c.16-.832.352-1.568.64-2.112 1.248 2.304 4.128 2.752 6.336 2.752Z"/></g></svg>