<?xml version="1.0" encoding="UTF-8"?>
<svg width="320px" height="40px" viewBox="0 0 320 40" version="1.1" xmlns="http://www.w3.org/2000/svg" xmlns:xlink="http://www.w3.org/1999/xlink">
    <title>apium-cyrillic-black-italic</title>
    <g id="_exports" stroke="none" stroke-width="1" fill="none" fill-rule="evenodd">
        <g id="Apium" transform="translate(-1401, -896)">
            <g id="apium-styles" transform="translate(0, 686)">
                <g id="apium-cyrillic-black-italic" transform="translate(1401, 210)">
                    <rect id="Rectangle-Copy-22" fill="#F7DF88" opacity="0" x="0" y="0" width="320" height="40"></rect>
                    <g transform="translate(5.832, 6.32)" fill="#424345" fill-rule="nonzero">
                        <path d="M8.448,24.32 C15.328,24.32 18.912,17.888 18.912,11.648 C18.912,5.728 15.744,0 9.216,0 C8.128,0 6.944,0.192 5.664,0.64 C4.768,1.024 3.584,2.08 3.584,3.2 C3.584,4.192 4.352,4.992 5.408,4.992 C6.752,4.992 8.128,3.744 8.128,2.368 C8.128,1.92 8,1.536 7.776,1.216 C8.128,1.184 8.512,1.152 8.832,1.152 C12.832,1.152 13.92,4.608 13.92,7.2 C13.92,8.128 13.824,9.056 13.696,9.92 C12.16,7.904 10.336,7.04 8.48,7.04 C4.224,7.04 0,11.712 0,17.408 C0,22.304 4.512,24.32 8.448,24.32 Z M6.464,19.712 C6.464,16.992 7.904,9.28 11.136,9.28 C12.768,9.28 13.28,11.296 13.28,13.376 C13.28,16.352 11.904,23.36 8.608,23.36 C6.944,23.36 6.464,21.632 6.464,19.712 Z" id="Shape"></path>
                        <path d="M25.728,24.32 C27.808,24.32 30.272,22.944 31.84,21.312 C32.32,22.976 33.92,24.32 36.352,24.32 C39.232,24.32 40.32,22.912 41.184,21.728 L41.44,20.48 C40.768,21.152 39.84,22.08 38.784,22.08 C38.144,22.08 37.92,21.792 37.92,21.28 C37.92,20.544 40.128,9.856 40.64,7.04 L33.984,8.32 C33.568,10.24 31.68,19.616 31.68,20.16 L31.68,20.224 C30.848,21.248 29.792,22.08 28.832,22.08 C28,22.08 27.68,21.6 27.68,20.704 C27.68,19.52 29.056,13.344 29.824,9.664 C30.048,8.544 29.152,7.488 27.712,7.2 C25.056,6.624 22.88,7.776 20.896,8.864 L20.512,10.688 C21.728,9.952 22.656,9.728 23.008,9.792 C23.136,9.824 23.36,9.952 23.264,10.368 L23.072,11.2 C22.112,16 21.28,20.128 21.28,20.704 C21.28,22.848 22.912,24.32 25.728,24.32 Z" id="Path"></path>
                        <path d="M59.2,24.32 C62.08,24.32 63.168,22.912 64.032,21.728 L64.288,20.48 C63.616,21.152 62.688,22.08 61.632,22.08 C60.992,22.08 60.768,21.792 60.768,21.28 C60.768,19.36 62.944,11.584 62.944,10.656 C62.944,8.512 61.312,7.04 58.496,7.04 C56.768,7.04 54.784,8 53.248,9.248 C53.184,8.288 52.32,7.456 51.072,7.232 C48.448,6.688 46.304,7.872 44.32,8.992 L43.968,10.816 C45.152,10.08 46.08,9.824 46.432,9.888 C46.528,9.92 46.784,10.048 46.688,10.464 L46.496,11.296 L44.064,23.68 L50.464,23.68 L53.024,10.592 C53.76,9.824 54.624,9.28 55.392,9.28 C56.224,9.28 56.544,9.76 56.544,10.656 C56.544,12.096 54.624,17.472 54.624,20.288 C54.624,22.464 56.224,24.32 59.2,24.32 Z" id="Path"></path>
                        <path d="M67.584,24.32 C72.128,24.32 73.216,19.008 75.2,8.992 L78.592,8.992 L76.096,21.696 C75.872,22.816 76.8,23.872 78.24,24.128 C80.864,24.672 83.008,23.488 84.992,22.368 L85.344,20.544 C84.16,21.28 83.232,21.536 82.88,21.472 C82.784,21.44 82.528,21.312 82.624,20.896 L82.816,20.064 L85.28,7.68 L71.232,7.68 L70.752,9.28 L73.792,9.6 C71.904,19.264 71.008,23.36 67.424,23.36 C67.264,23.36 67.104,23.36 66.944,23.296 C68.512,22.816 70.176,21.344 70.176,19.904 C70.176,18.784 69.824,18.048 68.736,18.048 C67.008,18.048 64.416,19.808 64.416,21.6 C64.416,23.68 65.856,24.32 67.584,24.32 Z" id="Path"></path>
                        <path d="M95.872,24.32 C102.208,24.32 107.648,19.808 107.648,13.952 C107.648,9.376 103.648,7.04 99.2,7.04 C92.896,7.04 87.424,11.52 87.424,17.408 C87.424,21.984 91.424,24.32 95.872,24.32 Z M93.856,19.776 C93.856,16.896 95.648,8 99.04,8 C100.32,8 101.216,8.928 101.216,11.584 C101.216,14.464 99.424,23.36 96.032,23.36 C94.752,23.36 93.856,22.432 93.856,19.776 Z" id="Shape"></path>
                        <path d="M110.848,24.32 C113.408,24.32 114.624,22.56 117.056,10.112 L119.104,23.68 L120.352,23.68 L128.096,10.656 L125.92,21.696 C125.696,22.816 126.624,23.872 128.064,24.128 C130.688,24.672 132.832,23.488 134.816,22.368 L135.168,20.544 C133.984,21.28 133.056,21.536 132.704,21.472 C132.608,21.44 132.352,21.312 132.448,20.896 L132.64,20.064 L135.072,7.68 L128.576,7.68 L123.008,17.056 L121.28,7.68 L112.928,7.68 L112.448,9.28 L115.648,9.6 C114.752,16.352 113.184,23.36 111.008,23.36 C110.304,23.36 109.792,23.072 109.472,22.592 C111.008,22.336 112.864,20.896 112.864,19.456 C112.864,18.496 112.544,17.824 111.584,17.824 C110.048,17.824 107.776,19.36 107.776,20.96 L107.776,20.992 C107.776,23.072 108.96,24.32 110.848,24.32 Z" id="Path"></path>
                        <path d="M142.464,24.32 C145.248,24.32 147.52,22.656 149.088,20.832 C149.408,22.72 151.04,24.32 153.696,24.32 C156.576,24.32 157.664,22.912 158.528,21.728 L158.784,20.48 C158.112,21.152 157.184,22.08 156.128,22.08 C155.488,22.08 155.264,21.792 155.264,21.28 C155.264,20.544 157.44,9.856 157.952,7.04 L151.264,8.32 C151.168,8.736 151.008,9.472 150.848,10.4 C149.952,8.576 148.384,7.04 145.792,7.04 C140.256,7.04 137.184,13.216 137.184,18.144 C137.184,21.312 138.528,24.32 142.464,24.32 Z M143.84,18.656 C143.84,16 145.152,9.28 148.384,9.28 C149.536,9.28 150.176,10.72 150.496,12.192 C149.952,14.848 149.376,18.016 149.12,19.424 C148.224,20.832 146.976,22.08 145.888,22.08 C144.608,22.08 143.84,20.928 143.84,18.656 Z" id="Shape"></path>
                        <path d="M186.208,24.32 C189.088,24.32 190.176,22.912 191.04,21.728 L191.296,20.48 C190.624,21.152 189.696,22.08 188.64,22.08 C188,22.08 187.776,21.792 187.776,21.28 C187.776,19.36 189.952,11.584 189.952,10.656 C189.952,8.512 188.32,7.04 185.504,7.04 C183.648,7.04 181.504,8.128 179.968,9.504 C179.456,8 177.952,7.04 175.68,7.04 C173.952,7.04 171.968,8 170.432,9.248 C170.368,8.288 169.504,7.456 168.256,7.232 C165.632,6.688 163.488,7.872 161.504,8.992 L161.152,10.816 C162.336,10.08 163.264,9.824 163.616,9.888 C163.712,9.92 163.968,10.048 163.872,10.464 L163.68,11.296 L161.248,23.68 L167.648,23.68 L170.208,10.592 C170.944,9.824 171.808,9.28 172.576,9.28 C173.408,9.28 173.728,9.76 173.728,10.656 C173.728,12.096 171.712,20.864 171.2,23.68 L177.568,23.68 C177.984,21.76 180.128,11.584 180.128,10.656 L180.128,10.496 C180.832,9.792 181.664,9.28 182.4,9.28 C183.232,9.28 183.552,9.76 183.552,10.656 C183.552,12.096 181.632,17.472 181.632,20.288 C181.632,22.464 183.232,24.32 186.208,24.32 Z" id="Path"></path>
                        <path d="M198.72,24.32 C200.8,24.32 203.264,22.944 204.832,21.312 C205.312,22.976 206.912,24.32 209.344,24.32 C212.224,24.32 213.312,22.912 214.176,21.728 L214.432,20.48 C213.76,21.152 212.832,22.08 211.776,22.08 C211.136,22.08 210.912,21.792 210.912,21.28 C210.912,20.544 213.12,9.856 213.632,7.04 L206.976,8.32 C206.56,10.24 204.672,19.616 204.672,20.16 L204.672,20.224 C203.84,21.248 202.784,22.08 201.824,22.08 C200.992,22.08 200.672,21.6 200.672,20.704 C200.672,19.52 202.048,13.344 202.816,9.664 C203.04,8.544 202.144,7.488 200.704,7.2 C198.048,6.624 195.872,7.776 193.888,8.864 L193.504,10.688 C194.72,9.952 195.648,9.728 196,9.792 C196.128,9.824 196.352,9.952 196.256,10.368 L196.064,11.2 C195.104,16 194.272,20.128 194.272,20.704 C194.272,22.848 195.904,24.32 198.72,24.32 Z" id="Path"></path>
                        <path d="M223.264,17.28 C225.024,17.28 227.008,16.192 228.512,14.816 C228,17.44 227.52,19.904 227.52,20.16 C227.52,22.336 229.216,24.32 232.192,24.32 C235.072,24.32 236.16,22.912 237.024,21.728 L237.28,20.48 C236.608,21.152 235.68,22.08 234.624,22.08 C233.984,22.08 233.76,21.792 233.76,21.28 C233.76,20.544 235.968,9.856 236.48,7.04 L229.824,8.32 L228.768,13.44 C228.032,14.336 227.136,15.04 226.272,15.04 C225.376,15.04 225.024,14.592 225.024,13.664 C225.024,13.216 225.504,11.2 225.92,9.632 C226.208,8.544 225.376,7.488 223.936,7.2 C221.312,6.688 219.168,7.872 217.184,8.96 L216.8,10.784 C218.016,10.048 218.944,9.824 219.264,9.888 C219.392,9.92 219.648,10.048 219.552,10.464 L219.36,11.296 C218.976,13.248 218.88,13.76 218.88,13.824 C218.88,16.352 220.576,17.28 223.264,17.28 Z" id="Path"></path>
                        <path d="M259.936,7.04 L253.248,8.32 L252,14.784 L248.064,14.784 L249.056,9.664 C249.28,8.544 248.352,7.488 246.912,7.232 C244.288,6.688 242.144,7.872 240.16,8.992 L239.808,10.816 C240.992,10.08 241.92,9.824 242.272,9.888 C242.368,9.92 242.624,10.048 242.528,10.464 L242.336,11.296 L239.904,23.68 L246.304,23.68 L247.808,16.064 L251.744,16.064 L250.656,21.696 C250.432,22.816 251.36,23.872 252.8,24.128 C255.424,24.64 257.568,23.456 259.552,22.368 L259.904,20.544 C258.72,21.28 257.792,21.536 257.44,21.472 C257.312,21.44 257.088,21.28 257.184,20.896 L257.376,20.032 L259.936,7.04 Z" id="Path"></path>
                        <path d="M270.432,24.32 C276.768,24.32 282.208,19.808 282.208,13.952 C282.208,9.376 278.208,7.04 273.76,7.04 C267.456,7.04 261.984,11.52 261.984,17.408 C261.984,21.984 265.984,24.32 270.432,24.32 Z M268.416,19.776 C268.416,16.896 270.208,8 273.6,8 C274.88,8 275.776,8.928 275.776,11.584 C275.776,14.464 273.984,23.36 270.592,23.36 C269.312,23.36 268.416,22.432 268.416,19.776 Z" id="Shape"></path>
                    </g>
                </g>
            </g>
        </g>
    </g>
</svg>