<svg xmlns="http://www.w3.org/2000/svg" width="320" height="40"><g fill="#424345" fill-rule="nonzero"><path d="M20.696 33.68c.832 0 2.432-.416 2.432-1.44s-.928-1.44-1.76-1.44c-1.568 0-2.016 1.12-3.584 1.12-.992 0-2.048-.896-2.752-1.76 6.304-.064 9.568-5.472 9.568-11.04 0-5.536-3.296-11.04-9.664-11.04-6.336 0-9.696 5.504-9.696 11.04 0 5.184 2.88 10.24 8.352 10.944.512.672.896 1.024 1.568 1.632 1.504 1.312 3.008 1.984 5.536 1.984ZM7.64 19.12c0-4.192 1.696-10.24 7.296-10.24 5.632 0 7.264 6.048 7.264 10.24 0 4.224-1.632 10.24-7.264 10.24-5.6 0-7.296-6.016-7.296-10.24ZM34.936 30.16c1.664 0 3.424-1.28 4.672-2.56V30h4.48v-.96h-2.24V14h-4.48v.96h2.24v10.912c-.768 1.856-2.816 3.488-4.48 3.488-3.2 0-3.648-3.648-3.648-6.08V14H27v.96h2.24v8.32c0 4.768 2.688 6.88 5.696 6.88ZM53.016 30.16c2.432 0 4.576-1.024 5.888-2.752.416 1.92 1.568 2.752 3.488 2.752 2.752 0 3.2-3.008 3.2-4.8h-1.44c0 2.016-.544 4-1.728 4-1.152 0-1.472-1.664-1.472-3.36V14h-2.24v2.4c-1.312-1.6-3.36-2.56-5.696-2.56-4.704 0-6.368 4.48-6.368 8.16 0 3.68 1.664 8.16 6.368 8.16ZM49.048 22c0-2.912 1.056-7.36 5.024-7.36 2.688 0 4.224 2.304 4.64 4.672v5.376c-.416 2.368-1.952 4.672-4.64 4.672-3.968 0-5.024-4.448-5.024-7.36ZM66.712 30h6.72v-.96h-2.24v-9.696c.864-2.208 2.912-4.704 5.088-4.704.992 0 2.176.192 2.752 1.12-1.12.032-2.272 1.248-2.272 2.336 0 .704.48 1.184 1.184 1.184 1.12 0 2.336-1.088 2.336-2.272 0-2.08-1.696-3.168-3.584-3.168-2.528 0-4.576 1.632-5.504 2.656V14h-4.48v.96h2.24v14.08h-2.24V30ZM81.24 30h6.72v-.96h-2.24v-9.696c.864-2.208 2.912-4.704 5.088-4.704.992 0 2.176.192 2.752 1.12-1.12.032-2.272 1.248-2.272 2.336 0 .704.48 1.184 1.184 1.184 1.12 0 2.336-1.088 2.336-2.272 0-2.08-1.696-3.168-3.584-3.168-2.528 0-4.576 1.632-5.504 2.656V14h-4.48v.96h2.24v14.08h-2.24V30ZM104.088 30.16c2.56 0 5.28-1.76 6.368-4.8h-2.4c-.288 1.984-1.664 4-3.968 4-3.552 0-5.28-4.32-5.28-7.36H111c0-4.864-3.2-8.16-6.912-8.16-4.48 0-7.68 3.264-7.68 8.16 0 4.896 3.2 8.16 7.68 8.16Zm-5.184-9.44c.416-2.848 2.112-6.08 5.184-6.08 3.104 0 4.224 3.232 4.448 6.08h-9.632ZM118.84 30.16c2.496 0 3.04-3.008 3.04-4.8h-1.44c0 2.016-.448 4-1.696 4-1.312 0-1.504-1.664-1.504-3.36V6.96h-4.48v.96H115v17.44c0 3.008 1.28 4.8 3.84 4.8ZM129.912 30.16c2.432 0 6.272-.608 6.272-4.224 0-5.024-10.304-3.552-10.304-8.096 0-2.144 2.176-3.2 3.744-3.2 2.112 0 4.096 1.792 4.096 4.16h1.44V14h-1.28c0 .576 0 1.12-.032 1.568-1.248-1.216-3.2-1.728-4.928-1.728-2.656 0-5.44 1.472-5.44 4.608 0 5.056 10.304 3.872 10.304 8.096 0 1.856-1.856 2.816-3.2 2.816-2.112 0-5.664-.768-5.664-4h-1.44V30h1.28c0-.544 0-1.024.032-1.44 1.312 1.184 3.328 1.6 5.12 1.6ZM147 30.16c4.704 0 7.776-3.68 7.776-8.16s-3.072-8.16-7.776-8.16-7.776 3.68-7.776 8.16 3.072 8.16 7.776 8.16ZM141.624 22c0-3.104 1.12-7.36 5.376-7.36s5.376 4.256 5.376 7.36-1.12 7.36-5.376 7.36-5.376-4.256-5.376-7.36ZM178.072 30h6.72v-.96h-2.24v-8.32c0-4.768-2.688-6.88-5.696-6.88-1.984 0-4.096 1.824-5.344 3.296-.96-2.272-2.912-3.296-5.024-3.296-1.664 0-3.424 1.28-4.672 2.56V14h-4.48v.96h2.24v14.08h-2.24V30h6.72v-.96h-2.24V18.128c.768-1.856 2.816-3.488 4.48-3.488 3.2 0 3.648 3.648 3.648 6.08v8.32h-2.24V30h6.72v-.96h-2.24v-8.32c0-.736-.064-1.44-.192-2.048.576-2.048 2.848-4.032 4.672-4.032 3.2 0 3.648 3.648 3.648 6.08v8.32h-2.24V30ZM194.872 30.16c2.56 0 5.28-1.76 6.368-4.8h-2.4c-.288 1.984-1.664 4-3.968 4-3.552 0-5.28-4.32-5.28-7.36h12.192c0-4.864-3.2-8.16-6.912-8.16-4.48 0-7.68 3.264-7.68 8.16 0 4.896 3.2 8.16 7.68 8.16Zm-5.184-9.44c.416-2.848 2.112-6.08 5.184-6.08 3.104 0 4.224 3.232 4.448 6.08h-9.632ZM214.712 30h6.72v-.96h-2.24v-8.32c0-4.768-2.688-6.88-5.696-6.88-1.664 0-3.424 1.28-4.672 2.56V14h-4.48v.96h2.24v14.08h-2.24V30h6.72v-.96h-2.24V18.128c.768-1.856 2.816-3.488 4.48-3.488 3.2 0 3.648 3.648 3.648 6.08v8.32h-2.24V30ZM231.512 30.16c2.56 0 5.28-1.76 6.368-4.8h-2.4c-.288 1.984-1.664 4-3.968 4-3.552 0-5.28-4.32-5.28-7.36h12.192c0-4.864-3.2-8.16-6.912-8.16-4.48 0-7.68 3.264-7.68 8.16 0 4.896 3.2 8.16 7.68 8.16Zm-5.184-9.44c.416-2.848 2.112-6.08 5.184-6.08 3.104 0 4.224 3.232 4.448 6.08h-9.632ZM247.896 30.16c2.432 0 6.272-.608 6.272-4.224 0-5.024-10.304-3.552-10.304-8.096 0-2.144 2.176-3.2 3.744-3.2 2.112 0 4.096 1.792 4.096 4.16h1.44V14h-1.28c0 .576 0 1.12-.032 1.568-1.248-1.216-3.2-1.728-4.928-1.728-2.656 0-5.44 1.472-5.44 4.608 0 5.056 10.304 3.872 10.304 8.096 0 1.856-1.856 2.816-3.2 2.816-2.112 0-5.664-.768-5.664-4h-1.44V30h1.28c0-.544 0-1.024.032-1.44 1.312 1.184 3.328 1.6 5.12 1.6ZM263.48 30.16c2.432 0 6.272-.608 6.272-4.224 0-5.024-10.304-3.552-10.304-8.096 0-2.144 2.176-3.2 3.744-3.2 2.112 0 4.096 1.792 4.096 4.16h1.44V14h-1.28c0 .576 0 1.12-.032 1.568-1.248-1.216-3.2-1.728-4.928-1.728-2.656 0-5.44 1.472-5.44 4.608 0 5.056 10.304 3.872 10.304 8.096 0 1.856-1.856 2.816-3.2 2.816-2.112 0-5.664-.768-5.664-4h-1.44V30h1.28c0-.544 0-1.024.032-1.44 1.312 1.184 3.328 1.6 5.12 1.6Z"/></g></svg>