<?xml version="1.0" encoding="UTF-8"?>
<svg width="320px" height="40px" viewBox="0 0 320 40" version="1.1" xmlns="http://www.w3.org/2000/svg" xmlns:xlink="http://www.w3.org/1999/xlink">
    <title>apium-cyrillic-light-italic</title>
    <g id="_exports" stroke="none" stroke-width="1" fill="none" fill-rule="evenodd">
        <g id="Apium" transform="translate(0, -896)">
            <g id="apium-styles" transform="translate(0, 686)">
                <g id="apium-cyrillic-light-italic" transform="translate(0, 210)">
                    <rect id="Rectangle-Copy-20" fill="#F7DF88" opacity="0" x="0" y="0" width="320" height="40"></rect>
                    <g transform="translate(3.04, 6.8)" fill="#424345" fill-rule="nonzero">
                        <path d="M1.696,23.36 C3.488,23.36 4.384,22.016 5.6,19.616 C6.784,17.248 9.184,16.64 10.496,16.576 L9.568,21.376 C9.344,22.528 9.504,23.168 10.176,23.296 C10.944,23.424 11.776,23.2 13.952,22.144 L14.08,21.504 C13.728,21.728 12.576,22.4 12.096,22.304 C11.68,22.208 11.712,21.664 11.776,21.216 L11.84,20.896 L14.592,7.2 L12.352,7.2 L11.904,9.504 C11.2,8.064 9.888,7.04 8.224,7.04 C4.992,7.04 2.528,9.824 2.528,12.768 C2.528,14.976 3.936,16.576 6.368,16.576 C6.56,16.576 6.784,16.576 6.976,16.544 C5.472,17.216 4.224,18.144 3.488,19.232 C2.592,20.512 2.272,22.56 1.6,22.56 C1.216,22.56 0.96,22.016 0.96,20.96 L0,20.96 C0,22.304 0.768,23.36 1.696,23.36 Z M4.896,13.024 C4.896,11.04 5.952,7.84 8.544,7.84 C10.464,7.84 11.36,9.728 11.456,11.808 L11.2,13.088 C10.592,14.848 9.024,15.776 7.2,15.776 C5.408,15.776 4.896,14.4 4.896,13.024 Z" id="Shape"></path>
                        <path d="M21.984,23.36 C25.856,23.36 29.44,21.536 29.44,18.016 C29.44,15.84 27.584,14.688 25.408,14.496 C28.864,14.144 30.24,12.16 30.24,10.24 C30.24,7.808 27.712,7.04 25.632,7.04 C22.752,7.04 19.488,8.64 18.816,12 L21.216,12 C21.6,10.016 23.072,7.84 25.472,7.84 C27.072,7.84 27.936,8.896 27.936,10.304 C27.936,12.992 26.176,14.08 22.88,14.08 L21.888,14.08 L21.696,15.04 L23.52,15.04 C25.856,15.04 27.04,16.416 27.04,18.24 C27.04,20.16 25.088,22.56 22.144,22.56 C19.776,22.56 18.016,21.824 17.504,20 C18.688,19.904 20.16,18.496 20.16,17.408 C20.16,16.832 19.776,16.48 19.168,16.48 C18.048,16.48 16.384,17.472 16.384,18.752 C16.384,21.984 18.656,23.36 21.984,23.36 Z" id="Path"></path>
                        <path d="M48.096,23.36 C49.024,23.36 49.952,22.656 51.008,21.76 L51.136,20.96 C50.368,21.824 49.504,22.56 48.768,22.56 C48.352,22.56 47.936,22.208 47.936,21.088 C47.936,19.744 50.176,8.96 50.56,7.2 L48.128,7.616 C47.776,9.152 45.824,18.912 45.824,20.64 C45.824,21.824 46.048,23.36 48.096,23.36 Z M33.056,8.896 C33.408,8.672 34.56,8 35.04,8.096 C35.456,8.192 35.424,8.736 35.36,9.184 L35.296,9.504 L33.408,18.624 C33.376,18.912 33.344,19.136 33.344,19.392 C33.344,21.664 35.552,23.328 38.048,23.328 C42.944,23.328 44.544,19.68 44.544,17.056 C44.544,14.048 42.624,11.2 39.552,11.2 C38.72,11.2 37.856,11.488 36.992,11.936 L37.568,9.024 C37.792,7.872 37.632,7.232 36.96,7.104 C36.192,6.976 35.36,7.2 33.184,8.256 L33.056,8.896 Z M35.52,19.264 L36.832,12.736 C37.632,12.288 38.432,12 39.168,12 C41.856,12 42.208,13.952 42.208,16.64 C42.208,18.688 41.376,22.56 37.984,22.56 C36.16,22.56 35.52,21.248 35.52,19.264 Z" id="Shape"></path>
                        <path d="M53.952,23.2 L56.192,23.2 L57.664,15.712 C57.76,15.552 57.888,15.424 57.984,15.296 L60.352,21.472 C60.672,22.272 61.312,23.36 63.2,23.36 C64.288,23.36 65.568,22.176 65.984,21.76 L66.144,20.96 C65.632,21.568 64.768,22.56 63.936,22.56 C63.232,22.56 62.624,20.928 62.4,20.32 L59.68,13.344 C62.304,10.4 65.088,7.84 66.24,7.84 C66.592,7.84 66.88,7.904 67.04,8.192 C65.856,8.352 64.448,9.76 64.448,10.816 C64.448,11.36 64.832,11.712 65.44,11.712 C66.56,11.712 68.192,10.592 68.192,9.44 C68.192,7.232 66.944,7.04 66.368,7.04 C64.416,7.04 60.928,10.592 57.984,14.112 L58.976,9.024 C59.2,7.872 59.04,7.232 58.368,7.104 C57.6,6.976 56.768,7.2 54.592,8.256 L54.464,8.896 C54.816,8.672 55.968,8 56.448,8.096 C56.864,8.192 56.832,8.736 56.768,9.184 L56.704,9.504 L53.952,23.2 Z" id="Path"></path>
                        <path d="M75.232,23.36 C80.288,23.36 84.096,18.336 84.096,13.248 C84.096,9.472 81.632,7.04 78.4,7.04 C73.536,7.04 69.504,11.808 69.504,17.12 C69.504,20.928 72,23.36 75.232,23.36 Z M71.936,16.832 C71.936,12.512 74.976,7.84 78.336,7.84 C80.64,7.84 81.664,10.944 81.664,13.568 C81.664,18.016 78.72,22.56 75.456,22.56 C73.152,22.56 71.936,19.456 71.936,16.832 Z" id="Shape"></path>
                        <path d="M92.896,23.36 C96.032,23.36 99.296,20.96 99.296,18.176 C99.296,16.704 98.464,15.616 97.344,15.072 C98.88,14.112 99.904,12.736 99.904,10.784 C99.904,8.288 97.632,7.04 95.488,7.04 C89.856,7.04 86.304,12 86.304,17.12 C86.304,20.8 89.056,23.36 92.896,23.36 Z M88.768,16.256 C88.992,12.608 91.168,7.84 95.104,7.84 C97.056,7.84 97.664,9.248 97.664,10.752 C97.664,14.304 93.536,16.096 88.768,16.256 Z M88.8,17.088 C91.168,17.024 93.824,16.672 95.968,15.776 C96.512,16.352 96.896,17.28 96.896,18.4 C96.896,20.864 95.232,22.56 93.184,22.56 C89.728,22.56 88.928,19.488 88.8,17.088 Z" id="Shape"></path>
                        <path d="M108.32,23.36 C110.976,23.36 113.824,21.6 115.52,18.56 L113.056,18.56 C111.84,20.544 110.272,22.56 108.352,22.56 C106.432,22.56 105.024,20.832 104.832,18.56 C109.76,18.4 115.936,16.896 115.936,12.128 C115.936,9.632 114.656,7.04 111.52,7.04 C105.888,7.04 102.336,12 102.336,17.12 C102.336,20.8 104.48,23.36 108.32,23.36 Z M104.8,17.728 C105.024,14.016 107.2,7.84 111.136,7.84 C113.088,7.84 113.696,9.472 113.696,10.976 C113.696,15.488 109.568,17.536 104.8,17.728 Z" id="Shape"></path>
                        <path d="M124.192,23.36 C130.56,23.36 133.664,17.472 133.664,10.432 C133.664,6.208 132.032,0 126.784,0 C125.728,0 124.512,0.256 123.136,0.832 C122.528,1.152 121.76,1.824 121.76,2.592 C121.76,3.328 122.304,3.872 123.104,3.872 C124.128,3.872 125.056,3.04 125.056,1.984 C125.056,1.664 124.96,1.344 124.768,1.12 C125.472,0.928 126.112,0.832 126.688,0.832 C130.464,0.832 131.616,4.288 131.616,8.192 C131.616,8.608 131.616,9.056 131.584,9.472 C130.144,7.2 127.584,7.04 126.688,7.04 C120.992,7.04 118.592,13.44 118.592,16.768 C118.592,20.704 120.384,23.36 124.192,23.36 Z M120.928,17.248 C120.928,13.76 123.008,7.84 127.488,7.84 C129.92,7.84 130.784,10.912 130.784,13.376 C130.784,17.056 128.48,22.56 124.8,22.56 C121.76,22.56 120.928,19.616 120.928,17.248 Z" id="Shape"></path>
                        <path d="M141.536,23.36 C144.192,23.36 147.04,21.6 148.736,18.56 L146.272,18.56 C145.056,20.544 143.488,22.56 141.568,22.56 C139.648,22.56 138.24,20.832 138.048,18.56 C142.976,18.4 149.152,16.896 149.152,12.128 C149.152,9.632 147.872,7.04 144.736,7.04 C139.104,7.04 135.552,12 135.552,17.12 C135.552,20.8 137.696,23.36 141.536,23.36 Z M138.016,17.728 C138.24,14.016 140.416,7.84 144.352,7.84 C146.304,7.84 146.912,9.472 146.912,10.976 C146.912,15.488 142.784,17.536 138.016,17.728 Z" id="Shape"></path>
                        <path d="M167.328,7.04 L164.992,7.456 L163.616,14.56 L155.776,14.56 L156.864,9.024 C157.088,7.872 156.928,7.232 156.256,7.104 C155.488,6.976 154.656,7.2 152.48,8.256 L152.352,8.896 C152.704,8.672 153.856,8 154.336,8.096 C154.752,8.192 154.72,8.736 154.656,9.184 L154.592,9.504 L151.84,23.2 L154.08,23.2 L155.584,15.52 L163.424,15.52 L162.272,21.376 C162.048,22.528 162.208,23.168 162.88,23.296 C163.648,23.424 164.48,23.2 166.656,22.144 L166.784,21.504 C166.432,21.728 165.28,22.4 164.8,22.304 C164.384,22.208 164.416,21.664 164.48,21.216 L164.544,20.896 L167.328,7.04 Z" id="Path"></path>
                        <path d="M174.112,23.36 C176.064,23.36 177.792,21.856 179.168,20.384 L179.168,20.64 C179.168,21.824 179.392,23.36 181.44,23.36 C182.368,23.36 183.2,22.656 184.192,21.76 L184.32,20.96 C183.456,21.888 182.752,22.56 182.112,22.56 C181.696,22.56 181.28,22.208 181.28,21.088 C181.28,19.744 183.52,8.8 183.904,7.04 L181.568,7.456 C181.248,8.8 179.68,16.384 179.264,19.552 C177.984,21.088 176.256,22.56 174.496,22.56 C172.96,22.56 172.352,21.28 172.352,19.776 C172.352,18.752 173.6,13.184 174.432,9.056 C174.688,7.904 174.528,7.264 173.856,7.104 C173.12,6.944 172.256,7.136 170.048,8.16 L169.888,8.768 C170.24,8.544 171.424,7.936 171.904,8.032 C172.32,8.128 172.288,8.704 172.192,9.12 L172.128,9.44 C171.2,13.248 170.112,18.368 170.112,19.776 C170.112,21.984 171.392,23.36 174.112,23.36 Z" id="Path"></path>
                        <path d="M193.056,23.36 C195.712,23.36 198.56,21.6 200.256,18.56 L197.792,18.56 C196.576,20.544 195.008,22.56 193.088,22.56 C191.168,22.56 189.76,20.832 189.568,18.56 C194.496,18.4 200.672,16.896 200.672,12.128 C200.672,9.632 199.392,7.04 196.256,7.04 C190.624,7.04 187.072,12 187.072,17.12 C187.072,20.8 189.216,23.36 193.056,23.36 Z M189.536,17.728 C189.76,14.016 191.936,7.84 195.872,7.84 C197.824,7.84 198.432,9.472 198.432,10.976 C198.432,15.488 194.304,17.536 189.536,17.728 Z" id="Shape"></path>
                    </g>
                </g>
            </g>
        </g>
    </g>
</svg>