<?xml version="1.0" encoding="UTF-8"?>
<svg width="320px" height="40px" viewBox="0 0 320 40" version="1.1" xmlns="http://www.w3.org/2000/svg" xmlns:xlink="http://www.w3.org/1999/xlink">
    <title>apium-latin-regular</title>
    <g id="_exports" stroke="none" stroke-width="1" fill="none" fill-rule="evenodd">
        <g id="Apium" transform="translate(-351, -686)">
            <g id="apium-styles" transform="translate(0, 686)">
                <g id="apium-latin-regular" transform="translate(351, 0)">
                    <rect id="Rectangle-Copy" fill="#F7DF88" opacity="0" x="0" y="0" width="320" height="40"></rect>
                    <g transform="translate(3.176, 6.96)" fill="#424345" fill-rule="nonzero">
                        <path d="M9.952,23.296 C14.464,23.296 17.248,20.192 17.856,16.64 L14.944,16.64 C14.784,19.232 12.992,22.464 9.952,22.464 C4.832,22.464 3.136,16.992 3.136,12.16 C3.136,7.36 5.12,1.856 10.272,1.856 C12.576,1.856 15.456,3.04 16.352,5.408 L16.224,5.408 C14.848,5.408 13.44,6.88 13.44,8.256 C13.44,9.088 14.016,9.696 14.848,9.696 C16.224,9.696 17.696,8.288 17.696,6.912 C17.696,2.944 13.856,1.024 10.016,1.024 C3.648,1.024 1.13686838e-13,6.464 1.13686838e-13,12.16 C1.13686838e-13,17.92 3.584,23.296 9.952,23.296 Z" id="Path"></path>
                        <path d="M30.272,23.296 C35.008,23.296 38.4,19.712 38.4,15.04 C38.4,10.336 35.008,6.784 30.272,6.784 C25.504,6.784 22.112,10.336 22.112,15.04 C22.112,19.712 25.504,23.296 30.272,23.296 Z M25.248,15.04 C25.248,11.488 26.4,7.616 30.272,7.616 C34.112,7.616 35.264,11.488 35.264,15.04 C35.264,18.592 34.112,22.464 30.272,22.464 C26.4,22.464 25.248,18.592 25.248,15.04 Z" id="Shape"></path>
                        <path d="M61.664,23.04 L68.864,23.04 L68.864,21.984 L66.688,21.92 L66.688,13.984 C66.688,8.96 64.16,6.784 60.992,6.784 C58.976,6.784 56.864,8.544 55.616,10.048 C54.656,7.808 52.8,6.784 50.624,6.784 C48.896,6.784 47.2,8.096 45.952,9.408 L45.952,7.04 L40.864,7.04 L40.864,8.096 L43.008,8.16 L43.008,21.92 L40.864,21.984 L40.864,23.04 L48.064,23.04 L48.064,21.984 L45.952,21.92 L45.952,11.232 C46.72,9.504 48.48,7.84 50.048,7.84 C52.992,7.84 53.376,11.328 53.376,13.76 L53.376,21.92 L51.296,21.984 L51.296,23.04 L58.432,23.04 L58.432,21.984 L56.32,21.92 L56.32,13.984 C56.32,12.96 56.224,12.096 56.032,11.296 C56.832,9.504 58.816,7.84 60.416,7.84 C63.36,7.84 63.744,11.328 63.744,13.76 L63.744,21.92 L61.664,21.984 L61.664,23.04 Z" id="Path"></path>
                        <path d="M91.296,23.04 L98.496,23.04 L98.496,21.984 L96.32,21.92 L96.32,13.984 C96.32,8.96 93.792,6.784 90.624,6.784 C88.608,6.784 86.496,8.544 85.248,10.048 C84.288,7.808 82.432,6.784 80.256,6.784 C78.528,6.784 76.832,8.096 75.584,9.408 L75.584,7.04 L70.496,7.04 L70.496,8.096 L72.64,8.16 L72.64,21.92 L70.496,21.984 L70.496,23.04 L77.696,23.04 L77.696,21.984 L75.584,21.92 L75.584,11.232 C76.352,9.504 78.112,7.84 79.68,7.84 C82.624,7.84 83.008,11.328 83.008,13.76 L83.008,21.92 L80.928,21.984 L80.928,23.04 L88.064,23.04 L88.064,21.984 L85.952,21.92 L85.952,13.984 C85.952,12.96 85.856,12.096 85.664,11.296 C86.464,9.504 88.448,7.84 90.048,7.84 C92.992,7.84 93.376,11.328 93.376,13.76 L93.376,21.92 L91.296,21.984 L91.296,23.04 Z" id="Path"></path>
                        <path d="M107.232,23.296 C108.96,23.296 110.656,21.984 111.904,20.672 L111.904,23.04 L117.024,23.04 L117.024,21.984 L114.848,21.92 L114.848,7.04 L109.792,7.04 L109.792,8.096 L111.904,8.16 L111.904,18.816 C111.136,20.576 109.376,22.24 107.808,22.24 C104.864,22.24 104.48,18.752 104.48,16.32 L104.48,7.04 L99.424,7.04 L99.424,8.096 L101.536,8.16 L101.536,16.096 C101.536,21.12 104.064,23.296 107.232,23.296 Z" id="Path"></path>
                        <path d="M129.344,23.04 L136.544,23.04 L136.544,21.984 L134.368,21.92 L134.368,13.984 C134.368,8.96 131.84,6.784 128.672,6.784 C126.944,6.784 125.248,8.096 124,9.408 L124,7.04 L118.912,7.04 L118.912,8.096 L121.056,8.16 L121.056,21.92 L118.912,21.984 L118.912,23.04 L126.112,23.04 L126.112,21.984 L124,21.92 L124,11.232 C124.768,9.504 126.528,7.84 128.096,7.84 C131.04,7.84 131.424,11.328 131.424,13.76 L131.424,21.92 L129.344,21.984 L129.344,23.04 Z" id="Path"></path>
                        <path d="M138.176,23.04 L145.44,23.04 L145.44,21.984 L143.264,21.92 L143.264,7.04 L138.176,7.04 L138.176,8.096 L140.32,8.16 L140.32,21.92 L138.176,21.984 L138.176,23.04 Z M139.712,3.136 C139.712,4.096 140.48,4.832 141.44,4.832 C142.4,4.832 143.168,4.096 143.168,3.136 C143.168,2.144 142.368,1.344 141.44,1.344 C140.48,1.344 139.712,2.144 139.712,3.136 Z" id="Shape"></path>
                        <path d="M155.456,23.296 C159.232,23.296 161.664,21.088 162.24,18.4 L159.424,18.4 C159.2,20 158.08,22.464 155.456,22.464 C151.872,22.464 150.816,18.72 150.816,15.04 C150.816,12.16 152.288,7.68 156.064,7.68 C158.08,7.68 159.968,8.672 160.768,10.016 C159.584,10.144 158.4,11.424 158.4,12.544 C158.4,13.312 158.912,13.856 159.68,13.856 C160.896,13.856 162.24,12.64 162.24,11.36 C162.24,9.12 159.2,6.784 155.52,6.784 C150.752,6.784 147.68,10.816 147.68,15.04 C147.68,19.872 150.688,23.296 155.456,23.296 Z" id="Path"></path>
                        <path d="M171.552,23.296 C174.08,23.296 176.192,22.112 177.472,20.352 C177.984,22.432 179.296,23.296 181.248,23.296 C184.224,23.296 184.864,20.288 184.864,18.4 L183.456,18.4 C183.456,20.352 182.912,22.24 181.696,22.24 C180.512,22.24 180.16,20.544 180.16,18.624 L180.16,7.04 L177.248,7.04 L177.248,9.44 C175.968,7.84 173.952,6.784 171.552,6.784 C166.816,6.784 165.12,11.328 165.12,15.04 C165.12,18.752 166.816,23.296 171.552,23.296 Z M168.256,15.04 C168.256,11.904 169.344,7.84 172.928,7.84 C175.264,7.84 176.736,9.856 177.248,11.968 L177.248,18.112 C176.736,20.224 175.264,22.24 172.928,22.24 C169.344,22.24 168.256,18.176 168.256,15.04 Z" id="Shape"></path>
                        <path d="M192.64,23.296 C195.712,23.296 196.256,20.384 196.256,18.4 L194.816,18.4 C194.816,21.056 193.92,22.24 192.96,22.24 C191.936,22.24 191.552,21.12 191.552,18.624 L191.552,8.096 L194.784,8.096 L194.784,7.04 L191.552,7.04 L191.552,2.528 L188.608,2.528 L188.608,7.04 L185.632,7.04 L185.632,8.096 L188.608,8.096 L188.608,18.112 C188.608,21.856 190.272,23.296 192.64,23.296 Z" id="Path"></path>
                        <path d="M197.472,23.04 L204.736,23.04 L204.736,21.984 L202.56,21.92 L202.56,7.04 L197.472,7.04 L197.472,8.096 L199.616,8.16 L199.616,21.92 L197.472,21.984 L197.472,23.04 Z M199.008,3.136 C199.008,4.096 199.776,4.832 200.736,4.832 C201.696,4.832 202.464,4.096 202.464,3.136 C202.464,2.144 201.664,1.344 200.736,1.344 C199.776,1.344 199.008,2.144 199.008,3.136 Z" id="Shape"></path>
                        <polygon id="Path" points="214.304 23.04 215.296 23.04 221.088 8.16 223.648 8.096 223.648 7.04 218.368 7.04 218.368 8.096 220.064 8.16 215.808 19.136 210.912 7.04 205.6 7.04 205.6 8.096 208.192 8.16"></polygon>
                        <path d="M233.408,23.296 C236.192,23.296 239.04,21.536 240.128,18.4 L237.216,18.4 C236.896,20.608 235.552,22.464 233.408,22.464 C230.144,22.464 228.48,18.528 228.48,15.04 L240.672,15.04 C240.672,10.016 237.344,6.784 233.408,6.784 C228.832,6.784 225.344,10.016 225.344,15.04 C225.344,20.064 228.832,23.296 233.408,23.296 Z M228.544,13.76 C228.896,10.624 230.528,7.616 233.408,7.616 C236.32,7.616 237.408,10.624 237.664,13.76 L228.544,13.76 Z" id="Shape"></path>
                        <path d="M248.64,23.296 C251.456,23.296 252.096,20.384 252.096,18.4 L250.688,18.4 C250.688,20.288 250.208,22.24 248.96,22.24 C247.648,22.24 247.424,20.544 247.424,18.624 L247.424,0 L242.336,0 L242.336,1.056 L244.48,1.12 L244.48,18.112 C244.48,21.536 246.048,23.296 248.64,23.296 Z" id="Path"></path>
                        <path d="M257.408,30.976 C259.072,30.976 259.968,29.44 260.416,28.256 L267.968,8.16 L270.496,8.096 L270.496,7.04 L265.216,7.04 L265.216,8.096 L266.944,8.16 L263.008,18.656 L257.728,7.04 L252.416,7.04 L252.416,8.096 L255.072,8.16 L261.728,22.048 L259.584,27.808 C259.296,28.576 258.656,30.144 257.6,30.144 C256.992,30.144 256.544,29.728 256.256,29.216 C257.472,29.184 258.784,28 258.784,26.72 C258.784,26.048 258.24,25.376 257.44,25.376 C256.224,25.376 254.944,26.72 254.944,27.904 C254.944,29.408 256.064,30.976 257.408,30.976 Z" id="Path"></path>
                    </g>
                </g>
            </g>
        </g>
    </g>
</svg>