<?xml version="1.0" encoding="UTF-8"?>
<svg width="320px" height="40px" viewBox="0 0 320 40" version="1.1" xmlns="http://www.w3.org/2000/svg" xmlns:xlink="http://www.w3.org/1999/xlink">
    <title>apium-latin-regular-italic</title>
    <g id="_exports" stroke="none" stroke-width="1" fill="none" fill-rule="evenodd">
        <g id="Apium" transform="translate(-351, -756)">
            <g id="apium-styles" transform="translate(0, 686)">
                <g id="apium-latin-regular-italic" transform="translate(351, 70)">
                    <rect id="Rectangle-Copy-7" fill="#F7DF88" opacity="0" x="0" y="0" width="320" height="40"></rect>
                    <g transform="translate(4.208, 7.984)" fill="#424345" fill-rule="nonzero">
                        <path d="M8.064,22.272 C12.224,22.272 15.456,19.168 17.216,15.616 L14.336,15.616 C13.472,18.208 11.328,21.44 8.288,21.44 C4.352,21.44 3.04,18.016 3.04,14.528 C3.04,9.44 5.888,0.832 12.48,0.832 C14.56,0.832 17.024,1.856 17.792,3.744 C16.288,3.84 14.528,5.504 14.528,6.912 C14.528,7.584 14.944,8.032 15.68,8.032 C17.152,8.032 19.072,6.464 19.104,4.992 L19.104,4.96 L19.104,4.928 C19.072,1.568 15.904,0 12.48,0 C5.184,0 0,7.072 0,13.728 C0,18.4 2.656,22.272 8.064,22.272 Z" id="Path"></path>
                        <path d="M24.896,22.272 C26.144,22.272 27.104,21.44 28.128,20.48 L28.256,19.616 C27.52,20.448 26.624,21.216 25.856,21.216 C25.408,21.216 25.024,20.864 25.024,19.84 C25.024,18.848 26.496,11.552 27.264,7.872 C27.488,6.72 27.2,6.016 26.4,5.856 C25.344,5.632 24.256,5.984 22.112,7.072 L21.952,7.872 C22.432,7.584 23.584,7.008 24.032,7.104 C24.384,7.168 24.416,7.648 24.32,8.096 L24.224,8.48 C23.232,12.672 22.208,18.144 22.208,19.296 C22.208,20.64 22.688,22.272 24.896,22.272 Z M25.088,2.368 C25.088,3.168 25.664,3.776 26.528,3.776 C27.584,3.776 28.608,2.848 28.608,1.728 C28.608,0.928 28,0.32 27.168,0.32 C26.112,0.32 25.088,1.28 25.088,2.368 Z" id="Shape"></path>
                        <path d="M30.752,22.016 L33.696,22.016 L34.336,18.72 C35.136,14.88 37.6,6.592 41.344,6.592 C42.048,6.592 42.688,7.008 43.072,7.648 C41.792,7.872 40.384,9.312 40.384,10.464 C40.384,11.04 40.8,11.456 41.472,11.456 C42.688,11.456 44.48,10.24 44.48,8.96 C44.48,7.296 43.136,5.76 41.632,5.76 C39.328,5.76 37.088,8.992 35.68,11.904 L36.448,7.872 C36.672,6.72 36.384,6.016 35.616,5.856 C34.528,5.664 33.472,6.048 31.328,7.104 L31.168,7.936 C31.648,7.616 32.768,7.04 33.216,7.136 C33.568,7.2 33.6,7.68 33.536,8.128 L33.44,8.512 L30.752,22.016 Z" id="Path"></path>
                        <path d="M51.36,22.272 C54.944,22.272 57.856,20.064 58.912,17.376 L56.096,17.376 C55.52,18.976 53.984,21.44 51.584,21.44 C48.704,21.44 48.16,18.88 48.16,16.224 C48.16,12.16 50.208,6.656 54.752,6.656 C56.992,6.656 58.496,7.584 59.008,9.088 C57.728,9.248 56.224,10.72 56.224,11.904 C56.224,12.512 56.64,12.896 57.28,12.896 C58.528,12.896 60.32,11.648 60.32,10.368 L60.32,10.336 C60.32,7.36 57.792,5.76 54.592,5.76 C48.928,5.76 45.088,10.528 45.088,15.776 C45.088,19.648 47.2,22.272 51.36,22.272 Z" id="Path"></path>
                        <path d="M66.72,22.272 C68.672,22.272 70.496,20.832 71.904,19.328 C71.904,20.64 72.384,22.272 74.592,22.272 C75.84,22.272 76.704,21.44 77.696,20.48 L77.824,19.616 C76.992,20.512 76.256,21.216 75.552,21.216 C75.104,21.216 74.72,20.864 74.72,19.84 C74.72,18.624 76.96,7.712 77.344,5.76 L74.304,6.336 C73.984,7.744 72.384,15.488 72,18.4 C70.784,19.872 69.152,21.216 67.552,21.216 C66.144,21.216 65.568,20.064 65.568,18.656 C65.568,17.6 66.848,11.936 67.68,7.872 C67.904,6.752 67.616,6.048 66.816,5.856 C65.76,5.632 64.672,5.984 62.528,7.008 L62.336,7.808 C62.816,7.52 63.968,6.976 64.416,7.072 C64.768,7.136 64.8,7.616 64.704,8.064 L64.608,8.448 C63.648,12.48 62.624,17.408 62.624,18.656 C62.624,20.864 63.968,22.272 66.72,22.272 Z" id="Path"></path>
                        <path d="M102.304,22.272 C103.552,22.272 104.384,21.472 105.408,20.48 L105.6,19.616 C104.768,20.448 103.968,21.216 103.264,21.216 C102.816,21.216 102.432,20.864 102.432,19.84 C102.432,18.08 104.48,10.976 104.48,9.216 C104.48,6.848 102.912,5.76 100.64,5.76 C98.816,5.76 96.704,7.104 95.232,8.576 C94.976,6.656 93.472,5.76 91.424,5.76 C89.696,5.76 87.68,7.008 86.208,8.416 L86.304,7.872 C86.528,6.72 86.24,6.016 85.472,5.856 C84.384,5.664 83.328,6.048 81.184,7.104 L81.024,7.936 C81.504,7.616 82.624,7.04 83.072,7.136 C83.424,7.2 83.456,7.68 83.392,8.128 L83.296,8.512 L80.608,22.016 L83.552,22.016 L86.016,9.408 C87.264,8.032 88.96,6.816 90.368,6.816 C92,6.816 92.352,7.552 92.352,9.216 C92.352,11.904 90.4,18.912 89.856,22.016 L92.768,22.016 C93.184,19.584 95.168,11.424 95.264,9.376 C96.512,8 98.176,6.816 99.584,6.816 C101.216,6.816 101.568,7.552 101.568,9.216 C101.568,11.904 99.552,16.704 99.552,19.552 C99.552,20.896 100.096,22.272 102.304,22.272 Z" id="Path"></path>
                        <path d="M113.152,22.272 C116.672,22.272 120.192,20.64 120.192,17.28 C120.192,13.504 112.096,14.432 112.096,10.048 C112.096,8.096 114.272,6.592 116.16,6.592 C117.824,6.592 118.848,7.008 119.36,7.648 C118.112,7.872 116.672,9.312 116.672,10.464 C116.672,11.04 117.088,11.456 117.76,11.456 C118.976,11.456 120.768,10.24 120.768,8.96 C120.768,6.656 118.24,5.76 116.064,5.76 C112.96,5.76 108.96,7.968 108.96,11.168 C108.96,15.296 117.056,14.528 117.056,18.4 C117.056,20.096 115.264,21.44 113.696,21.44 C111.968,21.44 109.28,20.448 109.28,17.216 L107.616,17.216 L106.656,22.016 L107.904,22.016 C108.064,21.28 108.192,20.608 108.352,20.096 C109.44,21.792 111.488,22.272 113.152,22.272 Z" id="Path"></path>
                        <path d="M128.48,22.272 C131.616,22.272 132.544,19.296 132.928,17.376 L131.52,17.376 C131.136,19.328 130.176,21.216 129.184,21.216 C128.32,21.216 128,20.192 128,19.168 C128,18.048 128.992,12.992 129.92,8.352 L133.184,8.352 L133.472,7.072 L130.208,7.072 C130.656,4.8 131.104,2.752 131.392,1.472 L128.448,1.472 C128.16,2.784 127.712,4.832 127.264,7.072 L124.384,7.072 L124.096,8.352 L127.008,8.352 C126.08,12.896 125.12,17.856 125.12,19.04 C125.12,21.344 126.336,22.272 128.48,22.272 Z" id="Path"></path>
                        <path d="M139.904,22.272 C142.08,22.272 144.32,21.12 145.888,19.392 C145.92,20.704 146.4,22.272 148.576,22.272 C149.824,22.272 150.688,21.44 151.68,20.48 L151.808,19.616 C150.976,20.512 150.24,21.216 149.536,21.216 C149.088,21.216 148.704,20.864 148.704,19.84 C148.704,18.624 150.944,7.712 151.328,5.76 L148.288,6.336 L147.744,8.864 C146.912,7.008 145.408,5.76 143.136,5.76 C137.92,5.76 134.848,11.456 134.848,16.352 C134.848,19.392 136.128,22.272 139.904,22.272 Z M137.984,16.352 C137.984,13.152 139.712,6.816 144.224,6.816 C146.56,6.816 147.072,9.472 147.168,11.648 C146.816,13.504 146.432,15.456 146.176,16.96 C145.312,19.104 143.552,21.216 141.568,21.216 C138.848,21.216 137.984,18.688 137.984,16.352 Z" id="Shape"></path>
                        <path d="M166.784,22.272 C168.032,22.272 168.864,21.472 169.888,20.48 L170.08,19.616 C169.248,20.448 168.448,21.216 167.744,21.216 C167.296,21.216 166.944,20.864 166.944,19.84 C166.944,18.08 168.96,10.976 168.96,9.216 C168.96,6.848 167.392,5.76 165.12,5.76 C163.392,5.76 161.376,7.008 159.904,8.416 L160,7.872 C160.224,6.72 159.936,6.016 159.168,5.856 C158.08,5.664 157.024,6.048 154.88,7.104 L154.72,7.936 C155.2,7.616 156.32,7.04 156.768,7.136 C157.12,7.2 157.152,7.68 157.088,8.128 L156.992,8.512 L154.304,22.016 L157.248,22.016 L159.712,9.408 C160.96,8.032 162.656,6.816 164.064,6.816 C165.696,6.816 166.048,7.552 166.048,9.216 C166.048,11.904 164.032,16.704 164.032,19.552 C164.032,20.896 164.576,22.272 166.784,22.272 Z" id="Path"></path>
                        <path d="M177.472,22.272 C180.608,22.272 181.536,19.296 181.92,17.376 L180.512,17.376 C180.128,19.328 179.168,21.216 178.176,21.216 C177.312,21.216 176.992,20.192 176.992,19.168 C176.992,18.048 177.984,12.992 178.912,8.352 L182.176,8.352 L182.464,7.072 L179.2,7.072 C179.648,4.8 180.096,2.752 180.384,1.472 L177.44,1.472 C177.152,2.784 176.704,4.832 176.256,7.072 L173.376,7.072 L173.088,8.352 L176,8.352 C175.072,12.896 174.112,17.856 174.112,19.04 C174.112,21.344 175.328,22.272 177.472,22.272 Z" id="Path"></path>
                        <path d="M187.456,22.272 C188.704,22.272 189.664,21.44 190.688,20.48 L190.816,19.616 C190.08,20.448 189.184,21.216 188.416,21.216 C187.968,21.216 187.584,20.864 187.584,19.84 C187.584,18.848 189.056,11.552 189.824,7.872 C190.048,6.72 189.76,6.016 188.96,5.856 C187.904,5.632 186.816,5.984 184.672,7.072 L184.512,7.872 C184.992,7.584 186.144,7.008 186.592,7.104 C186.944,7.168 186.976,7.648 186.88,8.096 L186.784,8.48 C185.792,12.672 184.768,18.144 184.768,19.296 C184.768,20.64 185.248,22.272 187.456,22.272 Z M187.648,2.368 C187.648,3.168 188.224,3.776 189.088,3.776 C190.144,3.776 191.168,2.848 191.168,1.728 C191.168,0.928 190.56,0.32 189.728,0.32 C188.672,0.32 187.648,1.28 187.648,2.368 Z" id="Shape"></path>
                        <path d="M198.144,22.272 C200.32,22.272 202.56,21.12 204.128,19.392 C204.16,20.704 204.64,22.272 206.816,22.272 C208.064,22.272 208.928,21.44 209.92,20.48 L210.048,19.616 C209.216,20.512 208.48,21.216 207.776,21.216 C207.328,21.216 206.944,20.864 206.944,19.84 C206.944,18.624 209.184,7.712 209.568,5.76 L206.528,6.336 L205.984,8.864 C205.152,7.008 203.648,5.76 201.376,5.76 C196.16,5.76 193.088,11.456 193.088,16.352 C193.088,19.392 194.368,22.272 198.144,22.272 Z M196.224,16.352 C196.224,13.152 197.952,6.816 202.464,6.816 C204.8,6.816 205.312,9.472 205.408,11.648 C205.056,13.504 204.672,15.456 204.416,16.96 C203.552,19.104 201.792,21.216 199.808,21.216 C197.088,21.216 196.224,18.688 196.224,16.352 Z" id="Shape"></path>
                        <path d="M217.472,22.272 C220.608,22.272 221.536,19.296 221.92,17.376 L220.512,17.376 C220.128,19.328 219.168,21.216 218.176,21.216 C217.312,21.216 216.992,20.192 216.992,19.168 C216.992,18.048 217.984,12.992 218.912,8.352 L222.176,8.352 L222.464,7.072 L219.2,7.072 C219.648,4.8 220.096,2.752 220.384,1.472 L217.44,1.472 C217.152,2.784 216.704,4.832 216.256,7.072 L213.376,7.072 L213.088,8.352 L216,8.352 C215.072,12.896 214.112,17.856 214.112,19.04 C214.112,21.344 215.328,22.272 217.472,22.272 Z" id="Path"></path>
                        <path d="M227.456,22.272 C228.704,22.272 229.664,21.44 230.688,20.48 L230.816,19.616 C230.08,20.448 229.184,21.216 228.416,21.216 C227.968,21.216 227.584,20.864 227.584,19.84 C227.584,18.848 229.056,11.552 229.824,7.872 C230.048,6.72 229.76,6.016 228.96,5.856 C227.904,5.632 226.816,5.984 224.672,7.072 L224.512,7.872 C224.992,7.584 226.144,7.008 226.592,7.104 C226.944,7.168 226.976,7.648 226.88,8.096 L226.784,8.48 C225.792,12.672 224.768,18.144 224.768,19.296 C224.768,20.64 225.248,22.272 227.456,22.272 Z M227.648,2.368 C227.648,3.168 228.224,3.776 229.088,3.776 C230.144,3.776 231.168,2.848 231.168,1.728 C231.168,0.928 230.56,0.32 229.728,0.32 C228.672,0.32 227.648,1.28 227.648,2.368 Z" id="Shape"></path>
                        <path d="M239.36,22.272 C244.608,22.272 248.704,17.312 248.704,12.096 C248.704,8.192 245.984,5.76 242.528,5.76 C237.44,5.76 233.152,10.496 233.152,15.904 C233.152,19.84 235.904,22.272 239.36,22.272 Z M236.256,16.064 C236.256,11.968 239.104,6.592 242.464,6.592 C244.608,6.592 245.6,9.344 245.6,11.968 C245.6,16.16 242.848,21.44 239.552,21.44 C237.44,21.44 236.256,18.688 236.256,16.064 Z" id="Shape"></path>
                        <path d="M263.424,22.272 C264.672,22.272 265.504,21.472 266.528,20.48 L266.72,19.616 C265.888,20.448 265.088,21.216 264.384,21.216 C263.936,21.216 263.584,20.864 263.584,19.84 C263.584,18.08 265.6,10.976 265.6,9.216 C265.6,6.848 264.032,5.76 261.76,5.76 C260.032,5.76 258.016,7.008 256.544,8.416 L256.64,7.872 C256.864,6.72 256.576,6.016 255.808,5.856 C254.72,5.664 253.664,6.048 251.52,7.104 L251.36,7.936 C251.84,7.616 252.96,7.04 253.408,7.136 C253.76,7.2 253.792,7.68 253.728,8.128 L253.632,8.512 L250.944,22.016 L253.888,22.016 L256.352,9.408 C257.6,8.032 259.296,6.816 260.704,6.816 C262.336,6.816 262.688,7.552 262.688,9.216 C262.688,11.904 260.672,16.704 260.672,19.552 C260.672,20.896 261.216,22.272 263.424,22.272 Z" id="Path"></path>
                    </g>
                </g>
            </g>
        </g>
    </g>
</svg>