<svg xmlns="http://www.w3.org/2000/svg" width="320" height="40"><g fill="#424345" fill-rule="nonzero"><path d="M6.12 37.904c1.664 0 2.72-1.536 3.36-2.688L21.448 14H18.12l-.224 1.056 1.92.064-6.304 11.168-2.176-11.168c-.256-1.12-1.024-1.472-1.792-1.312-.864.16-2.048 1.12-3.264 3.072l.16.8c.192-.448 1.152-1.728 1.568-1.792.288-.064.48.128.576.64l.064.416 2.592 13.408-2.496 4.416c-.416.736-1.376 2.336-2.368 2.336-.704 0-1.12-.256-1.28-1.12 1.248-.032 3.008-1.28 3.008-2.592 0-.608-.32-1.248-1.088-1.248-1.28 0-2.944 1.504-3.04 2.72v.16c.032 1.888.672 2.88 2.144 2.88ZM21.256 30.224c4 0 6.144-6.656 7.808-15.2h4.96l-2.56 13.12c-.224 1.152.064 1.856.832 2.016 1.088.192 2.144-.192 4.288-1.248l.16-.832c-.48.32-1.6.896-2.048.8-.352-.064-.384-.544-.32-.992l.096-.384L37.16 14H25.256l-.288 1.056 3.04.064c-1.504 7.648-3.488 14.272-6.496 14.272-.416 0-.672-.192-.832-.448 1.216-.128 2.816-1.248 2.816-2.496 0-.64-.256-1.344-1.056-1.344-1.216 0-3.008 1.312-3.008 2.56 0 1.472.512 2.56 1.824 2.56ZM44.424 30.224c2.176 0 4.416-1.152 5.984-2.88.032 1.344.512 2.88 2.688 2.88 1.248 0 2.112-.8 3.104-1.76l.128-.864c-.832.896-1.568 1.6-2.272 1.6-.448 0-.832-.352-.832-1.376 0-1.216 2.24-12.128 2.624-14.08l-3.04.576-.544 2.528c-.832-1.856-2.336-3.104-4.608-3.104-5.216 0-8.288 5.696-8.288 10.592 0 3.04 1.28 5.888 5.056 5.888Zm-1.92-5.888c0-3.2 1.728-9.536 6.24-9.536 2.336 0 2.848 2.656 2.944 4.832-.352 1.856-.736 3.808-.992 5.312-.864 2.144-2.624 4.256-4.608 4.256-2.72 0-3.584-2.528-3.584-4.864ZM64.776 30.224c6.464 0 9.632-5.952 9.632-12.864 0-4.512-1.888-10.656-7.328-10.656-1.056 0-2.272.256-3.648.8v.032c-.64.32-1.472 1.088-1.472 1.888 0 .768.576 1.344 1.408 1.344 1.088 0 2.08-.896 2.08-2.016 0-.352-.128-.64-.32-.896.64-.16 1.248-.256 1.792-.256 3.808 0 4.96 3.456 4.96 7.136 0 .512 0 1.024-.064 1.536-1.44-2.24-3.904-2.528-4.96-2.528-5.44 0-8.16 6.112-8.16 9.856 0 4.096 2.272 6.624 6.08 6.624Zm-3.04-5.856c0-3.36 1.984-9.568 6.24-9.568 2.304 0 3.104 2.88 3.104 5.28 0 3.584-2.144 9.344-5.76 9.344-2.816 0-3.584-2.752-3.584-5.056ZM81.672 30.224c4 0 7.744-1.824 7.744-5.408 0-2.24-2.144-3.328-4.352-3.52 3.392-.352 5.056-2.304 5.056-4.288 0-2.464-2.752-3.264-4.864-3.264-2.912 0-6.432 1.504-7.168 5.056h2.816c.352-1.888 1.792-4.224 4.096-4.224 1.536 0 2.304 1.056 2.304 2.4 0 2.56-1.728 3.904-4.864 3.904h-.992l-.192.96h1.728c2.24 0 3.424 1.344 3.424 3.136 0 1.952-1.92 4.448-4.832 4.448-2.24 0-3.968-.736-4.512-2.464 1.28-.128 2.848-1.632 2.848-2.816 0-.64-.416-1.024-1.088-1.024-1.248 0-3.04 1.184-3.04 2.56 0 3.136 2.624 4.544 5.888 4.544ZM95.88 30.224c1.248 0 2.208-.8 3.232-1.76l.128-.864c-.736.832-1.632 1.6-2.4 1.6-.448 0-.832-.352-.832-1.376 0-.992 1.472-8.288 2.24-11.968.224-1.152-.064-1.856-.864-2.016-1.056-.224-2.144.128-4.288 1.216l-.16.8c.48-.288 1.632-.864 2.08-.768.352.064.384.544.288.992l-.096.384c-.992 4.192-2.016 9.664-2.016 10.816 0 1.344.48 2.944 2.688 2.944Zm.192-19.872c0 .8.576 1.408 1.44 1.408 1.056 0 2.08-.928 2.08-2.048 0-.8-.608-1.408-1.44-1.408-1.056 0-2.08.96-2.08 2.048ZM108.52 30.224c3.264 0 6.944-2.336 6.944-5.28 0-1.472-.896-2.56-2.08-3.104 1.536-.992 2.528-2.368 2.528-4.256 0-2.496-2.336-3.84-4.704-3.84-5.76 0-9.632 4.896-9.632 10.144 0 3.84 2.944 6.336 6.944 6.336Zm-3.744-6.304c2.432-.064 4.992-.448 7.04-1.28.576.576.96 1.504.96 2.592 0 2.4-1.76 4.192-3.808 4.192-3.2 0-4.064-3.168-4.192-5.504Zm0-.864c.192-3.648 2.24-8.48 6.08-8.48 1.856 0 2.528 1.344 2.528 2.848 0 3.456-3.776 5.44-8.608 5.632ZM123.368 30.224c2.176 0 4.416-1.152 5.984-2.88.032 1.344.512 2.88 2.688 2.88 1.248 0 2.112-.8 3.104-1.76l.128-.864c-.832.896-1.568 1.6-2.272 1.6-.448 0-.832-.352-.832-1.376 0-1.216 2.24-12.128 2.624-14.08l-3.04.576-.544 2.528c-.832-1.856-2.336-3.104-4.608-3.104-5.216 0-8.288 5.696-8.288 10.592 0 3.04 1.28 5.888 5.056 5.888Zm-1.92-5.888c0-3.2 1.728-9.536 6.24-9.536 2.336 0 2.848 2.656 2.944 4.832-.352 1.856-.736 3.808-.992 5.312-.864 2.144-2.624 4.256-4.608 4.256-2.72 0-3.584-2.528-3.584-4.864ZM143.912 30.224c3.584 0 6.496-2.176 7.552-4.864h-2.816c-.576 1.6-2.112 4.064-4.512 4.064-2.88 0-3.424-2.56-3.424-5.216 0-4.064 2.048-9.568 6.592-9.568 2.24 0 3.744.928 4.256 2.432-1.28.16-2.784 1.632-2.784 2.816 0 .608.416.992 1.056.992 1.248 0 3.04-1.248 3.04-2.528v-.032c0-2.976-2.528-4.576-5.728-4.576-5.664 0-9.504 4.768-9.504 10.016 0 3.872 2.112 6.464 6.272 6.464ZM176.424 30.224c1.248 0 2.08-.768 3.104-1.76l.192-.864c-.832.832-1.632 1.6-2.336 1.6-.448 0-.832-.352-.832-1.376 0-1.76 2.048-8.864 2.048-10.624 0-2.368-1.568-3.456-3.84-3.456-1.824 0-3.936 1.344-5.408 2.816-.256-1.92-1.76-2.816-3.808-2.816-1.728 0-3.744 1.248-5.216 2.656l.096-.544c.224-1.152-.064-1.856-.832-2.016-1.088-.192-2.144.192-4.288 1.248l-.16.832c.48-.32 1.6-.896 2.048-.8.352.064.384.544.32.992l-.096.384L154.728 30h2.944l2.464-12.608c1.248-1.376 2.944-2.592 4.352-2.592 1.632 0 1.984.736 1.984 2.4 0 2.688-1.952 9.696-2.496 12.8h2.912c.416-2.432 2.4-10.592 2.496-12.64 1.248-1.376 2.912-2.56 4.32-2.56 1.632 0 1.984.736 1.984 2.4 0 2.688-2.016 7.488-2.016 10.336 0 1.344.544 2.688 2.752 2.688ZM188.232 30.224c5.248 0 9.344-4.928 9.344-10.144 0-3.904-2.72-6.336-6.176-6.336-5.088 0-9.376 4.736-9.376 10.144 0 3.936 2.752 6.336 6.208 6.336Zm-3.104-6.176c0-4.096 2.848-9.472 6.208-9.472 2.144 0 3.136 2.752 3.136 5.376 0 4.192-2.752 9.472-6.048 9.472-2.112 0-3.296-2.752-3.296-5.376ZM199.816 30h2.944l1.44-7.36.288-.352 2.048 5.568c.416 1.184 1.216 2.368 3.264 2.368 1.408 0 2.784-1.408 3.2-2.208l-.064-.672c-.448.672-1.28 1.6-2.08 1.6-.608 0-1.184-1.344-1.408-2.016l-2.72-7.264c2.496-2.752 5.088-5.088 6.336-5.088.352 0 .608.096.8.384-1.312.16-2.848 1.664-2.848 2.848 0 .576.416.992 1.056.992 1.248 0 3.04-1.248 3.04-2.496 0-2.176-1.28-2.56-2.016-2.56-2.048 0-5.632 3.648-8.576 7.2l.992-5.088c.224-1.152-.064-1.856-.832-2.016-1.088-.192-2.144.192-4.288 1.248l-.16.832c.48-.32 1.6-.896 2.048-.8.352.064.384.544.32.992l-.096.384L199.816 30Z"/></g></svg>