<svg xmlns="http://www.w3.org/2000/svg" width="320" height="40"><g fill="#424345" fill-rule="nonzero"><path d="M4.76 30h6.816c6.624-.032 12.896-4.576 12.896-11.616 0-4.448-1.856-10.624-7.488-10.624-2.048 0-4.32 1.248-5.408 2.496V8.24H4.76v1.376l1.824.224V28.4l-1.824.224V30Zm6.816-.96V11.664c.64-.992 1.632-2.048 3.296-2.048 2.688 0 4.32 3.52 4.32 8.896 0 7.488-3.872 10.496-7.616 10.528ZM37.048 30.48c3.488 0 6.656-1.696 7.712-5.12h-4.384c-.384 2.912-1.632 4.224-3.328 4.224-2.368 0-3.904-2.688-3.904-7.584h12.192c0-5.44-3.712-8.48-8.288-8.48-4.832 0-9.184 3.04-9.184 8.48s4.352 8.48 9.184 8.48Zm-3.872-9.76c.256-4.096 1.728-6.304 3.872-6.304 2.176 0 3.424 2.208 3.616 6.304h-7.488ZM55.352 30.48c2.72 0 6.88-.736 6.88-4.704 0-4.64-9.216-4-9.216-8.864 0-1.568 1.344-2.496 2.656-2.496 2.432 0 3.392 2.432 3.392 4.384h2.176V14h-1.056c0 .608-.032 1.152-.096 1.6-1.248-1.44-3.392-2.08-5.344-2.08-2.944 0-6.816 1.184-6.816 5.12 0 4.8 9.216 4.768 9.216 8.832 0 1.504-1.472 2.112-2.592 2.112-2.432 0-4.416-1.696-4.416-4.224h-2.208V30h1.088c0-.576.032-1.088.064-1.504 1.504 1.6 4.192 1.984 6.272 1.984ZM68.376 38.16c2.208 0 3.392-2.368 3.84-3.552L79.32 15.6l2.4-.224V14h-4.8v1.376l1.216.224-2.944 7.84L70.904 14h-7.296v1.376l2.592.224 6.688 14.016-1.792 4.8c-.416 1.12-1.152 2.848-2.656 2.848a1.903 1.903 0 0 1-1.44-.64c1.504-.128 3.008-1.632 3.008-3.136 0-.928-.64-1.664-1.632-1.664-1.504 0-3.168 1.632-3.168 3.168 0 1.824 1.504 3.168 3.168 3.168ZM93.336 30h8.608v-1.376l-2.016-.224v-6.816c0-5.728-2.016-8.064-5.632-8.064-1.888 0-3.552 1.376-4.736 2.816V14h-6.816v1.376l1.792.224v12.8l-1.792.224V30h8.576v-1.376l-1.76-.224V18.352c.672-1.6 1.76-3.072 2.976-3.072 2.24 0 2.368 3.008 2.368 5.44v7.68l-1.568.224V30ZM112.856 30.48c3.712 0 6.368-1.792 7.2-5.12h-4.032c-.096 2.144-1.056 4.224-3.168 4.224-2.464 0-3.776-2.624-3.776-7.584 0-3.904 1.76-7.328 5.088-7.328 1.408 0 2.976.576 3.808 1.632-1.408.288-2.752 1.76-2.752 3.136 0 .96.672 1.632 1.632 1.632 1.504 0 3.168-1.568 3.168-3.136 0-2.56-3.744-4.416-7.136-4.416-4.896 0-9.088 3.36-9.088 8.48 0 5.344 4.16 8.48 9.056 8.48ZM133.016 30h8.608v-1.376l-2.016-.224v-6.816c0-5.728-2.016-8.064-5.632-8.064-1.888 0-3.552 1.376-4.736 2.816V6.96h-6.816v1.376l1.792.224V28.4l-1.792.224V30H131v-1.376l-1.76-.224V18.352c.672-1.6 1.76-3.072 2.976-3.072 2.24 0 2.368 3.008 2.368 5.44v7.68l-1.568.224V30ZM142.968 30h8.832v-1.376l-2.016-.224v-9.376c1.152-2.272 3.104-4.608 4.832-4.608.704 0 1.312.256 1.728.672-1.504.128-3.008 1.696-3.008 3.168 0 .96.64 1.632 1.6 1.632 1.536 0 3.2-1.568 3.2-3.136 0-1.76-1.536-3.232-3.424-3.232-2.4 0-4.096 1.376-4.928 2.336V14h-6.816v1.376l1.792.224v12.8l-1.792.224V30ZM168.728 30.48c4.896 0 9.216-3.2 9.216-8.48 0-5.312-4.32-8.48-9.216-8.48-4.896 0-9.216 3.168-9.216 8.48s4.32 8.48 9.216 8.48ZM164.792 22c0-4.928 1.312-7.584 3.936-7.584 2.624 0 3.936 2.656 3.936 7.584 0 4.928-1.312 7.584-3.936 7.584-2.624 0-3.936-2.656-3.936-7.584ZM190.776 30h8.608v-1.376l-2.016-.224v-6.816c0-5.728-2.016-8.064-5.632-8.064-1.888 0-3.552 1.376-4.736 2.816V14h-6.816v1.376l1.792.224v12.8l-1.792.224V30h8.576v-1.376L187 28.4V18.352c.672-1.6 1.76-3.072 2.976-3.072 2.24 0 2.368 3.008 2.368 5.44v7.68l-1.568.224V30ZM200.728 30h8.832v-1.376l-2.016-.224V14h-6.816v1.376l1.792.224v12.8l-1.792.224V30Zm2.016-20.32c0 1.152.928 2.08 2.112 2.08 1.184 0 2.144-.928 2.144-2.08 0-1.184-.992-2.176-2.144-2.176-1.184 0-2.112.992-2.112 2.176ZM211.256 30h14.24v-3.008h-1.376l-.224 1.824H217.4l8-14.816h-14.144v2.976h1.408l.192-1.792h6.464zM227.576 30h8.832v-1.376l-2.016-.224V14h-6.816v1.376l1.792.224v12.8l-1.792.224V30Zm2.016-20.32c0 1.152.928 2.08 2.112 2.08 1.184 0 2.144-.928 2.144-2.08 0-1.184-.992-2.176-2.144-2.176-1.184 0-2.112.992-2.112 2.176ZM248.344 30h8.608v-1.376l-2.016-.224v-6.816c0-5.728-2.016-8.064-5.632-8.064-1.888 0-3.552 1.376-4.736 2.816V14h-6.816v1.376l1.792.224v12.8l-1.792.224V30h8.576v-1.376l-1.76-.224V18.352c.672-1.6 1.76-3.072 2.976-3.072 2.24 0 2.368 3.008 2.368 5.44v7.68l-1.568.224V30ZM267.96 38.16c5.12 0 8.608-2.464 8.608-6.272 0-3.392-2.656-5.632-5.92-5.632-2.912 0-5.6 3.328-7.04 3.328-1.024 0-1.344-1.088-1.344-2.144 0-.928.256-1.824.64-2.304a8.36 8.36 0 0 0 3.104.576c3.712 0 7.296-2.496 7.296-6.144 0-1.952-.8-3.392-2.048-4.416.544-2.048 1.888-2.976 3.136-2.976a2.05 2.05 0 0 1 1.376.544c-1.504.192-2.912 1.728-2.912 3.168 0 .96.64 1.632 1.6 1.632 1.536 0 3.2-1.568 3.2-3.136 0-1.76-1.408-3.104-3.2-3.104-2.208 0-3.904 1.344-4.768 2.944-1.12-.48-2.4-.704-3.68-.704-3.712 0-7.2 2.336-7.2 6.048 0 1.984.992 3.584 2.464 4.672-1.184.64-1.952 1.792-1.952 3.2 0 1.792 2.016 3.04 3.744 3.04 2.4 0 3.744-2.208 5.28-2.208 1.952 0 2.944 1.632 2.944 3.616 0 2.304-.896 5.376-3.776 5.376s-4.288-2.208-4.288-4.224h-4.064c0 3.616 5.088 5.12 8.8 5.12Zm-4.288-18.592c0-3.52.896-5.152 2.336-5.152s2.432 1.632 2.432 5.152c0 3.52-.992 5.248-2.432 5.248s-2.336-1.728-2.336-5.248Z"/></g></svg>