<?xml version="1.0" encoding="UTF-8"?>
<svg width="320px" height="40px" viewBox="0 0 320 40" version="1.1" xmlns="http://www.w3.org/2000/svg" xmlns:xlink="http://www.w3.org/1999/xlink">
    <title>apium-cyrillic-bold</title>
    <g id="_exports" stroke="none" stroke-width="1" fill="none" fill-rule="evenodd">
        <g id="Apium" transform="translate(-1051, -826)">
            <g id="apium-styles" transform="translate(0, 686)">
                <g id="apium-cyrillic-bold" transform="translate(1051, 140)">
                    <rect id="Rectangle-Copy-17" fill="#F7DF88" opacity="0" x="0" y="0" width="320" height="40"></rect>
                    <g transform="translate(4.48, 13.52)" fill="#424345" fill-rule="nonzero">
                        <path d="M10.016,16.48 L18.912,16.48 L18.912,15.104 L16.864,14.88 L16.864,2.08 L18.688,1.856 L18.688,0.48 L4.096,0.48 L4.096,1.856 L6.656,2.08 C6.656,10.4 6.336,16.032 3.008,16.032 C2.72,16.032 2.432,15.968 2.208,15.872 C3.552,15.552 4.8,14.176 4.8,12.8 C4.8,11.872 4.16,11.136 3.168,11.136 C1.664,11.136 -1.77635684e-14,12.768 -1.77635684e-14,14.304 C-1.77635684e-14,16.128 1.568,16.96 3.136,16.96 C7.456,16.96 7.84,10.496 7.84,1.664 L11.84,1.664 L11.84,14.88 L10.016,15.104 L10.016,16.48 Z" id="Path"></path>
                        <path d="M30.304,16.96 C33.792,16.96 36.96,15.264 38.016,11.84 L33.632,11.84 C33.248,14.752 32,16.064 30.304,16.064 C27.936,16.064 26.4,13.376 26.4,8.48 L38.592,8.48 C38.592,3.04 34.88,0 30.304,0 C25.472,0 21.12,3.04 21.12,8.48 C21.12,13.92 25.472,16.96 30.304,16.96 Z M26.432,7.2 C26.688,3.104 28.16,0.896 30.304,0.896 C32.48,0.896 33.728,3.104 33.92,7.2 L26.432,7.2 Z" id="Shape"></path>
                        <polygon id="Path" points="40.928 16.48 49.76 16.48 49.76 15.104 47.744 14.88 47.744 1.664 53.504 1.664 53.728 3.488 55.104 3.488 55.104 0.48 40.928 0.48 40.928 1.856 42.72 2.08 42.72 14.88 40.928 15.104"></polygon>
                        <path d="M71.968,16.96 C76.256,16.96 76.896,14.176 76.896,11.84 L75.552,11.84 C75.552,13.184 74.976,15.2 73.76,15.2 C72.48,15.2 72,13.408 72,10.848 L72,6.336 C72,1.92 69.152,0 64.896,0 C60.48,0 57.952,2.464 57.952,5.12 L59.264,5.12 C59.264,3.264 61.12,1.344 63.072,1.344 C65.44,1.344 67.008,2.72 67.008,6.112 L67.008,7.488 C65.984,6.368 64.448,5.6 62.496,5.6 C59.424,5.6 56.48,7.296 56.48,11.136 C56.48,15.008 59.424,16.96 62.496,16.96 C64.896,16.96 66.688,15.744 67.648,14.208 C68.512,16.192 70.144,16.96 71.968,16.96 Z M61.76,11.136 C61.76,9.376 62.912,7.36 64.832,7.36 C65.824,7.36 66.56,8.064 67.008,8.96 L67.008,10.528 C67.008,11.456 67.104,12.256 67.264,12.96 C66.88,14.112 66.048,15.168 64.832,15.168 C62.912,15.168 61.76,12.896 61.76,11.136 Z" id="Shape"></path>
                        <path d="M87.872,16.48 L96.768,16.48 L96.768,15.104 L94.72,14.88 L94.72,2.08 L96.544,1.856 L96.544,0.48 L81.952,0.48 L81.952,1.856 L84.512,2.08 C84.512,10.4 84.192,16.032 80.864,16.032 C80.576,16.032 80.288,15.968 80.064,15.872 C81.408,15.552 82.656,14.176 82.656,12.8 C82.656,11.872 82.016,11.136 81.024,11.136 C79.52,11.136 77.856,12.768 77.856,14.304 C77.856,16.128 79.424,16.96 80.992,16.96 C85.312,16.96 85.696,10.496 85.696,1.664 L89.696,1.664 L89.696,14.88 L87.872,15.104 L87.872,16.48 Z" id="Path"></path>
                        <polygon id="Path" points="98.464 16.48 105.28 16.48 111.232 3.488 111.232 14.88 109.44 15.104 109.44 16.48 118.272 16.48 118.272 15.104 116.256 14.88 116.256 2.08 118.048 1.856 118.048 0.48 111.232 0.48 105.28 12.992 105.28 2.08 107.104 1.856 107.104 0.48 98.464 0.48 98.464 1.856 100.256 2.08 100.256 14.88 98.464 15.104"></polygon>
                        <path d="M128.192,16.96 C131.104,16.96 135.744,16.256 135.744,11.904 C135.744,9.12 132.544,8.096 129.632,7.744 C132.128,7.36 134.688,6.4 134.688,4.096 C134.688,1.024 130.72,0 128.352,0 C125.28,0 121.184,1.152 121.184,5.28 L125.184,5.28 C125.184,3.68 125.952,0.896 127.968,0.896 C129.568,0.896 130.304,2.496 130.304,4.064 C130.304,6.72 128.064,7.36 125.792,7.36 L125.792,8.32 C128.576,8.32 130.912,9.696 130.912,11.904 C130.912,14.4 129.312,16.064 127.136,16.064 C125.824,16.064 123.616,15.584 122.624,14.176 C124.064,13.92 125.44,12.448 125.44,11.04 C125.44,10.08 124.768,9.408 123.808,9.408 C122.304,9.408 120.64,10.976 120.64,12.544 C120.64,15.616 125.632,16.96 128.192,16.96 Z" id="Path"></path>
                        <polygon id="Path" points="138.016 16.48 144.832 16.48 150.784 3.488 150.784 14.88 148.992 15.104 148.992 16.48 157.824 16.48 157.824 15.104 155.808 14.88 155.808 2.08 157.6 1.856 157.6 0.48 150.784 0.48 144.832 12.992 144.832 2.08 146.656 1.856 146.656 0.48 138.016 0.48 138.016 1.856 139.808 2.08 139.808 14.88 138.016 15.104"></polygon>
                        <path d="M171.968,16.96 C176.832,16.96 178.528,12.288 178.528,8.48 C178.528,4.672 176.832,0 171.968,0 C169.504,0 167.616,1.248 166.368,2.816 L166.368,0.48 L159.552,0.48 L159.552,1.856 L161.344,2.08 L161.344,22.56 L159.552,22.784 L159.552,24.16 L168.384,24.16 L168.384,22.784 L166.368,22.56 L166.368,14.144 C167.616,15.712 169.504,16.96 171.968,16.96 Z M166.368,12.32 L166.368,4.64 C167.008,3.136 168.16,1.76 169.6,1.76 C172.096,1.76 173.248,4.64 173.248,8.48 C173.248,12.288 172.096,15.2 169.6,15.2 C168.16,15.2 167.008,13.856 166.368,12.32 Z" id="Shape"></path>
                        <path d="M196.8,16.96 C201.088,16.96 201.728,14.176 201.728,11.84 L200.384,11.84 C200.384,13.184 199.808,15.2 198.592,15.2 C197.312,15.2 196.832,13.408 196.832,10.848 L196.832,6.336 C196.832,1.92 193.984,0 189.728,0 C185.312,0 182.784,2.464 182.784,5.12 L184.096,5.12 C184.096,3.264 185.952,1.344 187.904,1.344 C190.272,1.344 191.84,2.72 191.84,6.112 L191.84,7.488 C190.816,6.368 189.28,5.6 187.328,5.6 C184.256,5.6 181.312,7.296 181.312,11.136 C181.312,15.008 184.256,16.96 187.328,16.96 C189.728,16.96 191.52,15.744 192.48,14.208 C193.344,16.192 194.976,16.96 196.8,16.96 Z M186.592,11.136 C186.592,9.376 187.744,7.36 189.664,7.36 C190.656,7.36 191.392,8.064 191.84,8.96 L191.84,10.528 C191.84,11.456 191.936,12.256 192.096,12.96 C191.712,14.112 190.88,15.168 189.664,15.168 C187.744,15.168 186.592,12.896 186.592,11.136 Z" id="Shape"></path>
                        <path d="M203.072,16.48 L211.648,16.48 L211.648,15.104 L209.888,14.88 L209.888,8.864 L215.712,8.864 L215.712,14.88 L214.144,15.104 L214.144,16.48 L223.232,16.48 C225.792,16.48 229.856,15.936 229.856,12.16 C229.856,8.512 226.048,7.68 223.456,7.68 L220.736,7.68 L220.736,2.08 L222.56,1.856 L222.56,0.48 L214.144,0.48 L214.144,1.856 L215.712,2.08 L215.712,7.68 L209.888,7.68 L209.888,2.08 L211.456,1.856 L211.456,0.48 L203.072,0.48 L203.072,1.856 L204.864,2.08 L204.864,14.88 L203.072,15.104 L203.072,16.48 Z M220.736,15.328 L220.736,8.48 L220.8,8.48 C222.816,8.48 224.8,9.568 224.8,11.936 C224.8,13.312 224.096,14.752 222.464,15.136 C222.016,15.232 221.376,15.296 220.736,15.328 Z" id="Shape"></path>
                        <path d="M241.792,16.96 C245.28,16.96 248.448,15.264 249.504,11.84 L245.12,11.84 C244.736,14.752 243.488,16.064 241.792,16.064 C239.424,16.064 237.888,13.376 237.888,8.48 L250.08,8.48 C250.08,3.04 246.368,0 241.792,0 C236.96,0 232.608,3.04 232.608,8.48 C232.608,13.92 236.96,16.96 241.792,16.96 Z M237.92,7.2 C238.176,3.104 239.648,0.896 241.792,0.896 C243.968,0.896 245.216,3.104 245.408,7.2 L237.92,7.2 Z" id="Shape"></path>
                    </g>
                </g>
            </g>
        </g>
    </g>
</svg>