<svg xmlns="http://www.w3.org/2000/svg" width="320" height="40"><g fill="#424345" fill-rule="nonzero"><path d="M14.496 30h8.896v-1.376l-2.048-.224V15.6l1.824-.224V14H8.576v1.376l2.56.224c0 8.32-.32 13.952-3.648 13.952-.288 0-.576-.064-.8-.16 1.344-.32 2.592-1.696 2.592-3.072 0-.928-.64-1.664-1.632-1.664-1.504 0-3.168 1.632-3.168 3.168 0 1.824 1.568 2.656 3.136 2.656 4.32 0 4.704-6.464 4.704-15.296h4V28.4l-1.824.224V30ZM34.784 30.48c3.488 0 6.656-1.696 7.712-5.12h-4.384c-.384 2.912-1.632 4.224-3.328 4.224-2.368 0-3.904-2.688-3.904-7.584h12.192c0-5.44-3.712-8.48-8.288-8.48-4.832 0-9.184 3.04-9.184 8.48s4.352 8.48 9.184 8.48Zm-3.872-9.76c.256-4.096 1.728-6.304 3.872-6.304 2.176 0 3.424 2.208 3.616 6.304h-7.488ZM45.408 30h8.832v-1.376l-2.016-.224V15.184h5.76l.224 1.824h1.376V14H45.408v1.376l1.792.224v12.8l-1.792.224zM76.448 30.48c4.288 0 4.928-2.784 4.928-5.12h-1.344c0 1.344-.576 3.36-1.792 3.36-1.28 0-1.76-1.792-1.76-4.352v-4.512c0-4.416-2.848-6.336-7.104-6.336-4.416 0-6.944 2.464-6.944 5.12h1.312c0-1.856 1.856-3.776 3.808-3.776 2.368 0 3.936 1.376 3.936 4.768v1.376c-1.024-1.12-2.56-1.888-4.512-1.888-3.072 0-6.016 1.696-6.016 5.536 0 3.872 2.944 5.824 6.016 5.824 2.4 0 4.192-1.216 5.152-2.752.864 1.984 2.496 2.752 4.32 2.752ZM66.24 24.656c0-1.76 1.152-3.776 3.072-3.776.992 0 1.728.704 2.176 1.6v1.568c0 .928.096 1.728.256 2.432-.384 1.152-1.216 2.208-2.432 2.208-1.92 0-3.072-2.272-3.072-4.032ZM92.352 30h8.896v-1.376L99.2 28.4V15.6l1.824-.224V14H86.432v1.376l2.56.224c0 8.32-.32 13.952-3.648 13.952-.288 0-.576-.064-.8-.16 1.344-.32 2.592-1.696 2.592-3.072 0-.928-.64-1.664-1.632-1.664-1.504 0-3.168 1.632-3.168 3.168 0 1.824 1.568 2.656 3.136 2.656 4.32 0 4.704-6.464 4.704-15.296h4V28.4l-1.824.224V30ZM102.944 30h6.816l5.952-12.992V28.4l-1.792.224V30h8.832v-1.376l-2.016-.224V15.6l1.792-.224V14h-6.816l-5.952 12.512V15.6l1.824-.224V14h-8.64v1.376l1.792.224v12.8l-1.792.224zM132.672 30.48c2.912 0 7.552-.704 7.552-5.056 0-2.784-3.2-3.808-6.112-4.16 2.496-.384 5.056-1.344 5.056-3.648 0-3.072-3.968-4.096-6.336-4.096-3.072 0-7.168 1.152-7.168 5.28h4c0-1.6.768-4.384 2.784-4.384 1.6 0 2.336 1.6 2.336 3.168 0 2.656-2.24 3.296-4.512 3.296v.96c2.784 0 5.12 1.376 5.12 3.584 0 2.496-1.6 4.16-3.776 4.16-1.312 0-3.52-.48-4.512-1.888 1.44-.256 2.816-1.728 2.816-3.136 0-.96-.672-1.632-1.632-1.632-1.504 0-3.168 1.568-3.168 3.136 0 3.072 4.992 4.416 7.552 4.416ZM142.496 30h6.816l5.952-12.992V28.4l-1.792.224V30h8.832v-1.376l-2.016-.224V15.6l1.792-.224V14h-6.816l-5.952 12.512V15.6l1.824-.224V14h-8.64v1.376l1.792.224v12.8l-1.792.224zM176.448 30.48c4.864 0 6.56-4.672 6.56-8.48 0-3.808-1.696-8.48-6.56-8.48-2.464 0-4.352 1.248-5.6 2.816V14h-6.816v1.376l1.792.224v20.48l-1.792.224v1.376h8.832v-1.376l-2.016-.224v-8.416c1.248 1.568 3.136 2.816 5.6 2.816Zm-5.6-4.64v-7.68c.64-1.504 1.792-2.88 3.232-2.88 2.496 0 3.648 2.88 3.648 6.72 0 3.808-1.152 6.72-3.648 6.72-1.44 0-2.592-1.344-3.232-2.88ZM201.28 30.48c4.288 0 4.928-2.784 4.928-5.12h-1.344c0 1.344-.576 3.36-1.792 3.36-1.28 0-1.76-1.792-1.76-4.352v-4.512c0-4.416-2.848-6.336-7.104-6.336-4.416 0-6.944 2.464-6.944 5.12h1.312c0-1.856 1.856-3.776 3.808-3.776 2.368 0 3.936 1.376 3.936 4.768v1.376c-1.024-1.12-2.56-1.888-4.512-1.888-3.072 0-6.016 1.696-6.016 5.536 0 3.872 2.944 5.824 6.016 5.824 2.4 0 4.192-1.216 5.152-2.752.864 1.984 2.496 2.752 4.32 2.752Zm-10.208-5.824c0-1.76 1.152-3.776 3.072-3.776.992 0 1.728.704 2.176 1.6v1.568c0 .928.096 1.728.256 2.432-.384 1.152-1.216 2.208-2.432 2.208-1.92 0-3.072-2.272-3.072-4.032ZM207.552 30h8.576v-1.376l-1.76-.224v-6.016h5.824V28.4l-1.568.224V30h9.088c2.56 0 6.624-.544 6.624-4.32 0-3.648-3.808-4.48-6.4-4.48h-2.72v-5.6l1.824-.224V14h-8.416v1.376l1.568.224v5.6h-5.824v-5.6l1.568-.224V14h-8.384v1.376l1.792.224v12.8l-1.792.224V30Zm17.664-1.152V22h.064c2.016 0 4 1.088 4 3.456 0 1.376-.704 2.816-2.336 3.2-.448.096-1.088.16-1.728.192ZM246.272 30.48c3.488 0 6.656-1.696 7.712-5.12H249.6c-.384 2.912-1.632 4.224-3.328 4.224-2.368 0-3.904-2.688-3.904-7.584h12.192c0-5.44-3.712-8.48-8.288-8.48-4.832 0-9.184 3.04-9.184 8.48s4.352 8.48 9.184 8.48Zm-3.872-9.76c.256-4.096 1.728-6.304 3.872-6.304 2.176 0 3.424 2.208 3.616 6.304H242.4Z"/></g></svg>