<svg xmlns="http://www.w3.org/2000/svg" width="320" height="40"><g fill="#424345" fill-rule="nonzero"><path d="M12.272 30.256c4.16 0 7.392-3.104 9.152-6.656h-2.88c-.864 2.592-3.008 5.824-6.048 5.824-3.936 0-5.248-3.424-5.248-6.912 0-5.088 2.848-13.696 9.44-13.696 2.08 0 4.544 1.024 5.312 2.912-1.504.096-3.264 1.76-3.264 3.168 0 .672.416 1.12 1.152 1.12 1.472 0 3.392-1.568 3.424-3.04v-.064c-.032-3.36-3.2-4.928-6.624-4.928-7.296 0-12.48 7.072-12.48 13.728 0 4.672 2.656 8.544 8.064 8.544ZM29.104 30.256c1.248 0 2.208-.832 3.232-1.792l.128-.864c-.736.832-1.632 1.6-2.4 1.6-.448 0-.832-.352-.832-1.376 0-.992 1.472-8.288 2.24-11.968.224-1.152-.064-1.856-.864-2.016-1.056-.224-2.144.128-4.288 1.216l-.16.8c.48-.288 1.632-.864 2.08-.768.352.064.384.544.288.992l-.096.384c-.992 4.192-2.016 9.664-2.016 10.816 0 1.344.48 2.976 2.688 2.976Zm.192-19.904c0 .8.576 1.408 1.44 1.408 1.056 0 2.08-.928 2.08-2.048 0-.8-.608-1.408-1.44-1.408-1.056 0-2.08.96-2.08 2.048ZM34.96 30h2.944l.64-3.296c.8-3.84 3.264-12.128 7.008-12.128.704 0 1.344.416 1.728 1.056-1.28.224-2.688 1.664-2.688 2.816 0 .576.416.992 1.088.992 1.216 0 3.008-1.216 3.008-2.496 0-1.664-1.344-3.2-2.848-3.2-2.304 0-4.544 3.232-5.952 6.144l.768-4.032c.224-1.152-.064-1.856-.832-2.016-1.088-.192-2.144.192-4.288 1.248l-.16.832c.48-.32 1.6-.896 2.048-.8.352.064.384.544.32.992l-.096.384L34.96 30ZM55.568 30.256c3.584 0 6.496-2.208 7.552-4.896h-2.816c-.576 1.6-2.112 4.064-4.512 4.064-2.88 0-3.424-2.56-3.424-5.216 0-4.064 2.048-9.568 6.592-9.568 2.24 0 3.744.928 4.256 2.432-1.28.16-2.784 1.632-2.784 2.816 0 .608.416.992 1.056.992 1.248 0 3.04-1.248 3.04-2.528v-.032c0-2.976-2.528-4.576-5.728-4.576-5.664 0-9.504 4.768-9.504 10.016 0 3.872 2.112 6.496 6.272 6.496ZM70.928 30.256c1.952 0 3.776-1.44 5.184-2.944 0 1.312.48 2.944 2.688 2.944 1.248 0 2.112-.832 3.104-1.792l.128-.864c-.832.896-1.568 1.6-2.272 1.6-.448 0-.832-.352-.832-1.376 0-1.216 2.24-12.128 2.624-14.08l-3.04.576c-.32 1.408-1.92 9.152-2.304 12.064-1.216 1.472-2.848 2.816-4.448 2.816-1.408 0-1.984-1.152-1.984-2.56 0-1.056 1.28-6.72 2.112-10.784.224-1.12-.064-1.824-.864-2.016-1.056-.224-2.144.128-4.288 1.152l-.192.8c.48-.288 1.632-.832 2.08-.736.352.064.384.544.288.992l-.096.384c-.96 4.032-1.984 8.96-1.984 10.208 0 2.208 1.344 3.616 4.096 3.616ZM106.512 30.256c1.248 0 2.08-.8 3.104-1.792l.192-.864c-.832.832-1.632 1.6-2.336 1.6-.448 0-.832-.352-.832-1.376 0-1.76 2.048-8.864 2.048-10.624 0-2.368-1.568-3.456-3.84-3.456-1.824 0-3.936 1.344-5.408 2.816-.256-1.92-1.76-2.816-3.808-2.816-1.728 0-3.744 1.248-5.216 2.656l.096-.544c.224-1.152-.064-1.856-.832-2.016-1.088-.192-2.144.192-4.288 1.248l-.16.832c.48-.32 1.6-.896 2.048-.8.352.064.384.544.32.992l-.096.384L84.816 30h2.944l2.464-12.608c1.248-1.376 2.944-2.592 4.352-2.592 1.632 0 1.984.736 1.984 2.4 0 2.688-1.952 9.696-2.496 12.8h2.912c.416-2.432 2.4-10.592 2.496-12.64 1.248-1.376 2.912-2.56 4.32-2.56 1.632 0 1.984.736 1.984 2.4 0 2.688-2.016 7.488-2.016 10.336 0 1.344.544 2.72 2.752 2.72ZM117.36 30.256c3.52 0 7.04-1.632 7.04-4.992 0-3.776-8.096-2.848-8.096-7.232 0-1.952 2.176-3.456 4.064-3.456 1.664 0 2.688.416 3.2 1.056-1.248.224-2.688 1.664-2.688 2.816 0 .576.416.992 1.088.992 1.216 0 3.008-1.216 3.008-2.496 0-2.304-2.528-3.2-4.704-3.2-3.104 0-7.104 2.208-7.104 5.408 0 4.128 8.096 3.36 8.096 7.232 0 1.696-1.792 3.04-3.36 3.04-1.728 0-4.416-.992-4.416-4.224h-1.664l-.96 4.8h1.248c.16-.736.288-1.408.448-1.92 1.088 1.696 3.136 2.176 4.8 2.176ZM132.688 30.256c3.136 0 4.064-2.976 4.448-4.896h-1.408c-.384 1.952-1.344 3.84-2.336 3.84-.864 0-1.184-1.024-1.184-2.048 0-1.12.992-6.176 1.92-10.816h3.264l.288-1.28h-3.264c.448-2.272.896-4.32 1.184-5.6h-2.944c-.288 1.312-.736 3.36-1.184 5.6h-2.88l-.288 1.28h2.912c-.928 4.544-1.888 9.504-1.888 10.688 0 2.304 1.216 3.232 3.36 3.232ZM144.112 30.256c2.176 0 4.416-1.152 5.984-2.88.032 1.312.512 2.88 2.688 2.88 1.248 0 2.112-.832 3.104-1.792l.128-.864c-.832.896-1.568 1.6-2.272 1.6-.448 0-.832-.352-.832-1.376 0-1.216 2.24-12.128 2.624-14.08l-3.04.576-.544 2.528c-.832-1.856-2.336-3.104-4.608-3.104-5.216 0-8.288 5.696-8.288 10.592 0 3.04 1.28 5.92 5.056 5.92Zm-1.92-5.92c0-3.2 1.728-9.536 6.24-9.536 2.336 0 2.848 2.656 2.944 4.832-.352 1.856-.736 3.808-.992 5.312-.864 2.144-2.624 4.256-4.608 4.256-2.72 0-3.584-2.528-3.584-4.864ZM170.992 30.256c1.248 0 2.08-.8 3.104-1.792l.192-.864c-.832.832-1.632 1.6-2.336 1.6-.448 0-.8-.352-.8-1.376 0-1.76 2.016-8.864 2.016-10.624 0-2.368-1.568-3.456-3.84-3.456-1.728 0-3.744 1.248-5.216 2.656l.096-.544c.224-1.152-.064-1.856-.832-2.016-1.088-.192-2.144.192-4.288 1.248l-.16.832c.48-.32 1.6-.896 2.048-.8.352.064.384.544.32.992l-.096.384L158.512 30h2.944l2.464-12.608c1.248-1.376 2.944-2.592 4.352-2.592 1.632 0 1.984.736 1.984 2.4 0 2.688-2.016 7.488-2.016 10.336 0 1.344.544 2.72 2.752 2.72ZM181.68 30.256c3.136 0 4.064-2.976 4.448-4.896h-1.408c-.384 1.952-1.344 3.84-2.336 3.84-.864 0-1.184-1.024-1.184-2.048 0-1.12.992-6.176 1.92-10.816h3.264l.288-1.28h-3.264c.448-2.272.896-4.32 1.184-5.6h-2.944c-.288 1.312-.736 3.36-1.184 5.6h-2.88l-.288 1.28h2.912c-.928 4.544-1.888 9.504-1.888 10.688 0 2.304 1.216 3.232 3.36 3.232ZM191.664 30.256c1.248 0 2.208-.832 3.232-1.792l.128-.864c-.736.832-1.632 1.6-2.4 1.6-.448 0-.832-.352-.832-1.376 0-.992 1.472-8.288 2.24-11.968.224-1.152-.064-1.856-.864-2.016-1.056-.224-2.144.128-4.288 1.216l-.16.8c.48-.288 1.632-.864 2.08-.768.352.064.384.544.288.992l-.096.384c-.992 4.192-2.016 9.664-2.016 10.816 0 1.344.48 2.976 2.688 2.976Zm.192-19.904c0 .8.576 1.408 1.44 1.408 1.056 0 2.08-.928 2.08-2.048 0-.8-.608-1.408-1.44-1.408-1.056 0-2.08.96-2.08 2.048ZM202.352 30.256c2.176 0 4.416-1.152 5.984-2.88.032 1.312.512 2.88 2.688 2.88 1.248 0 2.112-.832 3.104-1.792l.128-.864c-.832.896-1.568 1.6-2.272 1.6-.448 0-.832-.352-.832-1.376 0-1.216 2.24-12.128 2.624-14.08l-3.04.576-.544 2.528c-.832-1.856-2.336-3.104-4.608-3.104-5.216 0-8.288 5.696-8.288 10.592 0 3.04 1.28 5.92 5.056 5.92Zm-1.92-5.92c0-3.2 1.728-9.536 6.24-9.536 2.336 0 2.848 2.656 2.944 4.832-.352 1.856-.736 3.808-.992 5.312-.864 2.144-2.624 4.256-4.608 4.256-2.72 0-3.584-2.528-3.584-4.864ZM221.68 30.256c3.136 0 4.064-2.976 4.448-4.896h-1.408c-.384 1.952-1.344 3.84-2.336 3.84-.864 0-1.184-1.024-1.184-2.048 0-1.12.992-6.176 1.92-10.816h3.264l.288-1.28h-3.264c.448-2.272.896-4.32 1.184-5.6h-2.944c-.288 1.312-.736 3.36-1.184 5.6h-2.88l-.288 1.28h2.912c-.928 4.544-1.888 9.504-1.888 10.688 0 2.304 1.216 3.232 3.36 3.232ZM231.664 30.256c1.248 0 2.208-.832 3.232-1.792l.128-.864c-.736.832-1.632 1.6-2.4 1.6-.448 0-.832-.352-.832-1.376 0-.992 1.472-8.288 2.24-11.968.224-1.152-.064-1.856-.864-2.016-1.056-.224-2.144.128-4.288 1.216l-.16.8c.48-.288 1.632-.864 2.08-.768.352.064.384.544.288.992l-.096.384c-.992 4.192-2.016 9.664-2.016 10.816 0 1.344.48 2.976 2.688 2.976Zm.192-19.904c0 .8.576 1.408 1.44 1.408 1.056 0 2.08-.928 2.08-2.048 0-.8-.608-1.408-1.44-1.408-1.056 0-2.08.96-2.08 2.048ZM243.568 30.256c5.248 0 9.344-4.96 9.344-10.176 0-3.904-2.72-6.336-6.176-6.336-5.088 0-9.376 4.736-9.376 10.144 0 3.936 2.752 6.368 6.208 6.368Zm-3.104-6.208c0-4.096 2.848-9.472 6.208-9.472 2.144 0 3.136 2.752 3.136 5.376 0 4.192-2.752 9.472-6.048 9.472-2.112 0-3.296-2.752-3.296-5.376ZM267.632 30.256c1.248 0 2.08-.8 3.104-1.792l.192-.864c-.832.832-1.632 1.6-2.336 1.6-.448 0-.8-.352-.8-1.376 0-1.76 2.016-8.864 2.016-10.624 0-2.368-1.568-3.456-3.84-3.456-1.728 0-3.744 1.248-5.216 2.656l.096-.544c.224-1.152-.064-1.856-.832-2.016-1.088-.192-2.144.192-4.288 1.248l-.16.832c.48-.32 1.6-.896 2.048-.8.352.064.384.544.32.992l-.096.384L255.152 30h2.944l2.464-12.608c1.248-1.376 2.944-2.592 4.352-2.592 1.632 0 1.984.736 1.984 2.4 0 2.688-2.016 7.488-2.016 10.336 0 1.344.544 2.72 2.752 2.72Z"/></g></svg>