<svg xmlns="http://www.w3.org/2000/svg" width="320" height="40"><g fill="#424345" fill-rule="nonzero"><path d="M15.552 30.48c5.408 0 8.512-5.984 8.512-10.88 0-3.136-1.536-6.08-5.184-6.08-2.72 0-4.768 1.92-6.272 4.928l.48-2.496c.224-1.152-.448-2.048-1.6-2.272-2.016-.416-3.776.448-5.792 1.568l-.288 1.408c.896-.576 1.92-.96 2.304-.896.224.032.384.352.288.736l-.16.704-3.712 18.88-1.856.224-.288 1.376h8.384l.288-1.376-1.536-.224 1.696-8.608c.864 1.696 2.368 3.008 4.736 3.008ZM11.2 25.52l.128-.64c1.056-4.416 3.104-9.6 5.344-9.6 1.76 0 2.144 1.664 2.144 3.968 0 2.912-1.472 9.472-5.312 9.472-1.344 0-2.016-1.568-2.304-3.2ZM30.88 30.48c2.56 0 4.8-1.472 6.368-3.232.16 1.696 1.408 3.232 3.84 3.232 2.24 0 3.232-1.184 4.16-2.272l.192-1.088c-.736.768-1.568 1.6-2.496 1.6-.576 0-.864-.32-.864-1.024 0-.928 2.208-11.712 2.688-14.176l-5.248.992-.48 2.272c-.832-1.824-2.4-3.264-4.864-3.264-5.408 0-8.48 5.984-8.48 10.88 0 3.136 1.312 6.08 5.184 6.08Zm.064-5.76c0-2.88 1.472-9.44 5.216-9.44 1.568 0 2.24 1.856 2.464 3.616-.448 2.368-.992 5.088-1.248 6.656-.896 1.632-2.368 3.168-3.776 3.168-1.856 0-2.656-1.696-2.656-4ZM55.072 30.48c6.688 0 10.112-6.24 10.112-12.768 0-5.344-2.656-11.232-8.736-11.232-1.088 0-2.272.224-3.584.704v.032c-.8.32-1.856 1.248-1.856 2.272 0 .896.704 1.6 1.664 1.6 1.248 0 2.464-1.088 2.464-2.368 0-.416-.128-.768-.352-1.056.48-.096.928-.128 1.376-.128 3.904 0 5.024 3.456 5.024 6.464 0 .768-.064 1.536-.16 2.24-1.504-2.08-3.584-2.72-5.12-2.72-4.736 0-8.352 5.248-8.352 10.144 0 4.576 3.616 6.816 7.52 6.816Zm-2.432-5.12c0-2.976 1.664-10.08 5.312-10.08 1.888 0 2.528 2.368 2.528 4.576 0 3.2-1.696 9.728-5.12 9.728-2.112 0-2.72-2.144-2.72-4.224ZM71.872 30.48c1.984 0 4.192-1.376 5.696-2.944.288 1.568 1.504 2.944 3.808 2.944 2.24 0 3.232-1.184 4.16-2.272l.192-1.088c-.736.768-1.568 1.6-2.496 1.6-.576 0-.864-.32-.864-1.024 0-.928 2.24-11.712 2.688-14.176l-5.216.992c-.352 1.664-2.048 9.952-2.304 11.936-.992 1.216-2.272 2.272-3.488 2.272-1.056 0-1.472-.736-1.472-1.856s1.344-7.104 2.112-10.944c.224-1.088-.416-2.016-1.6-2.272-1.984-.448-3.744.384-5.792 1.44l-.32 1.408c.928-.544 1.952-.896 2.336-.832.192.064.352.352.256.768l-.16.672c-.96 4.512-1.856 8.96-1.856 9.76 0 2.176 1.536 3.616 4.32 3.616ZM95.552 30.48c5.92 0 10.816-4.672 10.816-10.272 0-4.32-3.488-6.688-7.552-6.688C92.992 13.52 88 18.096 88 23.792c0 4.32 3.52 6.688 7.552 6.688Zm-2.432-5.216c0-3.36 2.208-10.848 5.568-10.848 1.632 0 2.56 1.664 2.56 4.32 0 3.392-2.176 10.848-5.504 10.848-1.632 0-2.624-1.664-2.624-4.32ZM115.104 30.48c3.072 0 6.688-1.024 7.52-5.28h-2.176c-.512 2.528-1.952 4.384-4.384 4.384-1.088 0-2.272-.768-2.272-2.144 0-6.176 8.896-3.552 8.896-9.632 0-2.496-3.136-4.288-6.048-4.288-3.04 0-6.784 1.504-7.552 5.28h2.208c.384-1.952 1.792-4.384 4.224-4.384 1.248 0 2.336.96 2.336 2.336 0 6.656-8.896 3.616-8.896 9.664 0 2.88 3.616 4.064 6.144 4.064ZM136 30.48c5.408 0 8.512-5.984 8.512-10.88 0-3.136-1.536-6.08-5.184-6.08-2.72 0-4.768 1.92-6.272 4.928l.48-2.496c.224-1.152-.448-2.048-1.6-2.272-2.016-.416-3.776.448-5.792 1.568l-.288 1.408c.896-.576 1.92-.96 2.304-.896.224.032.384.352.288.736l-.16.704-3.712 18.88-1.856.224-.288 1.376h8.384l.288-1.376-1.536-.224 1.696-8.608c.864 1.696 2.368 3.008 4.736 3.008Zm-4.352-4.96.128-.64c1.056-4.416 3.104-9.6 5.344-9.6 1.76 0 2.144 1.664 2.144 3.968 0 2.912-1.472 9.472-5.312 9.472-1.344 0-2.016-1.568-2.304-3.2ZM151.328 30.48c2.56 0 4.8-1.472 6.368-3.232.16 1.696 1.408 3.232 3.84 3.232 2.24 0 3.232-1.184 4.16-2.272l.192-1.088c-.736.768-1.568 1.6-2.496 1.6-.576 0-.864-.32-.864-1.024 0-.928 2.208-11.712 2.688-14.176l-5.248.992-.48 2.272c-.832-1.824-2.4-3.264-4.864-3.264-5.408 0-8.48 5.984-8.48 10.88 0 3.136 1.312 6.08 5.184 6.08Zm.064-5.76c0-2.88 1.472-9.44 5.216-9.44 1.568 0 2.24 1.856 2.464 3.616-.448 2.368-.992 5.088-1.248 6.656-.896 1.632-2.368 3.168-3.776 3.168-1.856 0-2.656-1.696-2.656-4ZM174.4 37.68h8.384l.256-1.376-1.504-.224 1.472-7.584c.928 1.152 2.24 1.984 4.096 1.984 5.344 0 8.544-5.888 8.544-10.88 0-3.136-1.408-6.08-5.28-6.08-1.824 0-3.456.736-4.8 1.824l1.248-6.464c.224-1.12-.448-2.016-1.632-2.24-2.016-.416-3.712.448-5.76 1.568l-.288 1.408c.896-.576 1.92-.928 2.304-.864.224.032.384.32.288.736l-.16.672-1.056 5.408c-.928-1.184-2.272-2.048-4.128-2.048-5.344 0-8.48 5.888-8.48 10.88 0 3.136 1.312 6.08 5.184 6.08 1.856 0 3.52-.768 4.896-1.824l-1.44 7.424-1.856.224-.288 1.376Zm-1.248-12.96c0-2.88 1.472-9.44 5.216-9.44.928 0 1.536.64 1.92 1.472l-2.08 10.688c-.736.768-1.6 1.28-2.464 1.28-1.856 0-2.592-1.696-2.592-4Zm10.112 2.4 2.016-10.368c.832-.864 1.76-1.472 2.624-1.472 1.856 0 2.496 1.664 2.496 3.968 0 2.912-1.312 9.472-5.056 9.472-.96 0-1.632-.672-2.08-1.6ZM202.592 30.48c1.984 0 4.192-1.376 5.696-2.944.288 1.568 1.504 2.944 3.808 2.944 2.24 0 3.232-1.184 4.16-2.272l.192-1.088c-.736.768-1.568 1.6-2.496 1.6-.576 0-.864-.32-.864-1.024 0-.928 2.24-11.712 2.688-14.176l-5.216.992c-.352 1.664-2.048 9.952-2.304 11.936-.992 1.216-2.272 2.272-3.488 2.272-1.056 0-1.472-.736-1.472-1.856s1.344-7.104 2.112-10.944c.224-1.088-.416-2.016-1.6-2.272-1.984-.448-3.744.384-5.792 1.44l-.32 1.408c.928-.544 1.952-.896 2.336-.832.192.064.352.352.256.768l-.16.672c-.96 4.512-1.856 8.96-1.856 9.76 0 2.176 1.536 3.616 4.32 3.616ZM218.624 38.16c2.592 0 5.216-1.792 6.048-6.112l3.136-16.128c.224-1.12-.448-2.016-1.6-2.24-2.016-.416-3.744.448-5.792 1.568l-.288 1.408c.928-.576 1.92-.96 2.304-.864.224.032.384.32.288.736l-.128.672-2.944 14.848c-.448 2.336-.992 4.352-2.336 4.352-.992 0-1.152-1.92-1.152-3.392h-1.344c0 3.168.416 5.152 3.808 5.152Zm5.664-28.128c0 .992.704 1.728 1.728 1.728 1.312 0 2.56-1.184 2.56-2.496 0-.96-.736-1.728-1.76-1.728-1.28 0-2.528 1.184-2.528 2.496ZM234.336 30.48c2.56 0 4.8-1.472 6.368-3.232.16 1.696 1.408 3.232 3.84 3.232 2.24 0 3.232-1.184 4.16-2.272l.192-1.088c-.736.768-1.568 1.6-2.496 1.6-.576 0-.864-.32-.864-1.024 0-.928 2.208-11.712 2.688-14.176l-5.248.992-.48 2.272c-.832-1.824-2.4-3.264-4.864-3.264-5.408 0-8.48 5.984-8.48 10.88 0 3.136 1.312 6.08 5.184 6.08Zm.064-5.76c0-2.88 1.472-9.44 5.216-9.44 1.568 0 2.24 1.856 2.464 3.616-.448 2.368-.992 5.088-1.248 6.656-.896 1.632-2.368 3.168-3.776 3.168-1.856 0-2.656-1.696-2.656-4Z"/></g></svg>