<?xml version="1.0" encoding="UTF-8"?>
<svg width="320px" height="40px" viewBox="0 0 320 40" version="1.1" xmlns="http://www.w3.org/2000/svg" xmlns:xlink="http://www.w3.org/1999/xlink">
    <title>apium-latin-light</title>
    <g id="_exports" stroke="none" stroke-width="1" fill="none" fill-rule="evenodd">
        <g id="Apium" transform="translate(0, -686)">
            <g id="apium-latin-light" transform="translate(0, 686)">
                <rect id="Rectangle" fill="#F7DF88" opacity="0" x="0" y="0" width="320" height="40"></rect>
                <g transform="translate(5.24, 6.96)" fill="#424345" fill-rule="nonzero">
                    <path d="M15.456,26.72 C16.288,26.72 17.888,26.304 17.888,25.28 C17.888,24.256 16.96,23.84 16.128,23.84 C14.56,23.84 14.112,24.96 12.544,24.96 C11.552,24.96 10.496,24.064 9.792,23.2 C16.096,23.136 19.36,17.728 19.36,12.16 C19.36,6.624 16.064,1.12 9.696,1.12 C3.36,1.12 0,6.624 0,12.16 C0,17.344 2.88,22.4 8.352,23.104 C8.864,23.776 9.248,24.128 9.92,24.736 C11.424,26.048 12.928,26.72 15.456,26.72 Z M2.4,12.16 C2.4,7.968 4.096,1.92 9.696,1.92 C15.328,1.92 16.96,7.968 16.96,12.16 C16.96,16.384 15.328,22.4 9.696,22.4 C4.096,22.4 2.4,16.384 2.4,12.16 Z" id="Shape"></path>
                    <path d="M29.696,23.2 C31.36,23.2 33.12,21.92 34.368,20.64 L34.368,23.04 L38.848,23.04 L38.848,22.08 L36.608,22.08 L36.608,7.04 L32.128,7.04 L32.128,8 L34.368,8 L34.368,18.912 C33.6,20.768 31.552,22.4 29.888,22.4 C26.688,22.4 26.24,18.752 26.24,16.32 L26.24,7.04 L21.76,7.04 L21.76,8 L24,8 L24,16.32 C24,21.088 26.688,23.2 29.696,23.2 Z" id="Path"></path>
                    <path d="M47.776,23.2 C50.208,23.2 52.352,22.176 53.664,20.448 C54.08,22.368 55.232,23.2 57.152,23.2 C59.904,23.2 60.352,20.192 60.352,18.4 L58.912,18.4 C58.912,20.416 58.368,22.4 57.184,22.4 C56.032,22.4 55.712,20.736 55.712,19.04 L55.712,7.04 L53.472,7.04 L53.472,9.44 C52.16,7.84 50.112,6.88 47.776,6.88 C43.072,6.88 41.408,11.36 41.408,15.04 C41.408,18.72 43.072,23.2 47.776,23.2 Z M43.808,15.04 C43.808,12.128 44.864,7.68 48.832,7.68 C51.52,7.68 53.056,9.984 53.472,12.352 L53.472,17.728 C53.056,20.096 51.52,22.4 48.832,22.4 C44.864,22.4 43.808,17.952 43.808,15.04 Z" id="Shape"></path>
                    <path d="M61.472,23.04 L68.192,23.04 L68.192,22.08 L65.952,22.08 L65.952,12.384 C66.816,10.176 68.864,7.68 71.04,7.68 C72.032,7.68 73.216,7.872 73.792,8.8 C72.672,8.832 71.52,10.048 71.52,11.136 C71.52,11.84 72,12.32 72.704,12.32 C73.824,12.32 75.04,11.232 75.04,10.048 C75.04,7.968 73.344,6.88 71.456,6.88 C68.928,6.88 66.88,8.512 65.952,9.536 L65.952,7.04 L61.472,7.04 L61.472,8 L63.712,8 L63.712,22.08 L61.472,22.08 L61.472,23.04 Z" id="Path"></path>
                    <path d="M76,23.04 L82.72,23.04 L82.72,22.08 L80.48,22.08 L80.48,12.384 C81.344,10.176 83.392,7.68 85.568,7.68 C86.56,7.68 87.744,7.872 88.32,8.8 C87.2,8.832 86.048,10.048 86.048,11.136 C86.048,11.84 86.528,12.32 87.232,12.32 C88.352,12.32 89.568,11.232 89.568,10.048 C89.568,7.968 87.872,6.88 85.984,6.88 C83.456,6.88 81.408,8.512 80.48,9.536 L80.48,7.04 L76,7.04 L76,8 L78.24,8 L78.24,22.08 L76,22.08 L76,23.04 Z" id="Path"></path>
                    <path d="M98.848,23.2 C101.408,23.2 104.128,21.44 105.216,18.4 L102.816,18.4 C102.528,20.384 101.152,22.4 98.848,22.4 C95.296,22.4 93.568,18.08 93.568,15.04 L105.76,15.04 C105.76,10.176 102.56,6.88 98.848,6.88 C94.368,6.88 91.168,10.144 91.168,15.04 C91.168,19.936 94.368,23.2 98.848,23.2 Z M93.664,13.76 C94.08,10.912 95.776,7.68 98.848,7.68 C101.952,7.68 103.072,10.912 103.296,13.76 L93.664,13.76 Z" id="Shape"></path>
                    <path d="M113.6,23.2 C116.096,23.2 116.64,20.192 116.64,18.4 L115.2,18.4 C115.2,20.416 114.752,22.4 113.504,22.4 C112.192,22.4 112,20.736 112,19.04 L112,0 L107.52,0 L107.52,0.96 L109.76,0.96 L109.76,18.4 C109.76,21.408 111.04,23.2 113.6,23.2 Z" id="Path"></path>
                    <path d="M124.672,23.2 C127.104,23.2 130.944,22.592 130.944,18.976 C130.944,13.952 120.64,15.424 120.64,10.88 C120.64,8.736 122.816,7.68 124.384,7.68 C126.496,7.68 128.48,9.472 128.48,11.84 L129.92,11.84 L129.92,7.04 L128.64,7.04 C128.64,7.616 128.64,8.16 128.608,8.608 C127.36,7.392 125.408,6.88 123.68,6.88 C121.024,6.88 118.24,8.352 118.24,11.488 C118.24,16.544 128.544,15.36 128.544,19.584 C128.544,21.44 126.688,22.4 125.344,22.4 C123.232,22.4 119.68,21.632 119.68,18.4 L118.24,18.4 L118.24,23.04 L119.52,23.04 C119.52,22.496 119.52,22.016 119.552,21.6 C120.864,22.784 122.88,23.2 124.672,23.2 Z" id="Path"></path>
                    <path d="M141.76,23.2 C146.464,23.2 149.536,19.52 149.536,15.04 C149.536,10.56 146.464,6.88 141.76,6.88 C137.056,6.88 133.984,10.56 133.984,15.04 C133.984,19.52 137.056,23.2 141.76,23.2 Z M136.384,15.04 C136.384,11.936 137.504,7.68 141.76,7.68 C146.016,7.68 147.136,11.936 147.136,15.04 C147.136,18.144 146.016,22.4 141.76,22.4 C137.504,22.4 136.384,18.144 136.384,15.04 Z" id="Shape"></path>
                    <path d="M172.832,23.04 L179.552,23.04 L179.552,22.08 L177.312,22.08 L177.312,13.76 C177.312,8.992 174.624,6.88 171.616,6.88 C169.632,6.88 167.52,8.704 166.272,10.176 C165.312,7.904 163.36,6.88 161.248,6.88 C159.584,6.88 157.824,8.16 156.576,9.44 L156.576,7.04 L152.096,7.04 L152.096,8 L154.336,8 L154.336,22.08 L152.096,22.08 L152.096,23.04 L158.816,23.04 L158.816,22.08 L156.576,22.08 L156.576,11.168 C157.344,9.312 159.392,7.68 161.056,7.68 C164.256,7.68 164.704,11.328 164.704,13.76 L164.704,22.08 L162.464,22.08 L162.464,23.04 L169.184,23.04 L169.184,22.08 L166.944,22.08 L166.944,13.76 C166.944,13.024 166.88,12.32 166.752,11.712 C167.328,9.664 169.6,7.68 171.424,7.68 C174.624,7.68 175.072,11.328 175.072,13.76 L175.072,22.08 L172.832,22.08 L172.832,23.04 Z" id="Path"></path>
                    <path d="M189.632,23.2 C192.192,23.2 194.912,21.44 196,18.4 L193.6,18.4 C193.312,20.384 191.936,22.4 189.632,22.4 C186.08,22.4 184.352,18.08 184.352,15.04 L196.544,15.04 C196.544,10.176 193.344,6.88 189.632,6.88 C185.152,6.88 181.952,10.144 181.952,15.04 C181.952,19.936 185.152,23.2 189.632,23.2 Z M184.448,13.76 C184.864,10.912 186.56,7.68 189.632,7.68 C192.736,7.68 193.856,10.912 194.08,13.76 L184.448,13.76 Z" id="Shape"></path>
                    <path d="M209.472,23.04 L216.192,23.04 L216.192,22.08 L213.952,22.08 L213.952,13.76 C213.952,8.992 211.264,6.88 208.256,6.88 C206.592,6.88 204.832,8.16 203.584,9.44 L203.584,7.04 L199.104,7.04 L199.104,8 L201.344,8 L201.344,22.08 L199.104,22.08 L199.104,23.04 L205.824,23.04 L205.824,22.08 L203.584,22.08 L203.584,11.168 C204.352,9.312 206.4,7.68 208.064,7.68 C211.264,7.68 211.712,11.328 211.712,13.76 L211.712,22.08 L209.472,22.08 L209.472,23.04 Z" id="Path"></path>
                    <path d="M226.272,23.2 C228.832,23.2 231.552,21.44 232.64,18.4 L230.24,18.4 C229.952,20.384 228.576,22.4 226.272,22.4 C222.72,22.4 220.992,18.08 220.992,15.04 L233.184,15.04 C233.184,10.176 229.984,6.88 226.272,6.88 C221.792,6.88 218.592,10.144 218.592,15.04 C218.592,19.936 221.792,23.2 226.272,23.2 Z M221.088,13.76 C221.504,10.912 223.2,7.68 226.272,7.68 C229.376,7.68 230.496,10.912 230.72,13.76 L221.088,13.76 Z" id="Shape"></path>
                    <path d="M242.656,23.2 C245.088,23.2 248.928,22.592 248.928,18.976 C248.928,13.952 238.624,15.424 238.624,10.88 C238.624,8.736 240.8,7.68 242.368,7.68 C244.48,7.68 246.464,9.472 246.464,11.84 L247.904,11.84 L247.904,7.04 L246.624,7.04 C246.624,7.616 246.624,8.16 246.592,8.608 C245.344,7.392 243.392,6.88 241.664,6.88 C239.008,6.88 236.224,8.352 236.224,11.488 C236.224,16.544 246.528,15.36 246.528,19.584 C246.528,21.44 244.672,22.4 243.328,22.4 C241.216,22.4 237.664,21.632 237.664,18.4 L236.224,18.4 L236.224,23.04 L237.504,23.04 C237.504,22.496 237.504,22.016 237.536,21.6 C238.848,22.784 240.864,23.2 242.656,23.2 Z" id="Path"></path>
                    <path d="M258.24,23.2 C260.672,23.2 264.512,22.592 264.512,18.976 C264.512,13.952 254.208,15.424 254.208,10.88 C254.208,8.736 256.384,7.68 257.952,7.68 C260.064,7.68 262.048,9.472 262.048,11.84 L263.488,11.84 L263.488,7.04 L262.208,7.04 C262.208,7.616 262.208,8.16 262.176,8.608 C260.928,7.392 258.976,6.88 257.248,6.88 C254.592,6.88 251.808,8.352 251.808,11.488 C251.808,16.544 262.112,15.36 262.112,19.584 C262.112,21.44 260.256,22.4 258.912,22.4 C256.8,22.4 253.248,21.632 253.248,18.4 L251.808,18.4 L251.808,23.04 L253.088,23.04 C253.088,22.496 253.088,22.016 253.12,21.6 C254.432,22.784 256.448,23.2 258.24,23.2 Z" id="Path"></path>
                </g>
            </g>
        </g>
    </g>
</svg>