<svg xmlns="http://www.w3.org/2000/svg" width="320" height="40"><g fill="#424345" fill-rule="nonzero"><path d="M13.44 30.224c4.736 0 7.84-3.712 7.84-8.224 0-4.384-2.944-8.128-7.552-8.128-1.92 0-5.216 1.056-6.176 4.096a12.013 12.013 0 0 1-.256-2.496c0-1.728.448-3.04 1.056-3.872 1.28-1.792 3.744-1.984 7.968-1.984 3.136 0 3.776-3.232 3.776-5.216h-1.152c0 .992-.608 2.304-1.984 2.304-5.92 0-7.648 1.664-8.896 3.136-1.824 2.304-2.528 6.368-2.528 11.264 0 5.184 2.528 9.12 7.904 9.12Zm-4.832-8c0-2.688.736-7.328 4.832-7.328 3.84 0 4.704 4.064 4.704 7.104 0 3.136-.864 7.2-4.704 7.2-3.424 0-4.832-4.128-4.832-6.976ZM39.008 30.224c3.136 0 3.744-2.88 3.744-4.864h-1.408c0 1.024-.32 3.84-1.696 3.84-1.152 0-1.6-1.76-1.6-3.648v-6.176c0-3.84-3.136-5.632-6.528-5.632-3.104 0-6.496 1.472-6.496 4.896h1.408c0-2.304 2.176-3.936 4.128-3.936 3.04 0 4.576 1.696 4.576 4.608v1.696c-1.184-1.184-2.944-1.824-4.8-1.824-3.072 0-5.984 1.856-5.984 5.408 0 3.52 2.912 5.632 5.984 5.632 2.08 0 4.096-.928 5.248-2.368.544 1.568 1.696 2.368 3.424 2.368Zm-11.52-5.632c0-2.432 1.984-4.352 4.224-4.352 1.6 0 2.848 1.152 3.424 2.592v1.856c0 .576.032 1.12.096 1.632-.512 1.472-1.824 2.88-3.52 2.88-2.24 0-4.224-2.176-4.224-4.608ZM44.416 30h7.264v-1.056l-2.176-.064V15.024h6.72l.064 2.112h1.056V14H44.416v1.056l2.144.064v13.76l-2.144.064zM73.536 30.224c3.136 0 3.744-2.88 3.744-4.864h-1.408c0 1.024-.32 3.84-1.696 3.84-1.152 0-1.6-1.76-1.6-3.648v-6.176c0-3.84-3.136-5.632-6.528-5.632-3.104 0-6.496 1.472-6.496 4.896h1.408c0-2.304 2.176-3.936 4.128-3.936 3.04 0 4.576 1.696 4.576 4.608v1.696c-1.184-1.184-2.944-1.824-4.8-1.824-3.072 0-5.984 1.856-5.984 5.408 0 3.52 2.912 5.632 5.984 5.632 2.08 0 4.096-.928 5.248-2.368.544 1.568 1.696 2.368 3.424 2.368Zm-11.52-5.632c0-2.432 1.984-4.352 4.224-4.352 1.6 0 2.848 1.152 3.424 2.592v1.856c0 .576.032 1.12.096 1.632-.512 1.472-1.824 2.88-3.52 2.88-2.24 0-4.224-2.176-4.224-4.608ZM89.92 30h5.344v-1.056l-2.848-.064-4.704-7.872 4.192-5.888 2.912-.064V14h-5.28v1.056l1.344.064-3.616 5.12L83.552 14H78.24v1.056l2.784.064 4.512 7.552-4.416 6.208-2.944.064V30h5.344v-1.056l-1.408-.064 3.872-5.44zM100.576 37.904c1.664 0 2.56-1.504 3.008-2.688l7.552-20.096 2.528-.064V14h-5.28v1.056l1.728.064-3.936 10.496L100.896 14h-5.312v1.056l2.656.064 6.656 13.888-2.144 5.76c-.288.768-.928 2.336-1.984 2.336-.608 0-1.056-.416-1.344-.928 1.216-.032 2.528-1.216 2.528-2.496 0-.672-.544-1.344-1.344-1.344-1.216 0-2.496 1.344-2.496 2.528 0 1.504 1.12 3.04 2.464 3.04ZM124.256 30h7.264v-1.056l-2.208-.064V15.12l2.144-.064V14h-13.792v1.056l2.752.064c0 7.488-.416 14.272-3.424 14.272-.48 0-.8-.16-1.024-.448 1.184-.096 2.432-1.248 2.432-2.496 0-.64-.544-1.344-1.344-1.344-1.216 0-2.496 1.344-2.496 2.56 0 1.472.992 2.56 2.304 2.56 4 0 4.576-6.816 4.576-15.2h4.96V28.88l-2.144.064V30ZM133.376 30h8.64c2.56 0 5.76-1.76 5.76-4.928 0-3.2-3.2-4.992-5.824-4.992h-3.488v-4.96l2.112-.064V14h-7.2v1.056l2.144.064v13.76l-2.144.064V30Zm5.088-.896v-8.16h1.376c2.08 0 4.864 1.12 4.864 4.064 0 2.048-1.376 3.968-3.296 4.064-.8.032-1.952.032-2.944.032ZM158.624 30.224c3.776 0 6.208-2.176 6.784-4.864h-2.816c-.224 1.6-1.344 4.064-3.968 4.064-3.584 0-4.64-3.744-4.64-7.424 0-2.88 1.472-7.36 5.248-7.36 2.016 0 3.904.992 4.704 2.336-1.184.128-2.368 1.408-2.368 2.528 0 .768.512 1.312 1.28 1.312 1.216 0 2.56-1.216 2.56-2.496 0-2.24-3.04-4.576-6.72-4.576-4.768 0-7.84 4.032-7.84 8.256 0 4.832 3.008 8.224 7.776 8.224ZM170.304 30h7.264v-1.056l-2.208-.064V15.024h4.32l.064 2.112h1.056V14h-13.888v3.136h1.056l.064-2.112h4.416V28.88l-2.144.064zM181.888 30h9.44c2.56 0 5.728-1.28 5.728-4.448 0-2.752-2.336-4.128-4.672-4.448 1.344-.544 2.432-1.664 2.432-3.296 0-2.272-1.824-4.032-4.16-4.032-1.664 0-2.944 1.184-3.68 2.176V14h-5.088v1.056l2.144.064v13.76l-2.144.064V30Zm5.088-.896V21.84h2.176c2.08 0 4.864.672 4.864 3.648 0 2.048-1.376 3.488-3.296 3.584-1.184.032-2.56.032-3.744.032Zm0-8.224v-3.584c.576-1.152 1.536-2.496 2.688-2.496 1.696 0 2.336 1.568 2.336 3.04 0 2.784-2.752 3.04-4.512 3.04h-.512ZM214.656 30.224c3.136 0 3.744-2.88 3.744-4.864h-1.408c0 1.024-.32 3.84-1.696 3.84-1.152 0-1.6-1.76-1.6-3.648v-6.176c0-3.84-3.136-5.632-6.528-5.632-3.104 0-6.496 1.472-6.496 4.896h1.408c0-2.304 2.176-3.936 4.128-3.936 3.04 0 4.576 1.696 4.576 4.608v1.696c-1.184-1.184-2.944-1.824-4.8-1.824-3.072 0-5.984 1.856-5.984 5.408 0 3.52 2.912 5.632 5.984 5.632 2.08 0 4.096-.928 5.248-2.368.544 1.568 1.696 2.368 3.424 2.368Zm-11.52-5.632c0-2.432 1.984-4.352 4.224-4.352 1.6 0 2.848 1.152 3.424 2.592v1.856c0 .576.032 1.12.096 1.632-.512 1.472-1.824 2.88-3.52 2.88-2.24 0-4.224-2.176-4.224-4.608Z"/></g></svg>