<svg xmlns="http://www.w3.org/2000/svg" width="320" height="40"><g fill="#424345" fill-rule="nonzero"><path d="M13.648 30.64c4.256 0 7.296-2.56 7.296-7.36V10.16l1.6-.32v-1.6h-4.48v1.6l1.6.32V22c0 2.592-.352 7.232-4.512 7.232-3.424 0-4.512-3.36-4.512-5.952V8.24h-8v1.6l1.6.32V22c0 5.44 3.776 8.64 9.408 8.64ZM34.672 30h9.6v-1.6l-1.92-.32V22c0-6.208-1.664-8.64-5.6-8.64-2.016 0-3.648 1.376-4.768 2.912V14h-8v1.6l1.6.32v12.16l-1.6.32V30h9.536v-1.6l-1.536-.32V18.064c.512-1.344 1.28-2.464 2.208-2.464 1.76 0 1.76 2.688 1.76 5.12v7.36l-1.28.32V30ZM53.616 30.64c2.848 0 7.168-.8 7.168-4.928 0-4.448-8.672-4.224-8.672-9.28 0-1.248.928-2.112 2.144-2.112 2.592 0 3.008 2.752 3.008 4.48h2.56V14h-.96c0 .608-.032 1.184-.096 1.632-1.28-1.568-3.488-2.272-5.568-2.272-3.104 0-7.488 1.056-7.488 5.376 0 4.672 8.672 5.216 8.672 9.216 0 1.312-1.312 1.728-2.304 1.728-2.592 0-3.808-2.144-3.808-4.32h-2.56V30h.96c0-.576.032-1.12.096-1.568 1.568 1.824 4.608 2.208 6.848 2.208ZM73.104 30.64c3.648 0 6.464-1.536 7.456-5.28h-4.864c0 2.496-.832 4.32-2.592 4.32-1.76 0-3.2-1.856-3.2-7.68 0-4.608 1.952-7.296 4.96-7.296 1.024 0 2.336.352 3.136 1.184-1.536.384-2.912 1.952-2.912 3.488 0 1.088.736 1.856 1.824 1.856 1.728 0 3.616-1.792 3.616-3.552 0-2.752-4.224-4.32-7.424-4.32-4.992 0-9.92 2.912-9.92 8.64 0 5.696 4.928 8.64 9.92 8.64ZM82.96 30h9.92v-1.6l-1.92-.32v-9.152c1.216-2.304 3.136-4.608 4.704-4.608.512 0 .896.16 1.216.416-1.728.16-3.392 1.888-3.392 3.584 0 1.088.736 1.856 1.824 1.856 1.728 0 3.616-1.792 3.616-3.552 0-1.6-1.44-3.264-3.328-3.264-2.304 0-3.84 1.216-4.64 2.176V14h-8v1.6l1.6.32v12.16l-1.6.32V30ZM106.608 30.64c2.016 0 3.648-1.376 4.768-2.912V30h8.32v-1.6l-1.92-.32V14h-8v1.6l1.6.32v10.016c-.512 1.344-1.28 2.464-2.208 2.464-1.76 0-1.76-2.688-1.76-5.12V14h-8v1.6l1.6.32V22c0 6.208 1.664 8.64 5.6 8.64ZM134.896 30.64c4.96 0 6.688-4.768 6.688-8.64 0-3.872-1.728-8.64-6.688-8.64-2.528 0-4.384 1.376-5.6 2.976V14h-8v1.6l1.6.32v19.84l-1.6.32v1.6h9.92v-1.6l-1.92-.32v-8.096c1.216 1.6 3.072 2.976 5.6 2.976Zm-5.6-4.608v-8c.608-1.312 1.568-2.432 2.592-2.432 1.76 0 2.976 2.112 2.976 6.4 0 4.256-1.216 6.4-2.976 6.4-1.024 0-1.984-1.088-2.592-2.368ZM150.544 30.64c2.016 0 3.648-1.376 4.768-2.912V30h8.32v-1.6l-1.92-.32V14h-8v1.6l1.6.32v10.016c-.512 1.344-1.28 2.464-2.208 2.464-1.76 0-1.76-2.688-1.76-5.12V14h-8v1.6l1.6.32V22c0 6.208 1.664 8.64 5.6 8.64ZM171.728 30.64c4.416 0 5.696-2.304 5.696-5.28h-1.28c0 1.344-.736 3.04-1.856 3.04-1.376 0-1.856-1.792-1.856-4.8V6.96h-8v1.6l1.6.32V23.6c0 5.536 3.008 7.04 5.696 7.04ZM188.624 30.64c4.992 0 9.92-2.944 9.92-8.64 0-5.728-4.928-8.64-9.92-8.64s-9.92 2.912-9.92 8.64c0 5.728 4.928 8.64 9.92 8.64Zm-3.2-8.64c0-5.824 1.408-7.68 3.2-7.68 1.792 0 3.2 1.856 3.2 7.68s-1.408 7.68-3.2 7.68c-1.792 0-3.2-1.856-3.2-7.68ZM207.504 30.64c2.016 0 3.648-1.376 4.768-2.912V30h8.32v-1.6l-1.92-.32V14h-8v1.6l1.6.32v10.016c-.512 1.344-1.28 2.464-2.208 2.464-1.76 0-1.76-2.688-1.76-5.12V14h-8v1.6l1.6.32V22c0 6.208 1.664 8.64 5.6 8.64ZM230.416 30.64c2.848 0 7.168-.8 7.168-4.928 0-4.448-8.672-4.224-8.672-9.28 0-1.248.928-2.112 2.144-2.112 2.592 0 3.008 2.752 3.008 4.48h2.56V14h-.96c0 .608-.032 1.184-.096 1.632-1.28-1.568-3.488-2.272-5.568-2.272-3.104 0-7.488 1.056-7.488 5.376 0 4.672 8.672 5.216 8.672 9.216 0 1.312-1.312 1.728-2.304 1.728-2.592 0-3.808-2.144-3.808-4.32h-2.56V30h.96c0-.576.032-1.12.096-1.568 1.568 1.824 4.608 2.208 6.848 2.208ZM246 30.64c4.416 0 5.696-2.304 5.696-5.28h-1.28c0 1.344-.736 3.04-1.856 3.04-1.376 0-1.856-1.792-1.856-4.8V6.96h-8v1.6l1.6.32V23.6c0 5.536 3.008 7.04 5.696 7.04ZM256.464 38.32c2.56 0 3.936-2.912 4.384-4.128l6.848-18.272L270 15.6V14h-4.48v1.6l.896.32-2.272 6.112L260.496 14h-8.64v1.6l2.528.32 6.72 14.144-1.536 4.128c-.512 1.344-1.312 3.168-3.104 3.168a2.48 2.48 0 0 1-1.44-.448c1.664-.224 3.264-1.92 3.264-3.552 0-1.088-.736-1.856-1.824-1.856-1.728 0-3.616 1.792-3.616 3.552 0 2.08 1.728 3.264 3.616 3.264Z"/></g></svg>