<svg xmlns="http://www.w3.org/2000/svg" width="320" height="40"><g fill="#424345" fill-rule="nonzero"><path d="M10.584 30.32c6.56 0 9.824-6.08 9.824-12.832 0-4.8-2.144-10.848-7.84-10.848-1.056 0-2.272.224-3.616.768-.704.352-1.6 1.152-1.6 2.016 0 .832.608 1.472 1.504 1.472 1.12 0 2.208-.992 2.208-2.144 0-.384-.128-.704-.32-.96a6.057 6.057 0 0 1 1.632-.224c3.872 0 4.992 3.456 4.992 6.944 0 .576-.032 1.184-.096 1.76-1.472-2.208-3.776-2.592-4.992-2.592-5.216 0-8.224 5.824-8.224 9.952 0 4.256 2.688 6.688 6.528 6.688Zm-2.816-5.6c0-3.232 1.856-9.76 5.92-9.76 2.176 0 2.912 2.72 2.912 5.056 0 3.456-1.984 9.44-5.536 9.44-2.592 0-3.296-2.528-3.296-4.736ZM28.888 30.32c2.528 0 6.304-1.408 7.904-4.64h-3.424c-1.056 2.016-2.656 3.776-4.384 3.776-1.792 0-2.848-1.76-2.976-3.904 4.864-.192 11.616-1.952 11.616-6.592 0-2.752-1.888-5.28-5.472-5.28-5.856 0-10.048 4.8-10.048 10.176 0 3.968 2.752 6.464 6.784 6.464Zm-2.88-5.664c.192-3.712 2.08-10.112 5.824-10.112 1.728 0 2.464 1.664 2.464 3.2 0 3.968-3.424 6.592-8.288 6.912ZM28.504 11.376l.384 1.024c.96-.032 5.504-2.08 7.04-3.52L33.56 7.6c-.704.992-3.648 3.264-5.056 3.776ZM47.224 30.32c3.424 0 7.488-2.304 7.488-5.376 0-1.472-.96-2.592-2.176-3.136 1.536-.992 2.496-2.4 2.496-4.256 0-2.464-2.432-3.872-4.992-3.872-5.856 0-10.048 4.8-10.048 10.176 0 3.968 3.104 6.464 7.232 6.464Zm-3.36-6.368c2.496-.064 4.96-.448 6.912-1.248.608.576.992 1.504.992 2.56 0 2.336-1.856 4.192-3.872 4.192-3.04 0-3.904-3.232-4.032-5.504Zm.032-.864c.192-3.648 2.08-8.544 5.824-8.544 1.728 0 2.464 1.248 2.464 2.784 0 3.328-3.424 5.504-8.288 5.76ZM64.28 30.32c3.584 0 6.592-2.048 7.744-4.96h-3.232c-.544 1.792-2.016 4.096-4.32 4.096-2.56 0-3.168-2.24-3.168-4.896 0-4.064 1.984-9.888 6.656-9.888 2.016 0 3.488.832 4.032 2.24-1.376.192-3.008 1.76-3.008 3.04 0 .672.448 1.088 1.152 1.088 1.376 0 3.296-1.408 3.296-2.816v-.032c0-2.976-2.752-4.512-5.888-4.512-5.792 0-9.984 4.64-9.984 10.08 0 4 2.496 6.56 6.72 6.56ZM97.688 30.32c1.568 0 2.464-.928 3.456-1.92l.192-.96c-.8.8-1.6 1.6-2.4 1.6-.48 0-.8-.32-.8-1.248 0-1.824 2.048-9.024 2.048-10.624 0-2.336-1.568-3.488-3.968-3.488-1.792 0-3.904 1.28-5.408 2.72-.32-1.824-1.824-2.72-3.936-2.72-1.728 0-3.712 1.152-5.184 2.528l.064-.32c.224-1.152-.192-1.92-1.12-2.112-1.376-.256-2.656.288-4.768 1.376l-.192 1.024c.608-.416 1.696-.928 2.112-.832.32.064.384.48.32.896l-.128.48L75.352 30h3.616l2.496-12.672c1.152-1.28 2.656-2.368 3.968-2.368 1.472 0 1.792.704 1.792 2.208 0 2.432-1.952 9.792-2.496 12.832h3.616c.416-2.336 2.464-10.944 2.528-12.736 1.152-1.248 2.624-2.304 3.872-2.304 1.472 0 1.824.704 1.824 2.208 0 2.432-1.984 7.36-1.984 10.176 0 1.536.736 2.976 3.104 2.976ZM110.808 30.32c3.424 0 7.488-2.304 7.488-5.376 0-1.472-.96-2.592-2.176-3.136 1.536-.992 2.496-2.4 2.496-4.256 0-2.464-2.432-3.872-4.992-3.872-5.856 0-10.048 4.8-10.048 10.176 0 3.968 3.104 6.464 7.232 6.464Zm-3.36-6.368c2.496-.064 4.96-.448 6.912-1.248.608.576.992 1.504.992 2.56 0 2.336-1.856 4.192-3.872 4.192-3.04 0-3.904-3.232-4.032-5.504Zm.032-.864c.192-3.648 2.08-8.544 5.824-8.544 1.728 0 2.464 1.248 2.464 2.784 0 3.328-3.424 5.504-8.288 5.76ZM127.928 30.32c2.528 0 6.304-1.408 7.904-4.64h-3.424c-1.056 2.016-2.656 3.776-4.384 3.776-1.792 0-2.848-1.76-2.976-3.904 4.864-.192 11.616-1.952 11.616-6.592 0-2.752-1.888-5.28-5.472-5.28-5.856 0-10.048 4.8-10.048 10.176 0 3.968 2.752 6.464 6.784 6.464Zm-2.88-5.664c.192-3.712 2.08-10.112 5.824-10.112 1.728 0 2.464 1.664 2.464 3.2 0 3.968-3.424 6.592-8.288 6.912ZM156.248 13.68l-3.776.704-1.344 6.88H144.6l1.056-5.376c.224-1.152-.192-1.92-1.12-2.112-1.376-.256-2.656.288-4.768 1.376l-.192 1.024c.608-.416 1.696-.928 2.112-.832.32.064.384.48.32.896l-.128.48L139.256 30h3.616l1.504-7.648h6.528l-1.12 5.76c-.224 1.152.192 1.92 1.12 2.112 1.376.256 2.688-.288 4.8-1.376l.192-1.024c-.64.416-1.728.928-2.144.832-.32-.064-.384-.48-.32-.896l.128-.512 2.688-13.568ZM163.288 30.32c1.984 0 3.968-1.408 5.376-2.944.096 1.44.832 2.944 3.072 2.944 1.568 0 2.496-.928 3.424-1.92l.192-.96c-.8.832-1.6 1.6-2.368 1.6-.48 0-.832-.32-.832-1.248 0-1.152 2.208-12 2.656-14.112l-3.776.704c-.352 1.472-1.92 9.248-2.304 11.968-1.12 1.408-2.656 2.688-4.128 2.688-1.312 0-1.824-1.024-1.824-2.304 0-1.088 1.28-6.88 2.112-10.848.224-1.12-.192-1.92-1.088-2.112-1.376-.32-2.688.192-4.832 1.248l-.224 1.024c.64-.384 1.728-.896 2.176-.8.32.064.352.48.288.928l-.128.48c-.96 4.192-1.92 8.96-1.92 10.08 0 2.176 1.376 3.584 4.128 3.584ZM182.712 30.32c1.984 0 3.968-1.408 5.376-2.944.096 1.44.832 2.944 3.072 2.944 1.056 0 1.792-.416 2.464-.992.672-.544 1.248-1.088 1.696-1.728a6.667 6.667 0 0 0-.48 1.408c-.256 1.44.352 2.208.16 3.36-.192.96-.672 1.536-1.472 1.984l.352.576c1.44-.416 2.816-2.176 3.072-3.68.352-1.856-.608-3.264-.352-4.64.064-.384.256-.992.48-1.28l-.864-.416c-.288.96-.832 1.92-1.44 2.528-.8.832-1.6 1.6-2.368 1.6-.48 0-.832-.32-.832-1.248 0-1.152 2.208-12 2.656-14.112l-3.776.704c-.352 1.472-1.92 9.248-2.304 11.968-1.12 1.408-2.656 2.688-4.128 2.688-1.312 0-1.824-1.024-1.824-2.304 0-1.088 1.28-6.88 2.112-10.848.224-1.12-.192-1.92-1.088-2.112-1.376-.32-2.688.192-4.832 1.248l-.224 1.024c.64-.384 1.728-.896 2.176-.8.32.064.352.48.288.928l-.128.48c-.96 4.192-1.92 8.96-1.92 10.08 0 2.176 1.376 3.584 4.128 3.584ZM205.24 30.32c2.336 0 4.544-1.248 6.112-3.008.064 1.44.8 3.008 3.072 3.008 1.568 0 2.496-.928 3.424-1.92l.192-.96c-.8.832-1.6 1.6-2.368 1.6-.48 0-.832-.32-.832-1.248 0-1.152 2.208-12 2.624-14.112l-3.776.704c-.096.416-.288 1.28-.512 2.4-.832-1.792-2.368-3.104-4.704-3.104-5.28 0-8.32 5.792-8.32 10.688 0 3.04 1.28 5.952 5.088 5.952Zm-1.28-5.856c0-3.072 1.664-9.504 5.92-9.504 2.016 0 2.624 2.336 2.784 4.352-.384 2.048-.8 4.256-1.056 5.824-.896 1.984-2.56 3.904-4.352 3.904-2.432 0-3.296-2.24-3.296-4.576Z"/></g></svg>