<svg xmlns="http://www.w3.org/2000/svg" width="320" height="40"><g fill="#424345" fill-rule="nonzero"><path d="M13.528 30.32c7.36 0 12.576-6.976 12.576-13.824 0-4.736-2.752-8.576-8.224-8.576-7.456 0-12.672 7.104-12.672 13.76 0 4.8 2.816 8.64 8.32 8.64Zm-4.64-7.328c0-4.8 2.72-14.208 8.768-14.208 3.552 0 4.8 2.944 4.8 6.336 0 4.512-2.4 14.336-8.704 14.336-3.584 0-4.864-2.976-4.864-6.464ZM33.496 30h1.056l9.632-16h-3.328l-.256 1.184 1.728.096-6.176 10.272-2.048-10.464c-.288-1.088-1.152-1.536-2.048-1.376-.992.192-2.336 1.216-3.552 3.04l.192.992c.256-.448 1.184-1.568 1.6-1.632.352-.064.544.192.672.8l.096.512L33.496 30ZM50.776 30.32c2.528 0 6.304-1.408 7.904-4.64h-3.424c-1.056 2.016-2.656 3.776-4.384 3.776-1.792 0-2.848-1.76-2.976-3.904 4.864-.192 11.616-1.952 11.616-6.592 0-2.752-1.888-5.28-5.472-5.28-5.856 0-10.048 4.8-10.048 10.176 0 3.968 2.752 6.464 6.784 6.464Zm-2.88-5.664c.192-3.712 2.08-10.112 5.824-10.112 1.728 0 2.464 1.664 2.464 3.2 0 3.968-3.424 6.592-8.288 6.912ZM66.072 27.312c.928-4.864 3.36-12.768 7.136-12.768.64 0 1.216.352 1.6.896-1.376.256-2.944 1.824-2.944 3.072 0 .64.416 1.056 1.152 1.056 1.312 0 3.264-1.312 3.264-2.688 0-1.696-1.28-3.2-2.816-3.2-2.176 0-4.384 2.752-5.856 5.76l.704-3.552c.224-1.152-.192-1.92-1.12-2.112-1.376-.256-2.656.288-4.768 1.376l-.192 1.024c.608-.416 1.696-.928 2.112-.832.32.064.384.48.32.896l-.128.48L61.912 30h3.616l.544-2.72v.032ZM82.36 30.32c3.616 0 7.296-1.632 7.296-5.088 0-3.712-7.904-2.944-7.904-7.392 0-1.888 2.048-3.296 4-3.296 1.472 0 2.496.32 3.072.896-1.376.288-2.88 1.824-2.88 3.072 0 .64.416 1.056 1.152 1.056 1.312 0 3.264-1.312 3.264-2.688 0-2.4-2.752-3.2-5.056-3.2-3.36 0-7.424 2.176-7.424 5.536 0 4.096 7.872 3.552 7.872 7.424 0 1.664-1.76 2.816-3.232 2.816-1.792 0-4.128-1.088-4.128-4.256h-1.824l-.96 4.8h1.152c.16-.768.32-1.472.512-1.984 1.12 1.824 3.328 2.304 5.088 2.304ZM97.56 30.32c1.984 0 3.968-1.408 5.376-2.944.096 1.44.832 2.944 3.072 2.944 1.568 0 2.496-.928 3.424-1.92l.192-.96c-.8.832-1.6 1.6-2.368 1.6-.48 0-.832-.32-.832-1.248 0-1.152 2.208-12 2.656-14.112l-3.776.704c-.352 1.472-1.92 9.248-2.304 11.968-1.12 1.408-2.656 2.688-4.128 2.688-1.312 0-1.824-1.024-1.824-2.304 0-1.088 1.28-6.88 2.112-10.848.224-1.12-.192-1.92-1.088-2.112-1.376-.32-2.688.192-4.832 1.248l-.224 1.024c.64-.384 1.728-.896 2.176-.8.32.064.352.48.288.928l-.128.48c-.96 4.192-1.92 8.96-1.92 10.08 0 2.176 1.376 3.584 4.128 3.584ZM119.864 30.32c5.696 0 9.344-5.76 9.344-10.688 0-3.04-1.44-5.952-5.248-5.952-2.08 0-4.064 1.056-5.536 2.528l1.44-7.36c.224-1.152-.192-1.92-1.12-2.112-1.376-.256-2.656.288-4.768 1.376l-.192 1.024c.608-.384 1.696-.928 2.144-.832.32.064.384.48.288.896l-.096.512-2.72 13.696c-.064.416-.096.8-.096 1.184 0 3.552 2.912 5.728 6.56 5.728Zm-3.04-5.504V24.4l1.12-5.728c1.056-1.92 2.912-3.712 4.608-3.712 2.432 0 2.848 2.24 2.848 4.576 0 3.072-1.344 9.92-5.6 9.92-2.176 0-2.976-2.016-2.976-4.64ZM136.664 30.32c3.616 0 7.296-1.632 7.296-5.088 0-3.712-7.904-2.944-7.904-7.392 0-1.888 2.048-3.296 4-3.296 1.472 0 2.496.32 3.072.896-1.376.288-2.88 1.824-2.88 3.072 0 .64.416 1.056 1.152 1.056 1.312 0 3.264-1.312 3.264-2.688 0-2.4-2.752-3.2-5.056-3.2-3.36 0-7.424 2.176-7.424 5.536 0 4.096 7.872 3.552 7.872 7.424 0 1.664-1.76 2.816-3.232 2.816-1.792 0-4.128-1.088-4.128-4.256h-1.824l-.96 4.8h1.152c.16-.768.32-1.472.512-1.984 1.12 1.824 3.328 2.304 5.088 2.304ZM153.752 30.32c3.584 0 6.592-2.048 7.744-4.96h-3.232c-.544 1.792-2.016 4.096-4.32 4.096-2.56 0-3.168-2.24-3.168-4.896 0-4.064 1.984-9.888 6.656-9.888 2.016 0 3.488.832 4.032 2.24-1.376.192-3.008 1.76-3.008 3.04 0 .672.448 1.088 1.152 1.088 1.376 0 3.296-1.408 3.296-2.816v-.032c0-2.976-2.752-4.512-5.888-4.512-5.792 0-9.984 4.64-9.984 10.08 0 4 2.496 6.56 6.72 6.56ZM168.984 27.312c.928-4.864 3.36-12.768 7.136-12.768.64 0 1.216.352 1.6.896-1.376.256-2.944 1.824-2.944 3.072 0 .64.416 1.056 1.152 1.056 1.312 0 3.264-1.312 3.264-2.688 0-1.696-1.28-3.2-2.816-3.2-2.176 0-4.384 2.752-5.856 5.76l.704-3.552c.224-1.152-.192-1.92-1.12-2.112-1.376-.256-2.656.288-4.768 1.376l-.192 1.024c.608-.416 1.696-.928 2.112-.832.32.064.384.48.32.896l-.128.48L164.824 30h3.616l.544-2.72v.032ZM183.768 30.32c1.568 0 2.56-.928 3.552-1.92l.16-.96c-.736.8-1.6 1.6-2.464 1.6-.48 0-.832-.32-.832-1.248 0-.928 1.472-8.192 2.24-11.936.224-1.12-.16-1.888-1.088-2.08-1.376-.288-2.688.224-4.8 1.312l-.192 1.024c.608-.416 1.696-.896 2.144-.832.288.064.384.48.288.928l-.128.48c-.992 4.32-1.952 9.408-1.952 10.432 0 1.504.704 3.2 3.072 3.2Zm.032-20.064c0 .864.64 1.504 1.536 1.504 1.152 0 2.24-.992 2.24-2.208 0-.832-.608-1.504-1.504-1.504-1.152 0-2.272 1.056-2.272 2.208ZM198.648 30.32c5.28 0 8.352-5.792 8.352-10.688 0-3.04-1.728-5.952-5.088-5.952-2.56 0-4.64 2.368-6.24 5.696l.704-3.52c.224-1.12-.192-1.888-1.12-2.08-1.376-.256-2.656.256-4.768 1.344l-.192 1.056c.608-.416 1.696-.896 2.144-.832.32.064.352.48.256.896l-.064.48-3.904 19.68-2.048.096-.224 1.184h7.424l.224-1.184-1.76-.096 1.696-8.64.064-.288c.832 1.664 2.336 2.848 4.544 2.848Zm-4.096-5.056c1.216-4.992 3.456-10.304 6.08-10.304 2.208 0 2.56 2.24 2.56 4.576 0 3.072-1.6 9.504-6.048 9.504-1.632 0-2.336-1.92-2.592-3.776ZM214.36 30.32c3.52 0 4.48-2.88 4.896-4.96h-1.376c-.384 1.888-1.28 3.68-2.368 3.68-.864 0-1.216-.96-1.216-2.048s.928-5.984 1.856-10.528h3.168l.288-1.376h-3.168l1.184-5.632h-3.616l-1.184 5.632h-2.816l-.288 1.376h2.816c-.896 4.448-1.792 9.184-1.792 10.336 0 2.592 1.44 3.52 3.616 3.52ZM225.176 30.32c1.568 0 2.56-.928 3.552-1.92l.16-.96c-.736.8-1.6 1.6-2.464 1.6-.48 0-.832-.32-.832-1.248 0-.928 1.472-8.192 2.24-11.936.224-1.12-.16-1.888-1.088-2.08-1.376-.288-2.688.224-4.8 1.312l-.192 1.024c.608-.416 1.696-.896 2.144-.832.288.064.384.48.288.928l-.128.48c-.992 4.32-1.952 9.408-1.952 10.432 0 1.504.704 3.2 3.072 3.2Zm.032-20.064c0 .864.64 1.504 1.536 1.504 1.152 0 2.24-.992 2.24-2.208 0-.832-.608-1.504-1.504-1.504-1.152 0-2.272 1.056-2.272 2.208ZM237.784 30.32c5.472 0 9.824-4.864 9.824-10.208 0-4.032-2.976-6.432-6.592-6.432-5.344 0-9.856 4.672-9.856 10.176 0 4.064 2.976 6.464 6.624 6.464Zm-2.88-5.856c0-3.84 2.624-9.92 6.016-9.92 1.952 0 2.944 2.368 2.944 4.992 0 3.936-2.56 9.92-5.888 9.92-1.952 0-3.072-2.368-3.072-4.992ZM262.84 30.32c1.6 0 2.496-.928 3.488-1.92l.192-.96c-.8.8-1.632 1.6-2.4 1.6-.512 0-.832-.32-.832-1.248 0-1.824 2.08-9.024 2.08-10.624 0-2.336-1.6-3.488-4-3.488-1.728 0-3.712 1.152-5.184 2.528l.064-.32c.224-1.152-.192-1.92-1.12-2.112-1.376-.256-2.656.288-4.768 1.376l-.192 1.024c.608-.416 1.696-.928 2.112-.832.32.064.384.48.32.896l-.128.48L249.848 30h3.616l2.496-12.672c1.152-1.28 2.656-2.368 3.968-2.368 1.472 0 1.792.704 1.792 2.208 0 2.432-1.984 7.36-1.984 10.176 0 1.536.768 2.976 3.104 2.976Z"/></g></svg>