<?xml version="1.0" encoding="UTF-8"?>
<svg width="320px" height="40px" viewBox="0 0 320 40" version="1.1" xmlns="http://www.w3.org/2000/svg" xmlns:xlink="http://www.w3.org/1999/xlink">
    <title>apium-bold-italic</title>
    <g id="_exports" stroke="none" stroke-width="1" fill="none" fill-rule="evenodd">
        <g id="Apium" transform="translate(-1051, -756)">
            <g id="apium-styles" transform="translate(0, 686)">
                <g id="apium-bold-italic" transform="translate(1051, 70)">
                    <rect id="Rectangle-Copy-11" fill="#F7DF88" opacity="0" x="0" y="0" width="320" height="40"></rect>
                    <g id="apium-latin-bold-italic" transform="translate(5.24, 6.5015)" fill="#424345" fill-rule="nonzero">
                        <path d="M8.768,23.9784596 C14.304,23.9784596 17.888,20.4264596 18.944,17.0984596 L14.144,17.0984596 C13.472,19.7224596 11.904,23.0824596 8.96,23.0824596 C6.176,23.0824596 4.992,20.9064596 4.992,17.4824596 C4.992,11.9464596 7.712,2.15445958 14.24,2.15445958 C16.224,2.15445958 18.208,3.05045958 19.072,4.52245958 C17.184,4.81045958 15.04,6.82645958 15.04,8.61845958 C15.04,9.48245958 15.616,10.0584596 16.576,10.0584596 C18.496,10.0584596 20.992,7.97845958 21.024,6.05845958 L21.024,6.02645958 L21.024,5.96245958 C20.96,3.27445958 17.952,1.25845958 13.44,1.25845958 C5.952,1.25845958 -8.8817842e-15,8.01045958 -8.8817842e-15,15.1464596 C-8.8817842e-15,20.1704596 3.136,23.9784596 8.768,23.9784596 Z" id="Path"></path>
                        <path d="M30.08,23.9784596 C36,23.9784596 40.896,19.3064596 40.896,13.7064596 C40.896,9.38645958 37.408,7.01845958 33.344,7.01845958 C27.52,7.01845958 22.528,11.5944596 22.528,17.2904596 C22.528,21.6104596 26.048,23.9784596 30.08,23.9784596 Z M27.648,18.7624596 C27.648,15.4024596 29.856,7.91445958 33.216,7.91445958 C34.848,7.91445958 35.776,9.57845958 35.776,12.2344596 C35.776,15.6264596 33.6,23.0824596 30.272,23.0824596 C28.64,23.0824596 27.648,21.4184596 27.648,18.7624596 Z" id="Shape"></path>
                        <path d="M66.752,23.9784596 C68.992,23.9784596 69.984,22.8264596 70.912,21.7064596 L71.136,20.6184596 C70.4,21.3544596 69.504,22.2184596 68.608,22.2184596 C68.032,22.2184596 67.744,21.8984596 67.744,21.1944596 C67.744,19.3384596 69.888,11.8184596 69.888,10.5704596 C69.888,8.33045958 68.256,7.01845958 65.664,7.01845958 C63.84,7.01845958 61.696,8.20245958 60.192,9.61045958 C59.776,7.94645958 58.304,7.01845958 56.096,7.01845958 C54.368,7.01845958 52.384,8.04245958 50.88,9.32245958 C51.072,8.26645958 50.4,7.40245958 49.248,7.14645958 C47.232,6.76245958 45.536,7.62645958 43.488,8.71445958 L43.2,10.1544596 C44.096,9.57845958 45.12,9.19445958 45.504,9.25845958 C45.728,9.32245958 45.888,9.61045958 45.792,10.0264596 L45.632,10.6664596 L43.104,23.4984596 L48.128,23.4984596 L50.624,10.6664596 C51.584,9.61045958 52.768,8.77845958 53.792,8.77845958 C54.944,8.77845958 55.296,9.35445958 55.296,10.5704596 C55.296,12.4904596 53.312,20.5544596 52.768,23.4984596 L57.76,23.4984596 C58.176,21.3544596 60.288,11.8184596 60.288,10.5704596 C61.216,9.57845958 62.368,8.77845958 63.392,8.77845958 C64.544,8.77845958 64.864,9.35445958 64.864,10.5704596 C64.864,12.4904596 62.912,17.6424596 62.912,20.4904596 C62.912,22.3144596 64.096,23.9784596 66.752,23.9784596 Z" id="Path"></path>
                        <path d="M83.84,23.9784596 C89.248,23.9784596 92.352,17.9944596 92.352,13.0984596 C92.352,9.96245958 90.816,7.01845958 87.168,7.01845958 C84.448,7.01845958 82.4,8.93845958 80.896,11.9464596 L81.376,9.45045958 C81.6,8.29845958 80.928,7.40245958 79.776,7.17845958 C77.76,6.76245958 76,7.62645958 73.984,8.74645958 L73.696,10.1544596 C74.592,9.57845958 75.616,9.19445958 76,9.25845958 C76.224,9.29045958 76.384,9.61045958 76.288,9.99445958 L76.128,10.6984596 L72.416,29.5784596 L70.56,29.8024596 L70.272,31.1784596 L78.656,31.1784596 L78.944,29.8024596 L77.408,29.5784596 L79.104,20.9704596 C79.968,22.6664596 81.472,23.9784596 83.84,23.9784596 Z M79.488,19.0184596 L79.616,18.3784596 C80.672,13.9624596 82.72,8.77845958 84.96,8.77845958 C86.72,8.77845958 87.104,10.4424596 87.104,12.7464596 C87.104,15.6584596 85.632,22.2184596 81.792,22.2184596 C80.448,22.2184596 79.776,20.6504596 79.488,19.0184596 Z" id="Shape"></path>
                        <path d="M98.72,23.9784596 C100.96,23.9784596 101.92,22.8264596 102.848,21.7064596 L103.072,20.6184596 C102.336,21.3864596 101.472,22.2184596 100.576,22.2184596 C100,22.2184596 99.712,21.8984596 99.712,21.1944596 C99.712,20.3944596 102.272,7.62645958 103.328,2.37845958 C103.552,1.25845958 102.88,0.362459579 101.696,0.106459579 C99.712,-0.309540421 97.984,0.554459579 95.936,1.64245958 L95.616,3.05045958 C96.544,2.47445958 97.568,2.12245958 97.952,2.18645958 C98.144,2.25045958 98.304,2.50645958 98.208,2.92245958 L98.08,3.59445958 C96.64,10.1864596 94.848,19.4664596 94.848,20.2984596 C94.848,22.1544596 96.064,23.9784596 98.72,23.9784596 Z" id="Path"></path>
                        <path d="M112.672,23.9784596 C115.008,23.9784596 119.744,22.9224596 121.248,19.4984596 L116.832,19.4984596 C115.968,21.5144596 114.368,23.0824596 112.768,23.0824596 C111.104,23.0824596 110.432,21.2584596 110.336,19.2104596 C115.136,19.0184596 122.464,16.9704596 122.464,12.4584596 C122.464,9.51445958 119.968,7.01845958 115.936,7.01845958 C109.856,7.01845958 105.024,11.6584596 105.024,17.2904596 C105.024,21.5784596 108.416,23.9784596 112.672,23.9784596 Z M110.4,18.2824596 C110.496,14.5704596 112.192,7.91445958 115.712,7.91445958 C117.216,7.91445958 118.08,9.61045958 118.08,11.2104596 C118.08,14.6024596 115.488,17.8984596 110.4,18.2824596 Z" id="Shape"></path>
                        <path d="M148.224,23.9784596 C150.464,23.9784596 151.456,22.8264596 152.384,21.7064596 L152.608,20.6184596 C151.872,21.3544596 150.976,22.2184596 150.08,22.2184596 C149.504,22.2184596 149.216,21.8984596 149.216,21.1944596 C149.216,19.3384596 151.36,11.8184596 151.36,10.5704596 C151.36,8.33045958 149.728,7.01845958 147.136,7.01845958 C145.312,7.01845958 143.168,8.20245958 141.664,9.61045958 C141.248,7.94645958 139.776,7.01845958 137.568,7.01845958 C135.84,7.01845958 133.856,8.04245958 132.352,9.32245958 C132.544,8.26645958 131.872,7.40245958 130.72,7.14645958 C128.704,6.76245958 127.008,7.62645958 124.96,8.71445958 L124.672,10.1544596 C125.568,9.57845958 126.592,9.19445958 126.976,9.25845958 C127.2,9.32245958 127.36,9.61045958 127.264,10.0264596 L127.104,10.6664596 L124.576,23.4984596 L129.6,23.4984596 L132.096,10.6664596 C133.056,9.61045958 134.24,8.77845958 135.264,8.77845958 C136.416,8.77845958 136.768,9.35445958 136.768,10.5704596 C136.768,12.4904596 134.784,20.5544596 134.24,23.4984596 L139.232,23.4984596 C139.648,21.3544596 141.76,11.8184596 141.76,10.5704596 C142.688,9.57845958 143.84,8.77845958 144.864,8.77845958 C146.016,8.77845958 146.336,9.35445958 146.336,10.5704596 C146.336,12.4904596 144.384,17.6424596 144.384,20.4904596 C144.384,22.3144596 145.568,23.9784596 148.224,23.9784596 Z" id="Path"></path>
                        <path d="M162.304,23.9784596 C164.64,23.9784596 169.376,22.9224596 170.88,19.4984596 L166.464,19.4984596 C165.6,21.5144596 164,23.0824596 162.4,23.0824596 C160.736,23.0824596 160.064,21.2584596 159.968,19.2104596 C164.768,19.0184596 172.096,16.9704596 172.096,12.4584596 C172.096,9.51445958 169.6,7.01845958 165.568,7.01845958 C159.488,7.01845958 154.656,11.6584596 154.656,17.2904596 C154.656,21.5784596 158.048,23.9784596 162.304,23.9784596 Z M160.032,18.2824596 C160.128,14.5704596 161.824,7.91445958 165.344,7.91445958 C166.848,7.91445958 167.712,9.61045958 167.712,11.2104596 C167.712,14.6024596 165.12,17.8984596 160.032,18.2824596 Z" id="Shape"></path>
                        <path d="M188.288,23.9784596 C190.496,23.9784596 191.488,22.8264596 192.416,21.7064596 L192.64,20.6184596 C191.904,21.3544596 191.04,22.2184596 190.112,22.2184596 C189.568,22.2184596 189.28,21.8984596 189.28,21.1944596 C189.28,19.3384596 191.392,11.8184596 191.392,10.5704596 C191.392,8.33045958 189.792,7.01845958 187.2,7.01845958 C185.472,7.01845958 183.488,8.04245958 181.984,9.32245958 C182.176,8.26645958 181.504,7.40245958 180.352,7.14645958 C178.336,6.76245958 176.64,7.62645958 174.592,8.71445958 L174.304,10.1544596 C175.2,9.57845958 176.224,9.19445958 176.608,9.25845958 C176.832,9.32245958 176.992,9.61045958 176.896,10.0264596 L176.736,10.6664596 L174.208,23.4984596 L179.232,23.4984596 L181.728,10.6664596 C182.688,9.61045958 183.872,8.77845958 184.896,8.77845958 C186.048,8.77845958 186.4,9.35445958 186.4,10.5704596 C186.4,12.4904596 184.448,17.6424596 184.448,20.4904596 C184.448,22.3144596 185.6,23.9784596 188.288,23.9784596 Z" id="Path"></path>
                        <path d="M200.672,23.9784596 C204.96,23.9784596 206.016,21.2264596 206.496,18.8584596 L205.152,18.8584596 C204.864,20.5864596 203.968,22.2184596 202.752,22.2184596 C201.856,22.2184596 201.504,21.3544596 201.504,20.1384596 C201.504,19.1144596 202.336,14.6344596 203.2,10.2824596 L206.144,10.2824596 L206.528,8.61845958 L203.552,8.61845958 L204.704,2.95445958 L199.68,2.95445958 L198.528,8.61845958 L195.904,8.61845958 L195.52,10.2824596 L198.208,10.2824596 C197.376,14.5064596 196.576,18.7944596 196.576,19.8184596 C196.576,22.9544596 198.464,23.9784596 200.672,23.9784596 Z" id="Path"></path>
                        <path d="M213.376,23.9784596 C215.936,23.9784596 218.176,22.5064596 219.744,20.7464596 C219.904,22.4424596 221.152,23.9784596 223.584,23.9784596 C225.824,23.9784596 226.816,22.7944596 227.744,21.7064596 L227.936,20.6184596 C227.2,21.3864596 226.368,22.2184596 225.44,22.2184596 C224.864,22.2184596 224.576,21.8984596 224.576,21.1944596 C224.576,20.2664596 226.784,9.48245958 227.264,7.01845958 L222.016,8.01045958 L221.536,10.2824596 C220.704,8.45845958 219.136,7.01845958 216.672,7.01845958 C211.264,7.01845958 208.192,13.0024596 208.192,17.8984596 C208.192,21.0344596 209.504,23.9784596 213.376,23.9784596 Z M213.44,18.2184596 C213.44,15.3384596 214.912,8.77845958 218.656,8.77845958 C220.224,8.77845958 220.896,10.6344596 221.12,12.3944596 C220.672,14.7624596 220.128,17.4824596 219.872,19.0504596 C218.976,20.6824596 217.504,22.2184596 216.096,22.2184596 C214.24,22.2184596 213.44,20.5224596 213.44,18.2184596 Z" id="Shape"></path>
                        <path d="M230.432,23.4984596 L235.456,23.4984596 L236.032,20.5224596 C237.472,13.3864596 239.744,7.91445958 243.168,7.91445958 C243.744,7.91445958 244.224,8.17045958 244.544,8.61845958 C242.912,8.81045958 240.992,10.5704596 240.992,12.1064596 C240.992,12.8744596 241.504,13.3864596 242.336,13.3864596 C243.872,13.3864596 246.144,11.8184596 246.144,10.2504596 C246.144,8.42645958 244.96,7.01845958 243.36,7.01845958 C241.44,7.01845958 239.264,8.97045958 237.696,12.0744596 L238.208,9.41845958 C238.432,8.29845958 237.76,7.40245958 236.576,7.14645958 C234.56,6.76245958 232.864,7.62645958 230.816,8.71445958 L230.528,10.1544596 C231.424,9.57845958 232.448,9.19445958 232.832,9.25845958 C233.056,9.32245958 233.216,9.61045958 233.12,10.0264596 L232.96,10.6664596 L230.432,23.4984596 Z" id="Path"></path>
                        <path d="M246.496,31.6584596 C248.64,31.6584596 250.272,29.1944596 250.976,28.1064596 L263.776,7.49845958 L260.48,7.49845958 L260.192,8.87445958 L261.6,9.09845958 L256.032,18.0584596 L254.176,8.55445958 C253.888,7.46645958 252.768,6.82645958 251.616,7.05045958 C250.4,7.30645958 248.704,8.45845958 247.488,10.0264596 L247.744,11.3384596 C248.16,10.8584596 249.056,10.1224596 249.408,10.0584596 C249.92,9.96245958 250.112,10.3784596 250.272,11.2104596 L250.432,11.8824596 L252.672,23.4664596 L249.888,27.9144596 C249.248,28.9704596 248.128,30.7624596 246.72,30.7624596 C246.016,30.7624596 245.504,30.4744596 245.248,29.8344596 C246.88,29.7704596 248.96,28.0104596 248.96,26.3784596 C248.96,25.6424596 248.512,25.0344596 247.648,25.0344596 C245.984,25.0344596 243.872,26.8584596 243.84,28.4904596 L243.84,28.5544596 C243.872,30.6984596 244.896,31.6584596 246.496,31.6584596 Z" id="Path"></path>
                    </g>
                </g>
            </g>
        </g>
    </g>
</svg>