<?xml version="1.0" encoding="UTF-8"?>
<svg width="320px" height="40px" viewBox="0 0 320 40" version="1.1" xmlns="http://www.w3.org/2000/svg" xmlns:xlink="http://www.w3.org/1999/xlink">
    <title>apium-cyrillic-regular-italic</title>
    <g id="_exports" stroke="none" stroke-width="1" fill="none" fill-rule="evenodd">
        <g id="Apium" transform="translate(-351, -896)">
            <g id="apium-styles" transform="translate(0, 686)">
                <g id="apium-cyrillic-regular-italic" transform="translate(351, 210)">
                    <rect id="Rectangle-Copy-19" fill="#F7DF88" opacity="0" x="0" y="0" width="320" height="40"></rect>
                    <g transform="translate(3.976, 6.704)" fill="#424345" fill-rule="nonzero">
                        <path d="M2.144,31.2 C3.808,31.2 4.864,29.664 5.504,28.512 L17.472,7.296 L14.144,7.296 L13.92,8.352 L15.84,8.416 L9.536,19.584 L7.36,8.416 C7.104,7.296 6.336,6.944 5.568,7.104 C4.704,7.264 3.52,8.224 2.304,10.176 L2.464,10.976 C2.656,10.528 3.616,9.248 4.032,9.184 C4.32,9.12 4.512,9.312 4.608,9.824 L4.672,10.24 L7.264,23.648 L4.768,28.064 C4.352,28.8 3.392,30.4 2.4,30.4 C1.696,30.4 1.28,30.144 1.12,29.28 C2.368,29.248 4.128,28 4.128,26.688 C4.128,26.08 3.808,25.44 3.04,25.44 C1.76,25.44 0.096,26.944 0,28.16 L0,28.224 L0,28.256 L0,28.32 C0.032,30.208 0.672,31.2 2.144,31.2 Z" id="Path"></path>
                        <path d="M17.28,23.52 C21.28,23.52 23.424,16.864 25.088,8.32 L30.048,8.32 L27.488,21.44 C27.264,22.592 27.552,23.296 28.32,23.456 C29.408,23.648 30.464,23.264 32.608,22.208 L32.768,21.376 C32.288,21.696 31.168,22.272 30.72,22.176 C30.368,22.112 30.336,21.632 30.4,21.184 L30.496,20.8 L33.184,7.296 L21.28,7.296 L20.992,8.352 L24.032,8.416 C22.528,16.064 20.544,22.688 17.536,22.688 C17.12,22.688 16.864,22.496 16.704,22.24 C17.92,22.112 19.52,20.992 19.52,19.744 C19.52,19.104 19.264,18.4 18.464,18.4 C17.248,18.4 15.456,19.712 15.456,20.96 C15.456,22.432 15.968,23.52 17.28,23.52 Z" id="Path"></path>
                        <path d="M40.448,23.52 C42.624,23.52 44.864,22.368 46.432,20.64 C46.464,21.984 46.944,23.52 49.12,23.52 C50.368,23.52 51.232,22.72 52.224,21.76 L52.352,20.896 C51.52,21.792 50.784,22.496 50.08,22.496 C49.632,22.496 49.248,22.144 49.248,21.12 C49.248,19.904 51.488,8.992 51.872,7.04 L48.832,7.616 L48.288,10.144 C47.456,8.288 45.952,7.04 43.68,7.04 C38.464,7.04 35.392,12.736 35.392,17.632 C35.392,20.672 36.672,23.52 40.448,23.52 Z M38.528,17.632 C38.528,14.432 40.256,8.096 44.768,8.096 C47.104,8.096 47.616,10.752 47.712,12.928 C47.36,14.784 46.976,16.736 46.72,18.24 C45.856,20.384 44.096,22.496 42.112,22.496 C39.392,22.496 38.528,19.968 38.528,17.632 Z" id="Shape"></path>
                        <path d="M60.8,23.52 C67.264,23.52 70.432,17.568 70.432,10.656 C70.432,6.144 68.544,0 63.104,0 C62.048,0 60.832,0.256 59.456,0.8 L59.456,0.832 C58.816,1.152 57.984,1.92 57.984,2.72 C57.984,3.488 58.56,4.064 59.392,4.064 C60.48,4.064 61.472,3.168 61.472,2.048 C61.472,1.696 61.344,1.408 61.152,1.152 C61.792,0.992 62.4,0.896 62.944,0.896 C66.752,0.896 67.904,4.352 67.904,8.032 C67.904,8.544 67.904,9.056 67.84,9.568 C66.4,7.328 63.936,7.04 62.88,7.04 C57.44,7.04 54.72,13.152 54.72,16.896 C54.72,20.992 56.992,23.52 60.8,23.52 Z M57.76,17.664 C57.76,14.304 59.744,8.096 64,8.096 C66.304,8.096 67.104,10.976 67.104,13.376 C67.104,16.96 64.96,22.72 61.344,22.72 C58.528,22.72 57.76,19.968 57.76,17.664 Z" id="Shape"></path>
                        <path d="M77.696,23.52 C81.696,23.52 85.44,21.696 85.44,18.112 C85.44,15.872 83.296,14.784 81.088,14.592 C84.48,14.24 86.144,12.288 86.144,10.304 C86.144,7.84 83.392,7.04 81.28,7.04 C78.368,7.04 74.848,8.544 74.112,12.096 L76.928,12.096 C77.28,10.208 78.72,7.872 81.024,7.872 C82.56,7.872 83.328,8.928 83.328,10.272 C83.328,12.832 81.6,14.176 78.464,14.176 L77.472,14.176 L77.28,15.136 L79.008,15.136 C81.248,15.136 82.432,16.48 82.432,18.272 C82.432,20.224 80.512,22.72 77.6,22.72 C75.36,22.72 73.632,21.984 73.088,20.256 C74.368,20.128 75.936,18.624 75.936,17.44 C75.936,16.8 75.52,16.416 74.848,16.416 C73.6,16.416 71.808,17.6 71.808,18.976 C71.808,22.112 74.432,23.52 77.696,23.52 Z" id="Path"></path>
                        <path d="M91.904,23.52 C93.152,23.52 94.112,22.72 95.136,21.76 L95.264,20.896 C94.528,21.728 93.632,22.496 92.864,22.496 C92.416,22.496 92.032,22.144 92.032,21.12 C92.032,20.128 93.504,12.832 94.272,9.152 C94.496,8 94.208,7.296 93.408,7.136 C92.352,6.912 91.264,7.264 89.12,8.352 L88.96,9.152 C89.44,8.864 90.592,8.288 91.04,8.384 C91.392,8.448 91.424,8.928 91.328,9.376 L91.232,9.76 C90.24,13.952 89.216,19.424 89.216,20.576 C89.216,21.92 89.696,23.52 91.904,23.52 Z M92.096,3.648 C92.096,4.448 92.672,5.056 93.536,5.056 C94.592,5.056 95.616,4.128 95.616,3.008 C95.616,2.208 95.008,1.6 94.176,1.6 C93.12,1.6 92.096,2.56 92.096,3.648 Z" id="Shape"></path>
                        <path d="M104.544,23.52 C107.808,23.52 111.488,21.184 111.488,18.24 C111.488,16.768 110.592,15.68 109.408,15.136 C110.944,14.144 111.936,12.768 111.936,10.88 C111.936,8.384 109.6,7.04 107.232,7.04 C101.472,7.04 97.6,11.936 97.6,17.184 C97.6,21.024 100.544,23.52 104.544,23.52 Z M100.8,17.216 C103.232,17.152 105.792,16.768 107.84,15.936 C108.416,16.512 108.8,17.44 108.8,18.528 C108.8,20.928 107.04,22.72 104.992,22.72 C101.792,22.72 100.928,19.552 100.8,17.216 Z M100.8,16.352 C100.992,12.704 103.04,7.872 106.88,7.872 C108.736,7.872 109.408,9.216 109.408,10.72 C109.408,14.176 105.632,16.16 100.8,16.352 Z" id="Shape"></path>
                        <path d="M119.392,23.52 C121.568,23.52 123.808,22.368 125.376,20.64 C125.408,21.984 125.888,23.52 128.064,23.52 C129.312,23.52 130.176,22.72 131.168,21.76 L131.296,20.896 C130.464,21.792 129.728,22.496 129.024,22.496 C128.576,22.496 128.192,22.144 128.192,21.12 C128.192,19.904 130.432,8.992 130.816,7.04 L127.776,7.616 L127.232,10.144 C126.4,8.288 124.896,7.04 122.624,7.04 C117.408,7.04 114.336,12.736 114.336,17.632 C114.336,20.672 115.616,23.52 119.392,23.52 Z M117.472,17.632 C117.472,14.432 119.2,8.096 123.712,8.096 C126.048,8.096 126.56,10.752 126.656,12.928 C126.304,14.784 125.92,16.736 125.664,18.24 C124.8,20.384 123.04,22.496 121.056,22.496 C118.336,22.496 117.472,19.968 117.472,17.632 Z" id="Shape"></path>
                        <path d="M139.936,23.52 C143.52,23.52 146.432,21.344 147.488,18.656 L144.672,18.656 C144.096,20.256 142.56,22.72 140.16,22.72 C137.28,22.72 136.736,20.16 136.736,17.504 C136.736,13.44 138.784,7.936 143.328,7.936 C145.568,7.936 147.072,8.864 147.584,10.368 C146.304,10.528 144.8,12 144.8,13.184 C144.8,13.792 145.216,14.176 145.856,14.176 C147.104,14.176 148.896,12.928 148.896,11.648 L148.896,11.616 C148.896,8.64 146.368,7.04 143.168,7.04 C137.504,7.04 133.664,11.808 133.664,17.056 C133.664,20.928 135.776,23.52 139.936,23.52 Z" id="Path"></path>
                        <path d="M172.448,23.52 C173.696,23.52 174.528,22.752 175.552,21.76 L175.744,20.896 C174.912,21.728 174.112,22.496 173.408,22.496 C172.96,22.496 172.576,22.144 172.576,21.12 C172.576,19.36 174.624,12.256 174.624,10.496 C174.624,8.128 173.056,7.04 170.784,7.04 C168.96,7.04 166.848,8.384 165.376,9.856 C165.12,7.936 163.616,7.04 161.568,7.04 C159.84,7.04 157.824,8.288 156.352,9.696 L156.448,9.152 C156.672,8 156.384,7.296 155.616,7.136 C154.528,6.944 153.472,7.328 151.328,8.384 L151.168,9.216 C151.648,8.896 152.768,8.32 153.216,8.416 C153.568,8.48 153.6,8.96 153.536,9.408 L153.44,9.792 L150.752,23.296 L153.696,23.296 L156.16,10.688 C157.408,9.312 159.104,8.096 160.512,8.096 C162.144,8.096 162.496,8.832 162.496,10.496 C162.496,13.184 160.544,20.192 160,23.296 L162.912,23.296 C163.328,20.864 165.312,12.704 165.408,10.656 C166.656,9.28 168.32,8.096 169.728,8.096 C171.36,8.096 171.712,8.832 171.712,10.496 C171.712,13.184 169.696,17.984 169.696,20.832 C169.696,22.176 170.24,23.52 172.448,23.52 Z" id="Path"></path>
                        <path d="M184.256,23.52 C189.504,23.52 193.6,18.592 193.6,13.376 C193.6,9.472 190.88,7.04 187.424,7.04 C182.336,7.04 178.048,11.776 178.048,17.184 C178.048,21.12 180.8,23.52 184.256,23.52 Z M181.152,17.344 C181.152,13.248 184,7.872 187.36,7.872 C189.504,7.872 190.496,10.624 190.496,13.248 C190.496,17.44 187.744,22.72 184.448,22.72 C182.336,22.72 181.152,19.968 181.152,17.344 Z" id="Shape"></path>
                        <path d="M195.84,23.296 L198.784,23.296 L200.224,15.936 L200.512,15.584 L202.56,21.152 C202.976,22.336 203.776,23.52 205.824,23.52 C207.232,23.52 208.608,22.112 209.024,21.312 L208.96,20.64 C208.512,21.312 207.68,22.24 206.88,22.24 C206.272,22.24 205.696,20.896 205.472,20.224 L202.752,12.96 C205.248,10.208 207.84,7.872 209.088,7.872 C209.44,7.872 209.696,7.968 209.888,8.256 C208.576,8.416 207.04,9.92 207.04,11.104 C207.04,11.68 207.456,12.096 208.096,12.096 C209.344,12.096 211.136,10.848 211.136,9.6 C211.136,7.424 209.856,7.04 209.12,7.04 C207.072,7.04 203.488,10.688 200.544,14.24 L201.536,9.152 C201.76,8 201.472,7.296 200.704,7.136 C199.616,6.944 198.56,7.328 196.416,8.384 L196.256,9.216 C196.736,8.896 197.856,8.32 198.304,8.416 C198.656,8.48 198.688,8.96 198.624,9.408 L198.528,9.792 L195.84,23.296 Z" id="Path"></path>
                    </g>
                </g>
            </g>
        </g>
    </g>
</svg>