<?xml version="1.0" encoding="UTF-8"?>
<svg width="320px" height="40px" viewBox="0 0 320 40" version="1.1" xmlns="http://www.w3.org/2000/svg" xmlns:xlink="http://www.w3.org/1999/xlink">
    <title>apium-cyrillic-light</title>
    <g id="_exports" stroke="none" stroke-width="1" fill="none" fill-rule="evenodd">
        <g id="Apium" transform="translate(0, -826)">
            <g id="apium-styles" transform="translate(0, 686)">
                <g id="apium-cyrillic-light" transform="translate(0, 140)">
                    <rect id="Rectangle-Copy-14" fill="#F7DF88" opacity="0" x="0" y="0" width="320" height="40"></rect>
                    <g transform="translate(5.6, 4.4)" fill="#424345" fill-rule="nonzero">
                        <path d="M7.776,25.76 C12.48,25.76 15.552,22.08 15.552,17.6 C15.552,13.12 12.48,9.44 7.776,9.44 C3.072,9.44 0,13.12 0,17.6 C0,22.08 3.072,25.76 7.776,25.76 Z M2.4,17.6 C2.4,14.496 3.52,10.24 7.776,10.24 C12.032,10.24 13.152,14.496 13.152,17.6 C13.152,20.704 12.032,24.96 7.776,24.96 C3.52,24.96 2.4,20.704 2.4,17.6 Z" id="Shape"></path>
                        <path d="M26.336,25.76 C31.04,25.76 33.76,21.888 33.76,17.6 C33.76,13.312 31.04,9.44 26.368,9.44 C24.928,9.44 21.632,10.24 20.64,13.312 C20.448,12.32 20.384,11.456 20.384,10.656 C20.384,9.024 20.768,7.808 21.408,6.88 C22.752,4.992 25.088,4.768 29.28,4.768 C32.032,4.768 32.64,1.856 32.64,0 L31.52,0 C31.52,0.928 30.944,2.4 29.536,2.4 C23.456,2.4 21.984,4.256 21.088,5.44 C19.296,7.808 18.752,12.096 18.752,17.024 C18.752,22.144 21.184,25.76 26.336,25.76 Z M21.152,17.888 C21.152,14.88 21.92,10.24 26.336,10.24 C30.592,10.24 31.36,14.688 31.36,17.6 C31.36,20.512 30.592,24.96 26.336,24.96 C22.624,24.96 21.152,20.64 21.152,17.888 Z" id="Shape"></path>
                        <path d="M46.368,25.76 C51.072,25.76 52.736,21.28 52.736,17.6 C52.736,13.92 51.072,9.44 46.368,9.44 C44.128,9.44 42.112,10.304 40.8,11.808 L40.8,9.6 L36.32,9.6 L36.32,10.56 L38.56,10.56 L38.56,32.32 L36.32,32.32 L36.32,33.28 L43.04,33.28 L43.04,32.32 L40.8,32.32 L40.8,23.36 C42.112,24.864 44.128,25.76 46.368,25.76 Z M40.8,20.864 L40.8,14.336 C41.344,12.192 42.848,10.24 45.312,10.24 C49.28,10.24 50.336,14.688 50.336,17.6 C50.336,20.512 49.28,24.96 45.312,24.96 C42.848,24.96 41.344,23.008 40.8,20.864 Z" id="Shape"></path>
                        <polygon id="Path" points="55.296 25.6 59.776 25.6 67.68 11.296 67.68 24.64 65.44 24.64 65.44 25.6 72.128 25.6 72.128 24.64 69.888 24.64 69.888 10.56 72.128 10.56 72.128 9.6 67.648 9.6 59.776 23.488 59.776 10.56 62.016 10.56 62.016 9.6 55.296 9.6 55.296 10.56 57.536 10.56 57.536 24.64 55.296 24.64"></polygon>
                        <path d="M82.016,25.76 C85.824,25.76 88.192,23.456 88.672,20.96 L86.272,20.96 C85.984,22.4 84.8,24.96 82.016,24.96 C78.08,24.96 77.088,20.864 77.088,17.6 C77.088,15.072 78.464,10.24 82.4,10.24 C84.64,10.24 86.624,11.392 87.392,12.8 C86.272,12.864 85.152,14.08 85.152,15.136 C85.152,15.84 85.632,16.32 86.336,16.32 C87.456,16.32 88.672,15.232 88.672,14.048 C88.672,11.904 85.888,9.44 82.08,9.44 C77.376,9.44 74.688,13.664 74.688,17.6 C74.688,22.272 77.312,25.76 82.016,25.76 Z" id="Path"></path>
                        <path d="M99.328,25.76 C104.032,25.76 107.104,22.08 107.104,17.6 C107.104,13.12 104.032,9.44 99.328,9.44 C94.624,9.44 91.552,13.12 91.552,17.6 C91.552,22.08 94.624,25.76 99.328,25.76 Z M93.952,17.6 C93.952,14.496 95.072,10.24 99.328,10.24 C103.584,10.24 104.704,14.496 104.704,17.6 C104.704,20.704 103.584,24.96 99.328,24.96 C95.072,24.96 93.952,20.704 93.952,17.6 Z" id="Shape"></path>
                        <path d="M109.664,25.6 L118.688,25.6 C121.248,25.6 124.128,24.128 124.128,21.152 C124.128,18.464 121.824,17.024 119.52,16.704 C120.832,16.16 121.856,14.976 121.856,13.44 C121.856,11.296 120.128,9.472 117.824,9.472 C116.096,9.472 114.784,10.752 114.144,11.776 L114.144,9.6 L109.664,9.6 L109.664,10.56 L111.904,10.56 L111.904,24.64 L109.664,24.64 L109.664,25.6 Z M114.144,24.8 L114.144,17.44 L116.576,17.44 C118.688,17.44 121.728,17.984 121.728,21.152 C121.728,23.424 120.128,24.8 118.112,24.8 L114.144,24.8 Z M114.144,16.48 L114.144,13.248 C114.72,11.968 115.808,10.24 117.184,10.24 C118.944,10.24 119.584,11.904 119.584,13.44 C119.584,16.416 116.544,16.48 114.784,16.48 L114.144,16.48 Z" id="Shape"></path>
                        <path d="M142.336,25.6 L144.576,25.6 L144.576,9.6 L142.336,9.6 L142.336,25.6 Z M126.688,25.6 L134.784,25.6 C137.344,25.6 140.224,23.648 140.224,20.672 C140.224,17.6 137.216,15.68 134.624,15.68 L131.168,15.68 L131.168,10.56 L133.408,10.56 L133.408,9.6 L126.688,9.6 L126.688,10.56 L128.928,10.56 L128.928,24.64 L126.688,24.64 L126.688,25.6 Z M131.168,24.8 L131.168,16.48 L132.672,16.48 C134.784,16.48 137.824,17.504 137.824,20.672 C137.824,22.944 136.224,24.8 134.208,24.8 L131.168,24.8 Z" id="Shape"></path>
                        <path d="M146.496,25.6 L155.52,25.6 C158.08,25.6 160.96,24.128 160.96,21.152 C160.96,18.464 158.656,17.024 156.352,16.704 C157.664,16.16 158.688,14.976 158.688,13.44 C158.688,11.296 156.96,9.472 154.656,9.472 C152.928,9.472 151.616,10.752 150.976,11.776 L150.976,9.6 L146.496,9.6 L146.496,10.56 L148.736,10.56 L148.736,24.64 L146.496,24.64 L146.496,25.6 Z M150.976,24.8 L150.976,17.44 L153.408,17.44 C155.52,17.44 158.56,17.984 158.56,21.152 C158.56,23.424 156.96,24.8 154.944,24.8 L150.976,24.8 Z M150.976,16.48 L150.976,13.248 C151.552,11.968 152.64,10.24 154.016,10.24 C155.776,10.24 156.416,11.904 156.416,13.44 C156.416,16.416 153.376,16.48 151.616,16.48 L150.976,16.48 Z" id="Shape"></path>
                        <path d="M178.528,25.76 C181.28,25.76 181.888,22.816 181.888,20.96 L180.448,20.96 C180.448,21.888 180.192,24.96 178.784,24.96 C177.664,24.96 177.248,23.2 177.248,21.536 L177.248,14.816 C177.248,11.168 174.016,9.44 170.912,9.44 C168.224,9.44 164.544,10.56 164.544,14.24 L165.984,14.24 C165.984,11.776 168.288,10.24 170.24,10.24 C173.504,10.24 175.008,12.064 175.008,14.816 L175.008,16.576 C173.76,15.392 171.904,14.816 170.112,14.816 C167.04,14.816 164.16,16.736 164.16,20.16 C164.16,23.584 167.04,25.76 170.112,25.76 C172.096,25.76 174.176,24.96 175.392,23.488 C175.84,24.96 176.8,25.76 178.528,25.76 Z M166.56,20.16 C166.56,17.504 168.832,15.616 171.168,15.616 C172.96,15.616 174.4,16.864 175.008,18.464 L175.008,20.512 C175.008,20.992 175.04,21.44 175.072,21.888 C174.496,23.456 173.024,24.96 171.168,24.96 C168.832,24.96 166.56,22.816 166.56,20.16 Z" id="Shape"></path>
                        <polygon id="Path" points="186.016 25.6 192.736 25.6 192.736 24.64 190.496 24.64 190.496 10.56 194.848 10.56 194.848 12.8 195.808 12.8 195.808 9.6 182.848 9.6 182.848 12.8 183.808 12.8 183.808 10.56 188.256 10.56 188.256 24.64 186.016 24.64"></polygon>
                        <path d="M196.928,25.6 L205.024,25.6 C207.584,25.6 210.464,23.648 210.464,20.672 C210.464,17.6 207.456,15.68 204.864,15.68 L201.408,15.68 L201.408,10.56 L203.648,10.56 L203.648,9.6 L196.928,9.6 L196.928,10.56 L199.168,10.56 L199.168,24.64 L196.928,24.64 L196.928,25.6 Z M201.408,24.8 L201.408,16.48 L202.912,16.48 C205.024,16.48 208.064,17.504 208.064,20.672 C208.064,22.944 206.464,24.8 204.448,24.8 L201.408,24.8 Z" id="Shape"></path>
                    </g>
                </g>
            </g>
        </g>
    </g>
</svg>