<?xml version="1.0" encoding="UTF-8"?>
<svg width="320px" height="40px" viewBox="0 0 320 40" version="1.1" xmlns="http://www.w3.org/2000/svg" xmlns:xlink="http://www.w3.org/1999/xlink">
    <title>apium-latin-light-italic</title>
    <g id="_exports" stroke="none" stroke-width="1" fill="none" fill-rule="evenodd">
        <g id="Apium" transform="translate(0, -756)">
            <g id="apium-styles" transform="translate(0, 686)">
                <g id="apium-latin-light-italic" transform="translate(0, 70)">
                    <rect id="Rectangle-Copy-8" fill="#F7DF88" opacity="0" x="0" y="0" width="320" height="40"></rect>
                    <g transform="translate(4.208, 6.8172)" fill="#424345" fill-rule="nonzero">
                        <path d="M12.896,26.8627609 C13.728,26.8627609 15.616,26.4467609 15.616,25.4227609 C15.616,24.3987609 14.976,23.9827609 14.144,23.9827609 C12.576,23.9827609 11.904,25.1027609 10.336,25.1027609 C9.344,25.1027609 8.448,24.2067609 7.904,23.3427609 C15.04,23.2787609 19.872,16.2707609 19.872,9.64676088 C19.872,5.13476088 17.472,1.26276088 12.128,1.26276088 C4.928,1.26276088 0,8.43076088 0,14.9267609 C0,19.0867609 2.048,22.6707609 6.464,23.2467609 C6.88,23.9187609 7.168,24.3027609 7.744,24.8787609 C9.024,26.1907609 10.368,26.8627609 12.896,26.8627609 Z M2.368,15.2147609 C2.368,10.2547609 5.28,2.06276088 11.872,2.06276088 C16.192,2.06276088 17.536,5.83876088 17.536,9.26276088 C17.536,14.1907609 14.752,22.5427609 8.064,22.5427609 C3.712,22.5427609 2.368,18.7027609 2.368,15.2147609 Z" id="Shape"></path>
                        <path d="M26.624,23.3427609 C28.576,23.3427609 30.304,21.8387609 31.68,20.3667609 L31.68,20.6227609 C31.68,21.8067609 31.904,23.3427609 33.952,23.3427609 C34.88,23.3427609 35.712,22.6387609 36.704,21.7427609 L36.832,20.9427609 C35.968,21.8707609 35.264,22.5427609 34.624,22.5427609 C34.208,22.5427609 33.792,22.1907609 33.792,21.0707609 C33.792,19.7267609 36.032,8.78276088 36.416,7.02276088 L34.08,7.43876088 C33.76,8.78276088 32.192,16.3667609 31.776,19.5347609 C30.496,21.0707609 28.768,22.5427609 27.008,22.5427609 C25.472,22.5427609 24.864,21.2627609 24.864,19.7587609 C24.864,18.7347609 26.112,13.1667609 26.944,9.03876088 C27.2,7.88676088 27.04,7.24676088 26.368,7.08676088 C25.632,6.92676088 24.768,7.11876088 22.56,8.14276088 L22.4,8.75076088 C22.752,8.52676088 23.936,7.91876088 24.416,8.01476088 C24.832,8.11076088 24.8,8.68676088 24.704,9.10276088 L24.64,9.42276088 C23.712,13.2307609 22.624,18.3507609 22.624,19.7587609 C22.624,21.9667609 23.904,23.3427609 26.624,23.3427609 Z" id="Path"></path>
                        <path d="M44.512,23.3427609 C46.592,23.3427609 48.8,22.3187609 50.4,20.5907609 L50.4,20.6227609 C50.4,21.8067609 50.624,23.3427609 52.672,23.3427609 C53.6,23.3427609 54.432,22.6387609 55.424,21.7427609 L55.552,20.9427609 C54.688,21.8707609 53.984,22.5427609 53.344,22.5427609 C52.928,22.5427609 52.512,22.1907609 52.512,21.0707609 C52.512,19.7267609 54.752,8.78276088 55.136,7.02276088 L52.8,7.43876088 C52.704,7.82276088 52.512,8.81476088 52.256,10.0307609 C51.424,8.17476088 49.92,7.02276088 47.712,7.02276088 C42.56,7.02276088 39.52,12.6227609 39.52,17.4867609 C39.52,20.4947609 40.768,23.3427609 44.512,23.3427609 Z M41.92,17.3907609 C41.92,14.0947609 43.744,7.82276088 48.512,7.82276088 C51.2,7.82276088 51.552,10.8947609 51.616,13.2307609 C51.296,14.7667609 51.008,16.3347609 50.784,17.6787609 C49.984,20.1107609 48.096,22.5427609 45.824,22.5427609 C42.816,22.5427609 41.92,19.7587609 41.92,17.3907609 Z" id="Shape"></path>
                        <path d="M62.912,23.3427609 C64.96,23.3427609 67.168,22.3507609 68.768,20.6227609 C68.768,21.8067609 68.992,23.3427609 71.04,23.3427609 C71.968,23.3427609 72.8,22.6387609 73.792,21.7427609 L73.92,20.9427609 C73.056,21.8707609 72.352,22.5427609 71.712,22.5427609 C71.296,22.5427609 70.88,22.1907609 70.88,21.0707609 C70.88,19.9187609 73.536,6.95876088 74.56,1.96676088 C74.816,0.81476088 74.656,0.17476088 73.984,0.0467608803 C73.248,-0.11323912 72.384,0.11076088 70.208,1.16676088 L70.08,1.77476088 C70.4,1.55076088 71.584,0.91076088 72.064,1.00676088 C72.448,1.10276088 72.448,1.64676088 72.352,2.09476088 L72.288,2.41476088 C71.808,4.49476088 71.232,7.27876088 70.656,10.0627609 C69.856,8.17476088 68.32,7.02276088 66.112,7.02276088 C60.96,7.02276088 57.92,12.6227609 57.92,17.4867609 C57.92,20.4947609 59.168,23.3427609 62.912,23.3427609 Z M60.32,17.3907609 C60.32,14.0947609 62.144,7.82276088 66.912,7.82276088 C69.6,7.82276088 69.984,10.9587609 70.016,13.2947609 L69.184,17.6147609 C68.384,20.0787609 66.464,22.5427609 64.16,22.5427609 C61.152,22.5427609 60.32,19.7587609 60.32,17.3907609 Z" id="Shape"></path>
                        <path d="M79.552,20.2707609 C80,17.9027609 82.56,7.82276088 86.592,7.82276088 C87.328,7.82276088 88.032,8.30276088 88.448,8.97476088 C87.328,9.23076088 86.048,10.5427609 86.048,11.5667609 C86.048,12.1107609 86.432,12.4627609 87.04,12.4627609 C88.16,12.4627609 89.792,11.3747609 89.792,10.1907609 C89.792,8.59076088 88.384,7.02276088 86.944,7.02276088 C84.48,7.02276088 82.24,10.7027609 80.864,13.4867609 L81.76,9.00676088 C81.984,7.85476088 81.824,7.21476088 81.152,7.08676088 C80.384,6.95876088 79.552,7.18276088 77.376,8.23876088 L77.248,8.87876088 C77.6,8.65476088 78.752,7.98276088 79.232,8.07876088 C79.648,8.17476088 79.616,8.71876088 79.552,9.16676088 L79.488,9.48676088 L76.736,23.1827609 L78.976,23.1827609 L79.552,20.2707609 Z" id="Path"></path>
                        <path d="M95.36,23.3427609 C97.44,23.3427609 99.648,22.3187609 101.248,20.5907609 L101.248,20.6227609 C101.248,21.8067609 101.472,23.3427609 103.52,23.3427609 C104.448,23.3427609 105.28,22.6387609 106.272,21.7427609 L106.4,20.9427609 C105.536,21.8707609 104.832,22.5427609 104.192,22.5427609 C103.776,22.5427609 103.36,22.1907609 103.36,21.0707609 C103.36,19.7267609 105.6,8.78276088 105.984,7.02276088 L103.648,7.43876088 C103.552,7.82276088 103.36,8.81476088 103.104,10.0307609 C102.272,8.17476088 100.768,7.02276088 98.56,7.02276088 C93.408,7.02276088 90.368,12.6227609 90.368,17.4867609 C90.368,20.4947609 91.616,23.3427609 95.36,23.3427609 Z M92.768,17.3907609 C92.768,14.0947609 94.592,7.82276088 99.36,7.82276088 C102.048,7.82276088 102.4,10.8947609 102.464,13.2307609 C102.144,14.7667609 101.856,16.3347609 101.632,17.6787609 C100.832,20.1107609 98.944,22.5427609 96.672,22.5427609 C93.664,22.5427609 92.768,19.7587609 92.768,17.3907609 Z" id="Shape"></path>
                        <path d="M116.032,23.3427609 C121.184,23.3427609 124.224,17.7427609 124.224,12.8787609 C124.224,9.87076088 122.304,7.02276088 119.232,7.02276088 C116.832,7.02276088 114.656,9.90276088 113.056,13.4867609 L113.92,9.00676088 C114.144,7.85476088 113.984,7.21476088 113.312,7.08676088 C112.544,6.95876088 111.712,7.18276088 109.536,8.23876088 L109.408,8.87876088 C109.76,8.65476088 110.912,7.98276088 111.392,8.07876088 C111.808,8.17476088 111.776,8.71876088 111.712,9.16676088 L111.648,9.48676088 L107.584,29.9027609 L105.344,29.9027609 L105.152,30.8627609 L111.68,30.8627609 L111.872,29.9027609 L109.824,29.9027609 L111.584,20.9427609 L111.584,20.8467609 L111.648,20.6547609 C112.48,22.3187609 113.952,23.3427609 116.032,23.3427609 Z M112.224,18.1587609 C113.6,12.7187609 115.968,7.82276088 118.848,7.82276088 C121.536,7.82276088 121.824,10.6067609 121.824,12.9747609 C121.824,16.2707609 120.096,22.5427609 115.04,22.5427609 C113.12,22.5427609 112.416,20.2707609 112.224,18.1587609 Z" id="Shape"></path>
                        <path d="M126.496,23.1827609 L128.736,23.1827609 L129.408,19.7907609 C130.464,15.0547609 132.928,7.82276088 136.288,7.82276088 C137.408,7.82276088 138.048,8.59076088 138.048,10.0307609 C138.048,12.2387609 136.032,18.7027609 136.032,20.9107609 C136.032,22.0947609 136.352,23.3427609 138.4,23.3427609 C139.328,23.3427609 140.128,22.6707609 141.184,21.7427609 L141.344,20.9427609 C140.48,21.8067609 139.712,22.5427609 139.072,22.5427609 C138.656,22.5427609 138.272,22.1907609 138.272,21.0707609 C138.272,19.3107609 140.288,12.3667609 140.288,10.4467609 C140.288,8.43076088 139.008,7.02276088 136.832,7.02276088 C134.112,7.02276088 131.936,10.7027609 130.528,13.9347609 L132.864,1.96676088 C133.088,0.81476088 132.928,0.17476088 132.256,0.0467608803 C131.488,-0.0812391197 130.656,0.14276088 128.48,1.19876088 L128.352,1.83876088 C128.704,1.61476088 129.856,0.94276088 130.336,1.03876088 C130.752,1.13476088 130.72,1.67876088 130.656,2.12676088 L130.592,2.44676088 L126.496,23.1827609 Z" id="Path"></path>
                        <path d="M149.472,23.3427609 C154.528,23.3427609 158.336,18.3187609 158.336,13.2307609 C158.336,9.45476088 155.872,7.02276088 152.64,7.02276088 C147.776,7.02276088 143.744,11.7907609 143.744,17.1027609 C143.744,20.9107609 146.24,23.3427609 149.472,23.3427609 Z M146.176,16.8147609 C146.176,12.4947609 149.216,7.82276088 152.576,7.82276088 C154.88,7.82276088 155.904,10.9267609 155.904,13.5507609 C155.904,17.9987609 152.96,22.5427609 149.696,22.5427609 C147.392,22.5427609 146.176,19.4387609 146.176,16.8147609 Z" id="Shape"></path>
                        <path d="M172.544,23.3427609 C173.472,23.3427609 174.272,22.6707609 175.328,21.7427609 L175.488,20.9427609 C174.624,21.8067609 173.856,22.5427609 173.216,22.5427609 C172.8,22.5427609 172.416,22.1907609 172.416,21.0707609 C172.416,19.3107609 174.432,12.3667609 174.432,10.4467609 C174.432,8.01476088 172.864,7.02276088 170.688,7.02276088 C168.96,7.02276088 166.944,8.33476088 165.504,9.74276088 L165.632,9.00676088 C165.856,7.85476088 165.696,7.21476088 165.024,7.08676088 C164.256,6.95876088 163.424,7.18276088 161.248,8.23876088 L161.12,8.87876088 C161.472,8.65476088 162.624,7.98276088 163.104,8.07876088 C163.52,8.17476088 163.488,8.71876088 163.424,9.16676088 L163.36,9.48676088 L160.608,23.1827609 L162.848,23.1827609 L165.312,10.6067609 C166.656,9.13476088 168.512,7.82276088 170.048,7.82276088 C171.84,7.82276088 172.192,8.62276088 172.192,10.4467609 C172.192,13.3587609 170.176,18.0627609 170.176,20.9107609 C170.176,22.0947609 170.496,23.3427609 172.544,23.3427609 Z" id="Path"></path>
                        <path d="M180.928,23.3427609 C181.856,23.3427609 182.784,22.6387609 183.84,21.7427609 L183.968,20.9427609 C183.2,21.8067609 182.336,22.5427609 181.6,22.5427609 C181.184,22.5427609 180.768,22.1907609 180.768,21.0707609 C180.768,19.9827609 182.24,12.6547609 183.008,9.00676088 C183.264,7.85476088 183.104,7.21476088 182.432,7.08676088 C181.696,6.92676088 180.832,7.15076088 178.624,8.17476088 L178.496,8.81476088 C178.848,8.59076088 180.032,7.95076088 180.512,8.04676088 C180.896,8.14276088 180.896,8.68676088 180.8,9.13476088 L180.736,9.45476088 C179.776,13.4867609 178.656,19.3427609 178.656,20.6227609 C178.656,21.8067609 178.88,23.3427609 180.928,23.3427609 Z M181.28,3.66276088 C181.28,4.39876088 181.824,4.94276088 182.624,4.94276088 C183.616,4.94276088 184.544,4.11076088 184.544,3.05476088 C184.544,2.31876088 184,1.74276088 183.232,1.74276088 C182.24,1.74276088 181.28,2.63876088 181.28,3.66276088 Z" id="Shape"></path>
                        <path d="M192.256,23.3427609 C195.84,23.3427609 198.624,21.0387609 199.616,18.5427609 L197.216,18.5427609 C196.64,19.9827609 195.04,22.5427609 192.48,22.5427609 C189.28,22.5427609 188.8,19.6627609 188.8,17.0067609 C188.8,12.9747609 190.944,7.82276088 195.36,7.82276088 C197.888,7.82276088 199.392,8.87876088 199.872,10.4147609 C198.688,10.5427609 197.248,11.9187609 197.248,13.0067609 C197.248,13.5827609 197.632,13.9347609 198.24,13.9347609 C199.36,13.9347609 201.024,12.8467609 201.024,11.6627609 L201.024,11.6307609 C201.024,8.65476088 198.72,7.02276088 195.488,7.02276088 C189.888,7.02276088 186.432,11.8547609 186.432,16.9427609 C186.432,20.6867609 188.16,23.3427609 192.256,23.3427609 Z" id="Path"></path>
                        <path d="M207.68,23.3427609 C209.76,23.3427609 211.968,22.3187609 213.568,20.5907609 L213.568,20.6227609 C213.568,21.8067609 213.792,23.3427609 215.84,23.3427609 C216.768,23.3427609 217.6,22.6387609 218.592,21.7427609 L218.72,20.9427609 C217.856,21.8707609 217.152,22.5427609 216.512,22.5427609 C216.096,22.5427609 215.68,22.1907609 215.68,21.0707609 C215.68,19.7267609 217.92,8.78276088 218.304,7.02276088 L215.968,7.43876088 C215.872,7.82276088 215.68,8.81476088 215.424,10.0307609 C214.592,8.17476088 213.088,7.02276088 210.88,7.02276088 C205.728,7.02276088 202.688,12.6227609 202.688,17.4867609 C202.688,20.4947609 203.936,23.3427609 207.68,23.3427609 Z M205.088,17.3907609 C205.088,14.0947609 206.912,7.82276088 211.68,7.82276088 C214.368,7.82276088 214.72,10.8947609 214.784,13.2307609 C214.464,14.7667609 214.176,16.3347609 213.952,17.6787609 C213.152,20.1107609 211.264,22.5427609 208.992,22.5427609 C205.984,22.5427609 205.088,19.7587609 205.088,17.3907609 Z" id="Shape"></path>
                        <path d="M223.808,23.3427609 C224.736,23.3427609 225.504,22.6707609 226.56,21.7427609 L226.688,20.9427609 C225.824,21.8707609 225.12,22.5427609 224.48,22.5427609 C224.064,22.5427609 223.648,22.1907609 223.648,21.0707609 C223.648,19.9187609 226.272,6.95876088 227.296,1.96676088 C227.552,0.81476088 227.392,0.17476088 226.72,0.0467608803 C225.984,-0.11323912 225.12,0.11076088 222.912,1.13476088 L222.784,1.77476088 C223.136,1.55076088 224.32,0.91076088 224.8,1.00676088 C225.184,1.10276088 225.184,1.64676088 225.088,2.09476088 L225.024,2.41476088 C223.712,8.14276088 221.536,19.2467609 221.536,20.6227609 C221.536,21.8067609 221.76,23.3427609 223.808,23.3427609 Z" id="Path"></path>
                        <path d="M231.776,23.3427609 C232.704,23.3427609 233.472,22.6707609 234.528,21.7427609 L234.656,20.9427609 C233.792,21.8707609 233.088,22.5427609 232.448,22.5427609 C232.032,22.5427609 231.616,22.1907609 231.616,21.0707609 C231.616,19.9187609 234.24,6.95876088 235.264,1.96676088 C235.52,0.81476088 235.36,0.17476088 234.688,0.0467608803 C233.952,-0.11323912 233.088,0.11076088 230.88,1.13476088 L230.752,1.77476088 C231.104,1.55076088 232.288,0.91076088 232.768,1.00676088 C233.152,1.10276088 233.152,1.64676088 233.056,2.09476088 L232.992,2.41476088 C231.68,8.14276088 229.504,19.2467609 229.504,20.6227609 C229.504,21.8067609 229.728,23.3427609 231.776,23.3427609 Z" id="Path"></path>
                        <path d="M236.896,31.0227609 C238.4,31.0227609 239.232,29.7747609 239.904,28.5907609 L252.064,7.18276088 L248.704,7.18276088 L248.512,8.14276088 L250.56,8.14276088 L244,19.6947609 L241.792,8.30276088 C241.504,7.18276088 240.864,6.92676088 240.224,7.05476088 C239.488,7.21476088 238.464,8.07876088 237.248,10.1907609 L237.344,10.7987609 C237.504,10.3827609 238.496,8.94276088 238.88,8.84676088 C239.136,8.81476088 239.296,8.94276088 239.36,9.29476088 L239.456,9.64676088 L242.048,23.1827609 L239.264,28.0787609 C238.912,28.6867609 238.016,30.2227609 237.152,30.2227609 C236.48,30.2227609 236.096,29.9667609 235.968,29.0387609 C237.088,29.0067609 238.72,27.9507609 238.72,26.7667609 C238.72,26.1907609 238.464,25.5187609 237.728,25.5187609 C236.544,25.5187609 235.04,26.8947609 234.944,28.0147609 L234.944,28.1747609 C234.976,29.9987609 235.456,31.0227609 236.896,31.0227609 Z" id="Path"></path>
                    </g>
                </g>
            </g>
        </g>
    </g>
</svg>