<svg xmlns="http://www.w3.org/2000/svg" width="320" height="40"><g fill="#424345" fill-rule="nonzero"><path d="M14.28 30.64c6.88 0 10.464-6.432 10.464-12.672 0-5.92-3.168-11.648-9.696-11.648-1.088 0-2.272.192-3.552.64-.896.384-2.08 1.44-2.08 2.56 0 .992.768 1.792 1.824 1.792 1.344 0 2.72-1.248 2.72-2.624 0-.448-.128-.832-.352-1.152.352-.032.736-.064 1.056-.064 4 0 5.088 3.456 5.088 6.048 0 .928-.096 1.856-.224 2.72-1.536-2.016-3.36-2.88-5.216-2.88-4.256 0-8.48 4.672-8.48 10.368 0 4.896 4.512 6.912 8.448 6.912Zm-1.984-4.608c0-2.72 1.44-10.432 4.672-10.432 1.632 0 2.144 2.016 2.144 4.096 0 2.976-1.376 9.984-4.672 9.984-1.664 0-2.144-1.728-2.144-3.648ZM31.56 30.64c2.08 0 4.544-1.376 6.112-3.008.48 1.664 2.08 3.008 4.512 3.008 2.88 0 3.968-1.408 4.832-2.592l.256-1.248c-.672.672-1.6 1.6-2.656 1.6-.64 0-.864-.288-.864-.8 0-.736 2.208-11.424 2.72-14.24l-6.656 1.28c-.416 1.92-2.304 11.296-2.304 11.84v.064c-.832 1.024-1.888 1.856-2.848 1.856-.832 0-1.152-.48-1.152-1.376 0-1.184 1.376-7.36 2.144-11.04.224-1.12-.672-2.176-2.112-2.464-2.656-.576-4.832.576-6.816 1.664l-.384 1.824c1.216-.736 2.144-.96 2.496-.896.128.032.352.16.256.576l-.192.832c-.96 4.8-1.792 8.928-1.792 9.504 0 2.144 1.632 3.616 4.448 3.616ZM65.032 30.64c2.88 0 3.968-1.408 4.832-2.592l.256-1.248c-.672.672-1.6 1.6-2.656 1.6-.64 0-.864-.288-.864-.8 0-1.92 2.176-9.696 2.176-10.624 0-2.144-1.632-3.616-4.448-3.616-1.728 0-3.712.96-5.248 2.208-.064-.96-.928-1.792-2.176-2.016-2.624-.544-4.768.64-6.752 1.76l-.352 1.824c1.184-.736 2.112-.992 2.464-.928.096.032.352.16.256.576l-.192.832L49.896 30h6.4l2.56-13.088c.736-.768 1.6-1.312 2.368-1.312.832 0 1.152.48 1.152 1.376 0 1.44-1.92 6.816-1.92 9.632 0 2.176 1.6 4.032 4.576 4.032ZM73.416 30.64c4.544 0 5.632-5.312 7.616-15.328h3.392l-2.496 12.704c-.224 1.12.704 2.176 2.144 2.432 2.624.544 4.768-.64 6.752-1.76l.352-1.824c-1.184.736-2.112.992-2.464.928-.096-.032-.352-.16-.256-.576l.192-.832L91.112 14H77.064l-.48 1.6 3.04.32c-1.888 9.664-2.784 13.76-6.368 13.76-.16 0-.32 0-.48-.064 1.568-.48 3.232-1.952 3.232-3.392 0-1.12-.352-1.856-1.44-1.856-1.728 0-4.32 1.76-4.32 3.552 0 2.08 1.44 2.72 3.168 2.72ZM101.704 30.64c6.336 0 11.776-4.512 11.776-10.368 0-4.576-4-6.912-8.448-6.912-6.304 0-11.776 4.48-11.776 10.368 0 4.576 4 6.912 8.448 6.912Zm-2.016-4.544c0-2.88 1.792-11.776 5.184-11.776 1.28 0 2.176.928 2.176 3.584 0 2.88-1.792 11.776-5.184 11.776-1.28 0-2.176-.928-2.176-3.584ZM116.68 30.64c2.56 0 3.776-1.76 6.208-14.208L124.936 30h1.248l7.744-13.024-2.176 11.04c-.224 1.12.704 2.176 2.144 2.432 2.624.544 4.768-.64 6.752-1.76l.352-1.824c-1.184.736-2.112.992-2.464.928-.096-.032-.352-.16-.256-.576l.192-.832L140.904 14h-6.496l-5.568 9.376L127.112 14h-8.352l-.48 1.6 3.2.32c-.896 6.752-2.464 13.76-4.64 13.76-.704 0-1.216-.288-1.536-.768 1.536-.256 3.392-1.696 3.392-3.136 0-.96-.32-1.632-1.28-1.632-1.536 0-3.808 1.536-3.808 3.136v.032c0 2.08 1.184 3.328 3.072 3.328ZM148.296 30.64c2.784 0 5.056-1.664 6.624-3.488.32 1.888 1.952 3.488 4.608 3.488 2.88 0 3.968-1.408 4.832-2.592l.256-1.248c-.672.672-1.6 1.6-2.656 1.6-.64 0-.864-.288-.864-.8 0-.736 2.176-11.424 2.688-14.24l-6.688 1.28a38.52 38.52 0 0 0-.416 2.08c-.896-1.824-2.464-3.36-5.056-3.36-5.536 0-8.608 6.176-8.608 11.104 0 3.168 1.344 6.176 5.28 6.176Zm1.376-5.664c0-2.656 1.312-9.376 4.544-9.376 1.152 0 1.792 1.44 2.112 2.912-.544 2.656-1.12 5.824-1.376 7.232-.896 1.408-2.144 2.656-3.232 2.656-1.28 0-2.048-1.152-2.048-3.424ZM192.04 30.64c2.88 0 3.968-1.408 4.832-2.592l.256-1.248c-.672.672-1.6 1.6-2.656 1.6-.64 0-.864-.288-.864-.8 0-1.92 2.176-9.696 2.176-10.624 0-2.144-1.632-3.616-4.448-3.616-1.856 0-4 1.088-5.536 2.464-.512-1.504-2.016-2.464-4.288-2.464-1.728 0-3.712.96-5.248 2.208-.064-.96-.928-1.792-2.176-2.016-2.624-.544-4.768.64-6.752 1.76l-.352 1.824c1.184-.736 2.112-.992 2.464-.928.096.032.352.16.256.576l-.192.832L167.08 30h6.4l2.56-13.088c.736-.768 1.6-1.312 2.368-1.312.832 0 1.152.48 1.152 1.376 0 1.44-2.016 10.208-2.528 13.024h6.368c.416-1.92 2.56-12.096 2.56-13.024v-.16c.704-.704 1.536-1.216 2.272-1.216.832 0 1.152.48 1.152 1.376 0 1.44-1.92 6.816-1.92 9.632 0 2.176 1.6 4.032 4.576 4.032ZM204.552 30.64c2.08 0 4.544-1.376 6.112-3.008.48 1.664 2.08 3.008 4.512 3.008 2.88 0 3.968-1.408 4.832-2.592l.256-1.248c-.672.672-1.6 1.6-2.656 1.6-.64 0-.864-.288-.864-.8 0-.736 2.208-11.424 2.72-14.24l-6.656 1.28c-.416 1.92-2.304 11.296-2.304 11.84v.064c-.832 1.024-1.888 1.856-2.848 1.856-.832 0-1.152-.48-1.152-1.376 0-1.184 1.376-7.36 2.144-11.04.224-1.12-.672-2.176-2.112-2.464-2.656-.576-4.832.576-6.816 1.664l-.384 1.824c1.216-.736 2.144-.96 2.496-.896.128.032.352.16.256.576l-.192.832c-.96 4.8-1.792 8.928-1.792 9.504 0 2.144 1.632 3.616 4.448 3.616ZM229.096 23.6c1.76 0 3.744-1.088 5.248-2.464-.512 2.624-.992 5.088-.992 5.344 0 2.176 1.696 4.16 4.672 4.16 2.88 0 3.968-1.408 4.832-2.592l.256-1.248c-.672.672-1.6 1.6-2.656 1.6-.64 0-.864-.288-.864-.8 0-.736 2.208-11.424 2.72-14.24l-6.656 1.28-1.056 5.12c-.736.896-1.632 1.6-2.496 1.6-.896 0-1.248-.448-1.248-1.376 0-.448.48-2.464.896-4.032.288-1.088-.544-2.144-1.984-2.432-2.624-.512-4.768.672-6.752 1.76l-.384 1.824c1.216-.736 2.144-.96 2.464-.896.128.032.384.16.288.576l-.192.832c-.384 1.952-.48 2.464-.48 2.528 0 2.528 1.696 3.456 4.384 3.456ZM265.768 13.36l-6.688 1.28-1.248 6.464h-3.936l.992-5.12c.224-1.12-.704-2.176-2.144-2.432-2.624-.544-4.768.64-6.752 1.76l-.352 1.824c1.184-.736 2.112-.992 2.464-.928.096.032.352.16.256.576l-.192.832L245.736 30h6.4l1.504-7.616h3.936l-1.088 5.632c-.224 1.12.704 2.176 2.144 2.432 2.624.512 4.768-.672 6.752-1.76l.352-1.824c-1.184.736-2.112.992-2.464.928-.128-.032-.352-.192-.256-.576l.192-.864 2.56-12.992ZM276.264 30.64c6.336 0 11.776-4.512 11.776-10.368 0-4.576-4-6.912-8.448-6.912-6.304 0-11.776 4.48-11.776 10.368 0 4.576 4 6.912 8.448 6.912Zm-2.016-4.544c0-2.88 1.792-11.776 5.184-11.776 1.28 0 2.176.928 2.176 3.584 0 2.88-1.792 11.776-5.184 11.776-1.28 0-2.176-.928-2.176-3.584Z"/></g></svg>