<?xml version="1.0" encoding="UTF-8"?>
<svg width="320px" height="40px" viewBox="0 0 320 40" version="1.1" xmlns="http://www.w3.org/2000/svg" xmlns:xlink="http://www.w3.org/1999/xlink">
    <title>apium-latin-black-italic</title>
    <g id="_exports" stroke="none" stroke-width="1" fill="none" fill-rule="evenodd">
        <g id="Apium" transform="translate(-1401, -756)">
            <g id="apium-styles" transform="translate(0, 686)">
                <g id="apium-latin-black-italic" transform="translate(1401, 70)">
                    <rect id="Rectangle-Copy-10" fill="#F7DF88" opacity="0" x="0" y="0" width="320" height="40"></rect>
                    <g transform="translate(1.416, 6.3572)" fill="#424345" fill-rule="nonzero">
                        <polygon id="Path" points="0 23.6428254 4.16 23.6428254 4.48 22.0428254 3.264 21.7228254 6.496 5.17882537 9.92 23.6428254 11.552 23.6428254 20.832 6.49082537 17.856 21.7228254 16.192 22.0428254 15.872 23.6428254 25.152 23.6428254 25.472 22.0428254 24.256 21.7228254 27.744 3.80282537 29.664 3.48282537 29.984 1.88282537 21.728 1.88282537 14.752 14.7468254 12.896 1.88282537 3.872 1.88282537 3.552 3.48282537 5.472 3.80282537 1.984 21.7228254 0.32 22.0428254"></polygon>
                        <path d="M35.648,24.2828254 C38.528,24.2828254 39.616,22.8748254 40.48,21.6908254 L40.736,20.4428254 C40.064,21.1148254 39.136,22.0428254 38.08,22.0428254 C37.44,22.0428254 37.216,21.7548254 37.216,21.2428254 C37.216,20.6348254 38.688,13.5948254 39.456,9.62682537 C39.68,8.50682537 38.752,7.45082537 37.312,7.16282537 C34.688,6.61882537 32.544,7.77082537 30.528,8.85882537 L30.176,10.6828254 C31.36,9.94682537 32.288,9.72282537 32.64,9.78682537 C32.768,9.81882537 32.992,9.97882537 32.896,10.3628254 L32.704,11.2268254 C31.68,15.7708254 30.976,19.5468254 30.976,20.1228254 C30.976,22.2988254 32.672,24.2828254 35.648,24.2828254 Z M35.072,3.45082537 C35.072,4.57082537 35.872,5.40282537 36.992,5.40282537 C38.464,5.40282537 39.872,4.05882537 39.872,2.58682537 C39.872,1.53082537 39.072,0.66682537 37.92,0.66682537 C36.48,0.66682537 35.072,2.01082537 35.072,3.45082537 Z" id="Shape"></path>
                        <path d="M49.312,24.2828254 C53.312,24.2828254 57.472,22.4908254 57.472,18.7788254 C57.472,15.2588254 50.496,15.3868254 50.496,10.6828254 C50.496,9.05082537 51.872,7.96282537 54.144,7.96282537 C55.008,7.96282537 55.936,8.12282537 56.64,8.47482537 C54.88,8.92282537 53.056,10.7468254 53.056,12.3788254 C53.056,13.2428254 53.6,13.8188254 54.56,13.8188254 C56.288,13.8188254 58.88,12.0268254 58.88,10.2668254 C58.88,9.75482537 58.784,9.24282537 58.496,8.85882537 C57.44,7.25882537 54.496,7.00282537 52.224,7.00282537 C47.936,7.00282537 43.648,9.11482537 43.648,13.0828254 C43.648,17.0188254 50.624,17.3388254 50.624,21.2428254 C50.624,22.8428254 49.024,23.3228254 47.936,23.3228254 C45.792,23.3228254 44.896,21.7228254 44.896,18.8108254 L42.336,18.8108254 L41.376,23.6428254 L42.336,23.6428254 C42.496,22.8108254 42.688,22.0748254 42.976,21.5308254 C44.224,23.8348254 47.104,24.2828254 49.312,24.2828254 Z" id="Path"></path>
                        <path d="M65.312,24.2828254 C68.096,24.2828254 70.368,22.6188254 71.936,20.7948254 C72.256,22.6828254 73.888,24.2828254 76.544,24.2828254 C79.424,24.2828254 80.512,22.8748254 81.376,21.6908254 L81.632,20.4428254 C80.96,21.1148254 80.032,22.0428254 78.976,22.0428254 C78.336,22.0428254 78.112,21.7548254 78.112,21.2428254 C78.112,20.6028254 80.64,7.93082537 81.664,2.58682537 C81.888,1.49882537 80.96,0.41082537 79.52,0.12282537 C76.896,-0.38917463 74.752,0.79482537 72.768,1.91482537 L72.384,3.70682537 C73.6,2.97082537 74.528,2.74682537 74.848,2.81082537 C74.976,2.84282537 75.232,2.97082537 75.136,3.38682537 L74.944,4.21882537 C74.528,6.20282537 74.112,8.34682537 73.696,10.3628254 C72.8,8.50682537 71.168,7.00282537 68.64,7.00282537 C63.104,7.00282537 60.032,13.1788254 60.032,18.1068254 C60.032,21.2748254 61.376,24.2828254 65.312,24.2828254 Z M66.688,18.6188254 C66.688,15.9308254 68,9.24282537 71.232,9.24282537 C72.416,9.24282537 73.056,10.6508254 73.344,12.1228254 C72.736,15.3548254 72.192,18.1068254 72,19.3868254 C71.104,20.7948254 69.824,22.0428254 68.736,22.0428254 C67.456,22.0428254 66.688,20.8908254 66.688,18.6188254 Z" id="Shape"></path>
                        <path d="M92.128,24.2828254 C94.336,24.2828254 100,23.5788254 101.408,19.9628254 L96.032,19.9628254 C95.328,22.0108254 93.696,23.3228254 92.288,23.3228254 C90.752,23.3228254 90.432,21.4668254 90.4,19.5468254 C95.104,19.3228254 103.04,17.0188254 103.04,12.6348254 C103.04,9.43482537 99.936,7.00282537 95.456,7.00282537 C89.152,7.00282537 83.68,11.4828254 83.68,17.3708254 C83.68,21.9468254 87.68,24.2828254 92.128,24.2828254 Z M90.496,18.5548254 C90.56,14.8428254 91.936,7.96282537 95.296,7.96282537 C96.576,7.96282537 97.568,9.69082537 97.568,11.3228254 C97.568,14.1388254 95.744,18.1068254 90.496,18.5548254 Z" id="Shape"></path>
                        <path d="M129.824,24.2828254 C132.704,24.2828254 133.792,22.8748254 134.656,21.6908254 L134.912,20.4428254 C134.24,21.1148254 133.312,22.0428254 132.256,22.0428254 C131.616,22.0428254 131.392,21.7548254 131.392,21.2428254 C131.392,19.3228254 133.568,11.5468254 133.568,10.6188254 C133.568,8.47482537 131.936,7.00282537 129.12,7.00282537 C127.264,7.00282537 125.12,8.09082537 123.584,9.46682537 C123.072,7.96282537 121.568,7.00282537 119.296,7.00282537 C117.568,7.00282537 115.584,7.96282537 114.048,9.21082537 C113.984,8.25082537 113.12,7.41882537 111.872,7.19482537 C109.248,6.65082537 107.104,7.83482537 105.12,8.95482537 L104.768,10.7788254 C105.952,10.0428254 106.88,9.78682537 107.232,9.85082537 C107.328,9.88282537 107.584,10.0108254 107.488,10.4268254 L107.296,11.2588254 L104.864,23.6428254 L111.264,23.6428254 L113.824,10.5548254 C114.56,9.78682537 115.424,9.24282537 116.192,9.24282537 C117.024,9.24282537 117.344,9.72282537 117.344,10.6188254 C117.344,12.0588254 115.328,20.8268254 114.816,23.6428254 L121.184,23.6428254 C121.6,21.7228254 123.744,11.5468254 123.744,10.6188254 L123.744,10.4588254 C124.448,9.75482537 125.28,9.24282537 126.016,9.24282537 C126.848,9.24282537 127.168,9.72282537 127.168,10.6188254 C127.168,12.0588254 125.248,17.4348254 125.248,20.2508254 C125.248,22.4268254 126.848,24.2828254 129.824,24.2828254 Z" id="Path"></path>
                        <path d="M145.248,24.2828254 C147.456,24.2828254 153.12,23.5788254 154.528,19.9628254 L149.152,19.9628254 C148.448,22.0108254 146.816,23.3228254 145.408,23.3228254 C143.872,23.3228254 143.552,21.4668254 143.52,19.5468254 C148.224,19.3228254 156.16,17.0188254 156.16,12.6348254 C156.16,9.43482537 153.056,7.00282537 148.576,7.00282537 C142.272,7.00282537 136.8,11.4828254 136.8,17.3708254 C136.8,21.9468254 140.8,24.2828254 145.248,24.2828254 Z M143.616,18.5548254 C143.68,14.8428254 145.056,7.96282537 148.416,7.96282537 C149.696,7.96282537 150.688,9.69082537 150.688,11.3228254 C150.688,14.1388254 148.864,18.1068254 143.616,18.5548254 Z" id="Shape"></path>
                        <path d="M162.624,24.2828254 C165.408,24.2828254 167.68,22.6188254 169.248,20.7948254 C169.568,22.6828254 171.2,24.2828254 173.856,24.2828254 C176.736,24.2828254 177.824,22.8748254 178.688,21.6908254 L178.944,20.4428254 C178.272,21.1148254 177.344,22.0428254 176.288,22.0428254 C175.648,22.0428254 175.424,21.7548254 175.424,21.2428254 C175.424,20.5068254 177.6,9.81882537 178.112,7.00282537 L171.424,8.28282537 C171.328,8.69882537 171.168,9.43482537 171.008,10.3628254 C170.112,8.53882537 168.544,7.00282537 165.952,7.00282537 C160.416,7.00282537 157.344,13.1788254 157.344,18.1068254 C157.344,21.2748254 158.688,24.2828254 162.624,24.2828254 Z M164,18.6188254 C164,15.9628254 165.312,9.24282537 168.544,9.24282537 C169.696,9.24282537 170.336,10.6828254 170.656,12.1548254 C170.112,14.8108254 169.536,17.9788254 169.28,19.3868254 C168.384,20.7948254 167.136,22.0428254 166.048,22.0428254 C164.768,22.0428254 164,20.8908254 164,18.6188254 Z" id="Shape"></path>
                        <path d="M196.544,24.2828254 C199.424,24.2828254 200.512,22.8748254 201.376,21.6908254 L201.632,20.4428254 C200.96,21.1148254 200.032,22.0428254 198.976,22.0428254 C198.336,22.0428254 198.112,21.7548254 198.112,21.2428254 C198.112,19.3228254 200.288,11.5468254 200.288,10.6188254 C200.288,8.47482537 198.656,7.00282537 195.84,7.00282537 C194.112,7.00282537 192.128,7.96282537 190.592,9.21082537 C190.528,8.25082537 189.664,7.41882537 188.416,7.19482537 C185.792,6.65082537 183.648,7.83482537 181.664,8.95482537 L181.312,10.7788254 C182.496,10.0428254 183.424,9.78682537 183.776,9.85082537 C183.872,9.88282537 184.128,10.0108254 184.032,10.4268254 L183.84,11.2588254 L181.408,23.6428254 L187.808,23.6428254 L190.368,10.5548254 C191.104,9.78682537 191.968,9.24282537 192.736,9.24282537 C193.568,9.24282537 193.888,9.72282537 193.888,10.6188254 C193.888,12.0588254 191.968,17.4348254 191.968,20.2508254 C191.968,22.4268254 193.568,24.2828254 196.544,24.2828254 Z" id="Path"></path>
                        <path d="M208.736,24.2828254 C211.52,24.2828254 213.792,22.6188254 215.36,20.7948254 C215.68,22.6828254 217.312,24.2828254 219.968,24.2828254 C222.848,24.2828254 223.936,22.8748254 224.8,21.6908254 L225.056,20.4428254 C224.384,21.1148254 223.456,22.0428254 222.4,22.0428254 C221.76,22.0428254 221.536,21.7548254 221.536,21.2428254 C221.536,20.5068254 223.712,9.81882537 224.224,7.00282537 L217.536,8.28282537 C217.44,8.69882537 217.28,9.43482537 217.12,10.3628254 C216.224,8.53882537 214.656,7.00282537 212.064,7.00282537 C206.528,7.00282537 203.456,13.1788254 203.456,18.1068254 C203.456,21.2748254 204.8,24.2828254 208.736,24.2828254 Z M210.112,18.6188254 C210.112,15.9628254 211.424,9.24282537 214.656,9.24282537 C215.808,9.24282537 216.448,10.6828254 216.768,12.1548254 C216.224,14.8108254 215.648,17.9788254 215.392,19.3868254 C214.496,20.7948254 213.248,22.0428254 212.16,22.0428254 C210.88,22.0428254 210.112,20.8908254 210.112,18.6188254 Z" id="Shape"></path>
                        <path d="M242.656,24.2828254 C245.536,24.2828254 246.624,22.8748254 247.488,21.6908254 L247.744,20.4428254 C247.072,21.1148254 246.144,22.0428254 245.088,22.0428254 C244.448,22.0428254 244.224,21.7548254 244.224,21.2428254 C244.224,19.3228254 246.4,11.5468254 246.4,10.6188254 C246.4,8.47482537 244.768,7.00282537 241.952,7.00282537 C240.224,7.00282537 238.24,7.96282537 236.704,9.21082537 C236.64,8.25082537 235.776,7.41882537 234.528,7.19482537 C231.904,6.65082537 229.76,7.83482537 227.776,8.95482537 L227.424,10.7788254 C228.608,10.0428254 229.536,9.78682537 229.888,9.85082537 C229.984,9.88282537 230.24,10.0108254 230.144,10.4268254 L229.952,11.2588254 L227.52,23.6428254 L233.92,23.6428254 L236.48,10.5548254 C237.216,9.78682537 238.08,9.24282537 238.848,9.24282537 C239.68,9.24282537 240,9.72282537 240,10.6188254 C240,12.0588254 238.08,17.4348254 238.08,20.2508254 C238.08,22.4268254 239.68,24.2828254 242.656,24.2828254 Z" id="Path"></path>
                        <path d="M256.224,24.2828254 C261.28,24.2828254 262.4,21.6588254 262.944,19.0028254 L261.664,19.0028254 C261.408,20.6028254 260.576,22.0428254 259.2,22.0428254 C258.304,22.0428254 257.92,21.2748254 257.92,19.9308254 C257.92,18.9708254 258.656,14.8748254 259.456,10.7148254 L262.208,10.7148254 L262.624,8.79482537 L259.84,8.79482537 L260.992,3.09882537 L254.592,3.09882537 L253.44,8.79482537 L250.976,8.79482537 L250.56,10.7148254 L253.088,10.7148254 C252.32,14.7148254 251.616,18.5548254 251.616,19.4828254 C251.616,23.1948254 253.952,24.2828254 256.224,24.2828254 Z" id="Path"></path>
                        <path d="M271.232,24.2828254 C275.232,24.2828254 279.392,22.4908254 279.392,18.7788254 C279.392,15.2588254 272.416,15.3868254 272.416,10.6828254 C272.416,9.05082537 273.792,7.96282537 276.064,7.96282537 C276.928,7.96282537 277.856,8.12282537 278.56,8.47482537 C276.8,8.92282537 274.976,10.7468254 274.976,12.3788254 C274.976,13.2428254 275.52,13.8188254 276.48,13.8188254 C278.208,13.8188254 280.8,12.0268254 280.8,10.2668254 C280.8,9.75482537 280.704,9.24282537 280.416,8.85882537 C279.36,7.25882537 276.416,7.00282537 274.144,7.00282537 C269.856,7.00282537 265.568,9.11482537 265.568,13.0828254 C265.568,17.0188254 272.544,17.3388254 272.544,21.2428254 C272.544,22.8428254 270.944,23.3228254 269.856,23.3228254 C267.712,23.3228254 266.816,21.7228254 266.816,18.8108254 L264.256,18.8108254 L263.296,23.6428254 L264.256,23.6428254 C264.416,22.8108254 264.608,22.0748254 264.896,21.5308254 C266.144,23.8348254 269.024,24.2828254 271.232,24.2828254 Z" id="Path"></path>
                    </g>
                </g>
            </g>
        </g>
    </g>
</svg>