<svg xmlns="http://www.w3.org/2000/svg" width="320" height="40"><g fill="#424345" fill-rule="nonzero"><path d="M3.896 30H9.56l6.944-13.728V28.72l-2.048.096V30h7.776v-1.184l-2.144-.096V15.28l2.048-.096V14h-5.664L9.56 27.184V15.28l2.016-.096V14h-7.68v1.184l2.048.096v13.44l-2.048.096zM26.072 30h11.872l.48 4.32h1.792v-5.44l-2.272-.128V15.28l2.016-.096V14H26.552v1.184l2.016.096c-.032 6.336-.928 11.968-2.656 13.472l-2.144.128v5.44h1.824l.48-4.32Zm1.184-1.28c1.76-2.336 2.4-7.584 2.4-13.632h4.64V28.72h-7.04ZM51.064 30.32c3.04 0 5.984-1.728 7.04-4.96h-3.392c-.32 2.432-1.632 4.096-3.648 4.096-2.976 0-4.576-3.488-4.576-7.456h12.16c0-5.152-3.456-8.32-7.584-8.32-4.64 0-8.416 3.136-8.416 8.32s3.776 8.32 8.416 8.32Zm-4.512-9.6c.288-3.424 1.856-6.176 4.512-6.176 2.656 0 3.808 2.752 4.032 6.176h-8.544ZM71.288 30h7.648v-1.184l-2.144-.096V15.28l2.048-.096V14h-7.552v1.184l1.888.096v5.984h-6.56V15.28l1.888-.096V14h-7.552v1.184L63 15.28v13.44l-2.048.096V30H68.6v-1.184l-1.984-.096v-6.368h6.56v6.368l-1.888.096zM83.608 30h7.776v-1.184l-2.112-.096V15.056h4.288l.096 2.048h1.184V14H79.992v3.104h1.184l.096-2.048h4.352V28.72l-2.016.096zM95.896 30h5.664l6.944-13.728V28.72l-2.048.096V30h7.776v-1.184l-2.144-.096V15.28l2.048-.096V14h-5.664l-6.912 13.184V15.28l2.016-.096V14h-7.68v1.184l2.048.096v13.44l-2.048.096zM123.768 23.6c1.728 0 3.36-.544 4.384-1.184v6.304l-2.016.096V30h7.776v-1.184l-2.144-.096V15.28l2.016-.096V14h-7.52v1.184l1.888.096v6.016c-.832.8-2.112 1.024-3.04 1.024-2.976 0-3.68-3.328-3.68-5.76v-1.28l1.888-.096V14h-7.552v1.184l2.016.096v1.184c0 4.576 2.656 7.136 5.984 7.136ZM146.04 30h7.648v-1.184l-2.144-.096V15.28l2.048-.096V14h-7.552v1.184l1.888.096v5.984h-6.56V15.28l1.888-.096V14h-7.552v1.184l2.048.096v13.44l-2.048.096V30h7.648v-1.184l-1.984-.096v-6.368h6.56v6.368l-1.888.096zM164.568 30.32c4.8 0 8.48-3.424 8.48-8.32 0-4.896-3.68-8.32-8.48-8.32-4.8 0-8.48 3.424-8.48 8.32 0 4.896 3.68 8.32 8.48 8.32Zm-4.64-8.32c0-4 1.216-7.456 4.64-7.456 3.424 0 4.64 3.456 4.64 7.456s-1.216 7.456-4.64 7.456c-3.424 0-4.64-3.456-4.64-7.456ZM184.248 30.32c3.744 0 6.272-2.048 6.912-4.96h-3.232c-.192 1.792-1.248 4.096-3.68 4.096-3.232 0-4.352-3.328-4.352-7.456 0-3.232 1.568-7.328 5.184-7.328 1.824 0 3.584.832 4.384 2.08-1.248.16-2.464 1.504-2.464 2.72 0 .832.544 1.408 1.376 1.408 1.344 0 2.784-1.312 2.784-2.688 0-2.336-3.264-4.512-6.88-4.512-4.8 0-8.224 3.776-8.224 8.32 0 5.024 3.392 8.32 8.192 8.32ZM196.312 30h7.776v-1.184l-2.112-.096V15.056h4.288l.096 2.048h1.184V14h-14.848v3.104h1.184l.096-2.048h4.352V28.72l-2.016.096zM208.6 30h5.664l6.944-13.728V28.72l-2.048.096V30h7.776v-1.184l-2.144-.096V15.28l2.048-.096V14h-5.664l-6.912 13.184V15.28l2.016-.096V14h-7.68v1.184l2.048.096v13.44l-2.048.096z"/></g></svg>