<?xml version="1.0" encoding="UTF-8"?>
<svg width="320px" height="40px" viewBox="0 0 320 40" version="1.1" xmlns="http://www.w3.org/2000/svg" xmlns:xlink="http://www.w3.org/1999/xlink">
    <title>apium-latin-medium</title>
    <g id="_exports" stroke="none" stroke-width="1" fill="none" fill-rule="evenodd">
        <g id="Apium" transform="translate(-701, -686)">
            <g id="apium-styles" transform="translate(0, 686)">
                <g id="apium-latin-medium" transform="translate(701, 0)">
                    <rect id="Rectangle-Copy-2" fill="#F7DF88" opacity="0" x="0" y="0" width="320" height="40"></rect>
                    <g transform="translate(4.92, 8.048)" fill="#424345" fill-rule="nonzero">
                        <polygon id="Path" points="5.68434189e-14 21.952 16.448 21.952 16.448 18.848 15.264 18.848 15.168 20.896 5.664 20.896 5.664 11.36 11.488 11.36 11.584 13.376 12.768 13.376 12.768 8.256 11.584 8.256 11.488 10.272 5.664 10.272 5.664 1.248 15.168 1.248 15.264 3.296 16.448 3.296 16.448 0.192 5.68434189e-14 0.192 5.68434189e-14 1.376 2.016 1.472 2.016 20.672 5.68434189e-14 20.768"></polygon>
                        <polygon id="Path" points="29.216 21.952 35.296 21.952 35.296 20.768 32.416 20.672 27.808 12.704 31.872 7.232 34.848 7.136 34.848 5.952 29.728 5.952 29.728 7.136 30.816 7.232 27.36 11.904 23.904 5.952 17.92 5.952 17.92 7.136 20.704 7.232 25.152 14.912 20.864 20.672 17.888 20.768 17.888 21.952 23.104 21.952 23.104 20.768 21.92 20.672 25.6 15.712"></polygon>
                        <path d="M45.152,22.272 C48.896,22.272 51.424,20.224 52.064,17.312 L48.832,17.312 C48.64,19.104 47.584,21.408 45.152,21.408 C41.92,21.408 40.8,18.08 40.8,13.952 C40.8,10.72 42.368,6.624 45.984,6.624 C47.808,6.624 49.568,7.456 50.368,8.704 C49.12,8.864 47.904,10.208 47.904,11.424 C47.904,12.256 48.448,12.832 49.28,12.832 C50.624,12.832 52.064,11.52 52.064,10.144 C52.064,7.808 48.8,5.632 45.184,5.632 C40.384,5.632 36.96,9.408 36.96,13.952 C36.96,18.976 40.352,22.272 45.152,22.272 Z" id="Path"></path>
                        <path d="M63.424,22.272 C68.224,22.272 71.904,18.848 71.904,13.952 C71.904,9.056 68.224,5.632 63.424,5.632 C58.624,5.632 54.944,9.056 54.944,13.952 C54.944,18.848 58.624,22.272 63.424,22.272 Z M58.784,13.952 C58.784,9.952 60,6.496 63.424,6.496 C66.848,6.496 68.064,9.952 68.064,13.952 C68.064,17.952 66.848,21.408 63.424,21.408 C60,21.408 58.784,17.952 58.784,13.952 Z" id="Shape"></path>
                        <path d="M95.2,21.952 L102.848,21.952 L102.848,20.768 L100.704,20.672 L100.704,13.088 C100.704,7.84 98.368,5.632 95.04,5.632 C92.992,5.632 90.88,7.296 89.6,8.832 C88.672,6.624 86.912,5.632 84.672,5.632 C82.88,5.632 81.184,6.944 79.968,8.32 L79.968,5.952 L74.304,5.952 L74.304,7.136 L76.352,7.232 L76.352,20.672 L74.304,20.768 L74.304,21.952 L81.952,21.952 L81.952,20.768 L79.968,20.672 L79.968,10.304 C80.736,8.576 82.24,6.912 83.68,6.912 C86.4,6.912 86.72,10.24 86.72,12.672 L86.72,20.672 L84.832,20.768 L84.832,21.952 L92.32,21.952 L92.32,20.768 L90.336,20.672 L90.336,13.088 C90.336,11.904 90.208,10.88 90.016,10.016 C90.912,8.416 92.64,6.912 94.048,6.912 C96.768,6.912 97.088,10.24 97.088,12.672 L97.088,20.672 L95.2,20.768 L95.2,21.952 Z" id="Path"></path>
                        <path d="M125.28,21.952 L132.928,21.952 L132.928,20.768 L130.784,20.672 L130.784,13.088 C130.784,7.84 128.448,5.632 125.12,5.632 C123.072,5.632 120.96,7.296 119.68,8.832 C118.752,6.624 116.992,5.632 114.752,5.632 C112.96,5.632 111.264,6.944 110.048,8.32 L110.048,5.952 L104.384,5.952 L104.384,7.136 L106.432,7.232 L106.432,20.672 L104.384,20.768 L104.384,21.952 L112.032,21.952 L112.032,20.768 L110.048,20.672 L110.048,10.304 C110.816,8.576 112.32,6.912 113.76,6.912 C116.48,6.912 116.8,10.24 116.8,12.672 L116.8,20.672 L114.912,20.768 L114.912,21.952 L122.4,21.952 L122.4,20.768 L120.416,20.672 L120.416,13.088 C120.416,11.904 120.288,10.88 120.096,10.016 C120.992,8.416 122.72,6.912 124.128,6.912 C126.848,6.912 127.168,10.24 127.168,12.672 L127.168,20.672 L125.28,20.768 L125.28,21.952 Z" id="Path"></path>
                        <path d="M141.536,22.272 C143.328,22.272 145.024,20.928 146.24,19.552 L146.24,21.952 L152,21.952 L152,20.768 L149.856,20.672 L149.856,5.952 L144.192,5.952 L144.192,7.136 L146.24,7.232 L146.24,17.6 C145.472,19.296 143.968,20.992 142.496,20.992 C139.776,20.992 139.488,17.664 139.488,15.232 L139.488,5.952 L133.824,5.952 L133.824,7.136 L135.872,7.232 L135.872,14.816 C135.872,20.064 138.208,22.272 141.536,22.272 Z" id="Path"></path>
                        <path d="M164.32,21.952 L171.968,21.952 L171.968,20.768 L169.824,20.672 L169.824,13.088 C169.824,7.84 167.488,5.632 164.16,5.632 C162.368,5.632 160.672,6.944 159.456,8.32 L159.456,5.952 L153.792,5.952 L153.792,7.136 L155.84,7.232 L155.84,20.672 L153.792,20.768 L153.792,21.952 L161.44,21.952 L161.44,20.768 L159.456,20.672 L159.456,10.304 C160.224,8.576 161.728,6.912 163.168,6.912 C165.888,6.912 166.208,10.24 166.208,12.672 L166.208,20.672 L164.32,20.768 L164.32,21.952 Z" id="Path"></path>
                        <path d="M173.504,21.952 L181.312,21.952 L181.312,20.768 L179.168,20.672 L179.168,5.952 L173.504,5.952 L173.504,7.136 L175.552,7.232 L175.552,20.672 L173.504,20.768 L173.504,21.952 Z M175.232,1.888 C175.232,2.944 176.064,3.744 177.088,3.744 C178.112,3.744 178.976,2.944 178.976,1.888 C178.976,0.864 178.112,0 177.088,0 C176.064,0 175.232,0.864 175.232,1.888 Z" id="Shape"></path>
                        <path d="M191.648,22.272 C195.392,22.272 197.92,20.224 198.56,17.312 L195.328,17.312 C195.136,19.104 194.08,21.408 191.648,21.408 C188.416,21.408 187.296,18.08 187.296,13.952 C187.296,10.72 188.864,6.624 192.48,6.624 C194.304,6.624 196.064,7.456 196.864,8.704 C195.616,8.864 194.4,10.208 194.4,11.424 C194.4,12.256 194.944,12.832 195.776,12.832 C197.12,12.832 198.56,11.52 198.56,10.144 C198.56,7.808 195.296,5.632 191.68,5.632 C186.88,5.632 183.456,9.408 183.456,13.952 C183.456,18.976 186.848,22.272 191.648,22.272 Z" id="Path"></path>
                        <path d="M207.904,22.272 C210.496,22.272 212.576,20.96 213.856,19.2 C214.464,21.44 215.968,22.272 217.92,22.272 C221.088,22.272 221.952,19.328 221.952,17.312 L220.576,17.312 C220.576,19.232 220.032,20.992 218.784,20.992 C217.568,20.992 217.184,19.296 217.184,17.152 L217.184,5.952 L213.568,5.952 L213.568,8.384 C212.288,6.784 210.336,5.632 207.904,5.632 C203.104,5.632 201.44,10.208 201.44,13.952 C201.44,17.696 203.104,22.272 207.904,22.272 Z M205.28,13.952 C205.28,10.592 206.368,6.912 209.6,6.912 C211.616,6.912 212.992,8.736 213.568,10.624 L213.568,16.736 L213.568,17.248 C212.992,19.2 211.648,20.992 209.6,20.992 C206.368,20.992 205.28,17.312 205.28,13.952 Z" id="Shape"></path>
                        <path d="M229.952,22.272 C233.344,22.272 233.984,19.488 233.984,17.312 L232.608,17.312 C232.608,19.84 231.744,20.992 230.752,20.992 C229.632,20.992 229.216,19.744 229.216,17.152 L229.216,7.136 L232.32,7.136 L232.32,5.952 L229.216,5.952 L229.216,1.44 L225.6,1.44 L225.6,5.952 L222.688,5.952 L222.688,7.136 L225.6,7.136 L225.6,16.736 C225.6,20.832 227.52,22.272 229.952,22.272 Z" id="Path"></path>
                        <path d="M244.224,22.272 C249.024,22.272 252.704,18.848 252.704,13.952 C252.704,9.056 249.024,5.632 244.224,5.632 C239.424,5.632 235.744,9.056 235.744,13.952 C235.744,18.848 239.424,22.272 244.224,22.272 Z M239.584,13.952 C239.584,9.952 240.8,6.496 244.224,6.496 C247.648,6.496 248.864,9.952 248.864,13.952 C248.864,17.952 247.648,21.408 244.224,21.408 C240.8,21.408 239.584,17.952 239.584,13.952 Z" id="Shape"></path>
                        <path d="M255.104,21.952 L262.912,21.952 L262.912,20.768 L260.768,20.672 L260.768,11.104 C261.792,8.864 263.776,6.496 265.728,6.496 C266.592,6.496 267.424,6.752 267.936,7.36 C266.624,7.456 265.312,8.832 265.312,10.112 C265.312,10.944 265.888,11.52 266.72,11.52 C268.032,11.52 269.472,10.208 269.472,8.832 C269.472,6.912 267.872,5.632 265.984,5.632 C263.52,5.632 261.632,7.136 260.768,8.128 L260.768,5.952 L255.104,5.952 L255.104,7.136 L257.152,7.232 L257.152,20.672 L255.104,20.768 L255.104,21.952 Z" id="Path"></path>
                    </g>
                </g>
            </g>
        </g>
    </g>
</svg>