<svg xmlns="http://www.w3.org/2000/svg" width="320" height="40"><g fill="#424345" fill-rule="nonzero"><path d="M13.376 30.16c4.704 0 7.776-3.68 7.776-8.16s-3.072-8.16-7.776-8.16S5.6 17.52 5.6 22s3.072 8.16 7.776 8.16ZM8 22c0-3.104 1.12-7.36 5.376-7.36s5.376 4.256 5.376 7.36-1.12 7.36-5.376 7.36S8 25.104 8 22ZM31.936 30.16c4.704 0 7.424-3.872 7.424-8.16s-2.72-8.16-7.392-8.16c-1.44 0-4.736.8-5.728 3.872a13.728 13.728 0 0 1-.256-2.656c0-1.632.384-2.848 1.024-3.776 1.344-1.888 3.68-2.112 7.872-2.112 2.752 0 3.36-2.912 3.36-4.768h-1.12c0 .928-.576 2.4-1.984 2.4-6.08 0-7.552 1.856-8.448 3.04-1.792 2.368-2.336 6.656-2.336 11.584 0 5.12 2.432 8.736 7.584 8.736Zm-5.184-7.872c0-3.008.768-7.648 5.184-7.648 4.256 0 5.024 4.448 5.024 7.36s-.768 7.36-5.024 7.36c-3.712 0-5.184-4.32-5.184-7.072ZM51.968 30.16c4.704 0 6.368-4.48 6.368-8.16 0-3.68-1.664-8.16-6.368-8.16-2.24 0-4.256.864-5.568 2.368V14h-4.48v.96h2.24v21.76h-2.24v.96h6.72v-.96H46.4v-8.96c1.312 1.504 3.328 2.4 5.568 2.4ZM46.4 25.264v-6.528c.544-2.144 2.048-4.096 4.512-4.096 3.968 0 5.024 4.448 5.024 7.36s-1.056 7.36-5.024 7.36c-2.464 0-3.968-1.952-4.512-4.096ZM60.896 30h4.48l7.904-14.304V29.04h-2.24V30h6.688v-.96h-2.24V14.96h2.24V14h-4.48l-7.872 13.888V14.96h2.24V14h-6.72v.96h2.24v14.08h-2.24zM87.616 30.16c3.808 0 6.176-2.304 6.656-4.8h-2.4c-.288 1.44-1.472 4-4.256 4-3.936 0-4.928-4.096-4.928-7.36 0-2.528 1.376-7.36 5.312-7.36 2.24 0 4.224 1.152 4.992 2.56-1.12.064-2.24 1.28-2.24 2.336 0 .704.48 1.184 1.184 1.184 1.12 0 2.336-1.088 2.336-2.272 0-2.144-2.784-4.608-6.592-4.608-4.704 0-7.392 4.224-7.392 8.16 0 4.672 2.624 8.16 7.328 8.16ZM104.928 30.16c4.704 0 7.776-3.68 7.776-8.16s-3.072-8.16-7.776-8.16-7.776 3.68-7.776 8.16 3.072 8.16 7.776 8.16ZM99.552 22c0-3.104 1.12-7.36 5.376-7.36s5.376 4.256 5.376 7.36-1.12 7.36-5.376 7.36-5.376-4.256-5.376-7.36ZM115.264 30h9.024c2.56 0 5.44-1.472 5.44-4.448 0-2.688-2.304-4.128-4.608-4.448 1.312-.544 2.336-1.728 2.336-3.264 0-2.144-1.728-3.968-4.032-3.968-1.728 0-3.04 1.28-3.68 2.304V14h-4.48v.96h2.24v14.08h-2.24V30Zm4.48-.8v-7.36h2.432c2.112 0 5.152.544 5.152 3.712 0 2.272-1.6 3.648-3.616 3.648h-3.968Zm0-8.32v-3.232c.576-1.28 1.664-3.008 3.04-3.008 1.76 0 2.4 1.664 2.4 3.2 0 2.976-3.04 3.04-4.8 3.04h-.64ZM147.936 30h2.24V14h-2.24v16Zm-15.648 0h8.096c2.56 0 5.44-1.952 5.44-4.928 0-3.072-3.008-4.992-5.6-4.992h-3.456v-5.12h2.24V14h-6.72v.96h2.24v14.08h-2.24V30Zm4.48-.8v-8.32h1.504c2.112 0 5.152 1.024 5.152 4.192 0 2.272-1.6 4.128-3.616 4.128h-3.04ZM152.096 30h9.024c2.56 0 5.44-1.472 5.44-4.448 0-2.688-2.304-4.128-4.608-4.448 1.312-.544 2.336-1.728 2.336-3.264 0-2.144-1.728-3.968-4.032-3.968-1.728 0-3.04 1.28-3.68 2.304V14h-4.48v.96h2.24v14.08h-2.24V30Zm4.48-.8v-7.36h2.432c2.112 0 5.152.544 5.152 3.712 0 2.272-1.6 3.648-3.616 3.648h-3.968Zm0-8.32v-3.232c.576-1.28 1.664-3.008 3.04-3.008 1.76 0 2.4 1.664 2.4 3.2 0 2.976-3.04 3.04-4.8 3.04h-.64ZM184.128 30.16c2.752 0 3.36-2.944 3.36-4.8h-1.44c0 .928-.256 4-1.664 4-1.12 0-1.536-1.76-1.536-3.424v-6.72c0-3.648-3.232-5.376-6.336-5.376-2.688 0-6.368 1.12-6.368 4.8h1.44c0-2.464 2.304-4 4.256-4 3.264 0 4.768 1.824 4.768 4.576v1.76c-1.248-1.184-3.104-1.76-4.896-1.76-3.072 0-5.952 1.92-5.952 5.344 0 3.424 2.88 5.6 5.952 5.6 1.984 0 4.064-.8 5.28-2.272.448 1.472 1.408 2.272 3.136 2.272Zm-11.968-5.6c0-2.656 2.272-4.544 4.608-4.544 1.792 0 3.232 1.248 3.84 2.848v2.048c0 .48.032.928.064 1.376-.576 1.568-2.048 3.072-3.904 3.072-2.336 0-4.608-2.144-4.608-4.8ZM191.616 30h6.72v-.96h-2.24V14.96h4.352v2.24h.96V14h-12.96v3.2h.96v-2.24h4.448v14.08h-2.24zM202.528 30h8.096c2.56 0 5.44-1.952 5.44-4.928 0-3.072-3.008-4.992-5.6-4.992h-3.456v-5.12h2.24V14h-6.72v.96h2.24v14.08h-2.24V30Zm4.48-.8v-8.32h1.504c2.112 0 5.152 1.024 5.152 4.192 0 2.272-1.6 4.128-3.616 4.128h-3.04Z"/></g></svg>