<?xml version="1.0" encoding="UTF-8"?>
<svg width="320px" height="40px" viewBox="0 0 320 40" version="1.1" xmlns="http://www.w3.org/2000/svg" xmlns:xlink="http://www.w3.org/1999/xlink">
    <title>apium-cyrillic-black</title>
    <g id="_exports" stroke="none" stroke-width="1" fill="none" fill-rule="evenodd">
        <g id="Apium" transform="translate(-1401, -826)">
            <g id="apium-styles" transform="translate(0, 686)">
                <g id="apium-cyrillic-black" transform="translate(1401, 140)">
                    <rect id="Rectangle-Copy-16" fill="#F7DF88" opacity="0" x="0" y="0" width="320" height="40"></rect>
                    <g transform="translate(4.8, 13.36)" fill="#424345" fill-rule="nonzero">
                        <polygon id="Path" points="0 16.64 9.92 16.64 9.92 15.04 8 14.72 8 1.92 13.12 1.92 13.44 3.552 15.04 3.552 15.04 0.64 0 0.64 0 2.24 1.6 2.56 1.6 14.72 0 15.04"></polygon>
                        <path d="M26.24,17.28 C31.232,17.28 36.16,14.336 36.16,8.64 C36.16,2.912 31.232,0 26.24,0 C21.248,0 16.32,2.912 16.32,8.64 C16.32,14.368 21.248,17.28 26.24,17.28 Z M23.04,8.64 C23.04,2.816 24.448,0.96 26.24,0.96 C28.032,0.96 29.44,2.816 29.44,8.64 C29.44,14.464 28.032,16.32 26.24,16.32 C24.448,16.32 23.04,14.464 23.04,8.64 Z" id="Shape"></path>
                        <path d="M48.64,17.28 C52.288,17.28 55.104,15.744 56.096,12 L51.232,12 C51.232,14.496 50.4,16.32 48.64,16.32 C46.88,16.32 45.44,14.464 45.44,8.64 C45.44,4.032 47.392,1.344 50.4,1.344 C51.424,1.344 52.736,1.696 53.536,2.528 C52,2.912 50.624,4.48 50.624,6.016 C50.624,7.104 51.36,7.872 52.448,7.872 C54.176,7.872 56.064,6.08 56.064,4.32 C56.064,1.568 51.84,0 48.64,0 C43.648,0 38.72,2.912 38.72,8.64 C38.72,14.336 43.648,17.28 48.64,17.28 Z" id="Path"></path>
                        <polygon id="Path" points="69.184 16.64 78.816 16.64 78.816 15.04 76.896 14.72 76.896 2.56 78.496 2.24 78.496 0.64 58.496 0.64 58.496 2.24 60.096 2.56 60.096 14.72 58.496 15.04 58.496 16.64 68.032 16.64 68.032 15.04 66.496 14.72 66.496 1.952 70.464 1.952 70.464 14.72 69.184 15.04"></polygon>
                        <path d="M90.816,17.28 C95.808,17.28 100.736,14.336 100.736,8.64 C100.736,2.912 95.808,0 90.816,0 C85.824,0 80.896,2.912 80.896,8.64 C80.896,14.368 85.824,17.28 90.816,17.28 Z M87.616,8.64 C87.616,2.816 89.024,0.96 90.816,0.96 C92.608,0.96 94.016,2.816 94.016,8.64 C94.016,14.464 92.608,16.32 90.816,16.32 C89.024,16.32 87.616,14.464 87.616,8.64 Z" id="Shape"></path>
                        <path d="M104.736,16.64 L118.144,16.64 L118.624,20.96 L120.544,20.96 L120.544,15.2 L118.144,14.816 L118.144,2.56 L119.744,2.24 L119.744,0.64 L105.44,0.64 L105.44,2.24 L107.04,2.56 C106.944,8.544 105.824,13.12 104.256,14.88 L102.336,15.2 L102.336,20.96 L104.256,20.96 L104.736,16.64 Z M106.016,14.72 C107.712,12.16 108.32,7.36 108.32,1.952 L111.712,1.952 L111.712,14.72 L106.016,14.72 Z" id="Shape"></path>
                        <path d="M138.656,17.28 C143.712,17.28 144.352,14.592 144.352,12 L143.072,12 C143.072,13.568 142.336,15.04 141.216,15.04 C139.84,15.04 139.36,13.248 139.36,10.24 L139.36,6.816 C139.36,2.016 136.704,0 131.84,0 C126.56,0 124.608,3.136 124.608,5.28 L125.888,5.28 C125.888,3.712 127.52,1.6 129.44,1.6 C131.36,1.6 132.96,2.784 132.96,6.496 L132.96,7.552 C132.032,6.496 130.624,5.696 128.64,5.696 C125.6,5.696 122.624,7.296 122.624,11.328 C122.624,15.424 125.6,17.28 128.64,17.28 C131.264,17.28 132.896,15.872 133.728,14.336 C134.816,16.576 136.8,17.28 138.656,17.28 Z M129.344,11.328 C129.344,10.016 129.92,7.968 131.648,7.968 C132.224,7.968 132.672,8.32 132.96,8.8 L132.96,10.24 C132.96,11.424 133.088,12.448 133.344,13.28 C133.088,14.176 132.544,15.008 131.648,15.008 C129.92,15.008 129.344,12.64 129.344,11.328 Z" id="Shape"></path>
                        <path d="M159.072,17.28 C164.032,17.28 165.76,12.512 165.76,8.64 C165.76,4.768 164.032,0 159.072,0 C156.544,0 154.688,1.376 153.472,2.976 L153.472,0.64 L145.472,0.64 L145.472,2.24 L147.072,2.56 L147.072,22.4 L145.472,22.72 L145.472,24.32 L155.392,24.32 L155.392,22.72 L153.472,22.4 L153.472,14.304 C154.688,15.904 156.544,17.28 159.072,17.28 Z M153.472,12.672 L153.472,4.672 C154.08,3.36 155.04,2.24 156.064,2.24 C157.824,2.24 159.04,4.352 159.04,8.64 C159.04,12.896 157.824,15.04 156.064,15.04 C155.04,15.04 154.08,13.952 153.472,12.672 Z" id="Shape"></path>
                        <path d="M178.24,17.28 C181.888,17.28 184.704,15.744 185.696,12 L180.832,12 C180.832,14.496 180,16.32 178.24,16.32 C176.48,16.32 175.04,14.464 175.04,8.64 C175.04,4.032 176.992,1.344 180,1.344 C181.024,1.344 182.336,1.696 183.136,2.528 C181.6,2.912 180.224,4.48 180.224,6.016 C180.224,7.104 180.96,7.872 182.048,7.872 C183.776,7.872 185.664,6.08 185.664,4.32 C185.664,1.568 181.44,0 178.24,0 C173.248,0 168.32,2.912 168.32,8.64 C168.32,14.336 173.248,17.28 178.24,17.28 Z" id="Path"></path>
                        <polygon id="Path" points="191.968 16.64 201.888 16.64 201.888 15.04 199.968 14.72 199.968 1.92 204.128 1.92 204.448 3.552 206.048 3.552 206.048 0.64 187.456 0.64 187.456 3.52 189.056 3.52 189.376 1.92 193.568 1.92 193.568 14.72 191.968 15.04"></polygon>
                        <path d="M207.008,16.64 L218.496,16.64 C221.056,16.64 225.728,16.352 225.728,12.192 C225.728,9.056 223.072,8.032 220.672,7.744 C222.24,7.296 223.616,6.336 223.616,4.256 C223.616,1.44 221.184,0 218.72,0 C217.344,0 215.968,0.928 215.008,1.824 L215.008,0.64 L207.008,0.64 L207.008,2.24 L208.608,2.56 L208.608,14.72 L207.008,15.04 L207.008,16.64 Z M215.008,15.328 L215.008,8.448 L215.936,8.448 C217.888,8.448 219.328,9.888 219.328,11.84 C219.328,12.8 219.104,14.464 217.664,15.008 C217.184,15.2 215.936,15.296 215.008,15.328 Z M215.008,7.488 L215.008,2.752 C215.296,2.432 215.68,2.208 216.096,2.208 C217.472,2.208 218.08,3.424 218.08,4.576 C218.08,6.336 216.704,7.488 215.008,7.488 Z" id="Shape"></path>
                        <path d="M237.248,17.28 C242.24,17.28 247.168,14.336 247.168,8.64 C247.168,2.912 242.24,0 237.248,0 C232.256,0 227.328,2.912 227.328,8.64 C227.328,14.368 232.256,17.28 237.248,17.28 Z M234.048,8.64 C234.048,2.816 235.456,0.96 237.248,0.96 C239.04,0.96 240.448,2.816 240.448,8.64 C240.448,14.464 239.04,16.32 237.248,16.32 C235.456,16.32 234.048,14.464 234.048,8.64 Z" id="Shape"></path>
                    </g>
                </g>
            </g>
        </g>
    </g>
</svg>