<svg xmlns="http://www.w3.org/2000/svg" width="320" height="40"><g fill="#424345" fill-rule="nonzero"><path d="M13.128 30.256c4.512 0 7.296-3.104 7.904-6.656H18.12c-.16 2.592-1.952 5.824-4.992 5.824-5.12 0-6.816-5.472-6.816-10.304 0-4.8 1.984-10.304 7.136-10.304 2.304 0 5.184 1.184 6.08 3.552H19.4c-1.376 0-2.784 1.472-2.784 2.848 0 .832.576 1.44 1.408 1.44 1.376 0 2.848-1.408 2.848-2.784 0-3.968-3.84-5.888-7.68-5.888-6.368 0-10.016 5.44-10.016 11.136 0 5.76 3.584 11.136 9.952 11.136ZM33.448 30.256c4.736 0 8.128-3.584 8.128-8.256 0-4.704-3.392-8.256-8.128-8.256-4.768 0-8.16 3.552-8.16 8.256 0 4.672 3.392 8.256 8.16 8.256ZM28.424 22c0-3.552 1.152-7.424 5.024-7.424 3.84 0 4.992 3.872 4.992 7.424 0 3.552-1.152 7.424-4.992 7.424-3.872 0-5.024-3.872-5.024-7.424ZM64.84 30h7.2v-1.056l-2.176-.064v-7.936c0-5.024-2.528-7.2-5.696-7.2-2.016 0-4.128 1.76-5.376 3.264-.96-2.24-2.816-3.264-4.992-3.264-1.728 0-3.424 1.312-4.672 2.624V14H44.04v1.056l2.144.064v13.76l-2.144.064V30h7.2v-1.056l-2.112-.064V18.192c.768-1.728 2.528-3.392 4.096-3.392 2.944 0 3.328 3.488 3.328 5.92v8.16l-2.08.064V30h7.136v-1.056l-2.112-.064v-7.936c0-1.024-.096-1.888-.288-2.688.8-1.792 2.784-3.456 4.384-3.456 2.944 0 3.328 3.488 3.328 5.92v8.16l-2.08.064V30ZM94.472 30h7.2v-1.056l-2.176-.064v-7.936c0-5.024-2.528-7.2-5.696-7.2-2.016 0-4.128 1.76-5.376 3.264-.96-2.24-2.816-3.264-4.992-3.264-1.728 0-3.424 1.312-4.672 2.624V14h-5.088v1.056l2.144.064v13.76l-2.144.064V30h7.2v-1.056l-2.112-.064V18.192c.768-1.728 2.528-3.392 4.096-3.392 2.944 0 3.328 3.488 3.328 5.92v8.16l-2.08.064V30h7.136v-1.056l-2.112-.064v-7.936c0-1.024-.096-1.888-.288-2.688.8-1.792 2.784-3.456 4.384-3.456 2.944 0 3.328 3.488 3.328 5.92v8.16l-2.08.064V30ZM110.408 30.256c1.728 0 3.424-1.312 4.672-2.624V30h5.12v-1.056l-2.176-.064V14h-5.056v1.056l2.112.064v10.656c-.768 1.76-2.528 3.424-4.096 3.424-2.944 0-3.328-3.488-3.328-5.92V14H102.6v1.056l2.112.064v7.936c0 5.024 2.528 7.2 5.696 7.2ZM132.52 30h7.2v-1.056l-2.176-.064v-7.936c0-5.024-2.528-7.2-5.696-7.2-1.728 0-3.424 1.312-4.672 2.624V14h-5.088v1.056l2.144.064v13.76l-2.144.064V30h7.2v-1.056l-2.112-.064V18.192c.768-1.728 2.528-3.392 4.096-3.392 2.944 0 3.328 3.488 3.328 5.92v8.16l-2.08.064V30ZM141.352 30h7.264v-1.056l-2.176-.064V14h-5.088v1.056l2.144.064v13.76l-2.144.064V30Zm1.536-19.904c0 .96.768 1.696 1.728 1.696s1.728-.736 1.728-1.696c0-.992-.8-1.792-1.728-1.792-.96 0-1.728.8-1.728 1.792ZM158.632 30.256c3.776 0 6.208-2.208 6.784-4.896H162.6c-.224 1.6-1.344 4.064-3.968 4.064-3.584 0-4.64-3.744-4.64-7.424 0-2.88 1.472-7.36 5.248-7.36 2.016 0 3.904.992 4.704 2.336-1.184.128-2.368 1.408-2.368 2.528 0 .768.512 1.312 1.28 1.312 1.216 0 2.56-1.216 2.56-2.496 0-2.24-3.04-4.576-6.72-4.576-4.768 0-7.84 4.032-7.84 8.256 0 4.832 3.008 8.256 7.776 8.256ZM174.728 30.256c2.528 0 4.64-1.184 5.92-2.944.512 2.08 1.824 2.944 3.776 2.944 2.976 0 3.616-3.008 3.616-4.896h-1.408c0 1.952-.544 3.84-1.76 3.84-1.184 0-1.536-1.696-1.536-3.616V14h-2.912v2.4c-1.28-1.6-3.296-2.656-5.696-2.656-4.736 0-6.432 4.544-6.432 8.256 0 3.712 1.696 8.256 6.432 8.256ZM171.432 22c0-3.136 1.088-7.2 4.672-7.2 2.336 0 3.808 2.016 4.32 4.128v6.144c-.512 2.112-1.984 4.128-4.32 4.128-3.584 0-4.672-4.064-4.672-7.2ZM195.816 30.256c3.072 0 3.616-2.912 3.616-4.896h-1.44c0 2.656-.896 3.84-1.856 3.84-1.024 0-1.408-1.12-1.408-3.616V15.056h3.232V14h-3.232V9.488h-2.944V14h-2.976v1.056h2.976v10.016c0 3.744 1.664 5.184 4.032 5.184ZM200.648 30h7.264v-1.056l-2.176-.064V14h-5.088v1.056l2.144.064v13.76l-2.144.064V30Zm1.536-19.904c0 .96.768 1.696 1.728 1.696s1.728-.736 1.728-1.696c0-.992-.8-1.792-1.728-1.792-.96 0-1.728.8-1.728 1.792ZM217.48 30h.992l5.792-14.88 2.56-.064V14h-5.28v1.056l1.696.064-4.256 10.976L214.088 14h-5.312v1.056l2.592.064zM236.584 30.256c2.784 0 5.632-1.76 6.72-4.896h-2.912c-.32 2.208-1.664 4.064-3.808 4.064-3.264 0-4.928-3.936-4.928-7.424h12.192c0-5.024-3.328-8.256-7.264-8.256-4.576 0-8.064 3.232-8.064 8.256s3.488 8.256 8.064 8.256Zm-4.864-9.536c.352-3.136 1.984-6.144 4.864-6.144 2.912 0 4 3.008 4.256 6.144h-9.12ZM251.816 30.256c2.816 0 3.456-2.912 3.456-4.896h-1.408c0 1.888-.48 3.84-1.728 3.84-1.312 0-1.536-1.696-1.536-3.616V6.96h-5.088v1.056l2.144.064v16.992c0 3.424 1.568 5.184 4.16 5.184ZM260.584 37.936c1.664 0 2.56-1.536 3.008-2.72l7.552-20.096 2.528-.064V14h-5.28v1.056l1.728.064-3.936 10.496L260.904 14h-5.312v1.056l2.656.064 6.656 13.888-2.144 5.76c-.288.768-.928 2.336-1.984 2.336-.608 0-1.056-.416-1.344-.928 1.216-.032 2.528-1.216 2.528-2.496 0-.672-.544-1.344-1.344-1.344-1.216 0-2.496 1.344-2.496 2.528 0 1.504 1.12 3.072 2.464 3.072Z"/></g></svg>