<?xml version="1.0" encoding="UTF-8"?>
<svg width="320px" height="40px" viewBox="0 0 320 40" version="1.1" xmlns="http://www.w3.org/2000/svg" xmlns:xlink="http://www.w3.org/1999/xlink">
    <title>apium-cyrillic-bold-italic</title>
    <g id="_exports" stroke="none" stroke-width="1" fill="none" fill-rule="evenodd">
        <g id="Apium" transform="translate(-1051, -896)">
            <g id="apium-styles" transform="translate(0, 686)">
                <g id="apium-cyrillic-bold-italic" transform="translate(1051, 210)">
                    <rect id="Rectangle-Copy-23" fill="#F7DF88" opacity="0" x="0" y="0" width="320" height="40"></rect>
                    <g transform="translate(1.984, 6.48)" fill="#424345" fill-rule="nonzero">
                        <path d="M13.568,24 C18.976,24 22.08,18.016 22.08,13.12 C22.08,9.984 20.544,7.04 16.896,7.04 C14.176,7.04 12.128,8.96 10.624,11.968 L11.104,9.472 C11.328,8.32 10.656,7.424 9.504,7.2 C7.488,6.784 5.728,7.648 3.712,8.768 L3.424,10.176 C4.32,9.6 5.344,9.216 5.728,9.28 C5.952,9.312 6.112,9.632 6.016,10.016 L5.856,10.72 L2.144,29.6 L0.288,29.824 L0,31.2 L8.384,31.2 L8.672,29.824 L7.136,29.6 L8.832,20.992 C9.696,22.688 11.2,24 13.568,24 Z M9.216,19.04 L9.344,18.4 C10.4,13.984 12.448,8.8 14.688,8.8 C16.448,8.8 16.832,10.464 16.832,12.768 C16.832,15.68 15.36,22.24 11.52,22.24 C10.176,22.24 9.504,20.672 9.216,19.04 Z" id="Shape"></path>
                        <path d="M28.896,24 C31.456,24 33.696,22.528 35.264,20.768 C35.424,22.464 36.672,24 39.104,24 C41.344,24 42.336,22.816 43.264,21.728 L43.456,20.64 C42.72,21.408 41.888,22.24 40.96,22.24 C40.384,22.24 40.096,21.92 40.096,21.216 C40.096,20.288 42.304,9.504 42.784,7.04 L37.536,8.032 L37.056,10.304 C36.224,8.48 34.656,7.04 32.192,7.04 C26.784,7.04 23.712,13.024 23.712,17.92 C23.712,21.056 25.024,24 28.896,24 Z M28.96,18.24 C28.96,15.36 30.432,8.8 34.176,8.8 C35.744,8.8 36.416,10.656 36.64,12.416 C36.192,14.784 35.648,17.504 35.392,19.072 C34.496,20.704 33.024,22.24 31.616,22.24 C29.76,22.24 28.96,20.544 28.96,18.24 Z" id="Shape"></path>
                        <path d="M53.088,24 C59.776,24 63.2,17.76 63.2,11.232 C63.2,5.888 60.544,0 54.464,0 C53.376,0 52.192,0.224 50.88,0.704 L50.88,0.736 C50.08,1.056 49.024,1.984 49.024,3.008 C49.024,3.904 49.728,4.608 50.688,4.608 C51.936,4.608 53.152,3.52 53.152,2.24 C53.152,1.824 53.024,1.472 52.8,1.184 C53.28,1.088 53.728,1.056 54.176,1.056 C58.08,1.056 59.2,4.512 59.2,7.52 C59.2,8.288 59.136,9.056 59.04,9.76 C57.536,7.68 55.456,7.04 53.92,7.04 C49.184,7.04 45.568,12.288 45.568,17.184 C45.568,21.76 49.184,24 53.088,24 Z M50.656,18.88 C50.656,15.904 52.32,8.8 55.968,8.8 C57.856,8.8 58.496,11.168 58.496,13.376 C58.496,16.576 56.8,23.104 53.376,23.104 C51.264,23.104 50.656,20.96 50.656,18.88 Z" id="Shape"></path>
                        <path d="M69.888,24 C71.872,24 74.08,22.624 75.584,21.056 C75.872,22.624 77.088,24 79.392,24 C81.632,24 82.624,22.816 83.552,21.728 L83.744,20.64 C83.008,21.408 82.176,22.24 81.248,22.24 C80.672,22.24 80.384,21.92 80.384,21.216 C80.384,20.288 82.624,9.504 83.072,7.04 L77.856,8.032 C77.504,9.696 75.808,17.984 75.552,19.968 C74.56,21.184 73.28,22.24 72.064,22.24 C71.008,22.24 70.592,21.504 70.592,20.384 C70.592,19.264 71.936,13.28 72.704,9.44 C72.928,8.352 72.288,7.424 71.104,7.168 C69.12,6.72 67.36,7.552 65.312,8.608 L64.992,10.016 C65.92,9.472 66.944,9.12 67.328,9.184 C67.52,9.248 67.68,9.536 67.584,9.952 L67.424,10.624 C66.464,15.136 65.568,19.584 65.568,20.384 C65.568,22.56 67.104,24 69.888,24 Z" id="Path"></path>
                        <path d="M93.568,24 C99.488,24 104.384,19.328 104.384,13.728 C104.384,9.408 100.896,7.04 96.832,7.04 C91.008,7.04 86.016,11.616 86.016,17.312 C86.016,21.632 89.536,24 93.568,24 Z M91.136,18.784 C91.136,15.424 93.344,7.936 96.704,7.936 C98.336,7.936 99.264,9.6 99.264,12.256 C99.264,15.648 97.088,23.104 93.76,23.104 C92.128,23.104 91.136,21.44 91.136,18.784 Z" id="Shape"></path>
                        <path d="M113.12,24 C116.192,24 119.808,22.976 120.64,18.72 L118.464,18.72 C117.952,21.248 116.512,23.104 114.08,23.104 C112.992,23.104 111.808,22.336 111.808,20.96 C111.808,14.784 120.704,17.408 120.704,11.328 C120.704,8.832 117.568,7.04 114.656,7.04 C111.616,7.04 107.872,8.544 107.104,12.32 L109.312,12.32 C109.696,10.368 111.104,7.936 113.536,7.936 C114.784,7.936 115.872,8.896 115.872,10.272 C115.872,16.928 106.976,13.888 106.976,19.936 C106.976,22.816 110.592,24 113.12,24 Z" id="Path"></path>
                        <path d="M134.016,24 C139.424,24 142.528,18.016 142.528,13.12 C142.528,9.984 140.992,7.04 137.344,7.04 C134.624,7.04 132.576,8.96 131.072,11.968 L131.552,9.472 C131.776,8.32 131.104,7.424 129.952,7.2 C127.936,6.784 126.176,7.648 124.16,8.768 L123.872,10.176 C124.768,9.6 125.792,9.216 126.176,9.28 C126.4,9.312 126.56,9.632 126.464,10.016 L126.304,10.72 L122.592,29.6 L120.736,29.824 L120.448,31.2 L128.832,31.2 L129.12,29.824 L127.584,29.6 L129.28,20.992 C130.144,22.688 131.648,24 134.016,24 Z M129.664,19.04 L129.792,18.4 C130.848,13.984 132.896,8.8 135.136,8.8 C136.896,8.8 137.28,10.464 137.28,12.768 C137.28,15.68 135.808,22.24 131.968,22.24 C130.624,22.24 129.952,20.672 129.664,19.04 Z" id="Shape"></path>
                        <path d="M149.344,24 C151.904,24 154.144,22.528 155.712,20.768 C155.872,22.464 157.12,24 159.552,24 C161.792,24 162.784,22.816 163.712,21.728 L163.904,20.64 C163.168,21.408 162.336,22.24 161.408,22.24 C160.832,22.24 160.544,21.92 160.544,21.216 C160.544,20.288 162.752,9.504 163.232,7.04 L157.984,8.032 L157.504,10.304 C156.672,8.48 155.104,7.04 152.64,7.04 C147.232,7.04 144.16,13.024 144.16,17.92 C144.16,21.056 145.472,24 149.344,24 Z M149.408,18.24 C149.408,15.36 150.88,8.8 154.624,8.8 C156.192,8.8 156.864,10.656 157.088,12.416 C156.64,14.784 156.096,17.504 155.84,19.072 C154.944,20.704 153.472,22.24 152.064,22.24 C150.208,22.24 149.408,20.544 149.408,18.24 Z" id="Shape"></path>
                        <path d="M172.416,31.2 L180.8,31.2 L181.056,29.824 L179.552,29.6 L181.024,22.016 C181.952,23.168 183.264,24 185.12,24 C190.464,24 193.664,18.112 193.664,13.12 C193.664,9.984 192.256,7.04 188.384,7.04 C186.56,7.04 184.928,7.776 183.584,8.864 L184.832,2.4 C185.056,1.28 184.384,0.384 183.2,0.16 C181.184,-0.256 179.488,0.608 177.44,1.728 L177.152,3.136 C178.048,2.56 179.072,2.208 179.456,2.272 C179.68,2.304 179.84,2.592 179.744,3.008 L179.584,3.68 L178.528,9.088 C177.6,7.904 176.256,7.04 174.4,7.04 C169.056,7.04 165.92,12.928 165.92,17.92 C165.92,21.056 167.232,24 171.104,24 C172.96,24 174.624,23.232 176,22.176 L174.56,29.6 L172.704,29.824 L172.416,31.2 Z M171.168,18.24 C171.168,15.36 172.64,8.8 176.384,8.8 C177.312,8.8 177.92,9.44 178.304,10.272 L176.224,20.96 C175.488,21.728 174.624,22.24 173.76,22.24 C171.904,22.24 171.168,20.544 171.168,18.24 Z M181.28,20.64 L183.296,10.272 C184.128,9.408 185.056,8.8 185.92,8.8 C187.776,8.8 188.416,10.464 188.416,12.768 C188.416,15.68 187.104,22.24 183.36,22.24 C182.4,22.24 181.728,21.568 181.28,20.64 Z" id="Shape"></path>
                        <path d="M200.608,24 C202.592,24 204.8,22.624 206.304,21.056 C206.592,22.624 207.808,24 210.112,24 C212.352,24 213.344,22.816 214.272,21.728 L214.464,20.64 C213.728,21.408 212.896,22.24 211.968,22.24 C211.392,22.24 211.104,21.92 211.104,21.216 C211.104,20.288 213.344,9.504 213.792,7.04 L208.576,8.032 C208.224,9.696 206.528,17.984 206.272,19.968 C205.28,21.184 204,22.24 202.784,22.24 C201.728,22.24 201.312,21.504 201.312,20.384 C201.312,19.264 202.656,13.28 203.424,9.44 C203.648,8.352 203.008,7.424 201.824,7.168 C199.84,6.72 198.08,7.552 196.032,8.608 L195.712,10.016 C196.64,9.472 197.664,9.12 198.048,9.184 C198.24,9.248 198.4,9.536 198.304,9.952 L198.144,10.624 C197.184,15.136 196.288,19.584 196.288,20.384 C196.288,22.56 197.824,24 200.608,24 Z" id="Path"></path>
                        <path d="M216.64,31.68 C219.232,31.68 221.856,29.888 222.688,25.568 L225.824,9.44 C226.048,8.32 225.376,7.424 224.224,7.2 C222.208,6.784 220.48,7.648 218.432,8.768 L218.144,10.176 C219.072,9.6 220.064,9.216 220.448,9.312 C220.672,9.344 220.832,9.632 220.736,10.048 L220.608,10.72 L217.664,25.568 C217.216,27.904 216.672,29.92 215.328,29.92 C214.336,29.92 214.176,28 214.176,26.528 L212.832,26.528 C212.832,29.696 213.248,31.68 216.64,31.68 Z M222.304,3.552 C222.304,4.544 223.008,5.28 224.032,5.28 C225.344,5.28 226.592,4.096 226.592,2.784 C226.592,1.824 225.856,1.056 224.832,1.056 C223.552,1.056 222.304,2.24 222.304,3.552 Z" id="Shape"></path>
                        <path d="M232.352,24 C234.912,24 237.152,22.528 238.72,20.768 C238.88,22.464 240.128,24 242.56,24 C244.8,24 245.792,22.816 246.72,21.728 L246.912,20.64 C246.176,21.408 245.344,22.24 244.416,22.24 C243.84,22.24 243.552,21.92 243.552,21.216 C243.552,20.288 245.76,9.504 246.24,7.04 L240.992,8.032 L240.512,10.304 C239.68,8.48 238.112,7.04 235.648,7.04 C230.24,7.04 227.168,13.024 227.168,17.92 C227.168,21.056 228.48,24 232.352,24 Z M232.416,18.24 C232.416,15.36 233.888,8.8 237.632,8.8 C239.2,8.8 239.872,10.656 240.096,12.416 C239.648,14.784 239.104,17.504 238.848,19.072 C237.952,20.704 236.48,22.24 235.072,22.24 C233.216,22.24 232.416,20.544 232.416,18.24 Z" id="Shape"></path>
                    </g>
                </g>
            </g>
        </g>
    </g>
</svg>